<?xml version="1.0" encoding="UTF-8" standalone="no"?>
<!-- Created with Inkscape (http://www.inkscape.org/) -->

<svg
   xmlns:dc="http://purl.org/dc/elements/1.1/"
   xmlns:cc="http://creativecommons.org/ns#"
   xmlns:rdf="http://www.w3.org/1999/02/22-rdf-syntax-ns#"
   xmlns:svg="http://www.w3.org/2000/svg"
   xmlns="http://www.w3.org/2000/svg"
   xmlns:sodipodi="http://sodipodi.sourceforge.net/DTD/sodipodi-0.dtd"
   xmlns:inkscape="http://www.inkscape.org/namespaces/inkscape"
   version="1.1"
   id="svg2"
   xml:space="preserve"
   width="133.33333"
   height="133.33333"
   viewBox="0 0 133.33333 133.33333"
   sodipodi:docname="overlay09.svg"
   inkscape:version="0.92.2 2405546, 2018-03-11"><metadata
     id="metadata8"><rdf:RDF><cc:Work
         rdf:about=""><dc:format>image/svg+xml</dc:format><dc:type
           rdf:resource="http://purl.org/dc/dcmitype/StillImage" /><dc:title /></cc:Work></rdf:RDF></metadata><defs
     id="defs6"><clipPath
       clipPathUnits="userSpaceOnUse"
       id="clipPath18"><path
         d="M 50,100 C 12.956,100 0,87.039 0,50 v 0 C 0,12.961 12.956,0 50,0 v 0 c 37.045,0 50,12.961 50,50 v 0 c 0,37.044 -12.955,50 -50,50 z"
         id="path16"
         inkscape:connector-curvature="0" /></clipPath><linearGradient
       x1="0"
       y1="0"
       x2="1"
       y2="0"
       gradientUnits="userSpaceOnUse"
       gradientTransform="matrix(77.78125,-77.78125,-77.78125,-77.78125,11.109896,88.891144)"
       spreadMethod="pad"
       id="linearGradient30"><stop
         style="stop-opacity:1;stop-color:#8fe7f7"
         offset="0"
         id="stop24" /><stop
         style="stop-opacity:1;stop-color:#8fe7f7"
         offset="0.0000006"
         id="stop26" /><stop
         style="stop-opacity:1;stop-color:#4394e9"
         offset="1"
         id="stop28" /></linearGradient><clipPath
       clipPathUnits="userSpaceOnUse"
       id="clipPath40"><path
         d="M 50,100 C 12.956,100 0,87.039 0,50 v 0 C 0,12.961 12.956,0 50,0 v 0 c 37.045,0 50,12.961 50,50 v 0 c 0,37.044 -12.955,50 -50,50 z"
         id="path38"
         inkscape:connector-curvature="0" /></clipPath><linearGradient
       x1="0"
       y1="0"
       x2="1"
       y2="0"
       gradientUnits="userSpaceOnUse"
       gradientTransform="matrix(77.78125,-77.78125,-77.78125,-77.78125,11.109896,88.891144)"
       spreadMethod="pad"
       id="linearGradient52"><stop
         style="stop-opacity:1;stop-color:#8fe7f7"
         offset="0"
         id="stop46" /><stop
         style="stop-opacity:1;stop-color:#8fe7f7"
         offset="0.0000006"
         id="stop48" /><stop
         style="stop-opacity:1;stop-color:#4394e9"
         offset="1"
         id="stop50" /></linearGradient><clipPath
       clipPathUnits="userSpaceOnUse"
       id="clipPath62"><path
         d="M 50,100 C 12.956,100 0,87.039 0,50 v 0 C 0,12.961 12.956,0 50,0 v 0 c 37.045,0 50,12.961 50,50 v 0 c 0,37.044 -12.955,50 -50,50 z"
         id="path60"
         inkscape:connector-curvature="0" /></clipPath><linearGradient
       x1="0"
       y1="0"
       x2="1"
       y2="0"
       gradientUnits="userSpaceOnUse"
       gradientTransform="matrix(77.78125,-77.78125,-77.78125,-77.78125,11.109896,88.891144)"
       spreadMethod="pad"
       id="linearGradient74"><stop
         style="stop-opacity:1;stop-color:#ababab"
         offset="0"
         id="stop68" /><stop
         style="stop-opacity:1;stop-color:#ababab"
         offset="0.00000049"
         id="stop70" /><stop
         style="stop-opacity:1;stop-color:#878787"
         offset="1"
         id="stop72" /></linearGradient><clipPath
       clipPathUnits="userSpaceOnUse"
       id="clipPath84"><path
         d="M 50,49.921 18.974,20.724 39.261,0.439 C 42.594,0.148 46.161,0 50,0 v 0 c 37.045,0 50,12.961 50,50 v 0 c 0,2.417 -0.059,4.725 -0.172,6.94 v 0 L 81.273,75.497 59.925,74.134 48.3,85.759 Z"
         id="path82"
         inkscape:connector-curvature="0" /></clipPath><clipPath
       clipPathUnits="userSpaceOnUse"
       id="clipPath92"><path
         d="M -32768,32767 H 32767 V -32768 H -32768 Z"
         id="path90"
         inkscape:connector-curvature="0" /></clipPath><linearGradient
       x1="0"
       y1="0"
       x2="1"
       y2="0"
       gradientUnits="userSpaceOnUse"
       gradientTransform="matrix(57.619835,-57.619835,-57.619835,-57.619835,30.387711,67.846146)"
       spreadMethod="pad"
       id="linearGradient100"><stop
         style="stop-opacity:0.11999695;stop-color:#ffffff"
         offset="0"
         id="stop94" /><stop
         style="stop-opacity:0.11999695;stop-color:#ffffff"
         offset="0.00000049"
         id="stop96" /><stop
         style="stop-opacity:0;stop-color:#ffffff"
         offset="1"
         id="stop98" /></linearGradient><mask
       maskUnits="userSpaceOnUse"
       x="0"
       y="0"
       width="1"
       height="1"
       id="mask102"><g
         id="g112"><g
           clip-path="url(#clipPath92)"
           id="g110"><g
             id="g108"><g
               id="g106"><path
                 d="M -32768,32767 H 32767 V -32768 H -32768 Z"
                 style="fill:url(#linearGradient100);stroke:none"
                 id="path104"
                 inkscape:connector-curvature="0" /></g></g></g></g></mask><linearGradient
       x1="0"
       y1="0"
       x2="1"
       y2="0"
       gradientUnits="userSpaceOnUse"
       gradientTransform="matrix(57.619835,-57.619835,-57.619835,-57.619835,30.387711,67.846146)"
       spreadMethod="pad"
       id="linearGradient124"><stop
         style="stop-opacity:1;stop-color:#000000"
         offset="0"
         id="stop118" /><stop
         style="stop-opacity:1;stop-color:#000000"
         offset="0.00000049"
         id="stop120" /><stop
         style="stop-opacity:1;stop-color:#000000"
         offset="1"
         id="stop122" /></linearGradient><clipPath
       clipPathUnits="userSpaceOnUse"
       id="clipPath134"><path
         d="M 0,100 H 100 V 0 H 0 Z"
         id="path132"
         inkscape:connector-curvature="0" /></clipPath><clipPath
       clipPathUnits="userSpaceOnUse"
       id="clipPath146"><path
         d="M 11.174,34.358 C 16.796,17.346 26.585,12.5 50,12.5 v 0 c 23.415,0 33.205,4.846 38.826,21.858 v 0 C 96.738,58.309 87.286,69.167 50,69.167 v 0 C 12.714,69.167 3.262,58.306 11.174,34.358"
         id="path144"
         inkscape:connector-curvature="0" /></clipPath><linearGradient
       x1="0"
       y1="0"
       x2="1"
       y2="0"
       gradientUnits="userSpaceOnUse"
       gradientTransform="matrix(53.725483,-53.725483,-53.725483,-53.725483,23.137833,70.251381)"
       spreadMethod="pad"
       id="linearGradient156"><stop
         style="stop-opacity:1;stop-color:#c9c9c9"
         offset="0"
         id="stop152" /><stop
         style="stop-opacity:1;stop-color:#d8d8d8"
         offset="1"
         id="stop154" /></linearGradient></defs><sodipodi:namedview
     pagecolor="#ffffff"
     bordercolor="#666666"
     borderopacity="1"
     objecttolerance="10"
     gridtolerance="10"
     guidetolerance="10"
     inkscape:pageopacity="0"
     inkscape:pageshadow="2"
     inkscape:window-width="1366"
     inkscape:window-height="706"
     id="namedview4"
     showgrid="false"
     inkscape:zoom="1.7700001"
     inkscape:cx="66.666665"
     inkscape:cy="66.666665"
     inkscape:window-x="0"
     inkscape:window-y="34"
     inkscape:window-maximized="1"
     inkscape:current-layer="g10" /><g
     id="g10"
     inkscape:groupmode="layer"
     inkscape:label="filebrowser"
     transform="matrix(1.3333333,0,0,-1.3333333,0,133.33333)"><g
       id="g12"
       transform="matrix(0.93750002,0,0,0.93750002,3.0000001,3.0000014)"><g
         id="g14"
         clip-path="url(#clipPath18)"><g
           id="g20"><g
             id="g22"><path
               d="M 50,100 C 12.956,100 0,87.039 0,50 v 0 C 0,12.961 12.956,0 50,0 v 0 c 37.045,0 50,12.961 50,50 v 0 c 0,37.044 -12.955,50 -50,50 z"
               style="fill:url(#linearGradient30);stroke:none"
               id="path32"
               inkscape:connector-curvature="0" /></g></g></g></g><g
       id="g34"
       transform="matrix(0.93750002,0,0,0.93750002,3.0000001,3.0000014)"><g
         id="g36"
         clip-path="url(#clipPath40)"><g
           id="g42"><g
             id="g44"><path
               d="M 50,100 C 12.956,100 0,87.039 0,50 v 0 C 0,12.961 12.956,0 50,0 v 0 c 37.045,0 50,12.961 50,50 v 0 c 0,37.044 -12.955,50 -50,50 z"
               style="fill:url(#linearGradient52);stroke:none"
               id="path54"
               inkscape:connector-curvature="0" /></g></g></g></g><g
       id="g56"
       transform="matrix(0.93750002,0,0,0.93750002,3.0000001,3.0000014)"><g
         id="g58"
         clip-path="url(#clipPath62)"><g
           id="g64"><g
             id="g66"><path
               d="M 50,100 C 12.956,100 0,87.039 0,50 v 0 C 0,12.961 12.956,0 50,0 v 0 c 37.045,0 50,12.961 50,50 v 0 c 0,37.044 -12.955,50 -50,50 z"
               style="fill:url(#linearGradient74);stroke:none"
               id="path76"
               inkscape:connector-curvature="0" /></g></g></g></g></g></svg>