<?xml version="1.0" encoding="UTF-8" standalone="no"?>
<!-- Created with Inkscape (http://www.inkscape.org/) -->

<svg
   xmlns:dc="http://purl.org/dc/elements/1.1/"
   xmlns:cc="http://creativecommons.org/ns#"
   xmlns:rdf="http://www.w3.org/1999/02/22-rdf-syntax-ns#"
   xmlns:svg="http://www.w3.org/2000/svg"
   xmlns="http://www.w3.org/2000/svg"
   xmlns:sodipodi="http://sodipodi.sourceforge.net/DTD/sodipodi-0.dtd"
   xmlns:inkscape="http://www.inkscape.org/namespaces/inkscape"
   version="1.1"
   id="svg2"
   xml:space="preserve"
   width="106.66667"
   height="106.66667"
   viewBox="0 0 106.66667 106.66667"
   sodipodi:docname="overlay11.svg"
   inkscape:version="0.92.2 2405546, 2018-03-11"><metadata
     id="metadata8"><rdf:RDF><cc:Work
         rdf:about=""><dc:format>image/svg+xml</dc:format><dc:type
           rdf:resource="http://purl.org/dc/dcmitype/StillImage" /><dc:title /></cc:Work></rdf:RDF></metadata><defs
     id="defs6"><clipPath
       clipPathUnits="userSpaceOnUse"
       id="clipPath18"><path
         d="m 1,39.956 c 0,-28.892 10.105,-39 39,-39 v 0 c 28.894,0 39,10.108 39,39 v 0 c 0,28.894 -10.106,39 -39,39 v 0 c -28.895,0 -39,-10.106 -39,-39"
         id="path16"
         inkscape:connector-curvature="0" /></clipPath><linearGradient
       x1="0"
       y1="0"
       x2="1"
       y2="0"
       gradientUnits="userSpaceOnUse"
       gradientTransform="matrix(60.670349,-60.670349,-60.670349,-60.670349,9.6648254,70.291695)"
       spreadMethod="pad"
       id="linearGradient30"><stop
         style="stop-opacity:1;stop-color:#ffa6ac"
         offset="0"
         id="stop24" /><stop
         style="stop-opacity:1;stop-color:#ffa6ac"
         offset="0.0000003"
         id="stop26" /><stop
         style="stop-opacity:1;stop-color:#ec7676"
         offset="1"
         id="stop28" /></linearGradient><clipPath
       clipPathUnits="userSpaceOnUse"
       id="clipPath40"><path
         d="m 1,39.956 c 0,-28.892 10.105,-39 39,-39 v 0 c 28.894,0 39,10.108 39,39 v 0 c 0,28.894 -10.106,39 -39,39 v 0 c -28.895,0 -39,-10.106 -39,-39"
         id="path38"
         inkscape:connector-curvature="0" /></clipPath><linearGradient
       x1="0"
       y1="0"
       x2="1"
       y2="0"
       gradientUnits="userSpaceOnUse"
       gradientTransform="matrix(80,-80,-80,-80,0,79.956329)"
       spreadMethod="pad"
       id="linearGradient52"><stop
         style="stop-opacity:1;stop-color:#ffa6ac"
         offset="0"
         id="stop46" /><stop
         style="stop-opacity:1;stop-color:#ffa6ac"
         offset="0.0000003"
         id="stop48" /><stop
         style="stop-opacity:1;stop-color:#ec7676"
         offset="1"
         id="stop50" /></linearGradient><clipPath
       clipPathUnits="userSpaceOnUse"
       id="clipPath62"><path
         d="M 0,80 H 80 V 0 H 0 Z"
         id="path60"
         inkscape:connector-curvature="0" /></clipPath><clipPath
       clipPathUnits="userSpaceOnUse"
       id="clipPath70"><path
         d="M 15.0625,62.3334 H 78.9748 V 0.95636 H 15.0625 Z"
         id="path68"
         inkscape:connector-curvature="0" /></clipPath><clipPath
       clipPathUnits="userSpaceOnUse"
       id="clipPath74"><path
         d="M 78.975,37.713 63.188,53.5 54.354,62.333 H 20.469 c -1.582,0 -2.865,-1.282 -2.865,-2.864 V 50.394 C 16.183,50.275 15.063,49.098 15.063,47.646 V 19.771 c 0,-0.772 0.316,-1.469 0.825,-1.971 L 15.887,17.799 32.462,1.224 C 34.819,1.044 37.328,0.956 40,0.956 c 28.131,0 38.449,9.588 38.975,36.757"
         id="path72"
         inkscape:connector-curvature="0" /></clipPath><clipPath
       clipPathUnits="userSpaceOnUse"
       id="clipPath78"><path
         d="M -32768,32767 H 32767 V -32768 H -32768 Z"
         id="path76"
         inkscape:connector-curvature="0" /></clipPath><linearGradient
       x1="0"
       y1="0"
       x2="1"
       y2="0"
       gradientUnits="userSpaceOnUse"
       gradientTransform="matrix(51.879616,-51.879616,-51.879616,-51.879616,16.067741,59.118904)"
       spreadMethod="pad"
       id="linearGradient86"><stop
         style="stop-opacity:0.29999237;stop-color:#ffffff"
         offset="0"
         id="stop80" /><stop
         style="stop-opacity:0.29999237;stop-color:#ffffff"
         offset="0.0000003"
         id="stop82" /><stop
         style="stop-opacity:0;stop-color:#ffffff"
         offset="1"
         id="stop84" /></linearGradient><mask
       maskUnits="userSpaceOnUse"
       x="0"
       y="0"
       width="1"
       height="1"
       id="mask88"><g
         id="g98"><g
           clip-path="url(#clipPath78)"
           id="g96"><g
             id="g94"><g
               id="g92"><path
                 d="M -32768,32767 H 32767 V -32768 H -32768 Z"
                 style="fill:url(#linearGradient86);stroke:none"
                 id="path90"
                 inkscape:connector-curvature="0" /></g></g></g></g></mask><linearGradient
       x1="0"
       y1="0"
       x2="1"
       y2="0"
       gradientUnits="userSpaceOnUse"
       gradientTransform="matrix(51.879616,-51.879616,-51.879616,-51.879616,16.067741,59.118904)"
       spreadMethod="pad"
       id="linearGradient106"><stop
         style="stop-opacity:1;stop-color:#000000"
         offset="0"
         id="stop100" /><stop
         style="stop-opacity:1;stop-color:#000000"
         offset="0.0000003"
         id="stop102" /><stop
         style="stop-opacity:1;stop-color:#000000"
         offset="1"
         id="stop104" /></linearGradient><clipPath
       clipPathUnits="userSpaceOnUse"
       id="clipPath136"><path
         d="M 17.6042,62.3333 H 63.1875 V 22.1667 H 17.6042 Z"
         id="path134"
         inkscape:connector-curvature="0" /></clipPath><clipPath
       clipPathUnits="userSpaceOnUse"
       id="clipPath152"><path
         d="m 55.259,54.405 7.928,-7.929 V 53.5 l -4.416,4.417 z"
         id="path150"
         inkscape:connector-curvature="0" /></clipPath><clipPath
       clipPathUnits="userSpaceOnUse"
       id="clipPath160"><path
         d="M -32768,32767 H 32767 V -32768 H -32768 Z"
         id="path158"
         inkscape:connector-curvature="0" /></clipPath><linearGradient
       x1="0"
       y1="0"
       x2="1"
       y2="0"
       gradientUnits="userSpaceOnUse"
       gradientTransform="matrix(7.9286494,-7.9286494,-7.9286494,-7.9286494,57.014847,56.160721)"
       spreadMethod="pad"
       id="linearGradient168"><stop
         style="stop-opacity:0.14999619;stop-color:#ffffff"
         offset="0"
         id="stop162" /><stop
         style="stop-opacity:0.14999619;stop-color:#ffffff"
         offset="0.0000004"
         id="stop164" /><stop
         style="stop-opacity:0;stop-color:#ffffff"
         offset="1"
         id="stop166" /></linearGradient><mask
       maskUnits="userSpaceOnUse"
       x="0"
       y="0"
       width="1"
       height="1"
       id="mask170"><g
         id="g180"><g
           clip-path="url(#clipPath160)"
           id="g178"><g
             id="g176"><g
               id="g174"><path
                 d="M -32768,32767 H 32767 V -32768 H -32768 Z"
                 style="fill:url(#linearGradient168);stroke:none"
                 id="path172"
                 inkscape:connector-curvature="0" /></g></g></g></g></mask><linearGradient
       x1="0"
       y1="0"
       x2="1"
       y2="0"
       gradientUnits="userSpaceOnUse"
       gradientTransform="matrix(7.9286494,-7.9286494,-7.9286494,-7.9286494,57.014847,56.160721)"
       spreadMethod="pad"
       id="linearGradient192"><stop
         style="stop-opacity:1;stop-color:#000000"
         offset="0"
         id="stop186" /><stop
         style="stop-opacity:1;stop-color:#000000"
         offset="0.0000004"
         id="stop188" /><stop
         style="stop-opacity:1;stop-color:#000000"
         offset="1"
         id="stop190" /></linearGradient><clipPath
       clipPathUnits="userSpaceOnUse"
       id="clipPath202"><path
         d="M 0,80 H 80 V 0 H 0 Z"
         id="path200"
         inkscape:connector-curvature="0" /></clipPath><clipPath
       clipPathUnits="userSpaceOnUse"
       id="clipPath230"><path
         d="M 15.0625,47.6459 H 65.7292 V 17 H 15.0625 Z"
         id="path228"
         inkscape:connector-curvature="0" /></clipPath><clipPath
       clipPathUnits="userSpaceOnUse"
       id="clipPath246"><path
         d="m 17.6042,46.2475 h 48.125 V 17 h -48.125 z"
         id="path244"
         inkscape:connector-curvature="0" /></clipPath><clipPath
       clipPathUnits="userSpaceOnUse"
       id="clipPath262"><path
         d="M 0,80 H 80 V 0 H 0 Z"
         id="path260"
         inkscape:connector-curvature="0" /></clipPath><clipPath
       clipPathUnits="userSpaceOnUse"
       id="clipPath270"><path
         d="M 1.02344,79 H 78.9766 V 1 H 1.02344 Z"
         id="path268"
         inkscape:connector-curvature="0" /></clipPath><clipPath
       clipPathUnits="userSpaceOnUse"
       id="clipPath274"><path
         d="M 1.02344,79 H 78.9766 V 1 H 1.02344 Z"
         id="path272"
         inkscape:connector-curvature="0" /></clipPath><clipPath
       clipPathUnits="userSpaceOnUse"
       id="clipPath278"><path
         d="M 78.977,40 C 78.977,11.107 68.877,1 40,1 11.123,1 1.023,11.107 1.023,40 1.023,68.894 11.123,79 40,79 68.877,79 78.977,68.894 78.977,40"
         id="path276"
         inkscape:connector-curvature="0" /></clipPath><clipPath
       clipPathUnits="userSpaceOnUse"
       id="clipPath282"><path
         d="M -24534,24614 H 8232 V -8152 h -32766 z"
         id="path280"
         inkscape:connector-curvature="0" /></clipPath><clipPath
       clipPathUnits="userSpaceOnUse"
       id="clipPath286"><path
         d="M -24534,24614 H 8232 V -8152 h -32766 z"
         id="path284"
         inkscape:connector-curvature="0" /></clipPath><mask
       maskUnits="userSpaceOnUse"
       x="0"
       y="0"
       width="1"
       height="1"
       id="mask288"><g
         id="g300"><g
           clip-path="url(#clipPath282)"
           id="g298"><g
             id="g296"><g
               id="g290" /><g
               id="g294"><g
                 clip-path="url(#clipPath286)"
                 id="g292" /></g></g></g></g></mask><linearGradient
       x1="0"
       y1="0"
       x2="1"
       y2="0"
       gradientUnits="userSpaceOnUse"
       gradientTransform="matrix(0,-53.61993,-53.61993,0,40,74.818359)"
       spreadMethod="pad"
       id="linearGradient306"><stop
         style="stop-opacity:1;stop-color:#ffffff"
         offset="0"
         id="stop302" /><stop
         style="stop-opacity:1;stop-color:#e4e4e5"
         offset="1"
         id="stop304" /></linearGradient><mask
       maskUnits="userSpaceOnUse"
       x="0"
       y="0"
       width="1"
       height="1"
       id="mask308"><g
         id="g334"><g
           clip-path="url(#clipPath270)"
           id="g332"
           style="opacity:0.5"><g
             id="g330"><g
               id="g310" /><g
               id="g328"><g
                 clip-path="url(#clipPath274)"
                 id="g326"><g
                   id="g324"><g
                     clip-path="url(#clipPath278)"
                     id="g322"><g
                       id="g320"><g
                         id="g312" /><g
                         mask="url(#mask288)"
                         id="g318"><g
                           id="g316"><path
                             d="M 78.977,40 C 78.977,11.107 68.877,1 40,1 11.123,1 1.023,11.107 1.023,40 1.023,68.894 11.123,79 40,79 68.877,79 78.977,68.894 78.977,40"
                             style="fill:url(#linearGradient306);stroke:none"
                             id="path314"
                             inkscape:connector-curvature="0" /></g></g></g></g></g></g></g></g></g></g></mask><clipPath
       clipPathUnits="userSpaceOnUse"
       id="clipPath342"><path
         d="M 1.02344,79 H 78.9766 V 1 H 1.02344 Z"
         id="path340"
         inkscape:connector-curvature="0" /></clipPath><clipPath
       clipPathUnits="userSpaceOnUse"
       id="clipPath346"><path
         d="M 78.977,40 C 78.977,11.107 68.877,1 40,1 11.123,1 1.023,11.107 1.023,40 1.023,68.894 11.123,79 40,79 68.877,79 78.977,68.894 78.977,40"
         id="path344"
         inkscape:connector-curvature="0" /></clipPath><linearGradient
       x1="0"
       y1="0"
       x2="1"
       y2="0"
       gradientUnits="userSpaceOnUse"
       gradientTransform="matrix(0,-53.61993,-53.61993,0,40.000019,74.818184)"
       spreadMethod="pad"
       id="linearGradient352"><stop
         style="stop-opacity:1;stop-color:#ffffff"
         offset="0"
         id="stop348" /><stop
         style="stop-opacity:1;stop-color:#000000"
         offset="1"
         id="stop350" /></linearGradient><clipPath
       clipPathUnits="userSpaceOnUse"
       id="clipPath374"><path
         d="M 1,79 H 79 V 1 H 1 Z"
         id="path372"
         inkscape:connector-curvature="0" /></clipPath><clipPath
       clipPathUnits="userSpaceOnUse"
       id="clipPath378"><path
         d="M 1,79 H 79 V 1 H 1 Z"
         id="path376"
         inkscape:connector-curvature="0" /></clipPath><clipPath
       clipPathUnits="userSpaceOnUse"
       id="clipPath382"><path
         d="M -24534,24614 H 8232 V -8152 h -32766 z"
         id="path380"
         inkscape:connector-curvature="0" /></clipPath><clipPath
       clipPathUnits="userSpaceOnUse"
       id="clipPath386"><path
         d="M -24534,24614 H 8232 V -8152 h -32766 z"
         id="path384"
         inkscape:connector-curvature="0" /></clipPath><mask
       maskUnits="userSpaceOnUse"
       x="0"
       y="0"
       width="1"
       height="1"
       id="mask388"><g
         id="g400"><g
           clip-path="url(#clipPath382)"
           id="g398"><g
             id="g396"><g
               id="g390" /><g
               id="g394"><g
                 clip-path="url(#clipPath386)"
                 id="g392" /></g></g></g></g></mask><clipPath
       clipPathUnits="userSpaceOnUse"
       id="clipPath404"><path
         d="M 1,79 H 79 V 1 H 1 Z"
         id="path402"
         inkscape:connector-curvature="0" /></clipPath><clipPath
       clipPathUnits="userSpaceOnUse"
       id="clipPath408"><path
         d="M 39.999,1.975 C 11.57,1.975 1.976,11.57 1.976,40 c 0,28.429 9.594,38.024 38.023,38.024 28.43,0 38.024,-9.595 38.024,-38.024 0,-28.43 -9.594,-38.025 -38.024,-38.025 m 0,77.025 C 11.105,79 1,68.894 1,40 1,11.107 11.105,1 39.999,1 68.896,1 79,11.107 79,40 79,68.894 68.896,79 39.999,79"
         id="path406"
         inkscape:connector-curvature="0" /></clipPath><linearGradient
       x1="0"
       y1="0"
       x2="1"
       y2="0"
       gradientUnits="userSpaceOnUse"
       gradientTransform="matrix(0,-77.263527,-77.263527,0,40,78.75293)"
       spreadMethod="pad"
       id="linearGradient414"><stop
         style="stop-opacity:1;stop-color:#ffffff"
         offset="0"
         id="stop410" /><stop
         style="stop-opacity:1;stop-color:#231815"
         offset="1"
         id="stop412" /></linearGradient><mask
       maskUnits="userSpaceOnUse"
       x="0"
       y="0"
       width="1"
       height="1"
       id="mask416"><g
         id="g450"><g
           clip-path="url(#clipPath374)"
           id="g448"
           style="opacity:0.25"><g
             id="g446"><g
               id="g418" /><g
               id="g444"><g
                 clip-path="url(#clipPath378)"
                 id="g442"><g
                   id="g440"><g
                     id="g420" /><g
                     mask="url(#mask388)"
                     id="g438"><g
                       id="g422" /><g
                       id="g436"><g
                         clip-path="url(#clipPath404)"
                         id="g434"><g
                           id="g432"><g
                             clip-path="url(#clipPath408)"
                             id="g430"><g
                               id="g428"><g
                                 id="g426"><path
                                   d="M 39.999,1.975 C 11.57,1.975 1.976,11.57 1.976,40 c 0,28.429 9.594,38.024 38.023,38.024 28.43,0 38.024,-9.595 38.024,-38.024 0,-28.43 -9.594,-38.025 -38.024,-38.025 m 0,77.025 C 11.105,79 1,68.894 1,40 1,11.107 11.105,1 39.999,1 68.896,1 79,11.107 79,40 79,68.894 68.896,79 39.999,79"
                                   style="fill:url(#linearGradient414);stroke:none"
                                   id="path424"
                                   inkscape:connector-curvature="0" /></g></g></g></g></g></g></g></g></g></g></g></g></g></mask><clipPath
       clipPathUnits="userSpaceOnUse"
       id="clipPath458"><path
         d="M 1,79 H 79 V 1 H 1 Z"
         id="path456"
         inkscape:connector-curvature="0" /></clipPath><clipPath
       clipPathUnits="userSpaceOnUse"
       id="clipPath462"><path
         d="M 39.999,1.975 C 11.57,1.975 1.976,11.57 1.976,40 c 0,28.429 9.594,38.024 38.023,38.024 28.43,0 38.024,-9.595 38.024,-38.024 0,-28.43 -9.594,-38.025 -38.024,-38.025 m 0,77.025 C 11.105,79 1,68.894 1,40 1,11.107 11.105,1 39.999,1 68.896,1 79,11.107 79,40 79,68.894 68.896,79 39.999,79"
         id="path460"
         inkscape:connector-curvature="0" /></clipPath><linearGradient
       x1="0"
       y1="0"
       x2="1"
       y2="0"
       gradientUnits="userSpaceOnUse"
       gradientTransform="matrix(0,-77.263527,-77.263527,0,40,78.753128)"
       spreadMethod="pad"
       id="linearGradient468"><stop
         style="stop-opacity:1;stop-color:#ffffff"
         offset="0"
         id="stop464" /><stop
         style="stop-opacity:1;stop-color:#ffffff"
         offset="1"
         id="stop466" /></linearGradient></defs><sodipodi:namedview
     pagecolor="#ffffff"
     bordercolor="#666666"
     borderopacity="1"
     objecttolerance="10"
     gridtolerance="10"
     guidetolerance="10"
     inkscape:pageopacity="0"
     inkscape:pageshadow="2"
     inkscape:window-width="1366"
     inkscape:window-height="706"
     id="namedview4"
     showgrid="false"
     inkscape:zoom="1.5644737"
     inkscape:cx="23.733414"
     inkscape:cy="53.325934"
     inkscape:window-x="0"
     inkscape:window-y="34"
     inkscape:window-maximized="1"
     inkscape:current-layer="g10" /><g
     id="g10"
     inkscape:groupmode="layer"
     inkscape:label="htc email"
     transform="matrix(1.3333333,0,0,-1.3333333,0,106.66667)"><g
       id="g12"
       transform="matrix(0.97115387,0,0,0.97060635,1.2788462,1.322099)"><g
         id="g14"
         clip-path="url(#clipPath18)"><g
           id="g20"><g
             id="g22"><path
               d="m 1,39.956 c 0,-28.892 10.105,-39 39,-39 v 0 c 28.894,0 39,10.108 39,39 v 0 c 0,28.894 -10.106,39 -39,39 v 0 c -28.895,0 -39,-10.106 -39,-39"
               style="fill:url(#linearGradient30);stroke:none"
               id="path32"
               inkscape:connector-curvature="0" /></g></g></g></g><g
       id="g34"
       transform="matrix(0.97115387,0,0,0.97060635,1.2788462,1.322099)"><g
         id="g36"
         clip-path="url(#clipPath40)"><g
           id="g42"><g
             id="g44"><path
               d="m 1,39.956 c 0,-28.892 10.105,-39 39,-39 v 0 c 28.894,0 39,10.108 39,39 v 0 c 0,28.894 -10.106,39 -39,39 v 0 c -28.895,0 -39,-10.106 -39,-39"
               style="fill:url(#linearGradient52);stroke:none"
               id="path54"
               inkscape:connector-curvature="0" /></g></g></g></g><g
       id="g256"
       transform="matrix(0.97115387,0,0,0.97060635,1.2788462,1.322099)"><g
         id="g258"
         clip-path="url(#clipPath262)"><g
           id="g264"><g
             id="g266" /><g
             id="g336"
             mask="url(#mask308)"><g
               id="g338" /><g
               id="g366"><g
                 clip-path="url(#clipPath342)"
                 id="g364"
                 style="opacity:0.5"><g
                   id="g362"><g
                     clip-path="url(#clipPath346)"
                     id="g360"><g
                       id="g358"><g
                         id="g356"><path
                           d="M 78.977,40 C 78.977,11.107 68.877,1 40,1 11.123,1 1.023,11.107 1.023,40 1.023,68.894 11.123,79 40,79 68.877,79 78.977,68.894 78.977,40"
                           style="fill:url(#linearGradient352);stroke:none"
                           id="path354"
                           inkscape:connector-curvature="0" /></g></g></g></g></g></g></g></g><g
           id="g368"><g
             id="g370" /><g
             id="g452"
             mask="url(#mask416)"><g
               id="g454" /><g
               id="g482"><g
                 clip-path="url(#clipPath458)"
                 id="g480"
                 style="opacity:0.25"><g
                   id="g478"><g
                     clip-path="url(#clipPath462)"
                     id="g476"><g
                       id="g474"><g
                         id="g472"><path
                           d="M 39.999,1.975 C 11.57,1.975 1.976,11.57 1.976,40 c 0,28.429 9.594,38.024 38.023,38.024 28.43,0 38.024,-9.595 38.024,-38.024 0,-28.43 -9.594,-38.025 -38.024,-38.025 m 0,77.025 C 11.105,79 1,68.894 1,40 1,11.107 11.105,1 39.999,1 68.896,1 79,11.107 79,40 79,68.894 68.896,79 39.999,79"
                           style="fill:url(#linearGradient468);stroke:none"
                           id="path470"
                           inkscape:connector-curvature="0" /></g></g></g></g></g></g></g></g></g></g></g></svg>