<?xml version="1.0" encoding="UTF-8" standalone="no"?>
<!-- Created with Inkscape (http://www.inkscape.org/) -->

<svg
   xmlns:dc="http://purl.org/dc/elements/1.1/"
   xmlns:cc="http://creativecommons.org/ns#"
   xmlns:rdf="http://www.w3.org/1999/02/22-rdf-syntax-ns#"
   xmlns:svg="http://www.w3.org/2000/svg"
   xmlns="http://www.w3.org/2000/svg"
   xmlns:sodipodi="http://sodipodi.sourceforge.net/DTD/sodipodi-0.dtd"
   xmlns:inkscape="http://www.inkscape.org/namespaces/inkscape"
   version="1.1"
   id="svg2"
   xml:space="preserve"
   width="106.66667"
   height="106.66667"
   viewBox="0 0 106.66667 106.66667"
   sodipodi:docname="overlay01.svg"
   inkscape:version="0.92.2 2405546, 2018-03-11"><metadata
     id="metadata8"><rdf:RDF><cc:Work
         rdf:about=""><dc:format>image/svg+xml</dc:format><dc:type
           rdf:resource="http://purl.org/dc/dcmitype/StillImage" /><dc:title /></cc:Work></rdf:RDF></metadata><defs
     id="defs6"><clipPath
       clipPathUnits="userSpaceOnUse"
       id="clipPath18"><path
         d="M 0,80 H 80 V 0 H 0 Z"
         id="path16"
         inkscape:connector-curvature="0" /></clipPath><clipPath
       clipPathUnits="userSpaceOnUse"
       id="clipPath30"><path
         d="m 1,39.956 c 0,-28.892 10.105,-39 39,-39 v 0 c 28.894,0 39,10.108 39,39 v 0 c 0,28.894 -10.106,39 -39,39 v 0 c -28.895,0 -39,-10.106 -39,-39"
         id="path28"
         inkscape:connector-curvature="0" /></clipPath><clipPath
       clipPathUnits="userSpaceOnUse"
       id="clipPath40"><path
         d="M 0,80 H 80 V 0 H 0 Z"
         id="path38"
         inkscape:connector-curvature="0" /></clipPath><clipPath
       clipPathUnits="userSpaceOnUse"
       id="clipPath48"><path
         d="M 20.204,59.8052 H 79 V 0.95636 H 20.204 Z"
         id="path46"
         inkscape:connector-curvature="0" /></clipPath><clipPath
       clipPathUnits="userSpaceOnUse"
       id="clipPath52"><path
         d="M 40,40.004 20.204,20.208 39.449,0.963 C 39.635,0.962 39.813,0.956 40,0.956 c 28.895,0 39,10.107 39,39.001 0,0.223 -0.006,0.436 -0.008,0.657 l -19.19,19.191 z"
         id="path50"
         inkscape:connector-curvature="0" /></clipPath><clipPath
       clipPathUnits="userSpaceOnUse"
       id="clipPath56"><path
         d="M -32768,32767 H 32767 V -32768 H -32768 Z"
         id="path54"
         inkscape:connector-curvature="0" /></clipPath><linearGradient
       x1="0"
       y1="0"
       x2="1"
       y2="0"
       gradientUnits="userSpaceOnUse"
       gradientTransform="matrix(30.358734,-30.358734,-30.358734,-30.358734,40.002747,40.006409)"
       spreadMethod="pad"
       id="linearGradient62"><stop
         style="stop-opacity:0.29999237;stop-color:#ffffff"
         offset="0"
         id="stop58" /><stop
         style="stop-opacity:0.09999237;stop-color:#ffffff"
         offset="1"
         id="stop60" /></linearGradient><mask
       maskUnits="userSpaceOnUse"
       x="0"
       y="0"
       width="1"
       height="1"
       id="mask64"><g
         id="g74"><g
           clip-path="url(#clipPath56)"
           id="g72"><g
             id="g70"><g
               id="g68"><path
                 d="M -32768,32767 H 32767 V -32768 H -32768 Z"
                 style="fill:url(#linearGradient62);stroke:none"
                 id="path66"
                 inkscape:connector-curvature="0" /></g></g></g></g></mask><linearGradient
       x1="0"
       y1="0"
       x2="1"
       y2="0"
       gradientUnits="userSpaceOnUse"
       gradientTransform="matrix(30.358734,-30.358734,-30.358734,-30.358734,40.002747,40.006409)"
       spreadMethod="pad"
       id="linearGradient80"><stop
         style="stop-opacity:1;stop-color:#231815"
         offset="0"
         id="stop76" /><stop
         style="stop-opacity:1;stop-color:#231815"
         offset="1"
         id="stop78" /></linearGradient><clipPath
       clipPathUnits="userSpaceOnUse"
       id="clipPath110"><path
         d="M 40,40.004 26.562,26.565 37.605,15.521 35.826,12.686 36.257,12.257 C 37.482,12.092 38.73,12 40,12 v 0 c 15.089,0 27.385,11.936 27.975,26.88 v 0 L 53.426,53.429 Z"
         id="path108"
         inkscape:connector-curvature="0" /></clipPath><clipPath
       clipPathUnits="userSpaceOnUse"
       id="clipPath118"><path
         d="M -32768,32767 H 32767 V -32768 H -32768 Z"
         id="path116"
         inkscape:connector-curvature="0" /></clipPath><linearGradient
       x1="0"
       y1="0"
       x2="1"
       y2="0"
       gradientUnits="userSpaceOnUse"
       gradientTransform="matrix(19.799528,-19.799528,-19.799528,-19.799528,38.840164,38.843826)"
       spreadMethod="pad"
       id="linearGradient126"><stop
         style="stop-opacity:0.09999237;stop-color:#ffffff"
         offset="0"
         id="stop120" /><stop
         style="stop-opacity:0.09999237;stop-color:#ffffff"
         offset="0.0000001"
         id="stop122" /><stop
         style="stop-opacity:0;stop-color:#ffffff"
         offset="1"
         id="stop124" /></linearGradient><mask
       maskUnits="userSpaceOnUse"
       x="0"
       y="0"
       width="1"
       height="1"
       id="mask128"><g
         id="g138"><g
           clip-path="url(#clipPath118)"
           id="g136"><g
             id="g134"><g
               id="g132"><path
                 d="M -32768,32767 H 32767 V -32768 H -32768 Z"
                 style="fill:url(#linearGradient126);stroke:none"
                 id="path130"
                 inkscape:connector-curvature="0" /></g></g></g></g></mask><linearGradient
       x1="0"
       y1="0"
       x2="1"
       y2="0"
       gradientUnits="userSpaceOnUse"
       gradientTransform="matrix(19.799528,-19.799528,-19.799528,-19.799528,38.840164,38.843826)"
       spreadMethod="pad"
       id="linearGradient150"><stop
         style="stop-opacity:1;stop-color:#231815"
         offset="0"
         id="stop144" /><stop
         style="stop-opacity:1;stop-color:#231815"
         offset="0.0000001"
         id="stop146" /><stop
         style="stop-opacity:1;stop-color:#231815"
         offset="1"
         id="stop148" /></linearGradient><clipPath
       clipPathUnits="userSpaceOnUse"
       id="clipPath160"><path
         d="M 0,80 H 80 V 0 H 0 Z"
         id="path158"
         inkscape:connector-curvature="0" /></clipPath><clipPath
       clipPathUnits="userSpaceOnUse"
       id="clipPath172"><path
         d="M 0,80 H 80 V 0 H 0 Z"
         id="path170"
         inkscape:connector-curvature="0" /></clipPath><clipPath
       clipPathUnits="userSpaceOnUse"
       id="clipPath180"><path
         d="M 1.02344,79 H 78.9766 V 1 H 1.02344 Z"
         id="path178"
         inkscape:connector-curvature="0" /></clipPath><clipPath
       clipPathUnits="userSpaceOnUse"
       id="clipPath184"><path
         d="M 1.02344,79 H 78.9766 V 1 H 1.02344 Z"
         id="path182"
         inkscape:connector-curvature="0" /></clipPath><clipPath
       clipPathUnits="userSpaceOnUse"
       id="clipPath188"><path
         d="M 78.977,40 C 78.977,11.107 68.877,1 40,1 11.123,1 1.023,11.107 1.023,40 1.023,68.894 11.123,79 40,79 68.877,79 78.977,68.894 78.977,40"
         id="path186"
         inkscape:connector-curvature="0" /></clipPath><clipPath
       clipPathUnits="userSpaceOnUse"
       id="clipPath192"><path
         d="M -24534,24614 H 8232 V -8152 h -32766 z"
         id="path190"
         inkscape:connector-curvature="0" /></clipPath><clipPath
       clipPathUnits="userSpaceOnUse"
       id="clipPath196"><path
         d="M -24534,24614 H 8232 V -8152 h -32766 z"
         id="path194"
         inkscape:connector-curvature="0" /></clipPath><mask
       maskUnits="userSpaceOnUse"
       x="0"
       y="0"
       width="1"
       height="1"
       id="mask198"><g
         id="g210"><g
           clip-path="url(#clipPath192)"
           id="g208"><g
             id="g206"><g
               id="g200" /><g
               id="g204"><g
                 clip-path="url(#clipPath196)"
                 id="g202" /></g></g></g></g></mask><linearGradient
       x1="0"
       y1="0"
       x2="1"
       y2="0"
       gradientUnits="userSpaceOnUse"
       gradientTransform="matrix(0,-53.61993,-53.61993,0,40,74.818359)"
       spreadMethod="pad"
       id="linearGradient216"><stop
         style="stop-opacity:1;stop-color:#ffffff"
         offset="0"
         id="stop212" /><stop
         style="stop-opacity:1;stop-color:#e4e4e5"
         offset="1"
         id="stop214" /></linearGradient><mask
       maskUnits="userSpaceOnUse"
       x="0"
       y="0"
       width="1"
       height="1"
       id="mask218"><g
         id="g244"><g
           clip-path="url(#clipPath180)"
           id="g242"
           style="opacity:0.5"><g
             id="g240"><g
               id="g220" /><g
               id="g238"><g
                 clip-path="url(#clipPath184)"
                 id="g236"><g
                   id="g234"><g
                     clip-path="url(#clipPath188)"
                     id="g232"><g
                       id="g230"><g
                         id="g222" /><g
                         mask="url(#mask198)"
                         id="g228"><g
                           id="g226"><path
                             d="M 78.977,40 C 78.977,11.107 68.877,1 40,1 11.123,1 1.023,11.107 1.023,40 1.023,68.894 11.123,79 40,79 68.877,79 78.977,68.894 78.977,40"
                             style="fill:url(#linearGradient216);stroke:none"
                             id="path224"
                             inkscape:connector-curvature="0" /></g></g></g></g></g></g></g></g></g></g></mask><clipPath
       clipPathUnits="userSpaceOnUse"
       id="clipPath252"><path
         d="M 1.02344,79 H 78.9766 V 1 H 1.02344 Z"
         id="path250"
         inkscape:connector-curvature="0" /></clipPath><clipPath
       clipPathUnits="userSpaceOnUse"
       id="clipPath256"><path
         d="M 78.977,40 C 78.977,11.107 68.877,1 40,1 11.123,1 1.023,11.107 1.023,40 1.023,68.894 11.123,79 40,79 68.877,79 78.977,68.894 78.977,40"
         id="path254"
         inkscape:connector-curvature="0" /></clipPath><linearGradient
       x1="0"
       y1="0"
       x2="1"
       y2="0"
       gradientUnits="userSpaceOnUse"
       gradientTransform="matrix(0,-53.61993,-53.61993,0,40.000019,74.818184)"
       spreadMethod="pad"
       id="linearGradient262"><stop
         style="stop-opacity:1;stop-color:#ffffff"
         offset="0"
         id="stop258" /><stop
         style="stop-opacity:1;stop-color:#000000"
         offset="1"
         id="stop260" /></linearGradient><clipPath
       clipPathUnits="userSpaceOnUse"
       id="clipPath284"><path
         d="M 1,79 H 79 V 1 H 1 Z"
         id="path282"
         inkscape:connector-curvature="0" /></clipPath><clipPath
       clipPathUnits="userSpaceOnUse"
       id="clipPath288"><path
         d="M 1,79 H 79 V 1 H 1 Z"
         id="path286"
         inkscape:connector-curvature="0" /></clipPath><clipPath
       clipPathUnits="userSpaceOnUse"
       id="clipPath292"><path
         d="M -24534,24614 H 8232 V -8152 h -32766 z"
         id="path290"
         inkscape:connector-curvature="0" /></clipPath><clipPath
       clipPathUnits="userSpaceOnUse"
       id="clipPath296"><path
         d="M -24534,24614 H 8232 V -8152 h -32766 z"
         id="path294"
         inkscape:connector-curvature="0" /></clipPath><mask
       maskUnits="userSpaceOnUse"
       x="0"
       y="0"
       width="1"
       height="1"
       id="mask298"><g
         id="g310"><g
           clip-path="url(#clipPath292)"
           id="g308"><g
             id="g306"><g
               id="g300" /><g
               id="g304"><g
                 clip-path="url(#clipPath296)"
                 id="g302" /></g></g></g></g></mask><clipPath
       clipPathUnits="userSpaceOnUse"
       id="clipPath314"><path
         d="M 1,79 H 79 V 1 H 1 Z"
         id="path312"
         inkscape:connector-curvature="0" /></clipPath><clipPath
       clipPathUnits="userSpaceOnUse"
       id="clipPath318"><path
         d="M 39.999,1.975 C 11.57,1.975 1.976,11.57 1.976,40 c 0,28.429 9.594,38.024 38.023,38.024 28.43,0 38.024,-9.595 38.024,-38.024 0,-28.43 -9.594,-38.025 -38.024,-38.025 m 0,77.025 C 11.105,79 1,68.894 1,40 1,11.107 11.105,1 39.999,1 68.896,1 79,11.107 79,40 79,68.894 68.896,79 39.999,79"
         id="path316"
         inkscape:connector-curvature="0" /></clipPath><linearGradient
       x1="0"
       y1="0"
       x2="1"
       y2="0"
       gradientUnits="userSpaceOnUse"
       gradientTransform="matrix(0,-77.263527,-77.263527,0,40,78.75293)"
       spreadMethod="pad"
       id="linearGradient324"><stop
         style="stop-opacity:1;stop-color:#ffffff"
         offset="0"
         id="stop320" /><stop
         style="stop-opacity:1;stop-color:#231815"
         offset="1"
         id="stop322" /></linearGradient><mask
       maskUnits="userSpaceOnUse"
       x="0"
       y="0"
       width="1"
       height="1"
       id="mask326"><g
         id="g360"><g
           clip-path="url(#clipPath284)"
           id="g358"
           style="opacity:0.25"><g
             id="g356"><g
               id="g328" /><g
               id="g354"><g
                 clip-path="url(#clipPath288)"
                 id="g352"><g
                   id="g350"><g
                     id="g330" /><g
                     mask="url(#mask298)"
                     id="g348"><g
                       id="g332" /><g
                       id="g346"><g
                         clip-path="url(#clipPath314)"
                         id="g344"><g
                           id="g342"><g
                             clip-path="url(#clipPath318)"
                             id="g340"><g
                               id="g338"><g
                                 id="g336"><path
                                   d="M 39.999,1.975 C 11.57,1.975 1.976,11.57 1.976,40 c 0,28.429 9.594,38.024 38.023,38.024 28.43,0 38.024,-9.595 38.024,-38.024 0,-28.43 -9.594,-38.025 -38.024,-38.025 m 0,77.025 C 11.105,79 1,68.894 1,40 1,11.107 11.105,1 39.999,1 68.896,1 79,11.107 79,40 79,68.894 68.896,79 39.999,79"
                                   style="fill:url(#linearGradient324);stroke:none"
                                   id="path334"
                                   inkscape:connector-curvature="0" /></g></g></g></g></g></g></g></g></g></g></g></g></g></mask><clipPath
       clipPathUnits="userSpaceOnUse"
       id="clipPath368"><path
         d="M 1,79 H 79 V 1 H 1 Z"
         id="path366"
         inkscape:connector-curvature="0" /></clipPath><clipPath
       clipPathUnits="userSpaceOnUse"
       id="clipPath372"><path
         d="M 39.999,1.975 C 11.57,1.975 1.976,11.57 1.976,40 c 0,28.429 9.594,38.024 38.023,38.024 28.43,0 38.024,-9.595 38.024,-38.024 0,-28.43 -9.594,-38.025 -38.024,-38.025 m 0,77.025 C 11.105,79 1,68.894 1,40 1,11.107 11.105,1 39.999,1 68.896,1 79,11.107 79,40 79,68.894 68.896,79 39.999,79"
         id="path370"
         inkscape:connector-curvature="0" /></clipPath><linearGradient
       x1="0"
       y1="0"
       x2="1"
       y2="0"
       gradientUnits="userSpaceOnUse"
       gradientTransform="matrix(0,-77.263527,-77.263527,0,40,78.753128)"
       spreadMethod="pad"
       id="linearGradient378"><stop
         style="stop-opacity:1;stop-color:#ffffff"
         offset="0"
         id="stop374" /><stop
         style="stop-opacity:1;stop-color:#ffffff"
         offset="1"
         id="stop376" /></linearGradient></defs><sodipodi:namedview
     pagecolor="#ffffff"
     bordercolor="#666666"
     borderopacity="1"
     objecttolerance="10"
     gridtolerance="10"
     guidetolerance="10"
     inkscape:pageopacity="0"
     inkscape:pageshadow="2"
     inkscape:window-width="1366"
     inkscape:window-height="706"
     id="namedview4"
     showgrid="false"
     inkscape:zoom="2.2124999"
     inkscape:cx="53.333336"
     inkscape:cy="53.333336"
     inkscape:window-x="0"
     inkscape:window-y="34"
     inkscape:window-maximized="1"
     inkscape:current-layer="g10" /><g
     id="g10"
     inkscape:groupmode="layer"
     inkscape:label="alexa"
     transform="matrix(1.3333333,0,0,-1.3333333,0,106.66667)"><g
       id="g12"
       transform="matrix(0.97115387,0,0,0.97060635,1.2788462,1.322099)"><g
         id="g14"
         clip-path="url(#clipPath18)"><g
           id="g20"
           transform="translate(79,39.9565)"><path
             d="m 0,0 c 0,-28.893 -10.105,-39 -39,-39 -28.895,0 -39,10.107 -39,39 0,28.894 10.105,39 39,39 C -10.105,39 0,28.894 0,0"
             style="fill:#00caff;fill-opacity:1;fill-rule:nonzero;stroke:none"
             id="path22"
             inkscape:connector-curvature="0" /></g></g></g><g
       id="g24"
       transform="matrix(0.97115387,0,0,0.97060635,1.2788462,1.322099)"><g
         id="g26"
         clip-path="url(#clipPath30)"><path
           d="M 80,-0.044 H 0 v 80 h 80 z"
           style="fill:#00caff;fill-opacity:1;fill-rule:nonzero;stroke:none"
           id="path32"
           inkscape:connector-curvature="0" /></g></g><g
       id="g166"
       transform="matrix(0.97115387,0,0,0.97060635,1.2788462,1.322099)"><g
         id="g168"
         clip-path="url(#clipPath172)"><g
           id="g174"><g
             id="g176" /><g
             id="g246"
             mask="url(#mask218)"><g
               id="g248" /><g
               id="g276"><g
                 clip-path="url(#clipPath252)"
                 id="g274"
                 style="opacity:0.5"><g
                   id="g272"><g
                     clip-path="url(#clipPath256)"
                     id="g270"><g
                       id="g268"><g
                         id="g266"><path
                           d="M 78.977,40 C 78.977,11.107 68.877,1 40,1 11.123,1 1.023,11.107 1.023,40 1.023,68.894 11.123,79 40,79 68.877,79 78.977,68.894 78.977,40"
                           style="fill:url(#linearGradient262);stroke:none"
                           id="path264"
                           inkscape:connector-curvature="0" /></g></g></g></g></g></g></g></g><g
           id="g278"><g
             id="g280" /><g
             id="g362"
             mask="url(#mask326)"><g
               id="g364" /><g
               id="g392"><g
                 clip-path="url(#clipPath368)"
                 id="g390"
                 style="opacity:0.25"><g
                   id="g388"><g
                     clip-path="url(#clipPath372)"
                     id="g386"><g
                       id="g384"><g
                         id="g382"><path
                           d="M 39.999,1.975 C 11.57,1.975 1.976,11.57 1.976,40 c 0,28.429 9.594,38.024 38.023,38.024 28.43,0 38.024,-9.595 38.024,-38.024 0,-28.43 -9.594,-38.025 -38.024,-38.025 m 0,77.025 C 11.105,79 1,68.894 1,40 1,11.107 11.105,1 39.999,1 68.896,1 79,11.107 79,40 79,68.894 68.896,79 39.999,79"
                           style="fill:url(#linearGradient378);stroke:none"
                           id="path380"
                           inkscape:connector-curvature="0" /></g></g></g></g></g></g></g></g></g></g></g></svg>