<?xml version="1.0" encoding="UTF-8" standalone="no"?>
<!-- Created with Inkscape (http://www.inkscape.org/) -->

<svg
   xmlns:dc="http://purl.org/dc/elements/1.1/"
   xmlns:cc="http://creativecommons.org/ns#"
   xmlns:rdf="http://www.w3.org/1999/02/22-rdf-syntax-ns#"
   xmlns:svg="http://www.w3.org/2000/svg"
   xmlns="http://www.w3.org/2000/svg"
   xmlns:sodipodi="http://sodipodi.sourceforge.net/DTD/sodipodi-0.dtd"
   xmlns:inkscape="http://www.inkscape.org/namespaces/inkscape"
   version="1.1"
   id="svg2"
   xml:space="preserve"
   width="133.33333"
   height="133.33333"
   viewBox="0 0 133.33333 133.33333"
   sodipodi:docname="overlay14.svg"
   inkscape:version="0.92.2 2405546, 2018-03-11"><metadata
     id="metadata8"><rdf:RDF><cc:Work
         rdf:about=""><dc:format>image/svg+xml</dc:format><dc:type
           rdf:resource="http://purl.org/dc/dcmitype/StillImage" /><dc:title /></cc:Work></rdf:RDF></metadata><defs
     id="defs6"><clipPath
       clipPathUnits="userSpaceOnUse"
       id="clipPath18"><path
         d="M 50,100 C 12.956,100 0,87.039 0,50 v 0 C 0,12.961 12.956,0 50,0 v 0 c 37.045,0 50,12.961 50,50 v 0 c 0,37.044 -12.955,50 -50,50 z"
         id="path16"
         inkscape:connector-curvature="0" /></clipPath><linearGradient
       x1="0"
       y1="0"
       x2="1"
       y2="0"
       gradientUnits="userSpaceOnUse"
       gradientTransform="matrix(77.78125,-77.78125,-77.78125,-77.78125,11.109896,88.891144)"
       spreadMethod="pad"
       id="linearGradient30"><stop
         style="stop-opacity:1;stop-color:#8fe7f7"
         offset="0"
         id="stop24" /><stop
         style="stop-opacity:1;stop-color:#8fe7f7"
         offset="0.0000006"
         id="stop26" /><stop
         style="stop-opacity:1;stop-color:#4394e9"
         offset="1"
         id="stop28" /></linearGradient><clipPath
       clipPathUnits="userSpaceOnUse"
       id="clipPath40"><path
         d="M 50,100 C 12.956,100 0,87.039 0,50 v 0 C 0,12.961 12.956,0 50,0 v 0 c 37.045,0 50,12.961 50,50 v 0 c 0,37.044 -12.955,50 -50,50 z"
         id="path38"
         inkscape:connector-curvature="0" /></clipPath><linearGradient
       x1="0"
       y1="0"
       x2="1"
       y2="0"
       gradientUnits="userSpaceOnUse"
       gradientTransform="matrix(77.78125,-77.78125,-77.78125,-77.78125,11.109896,88.891144)"
       spreadMethod="pad"
       id="linearGradient52"><stop
         style="stop-opacity:1;stop-color:#8fe7f7"
         offset="0"
         id="stop46" /><stop
         style="stop-opacity:1;stop-color:#8fe7f7"
         offset="0.0000006"
         id="stop48" /><stop
         style="stop-opacity:1;stop-color:#4394e9"
         offset="1"
         id="stop50" /></linearGradient><clipPath
       clipPathUnits="userSpaceOnUse"
       id="clipPath62"><path
         d="M 50,100 C 12.956,100 0,87.039 0,50 v 0 C 0,12.961 12.956,0 50,0 v 0 c 37.045,0 50,12.961 50,50 v 0 c 0,37.044 -12.955,50 -50,50 z"
         id="path60"
         inkscape:connector-curvature="0" /></clipPath><linearGradient
       x1="0"
       y1="0"
       x2="1"
       y2="0"
       gradientUnits="userSpaceOnUse"
       gradientTransform="matrix(77.78125,-77.78125,-77.78125,-77.78125,11.109896,88.891144)"
       spreadMethod="pad"
       id="linearGradient74"><stop
         style="stop-opacity:1;stop-color:#c7c7c7"
         offset="0"
         id="stop68" /><stop
         style="stop-opacity:1;stop-color:#c7c7c7"
         offset="0.00000039"
         id="stop70" /><stop
         style="stop-opacity:1;stop-color:#838383"
         offset="1"
         id="stop72" /></linearGradient><clipPath
       clipPathUnits="userSpaceOnUse"
       id="clipPath84"><path
         d="M 22.03,77.25 18.625,48.375 21.132,20.561 41.419,0.275 C 44.128,0.095 46.975,0 50,0 v 0 c 37.045,0 50,12.961 50,50 v 0 c 0,3.033 -0.096,5.886 -0.276,8.603 v 0 L 79.449,78.878 47.875,83 Z"
         id="path82"
         inkscape:connector-curvature="0" /></clipPath><clipPath
       clipPathUnits="userSpaceOnUse"
       id="clipPath92"><path
         d="M -32768,32767 H 32767 V -32768 H -32768 Z"
         id="path90"
         inkscape:connector-curvature="0" /></clipPath><linearGradient
       x1="0"
       y1="0"
       x2="1"
       y2="0"
       gradientUnits="userSpaceOnUse"
       gradientTransform="matrix(66.500603,-66.500603,-66.500603,-66.500603,22.394928,77.614899)"
       spreadMethod="pad"
       id="linearGradient98"><stop
         style="stop-opacity:0.14999619;stop-color:#ffffff"
         offset="0"
         id="stop94" /><stop
         style="stop-opacity:0;stop-color:#ffffff"
         offset="1"
         id="stop96" /></linearGradient><mask
       maskUnits="userSpaceOnUse"
       x="0"
       y="0"
       width="1"
       height="1"
       id="mask100"><g
         id="g110"><g
           clip-path="url(#clipPath92)"
           id="g108"><g
             id="g106"><g
               id="g104"><path
                 d="M -32768,32767 H 32767 V -32768 H -32768 Z"
                 style="fill:url(#linearGradient98);stroke:none"
                 id="path102"
                 inkscape:connector-curvature="0" /></g></g></g></g></mask><linearGradient
       x1="0"
       y1="0"
       x2="1"
       y2="0"
       gradientUnits="userSpaceOnUse"
       gradientTransform="matrix(66.500603,-66.500603,-66.500603,-66.500603,22.394928,77.614899)"
       spreadMethod="pad"
       id="linearGradient120"><stop
         style="stop-opacity:1;stop-color:#000000"
         offset="0"
         id="stop116" /><stop
         style="stop-opacity:1;stop-color:#000000"
         offset="1"
         id="stop118" /></linearGradient><clipPath
       clipPathUnits="userSpaceOnUse"
       id="clipPath130"><path
         d="M 0,100 H 100 V 0 H 0 Z"
         id="path128"
         inkscape:connector-curvature="0" /></clipPath><clipPath
       clipPathUnits="userSpaceOnUse"
       id="clipPath142"><path
         d="m 59.09,26.67 2.22,-5.47 c 5.601,0.85 9.62,2.54 12.431,5.47 v 0 z"
         id="path140"
         inkscape:connector-curvature="0" /></clipPath><linearGradient
       x1="0"
       y1="0"
       x2="1"
       y2="0"
       gradientUnits="userSpaceOnUse"
       gradientTransform="matrix(14.649963,0,0,-14.649963,59.090027,23.935028)"
       spreadMethod="pad"
       id="linearGradient152"><stop
         style="stop-opacity:1;stop-color:#8dcf80"
         offset="0"
         id="stop148" /><stop
         style="stop-opacity:1;stop-color:#81c178"
         offset="1"
         id="stop150" /></linearGradient><clipPath
       clipPathUnits="userSpaceOnUse"
       id="clipPath162"><path
         d="m 46.84,56.831 9,-22.161 h 22.13 c 1.09,4 1.53,9.04 1.53,15.33 v 0 c 0,2.47 -0.07,4.74 -0.21,6.831 v 0 z"
         id="path160"
         inkscape:connector-curvature="0" /></clipPath><linearGradient
       x1="0"
       y1="0"
       x2="1"
       y2="0"
       gradientUnits="userSpaceOnUse"
       gradientTransform="matrix(32.659973,0,0,-32.659973,46.840027,45.75003)"
       spreadMethod="pad"
       id="linearGradient172"><stop
         style="stop-opacity:1;stop-color:#8dcf80"
         offset="0"
         id="stop168" /><stop
         style="stop-opacity:1;stop-color:#81c178"
         offset="1"
         id="stop170" /></linearGradient><clipPath
       clipPathUnits="userSpaceOnUse"
       id="clipPath182"><path
         d="m 36.7,78.45 c -0.25,-0.06 -0.5,-0.11 -0.74,-0.16 v 0 c -0.45,-0.11 -0.891,-0.21 -1.31,-0.33 v 0 C 34.4,77.891 34.16,77.819 33.93,77.75 v 0 c -0.11,-0.03 -0.211,-0.06 -0.31,-0.1 v 0 c -0.23,-0.07 -0.459,-0.14 -0.68,-0.219 v 0 C 32.88,77.41 32.819,77.39 32.75,77.359 v 0 C 32.48,77.27 32.22,77.17 31.96,77.06 v 0 c -0.27,-0.1 -0.53,-0.21 -0.79,-0.33 v 0 c -0.3,-0.14 -0.59,-0.279 -0.88,-0.43 v 0 L 34.951,64.83 38.201,56.831 47.21,34.67 H 22.03 c 0.91,-3.35 2.28,-5.97 4.23,-8 v 0 h 24.2 l 2.491,-6.13 c 0.279,0.01 0.559,0.01 0.839,0.02 v 0 c 1.179,0.039 2.3,0.1 3.38,0.18 v 0 c 0.53,0.04 1.05,0.081 1.55,0.13 v 0 c 0.23,0.031 0.46,0.05 0.68,0.08 v 0 c 0.66,0.07 1.291,0.15 1.91,0.25 v 0 l -2.22,5.47 h 14.651 c 1.949,2.03 3.319,4.65 4.229,8 v 0 H 55.84 l -9,22.161 -3.25,7.999 -5.63,13.85 C 37.53,78.61 37.11,78.53 36.7,78.45"
         id="path180"
         inkscape:connector-curvature="0" /></clipPath><linearGradient
       x1="0"
       y1="0"
       x2="1"
       y2="0"
       gradientUnits="userSpaceOnUse"
       gradientTransform="matrix(55.939941,0,0,-55.939941,22.030029,49.610016)"
       spreadMethod="pad"
       id="linearGradient192"><stop
         style="stop-opacity:1;stop-color:#fee172"
         offset="0"
         id="stop188" /><stop
         style="stop-opacity:1;stop-color:#fed121"
         offset="1"
         id="stop190" /></linearGradient><clipPath
       clipPathUnits="userSpaceOnUse"
       id="clipPath202"><path
         d="M 61.08,56.831 40,35.75 55.13,20.62 62.401,13.35 C 72.84,14.99 79.53,19.13 83.35,26.67 v 0 c 1.19,2.33 2.091,4.99 2.76,8 v 0 c 0.2,0.901 0.37,1.83 0.52,2.79 v 0 l -7.26,7.25 -12.11,12.121 -3.09,3.089 z"
         id="path200"
         inkscape:connector-curvature="0" /></clipPath><clipPath
       clipPathUnits="userSpaceOnUse"
       id="clipPath210"><path
         d="M -32768,32767 H 32767 V -32768 H -32768 Z"
         id="path208"
         inkscape:connector-curvature="0" /></clipPath><linearGradient
       x1="0"
       y1="0"
       x2="1"
       y2="0"
       gradientUnits="userSpaceOnUse"
       gradientTransform="matrix(27.042944,-27.042944,-27.042944,-27.042944,52.084976,47.835037)"
       spreadMethod="pad"
       id="linearGradient220"><stop
         style="stop-opacity:0.11999695;stop-color:#ffffff"
         offset="0"
         id="stop212" /><stop
         style="stop-opacity:0.11999695;stop-color:#ffffff"
         offset="0.00000028"
         id="stop214" /><stop
         style="stop-opacity:0;stop-color:#ffffff"
         offset="0.794872"
         id="stop216" /><stop
         style="stop-opacity:0;stop-color:#ffffff"
         offset="1"
         id="stop218" /></linearGradient><mask
       maskUnits="userSpaceOnUse"
       x="0"
       y="0"
       width="1"
       height="1"
       id="mask222"><g
         id="g232"><g
           clip-path="url(#clipPath210)"
           id="g230"><g
             id="g228"><g
               id="g226"><path
                 d="M -32768,32767 H 32767 V -32768 H -32768 Z"
                 style="fill:url(#linearGradient220);stroke:none"
                 id="path224"
                 inkscape:connector-curvature="0" /></g></g></g></g></mask><linearGradient
       x1="0"
       y1="0"
       x2="1"
       y2="0"
       gradientUnits="userSpaceOnUse"
       gradientTransform="matrix(27.042944,-27.042944,-27.042944,-27.042944,52.084976,47.835037)"
       spreadMethod="pad"
       id="linearGradient246"><stop
         style="stop-opacity:1;stop-color:#000000"
         offset="0"
         id="stop238" /><stop
         style="stop-opacity:1;stop-color:#000000"
         offset="0.00000028"
         id="stop240" /><stop
         style="stop-opacity:1;stop-color:#000000"
         offset="0.794872"
         id="stop242" /><stop
         style="stop-opacity:1;stop-color:#000000"
         offset="1"
         id="stop244" /></linearGradient><clipPath
       clipPathUnits="userSpaceOnUse"
       id="clipPath256"><path
         d="M 0,100 H 100 V 0 H 0 Z"
         id="path254"
         inkscape:connector-curvature="0" /></clipPath></defs><sodipodi:namedview
     pagecolor="#ffffff"
     bordercolor="#666666"
     borderopacity="1"
     objecttolerance="10"
     gridtolerance="10"
     guidetolerance="10"
     inkscape:pageopacity="0"
     inkscape:pageshadow="2"
     inkscape:window-width="1366"
     inkscape:window-height="706"
     id="namedview4"
     showgrid="false"
     inkscape:zoom="1.7700001"
     inkscape:cx="66.666665"
     inkscape:cy="66.666665"
     inkscape:window-x="0"
     inkscape:window-y="34"
     inkscape:window-maximized="1"
     inkscape:current-layer="g10" /><g
     id="g10"
     inkscape:groupmode="layer"
     inkscape:label="maps"
     transform="matrix(1.3333333,0,0,-1.3333333,0,133.33333)"><g
       id="g12"
       transform="matrix(0.93750002,0,0,0.93750002,3.0000001,3.0000014)"><g
         id="g14"
         clip-path="url(#clipPath18)"><g
           id="g20"><g
             id="g22"><path
               d="M 50,100 C 12.956,100 0,87.039 0,50 v 0 C 0,12.961 12.956,0 50,0 v 0 c 37.045,0 50,12.961 50,50 v 0 c 0,37.044 -12.955,50 -50,50 z"
               style="fill:url(#linearGradient30);stroke:none"
               id="path32"
               inkscape:connector-curvature="0" /></g></g></g></g><g
       id="g34"
       transform="matrix(0.93750002,0,0,0.93750002,3.0000001,3.0000014)"><g
         id="g36"
         clip-path="url(#clipPath40)"><g
           id="g42"><g
             id="g44"><path
               d="M 50,100 C 12.956,100 0,87.039 0,50 v 0 C 0,12.961 12.956,0 50,0 v 0 c 37.045,0 50,12.961 50,50 v 0 c 0,37.044 -12.955,50 -50,50 z"
               style="fill:url(#linearGradient52);stroke:none"
               id="path54"
               inkscape:connector-curvature="0" /></g></g></g></g><g
       id="g56"
       transform="matrix(0.93750002,0,0,0.93750002,3.0000001,3.0000014)"><g
         id="g58"
         clip-path="url(#clipPath62)"><g
           id="g64"><g
             id="g66"><path
               d="M 50,100 C 12.956,100 0,87.039 0,50 v 0 C 0,12.961 12.956,0 50,0 v 0 c 37.045,0 50,12.961 50,50 v 0 c 0,37.044 -12.955,50 -50,50 z"
               style="fill:url(#linearGradient74);stroke:none"
               id="path76"
               inkscape:connector-curvature="0" /></g></g></g></g></g></svg>