<?xml version="1.0" encoding="UTF-8" standalone="no"?>
<!-- Created with Inkscape (http://www.inkscape.org/) -->

<svg
   xmlns:dc="http://purl.org/dc/elements/1.1/"
   xmlns:cc="http://creativecommons.org/ns#"
   xmlns:rdf="http://www.w3.org/1999/02/22-rdf-syntax-ns#"
   xmlns:svg="http://www.w3.org/2000/svg"
   xmlns="http://www.w3.org/2000/svg"
   xmlns:sodipodi="http://sodipodi.sourceforge.net/DTD/sodipodi-0.dtd"
   xmlns:inkscape="http://www.inkscape.org/namespaces/inkscape"
   version="1.1"
   id="svg2"
   xml:space="preserve"
   width="106.66667"
   height="106.66667"
   viewBox="0 0 106.66667 106.66667"
   sodipodi:docname="overlay17.svg"
   inkscape:version="0.92.2 2405546, 2018-03-11"><metadata
     id="metadata8"><rdf:RDF><cc:Work
         rdf:about=""><dc:format>image/svg+xml</dc:format><dc:type
           rdf:resource="http://purl.org/dc/dcmitype/StillImage" /><dc:title /></cc:Work></rdf:RDF></metadata><defs
     id="defs6"><clipPath
       clipPathUnits="userSpaceOnUse"
       id="clipPath18"><path
         d="m 1,39.956 c 0,-28.892 10.105,-39 39,-39 v 0 c 28.894,0 39,10.108 39,39 v 0 c 0,28.894 -10.106,39 -39,39 v 0 c -28.895,0 -39,-10.106 -39,-39"
         id="path16"
         inkscape:connector-curvature="0" /></clipPath><linearGradient
       x1="0"
       y1="0"
       x2="1"
       y2="0"
       gradientUnits="userSpaceOnUse"
       gradientTransform="matrix(60.670349,-60.670349,-60.670349,-60.670349,9.6648254,70.291695)"
       spreadMethod="pad"
       id="linearGradient30"><stop
         style="stop-opacity:1;stop-color:#4b8bde"
         offset="0"
         id="stop24" /><stop
         style="stop-opacity:1;stop-color:#4b8bde"
         offset="0.0000002"
         id="stop26" /><stop
         style="stop-opacity:1;stop-color:#3d70b3"
         offset="1"
         id="stop28" /></linearGradient><clipPath
       clipPathUnits="userSpaceOnUse"
       id="clipPath40"><path
         d="m 1,39.956 c 0,-28.892 10.105,-39 39,-39 v 0 c 28.894,0 39,10.108 39,39 v 0 c 0,28.894 -10.106,39 -39,39 v 0 c -28.895,0 -39,-10.106 -39,-39"
         id="path38"
         inkscape:connector-curvature="0" /></clipPath><linearGradient
       x1="0"
       y1="0"
       x2="1"
       y2="0"
       gradientUnits="userSpaceOnUse"
       gradientTransform="matrix(80,-80,-80,-80,0,79.956329)"
       spreadMethod="pad"
       id="linearGradient52"><stop
         style="stop-opacity:1;stop-color:#4b8bde"
         offset="0"
         id="stop46" /><stop
         style="stop-opacity:1;stop-color:#4b8bde"
         offset="0.0000002"
         id="stop48" /><stop
         style="stop-opacity:1;stop-color:#3d70b3"
         offset="1"
         id="stop50" /></linearGradient><clipPath
       clipPathUnits="userSpaceOnUse"
       id="clipPath62"><path
         d="M 21.913,31.507 51.748,1.672 C 68.721,4.006 76.546,12.31 78.496,29.879 v 0 l -19.116,19.116 -3.368,0.579 -3.011,3.011 z"
         id="path60"
         inkscape:connector-curvature="0" /></clipPath><clipPath
       clipPathUnits="userSpaceOnUse"
       id="clipPath70"><path
         d="M -32768,32767 H 32767 V -32768 H -32768 Z"
         id="path68"
         inkscape:connector-curvature="0" /></clipPath><linearGradient
       x1="0"
       y1="0"
       x2="1"
       y2="0"
       gradientUnits="userSpaceOnUse"
       gradientTransform="matrix(35.149071,-35.149071,-35.149071,-35.149071,35.65213,45.245453)"
       spreadMethod="pad"
       id="linearGradient76"><stop
         style="stop-opacity:0.29999237;stop-color:#ffffff"
         offset="0"
         id="stop72" /><stop
         style="stop-opacity:0;stop-color:#ffffff"
         offset="1"
         id="stop74" /></linearGradient><mask
       maskUnits="userSpaceOnUse"
       x="0"
       y="0"
       width="1"
       height="1"
       id="mask78"><g
         id="g88"><g
           clip-path="url(#clipPath70)"
           id="g86"><g
             id="g84"><g
               id="g82"><path
                 d="M -32768,32767 H 32767 V -32768 H -32768 Z"
                 style="fill:url(#linearGradient76);stroke:none"
                 id="path80"
                 inkscape:connector-curvature="0" /></g></g></g></g></mask><linearGradient
       x1="0"
       y1="0"
       x2="1"
       y2="0"
       gradientUnits="userSpaceOnUse"
       gradientTransform="matrix(35.149071,-35.149071,-35.149071,-35.149071,35.65213,45.245453)"
       spreadMethod="pad"
       id="linearGradient98"><stop
         style="stop-opacity:1;stop-color:#231815"
         offset="0"
         id="stop94" /><stop
         style="stop-opacity:1;stop-color:#231815"
         offset="1"
         id="stop96" /></linearGradient><clipPath
       clipPathUnits="userSpaceOnUse"
       id="clipPath108"><path
         d="M 0,80 H 80 V 0 H 0 Z"
         id="path106"
         inkscape:connector-curvature="0" /></clipPath><clipPath
       clipPathUnits="userSpaceOnUse"
       id="clipPath120"><path
         d="m 34.043,28.782 c 0.227,0.09 0.458,0.174 0.676,0.277 v 0 C 35.35,29.35 35.94,29.7 36.5,30.11 v 0 -5.69 c 0,-1.29 1.65,-1.83 2.411,-0.781 v 0 l 3.229,4.451 1.669,2.29 c 0.016,-10e-4 0.031,-10e-4 0.045,-0.002 v 0 c -0.871,1.689 -2.612,2.857 -4.645,2.857 v 0 c -2.626,0 -4.781,-1.934 -5.166,-4.453"
         id="path118"
         inkscape:connector-curvature="0" /></clipPath><clipPath
       clipPathUnits="userSpaceOnUse"
       id="clipPath128"><path
         d="M -32768,32767 H 32767 V -32768 H -32768 Z"
         id="path126"
         inkscape:connector-curvature="0" /></clipPath><linearGradient
       x1="0"
       y1="0"
       x2="1"
       y2="0"
       gradientUnits="userSpaceOnUse"
       gradientTransform="matrix(0,10.150752,10.150752,0,38.948822,23.084904)"
       spreadMethod="pad"
       id="linearGradient136"><stop
         style="stop-opacity:0;stop-color:#ffffff"
         offset="0"
         id="stop130" /><stop
         style="stop-opacity:0;stop-color:#ffffff"
         offset="0.504951"
         id="stop132" /><stop
         style="stop-opacity:0.14999619;stop-color:#ffffff"
         offset="1"
         id="stop134" /></linearGradient><mask
       maskUnits="userSpaceOnUse"
       x="0"
       y="0"
       width="1"
       height="1"
       id="mask138"><g
         id="g148"><g
           clip-path="url(#clipPath128)"
           id="g146"><g
             id="g144"><g
               id="g142"><path
                 d="M -32768,32767 H 32767 V -32768 H -32768 Z"
                 style="fill:url(#linearGradient136);stroke:none"
                 id="path140"
                 inkscape:connector-curvature="0" /></g></g></g></g></mask><linearGradient
       x1="0"
       y1="0"
       x2="1"
       y2="0"
       gradientUnits="userSpaceOnUse"
       gradientTransform="matrix(0,10.150752,10.150752,0,38.948822,23.084904)"
       spreadMethod="pad"
       id="linearGradient160"><stop
         style="stop-opacity:1;stop-color:#231815"
         offset="0"
         id="stop154" /><stop
         style="stop-opacity:1;stop-color:#231815"
         offset="0.504951"
         id="stop156" /><stop
         style="stop-opacity:1;stop-color:#231815"
         offset="1"
         id="stop158" /></linearGradient><clipPath
       clipPathUnits="userSpaceOnUse"
       id="clipPath170"><path
         d="M 0,80 H 80 V 0 H 0 Z"
         id="path168"
         inkscape:connector-curvature="0" /></clipPath><clipPath
       clipPathUnits="userSpaceOnUse"
       id="clipPath182"><path
         d="M 0,80 H 80 V 0 H 0 Z"
         id="path180"
         inkscape:connector-curvature="0" /></clipPath><clipPath
       clipPathUnits="userSpaceOnUse"
       id="clipPath190"><path
         d="M 1.02344,79 H 78.9766 V 1 H 1.02344 Z"
         id="path188"
         inkscape:connector-curvature="0" /></clipPath><clipPath
       clipPathUnits="userSpaceOnUse"
       id="clipPath194"><path
         d="M 1.02344,79 H 78.9766 V 1 H 1.02344 Z"
         id="path192"
         inkscape:connector-curvature="0" /></clipPath><clipPath
       clipPathUnits="userSpaceOnUse"
       id="clipPath198"><path
         d="M 78.977,40 C 78.977,11.107 68.877,1 40,1 11.123,1 1.023,11.107 1.023,40 1.023,68.894 11.123,79 40,79 68.877,79 78.977,68.894 78.977,40"
         id="path196"
         inkscape:connector-curvature="0" /></clipPath><clipPath
       clipPathUnits="userSpaceOnUse"
       id="clipPath202"><path
         d="M -24534,24614 H 8232 V -8152 h -32766 z"
         id="path200"
         inkscape:connector-curvature="0" /></clipPath><clipPath
       clipPathUnits="userSpaceOnUse"
       id="clipPath206"><path
         d="M -24534,24614 H 8232 V -8152 h -32766 z"
         id="path204"
         inkscape:connector-curvature="0" /></clipPath><mask
       maskUnits="userSpaceOnUse"
       x="0"
       y="0"
       width="1"
       height="1"
       id="mask208"><g
         id="g220"><g
           clip-path="url(#clipPath202)"
           id="g218"><g
             id="g216"><g
               id="g210" /><g
               id="g214"><g
                 clip-path="url(#clipPath206)"
                 id="g212" /></g></g></g></g></mask><linearGradient
       x1="0"
       y1="0"
       x2="1"
       y2="0"
       gradientUnits="userSpaceOnUse"
       gradientTransform="matrix(0,-53.61993,-53.61993,0,40,74.818359)"
       spreadMethod="pad"
       id="linearGradient226"><stop
         style="stop-opacity:1;stop-color:#ffffff"
         offset="0"
         id="stop222" /><stop
         style="stop-opacity:1;stop-color:#e4e4e5"
         offset="1"
         id="stop224" /></linearGradient><mask
       maskUnits="userSpaceOnUse"
       x="0"
       y="0"
       width="1"
       height="1"
       id="mask228"><g
         id="g254"><g
           clip-path="url(#clipPath190)"
           id="g252"
           style="opacity:0.5"><g
             id="g250"><g
               id="g230" /><g
               id="g248"><g
                 clip-path="url(#clipPath194)"
                 id="g246"><g
                   id="g244"><g
                     clip-path="url(#clipPath198)"
                     id="g242"><g
                       id="g240"><g
                         id="g232" /><g
                         mask="url(#mask208)"
                         id="g238"><g
                           id="g236"><path
                             d="M 78.977,40 C 78.977,11.107 68.877,1 40,1 11.123,1 1.023,11.107 1.023,40 1.023,68.894 11.123,79 40,79 68.877,79 78.977,68.894 78.977,40"
                             style="fill:url(#linearGradient226);stroke:none"
                             id="path234"
                             inkscape:connector-curvature="0" /></g></g></g></g></g></g></g></g></g></g></mask><clipPath
       clipPathUnits="userSpaceOnUse"
       id="clipPath262"><path
         d="M 1.02344,79 H 78.9766 V 1 H 1.02344 Z"
         id="path260"
         inkscape:connector-curvature="0" /></clipPath><clipPath
       clipPathUnits="userSpaceOnUse"
       id="clipPath266"><path
         d="M 78.977,40 C 78.977,11.107 68.877,1 40,1 11.123,1 1.023,11.107 1.023,40 1.023,68.894 11.123,79 40,79 68.877,79 78.977,68.894 78.977,40"
         id="path264"
         inkscape:connector-curvature="0" /></clipPath><linearGradient
       x1="0"
       y1="0"
       x2="1"
       y2="0"
       gradientUnits="userSpaceOnUse"
       gradientTransform="matrix(0,-53.61993,-53.61993,0,40.000019,74.818184)"
       spreadMethod="pad"
       id="linearGradient272"><stop
         style="stop-opacity:1;stop-color:#ffffff"
         offset="0"
         id="stop268" /><stop
         style="stop-opacity:1;stop-color:#000000"
         offset="1"
         id="stop270" /></linearGradient><clipPath
       clipPathUnits="userSpaceOnUse"
       id="clipPath294"><path
         d="M 1,79 H 79 V 1 H 1 Z"
         id="path292"
         inkscape:connector-curvature="0" /></clipPath><clipPath
       clipPathUnits="userSpaceOnUse"
       id="clipPath298"><path
         d="M 1,79 H 79 V 1 H 1 Z"
         id="path296"
         inkscape:connector-curvature="0" /></clipPath><clipPath
       clipPathUnits="userSpaceOnUse"
       id="clipPath302"><path
         d="M -24534,24614 H 8232 V -8152 h -32766 z"
         id="path300"
         inkscape:connector-curvature="0" /></clipPath><clipPath
       clipPathUnits="userSpaceOnUse"
       id="clipPath306"><path
         d="M -24534,24614 H 8232 V -8152 h -32766 z"
         id="path304"
         inkscape:connector-curvature="0" /></clipPath><mask
       maskUnits="userSpaceOnUse"
       x="0"
       y="0"
       width="1"
       height="1"
       id="mask308"><g
         id="g320"><g
           clip-path="url(#clipPath302)"
           id="g318"><g
             id="g316"><g
               id="g310" /><g
               id="g314"><g
                 clip-path="url(#clipPath306)"
                 id="g312" /></g></g></g></g></mask><clipPath
       clipPathUnits="userSpaceOnUse"
       id="clipPath324"><path
         d="M 1,79 H 79 V 1 H 1 Z"
         id="path322"
         inkscape:connector-curvature="0" /></clipPath><clipPath
       clipPathUnits="userSpaceOnUse"
       id="clipPath328"><path
         d="M 39.999,1.975 C 11.57,1.975 1.976,11.57 1.976,40 c 0,28.429 9.594,38.024 38.023,38.024 28.43,0 38.024,-9.595 38.024,-38.024 0,-28.43 -9.594,-38.025 -38.024,-38.025 m 0,77.025 C 11.105,79 1,68.894 1,40 1,11.107 11.105,1 39.999,1 68.896,1 79,11.107 79,40 79,68.894 68.896,79 39.999,79"
         id="path326"
         inkscape:connector-curvature="0" /></clipPath><linearGradient
       x1="0"
       y1="0"
       x2="1"
       y2="0"
       gradientUnits="userSpaceOnUse"
       gradientTransform="matrix(0,-77.263527,-77.263527,0,40,78.75293)"
       spreadMethod="pad"
       id="linearGradient334"><stop
         style="stop-opacity:1;stop-color:#ffffff"
         offset="0"
         id="stop330" /><stop
         style="stop-opacity:1;stop-color:#231815"
         offset="1"
         id="stop332" /></linearGradient><mask
       maskUnits="userSpaceOnUse"
       x="0"
       y="0"
       width="1"
       height="1"
       id="mask336"><g
         id="g370"><g
           clip-path="url(#clipPath294)"
           id="g368"
           style="opacity:0.25"><g
             id="g366"><g
               id="g338" /><g
               id="g364"><g
                 clip-path="url(#clipPath298)"
                 id="g362"><g
                   id="g360"><g
                     id="g340" /><g
                     mask="url(#mask308)"
                     id="g358"><g
                       id="g342" /><g
                       id="g356"><g
                         clip-path="url(#clipPath324)"
                         id="g354"><g
                           id="g352"><g
                             clip-path="url(#clipPath328)"
                             id="g350"><g
                               id="g348"><g
                                 id="g346"><path
                                   d="M 39.999,1.975 C 11.57,1.975 1.976,11.57 1.976,40 c 0,28.429 9.594,38.024 38.023,38.024 28.43,0 38.024,-9.595 38.024,-38.024 0,-28.43 -9.594,-38.025 -38.024,-38.025 m 0,77.025 C 11.105,79 1,68.894 1,40 1,11.107 11.105,1 39.999,1 68.896,1 79,11.107 79,40 79,68.894 68.896,79 39.999,79"
                                   style="fill:url(#linearGradient334);stroke:none"
                                   id="path344"
                                   inkscape:connector-curvature="0" /></g></g></g></g></g></g></g></g></g></g></g></g></g></mask><clipPath
       clipPathUnits="userSpaceOnUse"
       id="clipPath378"><path
         d="M 1,79 H 79 V 1 H 1 Z"
         id="path376"
         inkscape:connector-curvature="0" /></clipPath><clipPath
       clipPathUnits="userSpaceOnUse"
       id="clipPath382"><path
         d="M 39.999,1.975 C 11.57,1.975 1.976,11.57 1.976,40 c 0,28.429 9.594,38.024 38.023,38.024 28.43,0 38.024,-9.595 38.024,-38.024 0,-28.43 -9.594,-38.025 -38.024,-38.025 m 0,77.025 C 11.105,79 1,68.894 1,40 1,11.107 11.105,1 39.999,1 68.896,1 79,11.107 79,40 79,68.894 68.896,79 39.999,79"
         id="path380"
         inkscape:connector-curvature="0" /></clipPath><linearGradient
       x1="0"
       y1="0"
       x2="1"
       y2="0"
       gradientUnits="userSpaceOnUse"
       gradientTransform="matrix(0,-77.263527,-77.263527,0,40,78.753128)"
       spreadMethod="pad"
       id="linearGradient388"><stop
         style="stop-opacity:1;stop-color:#ffffff"
         offset="0"
         id="stop384" /><stop
         style="stop-opacity:1;stop-color:#ffffff"
         offset="1"
         id="stop386" /></linearGradient></defs><sodipodi:namedview
     pagecolor="#ffffff"
     bordercolor="#666666"
     borderopacity="1"
     objecttolerance="10"
     gridtolerance="10"
     guidetolerance="10"
     inkscape:pageopacity="0"
     inkscape:pageshadow="2"
     inkscape:window-width="1366"
     inkscape:window-height="706"
     id="namedview4"
     showgrid="false"
     inkscape:zoom="2.2124999"
     inkscape:cx="53.333336"
     inkscape:cy="53.333336"
     inkscape:window-x="0"
     inkscape:window-y="34"
     inkscape:window-maximized="1"
     inkscape:current-layer="g10" /><g
     id="g10"
     inkscape:groupmode="layer"
     inkscape:label="remind"
     transform="matrix(1.3333333,0,0,-1.3333333,0,106.66667)"><g
       id="g12"
       transform="matrix(0.97115387,0,0,0.97060635,1.2788462,1.322099)"><g
         id="g14"
         clip-path="url(#clipPath18)"><g
           id="g20"><g
             id="g22"><path
               d="m 1,39.956 c 0,-28.892 10.105,-39 39,-39 v 0 c 28.894,0 39,10.108 39,39 v 0 c 0,28.894 -10.106,39 -39,39 v 0 c -28.895,0 -39,-10.106 -39,-39"
               style="fill:url(#linearGradient30);stroke:none"
               id="path32"
               inkscape:connector-curvature="0" /></g></g></g></g><g
       id="g34"
       transform="matrix(0.97115387,0,0,0.97060635,1.2788462,1.322099)"><g
         id="g36"
         clip-path="url(#clipPath40)"><g
           id="g42"><g
             id="g44"><path
               d="m 1,39.956 c 0,-28.892 10.105,-39 39,-39 v 0 c 28.894,0 39,10.108 39,39 v 0 c 0,28.894 -10.106,39 -39,39 v 0 c -28.895,0 -39,-10.106 -39,-39"
               style="fill:url(#linearGradient52);stroke:none"
               id="path54"
               inkscape:connector-curvature="0" /></g></g></g></g><g
       id="g114"
       transform="matrix(0.97115387,0,0,0.97060635,1.2788462,1.322099)"><g
         id="g116"
         clip-path="url(#clipPath120)"><g
           id="g122"><g
             id="g124" /><g
             id="g150"
             mask="url(#mask138)"><g
               id="g152"><path
                 d="m 34.043,28.782 c 0.227,0.09 0.458,0.174 0.676,0.277 v 0 C 35.35,29.35 35.94,29.7 36.5,30.11 v 0 -5.69 c 0,-1.29 1.65,-1.83 2.411,-0.781 v 0 l 3.229,4.451 1.669,2.29 c 0.016,-10e-4 0.031,-10e-4 0.045,-0.002 v 0 c -0.871,1.689 -2.612,2.857 -4.645,2.857 v 0 c -2.626,0 -4.781,-1.934 -5.166,-4.453"
                 style="fill:url(#linearGradient160);stroke:none"
                 id="path162"
                 inkscape:connector-curvature="0" /></g></g></g></g></g><g
       id="g176"
       transform="matrix(0.97115387,0,0,0.97060635,1.2788462,1.322099)"><g
         id="g178"
         clip-path="url(#clipPath182)"><g
           id="g184"><g
             id="g186" /><g
             id="g256"
             mask="url(#mask228)"><g
               id="g258" /><g
               id="g286"><g
                 clip-path="url(#clipPath262)"
                 id="g284"
                 style="opacity:0.5"><g
                   id="g282"><g
                     clip-path="url(#clipPath266)"
                     id="g280"><g
                       id="g278"><g
                         id="g276"><path
                           d="M 78.977,40 C 78.977,11.107 68.877,1 40,1 11.123,1 1.023,11.107 1.023,40 1.023,68.894 11.123,79 40,79 68.877,79 78.977,68.894 78.977,40"
                           style="fill:url(#linearGradient272);stroke:none"
                           id="path274"
                           inkscape:connector-curvature="0" /></g></g></g></g></g></g></g></g><g
           id="g288"><g
             id="g290" /><g
             id="g372"
             mask="url(#mask336)"><g
               id="g374" /><g
               id="g402"><g
                 clip-path="url(#clipPath378)"
                 id="g400"
                 style="opacity:0.25"><g
                   id="g398"><g
                     clip-path="url(#clipPath382)"
                     id="g396"><g
                       id="g394"><g
                         id="g392"><path
                           d="M 39.999,1.975 C 11.57,1.975 1.976,11.57 1.976,40 c 0,28.429 9.594,38.024 38.023,38.024 28.43,0 38.024,-9.595 38.024,-38.024 0,-28.43 -9.594,-38.025 -38.024,-38.025 m 0,77.025 C 11.105,79 1,68.894 1,40 1,11.107 11.105,1 39.999,1 68.896,1 79,11.107 79,40 79,68.894 68.896,79 39.999,79"
                           style="fill:url(#linearGradient388);stroke:none"
                           id="path390"
                           inkscape:connector-curvature="0" /></g></g></g></g></g></g></g></g></g></g></g></svg>