<?xml version="1.0" encoding="UTF-8" standalone="no"?>
<!-- Created with Inkscape (http://www.inkscape.org/) -->

<svg
   xmlns:dc="http://purl.org/dc/elements/1.1/"
   xmlns:cc="http://creativecommons.org/ns#"
   xmlns:rdf="http://www.w3.org/1999/02/22-rdf-syntax-ns#"
   xmlns:svg="http://www.w3.org/2000/svg"
   xmlns="http://www.w3.org/2000/svg"
   xmlns:sodipodi="http://sodipodi.sourceforge.net/DTD/sodipodi-0.dtd"
   xmlns:inkscape="http://www.inkscape.org/namespaces/inkscape"
   version="1.1"
   id="svg2"
   xml:space="preserve"
   width="106.66667"
   height="106.66667"
   viewBox="0 0 106.66667 106.66667"
   sodipodi:docname="overlay16.svg"
   inkscape:version="0.92.2 2405546, 2018-03-11"><metadata
     id="metadata8"><rdf:RDF><cc:Work
         rdf:about=""><dc:format>image/svg+xml</dc:format><dc:type
           rdf:resource="http://purl.org/dc/dcmitype/StillImage" /><dc:title /></cc:Work></rdf:RDF></metadata><defs
     id="defs6"><clipPath
       clipPathUnits="userSpaceOnUse"
       id="clipPath18"><path
         d="m 1,39.956 c 0,-28.892 10.105,-39 39,-39 v 0 c 28.894,0 39,10.108 39,39 v 0 c 0,28.894 -10.106,39 -39,39 v 0 c -28.895,0 -39,-10.106 -39,-39"
         id="path16"
         inkscape:connector-curvature="0" /></clipPath><linearGradient
       x1="0"
       y1="0"
       x2="1"
       y2="0"
       gradientUnits="userSpaceOnUse"
       gradientTransform="matrix(60.670349,-60.670349,-60.670349,-60.670349,9.6648254,70.291695)"
       spreadMethod="pad"
       id="linearGradient28"><stop
         style="stop-opacity:1;stop-color:#fcfdfd"
         offset="0"
         id="stop24" /><stop
         style="stop-opacity:1;stop-color:#ededed"
         offset="1"
         id="stop26" /></linearGradient><clipPath
       clipPathUnits="userSpaceOnUse"
       id="clipPath38"><path
         d="m 1,39.956 c 0,-28.892 10.105,-39 39,-39 v 0 c 28.894,0 39,10.108 39,39 v 0 c 0,28.894 -10.106,39 -39,39 v 0 c -28.895,0 -39,-10.106 -39,-39"
         id="path36"
         inkscape:connector-curvature="0" /></clipPath><linearGradient
       x1="0"
       y1="0"
       x2="1"
       y2="0"
       gradientUnits="userSpaceOnUse"
       gradientTransform="matrix(80,-80,-80,-80,0,79.956329)"
       spreadMethod="pad"
       id="linearGradient48"><stop
         style="stop-opacity:1;stop-color:#fcfdfd"
         offset="0"
         id="stop44" /><stop
         style="stop-opacity:1;stop-color:#ededed"
         offset="1"
         id="stop46" /></linearGradient><clipPath
       clipPathUnits="userSpaceOnUse"
       id="clipPath58"><path
         d="M 30.958,57.013 26.226,40.107 34.608,31.725 38.023,16.696 52.879,1.84 C 70.374,4.593 77.74,14.093 78.845,34.214 v 0 L 54.502,58.559 Z"
         id="path56"
         inkscape:connector-curvature="0" /></clipPath><clipPath
       clipPathUnits="userSpaceOnUse"
       id="clipPath66"><path
         d="M -32768,32767 H 32767 V -32768 H -32768 Z"
         id="path64"
         inkscape:connector-curvature="0" /></clipPath><linearGradient
       x1="0"
       y1="0"
       x2="1"
       y2="0"
       gradientUnits="userSpaceOnUse"
       gradientTransform="matrix(43.375961,-43.375961,-43.375961,-43.375961,28.917679,54.972611)"
       spreadMethod="pad"
       id="linearGradient72"><stop
         style="stop-opacity:0.29999237;stop-color:#ffffff"
         offset="0"
         id="stop68" /><stop
         style="stop-opacity:0;stop-color:#ffffff"
         offset="1"
         id="stop70" /></linearGradient><mask
       maskUnits="userSpaceOnUse"
       x="0"
       y="0"
       width="1"
       height="1"
       id="mask74"><g
         id="g84"><g
           clip-path="url(#clipPath66)"
           id="g82"><g
             id="g80"><g
               id="g78"><path
                 d="M -32768,32767 H 32767 V -32768 H -32768 Z"
                 style="fill:url(#linearGradient72);stroke:none"
                 id="path76"
                 inkscape:connector-curvature="0" /></g></g></g></g></mask><linearGradient
       x1="0"
       y1="0"
       x2="1"
       y2="0"
       gradientUnits="userSpaceOnUse"
       gradientTransform="matrix(43.375961,-43.375961,-43.375961,-43.375961,28.917679,54.972611)"
       spreadMethod="pad"
       id="linearGradient94"><stop
         style="stop-opacity:1;stop-color:#231815"
         offset="0"
         id="stop90" /><stop
         style="stop-opacity:1;stop-color:#231815"
         offset="1"
         id="stop92" /></linearGradient><clipPath
       clipPathUnits="userSpaceOnUse"
       id="clipPath104"><path
         d="m 30.466,60.906 c -3.264,-0.39 -5.798,-3.063 -6.023,-6.343 v 0 c -0.115,-1.692 -0.176,-3.398 -0.176,-5.119 v 0 c 0,-1.746 0.062,-3.477 0.182,-5.192 v 0 c 0.226,-3.279 2.759,-5.95 6.021,-6.339 v 0 c 1.166,-0.14 3.425,-0.324 3.425,-0.324 v 0 -16.577 c 0,-0.119 0.048,-0.234 0.132,-0.318 v 0 l 3.996,-3.998 c 0.086,-0.084 0.2,-0.132 0.32,-0.132 v 0 h 3.866 c 0.12,0 0.234,0.048 0.319,0.132 v 0 l 4.043,4.044 c 0.085,0.085 0.132,0.199 0.132,0.318 v 0 1.789 c 0,0.12 -0.047,0.235 -0.132,0.319 v 0 l -1.567,1.568 c -0.176,0.176 -0.176,0.461 0,0.637 v 0 l 1.568,1.569 c 0.085,0.084 0.132,0.199 0.132,0.319 v 0 2.026 c 0,0.119 -0.047,0.234 -0.132,0.319 v 0 l -1.599,1.599 c -0.176,0.175 -0.176,0.461 0,0.637 v 0 l 1.843,1.843 c 0.085,0.085 0.133,0.2 0.133,0.319 v 0 3.736 c 0,0 2.278,0.235 3.468,0.405 v 0 c 3.22,0.46 5.707,3.094 5.924,6.341 v 0 c 0.109,1.639 0.168,3.293 0.168,4.96 v 0 c 0,1.643 -0.057,3.272 -0.164,4.887 v 0 c -0.214,3.247 -2.701,5.884 -5.923,6.343 v 0 c -3.552,0.508 -7.181,0.774 -10.873,0.774 v 0 c -3.075,0 -6.105,-0.186 -9.083,-0.542 m 2.151,-6.714 v 1.434 c 0.466,0.241 0.98,0.408 1.531,0.47 v 0 c 1.874,0.213 3.779,0.324 5.712,0.324 v 0 c 2.321,0 4.605,-0.159 6.838,-0.462 v 0 c 0.524,-0.071 1.015,-0.232 1.46,-0.46 v 0 -1.306 c 0,-1.915 -1.565,-3.48 -3.478,-3.48 v 0 h -8.584 c -1.913,0 -3.479,1.565 -3.479,3.48"
         id="path102"
         inkscape:connector-curvature="0" /></clipPath><linearGradient
       x1="0"
       y1="0"
       x2="1"
       y2="0"
       gradientUnits="userSpaceOnUse"
       gradientTransform="matrix(29.168772,-29.168772,-29.168772,-29.168772,25.693153,58.199581)"
       spreadMethod="pad"
       id="linearGradient116"><stop
         style="stop-opacity:1;stop-color:#ffd20d"
         offset="0"
         id="stop110" /><stop
         style="stop-opacity:1;stop-color:#ffd20d"
         offset="0.0000002"
         id="stop112" /><stop
         style="stop-opacity:1;stop-color:#fd9e00"
         offset="1"
         id="stop114" /></linearGradient><clipPath
       clipPathUnits="userSpaceOnUse"
       id="clipPath126"><path
         d="M 0,80 H 80 V 0 H 0 Z"
         id="path124"
         inkscape:connector-curvature="0" /></clipPath><clipPath
       clipPathUnits="userSpaceOnUse"
       id="clipPath138"><path
         d="M 0,80 H 80 V 0 H 0 Z"
         id="path136"
         inkscape:connector-curvature="0" /></clipPath><clipPath
       clipPathUnits="userSpaceOnUse"
       id="clipPath146"><path
         d="M 1.02344,79 H 78.9766 V 1 H 1.02344 Z"
         id="path144"
         inkscape:connector-curvature="0" /></clipPath><clipPath
       clipPathUnits="userSpaceOnUse"
       id="clipPath150"><path
         d="M 1.02344,79 H 78.9766 V 1 H 1.02344 Z"
         id="path148"
         inkscape:connector-curvature="0" /></clipPath><clipPath
       clipPathUnits="userSpaceOnUse"
       id="clipPath154"><path
         d="M 78.977,40 C 78.977,11.107 68.877,1 40,1 11.123,1 1.023,11.107 1.023,40 1.023,68.894 11.123,79 40,79 68.877,79 78.977,68.894 78.977,40"
         id="path152"
         inkscape:connector-curvature="0" /></clipPath><clipPath
       clipPathUnits="userSpaceOnUse"
       id="clipPath158"><path
         d="M -24534,24614 H 8232 V -8152 h -32766 z"
         id="path156"
         inkscape:connector-curvature="0" /></clipPath><clipPath
       clipPathUnits="userSpaceOnUse"
       id="clipPath162"><path
         d="M -24534,24614 H 8232 V -8152 h -32766 z"
         id="path160"
         inkscape:connector-curvature="0" /></clipPath><mask
       maskUnits="userSpaceOnUse"
       x="0"
       y="0"
       width="1"
       height="1"
       id="mask164"><g
         id="g176"><g
           clip-path="url(#clipPath158)"
           id="g174"><g
             id="g172"><g
               id="g166" /><g
               id="g170"><g
                 clip-path="url(#clipPath162)"
                 id="g168" /></g></g></g></g></mask><linearGradient
       x1="0"
       y1="0"
       x2="1"
       y2="0"
       gradientUnits="userSpaceOnUse"
       gradientTransform="matrix(0,-53.61993,-53.61993,0,40,74.818359)"
       spreadMethod="pad"
       id="linearGradient182"><stop
         style="stop-opacity:1;stop-color:#ffffff"
         offset="0"
         id="stop178" /><stop
         style="stop-opacity:1;stop-color:#e4e4e5"
         offset="1"
         id="stop180" /></linearGradient><mask
       maskUnits="userSpaceOnUse"
       x="0"
       y="0"
       width="1"
       height="1"
       id="mask184"><g
         id="g210"><g
           clip-path="url(#clipPath146)"
           id="g208"
           style="opacity:0.5"><g
             id="g206"><g
               id="g186" /><g
               id="g204"><g
                 clip-path="url(#clipPath150)"
                 id="g202"><g
                   id="g200"><g
                     clip-path="url(#clipPath154)"
                     id="g198"><g
                       id="g196"><g
                         id="g188" /><g
                         mask="url(#mask164)"
                         id="g194"><g
                           id="g192"><path
                             d="M 78.977,40 C 78.977,11.107 68.877,1 40,1 11.123,1 1.023,11.107 1.023,40 1.023,68.894 11.123,79 40,79 68.877,79 78.977,68.894 78.977,40"
                             style="fill:url(#linearGradient182);stroke:none"
                             id="path190"
                             inkscape:connector-curvature="0" /></g></g></g></g></g></g></g></g></g></g></mask><clipPath
       clipPathUnits="userSpaceOnUse"
       id="clipPath218"><path
         d="M 1.02344,79 H 78.9766 V 1 H 1.02344 Z"
         id="path216"
         inkscape:connector-curvature="0" /></clipPath><clipPath
       clipPathUnits="userSpaceOnUse"
       id="clipPath222"><path
         d="M 78.977,40 C 78.977,11.107 68.877,1 40,1 11.123,1 1.023,11.107 1.023,40 1.023,68.894 11.123,79 40,79 68.877,79 78.977,68.894 78.977,40"
         id="path220"
         inkscape:connector-curvature="0" /></clipPath><linearGradient
       x1="0"
       y1="0"
       x2="1"
       y2="0"
       gradientUnits="userSpaceOnUse"
       gradientTransform="matrix(0,-53.61993,-53.61993,0,40.000019,74.818184)"
       spreadMethod="pad"
       id="linearGradient228"><stop
         style="stop-opacity:1;stop-color:#ffffff"
         offset="0"
         id="stop224" /><stop
         style="stop-opacity:1;stop-color:#000000"
         offset="1"
         id="stop226" /></linearGradient><clipPath
       clipPathUnits="userSpaceOnUse"
       id="clipPath250"><path
         d="M 1,79 H 79 V 1 H 1 Z"
         id="path248"
         inkscape:connector-curvature="0" /></clipPath><clipPath
       clipPathUnits="userSpaceOnUse"
       id="clipPath254"><path
         d="M 1,79 H 79 V 1 H 1 Z"
         id="path252"
         inkscape:connector-curvature="0" /></clipPath><clipPath
       clipPathUnits="userSpaceOnUse"
       id="clipPath258"><path
         d="M -24534,24614 H 8232 V -8152 h -32766 z"
         id="path256"
         inkscape:connector-curvature="0" /></clipPath><clipPath
       clipPathUnits="userSpaceOnUse"
       id="clipPath262"><path
         d="M -24534,24614 H 8232 V -8152 h -32766 z"
         id="path260"
         inkscape:connector-curvature="0" /></clipPath><mask
       maskUnits="userSpaceOnUse"
       x="0"
       y="0"
       width="1"
       height="1"
       id="mask264"><g
         id="g276"><g
           clip-path="url(#clipPath258)"
           id="g274"><g
             id="g272"><g
               id="g266" /><g
               id="g270"><g
                 clip-path="url(#clipPath262)"
                 id="g268" /></g></g></g></g></mask><clipPath
       clipPathUnits="userSpaceOnUse"
       id="clipPath280"><path
         d="M 1,79 H 79 V 1 H 1 Z"
         id="path278"
         inkscape:connector-curvature="0" /></clipPath><clipPath
       clipPathUnits="userSpaceOnUse"
       id="clipPath284"><path
         d="M 39.999,1.975 C 11.57,1.975 1.976,11.57 1.976,40 c 0,28.429 9.594,38.024 38.023,38.024 28.43,0 38.024,-9.595 38.024,-38.024 0,-28.43 -9.594,-38.025 -38.024,-38.025 m 0,77.025 C 11.105,79 1,68.894 1,40 1,11.107 11.105,1 39.999,1 68.896,1 79,11.107 79,40 79,68.894 68.896,79 39.999,79"
         id="path282"
         inkscape:connector-curvature="0" /></clipPath><linearGradient
       x1="0"
       y1="0"
       x2="1"
       y2="0"
       gradientUnits="userSpaceOnUse"
       gradientTransform="matrix(0,-77.263527,-77.263527,0,40,78.75293)"
       spreadMethod="pad"
       id="linearGradient290"><stop
         style="stop-opacity:1;stop-color:#ffffff"
         offset="0"
         id="stop286" /><stop
         style="stop-opacity:1;stop-color:#231815"
         offset="1"
         id="stop288" /></linearGradient><mask
       maskUnits="userSpaceOnUse"
       x="0"
       y="0"
       width="1"
       height="1"
       id="mask292"><g
         id="g326"><g
           clip-path="url(#clipPath250)"
           id="g324"
           style="opacity:0.25"><g
             id="g322"><g
               id="g294" /><g
               id="g320"><g
                 clip-path="url(#clipPath254)"
                 id="g318"><g
                   id="g316"><g
                     id="g296" /><g
                     mask="url(#mask264)"
                     id="g314"><g
                       id="g298" /><g
                       id="g312"><g
                         clip-path="url(#clipPath280)"
                         id="g310"><g
                           id="g308"><g
                             clip-path="url(#clipPath284)"
                             id="g306"><g
                               id="g304"><g
                                 id="g302"><path
                                   d="M 39.999,1.975 C 11.57,1.975 1.976,11.57 1.976,40 c 0,28.429 9.594,38.024 38.023,38.024 28.43,0 38.024,-9.595 38.024,-38.024 0,-28.43 -9.594,-38.025 -38.024,-38.025 m 0,77.025 C 11.105,79 1,68.894 1,40 1,11.107 11.105,1 39.999,1 68.896,1 79,11.107 79,40 79,68.894 68.896,79 39.999,79"
                                   style="fill:url(#linearGradient290);stroke:none"
                                   id="path300"
                                   inkscape:connector-curvature="0" /></g></g></g></g></g></g></g></g></g></g></g></g></g></mask><clipPath
       clipPathUnits="userSpaceOnUse"
       id="clipPath334"><path
         d="M 1,79 H 79 V 1 H 1 Z"
         id="path332"
         inkscape:connector-curvature="0" /></clipPath><clipPath
       clipPathUnits="userSpaceOnUse"
       id="clipPath338"><path
         d="M 39.999,1.975 C 11.57,1.975 1.976,11.57 1.976,40 c 0,28.429 9.594,38.024 38.023,38.024 28.43,0 38.024,-9.595 38.024,-38.024 0,-28.43 -9.594,-38.025 -38.024,-38.025 m 0,77.025 C 11.105,79 1,68.894 1,40 1,11.107 11.105,1 39.999,1 68.896,1 79,11.107 79,40 79,68.894 68.896,79 39.999,79"
         id="path336"
         inkscape:connector-curvature="0" /></clipPath><linearGradient
       x1="0"
       y1="0"
       x2="1"
       y2="0"
       gradientUnits="userSpaceOnUse"
       gradientTransform="matrix(0,-77.263527,-77.263527,0,40,78.753128)"
       spreadMethod="pad"
       id="linearGradient344"><stop
         style="stop-opacity:1;stop-color:#ffffff"
         offset="0"
         id="stop340" /><stop
         style="stop-opacity:1;stop-color:#ffffff"
         offset="1"
         id="stop342" /></linearGradient></defs><sodipodi:namedview
     pagecolor="#ffffff"
     bordercolor="#666666"
     borderopacity="1"
     objecttolerance="10"
     gridtolerance="10"
     guidetolerance="10"
     inkscape:pageopacity="0"
     inkscape:pageshadow="2"
     inkscape:window-width="1366"
     inkscape:window-height="706"
     id="namedview4"
     showgrid="false"
     inkscape:zoom="2.2124999"
     inkscape:cx="53.333336"
     inkscape:cy="53.333336"
     inkscape:window-x="0"
     inkscape:window-y="34"
     inkscape:window-maximized="1"
     inkscape:current-layer="g10" /><g
     id="g10"
     inkscape:groupmode="layer"
     inkscape:label="onevpn"
     transform="matrix(1.3333333,0,0,-1.3333333,0,106.66667)"><g
       id="g12"
       transform="matrix(0.97115387,0,0,0.97060635,1.2788462,1.322099)"><g
         id="g14"
         clip-path="url(#clipPath18)"><g
           id="g20"><g
             id="g22"><path
               d="m 1,39.956 c 0,-28.892 10.105,-39 39,-39 v 0 c 28.894,0 39,10.108 39,39 v 0 c 0,28.894 -10.106,39 -39,39 v 0 c -28.895,0 -39,-10.106 -39,-39"
               style="fill:url(#linearGradient28);stroke:none"
               id="path30"
               inkscape:connector-curvature="0" /></g></g></g></g><g
       id="g32"
       transform="matrix(0.97115387,0,0,0.97060635,1.2788462,1.322099)"><g
         id="g34"
         clip-path="url(#clipPath38)"><g
           id="g40"><g
             id="g42"><path
               d="m 1,39.956 c 0,-28.892 10.105,-39 39,-39 v 0 c 28.894,0 39,10.108 39,39 v 0 c 0,28.894 -10.106,39 -39,39 v 0 c -28.895,0 -39,-10.106 -39,-39"
               style="fill:url(#linearGradient48);stroke:none"
               id="path50"
               inkscape:connector-curvature="0" /></g></g></g></g><g
       id="g132"
       transform="matrix(0.97115387,0,0,0.97060635,1.2788462,1.322099)"><g
         id="g134"
         clip-path="url(#clipPath138)"><g
           id="g140"><g
             id="g142" /><g
             id="g212"
             mask="url(#mask184)"><g
               id="g214" /><g
               id="g242"><g
                 clip-path="url(#clipPath218)"
                 id="g240"
                 style="opacity:0.5"><g
                   id="g238"><g
                     clip-path="url(#clipPath222)"
                     id="g236"><g
                       id="g234"><g
                         id="g232"><path
                           d="M 78.977,40 C 78.977,11.107 68.877,1 40,1 11.123,1 1.023,11.107 1.023,40 1.023,68.894 11.123,79 40,79 68.877,79 78.977,68.894 78.977,40"
                           style="fill:url(#linearGradient228);stroke:none"
                           id="path230"
                           inkscape:connector-curvature="0" /></g></g></g></g></g></g></g></g><g
           id="g244"><g
             id="g246" /><g
             id="g328"
             mask="url(#mask292)"><g
               id="g330" /><g
               id="g358"><g
                 clip-path="url(#clipPath334)"
                 id="g356"
                 style="opacity:0.25"><g
                   id="g354"><g
                     clip-path="url(#clipPath338)"
                     id="g352"><g
                       id="g350"><g
                         id="g348"><path
                           d="M 39.999,1.975 C 11.57,1.975 1.976,11.57 1.976,40 c 0,28.429 9.594,38.024 38.023,38.024 28.43,0 38.024,-9.595 38.024,-38.024 0,-28.43 -9.594,-38.025 -38.024,-38.025 m 0,77.025 C 11.105,79 1,68.894 1,40 1,11.107 11.105,1 39.999,1 68.896,1 79,11.107 79,40 79,68.894 68.896,79 39.999,79"
                           style="fill:url(#linearGradient344);stroke:none"
                           id="path346"
                           inkscape:connector-curvature="0" /></g></g></g></g></g></g></g></g></g></g></g></svg>