<?xml version="1.0" encoding="UTF-8" standalone="no"?>
<!-- Created with Inkscape (http://www.inkscape.org/) -->

<svg
   xmlns:dc="http://purl.org/dc/elements/1.1/"
   xmlns:cc="http://creativecommons.org/ns#"
   xmlns:rdf="http://www.w3.org/1999/02/22-rdf-syntax-ns#"
   xmlns:svg="http://www.w3.org/2000/svg"
   xmlns="http://www.w3.org/2000/svg"
   xmlns:sodipodi="http://sodipodi.sourceforge.net/DTD/sodipodi-0.dtd"
   xmlns:inkscape="http://www.inkscape.org/namespaces/inkscape"
   version="1.1"
   id="svg2"
   xml:space="preserve"
   width="133.33333"
   height="133.33333"
   viewBox="0 0 133.33333 133.33333"
   sodipodi:docname="overlay02.svg"
   inkscape:version="0.92.2 2405546, 2018-03-11"><metadata
     id="metadata8"><rdf:RDF><cc:Work
         rdf:about=""><dc:format>image/svg+xml</dc:format><dc:type
           rdf:resource="http://purl.org/dc/dcmitype/StillImage" /><dc:title /></cc:Work></rdf:RDF></metadata><defs
     id="defs6"><clipPath
       clipPathUnits="userSpaceOnUse"
       id="clipPath18"><path
         d="M 50,100 C 12.956,100 0,87.039 0,50 v 0 C 0,12.961 12.956,0 50,0 v 0 c 37.045,0 50,12.961 50,50 v 0 c 0,37.044 -12.955,50 -50,50 z"
         id="path16"
         inkscape:connector-curvature="0" /></clipPath><linearGradient
       x1="0"
       y1="0"
       x2="1"
       y2="0"
       gradientUnits="userSpaceOnUse"
       gradientTransform="matrix(77.78125,-77.78125,-77.78125,-77.78125,11.109896,88.891144)"
       spreadMethod="pad"
       id="linearGradient32"><stop
         style="stop-opacity:1;stop-color:#cf5d9f"
         offset="0"
         id="stop24" /><stop
         style="stop-opacity:1;stop-color:#cf5d9f"
         offset="0.2854642"
         id="stop26" /><stop
         style="stop-opacity:1;stop-color:#f24846"
         offset="1"
         id="stop28" /><stop
         style="stop-opacity:1;stop-color:#f24846"
         offset="1"
         id="stop30" /></linearGradient><clipPath
       clipPathUnits="userSpaceOnUse"
       id="clipPath42"><path
         d="M 0,100 H 100 V 0 H 0 Z"
         id="path40"
         inkscape:connector-curvature="0" /></clipPath><clipPath
       clipPathUnits="userSpaceOnUse"
       id="clipPath50"><path
         d="m 12.5,87.5 h 75 v -75 h -75 z"
         id="path48"
         inkscape:connector-curvature="0" /></clipPath><clipPath
       clipPathUnits="userSpaceOnUse"
       id="clipPath66"><path
         d="m 12.5,87.5 h 75 v -75 h -75 z"
         id="path64"
         inkscape:connector-curvature="0" /></clipPath><clipPath
       clipPathUnits="userSpaceOnUse"
       id="clipPath82"><path
         d="M 40.9639,31.2852 H 58.5381 V 21.3115 H 40.9639 Z"
         id="path80"
         inkscape:connector-curvature="0" /></clipPath><clipPath
       clipPathUnits="userSpaceOnUse"
       id="clipPath102"><path
         d="M 87.5,50 C 87.5,22.22 77.781,12.5 50,12.5 v 0 c -13.89,0 -23.26,2.43 -29.169,8.331 v 0 L 41.383,0.277 C 44.103,0.096 46.962,0 50,0 v 0 c 37.045,0 50,12.961 50,50 v 0 c 0,3.032 -0.096,5.885 -0.275,8.6 v 0 L 79.71,78.61 C 85.22,72.67 87.5,63.46 87.5,50"
         id="path100"
         inkscape:connector-curvature="0" /></clipPath><clipPath
       clipPathUnits="userSpaceOnUse"
       id="clipPath110"><path
         d="M -32768,32767 H 32767 V -32768 H -32768 Z"
         id="path108"
         inkscape:connector-curvature="0" /></clipPath><linearGradient
       x1="0"
       y1="0"
       x2="1"
       y2="0"
       gradientUnits="userSpaceOnUse"
       gradientTransform="matrix(38.890621,-38.890621,-38.890621,-38.890621,49.995895,49.995895)"
       spreadMethod="pad"
       id="linearGradient120"><stop
         style="stop-opacity:0.11999695;stop-color:#ffffff"
         offset="0"
         id="stop112" /><stop
         style="stop-opacity:0.11999695;stop-color:#ffffff"
         offset="0.2854642"
         id="stop114" /><stop
         style="stop-opacity:0;stop-color:#ffffff"
         offset="1"
         id="stop116" /><stop
         style="stop-opacity:0;stop-color:#ffffff"
         offset="1"
         id="stop118" /></linearGradient><mask
       maskUnits="userSpaceOnUse"
       x="0"
       y="0"
       width="1"
       height="1"
       id="mask122"><g
         id="g132"><g
           clip-path="url(#clipPath110)"
           id="g130"><g
             id="g128"><g
               id="g126"><path
                 d="M -32768,32767 H 32767 V -32768 H -32768 Z"
                 style="fill:url(#linearGradient120);stroke:none"
                 id="path124"
                 inkscape:connector-curvature="0" /></g></g></g></g></mask><linearGradient
       x1="0"
       y1="0"
       x2="1"
       y2="0"
       gradientUnits="userSpaceOnUse"
       gradientTransform="matrix(38.890621,-38.890621,-38.890621,-38.890621,49.995895,49.995895)"
       spreadMethod="pad"
       id="linearGradient146"><stop
         style="stop-opacity:1;stop-color:#000000"
         offset="0"
         id="stop138" /><stop
         style="stop-opacity:1;stop-color:#000000"
         offset="0.2854642"
         id="stop140" /><stop
         style="stop-opacity:1;stop-color:#000000"
         offset="1"
         id="stop142" /><stop
         style="stop-opacity:1;stop-color:#000000"
         offset="1"
         id="stop144" /></linearGradient></defs><sodipodi:namedview
     pagecolor="#ffffff"
     bordercolor="#666666"
     borderopacity="1"
     objecttolerance="10"
     gridtolerance="10"
     guidetolerance="10"
     inkscape:pageopacity="0"
     inkscape:pageshadow="2"
     inkscape:window-width="1366"
     inkscape:window-height="706"
     id="namedview4"
     showgrid="false"
     inkscape:zoom="2.5031581"
     inkscape:cx="72.458338"
     inkscape:cy="54.421411"
     inkscape:window-x="0"
     inkscape:window-y="34"
     inkscape:window-maximized="1"
     inkscape:current-layer="g10" /><g
     id="g10"
     inkscape:groupmode="layer"
     inkscape:label="arabic-keyboard"
     transform="matrix(1.3333333,0,0,-1.3333333,0,133.33333)"><g
       id="g12"
       transform="matrix(0.93750002,0,0,0.93750002,3.0000001,3.0000014)"><g
         id="g14"
         clip-path="url(#clipPath18)"><g
           id="g20"><g
             id="g22"><path
               d="M 50,100 C 12.956,100 0,87.039 0,50 v 0 C 0,12.961 12.956,0 50,0 v 0 c 37.045,0 50,12.961 50,50 v 0 c 0,37.044 -12.955,50 -50,50 z"
               style="fill:url(#linearGradient32);stroke:none"
               id="path34"
               inkscape:connector-curvature="0" /></g></g></g></g></g></svg>