<?xml version="1.0" encoding="UTF-8" standalone="no"?>
<!-- Created with Inkscape (http://www.inkscape.org/) -->

<svg
   xmlns:dc="http://purl.org/dc/elements/1.1/"
   xmlns:cc="http://creativecommons.org/ns#"
   xmlns:rdf="http://www.w3.org/1999/02/22-rdf-syntax-ns#"
   xmlns:svg="http://www.w3.org/2000/svg"
   xmlns="http://www.w3.org/2000/svg"
   xmlns:sodipodi="http://sodipodi.sourceforge.net/DTD/sodipodi-0.dtd"
   xmlns:inkscape="http://www.inkscape.org/namespaces/inkscape"
   version="1.1"
   id="svg2"
   xml:space="preserve"
   width="106.66667"
   height="106.66667"
   viewBox="0 0 106.66667 106.66667"
   sodipodi:docname="overlay10.svg"
   inkscape:version="0.92.2 2405546, 2018-03-11"><metadata
     id="metadata8"><rdf:RDF><cc:Work
         rdf:about=""><dc:format>image/svg+xml</dc:format><dc:type
           rdf:resource="http://purl.org/dc/dcmitype/StillImage" /><dc:title /></cc:Work></rdf:RDF></metadata><defs
     id="defs6"><clipPath
       clipPathUnits="userSpaceOnUse"
       id="clipPath18"><path
         d="m 1,39.956 c 0,-28.892 10.105,-39 39,-39 v 0 c 28.894,0 39,10.108 39,39 v 0 c 0,28.894 -10.106,39 -39,39 v 0 c -28.895,0 -39,-10.106 -39,-39"
         id="path16"
         inkscape:connector-curvature="0" /></clipPath><linearGradient
       x1="0"
       y1="0"
       x2="1"
       y2="0"
       gradientUnits="userSpaceOnUse"
       gradientTransform="matrix(60.670349,-60.670349,-60.670349,-60.670349,9.6648254,70.291695)"
       spreadMethod="pad"
       id="linearGradient30"><stop
         style="stop-opacity:1;stop-color:#525252"
         offset="0"
         id="stop24" /><stop
         style="stop-opacity:1;stop-color:#525252"
         offset="0.0000001"
         id="stop26" /><stop
         style="stop-opacity:1;stop-color:#212121"
         offset="1"
         id="stop28" /></linearGradient><clipPath
       clipPathUnits="userSpaceOnUse"
       id="clipPath40"><path
         d="m 1,39.956 c 0,-28.892 10.105,-39 39,-39 v 0 c 28.894,0 39,10.108 39,39 v 0 c 0,28.894 -10.106,39 -39,39 v 0 c -28.895,0 -39,-10.106 -39,-39"
         id="path38"
         inkscape:connector-curvature="0" /></clipPath><linearGradient
       x1="0"
       y1="0"
       x2="1"
       y2="0"
       gradientUnits="userSpaceOnUse"
       gradientTransform="matrix(80,-80,-80,-80,0,79.956329)"
       spreadMethod="pad"
       id="linearGradient52"><stop
         style="stop-opacity:1;stop-color:#525252"
         offset="0"
         id="stop46" /><stop
         style="stop-opacity:1;stop-color:#525252"
         offset="0.0000001"
         id="stop48" /><stop
         style="stop-opacity:1;stop-color:#212121"
         offset="1"
         id="stop50" /></linearGradient><clipPath
       clipPathUnits="userSpaceOnUse"
       id="clipPath62"><path
         d="M 42.948,37.49 35.657,44.781 30.709,34.333 22.301,32.161 52.656,1.805 c 14.416,2.209 22.01,8.946 24.915,22.341 v 0 L 49.123,52.594 Z"
         id="path60"
         inkscape:connector-curvature="0" /></clipPath><clipPath
       clipPathUnits="userSpaceOnUse"
       id="clipPath70"><path
         d="M -32768,32767 H 32767 V -32768 H -32768 Z"
         id="path68"
         inkscape:connector-curvature="0" /></clipPath><linearGradient
       x1="0"
       y1="0"
       x2="1"
       y2="0"
       gradientUnits="userSpaceOnUse"
       gradientTransform="matrix(35.278629,-35.278629,-35.278629,-35.278629,34.115036,43.974045)"
       spreadMethod="pad"
       id="linearGradient80"><stop
         style="stop-opacity:0.29999237;stop-color:#ffffff"
         offset="0"
         id="stop72" /><stop
         style="stop-opacity:0.29999237;stop-color:#ffffff"
         offset="0.0000001"
         id="stop74" /><stop
         style="stop-opacity:0;stop-color:#ffffff"
         offset="0.8"
         id="stop76" /><stop
         style="stop-opacity:0;stop-color:#ffffff"
         offset="1"
         id="stop78" /></linearGradient><mask
       maskUnits="userSpaceOnUse"
       x="0"
       y="0"
       width="1"
       height="1"
       id="mask82"><g
         id="g92"><g
           clip-path="url(#clipPath70)"
           id="g90"><g
             id="g88"><g
               id="g86"><path
                 d="M -32768,32767 H 32767 V -32768 H -32768 Z"
                 style="fill:url(#linearGradient80);stroke:none"
                 id="path84"
                 inkscape:connector-curvature="0" /></g></g></g></g></mask><linearGradient
       x1="0"
       y1="0"
       x2="1"
       y2="0"
       gradientUnits="userSpaceOnUse"
       gradientTransform="matrix(35.278629,-35.278629,-35.278629,-35.278629,34.115036,43.974045)"
       spreadMethod="pad"
       id="linearGradient106"><stop
         style="stop-opacity:1;stop-color:#000000"
         offset="0"
         id="stop98" /><stop
         style="stop-opacity:1;stop-color:#000000"
         offset="0.0000001"
         id="stop100" /><stop
         style="stop-opacity:1;stop-color:#000000"
         offset="0.8"
         id="stop102" /><stop
         style="stop-opacity:1;stop-color:#000000"
         offset="1"
         id="stop104" /></linearGradient><clipPath
       clipPathUnits="userSpaceOnUse"
       id="clipPath116"><path
         d="M 53.905,59.71 56.214,57.401 53.774,53.834 78.41,29.2 C 78.806,32.455 79,36.026 79,39.956 v 0 c 0,0.154 -0.005,0.299 -0.005,0.451 v 0 L 58.452,60.95 Z"
         id="path114"
         inkscape:connector-curvature="0" /></clipPath><clipPath
       clipPathUnits="userSpaceOnUse"
       id="clipPath124"><path
         d="M -32768,32767 H 32767 V -32768 H -32768 Z"
         id="path122"
         inkscape:connector-curvature="0" /></clipPath><linearGradient
       x1="0"
       y1="0"
       x2="1"
       y2="0"
       gradientUnits="userSpaceOnUse"
       gradientTransform="matrix(27.508758,-27.508758,-27.508758,-27.508758,53.84938,59.656021)"
       spreadMethod="pad"
       id="linearGradient134"><stop
         style="stop-opacity:0.14999619;stop-color:#ffffff"
         offset="0"
         id="stop126" /><stop
         style="stop-opacity:0.14999619;stop-color:#ffffff"
         offset="0.0000003"
         id="stop128" /><stop
         style="stop-opacity:0;stop-color:#ffffff"
         offset="0.75"
         id="stop130" /><stop
         style="stop-opacity:0;stop-color:#ffffff"
         offset="1"
         id="stop132" /></linearGradient><mask
       maskUnits="userSpaceOnUse"
       x="0"
       y="0"
       width="1"
       height="1"
       id="mask136"><g
         id="g146"><g
           clip-path="url(#clipPath124)"
           id="g144"><g
             id="g142"><g
               id="g140"><path
                 d="M -32768,32767 H 32767 V -32768 H -32768 Z"
                 style="fill:url(#linearGradient134);stroke:none"
                 id="path138"
                 inkscape:connector-curvature="0" /></g></g></g></g></mask><linearGradient
       x1="0"
       y1="0"
       x2="1"
       y2="0"
       gradientUnits="userSpaceOnUse"
       gradientTransform="matrix(27.508758,-27.508758,-27.508758,-27.508758,53.84938,59.656021)"
       spreadMethod="pad"
       id="linearGradient160"><stop
         style="stop-opacity:1;stop-color:#000000"
         offset="0"
         id="stop152" /><stop
         style="stop-opacity:1;stop-color:#000000"
         offset="0.0000003"
         id="stop154" /><stop
         style="stop-opacity:1;stop-color:#212121"
         offset="0.75"
         id="stop156" /><stop
         style="stop-opacity:1;stop-color:#212121"
         offset="1"
         id="stop158" /></linearGradient><clipPath
       clipPathUnits="userSpaceOnUse"
       id="clipPath170"><path
         d="M 60.068,63.096 61.379,61.785 59.99,59.57 78.993,40.568 c -0.013,2.61 -0.11,5.067 -0.299,7.374 v 0 L 62.796,63.84 Z"
         id="path168"
         inkscape:connector-curvature="0" /></clipPath><clipPath
       clipPathUnits="userSpaceOnUse"
       id="clipPath178"><path
         d="M -32768,32767 H 32767 V -32768 H -32768 Z"
         id="path176"
         inkscape:connector-curvature="0" /></clipPath><linearGradient
       x1="0"
       y1="0"
       x2="1"
       y2="0"
       gradientUnits="userSpaceOnUse"
       gradientTransform="matrix(20.727234,-20.727234,-20.727234,-20.727234,60.034683,63.063492)"
       spreadMethod="pad"
       id="linearGradient188"><stop
         style="stop-opacity:0.14999619;stop-color:#ffffff"
         offset="0"
         id="stop180" /><stop
         style="stop-opacity:0.14999619;stop-color:#ffffff"
         offset="0.0000003"
         id="stop182" /><stop
         style="stop-opacity:0;stop-color:#ffffff"
         offset="0.75"
         id="stop184" /><stop
         style="stop-opacity:0;stop-color:#ffffff"
         offset="1"
         id="stop186" /></linearGradient><mask
       maskUnits="userSpaceOnUse"
       x="0"
       y="0"
       width="1"
       height="1"
       id="mask190"><g
         id="g200"><g
           clip-path="url(#clipPath178)"
           id="g198"><g
             id="g196"><g
               id="g194"><path
                 d="M -32768,32767 H 32767 V -32768 H -32768 Z"
                 style="fill:url(#linearGradient188);stroke:none"
                 id="path192"
                 inkscape:connector-curvature="0" /></g></g></g></g></mask><linearGradient
       x1="0"
       y1="0"
       x2="1"
       y2="0"
       gradientUnits="userSpaceOnUse"
       gradientTransform="matrix(20.727234,-20.727234,-20.727234,-20.727234,60.034683,63.063492)"
       spreadMethod="pad"
       id="linearGradient214"><stop
         style="stop-opacity:1;stop-color:#000000"
         offset="0"
         id="stop206" /><stop
         style="stop-opacity:1;stop-color:#000000"
         offset="0.0000003"
         id="stop208" /><stop
         style="stop-opacity:1;stop-color:#212121"
         offset="0.75"
         id="stop210" /><stop
         style="stop-opacity:1;stop-color:#212121"
         offset="1"
         id="stop212" /></linearGradient><clipPath
       clipPathUnits="userSpaceOnUse"
       id="clipPath224"><path
         d="M 0,80 H 80 V 0 H 0 Z"
         id="path222"
         inkscape:connector-curvature="0" /></clipPath><clipPath
       clipPathUnits="userSpaceOnUse"
       id="clipPath244"><path
         d="M 0,80 H 80 V 0 H 0 Z"
         id="path242"
         inkscape:connector-curvature="0" /></clipPath><clipPath
       clipPathUnits="userSpaceOnUse"
       id="clipPath252"><path
         d="M 1.02344,79 H 78.9766 V 1 H 1.02344 Z"
         id="path250"
         inkscape:connector-curvature="0" /></clipPath><clipPath
       clipPathUnits="userSpaceOnUse"
       id="clipPath256"><path
         d="M 1.02344,79 H 78.9766 V 1 H 1.02344 Z"
         id="path254"
         inkscape:connector-curvature="0" /></clipPath><clipPath
       clipPathUnits="userSpaceOnUse"
       id="clipPath260"><path
         d="M 78.977,40 C 78.977,11.107 68.877,1 40,1 11.123,1 1.023,11.107 1.023,40 1.023,68.894 11.123,79 40,79 68.877,79 78.977,68.894 78.977,40"
         id="path258"
         inkscape:connector-curvature="0" /></clipPath><clipPath
       clipPathUnits="userSpaceOnUse"
       id="clipPath264"><path
         d="M -24534,24614 H 8232 V -8152 h -32766 z"
         id="path262"
         inkscape:connector-curvature="0" /></clipPath><clipPath
       clipPathUnits="userSpaceOnUse"
       id="clipPath268"><path
         d="M -24534,24614 H 8232 V -8152 h -32766 z"
         id="path266"
         inkscape:connector-curvature="0" /></clipPath><mask
       maskUnits="userSpaceOnUse"
       x="0"
       y="0"
       width="1"
       height="1"
       id="mask270"><g
         id="g282"><g
           clip-path="url(#clipPath264)"
           id="g280"><g
             id="g278"><g
               id="g272" /><g
               id="g276"><g
                 clip-path="url(#clipPath268)"
                 id="g274" /></g></g></g></g></mask><linearGradient
       x1="0"
       y1="0"
       x2="1"
       y2="0"
       gradientUnits="userSpaceOnUse"
       gradientTransform="matrix(0,-53.61993,-53.61993,0,40,74.818359)"
       spreadMethod="pad"
       id="linearGradient288"><stop
         style="stop-opacity:1;stop-color:#ffffff"
         offset="0"
         id="stop284" /><stop
         style="stop-opacity:1;stop-color:#e4e4e5"
         offset="1"
         id="stop286" /></linearGradient><mask
       maskUnits="userSpaceOnUse"
       x="0"
       y="0"
       width="1"
       height="1"
       id="mask290"><g
         id="g316"><g
           clip-path="url(#clipPath252)"
           id="g314"
           style="opacity:0.5"><g
             id="g312"><g
               id="g292" /><g
               id="g310"><g
                 clip-path="url(#clipPath256)"
                 id="g308"><g
                   id="g306"><g
                     clip-path="url(#clipPath260)"
                     id="g304"><g
                       id="g302"><g
                         id="g294" /><g
                         mask="url(#mask270)"
                         id="g300"><g
                           id="g298"><path
                             d="M 78.977,40 C 78.977,11.107 68.877,1 40,1 11.123,1 1.023,11.107 1.023,40 1.023,68.894 11.123,79 40,79 68.877,79 78.977,68.894 78.977,40"
                             style="fill:url(#linearGradient288);stroke:none"
                             id="path296"
                             inkscape:connector-curvature="0" /></g></g></g></g></g></g></g></g></g></g></mask><clipPath
       clipPathUnits="userSpaceOnUse"
       id="clipPath324"><path
         d="M 1.02344,79 H 78.9766 V 1 H 1.02344 Z"
         id="path322"
         inkscape:connector-curvature="0" /></clipPath><clipPath
       clipPathUnits="userSpaceOnUse"
       id="clipPath328"><path
         d="M 78.977,40 C 78.977,11.107 68.877,1 40,1 11.123,1 1.023,11.107 1.023,40 1.023,68.894 11.123,79 40,79 68.877,79 78.977,68.894 78.977,40"
         id="path326"
         inkscape:connector-curvature="0" /></clipPath><linearGradient
       x1="0"
       y1="0"
       x2="1"
       y2="0"
       gradientUnits="userSpaceOnUse"
       gradientTransform="matrix(0,-53.61993,-53.61993,0,40.000019,74.818184)"
       spreadMethod="pad"
       id="linearGradient334"><stop
         style="stop-opacity:1;stop-color:#ffffff"
         offset="0"
         id="stop330" /><stop
         style="stop-opacity:1;stop-color:#000000"
         offset="1"
         id="stop332" /></linearGradient><clipPath
       clipPathUnits="userSpaceOnUse"
       id="clipPath356"><path
         d="M 1,79 H 79 V 1 H 1 Z"
         id="path354"
         inkscape:connector-curvature="0" /></clipPath><clipPath
       clipPathUnits="userSpaceOnUse"
       id="clipPath360"><path
         d="M 1,79 H 79 V 1 H 1 Z"
         id="path358"
         inkscape:connector-curvature="0" /></clipPath><clipPath
       clipPathUnits="userSpaceOnUse"
       id="clipPath364"><path
         d="M -24534,24614 H 8232 V -8152 h -32766 z"
         id="path362"
         inkscape:connector-curvature="0" /></clipPath><clipPath
       clipPathUnits="userSpaceOnUse"
       id="clipPath368"><path
         d="M -24534,24614 H 8232 V -8152 h -32766 z"
         id="path366"
         inkscape:connector-curvature="0" /></clipPath><mask
       maskUnits="userSpaceOnUse"
       x="0"
       y="0"
       width="1"
       height="1"
       id="mask370"><g
         id="g382"><g
           clip-path="url(#clipPath364)"
           id="g380"><g
             id="g378"><g
               id="g372" /><g
               id="g376"><g
                 clip-path="url(#clipPath368)"
                 id="g374" /></g></g></g></g></mask><clipPath
       clipPathUnits="userSpaceOnUse"
       id="clipPath386"><path
         d="M 1,79 H 79 V 1 H 1 Z"
         id="path384"
         inkscape:connector-curvature="0" /></clipPath><clipPath
       clipPathUnits="userSpaceOnUse"
       id="clipPath390"><path
         d="M 39.999,1.975 C 11.57,1.975 1.976,11.57 1.976,40 c 0,28.429 9.594,38.024 38.023,38.024 28.43,0 38.024,-9.595 38.024,-38.024 0,-28.43 -9.594,-38.025 -38.024,-38.025 m 0,77.025 C 11.105,79 1,68.894 1,40 1,11.107 11.105,1 39.999,1 68.896,1 79,11.107 79,40 79,68.894 68.896,79 39.999,79"
         id="path388"
         inkscape:connector-curvature="0" /></clipPath><linearGradient
       x1="0"
       y1="0"
       x2="1"
       y2="0"
       gradientUnits="userSpaceOnUse"
       gradientTransform="matrix(0,-77.263527,-77.263527,0,40,78.75293)"
       spreadMethod="pad"
       id="linearGradient396"><stop
         style="stop-opacity:1;stop-color:#ffffff"
         offset="0"
         id="stop392" /><stop
         style="stop-opacity:1;stop-color:#231815"
         offset="1"
         id="stop394" /></linearGradient><mask
       maskUnits="userSpaceOnUse"
       x="0"
       y="0"
       width="1"
       height="1"
       id="mask398"><g
         id="g432"><g
           clip-path="url(#clipPath356)"
           id="g430"
           style="opacity:0.25"><g
             id="g428"><g
               id="g400" /><g
               id="g426"><g
                 clip-path="url(#clipPath360)"
                 id="g424"><g
                   id="g422"><g
                     id="g402" /><g
                     mask="url(#mask370)"
                     id="g420"><g
                       id="g404" /><g
                       id="g418"><g
                         clip-path="url(#clipPath386)"
                         id="g416"><g
                           id="g414"><g
                             clip-path="url(#clipPath390)"
                             id="g412"><g
                               id="g410"><g
                                 id="g408"><path
                                   d="M 39.999,1.975 C 11.57,1.975 1.976,11.57 1.976,40 c 0,28.429 9.594,38.024 38.023,38.024 28.43,0 38.024,-9.595 38.024,-38.024 0,-28.43 -9.594,-38.025 -38.024,-38.025 m 0,77.025 C 11.105,79 1,68.894 1,40 1,11.107 11.105,1 39.999,1 68.896,1 79,11.107 79,40 79,68.894 68.896,79 39.999,79"
                                   style="fill:url(#linearGradient396);stroke:none"
                                   id="path406"
                                   inkscape:connector-curvature="0" /></g></g></g></g></g></g></g></g></g></g></g></g></g></mask><clipPath
       clipPathUnits="userSpaceOnUse"
       id="clipPath440"><path
         d="M 1,79 H 79 V 1 H 1 Z"
         id="path438"
         inkscape:connector-curvature="0" /></clipPath><clipPath
       clipPathUnits="userSpaceOnUse"
       id="clipPath444"><path
         d="M 39.999,1.975 C 11.57,1.975 1.976,11.57 1.976,40 c 0,28.429 9.594,38.024 38.023,38.024 28.43,0 38.024,-9.595 38.024,-38.024 0,-28.43 -9.594,-38.025 -38.024,-38.025 m 0,77.025 C 11.105,79 1,68.894 1,40 1,11.107 11.105,1 39.999,1 68.896,1 79,11.107 79,40 79,68.894 68.896,79 39.999,79"
         id="path442"
         inkscape:connector-curvature="0" /></clipPath><linearGradient
       x1="0"
       y1="0"
       x2="1"
       y2="0"
       gradientUnits="userSpaceOnUse"
       gradientTransform="matrix(0,-77.263527,-77.263527,0,40,78.753128)"
       spreadMethod="pad"
       id="linearGradient450"><stop
         style="stop-opacity:1;stop-color:#ffffff"
         offset="0"
         id="stop446" /><stop
         style="stop-opacity:1;stop-color:#ffffff"
         offset="1"
         id="stop448" /></linearGradient></defs><sodipodi:namedview
     pagecolor="#ffffff"
     bordercolor="#666666"
     borderopacity="1"
     objecttolerance="10"
     gridtolerance="10"
     guidetolerance="10"
     inkscape:pageopacity="0"
     inkscape:pageshadow="2"
     inkscape:window-width="1366"
     inkscape:window-height="706"
     id="namedview4"
     showgrid="false"
     inkscape:zoom="2.2124999"
     inkscape:cx="53.333336"
     inkscape:cy="53.333336"
     inkscape:window-x="0"
     inkscape:window-y="34"
     inkscape:window-maximized="1"
     inkscape:current-layer="g10" /><g
     id="g10"
     inkscape:groupmode="layer"
     inkscape:label="HRITBN"
     transform="matrix(1.3333333,0,0,-1.3333333,0,106.66667)"><g
       id="g12"
       transform="matrix(0.97115387,0,0,0.97060635,1.2788462,1.322099)"><g
         id="g14"
         clip-path="url(#clipPath18)"><g
           id="g20"><g
             id="g22"><path
               d="m 1,39.956 c 0,-28.892 10.105,-39 39,-39 v 0 c 28.894,0 39,10.108 39,39 v 0 c 0,28.894 -10.106,39 -39,39 v 0 c -28.895,0 -39,-10.106 -39,-39"
               style="fill:url(#linearGradient30);stroke:none"
               id="path32"
               inkscape:connector-curvature="0" /></g></g></g></g><g
       id="g34"
       transform="matrix(0.97115387,0,0,0.97060635,1.2788462,1.322099)"><g
         id="g36"
         clip-path="url(#clipPath40)"><g
           id="g42"><g
             id="g44"><path
               d="m 1,39.956 c 0,-28.892 10.105,-39 39,-39 v 0 c 28.894,0 39,10.108 39,39 v 0 c 0,28.894 -10.106,39 -39,39 v 0 c -28.895,0 -39,-10.106 -39,-39"
               style="fill:url(#linearGradient52);stroke:none"
               id="path54"
               inkscape:connector-curvature="0" /></g></g></g></g><g
       id="g238"
       transform="matrix(0.97115387,0,0,0.97060635,1.2788462,1.322099)"><g
         id="g240"
         clip-path="url(#clipPath244)"><g
           id="g246"><g
             id="g248" /><g
             id="g318"
             mask="url(#mask290)"><g
               id="g320" /><g
               id="g348"><g
                 clip-path="url(#clipPath324)"
                 id="g346"
                 style="opacity:0.5"><g
                   id="g344"><g
                     clip-path="url(#clipPath328)"
                     id="g342"><g
                       id="g340"><g
                         id="g338"><path
                           d="M 78.977,40 C 78.977,11.107 68.877,1 40,1 11.123,1 1.023,11.107 1.023,40 1.023,68.894 11.123,79 40,79 68.877,79 78.977,68.894 78.977,40"
                           style="fill:url(#linearGradient334);stroke:none"
                           id="path336"
                           inkscape:connector-curvature="0" /></g></g></g></g></g></g></g></g><g
           id="g350"><g
             id="g352" /><g
             id="g434"
             mask="url(#mask398)"><g
               id="g436" /><g
               id="g464"><g
                 clip-path="url(#clipPath440)"
                 id="g462"
                 style="opacity:0.25"><g
                   id="g460"><g
                     clip-path="url(#clipPath444)"
                     id="g458"><g
                       id="g456"><g
                         id="g454"><path
                           d="M 39.999,1.975 C 11.57,1.975 1.976,11.57 1.976,40 c 0,28.429 9.594,38.024 38.023,38.024 28.43,0 38.024,-9.595 38.024,-38.024 0,-28.43 -9.594,-38.025 -38.024,-38.025 m 0,77.025 C 11.105,79 1,68.894 1,40 1,11.107 11.105,1 39.999,1 68.896,1 79,11.107 79,40 79,68.894 68.896,79 39.999,79"
                           style="fill:url(#linearGradient450);stroke:none"
                           id="path452"
                           inkscape:connector-curvature="0" /></g></g></g></g></g></g></g></g></g></g></g></svg>