<?xml version="1.0" encoding="UTF-8" standalone="no"?>
<!-- Created with Inkscape (http://www.inkscape.org/) -->

<svg
   xmlns:dc="http://purl.org/dc/elements/1.1/"
   xmlns:cc="http://creativecommons.org/ns#"
   xmlns:rdf="http://www.w3.org/1999/02/22-rdf-syntax-ns#"
   xmlns:svg="http://www.w3.org/2000/svg"
   xmlns="http://www.w3.org/2000/svg"
   xmlns:sodipodi="http://sodipodi.sourceforge.net/DTD/sodipodi-0.dtd"
   xmlns:inkscape="http://www.inkscape.org/namespaces/inkscape"
   version="1.1"
   id="svg2"
   xml:space="preserve"
   width="133.33333"
   height="133.33333"
   viewBox="0 0 133.33333 133.33333"
   sodipodi:docname="overlay12.svg"
   inkscape:version="0.92.2 2405546, 2018-03-11"><metadata
     id="metadata8"><rdf:RDF><cc:Work
         rdf:about=""><dc:format>image/svg+xml</dc:format><dc:type
           rdf:resource="http://purl.org/dc/dcmitype/StillImage" /><dc:title /></cc:Work></rdf:RDF></metadata><defs
     id="defs6"><clipPath
       clipPathUnits="userSpaceOnUse"
       id="clipPath18"><path
         d="M 50,100 C 12.956,100 0,87.039 0,50 v 0 C 0,12.961 12.956,0 50,0 v 0 c 37.045,0 50,12.961 50,50 v 0 c 0,37.044 -12.955,50 -50,50 z"
         id="path16"
         inkscape:connector-curvature="0" /></clipPath><linearGradient
       x1="0"
       y1="0"
       x2="1"
       y2="0"
       gradientUnits="userSpaceOnUse"
       gradientTransform="matrix(77.78125,-77.78125,-77.78125,-77.78125,11.109896,88.891144)"
       spreadMethod="pad"
       id="linearGradient30"><stop
         style="stop-opacity:1;stop-color:#82e0fe"
         offset="0"
         id="stop24" /><stop
         style="stop-opacity:1;stop-color:#82e0fe"
         offset="0.00000028"
         id="stop26" /><stop
         style="stop-opacity:1;stop-color:#4e90eb"
         offset="1"
         id="stop28" /></linearGradient><clipPath
       clipPathUnits="userSpaceOnUse"
       id="clipPath40"><path
         d="M 0,100 H 100 V 0 H 0 Z"
         id="path38"
         inkscape:connector-curvature="0" /></clipPath><clipPath
       clipPathUnits="userSpaceOnUse"
       id="clipPath48"><path
         d="M 8.05571,91.9498 H 91.9475 V 8.05249 H 8.05571 Z"
         id="path46"
         inkscape:connector-curvature="0" /></clipPath><clipPath
       clipPathUnits="userSpaceOnUse"
       id="clipPath64"><path
         d="m 36.028,20.762 8.089,-8.089 c 0.785,-0.047 1.583,-0.086 2.403,-0.114 v 0 l 2.17,-3.75 c 0.58,-1.01 2.04,-1.01 2.62,0 v 0 l 2.171,3.75 C 77.46,13.34 86.66,22.54 87.44,46.519 v 0 l 3.751,2.171 c 1.01,0.58 1.01,2.04 0,2.62 v 0 l -3.751,2.17 c -0.061,1.857 -0.179,3.616 -0.342,5.298 v 0 l -20.46,20.461 z"
         id="path62"
         inkscape:connector-curvature="0" /></clipPath><clipPath
       clipPathUnits="userSpaceOnUse"
       id="clipPath72"><path
         d="M -32768,32767 H 32767 V -32768 H -32768 Z"
         id="path70"
         inkscape:connector-curvature="0" /></clipPath><linearGradient
       x1="0"
       y1="0"
       x2="1"
       y2="0"
       gradientUnits="userSpaceOnUse"
       gradientTransform="matrix(35.460064,-35.460064,-35.460064,-35.460064,44.366516,56.966675)"
       spreadMethod="pad"
       id="linearGradient80"><stop
         style="stop-opacity:0.07998779;stop-color:#ffffff"
         offset="0"
         id="stop74" /><stop
         style="stop-opacity:0.07998779;stop-color:#ffffff"
         offset="0.00000007"
         id="stop76" /><stop
         style="stop-opacity:0;stop-color:#ffffff"
         offset="1"
         id="stop78" /></linearGradient><mask
       maskUnits="userSpaceOnUse"
       x="0"
       y="0"
       width="1"
       height="1"
       id="mask82"><g
         id="g92"><g
           clip-path="url(#clipPath72)"
           id="g90"><g
             id="g88"><g
               id="g86"><path
                 d="M -32768,32767 H 32767 V -32768 H -32768 Z"
                 style="fill:url(#linearGradient80);stroke:none"
                 id="path84"
                 inkscape:connector-curvature="0" /></g></g></g></g></mask><linearGradient
       x1="0"
       y1="0"
       x2="1"
       y2="0"
       gradientUnits="userSpaceOnUse"
       gradientTransform="matrix(35.460064,-35.460064,-35.460064,-35.460064,44.366516,56.966675)"
       spreadMethod="pad"
       id="linearGradient104"><stop
         style="stop-opacity:1;stop-color:#000000"
         offset="0"
         id="stop98" /><stop
         style="stop-opacity:1;stop-color:#000000"
         offset="0.00000007"
         id="stop100" /><stop
         style="stop-opacity:1;stop-color:#000000"
         offset="1"
         id="stop102" /></linearGradient><clipPath
       clipPathUnits="userSpaceOnUse"
       id="clipPath114"><path
         d="M 0,100 H 100 V 0 H 0 Z"
         id="path112"
         inkscape:connector-curvature="0" /></clipPath><clipPath
       clipPathUnits="userSpaceOnUse"
       id="clipPath126"><path
         d="M 35.6756,53.0921 H 57.4269 V 20.3766 H 35.6756 Z"
         id="path124"
         inkscape:connector-curvature="0" /></clipPath><clipPath
       clipPathUnits="userSpaceOnUse"
       id="clipPath142"><path
         d="M 8.574,48.856 8.48,48.95 C 8.509,48.917 8.541,48.886 8.574,48.856 M 12.63,44.8 c -0.03,0.56 -0.05,1.141 -0.07,1.719 v 0 L 8.81,48.69 c -0.087,0.047 -0.166,0.103 -0.236,0.166 v 0 z"
         id="path140"
         inkscape:connector-curvature="0" /></clipPath><clipPath
       clipPathUnits="userSpaceOnUse"
       id="clipPath150"><path
         d="M -32768,32767 H 32767 V -32768 H -32768 Z"
         id="path148"
         inkscape:connector-curvature="0" /></clipPath><linearGradient
       x1="0"
       y1="0"
       x2="1"
       y2="0"
       gradientUnits="userSpaceOnUse"
       gradientTransform="matrix(4.1500244,-4.1500244,-4.1500244,-4.1500244,8.8918772,49.361908)"
       spreadMethod="pad"
       id="linearGradient158"><stop
         style="stop-opacity:0.07998779;stop-color:#ffffff"
         offset="0"
         id="stop152" /><stop
         style="stop-opacity:0.07998779;stop-color:#ffffff"
         offset="0.00000007"
         id="stop154" /><stop
         style="stop-opacity:0;stop-color:#ffffff"
         offset="1"
         id="stop156" /></linearGradient><mask
       maskUnits="userSpaceOnUse"
       x="0"
       y="0"
       width="1"
       height="1"
       id="mask160"><g
         id="g170"><g
           clip-path="url(#clipPath150)"
           id="g168"><g
             id="g166"><g
               id="g164"><path
                 d="M -32768,32767 H 32767 V -32768 H -32768 Z"
                 style="fill:url(#linearGradient158);stroke:none"
                 id="path162"
                 inkscape:connector-curvature="0" /></g></g></g></g></mask><linearGradient
       x1="0"
       y1="0"
       x2="1"
       y2="0"
       gradientUnits="userSpaceOnUse"
       gradientTransform="matrix(4.1500244,-4.1500244,-4.1500244,-4.1500244,8.8918772,49.361908)"
       spreadMethod="pad"
       id="linearGradient182"><stop
         style="stop-opacity:1;stop-color:#000000"
         offset="0"
         id="stop176" /><stop
         style="stop-opacity:1;stop-color:#000000"
         offset="0.00000007"
         id="stop178" /><stop
         style="stop-opacity:1;stop-color:#000000"
         offset="1"
         id="stop180" /></linearGradient><clipPath
       clipPathUnits="userSpaceOnUse"
       id="clipPath192"><path
         d="m 51.137,91.433 c -0.025,0.027 -0.05,0.053 -0.077,0.077 v 0 z M 51.31,91.19 53.481,87.439 C 54.07,87.42 54.64,87.4 55.21,87.37 v 0 l -4.073,4.063 c 0.066,-0.073 0.122,-0.155 0.173,-0.243"
         id="path190"
         inkscape:connector-curvature="0" /></clipPath><clipPath
       clipPathUnits="userSpaceOnUse"
       id="clipPath200"><path
         d="M -32768,32767 H 32767 V -32768 H -32768 Z"
         id="path198"
         inkscape:connector-curvature="0" /></clipPath><linearGradient
       x1="0"
       y1="0"
       x2="1"
       y2="0"
       gradientUnits="userSpaceOnUse"
       gradientTransform="matrix(4.1450195,-4.1450195,-4.1450195,-4.1450195,50.649994,91.100006)"
       spreadMethod="pad"
       id="linearGradient208"><stop
         style="stop-opacity:0.07998779;stop-color:#ffffff"
         offset="0"
         id="stop202" /><stop
         style="stop-opacity:0.07998779;stop-color:#ffffff"
         offset="0.00000007"
         id="stop204" /><stop
         style="stop-opacity:0;stop-color:#ffffff"
         offset="1"
         id="stop206" /></linearGradient><mask
       maskUnits="userSpaceOnUse"
       x="0"
       y="0"
       width="1"
       height="1"
       id="mask210"><g
         id="g220"><g
           clip-path="url(#clipPath200)"
           id="g218"><g
             id="g216"><g
               id="g214"><path
                 d="M -32768,32767 H 32767 V -32768 H -32768 Z"
                 style="fill:url(#linearGradient208);stroke:none"
                 id="path212"
                 inkscape:connector-curvature="0" /></g></g></g></g></mask><linearGradient
       x1="0"
       y1="0"
       x2="1"
       y2="0"
       gradientUnits="userSpaceOnUse"
       gradientTransform="matrix(4.1450195,-4.1450195,-4.1450195,-4.1450195,50.649994,91.100006)"
       spreadMethod="pad"
       id="linearGradient232"><stop
         style="stop-opacity:1;stop-color:#000000"
         offset="0"
         id="stop226" /><stop
         style="stop-opacity:1;stop-color:#000000"
         offset="0.00000007"
         id="stop228" /><stop
         style="stop-opacity:1;stop-color:#000000"
         offset="1"
         id="stop230" /></linearGradient><clipPath
       clipPathUnits="userSpaceOnUse"
       id="clipPath242"><path
         d="m 87.44,53.48 3.751,-2.17 c 1.01,-0.58 1.01,-2.04 0,-2.62 v 0 L 87.44,46.519 C 86.66,22.54 77.46,13.34 53.481,12.559 v 0 L 51.31,8.809 c -0.58,-1.01 -2.04,-1.01 -2.62,0 v 0 l -2.17,3.75 C 34.9,12.94 26.76,15.29 21.35,20.34 v 0 L 41.41,0.28 C 44.12,0.1 46.97,0 50,0 v 0 c 37.04,0 50,12.96 50,50 v 0 c 0,3.031 -0.1,5.88 -0.28,8.59 v 0 L 79.66,78.65 c 5.05,-5.41 7.4,-13.55 7.78,-25.17"
         id="path240"
         inkscape:connector-curvature="0" /></clipPath><clipPath
       clipPathUnits="userSpaceOnUse"
       id="clipPath250"><path
         d="M -32768,32767 H 32767 V -32768 H -32768 Z"
         id="path248"
         inkscape:connector-curvature="0" /></clipPath><linearGradient
       x1="0"
       y1="0"
       x2="1"
       y2="0"
       gradientUnits="userSpaceOnUse"
       gradientTransform="matrix(38.385017,-38.385017,-38.385017,-38.385017,50.504974,49.495026)"
       spreadMethod="pad"
       id="linearGradient258"><stop
         style="stop-opacity:0.07998779;stop-color:#ffffff"
         offset="0"
         id="stop252" /><stop
         style="stop-opacity:0.07998779;stop-color:#ffffff"
         offset="0.00000007"
         id="stop254" /><stop
         style="stop-opacity:0;stop-color:#ffffff"
         offset="1"
         id="stop256" /></linearGradient><mask
       maskUnits="userSpaceOnUse"
       x="0"
       y="0"
       width="1"
       height="1"
       id="mask260"><g
         id="g270"><g
           clip-path="url(#clipPath250)"
           id="g268"><g
             id="g266"><g
               id="g264"><path
                 d="M -32768,32767 H 32767 V -32768 H -32768 Z"
                 style="fill:url(#linearGradient258);stroke:none"
                 id="path262"
                 inkscape:connector-curvature="0" /></g></g></g></g></mask><linearGradient
       x1="0"
       y1="0"
       x2="1"
       y2="0"
       gradientUnits="userSpaceOnUse"
       gradientTransform="matrix(38.385017,-38.385017,-38.385017,-38.385017,50.504974,49.495026)"
       spreadMethod="pad"
       id="linearGradient282"><stop
         style="stop-opacity:1;stop-color:#000000"
         offset="0"
         id="stop276" /><stop
         style="stop-opacity:1;stop-color:#000000"
         offset="0.00000007"
         id="stop278" /><stop
         style="stop-opacity:1;stop-color:#000000"
         offset="1"
         id="stop280" /></linearGradient></defs><sodipodi:namedview
     pagecolor="#ffffff"
     bordercolor="#666666"
     borderopacity="1"
     objecttolerance="10"
     gridtolerance="10"
     guidetolerance="10"
     inkscape:pageopacity="0"
     inkscape:pageshadow="2"
     inkscape:window-width="1366"
     inkscape:window-height="706"
     id="namedview4"
     showgrid="false"
     inkscape:zoom="1.7700001"
     inkscape:cx="66.666665"
     inkscape:cy="66.666665"
     inkscape:window-x="0"
     inkscape:window-y="34"
     inkscape:window-maximized="1"
     inkscape:current-layer="g10" /><g
     id="g10"
     inkscape:groupmode="layer"
     inkscape:label="jollacompass"
     transform="matrix(1.3333333,0,0,-1.3333333,0,133.33333)"><g
       id="g12"
       transform="matrix(0.93750002,0,0,0.93750002,3.0000001,3.0000014)"><g
         id="g14"
         clip-path="url(#clipPath18)"><g
           id="g20"><g
             id="g22"><path
               d="M 50,100 C 12.956,100 0,87.039 0,50 v 0 C 0,12.961 12.956,0 50,0 v 0 c 37.045,0 50,12.961 50,50 v 0 c 0,37.044 -12.955,50 -50,50 z"
               style="fill:url(#linearGradient30);stroke:none"
               id="path32"
               inkscape:connector-curvature="0" /></g></g></g></g><g
       id="g136"
       transform="matrix(0.93750002,0,0,0.93750002,3.0000001,3.0000014)"><g
         id="g138"
         clip-path="url(#clipPath142)"><g
           id="g144"><g
             id="g146" /><g
             id="g172"
             mask="url(#mask160)"><g
               id="g174"><path
                 d="M 8.574,48.856 8.48,48.95 C 8.509,48.917 8.541,48.886 8.574,48.856 M 12.63,44.8 c -0.03,0.56 -0.05,1.141 -0.07,1.719 v 0 L 8.81,48.69 c -0.087,0.047 -0.166,0.103 -0.236,0.166 v 0 z"
                 style="fill:url(#linearGradient182);stroke:none"
                 id="path184"
                 inkscape:connector-curvature="0" /></g></g></g></g></g><g
       id="g186"
       transform="matrix(0.93750002,0,0,0.93750002,3.0000001,3.0000014)"><g
         id="g188"
         clip-path="url(#clipPath192)"><g
           id="g194"><g
             id="g196" /><g
             id="g222"
             mask="url(#mask210)"><g
               id="g224"><path
                 d="m 51.137,91.433 c -0.025,0.027 -0.05,0.053 -0.077,0.077 v 0 z M 51.31,91.19 53.481,87.439 C 54.07,87.42 54.64,87.4 55.21,87.37 v 0 l -4.073,4.063 c 0.066,-0.073 0.122,-0.155 0.173,-0.243"
                 style="fill:url(#linearGradient232);stroke:none"
                 id="path234"
                 inkscape:connector-curvature="0" /></g></g></g></g></g></g></svg>