<?xml version="1.0" encoding="UTF-8" standalone="no"?>
<!-- Created with Inkscape (http://www.inkscape.org/) -->

<svg
   xmlns:dc="http://purl.org/dc/elements/1.1/"
   xmlns:cc="http://creativecommons.org/ns#"
   xmlns:rdf="http://www.w3.org/1999/02/22-rdf-syntax-ns#"
   xmlns:svg="http://www.w3.org/2000/svg"
   xmlns="http://www.w3.org/2000/svg"
   xmlns:sodipodi="http://sodipodi.sourceforge.net/DTD/sodipodi-0.dtd"
   xmlns:inkscape="http://www.inkscape.org/namespaces/inkscape"
   version="1.1"
   id="svg2"
   xml:space="preserve"
   width="133.33333"
   height="133.33333"
   viewBox="0 0 133.33333 133.33333"
   sodipodi:docname="overlay18.svg"
   inkscape:version="0.92.2 2405546, 2018-03-11"><metadata
     id="metadata8"><rdf:RDF><cc:Work
         rdf:about=""><dc:format>image/svg+xml</dc:format><dc:type
           rdf:resource="http://purl.org/dc/dcmitype/StillImage" /><dc:title /></cc:Work></rdf:RDF></metadata><defs
     id="defs6"><clipPath
       clipPathUnits="userSpaceOnUse"
       id="clipPath18"><path
         d="M 50,100 C 12.956,100 0,87.039 0,50 v 0 C 0,12.961 12.956,0 50,0 v 0 c 37.045,0 50,12.961 50,50 v 0 c 0,37.044 -12.955,50 -50,50 z"
         id="path16"
         inkscape:connector-curvature="0" /></clipPath><linearGradient
       x1="0"
       y1="0"
       x2="1"
       y2="0"
       gradientUnits="userSpaceOnUse"
       gradientTransform="matrix(77.78125,-77.78125,-77.78125,-77.78125,11.109896,88.891144)"
       spreadMethod="pad"
       id="linearGradient32"><stop
         style="stop-opacity:1;stop-color:#fccb5b"
         offset="0"
         id="stop24" /><stop
         style="stop-opacity:1;stop-color:#fccb5b"
         offset="0.00000018"
         id="stop26" /><stop
         style="stop-opacity:1;stop-color:#f5aa31"
         offset="1"
         id="stop28" /><stop
         style="stop-opacity:1;stop-color:#f5aa31"
         offset="1"
         id="stop30" /></linearGradient><clipPath
       clipPathUnits="userSpaceOnUse"
       id="clipPath42"><path
         d="M 73.741,74.72 C 79.01,69.85 81.17,61.93 81.17,50 v 0 C 81.17,26.91 73.09,18.83 50,18.83 v 0 c -11.13,0 -18.78,1.88 -23.7,6.42 v 0 L 20.72,20.831 41.27,0.28 C 44.02,0.1 46.92,0 50,0 v 0 c 37.04,0 50,12.96 50,50 v 0 c 0,3.08 -0.1,5.98 -0.28,8.73 v 0 L 79.28,79.17 Z"
         id="path40"
         inkscape:connector-curvature="0" /></clipPath><clipPath
       clipPathUnits="userSpaceOnUse"
       id="clipPath50"><path
         d="M -32768,32767 H 32767 V -32768 H -32768 Z"
         id="path48"
         inkscape:connector-curvature="0" /></clipPath><linearGradient
       x1="0"
       y1="0"
       x2="1"
       y2="0"
       gradientUnits="userSpaceOnUse"
       gradientTransform="matrix(39.380012,-39.380012,-39.380012,-39.380012,49.509994,50.490036)"
       spreadMethod="pad"
       id="linearGradient60"><stop
         style="stop-opacity:0.07998779;stop-color:#ffffff"
         offset="0"
         id="stop52" /><stop
         style="stop-opacity:0.07998779;stop-color:#ffffff"
         offset="0.00000018"
         id="stop54" /><stop
         style="stop-opacity:0;stop-color:#ffffff"
         offset="1"
         id="stop56" /><stop
         style="stop-opacity:0;stop-color:#ffffff"
         offset="1"
         id="stop58" /></linearGradient><mask
       maskUnits="userSpaceOnUse"
       x="0"
       y="0"
       width="1"
       height="1"
       id="mask62"><g
         id="g72"><g
           clip-path="url(#clipPath50)"
           id="g70"><g
             id="g68"><g
               id="g66"><path
                 d="M -32768,32767 H 32767 V -32768 H -32768 Z"
                 style="fill:url(#linearGradient60);stroke:none"
                 id="path64"
                 inkscape:connector-curvature="0" /></g></g></g></g></mask><linearGradient
       x1="0"
       y1="0"
       x2="1"
       y2="0"
       gradientUnits="userSpaceOnUse"
       gradientTransform="matrix(39.380012,-39.380012,-39.380012,-39.380012,49.509994,50.490036)"
       spreadMethod="pad"
       id="linearGradient86"><stop
         style="stop-opacity:1;stop-color:#000000"
         offset="0"
         id="stop78" /><stop
         style="stop-opacity:1;stop-color:#000000"
         offset="0.00000018"
         id="stop80" /><stop
         style="stop-opacity:1;stop-color:#000000"
         offset="1"
         id="stop82" /><stop
         style="stop-opacity:1;stop-color:#000000"
         offset="1"
         id="stop84" /></linearGradient><clipPath
       clipPathUnits="userSpaceOnUse"
       id="clipPath96"><path
         d="M 0,100 H 100 V 0 H 0 Z"
         id="path94"
         inkscape:connector-curvature="0" /></clipPath><clipPath
       clipPathUnits="userSpaceOnUse"
       id="clipPath104"><path
         d="M 18.83,81.17 H 81.17 V 18.83 H 18.83 Z"
         id="path102"
         inkscape:connector-curvature="0" /></clipPath></defs><sodipodi:namedview
     pagecolor="#ffffff"
     bordercolor="#666666"
     borderopacity="1"
     objecttolerance="10"
     gridtolerance="10"
     guidetolerance="10"
     inkscape:pageopacity="0"
     inkscape:pageshadow="2"
     inkscape:window-width="1366"
     inkscape:window-height="706"
     id="namedview4"
     showgrid="false"
     inkscape:zoom="1.7700001"
     inkscape:cx="66.666665"
     inkscape:cy="66.666665"
     inkscape:window-x="0"
     inkscape:window-y="34"
     inkscape:window-maximized="1"
     inkscape:current-layer="g10" /><g
     id="g10"
     inkscape:groupmode="layer"
     inkscape:label="shoutcast sailfish"
     transform="matrix(1.3333333,0,0,-1.3333333,0,133.33333)"><g
       id="g12"
       transform="matrix(0.93750002,0,0,0.93750002,3.0000001,3.0000014)"><g
         id="g14"
         clip-path="url(#clipPath18)"><g
           id="g20"><g
             id="g22"><path
               d="M 50,100 C 12.956,100 0,87.039 0,50 v 0 C 0,12.961 12.956,0 50,0 v 0 c 37.045,0 50,12.961 50,50 v 0 c 0,37.044 -12.955,50 -50,50 z"
               style="fill:url(#linearGradient32);stroke:none"
               id="path34"
               inkscape:connector-curvature="0" /></g></g></g></g></g></svg>