<?xml version="1.0" encoding="UTF-8" standalone="no"?>
<!-- Created with Inkscape (http://www.inkscape.org/) -->

<svg
   xmlns:dc="http://purl.org/dc/elements/1.1/"
   xmlns:cc="http://creativecommons.org/ns#"
   xmlns:rdf="http://www.w3.org/1999/02/22-rdf-syntax-ns#"
   xmlns:svg="http://www.w3.org/2000/svg"
   xmlns="http://www.w3.org/2000/svg"
   xmlns:sodipodi="http://sodipodi.sourceforge.net/DTD/sodipodi-0.dtd"
   xmlns:inkscape="http://www.inkscape.org/namespaces/inkscape"
   version="1.1"
   id="svg2"
   xml:space="preserve"
   width="133.33333"
   height="133.33333"
   viewBox="0 0 133.33333 133.33333"
   sodipodi:docname="overlay13.svg"
   inkscape:version="0.92.2 2405546, 2018-03-11"><metadata
     id="metadata8"><rdf:RDF><cc:Work
         rdf:about=""><dc:format>image/svg+xml</dc:format><dc:type
           rdf:resource="http://purl.org/dc/dcmitype/StillImage" /><dc:title /></cc:Work></rdf:RDF></metadata><defs
     id="defs6"><clipPath
       clipPathUnits="userSpaceOnUse"
       id="clipPath18"><path
         d="M 50,100 C 12.956,100 0,87.039 0,50 v 0 C 0,12.961 12.956,0 50,0 v 0 c 37.045,0 50,12.961 50,50 v 0 c 0,37.044 -12.955,50 -50,50 z"
         id="path16"
         inkscape:connector-curvature="0" /></clipPath><linearGradient
       x1="0"
       y1="0"
       x2="1"
       y2="0"
       gradientUnits="userSpaceOnUse"
       gradientTransform="matrix(77.78125,-77.78125,-77.78125,-77.78125,11.109896,88.891144)"
       spreadMethod="pad"
       id="linearGradient32"><stop
         style="stop-opacity:1;stop-color:#ff9b6f"
         offset="0"
         id="stop24" /><stop
         style="stop-opacity:1;stop-color:#ff9b6f"
         offset="0.00000039"
         id="stop26" /><stop
         style="stop-opacity:1;stop-color:#f24242"
         offset="1"
         id="stop28" /><stop
         style="stop-opacity:1;stop-color:#f24242"
         offset="1"
         id="stop30" /></linearGradient><clipPath
       clipPathUnits="userSpaceOnUse"
       id="clipPath42"><path
         d="M 68.25,69.88 V 64 h 6.059 c 3.011,0 5.441,-2.43 5.441,-5.44 v 0 -28.251 c 0,-2.999 -2.43,-5.429 -5.441,-5.429 v 0 H 25.69 c -1.51,0 -2.87,0.61 -3.851,1.59 v 0 L 48.29,0.02 C 48.86,0.01 49.42,0 50,0 v 0 c 34.21,0 47.87,11.07 49.76,41.94 v 0 L 66.01,75.68 c 1.39,-1.53 2.24,-3.57 2.24,-5.8"
         id="path40"
         inkscape:connector-curvature="0" /></clipPath><clipPath
       clipPathUnits="userSpaceOnUse"
       id="clipPath50"><path
         d="M -32768,32767 H 32767 V -32768 H -32768 Z"
         id="path48"
         inkscape:connector-curvature="0" /></clipPath><linearGradient
       x1="0"
       y1="0"
       x2="1"
       y2="0"
       gradientUnits="userSpaceOnUse"
       gradientTransform="matrix(43.71851,-43.71851,-43.71851,-43.71851,42.667511,52.337494)"
       spreadMethod="pad"
       id="linearGradient60"><stop
         style="stop-opacity:0.11999695;stop-color:#ffffff"
         offset="0"
         id="stop52" /><stop
         style="stop-opacity:0.11999695;stop-color:#ffffff"
         offset="0.00000039"
         id="stop54" /><stop
         style="stop-opacity:0;stop-color:#ffffff"
         offset="1"
         id="stop56" /><stop
         style="stop-opacity:0;stop-color:#ffffff"
         offset="1"
         id="stop58" /></linearGradient><mask
       maskUnits="userSpaceOnUse"
       x="0"
       y="0"
       width="1"
       height="1"
       id="mask62"><g
         id="g72"><g
           clip-path="url(#clipPath50)"
           id="g70"><g
             id="g68"><g
               id="g66"><path
                 d="M -32768,32767 H 32767 V -32768 H -32768 Z"
                 style="fill:url(#linearGradient60);stroke:none"
                 id="path64"
                 inkscape:connector-curvature="0" /></g></g></g></g></mask><linearGradient
       x1="0"
       y1="0"
       x2="1"
       y2="0"
       gradientUnits="userSpaceOnUse"
       gradientTransform="matrix(43.71851,-43.71851,-43.71851,-43.71851,42.667511,52.337494)"
       spreadMethod="pad"
       id="linearGradient86"><stop
         style="stop-opacity:1;stop-color:#000000"
         offset="0"
         id="stop78" /><stop
         style="stop-opacity:1;stop-color:#000000"
         offset="0.00000039"
         id="stop80" /><stop
         style="stop-opacity:1;stop-color:#000000"
         offset="1"
         id="stop82" /><stop
         style="stop-opacity:1;stop-color:#000000"
         offset="1"
         id="stop84" /></linearGradient><clipPath
       clipPathUnits="userSpaceOnUse"
       id="clipPath96"><path
         d="m 40.38,73.5 c -2.01,0 -3.63,-1.62 -3.63,-3.62 v 0 V 64 h 26.5 v 5.88 c 0,2 -1.62,3.62 -3.63,3.62 v 0 z"
         id="path94"
         inkscape:connector-curvature="0" /></clipPath><clipPath
       clipPathUnits="userSpaceOnUse"
       id="clipPath104"><path
         d="M -32768,32767 H 32767 V -32768 H -32768 Z"
         id="path102"
         inkscape:connector-curvature="0" /></clipPath><linearGradient
       x1="0"
       y1="0"
       x2="1"
       y2="0"
       gradientUnits="userSpaceOnUse"
       gradientTransform="matrix(16.939379,-16.939379,-16.939379,-16.939379,41.530312,76.159065)"
       spreadMethod="pad"
       id="linearGradient114"><stop
         style="stop-opacity:0.11999695;stop-color:#ffffff"
         offset="0"
         id="stop106" /><stop
         style="stop-opacity:0.11999695;stop-color:#ffffff"
         offset="0.00000039"
         id="stop108" /><stop
         style="stop-opacity:0;stop-color:#ffffff"
         offset="1"
         id="stop110" /><stop
         style="stop-opacity:0;stop-color:#ffffff"
         offset="1"
         id="stop112" /></linearGradient><mask
       maskUnits="userSpaceOnUse"
       x="0"
       y="0"
       width="1"
       height="1"
       id="mask116"><g
         id="g126"><g
           clip-path="url(#clipPath104)"
           id="g124"><g
             id="g122"><g
               id="g120"><path
                 d="M -32768,32767 H 32767 V -32768 H -32768 Z"
                 style="fill:url(#linearGradient114);stroke:none"
                 id="path118"
                 inkscape:connector-curvature="0" /></g></g></g></g></mask><linearGradient
       x1="0"
       y1="0"
       x2="1"
       y2="0"
       gradientUnits="userSpaceOnUse"
       gradientTransform="matrix(16.939379,-16.939379,-16.939379,-16.939379,41.530312,76.159065)"
       spreadMethod="pad"
       id="linearGradient140"><stop
         style="stop-opacity:1;stop-color:#000000"
         offset="0"
         id="stop132" /><stop
         style="stop-opacity:1;stop-color:#000000"
         offset="0.00000039"
         id="stop134" /><stop
         style="stop-opacity:1;stop-color:#000000"
         offset="1"
         id="stop136" /><stop
         style="stop-opacity:1;stop-color:#000000"
         offset="1"
         id="stop138" /></linearGradient><clipPath
       clipPathUnits="userSpaceOnUse"
       id="clipPath150"><path
         d="m 40.38,78.5 c -4.77,0 -8.63,-3.86 -8.63,-8.62 v 0 V 64 h -6.06 c -3.01,0 -5.44,-2.43 -5.44,-5.44 v 0 -28.251 c 0,-1.499 0.61,-2.859 1.589,-3.839 v 0 c 0.981,-0.98 2.341,-1.59 3.851,-1.59 v 0 h 48.619 c 3.011,0 5.441,2.43 5.441,5.429 v 0 28.251 c 0,3.01 -2.43,5.44 -5.441,5.44 v 0 H 68.25 v 5.88 c 0,2.23 -0.85,4.27 -2.24,5.8 v 0 c -0.09,0.1 -0.179,0.19 -0.279,0.28 v 0 c -0.381,0.39 -0.811,0.75 -1.281,1.06 v 0 c 0,0 0,0.01 -0.01,0.01 v 0 c -0.221,0.15 -0.46,0.29 -0.7,0.42 v 0 c 0,0 0,0.01 -0.009,0.01 v 0 c -0.212,0.11 -0.421,0.22 -0.641,0.31 v 0 c -0.42,0.19 -0.86,0.34 -1.309,0.46 v 0 C 61.52,78.29 61.259,78.35 61,78.39 v 0 c -0.45,0.07 -0.911,0.11 -1.38,0.11 v 0 z m -3.63,-8.62 c 0,2 1.62,3.62 3.63,3.62 v 0 h 19.24 c 2.01,0 3.63,-1.62 3.63,-3.62 v 0 V 64 h -26.5 z"
         id="path148"
         inkscape:connector-curvature="0" /></clipPath><clipPath
       clipPathUnits="userSpaceOnUse"
       id="clipPath158"><path
         d="M -32768,32767 H 32767 V -32768 H -32768 Z"
         id="path156"
         inkscape:connector-curvature="0" /></clipPath><linearGradient
       x1="0"
       y1="0"
       x2="1"
       y2="0"
       gradientUnits="userSpaceOnUse"
       gradientTransform="matrix(46.693756,-46.693756,-46.693756,-46.693756,26.652512,68.351273)"
       spreadMethod="pad"
       id="linearGradient168"><stop
         style="stop-opacity:0.11999695;stop-color:#ffffff"
         offset="0"
         id="stop160" /><stop
         style="stop-opacity:0.11999695;stop-color:#ffffff"
         offset="0.00000039"
         id="stop162" /><stop
         style="stop-opacity:0;stop-color:#ffffff"
         offset="1"
         id="stop164" /><stop
         style="stop-opacity:0;stop-color:#ffffff"
         offset="1"
         id="stop166" /></linearGradient><mask
       maskUnits="userSpaceOnUse"
       x="0"
       y="0"
       width="1"
       height="1"
       id="mask170"><g
         id="g180"><g
           clip-path="url(#clipPath158)"
           id="g178"><g
             id="g176"><g
               id="g174"><path
                 d="M -32768,32767 H 32767 V -32768 H -32768 Z"
                 style="fill:url(#linearGradient168);stroke:none"
                 id="path172"
                 inkscape:connector-curvature="0" /></g></g></g></g></mask><linearGradient
       x1="0"
       y1="0"
       x2="1"
       y2="0"
       gradientUnits="userSpaceOnUse"
       gradientTransform="matrix(46.693756,-46.693756,-46.693756,-46.693756,26.652512,68.351273)"
       spreadMethod="pad"
       id="linearGradient194"><stop
         style="stop-opacity:1;stop-color:#000000"
         offset="0"
         id="stop186" /><stop
         style="stop-opacity:1;stop-color:#000000"
         offset="0.00000039"
         id="stop188" /><stop
         style="stop-opacity:1;stop-color:#000000"
         offset="1"
         id="stop190" /><stop
         style="stop-opacity:1;stop-color:#000000"
         offset="1"
         id="stop192" /></linearGradient><clipPath
       clipPathUnits="userSpaceOnUse"
       id="clipPath204"><path
         d="M 0,100 H 100 V 0 H 0 Z"
         id="path202"
         inkscape:connector-curvature="0" /></clipPath><clipPath
       clipPathUnits="userSpaceOnUse"
       id="clipPath212"><path
         d="m 20.25,53.3333 h 59.5 V 33.4167 h -59.5 z"
         id="path210"
         inkscape:connector-curvature="0" /></clipPath><clipPath
       clipPathUnits="userSpaceOnUse"
       id="clipPath226"><path
         d="m 31.75,67.125 h 5 v -4.7708 h -5 z"
         id="path224"
         inkscape:connector-curvature="0" /></clipPath><clipPath
       clipPathUnits="userSpaceOnUse"
       id="clipPath240"><path
         d="m 63.25,67.125 h 5 v -4.7708 h -5 z"
         id="path238"
         inkscape:connector-curvature="0" /></clipPath></defs><sodipodi:namedview
     pagecolor="#ffffff"
     bordercolor="#666666"
     borderopacity="1"
     objecttolerance="10"
     gridtolerance="10"
     guidetolerance="10"
     inkscape:pageopacity="0"
     inkscape:pageshadow="2"
     inkscape:window-width="1366"
     inkscape:window-height="706"
     id="namedview4"
     showgrid="false"
     inkscape:zoom="1.7700001"
     inkscape:cx="66.666665"
     inkscape:cy="66.666665"
     inkscape:window-x="0"
     inkscape:window-y="34"
     inkscape:window-maximized="1"
     inkscape:current-layer="g10" /><g
     id="g10"
     inkscape:groupmode="layer"
     inkscape:label="linksbag"
     transform="matrix(1.3333333,0,0,-1.3333333,0,133.33333)"><g
       id="g12"
       transform="matrix(0.93750002,0,0,0.93750002,2.2500001,2.2500014)"><g
         id="g14"
         clip-path="url(#clipPath18)"><g
           id="g20"><g
             id="g22"><path
               d="M 50,100 C 12.956,100 0,87.039 0,50 v 0 C 0,12.961 12.956,0 50,0 v 0 c 37.045,0 50,12.961 50,50 v 0 c 0,37.044 -12.955,50 -50,50 z"
               style="fill:url(#linearGradient32);stroke:none"
               id="path34"
               inkscape:connector-curvature="0" /></g></g></g></g></g></svg>