<?xml version="1.0" encoding="UTF-8" standalone="no"?>
<!-- Created with Inkscape (http://www.inkscape.org/) -->

<svg
   xmlns:dc="http://purl.org/dc/elements/1.1/"
   xmlns:cc="http://creativecommons.org/ns#"
   xmlns:rdf="http://www.w3.org/1999/02/22-rdf-syntax-ns#"
   xmlns:svg="http://www.w3.org/2000/svg"
   xmlns="http://www.w3.org/2000/svg"
   xmlns:sodipodi="http://sodipodi.sourceforge.net/DTD/sodipodi-0.dtd"
   xmlns:inkscape="http://www.inkscape.org/namespaces/inkscape"
   version="1.1"
   id="svg2"
   xml:space="preserve"
   width="106.66667"
   height="106.66667"
   viewBox="0 0 106.66667 106.66667"
   sodipodi:docname="overlay07.svg"
   inkscape:version="0.92.2 2405546, 2018-03-11"><metadata
     id="metadata8"><rdf:RDF><cc:Work
         rdf:about=""><dc:format>image/svg+xml</dc:format><dc:type
           rdf:resource="http://purl.org/dc/dcmitype/StillImage" /><dc:title /></cc:Work></rdf:RDF></metadata><defs
     id="defs6"><clipPath
       clipPathUnits="userSpaceOnUse"
       id="clipPath18"><path
         d="m 1,39.956 c 0,-28.892 10.105,-39 39,-39 v 0 c 28.894,0 39,10.108 39,39 v 0 c 0,28.894 -10.106,39 -39,39 v 0 c -28.895,0 -39,-10.106 -39,-39"
         id="path16"
         inkscape:connector-curvature="0" /></clipPath><linearGradient
       x1="0"
       y1="0"
       x2="1"
       y2="0"
       gradientUnits="userSpaceOnUse"
       gradientTransform="matrix(60.670349,-60.670349,-60.670349,-60.670349,9.6648254,70.291695)"
       spreadMethod="pad"
       id="linearGradient30"><stop
         style="stop-opacity:1;stop-color:#ffcb36"
         offset="0"
         id="stop24" /><stop
         style="stop-opacity:1;stop-color:#ffcb36"
         offset="0.0000002"
         id="stop26" /><stop
         style="stop-opacity:1;stop-color:#ffae0a"
         offset="1"
         id="stop28" /></linearGradient><clipPath
       clipPathUnits="userSpaceOnUse"
       id="clipPath40"><path
         d="m 1,39.956 c 0,-28.892 10.105,-39 39,-39 v 0 c 28.894,0 39,10.108 39,39 v 0 c 0,28.894 -10.106,39 -39,39 v 0 c -28.895,0 -39,-10.106 -39,-39"
         id="path38"
         inkscape:connector-curvature="0" /></clipPath><linearGradient
       x1="0"
       y1="0"
       x2="1"
       y2="0"
       gradientUnits="userSpaceOnUse"
       gradientTransform="matrix(80,-80,-80,-80,0,79.956329)"
       spreadMethod="pad"
       id="linearGradient52"><stop
         style="stop-opacity:1;stop-color:#ffcb36"
         offset="0"
         id="stop46" /><stop
         style="stop-opacity:1;stop-color:#ffcb36"
         offset="0.0000002"
         id="stop48" /><stop
         style="stop-opacity:1;stop-color:#ffae0a"
         offset="1"
         id="stop50" /></linearGradient><clipPath
       clipPathUnits="userSpaceOnUse"
       id="clipPath62"><path
         d="M 20.166,59.5 18.548,18.312 35.82,1.041 C 37.172,0.989 38.556,0.956 40,0.956 v 0 c 28.116,0 38.438,9.576 38.975,36.709 v 0 L 61.184,55.456 38.071,55.071 31.936,61.206 Z"
         id="path60"
         inkscape:connector-curvature="0" /></clipPath><clipPath
       clipPathUnits="userSpaceOnUse"
       id="clipPath70"><path
         d="M -32768,32767 H 32767 V -32768 H -32768 Z"
         id="path68"
         inkscape:connector-curvature="0" /></clipPath><linearGradient
       x1="0"
       y1="0"
       x2="1"
       y2="0"
       gradientUnits="userSpaceOnUse"
       gradientTransform="matrix(50.020969,-50.020969,-50.020969,-50.020969,18.708374,58.041687)"
       spreadMethod="pad"
       id="linearGradient78"><stop
         style="stop-opacity:0.29999237;stop-color:#ffffff"
         offset="0"
         id="stop72" /><stop
         style="stop-opacity:0.29999237;stop-color:#ffffff"
         offset="0.0000003"
         id="stop74" /><stop
         style="stop-opacity:0;stop-color:#ffffff"
         offset="1"
         id="stop76" /></linearGradient><mask
       maskUnits="userSpaceOnUse"
       x="0"
       y="0"
       width="1"
       height="1"
       id="mask80"><g
         id="g90"><g
           clip-path="url(#clipPath70)"
           id="g88"><g
             id="g86"><g
               id="g84"><path
                 d="M -32768,32767 H 32767 V -32768 H -32768 Z"
                 style="fill:url(#linearGradient78);stroke:none"
                 id="path82"
                 inkscape:connector-curvature="0" /></g></g></g></g></mask><linearGradient
       x1="0"
       y1="0"
       x2="1"
       y2="0"
       gradientUnits="userSpaceOnUse"
       gradientTransform="matrix(50.020969,-50.020969,-50.020969,-50.020969,18.708374,58.041687)"
       spreadMethod="pad"
       id="linearGradient102"><stop
         style="stop-opacity:1;stop-color:#000000"
         offset="0"
         id="stop96" /><stop
         style="stop-opacity:1;stop-color:#000000"
         offset="0.0000003"
         id="stop98" /><stop
         style="stop-opacity:1;stop-color:#000000"
         offset="1"
         id="stop100" /></linearGradient><clipPath
       clipPathUnits="userSpaceOnUse"
       id="clipPath112"><path
         d="M 0,80 H 80 V 0 H 0 Z"
         id="path110"
         inkscape:connector-curvature="0" /></clipPath><clipPath
       clipPathUnits="userSpaceOnUse"
       id="clipPath124"><path
         d="M 0,80 H 80 V 0 H 0 Z"
         id="path122"
         inkscape:connector-curvature="0" /></clipPath><clipPath
       clipPathUnits="userSpaceOnUse"
       id="clipPath132"><path
         d="M 1.02344,79 H 78.9766 V 1 H 1.02344 Z"
         id="path130"
         inkscape:connector-curvature="0" /></clipPath><clipPath
       clipPathUnits="userSpaceOnUse"
       id="clipPath136"><path
         d="M 1.02344,79 H 78.9766 V 1 H 1.02344 Z"
         id="path134"
         inkscape:connector-curvature="0" /></clipPath><clipPath
       clipPathUnits="userSpaceOnUse"
       id="clipPath140"><path
         d="M 78.977,40 C 78.977,11.107 68.877,1 40,1 11.123,1 1.023,11.107 1.023,40 1.023,68.894 11.123,79 40,79 68.877,79 78.977,68.894 78.977,40"
         id="path138"
         inkscape:connector-curvature="0" /></clipPath><clipPath
       clipPathUnits="userSpaceOnUse"
       id="clipPath144"><path
         d="M -24534,24614 H 8232 V -8152 h -32766 z"
         id="path142"
         inkscape:connector-curvature="0" /></clipPath><clipPath
       clipPathUnits="userSpaceOnUse"
       id="clipPath148"><path
         d="M -24534,24614 H 8232 V -8152 h -32766 z"
         id="path146"
         inkscape:connector-curvature="0" /></clipPath><mask
       maskUnits="userSpaceOnUse"
       x="0"
       y="0"
       width="1"
       height="1"
       id="mask150"><g
         id="g162"><g
           clip-path="url(#clipPath144)"
           id="g160"><g
             id="g158"><g
               id="g152" /><g
               id="g156"><g
                 clip-path="url(#clipPath148)"
                 id="g154" /></g></g></g></g></mask><linearGradient
       x1="0"
       y1="0"
       x2="1"
       y2="0"
       gradientUnits="userSpaceOnUse"
       gradientTransform="matrix(0,-53.61993,-53.61993,0,40,74.818359)"
       spreadMethod="pad"
       id="linearGradient168"><stop
         style="stop-opacity:1;stop-color:#ffffff"
         offset="0"
         id="stop164" /><stop
         style="stop-opacity:1;stop-color:#e4e4e5"
         offset="1"
         id="stop166" /></linearGradient><mask
       maskUnits="userSpaceOnUse"
       x="0"
       y="0"
       width="1"
       height="1"
       id="mask170"><g
         id="g196"><g
           clip-path="url(#clipPath132)"
           id="g194"
           style="opacity:0.5"><g
             id="g192"><g
               id="g172" /><g
               id="g190"><g
                 clip-path="url(#clipPath136)"
                 id="g188"><g
                   id="g186"><g
                     clip-path="url(#clipPath140)"
                     id="g184"><g
                       id="g182"><g
                         id="g174" /><g
                         mask="url(#mask150)"
                         id="g180"><g
                           id="g178"><path
                             d="M 78.977,40 C 78.977,11.107 68.877,1 40,1 11.123,1 1.023,11.107 1.023,40 1.023,68.894 11.123,79 40,79 68.877,79 78.977,68.894 78.977,40"
                             style="fill:url(#linearGradient168);stroke:none"
                             id="path176"
                             inkscape:connector-curvature="0" /></g></g></g></g></g></g></g></g></g></g></mask><clipPath
       clipPathUnits="userSpaceOnUse"
       id="clipPath204"><path
         d="M 1.02344,79 H 78.9766 V 1 H 1.02344 Z"
         id="path202"
         inkscape:connector-curvature="0" /></clipPath><clipPath
       clipPathUnits="userSpaceOnUse"
       id="clipPath208"><path
         d="M 78.977,40 C 78.977,11.107 68.877,1 40,1 11.123,1 1.023,11.107 1.023,40 1.023,68.894 11.123,79 40,79 68.877,79 78.977,68.894 78.977,40"
         id="path206"
         inkscape:connector-curvature="0" /></clipPath><linearGradient
       x1="0"
       y1="0"
       x2="1"
       y2="0"
       gradientUnits="userSpaceOnUse"
       gradientTransform="matrix(0,-53.61993,-53.61993,0,40.000019,74.818184)"
       spreadMethod="pad"
       id="linearGradient214"><stop
         style="stop-opacity:1;stop-color:#ffffff"
         offset="0"
         id="stop210" /><stop
         style="stop-opacity:1;stop-color:#000000"
         offset="1"
         id="stop212" /></linearGradient><clipPath
       clipPathUnits="userSpaceOnUse"
       id="clipPath236"><path
         d="M 1,79 H 79 V 1 H 1 Z"
         id="path234"
         inkscape:connector-curvature="0" /></clipPath><clipPath
       clipPathUnits="userSpaceOnUse"
       id="clipPath240"><path
         d="M 1,79 H 79 V 1 H 1 Z"
         id="path238"
         inkscape:connector-curvature="0" /></clipPath><clipPath
       clipPathUnits="userSpaceOnUse"
       id="clipPath244"><path
         d="M -24534,24614 H 8232 V -8152 h -32766 z"
         id="path242"
         inkscape:connector-curvature="0" /></clipPath><clipPath
       clipPathUnits="userSpaceOnUse"
       id="clipPath248"><path
         d="M -24534,24614 H 8232 V -8152 h -32766 z"
         id="path246"
         inkscape:connector-curvature="0" /></clipPath><mask
       maskUnits="userSpaceOnUse"
       x="0"
       y="0"
       width="1"
       height="1"
       id="mask250"><g
         id="g262"><g
           clip-path="url(#clipPath244)"
           id="g260"><g
             id="g258"><g
               id="g252" /><g
               id="g256"><g
                 clip-path="url(#clipPath248)"
                 id="g254" /></g></g></g></g></mask><clipPath
       clipPathUnits="userSpaceOnUse"
       id="clipPath266"><path
         d="M 1,79 H 79 V 1 H 1 Z"
         id="path264"
         inkscape:connector-curvature="0" /></clipPath><clipPath
       clipPathUnits="userSpaceOnUse"
       id="clipPath270"><path
         d="M 39.999,1.975 C 11.57,1.975 1.976,11.57 1.976,40 c 0,28.429 9.594,38.024 38.023,38.024 28.43,0 38.024,-9.595 38.024,-38.024 0,-28.43 -9.594,-38.025 -38.024,-38.025 m 0,77.025 C 11.105,79 1,68.894 1,40 1,11.107 11.105,1 39.999,1 68.896,1 79,11.107 79,40 79,68.894 68.896,79 39.999,79"
         id="path268"
         inkscape:connector-curvature="0" /></clipPath><linearGradient
       x1="0"
       y1="0"
       x2="1"
       y2="0"
       gradientUnits="userSpaceOnUse"
       gradientTransform="matrix(0,-77.263527,-77.263527,0,40,78.75293)"
       spreadMethod="pad"
       id="linearGradient276"><stop
         style="stop-opacity:1;stop-color:#ffffff"
         offset="0"
         id="stop272" /><stop
         style="stop-opacity:1;stop-color:#231815"
         offset="1"
         id="stop274" /></linearGradient><mask
       maskUnits="userSpaceOnUse"
       x="0"
       y="0"
       width="1"
       height="1"
       id="mask278"><g
         id="g312"><g
           clip-path="url(#clipPath236)"
           id="g310"
           style="opacity:0.25"><g
             id="g308"><g
               id="g280" /><g
               id="g306"><g
                 clip-path="url(#clipPath240)"
                 id="g304"><g
                   id="g302"><g
                     id="g282" /><g
                     mask="url(#mask250)"
                     id="g300"><g
                       id="g284" /><g
                       id="g298"><g
                         clip-path="url(#clipPath266)"
                         id="g296"><g
                           id="g294"><g
                             clip-path="url(#clipPath270)"
                             id="g292"><g
                               id="g290"><g
                                 id="g288"><path
                                   d="M 39.999,1.975 C 11.57,1.975 1.976,11.57 1.976,40 c 0,28.429 9.594,38.024 38.023,38.024 28.43,0 38.024,-9.595 38.024,-38.024 0,-28.43 -9.594,-38.025 -38.024,-38.025 m 0,77.025 C 11.105,79 1,68.894 1,40 1,11.107 11.105,1 39.999,1 68.896,1 79,11.107 79,40 79,68.894 68.896,79 39.999,79"
                                   style="fill:url(#linearGradient276);stroke:none"
                                   id="path286"
                                   inkscape:connector-curvature="0" /></g></g></g></g></g></g></g></g></g></g></g></g></g></mask><clipPath
       clipPathUnits="userSpaceOnUse"
       id="clipPath320"><path
         d="M 1,79 H 79 V 1 H 1 Z"
         id="path318"
         inkscape:connector-curvature="0" /></clipPath><clipPath
       clipPathUnits="userSpaceOnUse"
       id="clipPath324"><path
         d="M 39.999,1.975 C 11.57,1.975 1.976,11.57 1.976,40 c 0,28.429 9.594,38.024 38.023,38.024 28.43,0 38.024,-9.595 38.024,-38.024 0,-28.43 -9.594,-38.025 -38.024,-38.025 m 0,77.025 C 11.105,79 1,68.894 1,40 1,11.107 11.105,1 39.999,1 68.896,1 79,11.107 79,40 79,68.894 68.896,79 39.999,79"
         id="path322"
         inkscape:connector-curvature="0" /></clipPath><linearGradient
       x1="0"
       y1="0"
       x2="1"
       y2="0"
       gradientUnits="userSpaceOnUse"
       gradientTransform="matrix(0,-77.263527,-77.263527,0,40,78.753128)"
       spreadMethod="pad"
       id="linearGradient330"><stop
         style="stop-opacity:1;stop-color:#ffffff"
         offset="0"
         id="stop326" /><stop
         style="stop-opacity:1;stop-color:#ffffff"
         offset="1"
         id="stop328" /></linearGradient></defs><sodipodi:namedview
     pagecolor="#ffffff"
     bordercolor="#666666"
     borderopacity="1"
     objecttolerance="10"
     gridtolerance="10"
     guidetolerance="10"
     inkscape:pageopacity="0"
     inkscape:pageshadow="2"
     inkscape:window-width="1366"
     inkscape:window-height="706"
     id="namedview4"
     showgrid="false"
     inkscape:zoom="2.2124999"
     inkscape:cx="53.333336"
     inkscape:cy="53.333336"
     inkscape:window-x="0"
     inkscape:window-y="34"
     inkscape:window-maximized="1"
     inkscape:current-layer="g10" /><g
     id="g10"
     inkscape:groupmode="layer"
     inkscape:label="DS File"
     transform="matrix(1.3333333,0,0,-1.3333333,0,106.66667)"><g
       id="g12"
       transform="matrix(0.97115387,0,0,0.97060635,1.2788462,1.322099)"><g
         id="g14"
         clip-path="url(#clipPath18)"><g
           id="g20"><g
             id="g22"><path
               d="m 1,39.956 c 0,-28.892 10.105,-39 39,-39 v 0 c 28.894,0 39,10.108 39,39 v 0 c 0,28.894 -10.106,39 -39,39 v 0 c -28.895,0 -39,-10.106 -39,-39"
               style="fill:url(#linearGradient30);stroke:none"
               id="path32"
               inkscape:connector-curvature="0" /></g></g></g></g><g
       id="g34"
       transform="matrix(0.97115387,0,0,0.97060635,1.2788462,1.322099)"><g
         id="g36"
         clip-path="url(#clipPath40)"><g
           id="g42"><g
             id="g44"><path
               d="m 1,39.956 c 0,-28.892 10.105,-39 39,-39 v 0 c 28.894,0 39,10.108 39,39 v 0 c 0,28.894 -10.106,39 -39,39 v 0 c -28.895,0 -39,-10.106 -39,-39"
               style="fill:url(#linearGradient52);stroke:none"
               id="path54"
               inkscape:connector-curvature="0" /></g></g></g></g><g
       id="g118"
       transform="matrix(0.97115387,0,0,0.97060635,1.2788462,1.322099)"><g
         id="g120"
         clip-path="url(#clipPath124)"><g
           id="g126"><g
             id="g128" /><g
             id="g198"
             mask="url(#mask170)"><g
               id="g200" /><g
               id="g228"><g
                 clip-path="url(#clipPath204)"
                 id="g226"
                 style="opacity:0.5"><g
                   id="g224"><g
                     clip-path="url(#clipPath208)"
                     id="g222"><g
                       id="g220"><g
                         id="g218"><path
                           d="M 78.977,40 C 78.977,11.107 68.877,1 40,1 11.123,1 1.023,11.107 1.023,40 1.023,68.894 11.123,79 40,79 68.877,79 78.977,68.894 78.977,40"
                           style="fill:url(#linearGradient214);stroke:none"
                           id="path216"
                           inkscape:connector-curvature="0" /></g></g></g></g></g></g></g></g><g
           id="g230"><g
             id="g232" /><g
             id="g314"
             mask="url(#mask278)"><g
               id="g316" /><g
               id="g344"><g
                 clip-path="url(#clipPath320)"
                 id="g342"
                 style="opacity:0.25"><g
                   id="g340"><g
                     clip-path="url(#clipPath324)"
                     id="g338"><g
                       id="g336"><g
                         id="g334"><path
                           d="M 39.999,1.975 C 11.57,1.975 1.976,11.57 1.976,40 c 0,28.429 9.594,38.024 38.023,38.024 28.43,0 38.024,-9.595 38.024,-38.024 0,-28.43 -9.594,-38.025 -38.024,-38.025 m 0,77.025 C 11.105,79 1,68.894 1,40 1,11.107 11.105,1 39.999,1 68.896,1 79,11.107 79,40 79,68.894 68.896,79 39.999,79"
                           style="fill:url(#linearGradient330);stroke:none"
                           id="path332"
                           inkscape:connector-curvature="0" /></g></g></g></g></g></g></g></g></g></g></g></svg>