<?xml version="1.0" encoding="UTF-8" standalone="no"?>
<!-- Created with Inkscape (http://www.inkscape.org/) -->

<svg
   xmlns:dc="http://purl.org/dc/elements/1.1/"
   xmlns:cc="http://creativecommons.org/ns#"
   xmlns:rdf="http://www.w3.org/1999/02/22-rdf-syntax-ns#"
   xmlns:svg="http://www.w3.org/2000/svg"
   xmlns="http://www.w3.org/2000/svg"
   xmlns:sodipodi="http://sodipodi.sourceforge.net/DTD/sodipodi-0.dtd"
   xmlns:inkscape="http://www.inkscape.org/namespaces/inkscape"
   version="1.1"
   id="svg2"
   xml:space="preserve"
   width="133.33333"
   height="133.33333"
   viewBox="0 0 133.33333 133.33333"
   sodipodi:docname="13.svg"
   inkscape:version="0.92.2 2405546, 2018-03-11"><metadata
     id="metadata8"><rdf:RDF><cc:Work
         rdf:about=""><dc:format>image/svg+xml</dc:format><dc:type
           rdf:resource="http://purl.org/dc/dcmitype/StillImage" /><dc:title /></cc:Work></rdf:RDF></metadata><defs
     id="defs6"><clipPath
       clipPathUnits="userSpaceOnUse"
       id="clipPath18"><path
         d="M 50,100 C 12.956,100 0,87.039 0,50 v 0 C 0,12.961 12.956,0 50,0 v 0 c 37.045,0 50,12.961 50,50 v 0 c 0,37.044 -12.955,50 -50,50 z"
         id="path16"
         inkscape:connector-curvature="0" /></clipPath><linearGradient
       x1="0"
       y1="0"
       x2="1"
       y2="0"
       gradientUnits="userSpaceOnUse"
       gradientTransform="matrix(77.78125,-77.78125,-77.78125,-77.78125,11.109896,88.891144)"
       spreadMethod="pad"
       id="linearGradient32"><stop
         style="stop-opacity:1;stop-color:#d6d6d6"
         offset="0"
         id="stop24" /><stop
         style="stop-opacity:1;stop-color:#d6d6d6"
         offset="0.14086381"
         id="stop26" /><stop
         style="stop-opacity:1;stop-color:#bdbdbd"
         offset="0.999999"
         id="stop28" /><stop
         style="stop-opacity:1;stop-color:#bdbdbd"
         offset="1"
         id="stop30" /></linearGradient><clipPath
       clipPathUnits="userSpaceOnUse"
       id="clipPath42"><path
         d="M 20.864,20.802 41.388,0.276 C 44.106,0.096 46.965,0 50,0 v 0 c 37.045,0 50,12.961 50,50 v 0 c 0,3.025 -0.096,5.874 -0.275,8.583 v 0 l -20.539,20.54 z"
         id="path40"
         inkscape:connector-curvature="0" /></clipPath><clipPath
       clipPathUnits="userSpaceOnUse"
       id="clipPath50"><path
         d="M -32768,32767 H 32767 V -32768 H -32768 Z"
         id="path48"
         inkscape:connector-curvature="0" /></clipPath><linearGradient
       x1="0"
       y1="0"
       x2="1"
       y2="0"
       gradientUnits="userSpaceOnUse"
       gradientTransform="matrix(38.859554,-38.859554,-38.859554,-38.859554,50.024429,49.962296)"
       spreadMethod="pad"
       id="linearGradient60"><stop
         style="stop-opacity:0.07998779;stop-color:#ffffff"
         offset="0"
         id="stop52" /><stop
         style="stop-opacity:0.07998779;stop-color:#ffffff"
         offset="0.10378165"
         id="stop54" /><stop
         style="stop-opacity:0;stop-color:#ffffff"
         offset="0.736751"
         id="stop56" /><stop
         style="stop-opacity:0;stop-color:#ffffff"
         offset="1"
         id="stop58" /></linearGradient><mask
       maskUnits="userSpaceOnUse"
       x="0"
       y="0"
       width="1"
       height="1"
       id="mask62"><g
         id="g72"><g
           clip-path="url(#clipPath50)"
           id="g70"><g
             id="g68"><g
               id="g66"><path
                 d="M -32768,32767 H 32767 V -32768 H -32768 Z"
                 style="fill:url(#linearGradient60);stroke:none"
                 id="path64"
                 inkscape:connector-curvature="0" /></g></g></g></g></mask><linearGradient
       x1="0"
       y1="0"
       x2="1"
       y2="0"
       gradientUnits="userSpaceOnUse"
       gradientTransform="matrix(38.859554,-38.859554,-38.859554,-38.859554,50.024429,49.962296)"
       spreadMethod="pad"
       id="linearGradient86"><stop
         style="stop-opacity:1;stop-color:#000000"
         offset="0"
         id="stop78" /><stop
         style="stop-opacity:1;stop-color:#000000"
         offset="0.10378165"
         id="stop80" /><stop
         style="stop-opacity:1;stop-color:#000000"
         offset="0.736751"
         id="stop82" /><stop
         style="stop-opacity:1;stop-color:#000000"
         offset="1"
         id="stop84" /></linearGradient><clipPath
       clipPathUnits="userSpaceOnUse"
       id="clipPath96"><path
         d="M 0,100 H 100 V 0 H 0 Z"
         id="path94"
         inkscape:connector-curvature="0" /></clipPath><clipPath
       clipPathUnits="userSpaceOnUse"
       id="clipPath108"><path
         d="M 14.96,69.25 H 85.04 C 80.651,82.46 70.01,87.5 50,87.5 v 0 C 29.99,87.5 19.35,82.46 14.96,69.25"
         id="path106"
         inkscape:connector-curvature="0" /></clipPath><linearGradient
       x1="0"
       y1="0"
       x2="1"
       y2="0"
       gradientUnits="userSpaceOnUse"
       gradientTransform="matrix(37.063171,-37.063171,-37.063171,-37.063171,31.468412,89.804779)"
       spreadMethod="pad"
       id="linearGradient122"><stop
         style="stop-opacity:1;stop-color:#fa956a"
         offset="0"
         id="stop114" /><stop
         style="stop-opacity:1;stop-color:#fa956a"
         offset="0.14086381"
         id="stop116" /><stop
         style="stop-opacity:1;stop-color:#fe4b47"
         offset="0.999999"
         id="stop118" /><stop
         style="stop-opacity:1;stop-color:#fe4b47"
         offset="1"
         id="stop120" /></linearGradient><clipPath
       clipPathUnits="userSpaceOnUse"
       id="clipPath136"><path
         d="M 0,100 H 100 V 0 H 0 Z"
         id="path134"
         inkscape:connector-curvature="0" /></clipPath><clipPath
       clipPathUnits="userSpaceOnUse"
       id="clipPath152"><path
         d="m 37.462,48.587 4.625,-4.625 -0.368,-11.67 19.156,-19.157 c 13.234,1.726 20.772,7.142 24.244,17.891 v 0 l -22.348,22.348 -1.245,0.344 -5.838,0.22 -3.889,-4.679 5.986,-5.985 -0.163,-0.511 5.32,-5.32 -0.22,-1.252 -18.7,18.699 z"
         id="path150"
         inkscape:connector-curvature="0" /></clipPath><clipPath
       clipPathUnits="userSpaceOnUse"
       id="clipPath160"><path
         d="M -32768,32767 H 32767 V -32768 H -32768 Z"
         id="path158"
         inkscape:connector-curvature="0" /></clipPath><linearGradient
       x1="0"
       y1="0"
       x2="1"
       y2="0"
       gradientUnits="userSpaceOnUse"
       gradientTransform="matrix(34.722027,-34.722027,-34.722027,-34.722027,41.97641,53.100922)"
       spreadMethod="pad"
       id="linearGradient166"><stop
         style="stop-opacity:0.07998779;stop-color:#ffffff"
         offset="0"
         id="stop162" /><stop
         style="stop-opacity:0;stop-color:#ffffff"
         offset="1"
         id="stop164" /></linearGradient><mask
       maskUnits="userSpaceOnUse"
       x="0"
       y="0"
       width="1"
       height="1"
       id="mask168"><g
         id="g178"><g
           clip-path="url(#clipPath160)"
           id="g176"><g
             id="g174"><g
               id="g172"><path
                 d="M -32768,32767 H 32767 V -32768 H -32768 Z"
                 style="fill:url(#linearGradient166);stroke:none"
                 id="path170"
                 inkscape:connector-curvature="0" /></g></g></g></g></mask><linearGradient
       x1="0"
       y1="0"
       x2="1"
       y2="0"
       gradientUnits="userSpaceOnUse"
       gradientTransform="matrix(34.722027,-34.722027,-34.722027,-34.722027,41.97641,53.100922)"
       spreadMethod="pad"
       id="linearGradient188"><stop
         style="stop-opacity:1;stop-color:#231815"
         offset="0"
         id="stop184" /><stop
         style="stop-opacity:1;stop-color:#231815"
         offset="1"
         id="stop186" /></linearGradient></defs><sodipodi:namedview
     pagecolor="#ffffff"
     bordercolor="#666666"
     borderopacity="1"
     objecttolerance="10"
     gridtolerance="10"
     guidetolerance="10"
     inkscape:pageopacity="0"
     inkscape:pageshadow="2"
     inkscape:window-width="1366"
     inkscape:window-height="706"
     id="namedview4"
     showgrid="false"
     inkscape:zoom="1.77"
     inkscape:cx="56.926093"
     inkscape:cy="-3.9790546"
     inkscape:window-x="0"
     inkscape:window-y="34"
     inkscape:window-maximized="1"
     inkscape:current-layer="g10" /><g
     id="g10"
     inkscape:groupmode="layer"
     inkscape:label="calendar 13"
     transform="matrix(1.3333333,0,0,-1.3333333,0,133.33333)"><g
       id="g12"
       transform="matrix(0.93750002,0,0,0.93750002,3.0000001,3.0000014)"><g
         id="g14"
         clip-path="url(#clipPath18)"><g
           id="g20"><g
             id="g22"><path
               d="M 50,100 C 12.956,100 0,87.039 0,50 v 0 C 0,12.961 12.956,0 50,0 v 0 c 37.045,0 50,12.961 50,50 v 0 c 0,37.044 -12.955,50 -50,50 z"
               style="fill:url(#linearGradient32);stroke:none"
               id="path34"
               inkscape:connector-curvature="0" /></g></g></g></g><g
       id="g36"
       transform="matrix(0.93750002,0,0,0.93750002,3.0000001,3.0000014)"><g
         id="g38"
         clip-path="url(#clipPath42)"><g
           id="g44"><g
             id="g46" /><g
             id="g74"
             mask="url(#mask62)"><g
               id="g76"><path
                 d="M 20.864,20.802 41.388,0.276 C 44.106,0.096 46.965,0 50,0 v 0 c 37.045,0 50,12.961 50,50 v 0 c 0,3.025 -0.096,5.874 -0.275,8.583 v 0 l -20.539,20.54 z"
                 style="fill:url(#linearGradient86);stroke:none"
                 id="path88"
                 inkscape:connector-curvature="0" /></g></g></g></g></g><g
       id="g90"
       transform="matrix(0.93750002,0,0,0.93750002,3.0000001,3.0000014)"><g
         id="g92"
         clip-path="url(#clipPath96)"><g
           id="g98"
           transform="translate(87.5,50)"><path
             d="m 0,0 c 0,-27.78 -9.72,-37.5 -37.5,-37.5 -27.78,0 -37.5,9.72 -37.5,37.5 0,7.77 0.76,14.12 2.46,19.25 H -2.46 C -0.76,14.12 0,7.77 0,0"
             style="fill:#f9f9e5;fill-opacity:1;fill-rule:nonzero;stroke:none"
             id="path100"
             inkscape:connector-curvature="0" /></g></g></g><g
       id="g102"
       transform="matrix(0.93750002,0,0,0.93750002,3.0000001,3.0000014)"><g
         id="g104"
         clip-path="url(#clipPath108)"><g
           id="g110"><g
             id="g112"><path
               d="M 14.96,69.25 H 85.04 C 80.651,82.46 70.01,87.5 50,87.5 v 0 C 29.99,87.5 19.35,82.46 14.96,69.25"
               style="fill:url(#linearGradient122);stroke:none"
               id="path124"
               inkscape:connector-curvature="0" /></g></g></g></g><g
       id="g130"
       transform="matrix(0.93750002,0,0,0.93750002,3.0000001,3.0000014)"><g
         id="g132"
         clip-path="url(#clipPath136)"><g
           id="g138"
           transform="translate(41.7183,32.1074)"><path
             d="m 0,0 v 20.223 l -4.256,-3.744 v 2.624 L 0,22.783 H 2.304 V 0 Z"
             style="fill:#000000;fill-opacity:1;fill-rule:nonzero;stroke:none"
             id="path140"
             inkscape:connector-curvature="0" /></g><g
           id="g142"
           transform="translate(58.1982,31.8838)"><path
             d="m 0,0 c -3.584,0 -6.495,1.888 -6.687,6.016 h 2.303 C -4.191,3.167 -2.176,2.048 0,2.048 c 2.464,0 4.384,1.632 4.384,4.415 0,2.752 -1.376,4.416 -4.48,4.416 h -0.48 v 2.016 h 0.48 c 2.784,0 4.064,1.568 4.064,4.127 0,2.721 -1.76,4.161 -3.968,4.161 -2.399,0 -3.871,-1.472 -4.096,-3.808 h -2.303 c 0.255,3.68 2.943,5.855 6.399,5.855 3.712,0 6.271,-2.463 6.271,-6.175 C 6.271,14.654 5.248,12.927 3.2,11.999 5.504,11.135 6.687,9.279 6.687,6.432 6.687,2.239 3.712,0 0,0"
             style="fill:#000000;fill-opacity:1;fill-rule:nonzero;stroke:none"
             id="path144"
             inkscape:connector-curvature="0" /></g></g></g><g
       id="g146"
       transform="matrix(0.93750002,0,0,0.93750002,3.0000001,3.0000014)"><g
         id="g148"
         clip-path="url(#clipPath152)"><g
           id="g154"><g
             id="g156" /><g
             id="g180"
             mask="url(#mask168)"><g
               id="g182"><path
                 d="m 37.462,48.587 4.625,-4.625 -0.368,-11.67 19.156,-19.157 c 13.234,1.726 20.772,7.142 24.244,17.891 v 0 l -22.348,22.348 -1.245,0.344 -5.838,0.22 -3.889,-4.679 5.986,-5.985 -0.163,-0.511 5.32,-5.32 -0.22,-1.252 -18.7,18.699 z"
                 style="fill:url(#linearGradient188);stroke:none"
                 id="path190"
                 inkscape:connector-curvature="0" /></g></g></g></g></g></g></svg>