<?xml version="1.0" encoding="UTF-8" standalone="no"?>
<!-- Created with Inkscape (http://www.inkscape.org/) -->

<svg
   xmlns:dc="http://purl.org/dc/elements/1.1/"
   xmlns:cc="http://creativecommons.org/ns#"
   xmlns:rdf="http://www.w3.org/1999/02/22-rdf-syntax-ns#"
   xmlns:svg="http://www.w3.org/2000/svg"
   xmlns="http://www.w3.org/2000/svg"
   xmlns:sodipodi="http://sodipodi.sourceforge.net/DTD/sodipodi-0.dtd"
   xmlns:inkscape="http://www.inkscape.org/namespaces/inkscape"
   version="1.1"
   id="svg2"
   xml:space="preserve"
   width="133.33333"
   height="133.33333"
   viewBox="0 0 133.33333 133.33333"
   sodipodi:docname="25.svg"
   inkscape:version="0.92.2 2405546, 2018-03-11"><metadata
     id="metadata8"><rdf:RDF><cc:Work
         rdf:about=""><dc:format>image/svg+xml</dc:format><dc:type
           rdf:resource="http://purl.org/dc/dcmitype/StillImage" /><dc:title /></cc:Work></rdf:RDF></metadata><defs
     id="defs6"><clipPath
       clipPathUnits="userSpaceOnUse"
       id="clipPath18"><path
         d="M 50,100 C 12.956,100 0,87.039 0,50 v 0 C 0,12.961 12.956,0 50,0 v 0 c 37.045,0 50,12.961 50,50 v 0 c 0,37.044 -12.955,50 -50,50 z"
         id="path16"
         inkscape:connector-curvature="0" /></clipPath><linearGradient
       x1="0"
       y1="0"
       x2="1"
       y2="0"
       gradientUnits="userSpaceOnUse"
       gradientTransform="matrix(77.78125,-77.78125,-77.78125,-77.78125,11.109896,88.891144)"
       spreadMethod="pad"
       id="linearGradient32"><stop
         style="stop-opacity:1;stop-color:#d6d6d6"
         offset="0"
         id="stop24" /><stop
         style="stop-opacity:1;stop-color:#d6d6d6"
         offset="0.14086381"
         id="stop26" /><stop
         style="stop-opacity:1;stop-color:#bdbdbd"
         offset="0.999999"
         id="stop28" /><stop
         style="stop-opacity:1;stop-color:#bdbdbd"
         offset="1"
         id="stop30" /></linearGradient><clipPath
       clipPathUnits="userSpaceOnUse"
       id="clipPath42"><path
         d="M 20.864,20.802 41.388,0.276 C 44.106,0.096 46.965,0 50,0 v 0 c 37.045,0 50,12.961 50,50 v 0 c 0,3.025 -0.096,5.874 -0.275,8.583 v 0 l -20.539,20.54 z"
         id="path40"
         inkscape:connector-curvature="0" /></clipPath><clipPath
       clipPathUnits="userSpaceOnUse"
       id="clipPath50"><path
         d="M -32768,32767 H 32767 V -32768 H -32768 Z"
         id="path48"
         inkscape:connector-curvature="0" /></clipPath><linearGradient
       x1="0"
       y1="0"
       x2="1"
       y2="0"
       gradientUnits="userSpaceOnUse"
       gradientTransform="matrix(38.859554,-38.859554,-38.859554,-38.859554,50.024429,49.962296)"
       spreadMethod="pad"
       id="linearGradient60"><stop
         style="stop-opacity:0.07998779;stop-color:#ffffff"
         offset="0"
         id="stop52" /><stop
         style="stop-opacity:0.07998779;stop-color:#ffffff"
         offset="0.10378165"
         id="stop54" /><stop
         style="stop-opacity:0;stop-color:#ffffff"
         offset="0.736751"
         id="stop56" /><stop
         style="stop-opacity:0;stop-color:#ffffff"
         offset="1"
         id="stop58" /></linearGradient><mask
       maskUnits="userSpaceOnUse"
       x="0"
       y="0"
       width="1"
       height="1"
       id="mask62"><g
         id="g72"><g
           clip-path="url(#clipPath50)"
           id="g70"><g
             id="g68"><g
               id="g66"><path
                 d="M -32768,32767 H 32767 V -32768 H -32768 Z"
                 style="fill:url(#linearGradient60);stroke:none"
                 id="path64"
                 inkscape:connector-curvature="0" /></g></g></g></g></mask><linearGradient
       x1="0"
       y1="0"
       x2="1"
       y2="0"
       gradientUnits="userSpaceOnUse"
       gradientTransform="matrix(38.859554,-38.859554,-38.859554,-38.859554,50.024429,49.962296)"
       spreadMethod="pad"
       id="linearGradient86"><stop
         style="stop-opacity:1;stop-color:#000000"
         offset="0"
         id="stop78" /><stop
         style="stop-opacity:1;stop-color:#000000"
         offset="0.10378165"
         id="stop80" /><stop
         style="stop-opacity:1;stop-color:#000000"
         offset="0.736751"
         id="stop82" /><stop
         style="stop-opacity:1;stop-color:#000000"
         offset="1"
         id="stop84" /></linearGradient><clipPath
       clipPathUnits="userSpaceOnUse"
       id="clipPath96"><path
         d="M 0,100 H 100 V 0 H 0 Z"
         id="path94"
         inkscape:connector-curvature="0" /></clipPath><clipPath
       clipPathUnits="userSpaceOnUse"
       id="clipPath108"><path
         d="M 14.96,69.25 H 85.04 C 80.651,82.46 70.01,87.5 50,87.5 v 0 C 29.99,87.5 19.35,82.46 14.96,69.25"
         id="path106"
         inkscape:connector-curvature="0" /></clipPath><linearGradient
       x1="0"
       y1="0"
       x2="1"
       y2="0"
       gradientUnits="userSpaceOnUse"
       gradientTransform="matrix(37.063171,-37.063171,-37.063171,-37.063171,31.468412,89.804779)"
       spreadMethod="pad"
       id="linearGradient122"><stop
         style="stop-opacity:1;stop-color:#fa956a"
         offset="0"
         id="stop114" /><stop
         style="stop-opacity:1;stop-color:#fa956a"
         offset="0.14086381"
         id="stop116" /><stop
         style="stop-opacity:1;stop-color:#fe4b47"
         offset="0.999999"
         id="stop118" /><stop
         style="stop-opacity:1;stop-color:#fe4b47"
         offset="1"
         id="stop120" /></linearGradient><clipPath
       clipPathUnits="userSpaceOnUse"
       id="clipPath136"><path
         d="M 0,100 H 100 V 0 H 0 Z"
         id="path134"
         inkscape:connector-curvature="0" /></clipPath><clipPath
       clipPathUnits="userSpaceOnUse"
       id="clipPath152"><path
         d="m 55.031,52.843 -1.383,-6.595 -7.084,7.085 -6.126,0.729 -4.767,-5.156 7.034,-7.034 -7.066,-9.765 19.483,-19.483 c 10.614,0.533 18.186,2.851 23.327,7.541 v 0 c 0.063,0.054 0.124,0.112 0.185,0.17 v 0 c 0.159,0.149 0.325,0.294 0.481,0.448 v 0 l -0.021,0.02 c 3.2,3.179 5.399,7.359 6.735,12.728 v 0 L 64.47,54.89 Z"
         id="path150"
         inkscape:connector-curvature="0" /></clipPath><clipPath
       clipPathUnits="userSpaceOnUse"
       id="clipPath160"><path
         d="M -32768,32767 H 32767 V -32768 H -32768 Z"
         id="path158"
         inkscape:connector-curvature="0" /></clipPath><linearGradient
       x1="0"
       y1="0"
       x2="1"
       y2="0"
       gradientUnits="userSpaceOnUse"
       gradientTransform="matrix(35.978119,-35.978119,-35.978119,-35.978119,39.963989,53.588989)"
       spreadMethod="pad"
       id="linearGradient166"><stop
         style="stop-opacity:0.07998779;stop-color:#ffffff"
         offset="0"
         id="stop162" /><stop
         style="stop-opacity:0;stop-color:#ffffff"
         offset="1"
         id="stop164" /></linearGradient><mask
       maskUnits="userSpaceOnUse"
       x="0"
       y="0"
       width="1"
       height="1"
       id="mask168"><g
         id="g178"><g
           clip-path="url(#clipPath160)"
           id="g176"><g
             id="g174"><g
               id="g172"><path
                 d="M -32768,32767 H 32767 V -32768 H -32768 Z"
                 style="fill:url(#linearGradient166);stroke:none"
                 id="path170"
                 inkscape:connector-curvature="0" /></g></g></g></g></mask><linearGradient
       x1="0"
       y1="0"
       x2="1"
       y2="0"
       gradientUnits="userSpaceOnUse"
       gradientTransform="matrix(35.978119,-35.978119,-35.978119,-35.978119,39.963989,53.588989)"
       spreadMethod="pad"
       id="linearGradient188"><stop
         style="stop-opacity:1;stop-color:#231815"
         offset="0"
         id="stop184" /><stop
         style="stop-opacity:1;stop-color:#231815"
         offset="1"
         id="stop186" /></linearGradient></defs><sodipodi:namedview
     pagecolor="#ffffff"
     bordercolor="#666666"
     borderopacity="1"
     objecttolerance="10"
     gridtolerance="10"
     guidetolerance="10"
     inkscape:pageopacity="0"
     inkscape:pageshadow="2"
     inkscape:window-width="1366"
     inkscape:window-height="706"
     id="namedview4"
     showgrid="false"
     inkscape:zoom="1.251579"
     inkscape:cx="95.858984"
     inkscape:cy="11.20619"
     inkscape:window-x="0"
     inkscape:window-y="34"
     inkscape:window-maximized="1"
     inkscape:current-layer="g10" /><g
     id="g10"
     inkscape:groupmode="layer"
     inkscape:label="calendar 25"
     transform="matrix(1.3333333,0,0,-1.3333333,0,133.33333)"><g
       id="g12"
       transform="matrix(0.93750002,0,0,0.93750002,3.0000001,3.0000014)"><g
         id="g14"
         clip-path="url(#clipPath18)"><g
           id="g20"><g
             id="g22"><path
               d="M 50,100 C 12.956,100 0,87.039 0,50 v 0 C 0,12.961 12.956,0 50,0 v 0 c 37.045,0 50,12.961 50,50 v 0 c 0,37.044 -12.955,50 -50,50 z"
               style="fill:url(#linearGradient32);stroke:none"
               id="path34"
               inkscape:connector-curvature="0" /></g></g></g></g><g
       id="g36"
       transform="matrix(0.93750002,0,0,0.93750002,3.0000001,3.0000014)"><g
         id="g38"
         clip-path="url(#clipPath42)"><g
           id="g44"><g
             id="g46" /><g
             id="g74"
             mask="url(#mask62)"><g
               id="g76"><path
                 d="M 20.864,20.802 41.388,0.276 C 44.106,0.096 46.965,0 50,0 v 0 c 37.045,0 50,12.961 50,50 v 0 c 0,3.025 -0.096,5.874 -0.275,8.583 v 0 l -20.539,20.54 z"
                 style="fill:url(#linearGradient86);stroke:none"
                 id="path88"
                 inkscape:connector-curvature="0" /></g></g></g></g></g><g
       id="g90"
       transform="matrix(0.93750002,0,0,0.93750002,3.0000001,3.0000014)"><g
         id="g92"
         clip-path="url(#clipPath96)"><g
           id="g98"
           transform="translate(87.5,50)"><path
             d="m 0,0 c 0,-27.78 -9.72,-37.5 -37.5,-37.5 -27.78,0 -37.5,9.72 -37.5,37.5 0,7.77 0.76,14.12 2.46,19.25 H -2.46 C -0.76,14.12 0,7.77 0,0"
             style="fill:#f9f9e5;fill-opacity:1;fill-rule:nonzero;stroke:none"
             id="path100"
             inkscape:connector-curvature="0" /></g></g></g><g
       id="g102"
       transform="matrix(0.93750002,0,0,0.93750002,3.0000001,3.0000014)"><g
         id="g104"
         clip-path="url(#clipPath108)"><g
           id="g110"><g
             id="g112"><path
               d="M 14.96,69.25 H 85.04 C 80.651,82.46 70.01,87.5 50,87.5 v 0 C 29.99,87.5 19.35,82.46 14.96,69.25"
               style="fill:url(#linearGradient122);stroke:none"
               id="path124"
               inkscape:connector-curvature="0" /></g></g></g></g><g
       id="g130"
       transform="matrix(0.93750002,0,0,0.93750002,3.0000001,3.0000014)"><g
         id="g132"
         clip-path="url(#clipPath136)"><g
           id="g138"
           transform="translate(35.6387,32.1074)"><path
             d="m 0,0 v 2.048 l 8.991,11.423 c 0.864,1.12 1.28,2.112 1.28,3.36 0,2.464 -1.472,4.096 -3.967,4.096 -2.112,0 -3.968,-1.184 -3.968,-4.128 H 0.032 c 0,3.584 2.464,6.176 6.272,6.176 3.743,0 6.271,-2.4 6.271,-6.144 0,-1.824 -0.576,-3.008 -1.824,-4.608 L 2.784,2.048 h 9.791 V 0 Z"
             style="fill:#000000;fill-opacity:1;fill-rule:nonzero;stroke:none"
             id="path140"
             inkscape:connector-curvature="0" /></g><g
           id="g142"
           transform="translate(63.126,33.5791)"><path
             d="m 0,0 c -1.056,-1.056 -2.527,-1.695 -4.544,-1.695 -1.983,0 -3.583,0.639 -4.575,1.632 -0.992,1.023 -1.472,2.335 -1.6,3.967 h 2.304 c 0.288,-2.272 1.472,-3.551 3.871,-3.551 1.12,0 2.145,0.383 2.816,1.055 1.184,1.184 1.249,3.008 1.249,4.64 0,2.784 -0.544,5.535 -3.84,5.535 -1.985,0 -3.328,-0.895 -3.777,-2.239 h -2.079 V 21.311 H 1.344 v -2.048 h -9.44 v -7.232 c 0.897,0.992 2.305,1.569 4.096,1.569 1.696,0 3.04,-0.544 3.937,-1.441 C 1.6,10.495 1.824,8.191 1.824,6.048 1.824,3.776 1.632,1.632 0,0"
             style="fill:#000000;fill-opacity:1;fill-rule:nonzero;stroke:none"
             id="path144"
             inkscape:connector-curvature="0" /></g></g></g><g
       id="g146"
       transform="matrix(0.93750002,0,0,0.93750002,3.0000001,3.0000014)"><g
         id="g148"
         clip-path="url(#clipPath152)"><g
           id="g154"><g
             id="g156" /><g
             id="g180"
             mask="url(#mask168)"><g
               id="g182"><path
                 d="m 55.031,52.843 -1.383,-6.595 -7.084,7.085 -6.126,0.729 -4.767,-5.156 7.034,-7.034 -7.066,-9.765 19.483,-19.483 c 10.614,0.533 18.186,2.851 23.327,7.541 v 0 c 0.063,0.054 0.124,0.112 0.185,0.17 v 0 c 0.159,0.149 0.325,0.294 0.481,0.448 v 0 l -0.021,0.02 c 3.2,3.179 5.399,7.359 6.735,12.728 v 0 L 64.47,54.89 Z"
                 style="fill:url(#linearGradient188);stroke:none"
                 id="path190"
                 inkscape:connector-curvature="0" /></g></g></g></g></g></g></svg>