<?xml version="1.0" encoding="UTF-8" standalone="no"?>
<!-- Created with Inkscape (http://www.inkscape.org/) -->

<svg
   xmlns:dc="http://purl.org/dc/elements/1.1/"
   xmlns:cc="http://creativecommons.org/ns#"
   xmlns:rdf="http://www.w3.org/1999/02/22-rdf-syntax-ns#"
   xmlns:svg="http://www.w3.org/2000/svg"
   xmlns="http://www.w3.org/2000/svg"
   xmlns:sodipodi="http://sodipodi.sourceforge.net/DTD/sodipodi-0.dtd"
   xmlns:inkscape="http://www.inkscape.org/namespaces/inkscape"
   version="1.1"
   id="svg2"
   xml:space="preserve"
   width="133.33333"
   height="133.33333"
   viewBox="0 0 133.33333 133.33333"
   sodipodi:docname="28.svg"
   inkscape:version="0.92.2 2405546, 2018-03-11"><metadata
     id="metadata8"><rdf:RDF><cc:Work
         rdf:about=""><dc:format>image/svg+xml</dc:format><dc:type
           rdf:resource="http://purl.org/dc/dcmitype/StillImage" /><dc:title /></cc:Work></rdf:RDF></metadata><defs
     id="defs6"><clipPath
       clipPathUnits="userSpaceOnUse"
       id="clipPath18"><path
         d="M 50,100 C 12.956,100 0,87.039 0,50 v 0 C 0,12.961 12.956,0 50,0 v 0 c 37.045,0 50,12.961 50,50 v 0 c 0,37.044 -12.955,50 -50,50 z"
         id="path16"
         inkscape:connector-curvature="0" /></clipPath><linearGradient
       x1="0"
       y1="0"
       x2="1"
       y2="0"
       gradientUnits="userSpaceOnUse"
       gradientTransform="matrix(77.78125,-77.78125,-77.78125,-77.78125,11.109896,88.891144)"
       spreadMethod="pad"
       id="linearGradient32"><stop
         style="stop-opacity:1;stop-color:#d6d6d6"
         offset="0"
         id="stop24" /><stop
         style="stop-opacity:1;stop-color:#d6d6d6"
         offset="0.14086381"
         id="stop26" /><stop
         style="stop-opacity:1;stop-color:#bdbdbd"
         offset="0.999999"
         id="stop28" /><stop
         style="stop-opacity:1;stop-color:#bdbdbd"
         offset="1"
         id="stop30" /></linearGradient><clipPath
       clipPathUnits="userSpaceOnUse"
       id="clipPath42"><path
         d="M 20.864,20.802 41.388,0.276 C 44.106,0.096 46.965,0 50,0 v 0 c 37.045,0 50,12.961 50,50 v 0 c 0,3.025 -0.096,5.874 -0.275,8.583 v 0 l -20.539,20.54 z"
         id="path40"
         inkscape:connector-curvature="0" /></clipPath><clipPath
       clipPathUnits="userSpaceOnUse"
       id="clipPath50"><path
         d="M -32768,32767 H 32767 V -32768 H -32768 Z"
         id="path48"
         inkscape:connector-curvature="0" /></clipPath><linearGradient
       x1="0"
       y1="0"
       x2="1"
       y2="0"
       gradientUnits="userSpaceOnUse"
       gradientTransform="matrix(38.859554,-38.859554,-38.859554,-38.859554,50.024429,49.962296)"
       spreadMethod="pad"
       id="linearGradient60"><stop
         style="stop-opacity:0.07998779;stop-color:#ffffff"
         offset="0"
         id="stop52" /><stop
         style="stop-opacity:0.07998779;stop-color:#ffffff"
         offset="0.10378165"
         id="stop54" /><stop
         style="stop-opacity:0;stop-color:#ffffff"
         offset="0.736751"
         id="stop56" /><stop
         style="stop-opacity:0;stop-color:#ffffff"
         offset="1"
         id="stop58" /></linearGradient><mask
       maskUnits="userSpaceOnUse"
       x="0"
       y="0"
       width="1"
       height="1"
       id="mask62"><g
         id="g72"><g
           clip-path="url(#clipPath50)"
           id="g70"><g
             id="g68"><g
               id="g66"><path
                 d="M -32768,32767 H 32767 V -32768 H -32768 Z"
                 style="fill:url(#linearGradient60);stroke:none"
                 id="path64"
                 inkscape:connector-curvature="0" /></g></g></g></g></mask><linearGradient
       x1="0"
       y1="0"
       x2="1"
       y2="0"
       gradientUnits="userSpaceOnUse"
       gradientTransform="matrix(38.859554,-38.859554,-38.859554,-38.859554,50.024429,49.962296)"
       spreadMethod="pad"
       id="linearGradient86"><stop
         style="stop-opacity:1;stop-color:#000000"
         offset="0"
         id="stop78" /><stop
         style="stop-opacity:1;stop-color:#000000"
         offset="0.10378165"
         id="stop80" /><stop
         style="stop-opacity:1;stop-color:#000000"
         offset="0.736751"
         id="stop82" /><stop
         style="stop-opacity:1;stop-color:#000000"
         offset="1"
         id="stop84" /></linearGradient><clipPath
       clipPathUnits="userSpaceOnUse"
       id="clipPath96"><path
         d="M 0,100 H 100 V 0 H 0 Z"
         id="path94"
         inkscape:connector-curvature="0" /></clipPath><clipPath
       clipPathUnits="userSpaceOnUse"
       id="clipPath108"><path
         d="M 14.96,69.25 H 85.04 C 80.651,82.46 70.01,87.5 50,87.5 v 0 C 29.99,87.5 19.35,82.46 14.96,69.25"
         id="path106"
         inkscape:connector-curvature="0" /></clipPath><linearGradient
       x1="0"
       y1="0"
       x2="1"
       y2="0"
       gradientUnits="userSpaceOnUse"
       gradientTransform="matrix(37.063171,-37.063171,-37.063171,-37.063171,31.468412,89.804779)"
       spreadMethod="pad"
       id="linearGradient122"><stop
         style="stop-opacity:1;stop-color:#fa956a"
         offset="0"
         id="stop114" /><stop
         style="stop-opacity:1;stop-color:#fa956a"
         offset="0.14086381"
         id="stop116" /><stop
         style="stop-opacity:1;stop-color:#fe4b47"
         offset="0.999999"
         id="stop118" /><stop
         style="stop-opacity:1;stop-color:#fe4b47"
         offset="1"
         id="stop120" /></linearGradient><clipPath
       clipPathUnits="userSpaceOnUse"
       id="clipPath136"><path
         d="M 0,100 H 100 V 0 H 0 Z"
         id="path134"
         inkscape:connector-curvature="0" /></clipPath><clipPath
       clipPathUnits="userSpaceOnUse"
       id="clipPath152"><path
         d="m 35.671,48.906 7.034,-7.034 -7.066,-9.765 19.483,-19.483 c 11.077,0.556 18.846,3.048 23.993,8.159 v 0 l -0.019,0.018 c 2.721,2.702 4.721,6.128 6.076,10.397 v 0 l -22.112,22.11 -6.56,0.255 -3.75,-4.125 0.503,-2.794 -6.689,6.689 -6.126,0.729 z"
         id="path150"
         inkscape:connector-curvature="0" /></clipPath><clipPath
       clipPathUnits="userSpaceOnUse"
       id="clipPath160"><path
         d="M -32768,32767 H 32767 V -32768 H -32768 Z"
         id="path158"
         inkscape:connector-curvature="0" /></clipPath><linearGradient
       x1="0"
       y1="0"
       x2="1"
       y2="0"
       gradientUnits="userSpaceOnUse"
       gradientTransform="matrix(35.978119,-35.978119,-35.978119,-35.978119,39.216278,52.841278)"
       spreadMethod="pad"
       id="linearGradient166"><stop
         style="stop-opacity:0.07998779;stop-color:#ffffff"
         offset="0"
         id="stop162" /><stop
         style="stop-opacity:0;stop-color:#ffffff"
         offset="1"
         id="stop164" /></linearGradient><mask
       maskUnits="userSpaceOnUse"
       x="0"
       y="0"
       width="1"
       height="1"
       id="mask168"><g
         id="g178"><g
           clip-path="url(#clipPath160)"
           id="g176"><g
             id="g174"><g
               id="g172"><path
                 d="M -32768,32767 H 32767 V -32768 H -32768 Z"
                 style="fill:url(#linearGradient166);stroke:none"
                 id="path170"
                 inkscape:connector-curvature="0" /></g></g></g></g></mask><linearGradient
       x1="0"
       y1="0"
       x2="1"
       y2="0"
       gradientUnits="userSpaceOnUse"
       gradientTransform="matrix(35.978119,-35.978119,-35.978119,-35.978119,39.216278,52.841278)"
       spreadMethod="pad"
       id="linearGradient188"><stop
         style="stop-opacity:1;stop-color:#231815"
         offset="0"
         id="stop184" /><stop
         style="stop-opacity:1;stop-color:#231815"
         offset="1"
         id="stop186" /></linearGradient></defs><sodipodi:namedview
     pagecolor="#ffffff"
     bordercolor="#666666"
     borderopacity="1"
     objecttolerance="10"
     gridtolerance="10"
     guidetolerance="10"
     inkscape:pageopacity="0"
     inkscape:pageshadow="2"
     inkscape:window-width="1366"
     inkscape:window-height="706"
     id="namedview4"
     showgrid="false"
     inkscape:zoom="1.77"
     inkscape:cx="107.32436"
     inkscape:cy="8.5892277"
     inkscape:window-x="0"
     inkscape:window-y="34"
     inkscape:window-maximized="1"
     inkscape:current-layer="g10" /><g
     id="g10"
     inkscape:groupmode="layer"
     inkscape:label="calendar 28"
     transform="matrix(1.3333333,0,0,-1.3333333,0,133.33333)"><g
       id="g12"
       transform="matrix(0.93750002,0,0,0.93750002,3.0000001,3.0000014)"><g
         id="g14"
         clip-path="url(#clipPath18)"><g
           id="g20"><g
             id="g22"><path
               d="M 50,100 C 12.956,100 0,87.039 0,50 v 0 C 0,12.961 12.956,0 50,0 v 0 c 37.045,0 50,12.961 50,50 v 0 c 0,37.044 -12.955,50 -50,50 z"
               style="fill:url(#linearGradient32);stroke:none"
               id="path34"
               inkscape:connector-curvature="0" /></g></g></g></g><g
       id="g36"
       transform="matrix(0.93750002,0,0,0.93750002,3.0000001,3.0000014)"><g
         id="g38"
         clip-path="url(#clipPath42)"><g
           id="g44"><g
             id="g46" /><g
             id="g74"
             mask="url(#mask62)"><g
               id="g76"><path
                 d="M 20.864,20.802 41.388,0.276 C 44.106,0.096 46.965,0 50,0 v 0 c 37.045,0 50,12.961 50,50 v 0 c 0,3.025 -0.096,5.874 -0.275,8.583 v 0 l -20.539,20.54 z"
                 style="fill:url(#linearGradient86);stroke:none"
                 id="path88"
                 inkscape:connector-curvature="0" /></g></g></g></g></g><g
       id="g90"
       transform="matrix(0.93750002,0,0,0.93750002,3.0000001,3.0000014)"><g
         id="g92"
         clip-path="url(#clipPath96)"><g
           id="g98"
           transform="translate(87.5,50)"><path
             d="m 0,0 c 0,-27.78 -9.72,-37.5 -37.5,-37.5 -27.78,0 -37.5,9.72 -37.5,37.5 0,7.77 0.76,14.12 2.46,19.25 H -2.46 C -0.76,14.12 0,7.77 0,0"
             style="fill:#f9f9e5;fill-opacity:1;fill-rule:nonzero;stroke:none"
             id="path100"
             inkscape:connector-curvature="0" /></g></g></g><g
       id="g102"
       transform="matrix(0.93750002,0,0,0.93750002,3.0000001,3.0000014)"><g
         id="g104"
         clip-path="url(#clipPath108)"><g
           id="g110"><g
             id="g112"><path
               d="M 14.96,69.25 H 85.04 C 80.651,82.46 70.01,87.5 50,87.5 v 0 C 29.99,87.5 19.35,82.46 14.96,69.25"
               style="fill:url(#linearGradient122);stroke:none"
               id="path124"
               inkscape:connector-curvature="0" /></g></g></g></g><g
       id="g130"
       transform="matrix(0.93750002,0,0,0.93750002,3.0000001,3.0000014)"><g
         id="g132"
         clip-path="url(#clipPath136)"><g
           id="g138"
           transform="translate(35.6387,32.1074)"><path
             d="m 0,0 v 2.048 l 8.991,11.423 c 0.864,1.12 1.28,2.112 1.28,3.36 0,2.464 -1.472,4.096 -3.967,4.096 -2.112,0 -3.968,-1.184 -3.968,-4.128 H 0.032 c 0,3.584 2.464,6.176 6.272,6.176 3.743,0 6.271,-2.4 6.271,-6.144 0,-1.824 -0.576,-3.008 -1.824,-4.608 L 2.784,2.048 h 9.791 V 0 Z"
             style="fill:#000000;fill-opacity:1;fill-rule:nonzero;stroke:none"
             id="path140"
             inkscape:connector-curvature="0" /></g><g
           id="g142"
           transform="translate(58.5186,53.0342)"><path
             d="m 0,0 c -2.336,0 -3.968,-1.728 -3.968,-4.096 0,-2.4 1.632,-4.064 3.968,-4.064 2.336,0 3.968,1.664 3.968,4.064 C 3.968,-1.728 2.336,0 0,0 m 0,-10.176 c -2.496,0 -4.416,-1.92 -4.416,-4.447 0,-2.528 1.92,-4.448 4.416,-4.448 2.496,0 4.415,1.92 4.415,4.448 0,2.527 -1.919,4.447 -4.415,4.447 m 0,-10.943 c -3.776,0 -6.72,2.624 -6.72,6.464 0,2.656 1.504,4.447 3.424,5.536 -1.792,1.023 -2.975,2.687 -2.975,5.056 0,3.551 2.655,6.111 6.271,6.111 3.615,0 6.271,-2.56 6.271,-6.111 0,-2.369 -1.152,-4.033 -2.944,-5.056 1.92,-1.089 3.393,-2.88 3.393,-5.536 0,-3.84 -2.945,-6.464 -6.72,-6.464"
             style="fill:#000000;fill-opacity:1;fill-rule:nonzero;stroke:none"
             id="path144"
             inkscape:connector-curvature="0" /></g></g></g><g
       id="g146"
       transform="matrix(0.93750002,0,0,0.93750002,3.0000001,3.0000014)"><g
         id="g148"
         clip-path="url(#clipPath152)"><g
           id="g154"><g
             id="g156" /><g
             id="g180"
             mask="url(#mask168)"><g
               id="g182"><path
                 d="m 35.671,48.906 7.034,-7.034 -7.066,-9.765 19.483,-19.483 c 11.077,0.556 18.846,3.048 23.993,8.159 v 0 l -0.019,0.018 c 2.721,2.702 4.721,6.128 6.076,10.397 v 0 l -22.112,22.11 -6.56,0.255 -3.75,-4.125 0.503,-2.794 -6.689,6.689 -6.126,0.729 z"
                 style="fill:url(#linearGradient188);stroke:none"
                 id="path190"
                 inkscape:connector-curvature="0" /></g></g></g></g></g></g></svg>