<svg xmlns="http://www.w3.org/2000/svg" xmlns:xlink="http://www.w3.org/1999/xlink" width="192" height="192" viewBox="0 0 192 192">
  <defs>
    <style>
      .cls-1 {
        fill: none;
      }

      .cls-2 {
        opacity: 0.01;
      }

      .cls-2, .cls-3, .cls-4, .cls-5 {
        isolation: isolate;
      }

      .cls-3 {
        opacity: 0.02;
      }

      .cls-4 {
        opacity: 0.04;
      }

      .cls-5 {
        opacity: 0.06;
      }

      .cls-6 {
        fill: #ffa300;
      }

      .cls-7 {
        fill: url(#未命名的渐变_6);
      }

      .cls-8 {
        fill: #ffc200;
      }

      .cls-9 {
        fill: #ffd522;
      }

      .cls-10 {
        fill: url(#未命名的渐变_5);
      }

      .cls-11 {
        fill: url(#未命名的渐变_3);
      }

      .cls-12 {
        fill: url(#未命名的渐变_12);
      }

      .cls-13 {
        fill: #e58d00;
      }
    </style>
    <linearGradient id="未命名的渐变_6" data-name="未命名的渐变 6" x1="100.5" y1="-174" x2="100.5" y2="-130" gradientTransform="matrix(1, 0, 0, -1, 0, -124)" gradientUnits="userSpaceOnUse">
      <stop offset="0" stop-color="#b96400" stop-opacity="0.4"/>
      <stop offset="0.225" stop-color="#d17e00" stop-opacity="0.265"/>
      <stop offset="0.527" stop-color="#ea9900" stop-opacity="0.12"/>
      <stop offset="0.795" stop-color="#faaa00" stop-opacity="0.031"/>
      <stop offset="1" stop-color="#ffb000" stop-opacity="0"/>
    </linearGradient>
    <linearGradient id="未命名的渐变_5" data-name="未命名的渐变 5" x1="166.012" y1="802.012" x2="25.988" y2="661.988" gradientTransform="translate(0 -636)" gradientUnits="userSpaceOnUse">
      <stop offset="0" stop-opacity="0.1"/>
      <stop offset="0.5" stop-color="gray" stop-opacity="0.05"/>
      <stop offset="1" stop-color="#fff" stop-opacity="0.12"/>
    </linearGradient>
    <linearGradient id="未命名的渐变_3" data-name="未命名的渐变 3" x1="166.013" y1="754.012" x2="25.987" y2="613.988" gradientTransform="translate(0 -588)" gradientUnits="userSpaceOnUse">
      <stop offset="0" stop-opacity="0.04"/>
      <stop offset="0.5" stop-color="gray" stop-opacity="0"/>
      <stop offset="1" stop-color="#fff" stop-opacity="0.1"/>
    </linearGradient>
    <linearGradient id="未命名的渐变_12" data-name="未命名的渐变 12" x1="133.335" y1="139.326" x2="68.761" y2="74.752" gradientUnits="userSpaceOnUse">
      <stop offset="0" stop-color="#f0a000"/>
      <stop offset="1" stop-color="#e59500"/>
    </linearGradient>
  </defs>
  <title>folder_shopping</title>
  <g id="图层_2" data-name="图层 2">
    <g id="图层_1-2" data-name="图层 1">
      <rect class="cls-1" width="192" height="192"/>
      <g>
        <path class="cls-2" d="M96,190C27.3,190,3,165.7,3,97S27.3,4,96,4s93,24.3,93,93S164.7,190,96,190Z"/>
        <path class="cls-3" d="M96,189C28.1,189,4,164.9,4,97S28.1,5,96,5s92,24.1,92,92S163.9,189,96,189Z"/>
        <path class="cls-4" d="M96,188C28.8,188,5,164.2,5,97S28.8,6,96,6s91,23.8,91,91S163.2,188,96,188Z"/>
        <path class="cls-5" d="M186,97c0,66.7-23.3,90-90,90S6,163.7,6,97,29.3,7,96,7,186,30.3,186,97Z"/>
      </g>
      <path class="cls-6" d="M186,96c0,66.7-23.3,90-90,90S6,162.7,6,96,29.3,6,96,6,186,29.3,186,96Z"/>
      <path class="cls-7" d="M71.2,38c5.8,7.7,8.6,10.8,9.6,11.7a1.135,1.135,0,0,0,.8.3h98.6C169.7,18.1,144.2,6,96,6,58.3,6,34.4,13.5,20.8,32H59.2A14.255,14.255,0,0,1,71.2,38Z"/>
      <path class="cls-8" d="M6,96c0,66.7,23.3,90,90,90s90-23.3,90-90c0-18.5-1.8-33.7-5.8-46H81.6a1.135,1.135,0,0,1-.8-.3A120.582,120.582,0,0,1,71.2,38a14.734,14.734,0,0,0-11.9-6H20.9C10.4,46.2,6,67,6,96Z"/>
      <path class="cls-9" d="M7,98c0-29,4.4-49.8,14.9-64H60.3a14.2,14.2,0,0,1,11.9,6c5.8,7.7,8.6,10.8,9.6,11.7a1.135,1.135,0,0,0,.8.3h98.2c-.2-.7-.4-1.3-.6-2H81.6a1.135,1.135,0,0,1-.8-.3A120.582,120.582,0,0,1,71.2,38a14.734,14.734,0,0,0-11.9-6H20.9C10.4,46.2,6,67,6,96c0,24.3,3.1,42.9,10.3,56.6C9.8,139.1,7,121.2,7,98Z"/>
      <path class="cls-10" d="M186,96c0,66.7-23.3,90-90,90S6,162.7,6,96,29.3,6,96,6,186,29.3,186,96Z"/>
      <path class="cls-11" d="M96,6C29.3,6,6,29.3,6,96s23.3,90,90,90,90-23.3,90-90S162.7,6,96,6Zm68.6,158.6C151.2,178,130,184,96,184s-55.2-6-68.6-19.4S8,130,8,96s6-55.2,19.4-68.6S62,8,96,8s55.2,6,68.6,19.4S184,62,184,96,178,151.2,164.6,164.6Z"/>
      <path class="cls-9" d="M145,75.333v2.334A2.334,2.334,0,0,1,142.667,80h-7.932a1.709,1.709,0,0,0-1.64,1.23l-11.761,42.752,4.466,8.9A3.215,3.215,0,0,1,123.2,138H67.263C65,138,63,137,63,134s2-4,4.334-4h48.54l-3.154-6h-39.5a4.878,4.878,0,0,1-4.628-3.336L58.42,91.154A3.916,3.916,0,0,1,62.135,86h61.54l3.437-11.1a2.642,2.642,0,0,1,2.536-1.9h13.019A2.334,2.334,0,0,1,145,75.333Zm-72.093,66.59a6.462,6.462,0,1,0,6.462,6.462A6.462,6.462,0,0,0,72.907,141.923Zm45.231,0a6.462,6.462,0,1,0,6.462,6.462A6.462,6.462,0,0,0,118.138,141.923Z"/>
      <path class="cls-12" d="M144,73.333v2.334A2.334,2.334,0,0,1,141.667,78h-7.932a1.709,1.709,0,0,0-1.64,1.23l-11.761,42.752,4.466,8.9A3.215,3.215,0,0,1,122.2,136H66.263C64,136,62,135,62,132s2-4,4.334-4h48.54l-3.154-6h-39.5a4.878,4.878,0,0,1-4.628-3.336L57.42,89.154A3.916,3.916,0,0,1,61.135,84h61.54l3.437-11.1a2.642,2.642,0,0,1,2.536-1.9h13.019A2.334,2.334,0,0,1,144,73.333Zm-72.093,66.59a6.462,6.462,0,1,0,6.462,6.462A6.462,6.462,0,0,0,71.907,139.923Zm45.231,0a6.462,6.462,0,1,0,6.462,6.462A6.462,6.462,0,0,0,117.138,139.923Z"/>
      <g>
        <path class="cls-13" d="M111.677,148.385a6.455,6.455,0,0,1,11.655-3.832,6.459,6.459,0,1,0-11.388,5.664A6.451,6.451,0,0,1,111.677,148.385Z"/>
        <path class="cls-13" d="M68.418,120.163l-10-29.009A3.916,3.916,0,0,1,62.135,86h61.54l3.437-11.1a2.642,2.642,0,0,1,2.536-1.9h13.019a2.321,2.321,0,0,1,1.333.422v-.089A2.334,2.334,0,0,0,141.667,71H128.648a2.642,2.642,0,0,0-2.536,1.9L122.675,84H61.135a3.916,3.916,0,0,0-3.715,5.154l10.17,29.51A4.838,4.838,0,0,0,68.418,120.163Z"/>
        <path class="cls-13" d="M125.283,131.847a3.7,3.7,0,0,0-.483-.97l-3.464-6.9,0,.006Z"/>
        <path class="cls-13" d="M63,134c0-3,2-4,4.334-4h48.54l-1.051-2H66.334C64,128,62,129,62,132a3.843,3.843,0,0,0,1.08,2.919A5.576,5.576,0,0,1,63,134Z"/>
        <path class="cls-13" d="M66.446,148.385A6.456,6.456,0,0,1,78.1,144.553a6.459,6.459,0,1,0-11.389,5.664A6.487,6.487,0,0,1,66.446,148.385Z"/>
      </g>
    </g>
  </g>
</svg>
