<?xml version="1.0" encoding="UTF-8" standalone="no"?>
<svg
   xmlns:dc="http://purl.org/dc/elements/1.1/"
   xmlns:cc="http://creativecommons.org/ns#"
   xmlns:rdf="http://www.w3.org/1999/02/22-rdf-syntax-ns#"
   xmlns:svg="http://www.w3.org/2000/svg"
   xmlns="http://www.w3.org/2000/svg"
   xmlns:sodipodi="http://sodipodi.sourceforge.net/DTD/sodipodi-0.dtd"
   xmlns:inkscape="http://www.inkscape.org/namespaces/inkscape"
   viewBox="0 0 133.33333 133.33333"
   height="133.33333"
   width="133.33333"
   xml:space="preserve"
   id="svg2"
   version="1.1"
   sodipodi:docname="icon-launcher-phone.svg"
   inkscape:version="0.92.2 2405546, 2018-03-11"><sodipodi:namedview
     pagecolor="#ffffff"
     bordercolor="#666666"
     borderopacity="1"
     objecttolerance="10"
     gridtolerance="10"
     guidetolerance="10"
     inkscape:pageopacity="0"
     inkscape:pageshadow="2"
     inkscape:window-width="1366"
     inkscape:window-height="717"
     id="namedview60"
     showgrid="false"
     inkscape:zoom="1.7700001"
     inkscape:cx="66.666664"
     inkscape:cy="66.666664"
     inkscape:window-x="0"
     inkscape:window-y="25"
     inkscape:window-maximized="1"
     inkscape:current-layer="svg2" /><metadata
     id="metadata8"><rdf:RDF><cc:Work
         rdf:about=""><dc:format>image/svg+xml</dc:format><dc:type
           rdf:resource="http://purl.org/dc/dcmitype/StillImage" /></cc:Work></rdf:RDF></metadata><defs
     id="defs6"><clipPath
       id="clipPath18"
       clipPathUnits="userSpaceOnUse"><path
         id="path16"
         d="M 50,100 C 12.956,100 0,87.039 0,50 v 0 C 0,12.961 12.956,0 50,0 v 0 c 37.045,0 50,12.961 50,50 v 0 c 0,37.044 -12.955,50 -50,50 z" /></clipPath><linearGradient
       id="linearGradient30"
       spreadMethod="pad"
       gradientTransform="matrix(77.78125,-77.78125,-77.78125,-77.78125,11.109896,88.891144)"
       gradientUnits="userSpaceOnUse"
       y2="0"
       x2="1"
       y1="0"
       x1="0"><stop
         id="stop24"
         offset="0"
         style="stop-opacity:1;stop-color:#84de7c" /><stop
         id="stop26"
         offset="1"
         style="stop-opacity:1;stop-color:#24917e" /><stop
         id="stop28"
         offset="1"
         style="stop-opacity:1;stop-color:#24917e" /></linearGradient><clipPath
       id="clipPath40"
       clipPathUnits="userSpaceOnUse"><path
         id="path38"
         d="M 30.25,75.625 36.186,36.271 70.564,1.894 c 13.213,2.935 21.32,9.485 25.594,20.901 v 0 L 39.086,79.867 Z" /></clipPath><clipPath
       id="clipPath48"
       clipPathUnits="userSpaceOnUse"><path
         id="path46"
         d="M -32768,32767 H 32767 V -32768 H -32768 Z" /></clipPath><linearGradient
       id="linearGradient56"
       spreadMethod="pad"
       gradientTransform="matrix(61.567585,-61.567585,-61.567585,-61.567585,25.165085,70.540085)"
       gradientUnits="userSpaceOnUse"
       y2="0"
       x2="1"
       y1="0"
       x1="0"><stop
         id="stop50"
         offset="0"
         style="stop-opacity:0.09999237;stop-color:#ffffff" /><stop
         id="stop52"
         offset="0.887179"
         style="stop-opacity:0;stop-color:#ffffff" /><stop
         id="stop54"
         offset="1"
         style="stop-opacity:0;stop-color:#ffffff" /></linearGradient><mask
       id="mask58"
       height="1"
       width="1"
       y="0"
       x="0"
       maskUnits="userSpaceOnUse"><g
         id="g68"><g
           id="g66"
           clip-path="url(#clipPath48)"><g
             id="g64"><g
               id="g62"><path
                 id="path60"
                 style="fill:url(#linearGradient56);stroke:none"
                 d="M -32768,32767 H 32767 V -32768 H -32768 Z" /></g></g></g></g></mask><linearGradient
       id="linearGradient80"
       spreadMethod="pad"
       gradientTransform="matrix(61.567585,-61.567585,-61.567585,-61.567585,25.165085,70.540085)"
       gradientUnits="userSpaceOnUse"
       y2="0"
       x2="1"
       y1="0"
       x1="0"><stop
         id="stop74"
         offset="0"
         style="stop-opacity:1;stop-color:#000000" /><stop
         id="stop76"
         offset="0.887179"
         style="stop-opacity:1;stop-color:#000000" /><stop
         id="stop78"
         offset="1"
         style="stop-opacity:1;stop-color:#000000" /></linearGradient><clipPath
       id="clipPath90"
       clipPathUnits="userSpaceOnUse"><path
         id="path88"
         d="m 19.012,67.65 c 1.54,-7.239 4.33,-14.009 8.141,-20.08 v 0 C 32.342,39.261 39.434,32.27 47.822,27.2 v 0 c 5.881,-3.569 12.401,-6.19 19.341,-7.659 v 0 c 6.63,-1.391 12.86,3.67 12.99,10.399 v 0 c -8.57,0 -16.64,2.121 -23.72,5.87 v 0 c -0.05,0.031 -0.09,0.051 -0.13,0.071 v 0 c -0.47,0.25 -0.94,0.51 -1.41,0.78 v 0 c -0.03,0.019 -0.051,0.029 -0.08,0.05 v 0 c -0.48,0.279 -0.961,0.56 -1.44,0.869 v 0 c -0.08,0.04 -0.161,0.091 -0.241,0.151 v 0 c -0.399,0.24 -0.789,0.499 -1.179,0.759 v 0 c -0.19,0.13 -0.379,0.25 -0.57,0.391 v 0 c -0.37,0.25 -0.74,0.509 -1.1,0.779 v 0 c -0.05,0.03 -0.09,0.061 -0.14,0.091 v 0 c -0.48,0.359 -0.95,0.719 -1.41,1.09 v 0 c -0.48,0.38 -0.96,0.77 -1.42,1.16 v 0 c -1.17,0.989 -2.29,2.03 -3.361,3.119 v 0 c -1.069,1.1 -2.089,2.241 -3.059,3.421 v 0 c -0.39,0.469 -0.77,0.95 -1.14,1.44 v 0 c -0.37,0.479 -0.741,0.98 -1.09,1.479 v 0 c -0.67,0.951 -1.31,1.921 -1.91,2.911 v 0 c -0.13,0.21 -0.25,0.419 -0.38,0.63 v 0 c -0.19,0.329 -0.39,0.669 -0.57,1.01 v 0 c -0.03,0.039 -0.05,0.08 -0.08,0.129 v 0 c -4.03,7.28 -6.32,15.65 -6.32,24.55 v 0 C 22.643,80.55 17.613,74.3 19.012,67.65" /></clipPath><linearGradient
       id="linearGradient100"
       spreadMethod="pad"
       gradientTransform="matrix(55.024777,-55.024777,-55.024777,-55.024777,17.857698,73.417007)"
       gradientUnits="userSpaceOnUse"
       y2="0"
       x2="1"
       y1="0"
       x1="0"><stop
         id="stop96"
         offset="0"
         style="stop-opacity:1;stop-color:#6ef595" /><stop
         id="stop98"
         offset="1"
         style="stop-opacity:1;stop-color:#4ae07f" /></linearGradient><clipPath
       id="clipPath110"
       clipPathUnits="userSpaceOnUse"><path
         id="path108"
         d="M 0,100 H 100 V 0 H 0 Z" /></clipPath></defs><g
     transform="matrix(1.25,0,0,-1.25,4,129.33333)"
     id="g10"><g
       id="g12"><g
         clip-path="url(#clipPath18)"
         id="g14"><g
           id="g20"><g
             id="g22"><path
               id="path32"
               style="fill:url(#linearGradient30);stroke:none"
               d="M 50,100 C 12.956,100 0,87.039 0,50 v 0 C 0,12.961 12.956,0 50,0 v 0 c 37.045,0 50,12.961 50,50 v 0 c 0,37.044 -12.955,50 -50,50 z"
               inkscape:connector-curvature="0" /></g></g></g></g><g
       id="g34"><g
         clip-path="url(#clipPath40)"
         id="g36"><g
           id="g42"><g
             id="g44" /><g
             mask="url(#mask58)"
             id="g70"><g
               id="g72"><path
                 id="path82"
                 style="fill:url(#linearGradient80);stroke:none"
                 d="M 30.25,75.625 36.186,36.271 70.564,1.894 c 13.213,2.935 21.32,9.485 25.594,20.901 v 0 L 39.086,79.867 Z"
                 inkscape:connector-curvature="0" /></g></g></g></g></g><g
       id="g84"><g
         clip-path="url(#clipPath90)"
         id="g86"><g
           id="g92"><g
             id="g94"><path
               id="path102"
               style="fill:url(#linearGradient100);stroke:none"
               d="m 19.012,67.65 c 1.54,-7.239 4.33,-14.009 8.141,-20.08 v 0 C 32.342,39.261 39.434,32.27 47.822,27.2 v 0 c 5.881,-3.569 12.401,-6.19 19.341,-7.659 v 0 c 6.63,-1.391 12.86,3.67 12.99,10.399 v 0 c -8.57,0 -16.64,2.121 -23.72,5.87 v 0 c -0.05,0.031 -0.09,0.051 -0.13,0.071 v 0 c -0.47,0.25 -0.94,0.51 -1.41,0.78 v 0 c -0.03,0.019 -0.051,0.029 -0.08,0.05 v 0 c -0.48,0.279 -0.961,0.56 -1.44,0.869 v 0 c -0.08,0.04 -0.161,0.091 -0.241,0.151 v 0 c -0.399,0.24 -0.789,0.499 -1.179,0.759 v 0 c -0.19,0.13 -0.379,0.25 -0.57,0.391 v 0 c -0.37,0.25 -0.74,0.509 -1.1,0.779 v 0 c -0.05,0.03 -0.09,0.061 -0.14,0.091 v 0 c -0.48,0.359 -0.95,0.719 -1.41,1.09 v 0 c -0.48,0.38 -0.96,0.77 -1.42,1.16 v 0 c -1.17,0.989 -2.29,2.03 -3.361,3.119 v 0 c -1.069,1.1 -2.089,2.241 -3.059,3.421 v 0 c -0.39,0.469 -0.77,0.95 -1.14,1.44 v 0 c -0.37,0.479 -0.741,0.98 -1.09,1.479 v 0 c -0.67,0.951 -1.31,1.921 -1.91,2.911 v 0 c -0.13,0.21 -0.25,0.419 -0.38,0.63 v 0 c -0.19,0.329 -0.39,0.669 -0.57,1.01 v 0 c -0.03,0.039 -0.05,0.08 -0.08,0.129 v 0 c -4.03,7.28 -6.32,15.65 -6.32,24.55 v 0 C 22.643,80.55 17.613,74.3 19.012,67.65"
               inkscape:connector-curvature="0" /></g></g></g></g><g
       id="g104"><g
         clip-path="url(#clipPath110)"
         id="g106"><g
           transform="translate(37.793,58.2104)"
           id="g112"><path
             id="path114"
             style="fill:#74fdb9;fill-opacity:1;fill-rule:nonzero;stroke:none"
             d="M 0,0 -2.07,-2.07 C -6.1,5.21 -8.39,13.58 -8.39,22.48 h 7.71 c 1.49,0 2.7,-1.17 2.8,-2.65 0.17,-2.67 0.6,-5.26 1.26,-7.76 C 4.53,7.76 3.16,3.16 0,0"
             inkscape:connector-curvature="0" /></g><g
           transform="translate(80.1533,37.6602)"
           id="g116"><path
             id="path118"
             style="fill:#74fdb9;fill-opacity:1;fill-rule:nonzero;stroke:none"
             d="m 0,0 v -7.72 c -8.57,0 -16.641,2.12 -23.721,5.87 l 2.271,2.27 c 3.109,3.11 7.62,4.461 11.889,3.421 C -7.32,3.29 -5,2.94 -2.631,2.78 -1.15,2.69 0,1.48 0,0"
             inkscape:connector-curvature="0" /></g></g></g></g></svg>