<?xml version="1.0" encoding="UTF-8" standalone="no"?>
<svg
   xmlns:dc="http://purl.org/dc/elements/1.1/"
   xmlns:cc="http://creativecommons.org/ns#"
   xmlns:rdf="http://www.w3.org/1999/02/22-rdf-syntax-ns#"
   xmlns:svg="http://www.w3.org/2000/svg"
   xmlns="http://www.w3.org/2000/svg"
   xmlns:sodipodi="http://sodipodi.sourceforge.net/DTD/sodipodi-0.dtd"
   xmlns:inkscape="http://www.inkscape.org/namespaces/inkscape"
   viewBox="0 0 133.33333 133.33333"
   height="133.33333"
   width="133.33333"
   xml:space="preserve"
   id="svg2"
   version="1.1"
   sodipodi:docname="icon-launcher-calendar.svg"
   inkscape:version="0.92.2 2405546, 2018-03-11"><sodipodi:namedview
     pagecolor="#ffffff"
     bordercolor="#666666"
     borderopacity="1"
     objecttolerance="10"
     gridtolerance="10"
     guidetolerance="10"
     inkscape:pageopacity="0"
     inkscape:pageshadow="2"
     inkscape:window-width="1366"
     inkscape:window-height="717"
     id="namedview98"
     showgrid="false"
     inkscape:zoom="1.7700001"
     inkscape:cx="66.666664"
     inkscape:cy="66.666664"
     inkscape:window-x="0"
     inkscape:window-y="25"
     inkscape:window-maximized="1"
     inkscape:current-layer="svg2" /><metadata
     id="metadata8"><rdf:RDF><cc:Work
         rdf:about=""><dc:format>image/svg+xml</dc:format><dc:type
           rdf:resource="http://purl.org/dc/dcmitype/StillImage" /></cc:Work></rdf:RDF></metadata><defs
     id="defs6"><clipPath
       id="clipPath18"
       clipPathUnits="userSpaceOnUse"><path
         id="path16"
         d="M 50,100 C 12.956,100 0,87.039 0,50 v 0 C 0,12.961 12.956,0 50,0 v 0 c 37.045,0 50,12.961 50,50 v 0 c 0,37.044 -12.955,50 -50,50 z" /></clipPath><linearGradient
       id="linearGradient32"
       spreadMethod="pad"
       gradientTransform="matrix(77.78125,-77.78125,-77.78125,-77.78125,11.109896,88.891144)"
       gradientUnits="userSpaceOnUse"
       y2="0"
       x2="1"
       y1="0"
       x1="0"><stop
         id="stop24"
         offset="0"
         style="stop-opacity:1;stop-color:#d6d6d6" /><stop
         id="stop26"
         offset="0.14086381"
         style="stop-opacity:1;stop-color:#d6d6d6" /><stop
         id="stop28"
         offset="0.999999"
         style="stop-opacity:1;stop-color:#bdbdbd" /><stop
         id="stop30"
         offset="1"
         style="stop-opacity:1;stop-color:#bdbdbd" /></linearGradient><clipPath
       id="clipPath42"
       clipPathUnits="userSpaceOnUse"><path
         id="path40"
         d="M 20.864,20.802 41.388,0.276 C 44.106,0.096 46.965,0 50,0 v 0 c 37.045,0 50,12.961 50,50 v 0 c 0,3.025 -0.096,5.874 -0.275,8.583 v 0 l -20.539,20.54 z" /></clipPath><clipPath
       id="clipPath50"
       clipPathUnits="userSpaceOnUse"><path
         id="path48"
         d="M -32768,32767 H 32767 V -32768 H -32768 Z" /></clipPath><linearGradient
       id="linearGradient60"
       spreadMethod="pad"
       gradientTransform="matrix(38.859554,-38.859554,-38.859554,-38.859554,50.024429,49.962296)"
       gradientUnits="userSpaceOnUse"
       y2="0"
       x2="1"
       y1="0"
       x1="0"><stop
         id="stop52"
         offset="0"
         style="stop-opacity:0.07998779;stop-color:#ffffff" /><stop
         id="stop54"
         offset="0.10378165"
         style="stop-opacity:0.07998779;stop-color:#ffffff" /><stop
         id="stop56"
         offset="0.736751"
         style="stop-opacity:0;stop-color:#ffffff" /><stop
         id="stop58"
         offset="1"
         style="stop-opacity:0;stop-color:#ffffff" /></linearGradient><mask
       id="mask62"
       height="1"
       width="1"
       y="0"
       x="0"
       maskUnits="userSpaceOnUse"><g
         id="g72"><g
           id="g70"
           clip-path="url(#clipPath50)"><g
             id="g68"><g
               id="g66"><path
                 id="path64"
                 style="fill:url(#linearGradient60);stroke:none"
                 d="M -32768,32767 H 32767 V -32768 H -32768 Z" /></g></g></g></g></mask><linearGradient
       id="linearGradient86"
       spreadMethod="pad"
       gradientTransform="matrix(38.859554,-38.859554,-38.859554,-38.859554,50.024429,49.962296)"
       gradientUnits="userSpaceOnUse"
       y2="0"
       x2="1"
       y1="0"
       x1="0"><stop
         id="stop78"
         offset="0"
         style="stop-opacity:1;stop-color:#000000" /><stop
         id="stop80"
         offset="0.10378165"
         style="stop-opacity:1;stop-color:#000000" /><stop
         id="stop82"
         offset="0.736751"
         style="stop-opacity:1;stop-color:#000000" /><stop
         id="stop84"
         offset="1"
         style="stop-opacity:1;stop-color:#000000" /></linearGradient><clipPath
       id="clipPath96"
       clipPathUnits="userSpaceOnUse"><path
         id="path94"
         d="M 0,100 H 100 V 0 H 0 Z" /></clipPath><clipPath
       id="clipPath108"
       clipPathUnits="userSpaceOnUse"><path
         id="path106"
         d="m 56.8,51.863 5.317,-5.317 -0.174,-4.27 -13.604,13.603 -1.193,0.204 -5.979,0.417 -3.438,-4.509 6.172,-6.173 -0.477,-0.29 5.919,-5.919 -2.427,-4.109 h -3.224 l -4.619,4.62 0.218,-3.037 1.242,-1.483 -1.266,0.331 22.655,-22.656 c 13.728,2.04 21.081,8.293 24.022,20.708 v 0 L 65.797,54.131 62.56,57.367 Z" /></clipPath><clipPath
       id="clipPath116"
       clipPathUnits="userSpaceOnUse"><path
         id="path114"
         d="M -32768,32767 H 32767 V -32768 H -32768 Z" /></clipPath><linearGradient
       id="linearGradient126"
       spreadMethod="pad"
       gradientTransform="matrix(36.829563,-36.829563,-36.829563,-36.829563,41.114487,56.4478)"
       gradientUnits="userSpaceOnUse"
       y2="0"
       x2="1"
       y1="0"
       x1="0"><stop
         id="stop118"
         offset="0"
         style="stop-opacity:0.07998779;stop-color:#ffffff" /><stop
         id="stop120"
         offset="0.11437659"
         style="stop-opacity:0.07998779;stop-color:#ffffff" /><stop
         id="stop122"
         offset="0.811965"
         style="stop-opacity:0;stop-color:#ffffff" /><stop
         id="stop124"
         offset="1"
         style="stop-opacity:0;stop-color:#ffffff" /></linearGradient><mask
       id="mask128"
       height="1"
       width="1"
       y="0"
       x="0"
       maskUnits="userSpaceOnUse"><g
         id="g138"><g
           id="g136"
           clip-path="url(#clipPath116)"><g
             id="g134"><g
               id="g132"><path
                 id="path130"
                 style="fill:url(#linearGradient126);stroke:none"
                 d="M -32768,32767 H 32767 V -32768 H -32768 Z" /></g></g></g></g></mask><linearGradient
       id="linearGradient152"
       spreadMethod="pad"
       gradientTransform="matrix(36.829563,-36.829563,-36.829563,-36.829563,41.114487,56.4478)"
       gradientUnits="userSpaceOnUse"
       y2="0"
       x2="1"
       y1="0"
       x1="0"><stop
         id="stop144"
         offset="0"
         style="stop-opacity:1;stop-color:#000000" /><stop
         id="stop146"
         offset="0.11437659"
         style="stop-opacity:1;stop-color:#000000" /><stop
         id="stop148"
         offset="0.811965"
         style="stop-opacity:1;stop-color:#000000" /><stop
         id="stop150"
         offset="1"
         style="stop-opacity:1;stop-color:#000000" /></linearGradient><clipPath
       id="clipPath162"
       clipPathUnits="userSpaceOnUse"><path
         id="path160"
         d="M 14.96,69.25 H 85.04 C 80.651,82.46 70.01,87.5 50,87.5 v 0 C 29.99,87.5 19.35,82.46 14.96,69.25" /></clipPath><linearGradient
       id="linearGradient176"
       spreadMethod="pad"
       gradientTransform="matrix(37.063171,-37.063171,-37.063171,-37.063171,31.468412,89.804779)"
       gradientUnits="userSpaceOnUse"
       y2="0"
       x2="1"
       y1="0"
       x1="0"><stop
         id="stop168"
         offset="0"
         style="stop-opacity:1;stop-color:#fa956a" /><stop
         id="stop170"
         offset="0.14086381"
         style="stop-opacity:1;stop-color:#fa956a" /><stop
         id="stop172"
         offset="0.999999"
         style="stop-opacity:1;stop-color:#fe4b47" /><stop
         id="stop174"
         offset="1"
         style="stop-opacity:1;stop-color:#fe4b47" /></linearGradient><clipPath
       id="clipPath186"
       clipPathUnits="userSpaceOnUse"><path
         id="path184"
         d="M 0,100 H 100 V 0 H 0 Z" /></clipPath></defs><g
     transform="matrix(1.25,0,0,-1.25,4,129.33333)"
     id="g10"><g
       id="g12"><g
         clip-path="url(#clipPath18)"
         id="g14"><g
           id="g20"><g
             id="g22"><path
               id="path34"
               style="fill:url(#linearGradient32);stroke:none"
               d="M 50,100 C 12.956,100 0,87.039 0,50 v 0 C 0,12.961 12.956,0 50,0 v 0 c 37.045,0 50,12.961 50,50 v 0 c 0,37.044 -12.955,50 -50,50 z"
               inkscape:connector-curvature="0" /></g></g></g></g><g
       id="g36"><g
         clip-path="url(#clipPath42)"
         id="g38"><g
           id="g44"><g
             id="g46" /><g
             mask="url(#mask62)"
             id="g74"><g
               id="g76"><path
                 id="path88"
                 style="fill:url(#linearGradient86);stroke:none"
                 d="M 20.864,20.802 41.388,0.276 C 44.106,0.096 46.965,0 50,0 v 0 c 37.045,0 50,12.961 50,50 v 0 c 0,3.025 -0.096,5.874 -0.275,8.583 v 0 l -20.539,20.54 z"
                 inkscape:connector-curvature="0" /></g></g></g></g></g><g
       id="g90"><g
         clip-path="url(#clipPath96)"
         id="g92"><g
           transform="translate(87.5,50)"
           id="g98"><path
             id="path100"
             style="fill:#f9f9e5;fill-opacity:1;fill-rule:nonzero;stroke:none"
             d="m 0,0 c 0,-27.78 -9.72,-37.5 -37.5,-37.5 -27.78,0 -37.5,9.72 -37.5,37.5 0,7.77 0.76,14.12 2.46,19.25 H -2.46 C -0.76,14.12 0,7.77 0,0"
             inkscape:connector-curvature="0" /></g></g></g><g
       id="g102"><g
         clip-path="url(#clipPath108)"
         id="g104"><g
           id="g110"><g
             id="g112" /><g
             mask="url(#mask128)"
             id="g140"><g
               id="g142"><path
                 id="path154"
                 style="fill:url(#linearGradient152);stroke:none"
                 d="m 56.8,51.863 5.317,-5.317 -0.174,-4.27 -13.604,13.603 -1.193,0.204 -5.979,0.417 -3.438,-4.509 6.172,-6.173 -0.477,-0.29 5.919,-5.919 -2.427,-4.109 h -3.224 l -4.619,4.62 0.218,-3.037 1.242,-1.483 -1.266,0.331 22.655,-22.656 c 13.728,2.04 21.081,8.293 24.022,20.708 v 0 L 65.797,54.131 62.56,57.367 Z"
                 inkscape:connector-curvature="0" /></g></g></g></g></g><g
       id="g156"><g
         clip-path="url(#clipPath162)"
         id="g158"><g
           id="g164"><g
             id="g166"><path
               id="path178"
               style="fill:url(#linearGradient176);stroke:none"
               d="M 14.96,69.25 H 85.04 C 80.651,82.46 70.01,87.5 50,87.5 v 0 C 29.99,87.5 19.35,82.46 14.96,69.25"
               inkscape:connector-curvature="0" /></g></g></g></g><g
       id="g180"><g
         clip-path="url(#clipPath186)"
         id="g182"><g
           transform="translate(43.9355,34.3613)"
           id="g188"><path
             id="path190"
             style="fill:#000000;fill-opacity:1;fill-rule:nonzero;stroke:none"
             d="m 0,0 c -3.552,0 -6.239,1.823 -6.495,5.759 h 1.632 C -4.607,2.655 -2.399,1.439 0,1.439 c 2.72,0 4.832,1.825 4.832,4.864 0,3.072 -1.472,4.864 -4.96,4.864 h -0.384 v 1.439 h 0.384 c 3.072,0 4.512,1.632 4.512,4.577 0,2.975 -1.951,4.607 -4.415,4.607 -2.689,0 -4.256,-1.6 -4.544,-4.16 h -1.632 c 0.352,3.584 2.848,5.6 6.176,5.6 3.583,0 6.047,-2.368 6.047,-6.047 0,-2.432 -0.928,-4.193 -3.232,-5.184 2.56,-0.864 3.68,-2.784 3.68,-5.696 C 6.464,2.239 3.68,0 0,0"
             inkscape:connector-curvature="0" /></g><g
           transform="translate(60.9277,55.5112)"
           id="g192"><path
             id="path194"
             style="fill:#000000;fill-opacity:1;fill-rule:nonzero;stroke:none"
             d="m 0,0 -4.128,-3.648 v 1.952 L 0,1.856 H 1.632 V -20.926 H 0 Z"
             inkscape:connector-curvature="0" /></g></g></g></g></svg>