<?xml version="1.0" encoding="UTF-8" standalone="no"?>
<svg
   xmlns:dc="http://purl.org/dc/elements/1.1/"
   xmlns:cc="http://creativecommons.org/ns#"
   xmlns:rdf="http://www.w3.org/1999/02/22-rdf-syntax-ns#"
   xmlns:svg="http://www.w3.org/2000/svg"
   xmlns="http://www.w3.org/2000/svg"
   xmlns:sodipodi="http://sodipodi.sourceforge.net/DTD/sodipodi-0.dtd"
   xmlns:inkscape="http://www.inkscape.org/namespaces/inkscape"
   viewBox="0 0 133.33333 133.33333"
   height="133.33333"
   width="133.33333"
   xml:space="preserve"
   id="svg2"
   version="1.1"
   sodipodi:docname="icon-launcher-office.svg"
   inkscape:version="0.92.2 2405546, 2018-03-11"><sodipodi:namedview
     pagecolor="#ffffff"
     bordercolor="#666666"
     borderopacity="1"
     objecttolerance="10"
     gridtolerance="10"
     guidetolerance="10"
     inkscape:pageopacity="0"
     inkscape:pageshadow="2"
     inkscape:window-width="1366"
     inkscape:window-height="717"
     id="namedview146"
     showgrid="false"
     inkscape:zoom="1.7700001"
     inkscape:cx="66.666664"
     inkscape:cy="66.666664"
     inkscape:window-x="0"
     inkscape:window-y="25"
     inkscape:window-maximized="1"
     inkscape:current-layer="svg2" /><metadata
     id="metadata8"><rdf:RDF><cc:Work
         rdf:about=""><dc:format>image/svg+xml</dc:format><dc:type
           rdf:resource="http://purl.org/dc/dcmitype/StillImage" /></cc:Work></rdf:RDF></metadata><defs
     id="defs6"><clipPath
       id="clipPath18"
       clipPathUnits="userSpaceOnUse"><path
         id="path16"
         d="M 50,100 C 12.956,100 0,87.039 0,50 v 0 C 0,12.961 12.956,0 50,0 v 0 c 37.045,0 50,12.961 50,50 v 0 c 0,37.044 -12.955,50 -50,50 z" /></clipPath><linearGradient
       id="linearGradient32"
       spreadMethod="pad"
       gradientTransform="matrix(77.78125,-77.78125,-77.78125,-77.78125,11.109896,88.891144)"
       gradientUnits="userSpaceOnUse"
       y2="0"
       x2="1"
       y1="0"
       x1="0"><stop
         id="stop24"
         offset="0"
         style="stop-opacity:1;stop-color:#79d2d4" /><stop
         id="stop26"
         offset="0.14086381"
         style="stop-opacity:1;stop-color:#79d2d4" /><stop
         id="stop28"
         offset="0.999999"
         style="stop-opacity:1;stop-color:#31ad9a" /><stop
         id="stop30"
         offset="1"
         style="stop-opacity:1;stop-color:#31ad9a" /></linearGradient><clipPath
       id="clipPath42"
       clipPathUnits="userSpaceOnUse"><path
         id="path40"
         d="M 50,50 20.831,20.831 41.383,0.277 C 44.103,0.096 46.962,0 50,0 v 0 c 37.045,0 50,12.961 50,50 v 0 c 0,3.035 -0.096,5.894 -0.276,8.612 v 0 L 79.168,79.168 Z" /></clipPath><clipPath
       id="clipPath50"
       clipPathUnits="userSpaceOnUse"><path
         id="path48"
         d="M -32768,32767 H 32767 V -32768 H -32768 Z" /></clipPath><linearGradient
       id="linearGradient60"
       spreadMethod="pad"
       gradientTransform="matrix(38.890621,-38.890621,-38.890621,-38.890621,49.998764,49.998764)"
       gradientUnits="userSpaceOnUse"
       y2="0"
       x2="1"
       y1="0"
       x1="0"><stop
         id="stop52"
         offset="0"
         style="stop-opacity:0.07998779;stop-color:#ffffff" /><stop
         id="stop54"
         offset="0.14086381"
         style="stop-opacity:0.07998779;stop-color:#ffffff" /><stop
         id="stop56"
         offset="0.999999"
         style="stop-opacity:0;stop-color:#ffffff" /><stop
         id="stop58"
         offset="1"
         style="stop-opacity:0;stop-color:#ffffff" /></linearGradient><mask
       id="mask62"
       height="1"
       width="1"
       y="0"
       x="0"
       maskUnits="userSpaceOnUse"><g
         id="g72"><g
           id="g70"
           clip-path="url(#clipPath50)"><g
             id="g68"><g
               id="g66"><path
                 id="path64"
                 style="fill:url(#linearGradient60);stroke:none"
                 d="M -32768,32767 H 32767 V -32768 H -32768 Z" /></g></g></g></g></mask><linearGradient
       id="linearGradient86"
       spreadMethod="pad"
       gradientTransform="matrix(38.890621,-38.890621,-38.890621,-38.890621,49.998764,49.998764)"
       gradientUnits="userSpaceOnUse"
       y2="0"
       x2="1"
       y1="0"
       x1="0"><stop
         id="stop78"
         offset="0"
         style="stop-opacity:1;stop-color:#000000" /><stop
         id="stop80"
         offset="0.14086381"
         style="stop-opacity:1;stop-color:#000000" /><stop
         id="stop82"
         offset="0.999999"
         style="stop-opacity:1;stop-color:#000000" /><stop
         id="stop84"
         offset="1"
         style="stop-opacity:1;stop-color:#000000" /></linearGradient><clipPath
       id="clipPath96"
       clipPathUnits="userSpaceOnUse"><path
         id="path94"
         d="M 0,100 H 100 V 0 H 0 Z" /></clipPath><clipPath
       id="clipPath108"
       clipPathUnits="userSpaceOnUse"><path
         id="path106"
         d="m 19.82,21.839 1,-0.999 c -0.33,0.33 -0.65,0.67 -0.97,1.03 v 0 z" /></clipPath><clipPath
       id="clipPath116"
       clipPathUnits="userSpaceOnUse"><path
         id="path114"
         d="M -32768,32767 H 32767 V -32768 H -32768 Z" /></clipPath><linearGradient
       id="linearGradient126"
       spreadMethod="pad"
       gradientTransform="matrix(0.9999999,-0.9999999,-0.9999999,-0.9999999,19.834992,21.855011)"
       gradientUnits="userSpaceOnUse"
       y2="0"
       x2="1"
       y1="0"
       x1="0"><stop
         id="stop118"
         offset="0"
         style="stop-opacity:0.11999695;stop-color:#ffffff" /><stop
         id="stop120"
         offset="0.14086381"
         style="stop-opacity:0.11999695;stop-color:#ffffff" /><stop
         id="stop122"
         offset="0.999999"
         style="stop-opacity:0;stop-color:#ffffff" /><stop
         id="stop124"
         offset="1"
         style="stop-opacity:0;stop-color:#ffffff" /></linearGradient><mask
       id="mask128"
       height="1"
       width="1"
       y="0"
       x="0"
       maskUnits="userSpaceOnUse"><g
         id="g138"><g
           id="g136"
           clip-path="url(#clipPath116)"><g
             id="g134"><g
               id="g132"><path
                 id="path130"
                 style="fill:url(#linearGradient126);stroke:none"
                 d="M -32768,32767 H 32767 V -32768 H -32768 Z" /></g></g></g></g></mask><linearGradient
       id="linearGradient152"
       spreadMethod="pad"
       gradientTransform="matrix(0.9999999,-0.9999999,-0.9999999,-0.9999999,19.834992,21.855011)"
       gradientUnits="userSpaceOnUse"
       y2="0"
       x2="1"
       y1="0"
       x1="0"><stop
         id="stop144"
         offset="0"
         style="stop-opacity:1;stop-color:#000000" /><stop
         id="stop146"
         offset="0.14086381"
         style="stop-opacity:1;stop-color:#000000" /><stop
         id="stop148"
         offset="0.999999"
         style="stop-opacity:1;stop-color:#000000" /><stop
         id="stop150"
         offset="1"
         style="stop-opacity:1;stop-color:#000000" /></linearGradient><clipPath
       id="clipPath162"
       clipPathUnits="userSpaceOnUse"><path
         id="path160"
         d="m 59.781,71 c -4.219,0 -7.801,-2.675 -9.175,-6.415 v 0 l -2.79,2.79 C 46.023,69.585 43.288,71 40.22,71 v 0 H 29 V 59.781 c 0,-2.655 1.061,-5.058 2.777,-6.821 v 0 l -0.003,-0.002 0.063,-0.063 c 0.019,-0.019 0.038,-0.039 0.057,-0.058 v 0 l 3.465,-3.465 C 31.648,47.984 29,44.416 29,40.22 v 0 V 29 L 45.399,12.602 C 46.876,12.536 48.405,12.5 50,12.5 v 0 c 27.781,0 37.5,9.72 37.5,37.5 v 0 c 0,0.431 0,0.86 -0.01,1.29 v 0 c 0,0.42 -0.009,0.85 -0.02,1.26 v 0 c -0.01,0.49 -0.02,0.97 -0.04,1.45 v 0 c -0.029,0.73 -0.07,1.44 -0.109,2.14 v 0 C 87.31,56.37 87.3,56.6 87.28,56.831 v 0 c 0,0.039 -0.011,0.08 -0.011,0.119 v 0 c -0.229,2.409 -1.989,4.39 -4.368,4.9 v 0 c -1.32,0.282 -2.562,0.62 -3.749,0.998 v 0 c -0.646,0.206 -1.272,0.427 -1.881,0.662 v 0 c -0.017,0.008 -0.035,0.013 -0.052,0.02 v 0 c -0.597,0.232 -1.177,0.481 -1.739,0.743 v 0 c -0.022,0.01 -0.046,0.02 -0.069,0.031 v 0 c -0.559,0.262 -1.097,0.54 -1.621,0.832 v 0 c -0.021,0.011 -0.045,0.023 -0.067,0.036 v 0 c -0.522,0.294 -1.029,0.604 -1.517,0.929 v 0 c -0.018,0.012 -0.036,0.023 -0.054,0.035 v 0 c -0.489,0.328 -0.964,0.672 -1.419,1.033 v 0 c -0.014,0.009 -0.027,0.019 -0.04,0.03 v 0 c -0.458,0.362 -0.899,0.742 -1.323,1.139 v 0 c -0.009,0.008 -0.019,0.016 -0.027,0.025 v 0 C 68.479,69.172 67.686,70.05 66.961,71 v 0 z" /></clipPath><clipPath
       id="clipPath170"
       clipPathUnits="userSpaceOnUse"><path
         id="path168"
         d="M -32768,32767 H 32767 V -32768 H -32768 Z" /></clipPath><linearGradient
       id="linearGradient180"
       spreadMethod="pad"
       gradientTransform="matrix(50.167496,-50.167496,-50.167496,-50.167496,30.004196,72.004196)"
       gradientUnits="userSpaceOnUse"
       y2="0"
       x2="1"
       y1="0"
       x1="0"><stop
         id="stop172"
         offset="0"
         style="stop-opacity:0.07998779;stop-color:#ffffff" /><stop
         id="stop174"
         offset="0.14086381"
         style="stop-opacity:0.07998779;stop-color:#ffffff" /><stop
         id="stop176"
         offset="0.999999"
         style="stop-opacity:0;stop-color:#ffffff" /><stop
         id="stop178"
         offset="1"
         style="stop-opacity:0;stop-color:#ffffff" /></linearGradient><mask
       id="mask182"
       height="1"
       width="1"
       y="0"
       x="0"
       maskUnits="userSpaceOnUse"><g
         id="g192"><g
           id="g190"
           clip-path="url(#clipPath170)"><g
             id="g188"><g
               id="g186"><path
                 id="path184"
                 style="fill:url(#linearGradient180);stroke:none"
                 d="M -32768,32767 H 32767 V -32768 H -32768 Z" /></g></g></g></g></mask><linearGradient
       id="linearGradient206"
       spreadMethod="pad"
       gradientTransform="matrix(50.167496,-50.167496,-50.167496,-50.167496,30.004196,72.004196)"
       gradientUnits="userSpaceOnUse"
       y2="0"
       x2="1"
       y1="0"
       x1="0"><stop
         id="stop198"
         offset="0"
         style="stop-opacity:1;stop-color:#000000" /><stop
         id="stop200"
         offset="0.14086381"
         style="stop-opacity:1;stop-color:#000000" /><stop
         id="stop202"
         offset="0.999999"
         style="stop-opacity:1;stop-color:#000000" /><stop
         id="stop204"
         offset="1"
         style="stop-opacity:1;stop-color:#000000" /></linearGradient><clipPath
       id="clipPath216"
       clipPathUnits="userSpaceOnUse"><path
         id="path214"
         d="M 0,100 H 100 V 0 H 0 Z" /></clipPath><clipPath
       id="clipPath244"
       clipPathUnits="userSpaceOnUse"><path
         id="path242"
         d="m 87.498,50.207 c 0,0.361 0,0.722 -0.008,1.083 v 0 c 0,0.42 -0.009,0.85 -0.02,1.26 v 0 c -0.01,0.49 -0.02,0.97 -0.04,1.45 v 0 c -0.029,0.73 -0.07,1.44 -0.109,2.14 v 0 C 87.31,56.37 87.3,56.6 87.28,56.831 v 0 c 0,0.039 -0.011,0.08 -0.011,0.119 v 0 c -0.229,2.409 -1.989,4.39 -4.368,4.9 v 0 c -5.72,1.223 -10.167,3.339 -13.548,6.502 v 0 z" /></clipPath><clipPath
       id="clipPath252"
       clipPathUnits="userSpaceOnUse"><path
         id="path250"
         d="M -32768,32767 H 32767 V -32768 H -32768 Z" /></clipPath><linearGradient
       id="linearGradient262"
       spreadMethod="pad"
       gradientTransform="matrix(18.145325,-18.145325,-18.145325,-18.145325,71.430908,70.430237)"
       gradientUnits="userSpaceOnUse"
       y2="0"
       x2="1"
       y1="0"
       x1="0"><stop
         id="stop254"
         offset="0"
         style="stop-opacity:0.07998779;stop-color:#ffffff" /><stop
         id="stop256"
         offset="0.14086381"
         style="stop-opacity:0.07998779;stop-color:#ffffff" /><stop
         id="stop258"
         offset="0.999999"
         style="stop-opacity:0;stop-color:#ffffff" /><stop
         id="stop260"
         offset="1"
         style="stop-opacity:0;stop-color:#ffffff" /></linearGradient><mask
       id="mask264"
       height="1"
       width="1"
       y="0"
       x="0"
       maskUnits="userSpaceOnUse"><g
         id="g274"><g
           id="g272"
           clip-path="url(#clipPath252)"><g
             id="g270"><g
               id="g268"><path
                 id="path266"
                 style="fill:url(#linearGradient262);stroke:none"
                 d="M -32768,32767 H 32767 V -32768 H -32768 Z" /></g></g></g></g></mask><linearGradient
       id="linearGradient288"
       spreadMethod="pad"
       gradientTransform="matrix(18.145325,-18.145325,-18.145325,-18.145325,71.430908,70.430237)"
       gradientUnits="userSpaceOnUse"
       y2="0"
       x2="1"
       y1="0"
       x1="0"><stop
         id="stop280"
         offset="0"
         style="stop-opacity:1;stop-color:#000000" /><stop
         id="stop282"
         offset="0.14086381"
         style="stop-opacity:1;stop-color:#000000" /><stop
         id="stop284"
         offset="0.999999"
         style="stop-opacity:1;stop-color:#000000" /><stop
         id="stop286"
         offset="1"
         style="stop-opacity:1;stop-color:#000000" /></linearGradient></defs><g
     transform="matrix(1.25,0,0,-1.25,4,129.33333)"
     id="g10"><g
       id="g12"><g
         clip-path="url(#clipPath18)"
         id="g14"><g
           id="g20"><g
             id="g22"><path
               id="path34"
               style="fill:url(#linearGradient32);stroke:none"
               d="M 50,100 C 12.956,100 0,87.039 0,50 v 0 C 0,12.961 12.956,0 50,0 v 0 c 37.045,0 50,12.961 50,50 v 0 c 0,37.044 -12.955,50 -50,50 z"
               inkscape:connector-curvature="0" /></g></g></g></g><g
       id="g36"><g
         clip-path="url(#clipPath42)"
         id="g38"><g
           id="g44"><g
             id="g46" /><g
             mask="url(#mask62)"
             id="g74"><g
               id="g76"><path
                 id="path88"
                 style="fill:url(#linearGradient86);stroke:none"
                 d="M 50,50 20.831,20.831 41.383,0.277 C 44.103,0.096 46.962,0 50,0 v 0 c 37.045,0 50,12.961 50,50 v 0 c 0,3.035 -0.096,5.894 -0.276,8.612 v 0 L 79.168,79.168 Z"
                 inkscape:connector-curvature="0" /></g></g></g></g></g><g
       id="g90"><g
         clip-path="url(#clipPath96)"
         id="g92"><g
           transform="translate(87.5,50)"
           id="g98"><path
             id="path100"
             style="fill:#f7f8ee;fill-opacity:1;fill-rule:nonzero;stroke:none"
             d="m 0,0 c 0,-27.78 -9.72,-37.5 -37.5,-37.5 -27.78,0 -37.5,9.72 -37.5,37.5 0,27.78 9.72,37.5 37.5,37.5 0.43,0 0.86,0 1.29,-0.01 0.42,0 0.85,-0.01 1.26,-0.02 0.49,-0.01 0.97,-0.02 1.45,-0.04 0.73,-0.03 1.44,-0.07 2.14,-0.11 0.23,-0.01 0.46,-0.02 0.69,-0.04 0.04,0 0.08,-0.01 0.12,-0.01 2.41,-0.23 4.39,-1.99 4.9,-4.37 2.57,-12.02 9.03,-18.48 21.05,-21.05 2.38,-0.51 4.14,-2.49 4.37,-4.9 0,-0.04 0.01,-0.08 0.01,-0.12 C -0.2,6.6 -0.19,6.37 -0.18,6.14 -0.14,5.44 -0.1,4.73 -0.07,4 -0.05,3.52 -0.04,3.04 -0.03,2.55 -0.02,2.14 -0.01,1.71 -0.01,1.29 0,0.86 0,0.43 0,0"
             inkscape:connector-curvature="0" /></g></g></g><g
       id="g102"><g
         clip-path="url(#clipPath108)"
         id="g104"><g
           id="g110"><g
             id="g112" /><g
             mask="url(#mask128)"
             id="g140"><g
               id="g142"><path
                 id="path154"
                 style="fill:url(#linearGradient152);stroke:none"
                 d="m 19.82,21.839 1,-0.999 c -0.33,0.33 -0.65,0.67 -0.97,1.03 v 0 z"
                 inkscape:connector-curvature="0" /></g></g></g></g></g><g
       id="g156"><g
         clip-path="url(#clipPath162)"
         id="g158"><g
           id="g164"><g
             id="g166" /><g
             mask="url(#mask182)"
             id="g194"><g
               id="g196"><path
                 id="path208"
                 style="fill:url(#linearGradient206);stroke:none"
                 d="m 59.781,71 c -4.219,0 -7.801,-2.675 -9.175,-6.415 v 0 l -2.79,2.79 C 46.023,69.585 43.288,71 40.22,71 v 0 H 29 V 59.781 c 0,-2.655 1.061,-5.058 2.777,-6.821 v 0 l -0.003,-0.002 0.063,-0.063 c 0.019,-0.019 0.038,-0.039 0.057,-0.058 v 0 l 3.465,-3.465 C 31.648,47.984 29,44.416 29,40.22 v 0 V 29 L 45.399,12.602 C 46.876,12.536 48.405,12.5 50,12.5 v 0 c 27.781,0 37.5,9.72 37.5,37.5 v 0 c 0,0.431 0,0.86 -0.01,1.29 v 0 c 0,0.42 -0.009,0.85 -0.02,1.26 v 0 c -0.01,0.49 -0.02,0.97 -0.04,1.45 v 0 c -0.029,0.73 -0.07,1.44 -0.109,2.14 v 0 C 87.31,56.37 87.3,56.6 87.28,56.831 v 0 c 0,0.039 -0.011,0.08 -0.011,0.119 v 0 c -0.229,2.409 -1.989,4.39 -4.368,4.9 v 0 c -1.32,0.282 -2.562,0.62 -3.749,0.998 v 0 c -0.646,0.206 -1.272,0.427 -1.881,0.662 v 0 c -0.017,0.008 -0.035,0.013 -0.052,0.02 v 0 c -0.597,0.232 -1.177,0.481 -1.739,0.743 v 0 c -0.022,0.01 -0.046,0.02 -0.069,0.031 v 0 c -0.559,0.262 -1.097,0.54 -1.621,0.832 v 0 c -0.021,0.011 -0.045,0.023 -0.067,0.036 v 0 c -0.522,0.294 -1.029,0.604 -1.517,0.929 v 0 c -0.018,0.012 -0.036,0.023 -0.054,0.035 v 0 c -0.489,0.328 -0.964,0.672 -1.419,1.033 v 0 c -0.014,0.009 -0.027,0.019 -0.04,0.03 v 0 c -0.458,0.362 -0.899,0.742 -1.323,1.139 v 0 c -0.009,0.008 -0.019,0.016 -0.027,0.025 v 0 C 68.479,69.172 67.686,70.05 66.961,71 v 0 z"
                 inkscape:connector-curvature="0" /></g></g></g></g></g><g
       id="g210"><g
         clip-path="url(#clipPath216)"
         id="g212"><g
           transform="translate(61.2197,50)"
           id="g218"><path
             id="path220"
             style="fill:#fbd762;fill-opacity:1;fill-rule:nonzero;stroke:none"
             d="m 0,0 h -11.22 v 11.22 c 0,5.402 4.379,9.78 9.781,9.78 H 9.78 V 9.78 C 9.78,4.378 5.401,0 0,0"
             inkscape:connector-curvature="0" /></g><g
           transform="translate(50,61.2202)"
           id="g222"><path
             id="path224"
             style="fill:#9deea3;fill-opacity:1;fill-rule:nonzero;stroke:none"
             d="m 0,0 v -11.22 h -11.22 c -5.402,0 -9.78,4.378 -9.78,9.78 V 9.78 H -9.78 C -4.378,9.78 0,5.401 0,0"
             inkscape:connector-curvature="0" /></g><g
           transform="translate(38.7798,50)"
           id="g226"><path
             id="path228"
             style="fill:#79dae0;fill-opacity:1;fill-rule:nonzero;stroke:none"
             d="M 0,0 H 11.22 V -11.22 C 11.22,-16.621 6.842,-21 1.44,-21 H -9.78 V -9.78 C -9.78,-4.379 -5.401,0 0,0"
             inkscape:connector-curvature="0" /></g><g
           transform="translate(50,38.7803)"
           id="g230"><path
             id="path232"
             style="fill:#f7a585;fill-opacity:1;fill-rule:nonzero;stroke:none"
             d="M 0,0 V 11.22 H 11.22 C 16.621,11.22 21,6.841 21,1.439 V -9.78 H 9.78 C 4.379,-9.78 0,-5.401 0,0"
             inkscape:connector-curvature="0" /></g><g
           transform="translate(87.2695,56.9502)"
           id="g234"><path
             id="path236"
             style="fill:#f8ddb5;fill-opacity:1;fill-rule:nonzero;stroke:none"
             d="m 0,0 c -0.229,2.41 -1.989,4.39 -4.369,4.9 -12.021,2.57 -18.481,9.03 -21.051,21.05 -0.51,2.38 -2.489,4.14 -4.899,4.37 C -10.029,28.85 -1.47,20.29 0,0"
             inkscape:connector-curvature="0" /></g></g></g><g
       id="g238"><g
         clip-path="url(#clipPath244)"
         id="g240"><g
           id="g246"><g
             id="g248" /><g
             mask="url(#mask264)"
             id="g276"><g
               id="g278"><path
                 id="path290"
                 style="fill:url(#linearGradient288);stroke:none"
                 d="m 87.498,50.207 c 0,0.361 0,0.722 -0.008,1.083 v 0 c 0,0.42 -0.009,0.85 -0.02,1.26 v 0 c -0.01,0.49 -0.02,0.97 -0.04,1.45 v 0 c -0.029,0.73 -0.07,1.44 -0.109,2.14 v 0 C 87.31,56.37 87.3,56.6 87.28,56.831 v 0 c 0,0.039 -0.011,0.08 -0.011,0.119 v 0 c -0.229,2.409 -1.989,4.39 -4.368,4.9 v 0 c -5.72,1.223 -10.167,3.339 -13.548,6.502 v 0 z"
                 inkscape:connector-curvature="0" /></g></g></g></g></g></g></svg>