<svg xmlns="http://www.w3.org/2000/svg" xmlns:xlink="http://www.w3.org/1999/xlink" width="192" height="192" viewBox="0 0 192 192">
  <defs>
    <style>
      .cls-1 {
        fill: none;
      }

      .cls-2 {
        opacity: 0.01;
      }

      .cls-2, .cls-3, .cls-4, .cls-5 {
        isolation: isolate;
      }

      .cls-3 {
        opacity: 0.02;
      }

      .cls-4 {
        opacity: 0.04;
      }

      .cls-5 {
        opacity: 0.06;
      }

      .cls-6 {
        fill: #ffa300;
      }

      .cls-7 {
        fill: url(#未命名的渐变_6);
      }

      .cls-8 {
        fill: #ffc200;
      }

      .cls-13, .cls-9 {
        fill: #ffd522;
      }

      .cls-10 {
        fill: url(#未命名的渐变_5);
      }

      .cls-11 {
        fill: url(#未命名的渐变_3);
      }

      .cls-12 {
        fill: url(#未命名的渐变_4);
      }

      .cls-13 {
        opacity: 0.4;
      }

      .cls-14 {
        fill: #e58d00;
        opacity: 0.6;
      }
    </style>
    <linearGradient id="未命名的渐变_6" data-name="未命名的渐变 6" x1="100.502" y1="144.003" x2="100.502" y2="188" gradientTransform="matrix(1, 0, 0, -1, 0, 194)" gradientUnits="userSpaceOnUse">
      <stop offset="0" stop-color="#b96400" stop-opacity="0.4"/>
      <stop offset="0.225" stop-color="#d17e00" stop-opacity="0.265"/>
      <stop offset="0.527" stop-color="#ea9900" stop-opacity="0.12"/>
      <stop offset="0.795" stop-color="#faaa00" stop-opacity="0.031"/>
      <stop offset="1" stop-color="#ffb000" stop-opacity="0"/>
    </linearGradient>
    <linearGradient id="未命名的渐变_5" data-name="未命名的渐变 5" x1="166.004" y1="484.002" x2="25.998" y2="343.996" gradientTransform="translate(0 -318)" gradientUnits="userSpaceOnUse">
      <stop offset="0" stop-opacity="0.1"/>
      <stop offset="0.5" stop-color="gray" stop-opacity="0.05"/>
      <stop offset="1" stop-color="#fff" stop-opacity="0.12"/>
    </linearGradient>
    <linearGradient id="未命名的渐变_3" data-name="未命名的渐变 3" x1="166.013" y1="436.012" x2="25.987" y2="295.988" gradientTransform="translate(0 -270)" gradientUnits="userSpaceOnUse">
      <stop offset="0" stop-opacity="0.04"/>
      <stop offset="0.5" stop-color="gray" stop-opacity="0"/>
      <stop offset="1" stop-color="#fff" stop-opacity="0.1"/>
    </linearGradient>
    <linearGradient id="未命名的渐变_4" data-name="未命名的渐变 4" x1="129.97" y1="140.492" x2="66.378" y2="76.901" gradientUnits="userSpaceOnUse">
      <stop offset="0" stop-color="#f0a000"/>
      <stop offset="1" stop-color="#e59500"/>
    </linearGradient>
  </defs>
  <title>folder_lifestyle</title>
  <g id="图层_2" data-name="图层 2">
    <g id="图层_1-2" data-name="图层 1">
      <rect class="cls-1" width="192" height="192"/>
      <g>
        <path class="cls-2" d="M96,190C27.3,190,3,165.7,3,97S27.3,4,96,4s93,24.3,93,93S164.7,190,96,190Z"/>
        <path class="cls-3" d="M96,189C28.1,189,4,164.9,4,97S28.1,5,96,5s92,24.1,92,92S163.9,189,96,189Z"/>
        <path class="cls-4" d="M96,188C28.8,188,5,164.2,5,97S28.8,6,96,6s91,23.8,91,91S163.2,188,96,188Z"/>
        <path class="cls-5" d="M186,97c0,66.7-23.3,90-90,90S6,163.7,6,97,29.3,7,96,7,186,30.3,186,97Z"/>
      </g>
      <path class="cls-6" d="M186,96c0,66.7-23.3,90-90,90S6,162.7,6,96,29.3,6,96,6,186,29.3,186,96Z"/>
      <path class="cls-7" d="M71.177,37.953c5.758,7.748,8.622,10.776,9.568,11.7a1.2,1.2,0,0,0,.842.344H180.16C169.684,18.149,144.154,6,96,6,58.276,6,34.438,13.457,20.843,32H59.266A14.422,14.422,0,0,1,71.177,37.953Z"/>
      <path class="cls-8" d="M6,96c0,66.67,23.32,90,90,90s90-23.33,90-90c0-18.545-1.807-33.732-5.846-46H81.587a1.2,1.2,0,0,1-.842-.344c-.946-.927-3.81-3.955-9.568-11.7A14.424,14.424,0,0,0,59.266,32H20.859C10.407,46.245,6,67.029,6,96Z"/>
      <path class="cls-9" d="M7,98c0-28.971,4.407-49.755,14.859-64H60.266a14.422,14.422,0,0,1,11.911,5.953c5.758,7.748,8.622,10.776,9.568,11.7a1.2,1.2,0,0,0,.842.344H180.78c-.2-.674-.41-1.343-.626-2H81.587a1.2,1.2,0,0,1-.842-.344c-.946-.927-3.81-3.955-9.568-11.7A14.422,14.422,0,0,0,59.266,32H20.859C10.407,46.245,6,67.029,6,96c0,24.311,3.106,42.854,10.279,56.61C9.816,139.073,7,121.152,7,98Z"/>
      <path class="cls-10" d="M186,96c0,66.67-23.32,90-90,90S6,162.67,6,96,29.32,6,96,6,186,29.32,186,96Z"/>
      <path class="cls-11" d="M96,6C29.3,6,6,29.3,6,96s23.3,90,90,90,90-23.3,90-90S162.7,6,96,6Zm68.6,158.6C151.2,178,130,184,96,184s-55.2-6-68.6-19.4S8,130,8,96s6-55.2,19.4-68.6S62,8,96,8s55.2,6,68.6,19.4S184,62,184,96,178,151.2,164.6,164.6Z"/>
      <path class="cls-9" d="M131.318,134.321,105.451,145.24l-7.568-15.279,33.2-36.852a1.124,1.124,0,0,0,.191-.993c-.841.215-1.721.4-2.609.567L96.889,127.954l-9.9-19.984c-.014-.034-.038-.061-.055-.093l9.947,20.084L88.2,137.6l-32.5-26.969a1.226,1.226,0,0,0-.072.134,1.14,1.14,0,0,0,.253,1.186l31.72,26.319L73.819,153.56a1.134,1.134,0,0,1-.761.425l-.205.5a1.134,1.134,0,0,0,1.966,1.073L89.2,139.6l9.985,8.285-13.594,5.738a1.165,1.165,0,0,1-.245.11l-.246.221a1.13,1.13,0,0,0,.035,1.463,1.135,1.135,0,0,0,1.456.206l14.529-6.133,6.736,5.589a1.133,1.133,0,0,0,.811.343,1.169,1.169,0,0,0,.624-.183,1.138,1.138,0,0,0,.432-1.382l-3.276-6.616L135.1,135.149a1.136,1.136,0,0,0,.522-1c-1.244.117-2.5.176-3.743.176C131.689,134.33,131.5,134.323,131.318,134.321ZM89.8,138.932l8.077-8.965,7.566,15.276-5.327,2.249Zm18.919,12.927a1.138,1.138,0,0,1-.432,1.382,1.169,1.169,0,0,1-.624.183,1.133,1.133,0,0,1-.811-.343l-4.8-3.984,4.384-1.85Z"/>
    </g>
    <g id="图层_4" data-name="图层 4">
      <path class="cls-9" d="M96.269,82.4c0-4.64,9.867-8.4,22.041-8.4s22.038,3.762,22.038,8.4-9.867,8.4-22.038,8.4S96.269,87.04,96.269,82.4Zm35.6,37.409c-8.185,0-14.822,2.614-14.822,5.843s6.637,5.837,14.822,5.837,14.822-2.612,14.822-5.837S140.058,119.811,131.874,119.811ZM87.216,100.462c0-4.326-8.936-7.832-19.956-7.83s-19.956,3.5-19.956,7.83,8.937,7.83,19.956,7.83S87.216,104.784,87.216,100.462Z"/>
      <path class="cls-12" d="M130.874,132.33c1.244,0,2.5-.059,3.743-.176a1.136,1.136,0,0,1-.522,1l-28.652,12.094,3.276,6.616a1.138,1.138,0,0,1-.432,1.382,1.169,1.169,0,0,1-.624.183,1.133,1.133,0,0,1-.811-.343l-6.736-5.589-14.529,6.133a1.134,1.134,0,0,1-1.491-1.669l10.287-9.221L88.2,137.6,73.819,153.56a1.135,1.135,0,0,1-1.966-1.073l8.679-21.244-25.659-21.29a1.138,1.138,0,0,1,.707-1.927l.145-.01a48.647,48.647,0,0,0,10.533,1.114c6.716,0,13.484-1.29,17.88-3.8l.695-.065c.035,0,.072-.006.106-.006a1.137,1.137,0,0,1,1.052.709l2.666,5.383,9.189-22.492a1.122,1.122,0,0,1,.9-.732c4.788,2.321,11.7,3.511,18.561,3.511a53.367,53.367,0,0,0,12.966-1.524,1.124,1.124,0,0,1-.191.993l-33.2,36.852,4.3,8.68,11.16-10a1.129,1.129,0,0,1,.885-.429,1,1,0,0,1,.266.032l.429.1C116.222,130.44,123.772,132.332,130.874,132.33ZM117.31,88.8c12.171,0,22.038-3.759,22.038-8.4S129.481,72,117.31,72s-22.041,3.762-22.041,8.4S105.136,88.8,117.31,88.8Zm13.564,29.012c-8.185,0-14.822,2.614-14.822,5.843s6.637,5.837,14.822,5.837,14.822-2.612,14.822-5.837S139.058,117.811,130.874,117.811ZM86.216,98.462c0-4.326-8.936-7.832-19.956-7.83S46.3,94.136,46.3,98.462s8.937,7.83,19.956,7.83S86.216,102.784,86.216,98.462Z"/>
      <path class="cls-13" d="M131.318,134.321,105.451,145.24l-7.568-15.279,33.2-36.852a1.124,1.124,0,0,0,.191-.993c-.841.215-1.721.4-2.609.567L96.889,127.954l-9.9-19.984c-.014-.034-.038-.061-.055-.093l9.947,20.084L88.2,137.6l-32.5-26.969a1.226,1.226,0,0,0-.072.134,1.14,1.14,0,0,0,.253,1.186l31.72,26.319L73.819,153.56a1.134,1.134,0,0,1-.761.425l-.205.5a1.134,1.134,0,0,0,1.966,1.073L89.2,139.6l9.985,8.285-13.594,5.738a1.165,1.165,0,0,1-.245.11l-.246.221a1.13,1.13,0,0,0,.035,1.463,1.135,1.135,0,0,0,1.456.206l14.529-6.133,6.736,5.589a1.133,1.133,0,0,0,.811.343,1.169,1.169,0,0,0,.624-.183,1.138,1.138,0,0,0,.432-1.382l-3.276-6.616L135.1,135.149a1.136,1.136,0,0,0,.522-1c-1.244.117-2.5.176-3.743.176C131.689,134.33,131.5,134.323,131.318,134.321ZM89.8,138.932l8.077-8.965,7.566,15.276-5.327,2.249Zm18.919,12.927a1.138,1.138,0,0,1-.432,1.382,1.169,1.169,0,0,1-.624.183,1.133,1.133,0,0,1-.811-.343l-4.8-3.984,4.384-1.85Z"/>
      <path class="cls-14" d="M72.922,154a1.137,1.137,0,0,1-1.069-1.513L97.846,88.861a1.122,1.122,0,0,1,.9-.732c4.788,2.321,11.7,3.511,18.561,3.511a53.367,53.367,0,0,0,12.966-1.524,1.124,1.124,0,0,1-.191.993l-1.418,1.574a55.633,55.633,0,0,1-10.357.957c-6.862,0-13.773-1.19-18.561-3.511a1.122,1.122,0,0,0-.9.732L73.058,153.985A1.257,1.257,0,0,1,72.922,154Z"/>
      <path class="cls-14" d="M84.981,153.8a1.146,1.146,0,0,1-.85-.382,1.13,1.13,0,0,1-.035-1.463l28.246-25.319a1.129,1.129,0,0,1,.885-.429,1,1,0,0,1,.266.032l.429.1c2.3,4.1,9.85,5.99,16.952,5.988,1.244,0,2.5-.059,3.743-.176a1.136,1.136,0,0,1-.522,1l-2.777,1.172c-6.936-.094-14.155-1.988-16.4-5.979l-.429-.1a1,1,0,0,0-.266-.032,1.129,1.129,0,0,0-.885.429l-28,25.1A1.123,1.123,0,0,1,84.981,153.8Z"/>
    </g>
  </g>
</svg>
