<?xml version="1.0" encoding="UTF-8" standalone="no"?>
<svg
   xmlns:dc="http://purl.org/dc/elements/1.1/"
   xmlns:cc="http://creativecommons.org/ns#"
   xmlns:rdf="http://www.w3.org/1999/02/22-rdf-syntax-ns#"
   xmlns:svg="http://www.w3.org/2000/svg"
   xmlns="http://www.w3.org/2000/svg"
   xmlns:sodipodi="http://sodipodi.sourceforge.net/DTD/sodipodi-0.dtd"
   xmlns:inkscape="http://www.inkscape.org/namespaces/inkscape"
   viewBox="0 0 133.33333 133.33333"
   height="133.33333"
   width="133.33333"
   xml:space="preserve"
   id="svg2"
   version="1.1"
   sodipodi:docname="icon-launcher-clock.svg"
   inkscape:version="0.92.2 2405546, 2018-03-11"><sodipodi:namedview
     pagecolor="#ffffff"
     bordercolor="#666666"
     borderopacity="1"
     objecttolerance="10"
     gridtolerance="10"
     guidetolerance="10"
     inkscape:pageopacity="0"
     inkscape:pageshadow="2"
     inkscape:window-width="1366"
     inkscape:window-height="717"
     id="namedview90"
     showgrid="false"
     inkscape:zoom="1.7700001"
     inkscape:cx="66.666664"
     inkscape:cy="66.666664"
     inkscape:window-x="0"
     inkscape:window-y="25"
     inkscape:window-maximized="1"
     inkscape:current-layer="svg2" /><metadata
     id="metadata8"><rdf:RDF><cc:Work
         rdf:about=""><dc:format>image/svg+xml</dc:format><dc:type
           rdf:resource="http://purl.org/dc/dcmitype/StillImage" /></cc:Work></rdf:RDF></metadata><defs
     id="defs6"><clipPath
       id="clipPath18"
       clipPathUnits="userSpaceOnUse"><path
         id="path16"
         d="M 50,100 C 12.956,100 0,87.039 0,50 v 0 C 0,12.961 12.956,0 50,0 v 0 c 37.045,0 50,12.961 50,50 v 0 c 0,37.044 -12.955,50 -50,50 z" /></clipPath><linearGradient
       id="linearGradient30"
       spreadMethod="pad"
       gradientTransform="matrix(77.78125,-77.78125,-77.78125,-77.78125,11.109896,88.891144)"
       gradientUnits="userSpaceOnUse"
       y2="0"
       x2="1"
       y1="0"
       x1="0"><stop
         id="stop24"
         offset="0"
         style="stop-opacity:1;stop-color:#f7597e" /><stop
         id="stop26"
         offset="1"
         style="stop-opacity:1;stop-color:#e02453" /><stop
         id="stop28"
         offset="1"
         style="stop-opacity:1;stop-color:#e02453" /></linearGradient><clipPath
       id="clipPath40"
       clipPathUnits="userSpaceOnUse"><path
         id="path38"
         d="M 50,100 C 12.956,100 0,87.039 0,50 v 0 C 0,12.961 12.956,0 50,0 v 0 c 37.045,0 50,12.961 50,50 v 0 c 0,37.044 -12.955,50 -50,50 z" /></clipPath><linearGradient
       id="linearGradient52"
       spreadMethod="pad"
       gradientTransform="matrix(77.78125,-77.78125,-77.78125,-77.78125,11.109896,88.891144)"
       gradientUnits="userSpaceOnUse"
       y2="0"
       x2="1"
       y1="0"
       x1="0"><stop
         id="stop46"
         offset="0"
         style="stop-opacity:1;stop-color:#ffcb85" /><stop
         id="stop48"
         offset="1"
         style="stop-opacity:1;stop-color:#f29669" /><stop
         id="stop50"
         offset="1"
         style="stop-opacity:1;stop-color:#f29669" /></linearGradient><clipPath
       id="clipPath62"
       clipPathUnits="userSpaceOnUse"><path
         id="path60"
         d="M 50,50 20.84,20.84 41.404,0.275 C 44.118,0.096 46.97,0 50,0 v 0 c 37.045,0 50,12.961 50,50 v 0 c 0,3.034 -0.096,5.891 -0.276,8.608 v 0 L 79.166,79.166 Z" /></clipPath><clipPath
       id="clipPath70"
       clipPathUnits="userSpaceOnUse"><path
         id="path68"
         d="M -32768,32767 H 32767 V -32768 H -32768 Z" /></clipPath><linearGradient
       id="linearGradient78"
       spreadMethod="pad"
       gradientTransform="matrix(38.890652,-38.890652,-38.890652,-38.890652,50.00296,50.003021)"
       gradientUnits="userSpaceOnUse"
       y2="0"
       x2="1"
       y1="0"
       x1="0"><stop
         id="stop72"
         offset="0"
         style="stop-opacity:0.09999237;stop-color:#ffffff" /><stop
         id="stop74"
         offset="0.88376"
         style="stop-opacity:0;stop-color:#ffffff" /><stop
         id="stop76"
         offset="1"
         style="stop-opacity:0;stop-color:#ffffff" /></linearGradient><mask
       id="mask80"
       height="1"
       width="1"
       y="0"
       x="0"
       maskUnits="userSpaceOnUse"><g
         id="g90"><g
           id="g88"
           clip-path="url(#clipPath70)"><g
             id="g86"><g
               id="g84"><path
                 id="path82"
                 style="fill:url(#linearGradient78);stroke:none"
                 d="M -32768,32767 H 32767 V -32768 H -32768 Z" /></g></g></g></g></mask><linearGradient
       id="linearGradient102"
       spreadMethod="pad"
       gradientTransform="matrix(38.890652,-38.890652,-38.890652,-38.890652,50.00296,50.003021)"
       gradientUnits="userSpaceOnUse"
       y2="0"
       x2="1"
       y1="0"
       x1="0"><stop
         id="stop96"
         offset="0"
         style="stop-opacity:1;stop-color:#000000" /><stop
         id="stop98"
         offset="0.88376"
         style="stop-opacity:1;stop-color:#000000" /><stop
         id="stop100"
         offset="1"
         style="stop-opacity:1;stop-color:#000000" /></linearGradient><clipPath
       id="clipPath112"
       clipPathUnits="userSpaceOnUse"><path
         id="path110"
         d="M 0,100 H 100 V 0 H 0 Z" /></clipPath><clipPath
       id="clipPath124"
       clipPathUnits="userSpaceOnUse"><path
         id="path122"
         d="M 50,50 46.284,46.284 74.986,17.582 c 7.875,4.781 11.574,13.248 12.35,26.651 v 0 L 52.512,79.056 Z" /></clipPath><clipPath
       id="clipPath132"
       clipPathUnits="userSpaceOnUse"><path
         id="path130"
         d="M -32768,32767 H 32767 V -32768 H -32768 Z" /></clipPath><linearGradient
       id="linearGradient140"
       spreadMethod="pad"
       gradientTransform="matrix(42.430214,-42.430214,-42.430214,-42.430214,42.762848,69.305817)"
       gradientUnits="userSpaceOnUse"
       y2="0"
       x2="1"
       y1="0"
       x1="0"><stop
         id="stop134"
         offset="0"
         style="stop-opacity:0.07998779;stop-color:#ffffff" /><stop
         id="stop136"
         offset="1"
         style="stop-opacity:0;stop-color:#ffffff" /><stop
         id="stop138"
         offset="1"
         style="stop-opacity:0;stop-color:#ffffff" /></linearGradient><mask
       id="mask142"
       height="1"
       width="1"
       y="0"
       x="0"
       maskUnits="userSpaceOnUse"><g
         id="g152"><g
           id="g150"
           clip-path="url(#clipPath132)"><g
             id="g148"><g
               id="g146"><path
                 id="path144"
                 style="fill:url(#linearGradient140);stroke:none"
                 d="M -32768,32767 H 32767 V -32768 H -32768 Z" /></g></g></g></g></mask><linearGradient
       id="linearGradient164"
       spreadMethod="pad"
       gradientTransform="matrix(42.430214,-42.430214,-42.430214,-42.430214,42.762848,69.305817)"
       gradientUnits="userSpaceOnUse"
       y2="0"
       x2="1"
       y1="0"
       x1="0"><stop
         id="stop158"
         offset="0"
         style="stop-opacity:1;stop-color:#000000" /><stop
         id="stop160"
         offset="1"
         style="stop-opacity:1;stop-color:#000000" /><stop
         id="stop162"
         offset="1"
         style="stop-opacity:1;stop-color:#000000" /></linearGradient><clipPath
       id="clipPath174"
       clipPathUnits="userSpaceOnUse"><path
         id="path172"
         d="M 0,100 H 100 V 0 H 0 Z" /></clipPath></defs><g
     transform="matrix(1.25,0,0,-1.25,4,129.33333)"
     id="g10"><g
       id="g12"><g
         clip-path="url(#clipPath18)"
         id="g14"><g
           id="g20"><g
             id="g22"><path
               id="path32"
               style="fill:url(#linearGradient30);stroke:none"
               d="M 50,100 C 12.956,100 0,87.039 0,50 v 0 C 0,12.961 12.956,0 50,0 v 0 c 37.045,0 50,12.961 50,50 v 0 c 0,37.044 -12.955,50 -50,50 z"
               inkscape:connector-curvature="0" /></g></g></g></g><g
       id="g34"><g
         clip-path="url(#clipPath40)"
         id="g36"><g
           id="g42"><g
             id="g44"><path
               id="path54"
               style="fill:url(#linearGradient52);stroke:none"
               d="M 50,100 C 12.956,100 0,87.039 0,50 v 0 C 0,12.961 12.956,0 50,0 v 0 c 37.045,0 50,12.961 50,50 v 0 c 0,37.044 -12.955,50 -50,50 z"
               inkscape:connector-curvature="0" /></g></g></g></g><g
       id="g56"><g
         clip-path="url(#clipPath62)"
         id="g58"><g
           id="g64"><g
             id="g66" /><g
             mask="url(#mask80)"
             id="g92"><g
               id="g94"><path
                 id="path104"
                 style="fill:url(#linearGradient102);stroke:none"
                 d="M 50,50 20.84,20.84 41.404,0.275 C 44.118,0.096 46.97,0 50,0 v 0 c 37.045,0 50,12.961 50,50 v 0 c 0,3.034 -0.096,5.891 -0.276,8.608 v 0 L 79.166,79.166 Z"
                 inkscape:connector-curvature="0" /></g></g></g></g></g><g
       id="g106"><g
         clip-path="url(#clipPath112)"
         id="g108"><g
           transform="translate(87.5,50)"
           id="g114"><path
             id="path116"
             style="fill:#f5f1ce;fill-opacity:1;fill-rule:nonzero;stroke:none"
             d="m 0,0 c 0,-27.779 -9.717,-37.5 -37.5,-37.5 -27.783,0 -37.5,9.721 -37.5,37.5 0,27.779 9.717,37.5 37.5,37.5 C -9.717,37.5 0,27.783 0,0"
             inkscape:connector-curvature="0" /></g></g></g><g
       id="g118"><g
         clip-path="url(#clipPath124)"
         id="g120"><g
           id="g126"><g
             id="g128" /><g
             mask="url(#mask142)"
             id="g154"><g
               id="g156"><path
                 id="path166"
                 style="fill:url(#linearGradient164);stroke:none"
                 d="M 50,50 46.284,46.284 74.986,17.582 c 7.875,4.781 11.574,13.248 12.35,26.651 v 0 L 52.512,79.056 Z"
                 inkscape:connector-curvature="0" /></g></g></g></g></g><g
       id="g168"><g
         clip-path="url(#clipPath174)"
         id="g170"><g
           transform="translate(67.126,37.8574)"
           id="g176"><path
             id="path178"
             style="fill:#237ca6;fill-opacity:1;fill-rule:nonzero;stroke:none"
             d="m 0,0 -11.928,14.213 -1.606,24.648 c -0.123,1.893 -1.695,3.365 -3.592,3.365 -1.897,0 -3.468,-1.472 -3.592,-3.365 l -1.741,-26.718 c 0,-1.473 0.597,-2.806 1.562,-3.772 L -4.983,-4.983 c 1.405,-1.179 3.478,-1.088 4.774,0.209 C 1.088,-3.479 1.179,-1.405 0,0"
             inkscape:connector-curvature="0" /></g></g></g></g></svg>