<svg xmlns="http://www.w3.org/2000/svg" xmlns:xlink="http://www.w3.org/1999/xlink" width="192" height="192" viewBox="0 0 192 192">
  <defs>
    <style>
      .cls-1 {
        fill: none;
      }

      .cls-2 {
        opacity: 0.01;
      }

      .cls-2, .cls-3, .cls-4, .cls-5 {
        isolation: isolate;
      }

      .cls-3 {
        opacity: 0.02;
      }

      .cls-4 {
        opacity: 0.04;
      }

      .cls-5 {
        opacity: 0.06;
      }

      .cls-6 {
        fill: #ffa300;
      }

      .cls-7 {
        fill: url(#未命名的渐变_6);
      }

      .cls-8 {
        fill: #ffc200;
      }

      .cls-9 {
        fill: #ffd522;
      }

      .cls-10 {
        fill: url(#未命名的渐变_5);
      }

      .cls-11 {
        fill: url(#未命名的渐变_3);
      }

      .cls-12 {
        fill: url(#未命名的渐变_12);
      }

      .cls-13 {
        fill: #e58d00;
      }
    </style>
    <linearGradient id="未命名的渐变_6" data-name="未命名的渐变 6" x1="100.5" y1="368" x2="100.5" y2="324" gradientTransform="translate(0 -318)" gradientUnits="userSpaceOnUse">
      <stop offset="0" stop-color="#b96400" stop-opacity="0.4"/>
      <stop offset="0.225" stop-color="#d17e00" stop-opacity="0.265"/>
      <stop offset="0.527" stop-color="#ea9900" stop-opacity="0.12"/>
      <stop offset="0.795" stop-color="#faaa00" stop-opacity="0.031"/>
      <stop offset="1" stop-color="#ffb000" stop-opacity="0"/>
    </linearGradient>
    <linearGradient id="未命名的渐变_5" data-name="未命名的渐变 5" x1="166.012" y1="-290.012" x2="25.988" y2="-149.988" gradientTransform="matrix(1, 0, 0, -1, 0, -124)" gradientUnits="userSpaceOnUse">
      <stop offset="0" stop-opacity="0.1"/>
      <stop offset="0.5" stop-color="gray" stop-opacity="0.05"/>
      <stop offset="1" stop-color="#fff" stop-opacity="0.12"/>
    </linearGradient>
    <linearGradient id="未命名的渐变_3" data-name="未命名的渐变 3" x1="166.013" y1="-242.012" x2="25.987" y2="-101.988" gradientTransform="matrix(1, 0, 0, -1, 0, -76)" gradientUnits="userSpaceOnUse">
      <stop offset="0" stop-opacity="0.04"/>
      <stop offset="0.5" stop-color="gray" stop-opacity="0"/>
      <stop offset="1" stop-color="#fff" stop-opacity="0.1"/>
    </linearGradient>
    <linearGradient id="未命名的渐变_12" data-name="未命名的渐变 12" x1="362.272" y1="-691.869" x2="305.932" y2="-635.529" gradientTransform="matrix(1, 0, 0, -1, -235.32, -549.92)" gradientUnits="userSpaceOnUse">
      <stop offset="0" stop-color="#f0a000"/>
      <stop offset="1" stop-color="#e59500"/>
    </linearGradient>
  </defs>
  <title>folder_system</title>
  <g id="图层_2" data-name="图层 2">
    <g id="图层_1-2" data-name="图层 1">
      <rect class="cls-1" width="192" height="192"/>
      <g>
        <path class="cls-2" d="M96,190C27.3,190,3,165.7,3,97S27.3,4,96,4s93,24.3,93,93S164.7,190,96,190Z"/>
        <path class="cls-3" d="M96,189C28.1,189,4,164.9,4,97S28.1,5,96,5s92,24.1,92,92S163.9,189,96,189Z"/>
        <path class="cls-4" d="M96,188C28.8,188,5,164.2,5,97S28.8,6,96,6s91,23.8,91,91S163.2,188,96,188Z"/>
        <path class="cls-5" d="M186,97c0,66.7-23.3,90-90,90S6,163.7,6,97,29.3,7,96,7,186,30.3,186,97Z"/>
      </g>
      <path class="cls-6" d="M186,96c0,66.7-23.3,90-90,90S6,162.7,6,96,29.3,6,96,6,186,29.3,186,96Z"/>
      <path class="cls-7" d="M71.2,38c5.8,7.7,8.6,10.8,9.6,11.7a1.135,1.135,0,0,0,.8.3h98.6C169.7,18.1,144.2,6,96,6,58.3,6,34.4,13.5,20.8,32H59.2A14.255,14.255,0,0,1,71.2,38Z"/>
      <path class="cls-8" d="M6,96c0,66.7,23.3,90,90,90s90-23.3,90-90c0-18.5-1.8-33.7-5.8-46H81.6a1.135,1.135,0,0,1-.8-.3A120.51,120.51,0,0,1,71.2,38a14.732,14.732,0,0,0-11.9-6H20.9C10.4,46.2,6,67,6,96Z"/>
      <path class="cls-9" d="M7,98c0-29,4.4-49.8,14.9-64H60.3a14.2,14.2,0,0,1,11.9,6c5.8,7.7,8.6,10.8,9.6,11.7a1.135,1.135,0,0,0,.8.3h98.2c-.2-.7-.4-1.3-.6-2H81.6a1.135,1.135,0,0,1-.8-.3A120.51,120.51,0,0,1,71.2,38a14.732,14.732,0,0,0-11.9-6H20.9C10.4,46.2,6,67,6,96c0,24.3,3.1,42.9,10.3,56.6C9.8,139.1,7,121.2,7,98Z"/>
      <path class="cls-10" d="M186,96c0,66.7-23.3,90-90,90S6,162.7,6,96,29.3,6,96,6,186,29.3,186,96Z"/>
      <path class="cls-11" d="M96,6C29.3,6,6,29.3,6,96s23.3,90,90,90,90-23.3,90-90S162.7,6,96,6Zm68.6,158.6C151.2,178,130,184,96,184s-55.2-6-68.6-19.4S8,130,8,96s6-55.2,19.4-68.6S62,8,96,8s55.2,6,68.6,19.4S184,62,184,96,178,151.2,164.6,164.6Z"/>
      <path class="cls-9" d="M140.956,114.909c-.072-2.373-.14-4.743-.217-7.119-.16-4.513-3.206-4.364-6.965-4.93-4.392-.673-5.951-4.395-8.056-7.793-2.613-4.236-4.492-7.194-2.95-12.077,1.136-3.58,1.422-5.158-2.048-7.187-2.233-1.306-4.571-2.462-6.854-3.68-3.581-1.9-5.158,1.368-7.168,3.88-3.183,3.983-8.016,2.765-12.5,3.123-3.8.294-7.008.012-9.649-2.9-2.7-2.966-3.959-4.651-7.811-2.447-2.05,1.188-4.029,2.51-6.039,3.752-3.857,2.38-2.191,4.957-.815,8.493,1.894,4.832-1.714,8.269-3.61,12.378-1.837,3.978-3.88,6.181-8.092,7.089-3.669.8-5.177,1.351-5.184,5.359-.008,2.594.16,5.2.239,7.789.1,3.541,2.609,3.605,5.485,4.039a11.3,11.3,0,0,1,7,3.451c2.06,4.856,6.758,8.556,6.115,14.131-.238,2.039-1.579,4-1.77,6.079-.268,2.909,8.4,7.143,10.881,7.76,3.032,1.609,4.8-2.87,6.455-4.523,3.19-3.177,6.421-2.7,10.636-2.839,4-.123,7.659-.964,10.789,2.168,1.75,1.531,3.825,5.915,6.722,4.1,2.456-.769,10.84-5.52,10.38-8.426-.327-2.082-1.8-3.943-2.166-6a8.9,8.9,0,0,1,1.341-6.921c1.721-2.523,2.478-6.216,4.6-8.328,3.6-3.594,11.973-2.171,11.251-8.424m-44.088,22.7a24.569,24.569,0,1,1,24.563-24.565,24.807,24.807,0,0,1-24.563,24.565"/>
      <path class="cls-12" d="M139.956,112.909c-.072-2.373-.14-4.743-.217-7.119-.16-4.513-3.206-4.364-6.965-4.93-4.392-.673-5.951-4.395-8.056-7.793-2.613-4.236-4.492-7.194-2.95-12.077,1.136-3.58,1.422-5.158-2.048-7.187-2.233-1.306-4.571-2.462-6.854-3.68-3.581-1.9-5.158,1.368-7.168,3.88-3.183,3.983-8.016,2.765-12.5,3.123-3.8.294-7.008.012-9.649-2.9-2.7-2.966-3.959-4.651-7.811-2.447-2.05,1.188-4.029,2.51-6.039,3.752-3.857,2.38-2.191,4.957-.815,8.493,1.894,4.832-1.714,8.269-3.61,12.378-1.837,3.978-3.88,6.181-8.092,7.089-3.669.8-5.177,1.351-5.184,5.359-.008,2.594.16,5.2.239,7.789.1,3.541,2.609,3.605,5.485,4.039a11.3,11.3,0,0,1,7,3.451c2.06,4.856,6.758,8.556,6.115,14.131-.238,2.039-1.579,4-1.77,6.079-.268,2.909,8.4,7.143,10.881,7.76,3.032,1.609,4.8-2.87,6.455-4.523,3.19-3.177,6.421-2.7,10.636-2.839,4-.123,7.659-.964,10.789,2.168,1.75,1.531,3.825,5.915,6.722,4.1,2.456-.769,10.84-5.52,10.38-8.426-.327-2.082-1.8-3.943-2.166-6a8.9,8.9,0,0,1,1.341-6.921c1.721-2.523,2.478-6.216,4.6-8.328,3.6-3.594,11.973-2.171,11.251-8.424m-44.088,22.7a24.569,24.569,0,1,1,24.563-24.565,24.807,24.807,0,0,1-24.563,24.565"/>
      <g>
        <path class="cls-13" d="M125.718,95.067c2.1,3.4,3.664,7.12,8.056,7.793,2.439.367,4.571.441,5.816,1.674-.661-3.223-3.449-3.167-6.816-3.674-4.392-.673-5.951-4.395-8.056-7.793-.586-.95-1.132-1.835-1.614-2.692A37.159,37.159,0,0,0,125.718,95.067Z"/>
        <path class="cls-13" d="M96.868,137.609a24.8,24.8,0,0,0,24.563-24.565,24.134,24.134,0,0,0-3.1-11.8,24.03,24.03,0,0,1,2.1,9.8,24.516,24.516,0,0,1-46.037,11.791A24.835,24.835,0,0,0,96.868,137.609Z"/>
        <path class="cls-13" d="M69.07,144.342a2.987,2.987,0,0,0,1.009,2.1c0-.032-.012-.066-.009-.1.191-2.082,1.532-4.04,1.77-6.079a10.788,10.788,0,0,0-1.73-6.8,9.482,9.482,0,0,1,.73,4.8C70.6,140.3,69.261,142.26,69.07,144.342Z"/>
        <path class="cls-13" d="M53.239,118.642c-.079-2.594-.247-5.195-.239-7.789.007-4.008,1.515-4.558,5.184-5.359,4.212-.908,6.255-3.111,8.092-7.089,1.9-4.109,5.5-7.546,3.61-12.378-1.376-3.536-3.042-6.113.815-8.493,2.01-1.242,3.989-2.564,6.039-3.752,3.852-2.2,5.116-.519,7.811,2.447,2.641,2.909,5.852,3.191,9.649,2.9,4.482-.358,9.315.86,12.5-3.123,2.01-2.512,3.587-5.78,7.168-3.88,2.283,1.218,4.621,2.374,6.854,3.68a8.622,8.622,0,0,1,1.793,1.327c-.126-1.241-.9-2.217-2.793-3.327-2.233-1.306-4.571-2.462-6.854-3.68-3.581-1.9-5.158,1.368-7.168,3.88-3.183,3.983-8.016,2.765-12.5,3.123-3.8.294-7.008.012-9.649-2.9-2.7-2.966-3.959-4.651-7.811-2.447-2.05,1.188-4.029,2.51-6.039,3.752-3.857,2.38-2.191,4.957-.815,8.493,1.894,4.832-1.714,8.269-3.61,12.378-1.837,3.978-3.88,6.181-8.092,7.089-3.669.8-5.177,1.351-5.184,5.359-.008,2.594.16,5.2.239,7.789A3.543,3.543,0,0,0,53.31,119.4,6.11,6.11,0,0,1,53.239,118.642Z"/>
      </g>
    </g>
  </g>
</svg>
