<?xml version="1.0" encoding="UTF-8" standalone="no"?>
<svg
   xmlns:dc="http://purl.org/dc/elements/1.1/"
   xmlns:cc="http://creativecommons.org/ns#"
   xmlns:rdf="http://www.w3.org/1999/02/22-rdf-syntax-ns#"
   xmlns:svg="http://www.w3.org/2000/svg"
   xmlns="http://www.w3.org/2000/svg"
   xmlns:sodipodi="http://sodipodi.sourceforge.net/DTD/sodipodi-0.dtd"
   xmlns:inkscape="http://www.inkscape.org/namespaces/inkscape"
   viewBox="0 0 133.33333 133.33333"
   height="133.33333"
   width="133.33333"
   xml:space="preserve"
   id="svg2"
   version="1.1"
   sodipodi:docname="icon-launcher-sat.svg"
   inkscape:version="0.92.2 2405546, 2018-03-11"><sodipodi:namedview
     pagecolor="#ffffff"
     bordercolor="#666666"
     borderopacity="1"
     objecttolerance="10"
     gridtolerance="10"
     guidetolerance="10"
     inkscape:pageopacity="0"
     inkscape:pageshadow="2"
     inkscape:window-width="1366"
     inkscape:window-height="706"
     id="namedview65"
     showgrid="false"
     inkscape:zoom="1.7700001"
     inkscape:cx="66.666664"
     inkscape:cy="66.666664"
     inkscape:window-x="0"
     inkscape:window-y="34"
     inkscape:window-maximized="1"
     inkscape:current-layer="svg2" /><metadata
     id="metadata8"><rdf:RDF><cc:Work
         rdf:about=""><dc:format>image/svg+xml</dc:format><dc:type
           rdf:resource="http://purl.org/dc/dcmitype/StillImage" /></cc:Work></rdf:RDF></metadata><defs
     id="defs6"><clipPath
       id="clipPath18"
       clipPathUnits="userSpaceOnUse"><path
         id="path16"
         d="M 50,100 C 12.956,100 0,87.039 0,50 v 0 C 0,12.961 12.956,0 50,0 v 0 c 37.045,0 50,12.961 50,50 v 0 c 0,37.044 -12.955,50 -50,50 z" /></clipPath><linearGradient
       id="linearGradient30"
       spreadMethod="pad"
       gradientTransform="matrix(77.78125,-77.78125,-77.78125,-77.78125,11.109896,88.891144)"
       gradientUnits="userSpaceOnUse"
       y2="0"
       x2="1"
       y1="0"
       x1="0"><stop
         id="stop24"
         offset="0"
         style="stop-opacity:1;stop-color:#bfbfbf" /><stop
         id="stop26"
         offset="0.00000049"
         style="stop-opacity:1;stop-color:#bfbfbf" /><stop
         id="stop28"
         offset="1"
         style="stop-opacity:1;stop-color:#878787" /></linearGradient><clipPath
       id="clipPath40"
       clipPathUnits="userSpaceOnUse"><path
         id="path38"
         d="M 50,50 20.899,20.9 41.531,0.267 C 44.207,0.094 47.017,0 50,0 v 0 c 37.045,0 50,12.961 50,50 v 0 c 0,3.014 -0.096,5.853 -0.274,8.555 v 0 L 79.141,79.141 Z" /></clipPath><clipPath
       id="clipPath48"
       clipPathUnits="userSpaceOnUse"><path
         id="path46"
         d="M -32768,32767 H 32767 V -32768 H -32768 Z" /></clipPath><linearGradient
       id="linearGradient56"
       spreadMethod="pad"
       gradientTransform="matrix(38.890652,-38.890652,-38.890652,-38.890652,50.019943,50.020004)"
       gradientUnits="userSpaceOnUse"
       y2="0"
       x2="1"
       y1="0"
       x1="0"><stop
         id="stop50"
         offset="0"
         style="stop-opacity:0.11999695;stop-color:#ffffff" /><stop
         id="stop52"
         offset="0.00000049"
         style="stop-opacity:0.11999695;stop-color:#ffffff" /><stop
         id="stop54"
         offset="1"
         style="stop-opacity:0;stop-color:#ffffff" /></linearGradient><mask
       id="mask58"
       height="1"
       width="1"
       y="0"
       x="0"
       maskUnits="userSpaceOnUse"><g
         id="g68"><g
           id="g66"
           clip-path="url(#clipPath48)"><g
             id="g64"><g
               id="g62"><path
                 id="path60"
                 style="fill:url(#linearGradient56);stroke:none"
                 d="M -32768,32767 H 32767 V -32768 H -32768 Z" /></g></g></g></g></mask><linearGradient
       id="linearGradient80"
       spreadMethod="pad"
       gradientTransform="matrix(38.890652,-38.890652,-38.890652,-38.890652,50.019943,50.020004)"
       gradientUnits="userSpaceOnUse"
       y2="0"
       x2="1"
       y1="0"
       x1="0"><stop
         id="stop74"
         offset="0"
         style="stop-opacity:1;stop-color:#000000" /><stop
         id="stop76"
         offset="0.00000049"
         style="stop-opacity:1;stop-color:#000000" /><stop
         id="stop78"
         offset="1"
         style="stop-opacity:1;stop-color:#000000" /></linearGradient><clipPath
       id="clipPath90"
       clipPathUnits="userSpaceOnUse"><path
         id="path88"
         d="M 12.5,50 C 12.5,22.221 22.217,12.5 50,12.5 v 0 c 27.783,0 37.5,9.721 37.5,37.5 v 0 c 0,27.783 -9.717,37.5 -37.5,37.5 v 0 C 22.217,87.5 12.5,77.779 12.5,50" /></clipPath><linearGradient
       id="linearGradient102"
       spreadMethod="pad"
       gradientTransform="matrix(58.335937,-58.335937,-58.335937,-58.335937,20.832422,79.168358)"
       gradientUnits="userSpaceOnUse"
       y2="0"
       x2="1"
       y1="0"
       x1="0"><stop
         id="stop96"
         offset="0"
         style="stop-opacity:1;stop-color:#fce34c" /><stop
         id="stop98"
         offset="0.00000018"
         style="stop-opacity:1;stop-color:#fce34c" /><stop
         id="stop100"
         offset="1"
         style="stop-opacity:1;stop-color:#d49e3b" /></linearGradient><clipPath
       id="clipPath112"
       clipPathUnits="userSpaceOnUse"><path
         id="path110"
         d="M 0,100 H 100 V 0 H 0 Z" /></clipPath><clipPath
       id="clipPath120"
       clipPathUnits="userSpaceOnUse"><path
         id="path118"
         d="m 12.5,87.5 h 75 v -75 h -75 z" /></clipPath></defs><g
     transform="matrix(1.25,0,0,-1.25,4,129.33333)"
     id="g10"><g
       id="g12"><g
         clip-path="url(#clipPath18)"
         id="g14"><g
           id="g20"><g
             id="g22"><path
               id="path32"
               style="fill:url(#linearGradient30);stroke:none"
               d="M 50,100 C 12.956,100 0,87.039 0,50 v 0 C 0,12.961 12.956,0 50,0 v 0 c 37.045,0 50,12.961 50,50 v 0 c 0,37.044 -12.955,50 -50,50 z"
               inkscape:connector-curvature="0" /></g></g></g></g><g
       id="g34"><g
         clip-path="url(#clipPath40)"
         id="g36"><g
           id="g42"><g
             id="g44" /><g
             mask="url(#mask58)"
             id="g70"><g
               id="g72"><path
                 id="path82"
                 style="fill:url(#linearGradient80);stroke:none"
                 d="M 50,50 20.899,20.9 41.531,0.267 C 44.207,0.094 47.017,0 50,0 v 0 c 37.045,0 50,12.961 50,50 v 0 c 0,3.014 -0.096,5.853 -0.274,8.555 v 0 L 79.141,79.141 Z"
                 inkscape:connector-curvature="0" /></g></g></g></g></g><g
       id="g84"><g
         clip-path="url(#clipPath90)"
         id="g86"><g
           id="g92"><g
             id="g94"><path
               id="path104"
               style="fill:url(#linearGradient102);stroke:none"
               d="M 12.5,50 C 12.5,22.221 22.217,12.5 50,12.5 v 0 c 27.783,0 37.5,9.721 37.5,37.5 v 0 c 0,27.783 -9.717,37.5 -37.5,37.5 v 0 C 22.217,87.5 12.5,77.779 12.5,50"
               inkscape:connector-curvature="0" /></g></g></g></g><g
       id="g106"><g
         clip-path="url(#clipPath112)"
         id="g108"><g
           id="g114"><g
             id="g116" /><g
             id="g128"><g
               style="opacity:0.60000598"
               id="g126"
               clip-path="url(#clipPath120)"><g
                 id="g124"
                 transform="translate(63.7197,61.3398)"><path
                   id="path122"
                   style="fill:#000000;fill-opacity:1;fill-rule:nonzero;stroke:none"
                   d="m 0,0 5.53,5.53 0.614,0.614 c 1.528,1.528 2.386,3.6 2.386,5.761 v 10.617 c -0.951,0.431 -1.947,0.825 -3,1.174 V 11.907 C 5.53,10.552 4.992,9.252 4.033,8.293 L -2.09,2.17 c -2.28,1.71 -5.5,2.54 -9.88,2.71 v 21.261 c -0.579,0.008 -1.155,0.019 -1.75,0.019 -0.425,0 -0.833,-0.01 -1.25,-0.014 V 4.89 C -19.42,4.78 -22.71,4.01 -25.06,2.38 l -5.913,5.913 c -0.958,0.959 -1.497,2.259 -1.497,3.614 v 11.942 c -1.05,-0.331 -2.049,-0.703 -3,-1.112 V 11.905 c 0,-2.161 0.859,-4.233 2.387,-5.761 l 5.854,-5.854 1.012,-1.012 c 0.566,-0.566 1.48,-0.577 2.053,-0.019 0.374,0.365 0.795,0.685 1.264,0.961 2.04,1.23 5,1.69 9.18,1.69 4.39,0 7.43,-0.51 9.481,-1.89 0.859,-0.56 1.55,-1.28 2.079,-2.18 1.23,-2.04 1.69,-5 1.69,-9.18 0,-4.18 -0.46,-7.139 -1.69,-9.18 -0.529,-0.9 -1.22,-1.62 -2.079,-2.18 -2.051,-1.38 -5.091,-1.89 -9.481,-1.89 -4.18,0 -7.14,0.46 -9.18,1.691 -0.9,0.529 -1.62,1.219 -2.18,2.079 -1.22,1.81 -1.76,4.39 -1.87,7.98 -0.01,0.481 -0.02,0.98 -0.02,1.5 v 0.016 c 0,0.816 -0.668,1.484 -1.484,1.484 h -22.749 c -0.006,-0.498 -0.017,-0.99 -0.017,-1.5 0,-0.51 0.011,-1.002 0.017,-1.5 h 21.253 c 0.15,-4.51 0.98,-7.809 2.721,-10.13 l -5.854,-5.853 c -1.528,-1.529 -2.387,-3.601 -2.387,-5.761 v -10.833 c 0.951,-0.409 1.95,-0.78 3,-1.111 v 11.941 c 0,1.356 0.539,2.655 1.497,3.614 l 5.913,5.913 c 2.35,-1.629 5.64,-2.4 10.09,-2.51 v -21.256 c 0.417,-0.004 0.825,-0.014 1.25,-0.014 0.595,0 1.171,0.011 1.75,0.02 v 21.26 c 4.38,0.17 7.6,1 9.88,2.71 l 6.123,-6.123 c 0.959,-0.959 1.497,-2.258 1.497,-3.614 v -11.788 c 1.053,0.35 2.049,0.743 3,1.174 v 10.617 c 0,2.16 -0.858,4.232 -2.386,5.761 L 0,-22.68 c 1.601,2.3 2.37,5.52 2.511,9.84 h 21.253 c 0.006,0.498 0.016,0.99 0.016,1.5 0,0.51 -0.01,1.002 -0.016,1.5 H 2.511 C 2.37,-5.52 1.601,-2.3 0,0"
                   inkscape:connector-curvature="0" /></g></g></g></g></g></g></g></svg>