<?xml version="1.0" encoding="UTF-8" standalone="no"?>
<svg
   xmlns:dc="http://purl.org/dc/elements/1.1/"
   xmlns:cc="http://creativecommons.org/ns#"
   xmlns:rdf="http://www.w3.org/1999/02/22-rdf-syntax-ns#"
   xmlns:svg="http://www.w3.org/2000/svg"
   xmlns="http://www.w3.org/2000/svg"
   xmlns:sodipodi="http://sodipodi.sourceforge.net/DTD/sodipodi-0.dtd"
   xmlns:inkscape="http://www.inkscape.org/namespaces/inkscape"
   viewBox="0 0 133.33333 133.33333"
   height="133.33333"
   width="133.33333"
   xml:space="preserve"
   id="svg2"
   version="1.1"
   sodipodi:docname="icon-launcher-mediaplayer.svg"
   inkscape:version="0.92.2 2405546, 2018-03-11"><sodipodi:namedview
     pagecolor="#ffffff"
     bordercolor="#666666"
     borderopacity="1"
     objecttolerance="10"
     gridtolerance="10"
     guidetolerance="10"
     inkscape:pageopacity="0"
     inkscape:pageshadow="2"
     inkscape:window-width="1366"
     inkscape:window-height="717"
     id="namedview102"
     showgrid="false"
     inkscape:zoom="1.7700001"
     inkscape:cx="66.666664"
     inkscape:cy="66.666664"
     inkscape:window-x="0"
     inkscape:window-y="25"
     inkscape:window-maximized="1"
     inkscape:current-layer="svg2" /><metadata
     id="metadata8"><rdf:RDF><cc:Work
         rdf:about=""><dc:format>image/svg+xml</dc:format><dc:type
           rdf:resource="http://purl.org/dc/dcmitype/StillImage" /></cc:Work></rdf:RDF></metadata><defs
     id="defs6"><clipPath
       id="clipPath18"
       clipPathUnits="userSpaceOnUse"><path
         id="path16"
         d="M 50,100 C 12.956,100 0,87.039 0,50 v 0 C 0,12.961 12.956,0 50,0 v 0 c 37.045,0 50,12.961 50,50 v 0 c 0,37.044 -12.955,50 -50,50 z" /></clipPath><linearGradient
       id="linearGradient30"
       spreadMethod="pad"
       gradientTransform="matrix(77.78125,-77.78125,-77.78125,-77.78125,11.109896,88.891144)"
       gradientUnits="userSpaceOnUse"
       y2="0"
       x2="1"
       y1="0"
       x1="0"><stop
         id="stop24"
         offset="0"
         style="stop-opacity:1;stop-color:#f7597e" /><stop
         id="stop26"
         offset="1"
         style="stop-opacity:1;stop-color:#e02453" /><stop
         id="stop28"
         offset="1"
         style="stop-opacity:1;stop-color:#e02453" /></linearGradient><clipPath
       id="clipPath40"
       clipPathUnits="userSpaceOnUse"><path
         id="path38"
         d="M 50,100 C 12.956,100 0,87.039 0,50 v 0 C 0,12.961 12.956,0 50,0 v 0 c 37.045,0 50,12.961 50,50 v 0 c 0,37.044 -12.955,50 -50,50 z" /></clipPath><linearGradient
       id="linearGradient52"
       spreadMethod="pad"
       gradientTransform="matrix(77.78125,-77.78125,-77.78125,-77.78125,11.109896,88.891144)"
       gradientUnits="userSpaceOnUse"
       y2="0"
       x2="1"
       y1="0"
       x1="0"><stop
         id="stop46"
         offset="0"
         style="stop-opacity:1;stop-color:#f578a9" /><stop
         id="stop48"
         offset="1"
         style="stop-opacity:1;stop-color:#9357b5" /><stop
         id="stop50"
         offset="1"
         style="stop-opacity:1;stop-color:#9357b5" /></linearGradient><clipPath
       id="clipPath62"
       clipPathUnits="userSpaceOnUse"><path
         id="path60"
         d="M 0,100 H 100 V 0 H 0 Z" /></clipPath><clipPath
       id="clipPath70"
       clipPathUnits="userSpaceOnUse"><path
         id="path68"
         d="M 12.5,87.5 H 100 V 0 H 12.5 Z" /></clipPath><clipPath
       id="clipPath74"
       clipPathUnits="userSpaceOnUse"><path
         id="path72"
         d="M 99.724,58.608 79.238,79.094 C 73.341,85.048 63.948,87.5 50,87.5 22.217,87.5 12.5,77.779 12.5,50 12.5,35.942 14.995,26.517 21.053,20.627 L 41.404,0.275 C 44.118,0.097 46.97,0 50,0 c 37.045,0 50,12.961 50,50 0,3.035 -0.097,5.891 -0.276,8.608" /></clipPath><clipPath
       id="clipPath78"
       clipPathUnits="userSpaceOnUse"><path
         id="path76"
         d="M -32768,32767 H 32767 V -32768 H -32768 Z" /></clipPath><linearGradient
       id="linearGradient86"
       spreadMethod="pad"
       gradientTransform="matrix(68.058586,-68.058586,-68.058586,-68.058586,20.834354,79.170288)"
       gradientUnits="userSpaceOnUse"
       y2="0"
       x2="1"
       y1="0"
       x1="0"><stop
         id="stop80"
         offset="0"
         style="stop-opacity:0.09999237;stop-color:#ffffff" /><stop
         id="stop82"
         offset="0.492307"
         style="stop-opacity:0.09999237;stop-color:#ffffff" /><stop
         id="stop84"
         offset="1"
         style="stop-opacity:0;stop-color:#ffffff" /></linearGradient><mask
       id="mask88"
       height="1"
       width="1"
       y="0"
       x="0"
       maskUnits="userSpaceOnUse"><g
         id="g98"><g
           id="g96"
           clip-path="url(#clipPath78)"><g
             id="g94"><g
               id="g92"><path
                 id="path90"
                 style="fill:url(#linearGradient86);stroke:none"
                 d="M -32768,32767 H 32767 V -32768 H -32768 Z" /></g></g></g></g></mask><linearGradient
       id="linearGradient106"
       spreadMethod="pad"
       gradientTransform="matrix(68.058586,-68.058586,-68.058586,-68.058586,20.834354,79.170288)"
       gradientUnits="userSpaceOnUse"
       y2="0"
       x2="1"
       y1="0"
       x1="0"><stop
         id="stop100"
         offset="0"
         style="stop-opacity:1;stop-color:#231815" /><stop
         id="stop102"
         offset="0.492307"
         style="stop-opacity:1;stop-color:#231815" /><stop
         id="stop104"
         offset="1"
         style="stop-opacity:1;stop-color:#231815" /></linearGradient><clipPath
       id="clipPath132"
       clipPathUnits="userSpaceOnUse"><path
         id="path130"
         d="m 12.5,87.5 h 75 v -75 h -75 z" /></clipPath><clipPath
       id="clipPath148"
       clipPathUnits="userSpaceOnUse"><path
         id="path146"
         d="M 40.506,36.507 63.481,13.531 c 11.815,2.114 18.61,7.645 21.786,17.974 v 0 L 64.511,52.261 Z" /></clipPath><clipPath
       id="clipPath156"
       clipPathUnits="userSpaceOnUse"><path
         id="path154"
         d="M -32768,32767 H 32767 V -32768 H -32768 Z" /></clipPath><linearGradient
       id="linearGradient164"
       spreadMethod="pad"
       gradientTransform="matrix(27.16017,-27.16017,-27.16017,-27.16017,50.445663,46.446457)"
       gradientUnits="userSpaceOnUse"
       y2="0"
       x2="1"
       y1="0"
       x1="0"><stop
         id="stop158"
         offset="0"
         style="stop-opacity:0.09999237;stop-color:#ffffff" /><stop
         id="stop160"
         offset="0.815384"
         style="stop-opacity:0;stop-color:#ffffff" /><stop
         id="stop162"
         offset="1"
         style="stop-opacity:0;stop-color:#ffffff" /></linearGradient><mask
       id="mask166"
       height="1"
       width="1"
       y="0"
       x="0"
       maskUnits="userSpaceOnUse"><g
         id="g176"><g
           id="g174"
           clip-path="url(#clipPath156)"><g
             id="g172"><g
               id="g170"><path
                 id="path168"
                 style="fill:url(#linearGradient164);stroke:none"
                 d="M -32768,32767 H 32767 V -32768 H -32768 Z" /></g></g></g></g></mask><linearGradient
       id="linearGradient188"
       spreadMethod="pad"
       gradientTransform="matrix(27.16017,-27.16017,-27.16017,-27.16017,50.445663,46.446457)"
       gradientUnits="userSpaceOnUse"
       y2="0"
       x2="1"
       y1="0"
       x1="0"><stop
         id="stop182"
         offset="0"
         style="stop-opacity:1;stop-color:#231815" /><stop
         id="stop184"
         offset="0.815384"
         style="stop-opacity:1;stop-color:#231815" /><stop
         id="stop186"
         offset="1"
         style="stop-opacity:1;stop-color:#231815" /></linearGradient><clipPath
       id="clipPath198"
       clipPathUnits="userSpaceOnUse"><path
         id="path196"
         d="M 0,100 H 100 V 0 H 0 Z" /></clipPath></defs><g
     transform="matrix(1.25,0,0,-1.25,4,129.33333)"
     id="g10"><g
       id="g12"><g
         clip-path="url(#clipPath18)"
         id="g14"><g
           id="g20"><g
             id="g22"><path
               id="path32"
               style="fill:url(#linearGradient30);stroke:none"
               d="M 50,100 C 12.956,100 0,87.039 0,50 v 0 C 0,12.961 12.956,0 50,0 v 0 c 37.045,0 50,12.961 50,50 v 0 c 0,37.044 -12.955,50 -50,50 z"
               inkscape:connector-curvature="0" /></g></g></g></g><g
       id="g34"><g
         clip-path="url(#clipPath40)"
         id="g36"><g
           id="g42"><g
             id="g44"><path
               id="path54"
               style="fill:url(#linearGradient52);stroke:none"
               d="M 50,100 C 12.956,100 0,87.039 0,50 v 0 C 0,12.961 12.956,0 50,0 v 0 c 37.045,0 50,12.961 50,50 v 0 c 0,37.044 -12.955,50 -50,50 z"
               inkscape:connector-curvature="0" /></g></g></g></g><g
       id="g56"><g
         clip-path="url(#clipPath62)"
         id="g58"><g
           id="g64"><g
             id="g66" /><g
             id="g124"><g
               style="opacity:0.80000299"
               id="g122"
               clip-path="url(#clipPath70)"><g
                 id="g120"><g
                   id="g118"
                   clip-path="url(#clipPath74)"><g
                     id="g116"><g
                       id="g108" /><g
                       id="g114"
                       mask="url(#mask88)"><g
                         id="g112"><path
                           id="path110"
                           style="fill:url(#linearGradient106);stroke:none"
                           d="M 99.724,58.608 79.238,79.094 C 73.341,85.048 63.948,87.5 50,87.5 22.217,87.5 12.5,77.779 12.5,50 12.5,35.942 14.995,26.517 21.053,20.627 L 41.404,0.275 C 44.118,0.097 46.97,0 50,0 c 37.045,0 50,12.961 50,50 0,3.035 -0.097,5.891 -0.276,8.608"
                           inkscape:connector-curvature="0" /></g></g></g></g></g></g></g></g><g
           id="g126"><g
             id="g128" /><g
             id="g140"><g
               style="opacity:0.80000299"
               id="g138"
               clip-path="url(#clipPath132)"><g
                 id="g136"
                 transform="translate(87.5,50)"><path
                   id="path134"
                   style="fill:#ffb7b0;fill-opacity:1;fill-rule:nonzero;stroke:none"
                   d="m 0,0 c 0,-27.779 -9.717,-37.5 -37.5,-37.5 -27.783,0 -37.5,9.721 -37.5,37.5 0,27.779 9.717,37.5 37.5,37.5 C -9.717,37.5 0,27.783 0,0"
                   inkscape:connector-curvature="0" /></g></g></g></g></g></g><g
       id="g142"><g
         clip-path="url(#clipPath148)"
         id="g144"><g
           id="g150"><g
             id="g152" /><g
             mask="url(#mask166)"
             id="g178"><g
               id="g180"><path
                 id="path190"
                 style="fill:url(#linearGradient188);stroke:none"
                 d="M 40.506,36.507 63.481,13.531 c 11.815,2.114 18.61,7.645 21.786,17.974 v 0 L 64.511,52.261 Z"
                 inkscape:connector-curvature="0" /></g></g></g></g></g><g
       id="g192"><g
         clip-path="url(#clipPath198)"
         id="g194"><g
           transform="translate(63.7744,52.8364)"
           id="g200"><path
             id="path202"
             style="fill:#54677a;fill-opacity:1;fill-rule:nonzero;stroke:none"
             d="m 0,0 -19.33,11.16 c -2.184,1.261 -4.913,-0.315 -4.913,-2.836 v -22.321 c 0,-2.521 2.729,-4.097 4.913,-2.836 L 0,-5.673 C 2.184,-4.413 2.184,-1.261 0,0"
             inkscape:connector-curvature="0" /></g></g></g></g></svg>