<?xml version="1.0" encoding="UTF-8" standalone="no"?>
<svg
   xmlns:dc="http://purl.org/dc/elements/1.1/"
   xmlns:cc="http://creativecommons.org/ns#"
   xmlns:rdf="http://www.w3.org/1999/02/22-rdf-syntax-ns#"
   xmlns:svg="http://www.w3.org/2000/svg"
   xmlns="http://www.w3.org/2000/svg"
   xmlns:sodipodi="http://sodipodi.sourceforge.net/DTD/sodipodi-0.dtd"
   xmlns:inkscape="http://www.inkscape.org/namespaces/inkscape"
   viewBox="0 0 133.33333 133.33333"
   height="133.33333"
   width="133.33333"
   xml:space="preserve"
   id="svg2"
   version="1.1"
   sodipodi:docname="icon-launcher-shell.svg"
   inkscape:version="0.92.2 2405546, 2018-03-11"><sodipodi:namedview
     pagecolor="#ffffff"
     bordercolor="#666666"
     borderopacity="1"
     objecttolerance="10"
     gridtolerance="10"
     guidetolerance="10"
     inkscape:pageopacity="0"
     inkscape:pageshadow="2"
     inkscape:window-width="1366"
     inkscape:window-height="717"
     id="namedview92"
     showgrid="false"
     inkscape:zoom="1.7700001"
     inkscape:cx="66.666664"
     inkscape:cy="66.666664"
     inkscape:window-x="0"
     inkscape:window-y="25"
     inkscape:window-maximized="1"
     inkscape:current-layer="svg2" /><metadata
     id="metadata8"><rdf:RDF><cc:Work
         rdf:about=""><dc:format>image/svg+xml</dc:format><dc:type
           rdf:resource="http://purl.org/dc/dcmitype/StillImage" /></cc:Work></rdf:RDF></metadata><defs
     id="defs6"><clipPath
       id="clipPath18"
       clipPathUnits="userSpaceOnUse"><path
         id="path16"
         d="M 50,100 C 12.956,100 0,87.039 0,50 v 0 C 0,12.961 12.956,0 50,0 v 0 c 37.045,0 50,12.961 50,50 v 0 c 0,37.044 -12.955,50 -50,50 z" /></clipPath><linearGradient
       id="linearGradient32"
       spreadMethod="pad"
       gradientTransform="matrix(77.78125,-77.78125,-77.78125,-77.78125,11.109896,88.891144)"
       gradientUnits="userSpaceOnUse"
       y2="0"
       x2="1"
       y1="0"
       x1="0"><stop
         id="stop24"
         offset="0"
         style="stop-opacity:1;stop-color:#d4d4d4" /><stop
         id="stop26"
         offset="0.14086381"
         style="stop-opacity:1;stop-color:#d4d4d4" /><stop
         id="stop28"
         offset="0.999999"
         style="stop-opacity:1;stop-color:#a5a5a5" /><stop
         id="stop30"
         offset="1"
         style="stop-opacity:1;stop-color:#a5a5a5" /></linearGradient><clipPath
       id="clipPath42"
       clipPathUnits="userSpaceOnUse"><path
         id="path40"
         d="M 15.449,33.711 49.149,0.01 C 49.436,0.008 49.711,0 50,0 v 0 c 37.045,0 50,12.961 50,50 v 0 c 0,3.034 -0.096,5.892 -0.276,8.609 v 0 L 79.23,79.103 Z" /></clipPath><clipPath
       id="clipPath50"
       clipPathUnits="userSpaceOnUse"><path
         id="path48"
         d="M -32768,32767 H 32767 V -32768 H -32768 Z" /></clipPath><linearGradient
       id="linearGradient60"
       spreadMethod="pad"
       gradientTransform="matrix(48.02203,-48.02203,-48.02203,-48.02203,42.74147,61.004288)"
       gradientUnits="userSpaceOnUse"
       y2="0"
       x2="1"
       y1="0"
       x1="0"><stop
         id="stop52"
         offset="0"
         style="stop-opacity:0.11999695;stop-color:#ffffff" /><stop
         id="stop54"
         offset="0.12593462"
         style="stop-opacity:0.11999695;stop-color:#ffffff" /><stop
         id="stop56"
         offset="0.894016"
         style="stop-opacity:0;stop-color:#ffffff" /><stop
         id="stop58"
         offset="1"
         style="stop-opacity:0;stop-color:#ffffff" /></linearGradient><mask
       id="mask62"
       height="1"
       width="1"
       y="0"
       x="0"
       maskUnits="userSpaceOnUse"><g
         id="g72"><g
           id="g70"
           clip-path="url(#clipPath50)"><g
             id="g68"><g
               id="g66"><path
                 id="path64"
                 style="fill:url(#linearGradient60);stroke:none"
                 d="M -32768,32767 H 32767 V -32768 H -32768 Z" /></g></g></g></g></mask><linearGradient
       id="linearGradient86"
       spreadMethod="pad"
       gradientTransform="matrix(48.02203,-48.02203,-48.02203,-48.02203,42.74147,61.004288)"
       gradientUnits="userSpaceOnUse"
       y2="0"
       x2="1"
       y1="0"
       x1="0"><stop
         id="stop78"
         offset="0"
         style="stop-opacity:1;stop-color:#000000" /><stop
         id="stop80"
         offset="0.12593462"
         style="stop-opacity:1;stop-color:#000000" /><stop
         id="stop82"
         offset="0.894016"
         style="stop-opacity:1;stop-color:#000000" /><stop
         id="stop84"
         offset="1"
         style="stop-opacity:1;stop-color:#000000" /></linearGradient><clipPath
       id="clipPath96"
       clipPathUnits="userSpaceOnUse"><path
         id="path94"
         d="m 12.5,50 c 0,-4.626 0.272,-8.748 0.852,-12.409 v 0 C 13.86,34.377 16.607,32 19.86,32 v 0 h 60.28 c 3.254,0 6,2.377 6.508,5.591 v 0 C 87.227,41.252 87.5,45.374 87.5,50 v 0 c 0,27.783 -9.717,37.5 -37.5,37.5 v 0 C 22.217,87.5 12.5,77.779 12.5,50" /></clipPath><linearGradient
       id="linearGradient110"
       spreadMethod="pad"
       gradientTransform="matrix(54.5975,-54.5975,-54.5975,-54.5975,22.701641,81.037575)"
       gradientUnits="userSpaceOnUse"
       y2="0"
       x2="1"
       y1="0"
       x1="0"><stop
         id="stop102"
         offset="0"
         style="stop-opacity:1;stop-color:#877d7e" /><stop
         id="stop104"
         offset="0.14086381"
         style="stop-opacity:1;stop-color:#877d7e" /><stop
         id="stop106"
         offset="0.999999"
         style="stop-opacity:1;stop-color:#564d56" /><stop
         id="stop108"
         offset="1"
         style="stop-opacity:1;stop-color:#564d56" /></linearGradient><clipPath
       id="clipPath120"
       clipPathUnits="userSpaceOnUse"><path
         id="path118"
         d="M 26.743,47.24 41.984,32 H 80.14 c 2.283,0 4.296,1.185 5.482,2.993 v 0 l -9.835,9.835 -10.488,0.221 -17.077,17.08 z" /></clipPath><clipPath
       id="clipPath128"
       clipPathUnits="userSpaceOnUse"><path
         id="path126"
         d="M -32768,32767 H 32767 V -32768 H -32768 Z" /></clipPath><linearGradient
       id="linearGradient138"
       spreadMethod="pad"
       gradientTransform="matrix(35.663216,-35.663216,-35.663216,-35.663216,38.401428,58.898499)"
       gradientUnits="userSpaceOnUse"
       y2="0"
       x2="1"
       y1="0"
       x1="0"><stop
         id="stop130"
         offset="0"
         style="stop-opacity:0.07998779;stop-color:#ffffff" /><stop
         id="stop132"
         offset="0.14086381"
         style="stop-opacity:0.07998779;stop-color:#ffffff" /><stop
         id="stop134"
         offset="0.999999"
         style="stop-opacity:0;stop-color:#ffffff" /><stop
         id="stop136"
         offset="1"
         style="stop-opacity:0;stop-color:#ffffff" /></linearGradient><mask
       id="mask140"
       height="1"
       width="1"
       y="0"
       x="0"
       maskUnits="userSpaceOnUse"><g
         id="g150"><g
           id="g148"
           clip-path="url(#clipPath128)"><g
             id="g146"><g
               id="g144"><path
                 id="path142"
                 style="fill:url(#linearGradient138);stroke:none"
                 d="M -32768,32767 H 32767 V -32768 H -32768 Z" /></g></g></g></g></mask><linearGradient
       id="linearGradient164"
       spreadMethod="pad"
       gradientTransform="matrix(35.663216,-35.663216,-35.663216,-35.663216,38.401428,58.898499)"
       gradientUnits="userSpaceOnUse"
       y2="0"
       x2="1"
       y1="0"
       x1="0"><stop
         id="stop156"
         offset="0"
         style="stop-opacity:1;stop-color:#000000" /><stop
         id="stop158"
         offset="0.14086381"
         style="stop-opacity:1;stop-color:#000000" /><stop
         id="stop160"
         offset="0.999999"
         style="stop-opacity:1;stop-color:#000000" /><stop
         id="stop162"
         offset="1"
         style="stop-opacity:1;stop-color:#000000" /></linearGradient><clipPath
       id="clipPath174"
       clipPathUnits="userSpaceOnUse"><path
         id="path172"
         d="M 0,100 H 100 V 0 H 0 Z" /></clipPath></defs><g
     transform="matrix(1.25,0,0,-1.25,4,129.33333)"
     id="g10"><g
       id="g12"><g
         clip-path="url(#clipPath18)"
         id="g14"><g
           id="g20"><g
             id="g22"><path
               id="path34"
               style="fill:url(#linearGradient32);stroke:none"
               d="M 50,100 C 12.956,100 0,87.039 0,50 v 0 C 0,12.961 12.956,0 50,0 v 0 c 37.045,0 50,12.961 50,50 v 0 c 0,37.044 -12.955,50 -50,50 z"
               inkscape:connector-curvature="0" /></g></g></g></g><g
       id="g36"><g
         clip-path="url(#clipPath42)"
         id="g38"><g
           id="g44"><g
             id="g46" /><g
             mask="url(#mask62)"
             id="g74"><g
               id="g76"><path
                 id="path88"
                 style="fill:url(#linearGradient86);stroke:none"
                 d="M 15.449,33.711 49.149,0.01 C 49.436,0.008 49.711,0 50,0 v 0 c 37.045,0 50,12.961 50,50 v 0 c 0,3.034 -0.096,5.892 -0.276,8.609 v 0 L 79.23,79.103 Z"
                 inkscape:connector-curvature="0" /></g></g></g></g></g><g
       id="g90"><g
         clip-path="url(#clipPath96)"
         id="g92"><g
           id="g98"><g
             id="g100"><path
               id="path112"
               style="fill:url(#linearGradient110);stroke:none"
               d="m 12.5,50 c 0,-4.626 0.272,-8.748 0.852,-12.409 v 0 C 13.86,34.377 16.607,32 19.86,32 v 0 h 60.28 c 3.254,0 6,2.377 6.508,5.591 v 0 C 87.227,41.252 87.5,45.374 87.5,50 v 0 c 0,27.783 -9.717,37.5 -37.5,37.5 v 0 C 22.217,87.5 12.5,77.779 12.5,50"
               inkscape:connector-curvature="0" /></g></g></g></g><g
       id="g114"><g
         clip-path="url(#clipPath120)"
         id="g116"><g
           id="g122"><g
             id="g124" /><g
             mask="url(#mask140)"
             id="g152"><g
               id="g154"><path
                 id="path166"
                 style="fill:url(#linearGradient164);stroke:none"
                 d="M 26.743,47.24 41.984,32 H 80.14 c 2.283,0 4.296,1.185 5.482,2.993 v 0 l -9.835,9.835 -10.488,0.221 -17.077,17.08 z"
                 inkscape:connector-curvature="0" /></g></g></g></g></g><g
       id="g168"><g
         clip-path="url(#clipPath174)"
         id="g170"><g
           transform="translate(73.8125,40.167)"
           id="g176"><path
             id="path178"
             style="fill:#09fbe1;fill-opacity:1;fill-rule:nonzero;stroke:none"
             d="m 0,0 h -17.437 c -1.519,0 -2.75,1.23 -2.75,2.75 0,1.519 1.231,2.75 2.75,2.75 H 0 C 1.519,5.5 2.75,4.269 2.75,2.75 2.75,1.23 1.519,0 0,0"
             inkscape:connector-curvature="0" /></g><g
           transform="translate(28.3291,46.5762)"
           id="g180"><path
             id="path182"
             style="fill:#09fbe1;fill-opacity:1;fill-rule:nonzero;stroke:none"
             d="m 0,0 c -1.229,0 -2.229,1 -2.229,2.229 v 0.979 c 0,1.285 0.691,2.482 1.804,3.125 l 12.246,7.071 -12.246,7.071 c -1.113,0.642 -1.804,1.839 -1.804,3.125 v 0.988 c 0,1.229 1,2.229 2.229,2.229 0.387,0 0.771,-0.103 1.111,-0.299 L 19.242,16.054 c 0.957,-0.553 1.529,-1.543 1.529,-2.649 -0.001,-1.106 -0.574,-2.096 -1.532,-2.649 L 1.111,0.3 C 0.771,0.104 0.387,0 0,0"
             inkscape:connector-curvature="0" /></g></g></g></g></svg>