<svg xmlns="http://www.w3.org/2000/svg" xmlns:xlink="http://www.w3.org/1999/xlink" width="192" height="192" viewBox="0 0 192 192">
  <defs>
    <style>
      .cls-1 {
        fill: none;
      }

      .cls-2 {
        opacity: 0.01;
      }

      .cls-2, .cls-3, .cls-4, .cls-5 {
        isolation: isolate;
      }

      .cls-3 {
        opacity: 0.02;
      }

      .cls-4 {
        opacity: 0.04;
      }

      .cls-5 {
        opacity: 0.06;
      }

      .cls-6 {
        fill: #ffa300;
      }

      .cls-7 {
        fill: url(#未命名的渐变_44);
      }

      .cls-8 {
        fill: #ffc200;
      }

      .cls-9 {
        fill: #ffd522;
      }

      .cls-10 {
        fill: url(#未命名的渐变_15);
      }

      .cls-11 {
        fill: url(#未命名的渐变_2);
      }

      .cls-12 {
        fill: url(#未命名的渐变_111);
      }

      .cls-13 {
        fill: #e58d00;
      }
    </style>
    <linearGradient id="未命名的渐变_44" data-name="未命名的渐变 44" x1="100.502" y1="50" x2="100.502" y2="6" gradientUnits="userSpaceOnUse">
      <stop offset="0" stop-color="#b96400" stop-opacity="0.4"/>
      <stop offset="0.225" stop-color="#d17e00" stop-opacity="0.265"/>
      <stop offset="0.527" stop-color="#ea9900" stop-opacity="0.12"/>
      <stop offset="0.795" stop-color="#faaa00" stop-opacity="0.031"/>
      <stop offset="1" stop-color="#ffb000" stop-opacity="0"/>
    </linearGradient>
    <linearGradient id="未命名的渐变_15" data-name="未命名的渐变 15" x1="166.004" y1="27.998" x2="25.998" y2="168.004" gradientTransform="matrix(1, 0, 0, -1, 0, 194)" gradientUnits="userSpaceOnUse">
      <stop offset="0" stop-opacity="0.1"/>
      <stop offset="0.5" stop-color="gray" stop-opacity="0.05"/>
      <stop offset="1" stop-color="#fff" stop-opacity="0.12"/>
    </linearGradient>
    <linearGradient id="未命名的渐变_2" data-name="未命名的渐变 2" x1="166.012" y1="75.988" x2="25.987" y2="216.012" gradientTransform="matrix(1, 0, 0, -1, 0, 242)" gradientUnits="userSpaceOnUse">
      <stop offset="0" stop-opacity="0.04"/>
      <stop offset="0.5" stop-color="gray" stop-opacity="0"/>
      <stop offset="1" stop-color="#fff" stop-opacity="0.1"/>
    </linearGradient>
    <linearGradient id="未命名的渐变_111" data-name="未命名的渐变 111" x1="103.479" y1="801.735" x2="30.131" y2="728.387" gradientTransform="translate(29.195 -651.865)" gradientUnits="userSpaceOnUse">
      <stop offset="0" stop-color="#f0a000"/>
      <stop offset="1" stop-color="#e59500"/>
    </linearGradient>
  </defs>
  <title>folder_games</title>
  <g id="图层_2" data-name="图层 2">
    <g id="图层_1-2" data-name="图层 1">
      <rect class="cls-1" width="192" height="192"/>
      <g>
        <path class="cls-2" d="M96,190C27.3,190,3,165.7,3,97S27.3,4,96,4s93,24.3,93,93S164.7,190,96,190Z"/>
        <path class="cls-3" d="M96,189C28.1,189,4,164.9,4,97S28.1,5,96,5s92,24.1,92,92S163.9,189,96,189Z"/>
        <path class="cls-4" d="M96,188C28.8,188,5,164.2,5,97S28.8,6,96,6s91,23.8,91,91S163.2,188,96,188Z"/>
        <path class="cls-5" d="M186,97c0,66.7-23.3,90-90,90S6,163.7,6,97,29.3,7,96,7,186,30.3,186,97Z"/>
      </g>
      <path class="cls-6" d="M186,96c0,66.7-23.3,90-90,90S6,162.7,6,96,29.3,6,96,6,186,29.3,186,96Z"/>
      <path class="cls-7" d="M71.177,37.953c5.758,7.748,8.622,10.776,9.568,11.7a1.2,1.2,0,0,0,.842.344H180.16C169.684,18.149,144.154,6,96,6,58.276,6,34.438,13.457,20.843,32H59.266A14.424,14.424,0,0,1,71.177,37.953Z"/>
      <path class="cls-8" d="M6,96c0,66.67,23.32,90,90,90s90-23.33,90-90c0-18.545-1.807-33.732-5.846-46H81.587a1.2,1.2,0,0,1-.842-.344c-.946-.927-3.81-3.955-9.568-11.7A14.424,14.424,0,0,0,59.266,32H20.859C10.407,46.245,6,67.029,6,96Z"/>
      <path class="cls-9" d="M7,98c0-28.971,4.407-49.755,14.859-64H60.266a14.424,14.424,0,0,1,11.911,5.953c5.758,7.748,8.622,10.776,9.568,11.7a1.2,1.2,0,0,0,.842.344H180.78c-.2-.674-.41-1.343-.626-2H81.587a1.2,1.2,0,0,1-.842-.344c-.946-.927-3.81-3.955-9.568-11.7A14.424,14.424,0,0,0,59.266,32H20.859C10.407,46.245,6,67.029,6,96c0,24.311,3.106,42.854,10.279,56.61C9.816,139.073,7,121.152,7,98Z"/>
      <path class="cls-10" d="M186,96c0,66.67-23.32,90-90,90S6,162.67,6,96,29.32,6,96,6,186,29.32,186,96Z"/>
      <path class="cls-11" d="M96,6C29.3,6,6,29.3,6,96s23.3,90,90,90,90-23.3,90-90S162.7,6,96,6Zm68.6,158.6C151.2,178,130,184,96,184s-55.2-6-68.6-19.4S8,130,8,96s6-55.2,19.4-68.6S62,8,96,8s55.2,6,68.6,19.4S184,62,184,96,178,151.2,164.6,164.6Z"/>
      <path class="cls-9" d="M141.344,88.75C138.25,79.375,130.75,77.5,116.969,77.5a5.807,5.807,0,0,0-3.75,1.875c-.347.345-.718.7-1.026,1.024-.724.763-2.263,2.269-3.024,2.12a78.272,78.272,0,0,0-24.338,0c-.761.148-2.3-1.357-3.028-2.12-.3-.325-.677-.679-1.022-1.024a5.807,5.807,0,0,0-3.75-1.875c-13.781,0-21.281,1.875-24.375,11.25-8.156,22.5-11.937,52.731,1.219,54.375,15,1.875,24.375-3.75,30-18.75,1.875-5.625,7.5-7.5,13.125-7.5s11.25,1.875,13.125,7.5c5.625,15,15,20.625,30,18.75C153.281,141.481,149.5,111.25,141.344,88.75ZM82,103.75a1.882,1.882,0,0,1-1.875,1.875h-3.75A1.88,1.88,0,0,0,74.5,107.5v3.75a1.882,1.882,0,0,1-1.875,1.875h-3.75A1.88,1.88,0,0,1,67,111.25V107.5a1.882,1.882,0,0,0-1.875-1.875h-3.75A1.88,1.88,0,0,1,59.5,103.75V100a1.88,1.88,0,0,1,1.875-1.875h3.75A1.882,1.882,0,0,0,67,96.25V92.5a1.88,1.88,0,0,1,1.875-1.875h3.75A1.882,1.882,0,0,1,74.5,92.5v3.75a1.88,1.88,0,0,0,1.875,1.875h3.75A1.882,1.882,0,0,1,82,100Zm41.25-13.125a3.75,3.75,0,1,1-3.75,3.75A3.751,3.751,0,0,1,123.25,90.625Zm-7.5,15a3.75,3.75,0,1,1,3.75-3.75A3.75,3.75,0,0,1,115.75,105.625Zm7.5,7.5a3.75,3.75,0,1,1,3.75-3.75A3.75,3.75,0,0,1,123.25,113.125Zm7.5-7.5a3.75,3.75,0,1,1,3.75-3.75A3.75,3.75,0,0,1,130.75,105.625Z"/>
      <path class="cls-12" d="M140.344,86.75C137.25,77.375,129.75,75.5,115.969,75.5a5.807,5.807,0,0,0-3.75,1.875c-.347.345-.718.7-1.026,1.024-.724.763-2.263,2.269-3.024,2.12a78.272,78.272,0,0,0-24.338,0c-.761.148-2.3-1.357-3.028-2.12-.3-.325-.677-.679-1.022-1.024a5.807,5.807,0,0,0-3.75-1.875c-13.781,0-21.281,1.875-24.375,11.25-8.156,22.5-11.937,52.731,1.219,54.375,15,1.875,24.375-3.75,30-18.75,1.875-5.625,7.5-7.5,13.125-7.5s11.25,1.875,13.125,7.5c5.625,15,15,20.625,30,18.75C152.281,139.481,148.5,109.25,140.344,86.75ZM81,101.75a1.882,1.882,0,0,1-1.875,1.875h-3.75A1.88,1.88,0,0,0,73.5,105.5v3.75a1.882,1.882,0,0,1-1.875,1.875h-3.75A1.88,1.88,0,0,1,66,109.25V105.5a1.882,1.882,0,0,0-1.875-1.875h-3.75A1.88,1.88,0,0,1,58.5,101.75V98a1.88,1.88,0,0,1,1.875-1.875h3.75A1.882,1.882,0,0,0,66,94.25V90.5a1.88,1.88,0,0,1,1.875-1.875h3.75A1.882,1.882,0,0,1,73.5,90.5v3.75a1.88,1.88,0,0,0,1.875,1.875h3.75A1.882,1.882,0,0,1,81,98Zm41.25-13.125a3.75,3.75,0,1,1-3.75,3.75A3.751,3.751,0,0,1,122.25,88.625Zm-7.5,15a3.75,3.75,0,1,1,3.75-3.75A3.75,3.75,0,0,1,114.75,103.625Zm7.5,7.5a3.75,3.75,0,1,1,3.75-3.75A3.75,3.75,0,0,1,122.25,111.125Zm7.5-7.5a3.75,3.75,0,1,1,3.75-3.75A3.75,3.75,0,0,1,129.75,103.625Z"/>
      <g>
        <path class="cls-13" d="M126,92.375a3.745,3.745,0,0,1-6.439,2.607,3.744,3.744,0,1,0,6.378-3.213A3.794,3.794,0,0,1,126,92.375Z"/>
        <path class="cls-13" d="M123.25,113.125a3.744,3.744,0,0,0,2.689-6.356,3.794,3.794,0,0,1,.061.606,3.745,3.745,0,0,1-6.439,2.607A3.742,3.742,0,0,0,123.25,113.125Z"/>
        <path class="cls-13" d="M52.656,88.75C55.75,79.375,63.25,77.5,77.031,77.5a5.807,5.807,0,0,1,3.75,1.875c.345.345.718.7,1.022,1.024.724.763,2.267,2.268,3.028,2.12a78.272,78.272,0,0,1,24.338,0c.761.148,2.3-1.357,3.024-2.12.308-.325.679-.679,1.026-1.024a5.807,5.807,0,0,1,3.75-1.875c11.87,0,19.071,1.4,22.819,7.781-3.387-8.1-10.8-9.781-23.819-9.781a5.807,5.807,0,0,0-3.75,1.875c-.347.345-.718.7-1.026,1.024-.724.763-2.263,2.268-3.024,2.12a78.272,78.272,0,0,0-24.338,0c-.761.148-2.3-1.357-3.028-2.12-.3-.325-.677-.679-1.022-1.024a5.807,5.807,0,0,0-3.75-1.875c-13.781,0-21.281,1.875-24.375,11.25-6.549,18.066-10.268,41.1-4.673,50.337C42.886,126.831,46.541,105.618,52.656,88.75Z"/>
        <path class="cls-13" d="M115.75,105.625a3.744,3.744,0,0,0,2.689-6.356,3.794,3.794,0,0,1,.061.606,3.745,3.745,0,0,1-6.439,2.607A3.742,3.742,0,0,0,115.75,105.625Z"/>
        <path class="cls-13" d="M130.75,105.625a3.744,3.744,0,0,0,2.689-6.356,3.794,3.794,0,0,1,.061.606,3.745,3.745,0,0,1-6.439,2.607A3.742,3.742,0,0,0,130.75,105.625Z"/>
        <path class="cls-13" d="M73.5,90.853v3.4a1.87,1.87,0,0,0,1,1.647V92.5A1.873,1.873,0,0,0,73.5,90.853Z"/>
        <path class="cls-13" d="M61.375,105.625h3.75a1.856,1.856,0,0,1,.875.228V105.5a1.882,1.882,0,0,0-1.875-1.875h-3.75a1.841,1.841,0,0,1-.875-.228v.353A1.88,1.88,0,0,0,61.375,105.625Z"/>
        <path class="cls-13" d="M110.125,124.375A10.077,10.077,0,0,0,109,122.047c.041.111.09.214.128.328a46.048,46.048,0,0,0,2.57,5.687C111.146,126.9,110.616,125.684,110.125,124.375Z"/>
        <path class="cls-13" d="M68.875,113.125h3.75A1.882,1.882,0,0,0,74.5,111.25V107.5a1.88,1.88,0,0,1,1.875-1.875h3.75A1.882,1.882,0,0,0,82,103.75V100a1.873,1.873,0,0,0-1-1.647v3.4a1.882,1.882,0,0,1-1.875,1.875h-3.75A1.88,1.88,0,0,0,73.5,105.5v3.75a1.882,1.882,0,0,1-1.875,1.875h-3.75A1.841,1.841,0,0,1,67,110.9v.353A1.88,1.88,0,0,0,68.875,113.125Z"/>
      </g>
    </g>
  </g>
</svg>
