<?xml version="1.0" encoding="UTF-8" standalone="no"?>
<svg
   xmlns:dc="http://purl.org/dc/elements/1.1/"
   xmlns:cc="http://creativecommons.org/ns#"
   xmlns:rdf="http://www.w3.org/1999/02/22-rdf-syntax-ns#"
   xmlns:svg="http://www.w3.org/2000/svg"
   xmlns="http://www.w3.org/2000/svg"
   xmlns:sodipodi="http://sodipodi.sourceforge.net/DTD/sodipodi-0.dtd"
   xmlns:inkscape="http://www.inkscape.org/namespaces/inkscape"
   viewBox="0 0 133.33333 133.33333"
   height="133.33333"
   width="133.33333"
   xml:space="preserve"
   id="svg2"
   version="1.1"
   sodipodi:docname="icon-launcher-gallery.svg"
   inkscape:version="0.92.2 2405546, 2018-03-11"><sodipodi:namedview
     pagecolor="#ffffff"
     bordercolor="#666666"
     borderopacity="1"
     objecttolerance="10"
     gridtolerance="10"
     guidetolerance="10"
     inkscape:pageopacity="0"
     inkscape:pageshadow="2"
     inkscape:window-width="1366"
     inkscape:window-height="717"
     id="namedview62"
     showgrid="false"
     inkscape:zoom="1.7700001"
     inkscape:cx="66.666664"
     inkscape:cy="66.666664"
     inkscape:window-x="0"
     inkscape:window-y="25"
     inkscape:window-maximized="1"
     inkscape:current-layer="svg2" /><metadata
     id="metadata8"><rdf:RDF><cc:Work
         rdf:about=""><dc:format>image/svg+xml</dc:format><dc:type
           rdf:resource="http://purl.org/dc/dcmitype/StillImage" /></cc:Work></rdf:RDF></metadata><defs
     id="defs6"><clipPath
       id="clipPath18"
       clipPathUnits="userSpaceOnUse"><path
         id="path16"
         d="M 50,100 C 12.956,100 0,87.039 0,50 v 0 C 0,12.961 12.956,0 50,0 v 0 c 37.045,0 50,12.961 50,50 v 0 c 0,37.044 -12.955,50 -50,50 z" /></clipPath><linearGradient
       id="linearGradient30"
       spreadMethod="pad"
       gradientTransform="matrix(77.78125,-77.78125,-77.78125,-77.78125,11.109896,88.891144)"
       gradientUnits="userSpaceOnUse"
       y2="0"
       x2="1"
       y1="0"
       x1="0"><stop
         id="stop24"
         offset="0"
         style="stop-opacity:1;stop-color:#fdbb84" /><stop
         id="stop26"
         offset="1"
         style="stop-opacity:1;stop-color:#ee6b66" /><stop
         id="stop28"
         offset="1"
         style="stop-opacity:1;stop-color:#ee6b66" /></linearGradient><clipPath
       id="clipPath40"
       clipPathUnits="userSpaceOnUse"><path
         id="path38"
         d="M 85.32,68.32 C 77.99,55.48 66.51,47.42 49.85,43.13 v 0 C 53.09,36.74 54.5,28.18 54.5,17 v 0 c 0,-1.519 -0.03,-2.981 -0.09,-4.4 v 0 C 52.99,12.531 51.53,12.5 50,12.5 v 0 c -12.799,0 -21.77,2.07 -27.72,7.01 v 0 L 41.52,0.269 C 44.2,0.09 47.01,0 50,0 v 0 c 37.04,0 50,12.96 50,50 v 0 c 0,3.031 -0.1,5.88 -0.28,8.59 v 0 L 79.45,78.86 c 2.64,-2.75 4.57,-6.23 5.87,-10.54" /></clipPath><clipPath
       id="clipPath48"
       clipPathUnits="userSpaceOnUse"><path
         id="path46"
         d="M -32768,32767 H 32767 V -32768 H -32768 Z" /></clipPath><linearGradient
       id="linearGradient56"
       spreadMethod="pad"
       gradientTransform="matrix(38.594978,-38.594978,-38.594978,-38.594978,50.320023,49.729996)"
       gradientUnits="userSpaceOnUse"
       y2="0"
       x2="1"
       y1="0"
       x1="0"><stop
         id="stop50"
         offset="0"
         style="stop-opacity:0.07998779;stop-color:#ffffff" /><stop
         id="stop52"
         offset="0.921367"
         style="stop-opacity:0;stop-color:#ffffff" /><stop
         id="stop54"
         offset="1"
         style="stop-opacity:0;stop-color:#ffffff" /></linearGradient><mask
       id="mask58"
       height="1"
       width="1"
       y="0"
       x="0"
       maskUnits="userSpaceOnUse"><g
         id="g68"><g
           id="g66"
           clip-path="url(#clipPath48)"><g
             id="g64"><g
               id="g62"><path
                 id="path60"
                 style="fill:url(#linearGradient56);stroke:none"
                 d="M -32768,32767 H 32767 V -32768 H -32768 Z" /></g></g></g></g></mask><linearGradient
       id="linearGradient80"
       spreadMethod="pad"
       gradientTransform="matrix(38.594978,-38.594978,-38.594978,-38.594978,50.320023,49.729996)"
       gradientUnits="userSpaceOnUse"
       y2="0"
       x2="1"
       y1="0"
       x1="0"><stop
         id="stop74"
         offset="0"
         style="stop-opacity:1;stop-color:#000000" /><stop
         id="stop76"
         offset="0.921367"
         style="stop-opacity:1;stop-color:#000000" /><stop
         id="stop78"
         offset="1"
         style="stop-opacity:1;stop-color:#000000" /></linearGradient><clipPath
       id="clipPath90"
       clipPathUnits="userSpaceOnUse"><path
         id="path88"
         d="M 0,100 H 100 V 0 H 0 Z" /></clipPath><clipPath
       id="clipPath98"
       clipPathUnits="userSpaceOnUse"><path
         id="path96"
         d="m 12.5,58.9953 h 42 V 12.5 h -42 z" /></clipPath><clipPath
       id="clipPath114"
       clipPathUnits="userSpaceOnUse"><path
         id="path112"
         d="M 12.5,87.5 H 85.3198 V 39.2534 H 12.5 Z" /></clipPath></defs><g
     transform="matrix(1.25,0,0,-1.25,4,129.33333)"
     id="g10"><g
       id="g12"><g
         clip-path="url(#clipPath18)"
         id="g14"><g
           id="g20"><g
             id="g22"><path
               id="path32"
               style="fill:url(#linearGradient30);stroke:none"
               d="M 50,100 C 12.956,100 0,87.039 0,50 v 0 C 0,12.961 12.956,0 50,0 v 0 c 37.045,0 50,12.961 50,50 v 0 c 0,37.044 -12.955,50 -50,50 z"
               inkscape:connector-curvature="0" /></g></g></g></g><g
       id="g34"><g
         clip-path="url(#clipPath40)"
         id="g36"><g
           id="g42"><g
             id="g44" /><g
             mask="url(#mask58)"
             id="g70"><g
               id="g72"><path
                 id="path82"
                 style="fill:url(#linearGradient80);stroke:none"
                 d="M 85.32,68.32 C 77.99,55.48 66.51,47.42 49.85,43.13 v 0 C 53.09,36.74 54.5,28.18 54.5,17 v 0 c 0,-1.519 -0.03,-2.981 -0.09,-4.4 v 0 C 52.99,12.531 51.53,12.5 50,12.5 v 0 c -12.799,0 -21.77,2.07 -27.72,7.01 v 0 L 41.52,0.269 C 44.2,0.09 47.01,0 50,0 v 0 c 37.04,0 50,12.96 50,50 v 0 c 0,3.031 -0.1,5.88 -0.28,8.59 v 0 L 79.45,78.86 c 2.64,-2.75 4.57,-6.23 5.87,-10.54"
                 inkscape:connector-curvature="0" /></g></g></g></g></g><g
       id="g84"><g
         clip-path="url(#clipPath90)"
         id="g86"><g
           id="g92"><g
             id="g94" /><g
             id="g106"><g
               style="opacity:0.60000598"
               id="g104"
               clip-path="url(#clipPath98)"><g
                 id="g102"
                 transform="translate(12.917,58.9951)"><path
                   id="path100"
                   style="fill:#ffee36;fill-opacity:1;fill-rule:nonzero;stroke:none"
                   d="m 0,0 c -0.278,-2.764 -0.417,-5.751 -0.417,-8.995 0,-27.779 9.717,-37.5 37.5,-37.5 1.528,0 2.992,0.035 4.413,0.095 0.053,1.425 0.087,2.883 0.087,4.405 C 41.583,-11.02 30.792,-0.099 0,0"
                   inkscape:connector-curvature="0" /></g></g></g></g><g
           id="g108"><g
             id="g110" /><g
             id="g122"><g
               style="opacity:0.60000598"
               id="g120"
               clip-path="url(#clipPath114)"><g
                 id="g118"
                 transform="translate(85.3203,68.3242)"><path
                   id="path116"
                   style="fill:#ffee36;fill-opacity:1;fill-rule:nonzero;stroke:none"
                   d="m 0,0 c -4.195,13.89 -14.85,19.176 -35.32,19.176 -27.784,0 -37.5,-9.721 -37.5,-37.5 0,-3.943 0.203,-7.508 0.618,-10.746 C -34.451,-28.981 -11.816,-20.719 0,0"
                   inkscape:connector-curvature="0" /></g></g></g></g></g></g></g></svg>