<svg xmlns="http://www.w3.org/2000/svg" xmlns:xlink="http://www.w3.org/1999/xlink" width="192" height="192" viewBox="0 0 192 192">
  <defs>
    <style>
      .cls-1 {
        fill: none;
      }

      .cls-2 {
        opacity: 0.01;
      }

      .cls-2, .cls-3, .cls-4, .cls-5 {
        isolation: isolate;
      }

      .cls-3 {
        opacity: 0.02;
      }

      .cls-4 {
        opacity: 0.04;
      }

      .cls-5 {
        opacity: 0.06;
      }

      .cls-6 {
        fill: #ffa300;
      }

      .cls-7 {
        fill: url(#未命名的渐变_44);
      }

      .cls-8 {
        fill: #ffc200;
      }

      .cls-9 {
        fill: #ffd522;
      }

      .cls-10 {
        fill: url(#未命名的渐变_15);
      }

      .cls-11 {
        fill: url(#未命名的渐变_2);
      }

      .cls-12 {
        fill: url(#未命名的渐变_111);
      }

      .cls-13 {
        fill: #e58d00;
      }
    </style>
    <linearGradient id="未命名的渐变_44" data-name="未命名的渐变 44" x1="100.502" y1="50" x2="100.502" y2="6" gradientUnits="userSpaceOnUse">
      <stop offset="0" stop-color="#b96400" stop-opacity="0.4"/>
      <stop offset="0.225" stop-color="#d17e00" stop-opacity="0.265"/>
      <stop offset="0.527" stop-color="#ea9900" stop-opacity="0.12"/>
      <stop offset="0.795" stop-color="#faaa00" stop-opacity="0.031"/>
      <stop offset="1" stop-color="#ffb000" stop-opacity="0"/>
    </linearGradient>
    <linearGradient id="未命名的渐变_15" data-name="未命名的渐变 15" x1="166.004" y1="27.998" x2="25.998" y2="168.004" gradientTransform="matrix(1, 0, 0, -1, 0, 194)" gradientUnits="userSpaceOnUse">
      <stop offset="0" stop-opacity="0.1"/>
      <stop offset="0.5" stop-color="gray" stop-opacity="0.05"/>
      <stop offset="1" stop-color="#fff" stop-opacity="0.12"/>
    </linearGradient>
    <linearGradient id="未命名的渐变_2" data-name="未命名的渐变 2" x1="166.012" y1="75.988" x2="25.987" y2="216.012" gradientTransform="matrix(1, 0, 0, -1, 0, 242)" gradientUnits="userSpaceOnUse">
      <stop offset="0" stop-opacity="0.04"/>
      <stop offset="0.5" stop-color="gray" stop-opacity="0"/>
      <stop offset="1" stop-color="#fff" stop-opacity="0.1"/>
    </linearGradient>
    <linearGradient id="未命名的渐变_111" data-name="未命名的渐变 111" x1="133.158" y1="147.347" x2="58.842" y2="73.031" gradientUnits="userSpaceOnUse">
      <stop offset="0" stop-color="#f0a000"/>
      <stop offset="1" stop-color="#e59500"/>
    </linearGradient>
  </defs>
  <title>folder_photo</title>
  <g id="图层_2" data-name="图层 2">
    <g id="图层_1-2" data-name="图层 1">
      <rect class="cls-1" width="192" height="192"/>
      <g>
        <path class="cls-2" d="M96,190C27.3,190,3,165.7,3,97S27.3,4,96,4s93,24.3,93,93S164.7,190,96,190Z"/>
        <path class="cls-3" d="M96,189C28.1,189,4,164.9,4,97S28.1,5,96,5s92,24.1,92,92S163.9,189,96,189Z"/>
        <path class="cls-4" d="M96,188C28.8,188,5,164.2,5,97S28.8,6,96,6s91,23.8,91,91S163.2,188,96,188Z"/>
        <path class="cls-5" d="M186,97c0,66.7-23.3,90-90,90S6,163.7,6,97,29.3,7,96,7,186,30.3,186,97Z"/>
      </g>
      <path class="cls-6" d="M186,96c0,66.7-23.3,90-90,90S6,162.7,6,96,29.3,6,96,6,186,29.3,186,96Z"/>
      <path class="cls-7" d="M71.177,37.953c5.758,7.748,8.622,10.776,9.568,11.7a1.2,1.2,0,0,0,.842.344H180.16C169.684,18.149,144.154,6,96,6,58.276,6,34.438,13.457,20.843,32H59.266A14.424,14.424,0,0,1,71.177,37.953Z"/>
      <path class="cls-8" d="M6,96c0,66.67,23.32,90,90,90s90-23.33,90-90c0-18.545-1.807-33.732-5.846-46H81.587a1.2,1.2,0,0,1-.842-.344c-.946-.927-3.81-3.955-9.568-11.7A14.424,14.424,0,0,0,59.266,32H20.859C10.407,46.245,6,67.029,6,96Z"/>
      <path class="cls-9" d="M7,98c0-28.971,4.407-49.755,14.859-64H60.266a14.424,14.424,0,0,1,11.911,5.953c5.758,7.748,8.622,10.776,9.568,11.7a1.2,1.2,0,0,0,.842.344H180.78c-.2-.674-.41-1.343-.626-2H81.587a1.2,1.2,0,0,1-.842-.344c-.946-.927-3.81-3.955-9.568-11.7A14.424,14.424,0,0,0,59.266,32H20.859C10.407,46.245,6,67.029,6,96c0,24.311,3.106,42.854,10.279,56.61C9.816,139.073,7,121.152,7,98Z"/>
      <path class="cls-10" d="M186,96c0,66.67-23.32,90-90,90S6,162.67,6,96,29.32,6,96,6,186,29.32,186,96Z"/>
      <path class="cls-11" d="M96,6C29.3,6,6,29.3,6,96s23.3,90,90,90,90-23.3,90-90S162.7,6,96,6Zm68.6,158.6C151.2,178,130,184,96,184s-55.2-6-68.6-19.4S8,130,8,96s6-55.2,19.4-68.6S62,8,96,8s55.2,6,68.6,19.4S184,62,184,96,178,151.2,164.6,164.6Z"/>
      <path class="cls-9" d="M136.833,80.25H122.545a4.523,4.523,0,0,1-4.045-2.5h0c-3.5-4.5-7.287-6-11-6h-21c-3.713,0-7.5,1.5-11,6h0a4.523,4.523,0,0,1-4.045,2.5H57.167A6.185,6.185,0,0,0,51,86.417v51.666A5.976,5.976,0,0,0,57.167,144h79.666A5.976,5.976,0,0,0,143,138.083V86.417A6.185,6.185,0,0,0,136.833,80.25ZM67,92.25c0,2.96-1.04,4-4,4s-4-1.04-4-4,1.04-4,4-4S67,89.29,67,92.25Zm30-5a24,24,0,1,1-24,24A24,24,0,0,1,97,87.25Zm0,8a16,16,0,1,1-16,16A16,16,0,0,1,97,95.25Z"/>
      <path class="cls-12" d="M135.833,78.25H121.545a4.523,4.523,0,0,1-4.045-2.5h0c-3.5-4.5-7.287-6-11-6h-21c-3.713,0-7.5,1.5-11,6h0a4.523,4.523,0,0,1-4.045,2.5H56.167A6.185,6.185,0,0,0,50,84.417v51.666A5.976,5.976,0,0,0,56.167,142h79.666A5.976,5.976,0,0,0,142,136.083V84.417A6.185,6.185,0,0,0,135.833,78.25ZM66,90.25c0,2.96-1.04,4-4,4s-4-1.04-4-4,1.04-4,4-4S66,87.29,66,90.25Zm30-5a24,24,0,1,1-24,24A24,24,0,0,1,96,85.25Zm0,8a16,16,0,1,1-16,16A16,16,0,0,1,96,93.25Z"/>
      <g>
        <path class="cls-13" d="M63,96.25c2.96,0,4-1.04,4-4,0-1.62-.328-2.649-1.095-3.263A8.348,8.348,0,0,1,66,90.25c0,2.96-1.04,4-4,4a4.539,4.539,0,0,1-2.905-.737C59.394,95.5,60.515,96.25,63,96.25Z"/>
        <path class="cls-13" d="M96,93.25a15.978,15.978,0,0,0-13.8,24.066,15.991,15.991,0,0,1,28.6-14.132A16,16,0,0,0,96,93.25Z"/>
        <path class="cls-13" d="M97,135.25a24,24,0,0,0,20.946-35.714,24,24,0,0,1-42.892,21.428A24,24,0,0,0,97,135.25Z"/>
        <path class="cls-13" d="M51,138.083V86.417a6.185,6.185,0,0,1,6.167-6.167H71.455a4.523,4.523,0,0,0,4.045-2.5c3.5-4.5,7.287-6,11-6h21c3.713,0,7.5,1.5,11,6a4.523,4.523,0,0,0,4.045,2.5h14.288a6.173,6.173,0,0,1,4.922,2.474,6.184,6.184,0,0,0-5.922-4.474H121.545a4.523,4.523,0,0,1-4.045-2.5c-3.5-4.5-7.287-6-11-6h-21c-3.713,0-7.5,1.5-11,6a4.523,4.523,0,0,1-4.045,2.5H56.167A6.185,6.185,0,0,0,50,84.417v51.666a5.778,5.778,0,0,0,1.217,3.566A5.97,5.97,0,0,1,51,138.083Z"/>
      </g>
    </g>
  </g>
</svg>
