<?xml version="1.0" encoding="UTF-8" standalone="no"?>
<svg
   xmlns:dc="http://purl.org/dc/elements/1.1/"
   xmlns:cc="http://creativecommons.org/ns#"
   xmlns:rdf="http://www.w3.org/1999/02/22-rdf-syntax-ns#"
   xmlns:svg="http://www.w3.org/2000/svg"
   xmlns="http://www.w3.org/2000/svg"
   xmlns:sodipodi="http://sodipodi.sourceforge.net/DTD/sodipodi-0.dtd"
   xmlns:inkscape="http://www.inkscape.org/namespaces/inkscape"
   viewBox="0 0 133.33333 133.33333"
   height="133.33333"
   width="133.33333"
   xml:space="preserve"
   id="svg2"
   version="1.1"
   sodipodi:docname="icon-launcher-tutorial.svg"
   inkscape:version="0.92.2 2405546, 2018-03-11"><sodipodi:namedview
     pagecolor="#ffffff"
     bordercolor="#666666"
     borderopacity="1"
     objecttolerance="10"
     gridtolerance="10"
     guidetolerance="10"
     inkscape:pageopacity="0"
     inkscape:pageshadow="2"
     inkscape:window-width="1366"
     inkscape:window-height="717"
     id="namedview154"
     showgrid="false"
     inkscape:zoom="1.7700001"
     inkscape:cx="66.666664"
     inkscape:cy="66.666664"
     inkscape:window-x="0"
     inkscape:window-y="25"
     inkscape:window-maximized="1"
     inkscape:current-layer="svg2" /><metadata
     id="metadata8"><rdf:RDF><cc:Work
         rdf:about=""><dc:format>image/svg+xml</dc:format><dc:type
           rdf:resource="http://purl.org/dc/dcmitype/StillImage" /></cc:Work></rdf:RDF></metadata><defs
     id="defs6"><clipPath
       id="clipPath18"
       clipPathUnits="userSpaceOnUse"><path
         id="path16"
         d="M 50,100 C 12.956,100 0,87.039 0,50 v 0 C 0,12.961 12.956,0 50,0 v 0 c 37.045,0 50,12.961 50,50 v 0 c 0,37.044 -12.955,50 -50,50 z" /></clipPath><linearGradient
       id="linearGradient32"
       spreadMethod="pad"
       gradientTransform="matrix(77.78125,-77.78125,-77.78125,-77.78125,11.109896,88.891144)"
       gradientUnits="userSpaceOnUse"
       y2="0"
       x2="1"
       y1="0"
       x1="0"><stop
         id="stop24"
         offset="0"
         style="stop-opacity:1;stop-color:#68dded" /><stop
         id="stop26"
         offset="0.14086381"
         style="stop-opacity:1;stop-color:#68dded" /><stop
         id="stop28"
         offset="0.999999"
         style="stop-opacity:1;stop-color:#4092e6" /><stop
         id="stop30"
         offset="1"
         style="stop-opacity:1;stop-color:#4092e6" /></linearGradient><clipPath
       id="clipPath42"
       clipPathUnits="userSpaceOnUse"><path
         id="path40"
         d="m 19.82,21.839 1,-0.999 c -0.33,0.33 -0.65,0.67 -0.97,1.03 v 0 z" /></clipPath><clipPath
       id="clipPath50"
       clipPathUnits="userSpaceOnUse"><path
         id="path48"
         d="M -32768,32767 H 32767 V -32768 H -32768 Z" /></clipPath><linearGradient
       id="linearGradient60"
       spreadMethod="pad"
       gradientTransform="matrix(0.9999999,-0.9999999,-0.9999999,-0.9999999,19.834992,21.855011)"
       gradientUnits="userSpaceOnUse"
       y2="0"
       x2="1"
       y1="0"
       x1="0"><stop
         id="stop52"
         offset="0"
         style="stop-opacity:0.11999695;stop-color:#ffffff" /><stop
         id="stop54"
         offset="0.14086381"
         style="stop-opacity:0.11999695;stop-color:#ffffff" /><stop
         id="stop56"
         offset="0.999999"
         style="stop-opacity:0;stop-color:#ffffff" /><stop
         id="stop58"
         offset="1"
         style="stop-opacity:0;stop-color:#ffffff" /></linearGradient><mask
       id="mask62"
       height="1"
       width="1"
       y="0"
       x="0"
       maskUnits="userSpaceOnUse"><g
         id="g72"><g
           id="g70"
           clip-path="url(#clipPath50)"><g
             id="g68"><g
               id="g66"><path
                 id="path64"
                 style="fill:url(#linearGradient60);stroke:none"
                 d="M -32768,32767 H 32767 V -32768 H -32768 Z" /></g></g></g></g></mask><linearGradient
       id="linearGradient86"
       spreadMethod="pad"
       gradientTransform="matrix(0.9999999,-0.9999999,-0.9999999,-0.9999999,19.834992,21.855011)"
       gradientUnits="userSpaceOnUse"
       y2="0"
       x2="1"
       y1="0"
       x1="0"><stop
         id="stop78"
         offset="0"
         style="stop-opacity:1;stop-color:#000000" /><stop
         id="stop80"
         offset="0.14086381"
         style="stop-opacity:1;stop-color:#000000" /><stop
         id="stop82"
         offset="0.999999"
         style="stop-opacity:1;stop-color:#000000" /><stop
         id="stop84"
         offset="1"
         style="stop-opacity:1;stop-color:#000000" /></linearGradient><clipPath
       id="clipPath96"
       clipPathUnits="userSpaceOnUse"><path
         id="path94"
         d="m 78.13,80.15 c 0.093,-0.083 0.177,-0.158 0.259,-0.239 v 0 L 78.14,80.16 Z m 0.28,-0.26 c -0.007,0.007 -0.014,0.014 -0.021,0.021 v 0 z" /></clipPath><clipPath
       id="clipPath104"
       clipPathUnits="userSpaceOnUse"><path
         id="path102"
         d="M -32768,32767 H 32767 V -32768 H -32768 Z" /></clipPath><linearGradient
       id="linearGradient114"
       spreadMethod="pad"
       gradientTransform="matrix(0.269989,-0.269989,-0.269989,-0.269989,78.13501,80.155029)"
       gradientUnits="userSpaceOnUse"
       y2="0"
       x2="1"
       y1="0"
       x1="0"><stop
         id="stop106"
         offset="0"
         style="stop-opacity:0.11999695;stop-color:#ffffff" /><stop
         id="stop108"
         offset="0.14086381"
         style="stop-opacity:0.11999695;stop-color:#ffffff" /><stop
         id="stop110"
         offset="0.999999"
         style="stop-opacity:0;stop-color:#ffffff" /><stop
         id="stop112"
         offset="1"
         style="stop-opacity:0;stop-color:#ffffff" /></linearGradient><mask
       id="mask116"
       height="1"
       width="1"
       y="0"
       x="0"
       maskUnits="userSpaceOnUse"><g
         id="g126"><g
           id="g124"
           clip-path="url(#clipPath104)"><g
             id="g122"><g
               id="g120"><path
                 id="path118"
                 style="fill:url(#linearGradient114);stroke:none"
                 d="M -32768,32767 H 32767 V -32768 H -32768 Z" /></g></g></g></g></mask><linearGradient
       id="linearGradient140"
       spreadMethod="pad"
       gradientTransform="matrix(0.269989,-0.269989,-0.269989,-0.269989,78.13501,80.155029)"
       gradientUnits="userSpaceOnUse"
       y2="0"
       x2="1"
       y1="0"
       x1="0"><stop
         id="stop132"
         offset="0"
         style="stop-opacity:1;stop-color:#000000" /><stop
         id="stop134"
         offset="0.14086381"
         style="stop-opacity:1;stop-color:#000000" /><stop
         id="stop136"
         offset="0.999999"
         style="stop-opacity:1;stop-color:#000000" /><stop
         id="stop138"
         offset="1"
         style="stop-opacity:1;stop-color:#000000" /></linearGradient><clipPath
       id="clipPath150"
       clipPathUnits="userSpaceOnUse"><path
         id="path148"
         d="M 87.5,50 C 87.5,22.22 77.781,12.5 50,12.5 v 0 c -13.88,0 -23.25,2.43 -29.16,8.321 v 0 L 41.39,0.28 C 44.11,0.1 46.97,0 50,0 v 0 c 37.04,0 50,12.96 50,50 v 0 c 0,3.02 -0.1,5.87 -0.269,8.58 v 0 L 79.88,78.42 C 85.27,72.48 87.5,63.32 87.5,50" /></clipPath><clipPath
       id="clipPath158"
       clipPathUnits="userSpaceOnUse"><path
         id="path156"
         d="M -32768,32767 H 32767 V -32768 H -32768 Z" /></clipPath><linearGradient
       id="linearGradient168"
       spreadMethod="pad"
       gradientTransform="matrix(38.879982,-38.879982,-38.879982,-38.879982,50.002518,49.982498)"
       gradientUnits="userSpaceOnUse"
       y2="0"
       x2="1"
       y1="0"
       x1="0"><stop
         id="stop160"
         offset="0"
         style="stop-opacity:0.07998779;stop-color:#ffffff" /><stop
         id="stop162"
         offset="0.11196867"
         style="stop-opacity:0.07998779;stop-color:#ffffff" /><stop
         id="stop164"
         offset="0.794871"
         style="stop-opacity:0;stop-color:#ffffff" /><stop
         id="stop166"
         offset="1"
         style="stop-opacity:0;stop-color:#ffffff" /></linearGradient><mask
       id="mask170"
       height="1"
       width="1"
       y="0"
       x="0"
       maskUnits="userSpaceOnUse"><g
         id="g180"><g
           id="g178"
           clip-path="url(#clipPath158)"><g
             id="g176"><g
               id="g174"><path
                 id="path172"
                 style="fill:url(#linearGradient168);stroke:none"
                 d="M -32768,32767 H 32767 V -32768 H -32768 Z" /></g></g></g></g></mask><linearGradient
       id="linearGradient194"
       spreadMethod="pad"
       gradientTransform="matrix(38.879982,-38.879982,-38.879982,-38.879982,50.002518,49.982498)"
       gradientUnits="userSpaceOnUse"
       y2="0"
       x2="1"
       y1="0"
       x1="0"><stop
         id="stop186"
         offset="0"
         style="stop-opacity:1;stop-color:#000000" /><stop
         id="stop188"
         offset="0.11196867"
         style="stop-opacity:1;stop-color:#000000" /><stop
         id="stop190"
         offset="0.794871"
         style="stop-opacity:1;stop-color:#000000" /><stop
         id="stop192"
         offset="1"
         style="stop-opacity:1;stop-color:#000000" /></linearGradient><clipPath
       id="clipPath204"
       clipPathUnits="userSpaceOnUse"><path
         id="path202"
         d="M 0,100 H 100 V 0 H 0 Z" /></clipPath><clipPath
       id="clipPath212"
       clipPathUnits="userSpaceOnUse"><path
         id="path210"
         d="m 12.5,87.5 h 75 v -75 h -75 z" /></clipPath><clipPath
       id="clipPath216"
       clipPathUnits="userSpaceOnUse"><path
         id="path214"
         d="M 87.5,50 C 87.5,22.22 77.78,12.5 50,12.5 c -13.88,0 -23.25,2.43 -29.16,8.32 0,0.01 -0.01,0.02 -0.02,0.02 -0.33,0.33 -0.65,0.67 -0.97,1.03 C 14.66,27.82 12.5,36.9 12.5,50 c 0,27.78 9.72,37.5 37.5,37.5 13.1,0 22.18,-2.16 28.13,-7.35 0.1,-0.09 0.19,-0.17 0.28,-0.26 l 1.47,-1.47 C 85.27,72.48 87.5,63.32 87.5,50" /></clipPath><linearGradient
       id="linearGradient226"
       spreadMethod="pad"
       gradientTransform="matrix(58.335007,-58.335007,-58.335007,-58.335007,20.82251,79.157532)"
       gradientUnits="userSpaceOnUse"
       y2="0"
       x2="1"
       y1="0"
       x1="0"><stop
         id="stop218"
         offset="0"
         style="stop-opacity:1;stop-color:#71ecf0" /><stop
         id="stop220"
         offset="0.14086381"
         style="stop-opacity:1;stop-color:#71ecf0" /><stop
         id="stop222"
         offset="0.999999"
         style="stop-opacity:1;stop-color:#47c3e6" /><stop
         id="stop224"
         offset="1"
         style="stop-opacity:1;stop-color:#47c3e6" /></linearGradient><clipPath
       id="clipPath248"
       clipPathUnits="userSpaceOnUse"><path
         id="path246"
         d="M 44.563,61.937 27.023,63.273 41.232,49.064 29.011,26.011 42.217,12.803 C 44.64,12.602 47.226,12.5 50,12.5 v 0 c 27.721,0 37.455,9.681 37.498,37.32 v 0 L 74.032,63.285 68.081,60.706 53.173,75.614 Z" /></clipPath><clipPath
       id="clipPath256"
       clipPathUnits="userSpaceOnUse"><path
         id="path254"
         d="M -32768,32767 H 32767 V -32768 H -32768 Z" /></clipPath><linearGradient
       id="linearGradient266"
       spreadMethod="pad"
       gradientTransform="matrix(47.291531,-47.291531,-47.291531,-47.291531,29.959854,66.20961)"
       gradientUnits="userSpaceOnUse"
       y2="0"
       x2="1"
       y1="0"
       x1="0"><stop
         id="stop258"
         offset="0"
         style="stop-opacity:0.07998779;stop-color:#ffffff" /><stop
         id="stop260"
         offset="0.14086381"
         style="stop-opacity:0.07998779;stop-color:#ffffff" /><stop
         id="stop262"
         offset="0.999999"
         style="stop-opacity:0;stop-color:#ffffff" /><stop
         id="stop264"
         offset="1"
         style="stop-opacity:0;stop-color:#ffffff" /></linearGradient><mask
       id="mask268"
       height="1"
       width="1"
       y="0"
       x="0"
       maskUnits="userSpaceOnUse"><g
         id="g278"><g
           id="g276"
           clip-path="url(#clipPath256)"><g
             id="g274"><g
               id="g272"><path
                 id="path270"
                 style="fill:url(#linearGradient266);stroke:none"
                 d="M -32768,32767 H 32767 V -32768 H -32768 Z" /></g></g></g></g></mask><linearGradient
       id="linearGradient292"
       spreadMethod="pad"
       gradientTransform="matrix(47.291531,-47.291531,-47.291531,-47.291531,29.959854,66.20961)"
       gradientUnits="userSpaceOnUse"
       y2="0"
       x2="1"
       y1="0"
       x1="0"><stop
         id="stop284"
         offset="0"
         style="stop-opacity:1;stop-color:#000000" /><stop
         id="stop286"
         offset="0.14086381"
         style="stop-opacity:1;stop-color:#000000" /><stop
         id="stop288"
         offset="0.999999"
         style="stop-opacity:1;stop-color:#000000" /><stop
         id="stop290"
         offset="1"
         style="stop-opacity:1;stop-color:#000000" /></linearGradient><clipPath
       id="clipPath302"
       clipPathUnits="userSpaceOnUse"><path
         id="path300"
         d="M 0,100 H 100 V 0 H 0 Z" /></clipPath></defs><g
     transform="matrix(1.25,0,0,-1.25,4,129.33333)"
     id="g10"><g
       id="g12"><g
         clip-path="url(#clipPath18)"
         id="g14"><g
           id="g20"><g
             id="g22"><path
               id="path34"
               style="fill:url(#linearGradient32);stroke:none"
               d="M 50,100 C 12.956,100 0,87.039 0,50 v 0 C 0,12.961 12.956,0 50,0 v 0 c 37.045,0 50,12.961 50,50 v 0 c 0,37.044 -12.955,50 -50,50 z"
               inkscape:connector-curvature="0" /></g></g></g></g><g
       id="g36"><g
         clip-path="url(#clipPath42)"
         id="g38"><g
           id="g44"><g
             id="g46" /><g
             mask="url(#mask62)"
             id="g74"><g
               id="g76"><path
                 id="path88"
                 style="fill:url(#linearGradient86);stroke:none"
                 d="m 19.82,21.839 1,-0.999 c -0.33,0.33 -0.65,0.67 -0.97,1.03 v 0 z"
                 inkscape:connector-curvature="0" /></g></g></g></g></g><g
       id="g90"><g
         clip-path="url(#clipPath96)"
         id="g92"><g
           id="g98"><g
             id="g100" /><g
             mask="url(#mask116)"
             id="g128"><g
               id="g130"><path
                 id="path142"
                 style="fill:url(#linearGradient140);stroke:none"
                 d="m 78.13,80.15 c 0.093,-0.083 0.177,-0.158 0.259,-0.239 v 0 L 78.14,80.16 Z m 0.28,-0.26 c -0.007,0.007 -0.014,0.014 -0.021,0.021 v 0 z"
                 inkscape:connector-curvature="0" /></g></g></g></g></g><g
       id="g144"><g
         clip-path="url(#clipPath150)"
         id="g146"><g
           id="g152"><g
             id="g154" /><g
             mask="url(#mask170)"
             id="g182"><g
               id="g184"><path
                 id="path196"
                 style="fill:url(#linearGradient194);stroke:none"
                 d="M 87.5,50 C 87.5,22.22 77.781,12.5 50,12.5 v 0 c -13.88,0 -23.25,2.43 -29.16,8.321 v 0 L 41.39,0.28 C 44.11,0.1 46.97,0 50,0 v 0 c 37.04,0 50,12.96 50,50 v 0 c 0,3.02 -0.1,5.87 -0.269,8.58 v 0 L 79.88,78.42 C 85.27,72.48 87.5,63.32 87.5,50"
                 inkscape:connector-curvature="0" /></g></g></g></g></g><g
       id="g198"><g
         clip-path="url(#clipPath204)"
         id="g200"><g
           id="g206"><g
             id="g208" /><g
             id="g240"><g
               style="opacity:0.80000299"
               id="g238"
               clip-path="url(#clipPath212)"><g
                 id="g236"><g
                   id="g234"
                   clip-path="url(#clipPath216)"><g
                     id="g232"><g
                       id="g230"><path
                         id="path228"
                         style="fill:url(#linearGradient226);stroke:none"
                         d="M 87.5,50 C 87.5,22.22 77.78,12.5 50,12.5 c -13.88,0 -23.25,2.43 -29.16,8.32 0,0.01 -0.01,0.02 -0.02,0.02 -0.33,0.33 -0.65,0.67 -0.97,1.03 C 14.66,27.82 12.5,36.9 12.5,50 c 0,27.78 9.72,37.5 37.5,37.5 13.1,0 22.18,-2.16 28.13,-7.35 0.1,-0.09 0.19,-0.17 0.28,-0.26 l 1.47,-1.47 C 85.27,72.48 87.5,63.32 87.5,50"
                         inkscape:connector-curvature="0" /></g></g></g></g></g></g></g></g></g><g
       id="g242"><g
         clip-path="url(#clipPath248)"
         id="g244"><g
           id="g250"><g
             id="g252" /><g
             mask="url(#mask268)"
             id="g280"><g
               id="g282"><path
                 id="path294"
                 style="fill:url(#linearGradient292);stroke:none"
                 d="M 44.563,61.937 27.023,63.273 41.232,49.064 29.011,26.011 42.217,12.803 C 44.64,12.602 47.226,12.5 50,12.5 v 0 c 27.721,0 37.455,9.681 37.498,37.32 v 0 L 74.032,63.285 68.081,60.706 53.173,75.614 Z"
                 inkscape:connector-curvature="0" /></g></g></g></g></g><g
       id="g296"><g
         clip-path="url(#clipPath302)"
         id="g298"><g
           transform="translate(74.4316,32.3232)"
           id="g304"><path
             id="path306"
             style="fill:#ffffff;fill-opacity:1;fill-rule:nonzero;stroke:none"
             d="m 0,0 c -6.252,6.251 -14.067,10.306 -22.687,11.79 v 7.885 c 0.83,-0.054 1.655,-0.082 2.467,-0.082 4.787,0 9.504,0.888 14.019,2.639 l 4.045,1.57 c 1.122,0.435 2.007,1.28 2.492,2.38 0.484,1.1 0.512,2.324 0.077,3.444 -0.677,1.747 -2.324,2.874 -4.196,2.874 -0.558,0 -1.105,-0.103 -1.628,-0.305 l -4.046,-1.57 c -3.465,-1.344 -7.081,-2.026 -10.751,-2.026 -1.684,0 -3.346,0.144 -4.973,0.422 3.642,1.011 6.32,4.342 6.32,8.306 0,4.764 -3.863,8.627 -8.628,8.627 -4.764,0 -8.627,-3.863 -8.627,-8.627 0,-1.866 0.598,-3.588 1.605,-4.999 -3.329,1.868 -6.312,4.399 -8.77,7.509 -0.86,1.087 -2.147,1.71 -3.533,1.71 -1.007,0 -1.998,-0.345 -2.789,-0.971 -1.947,-1.538 -2.279,-4.374 -0.74,-6.322 3.786,-4.788 8.66,-8.628 14.152,-11.157 V 11.549 c -6.25,-2.154 -10.502,-8.023 -10.502,-14.732 0,-2.481 2.019,-4.501 4.501,-4.501 2.482,0 4.501,2.02 4.501,4.501 0,3.64 2.962,6.602 6.601,6.602 h 1.103 c 8.923,0 17.311,-3.475 23.622,-9.783 0.85,-0.851 1.98,-1.32 3.182,-1.32 1.204,0 2.334,0.469 3.183,1.32 0.85,0.849 1.318,1.98 1.318,3.181 C 1.318,-1.979 0.85,-0.85 0,0"
             inkscape:connector-curvature="0" /></g></g></g></g></svg>