<svg xmlns="http://www.w3.org/2000/svg" xmlns:xlink="http://www.w3.org/1999/xlink" width="192" height="192" viewBox="0 0 192 192">
  <defs>
    <style>
      .cls-1 {
        fill: none;
      }

      .cls-2 {
        opacity: 0.01;
      }

      .cls-2, .cls-3, .cls-4, .cls-5 {
        isolation: isolate;
      }

      .cls-3 {
        opacity: 0.02;
      }

      .cls-4 {
        opacity: 0.04;
      }

      .cls-5 {
        opacity: 0.06;
      }

      .cls-6 {
        fill: #ffa300;
      }

      .cls-7 {
        fill: url(#未命名的渐变_44);
      }

      .cls-8 {
        fill: #ffc200;
      }

      .cls-9 {
        fill: #ffd522;
      }

      .cls-10 {
        fill: url(#未命名的渐变_15);
      }

      .cls-11 {
        fill: url(#未命名的渐变_2);
      }

      .cls-12 {
        fill: url(#未命名的渐变_4);
      }

      .cls-13 {
        fill: #e58d00;
      }
    </style>
    <linearGradient id="未命名的渐变_44" data-name="未命名的渐变 44" x1="100.502" y1="50" x2="100.502" y2="6" gradientUnits="userSpaceOnUse">
      <stop offset="0" stop-color="#b96400" stop-opacity="0.4"/>
      <stop offset="0.225" stop-color="#d17e00" stop-opacity="0.265"/>
      <stop offset="0.527" stop-color="#ea9900" stop-opacity="0.12"/>
      <stop offset="0.795" stop-color="#faaa00" stop-opacity="0.031"/>
      <stop offset="1" stop-color="#ffb000" stop-opacity="0"/>
    </linearGradient>
    <linearGradient id="未命名的渐变_15" data-name="未命名的渐变 15" x1="166.004" y1="27.998" x2="25.998" y2="168.004" gradientTransform="matrix(1, 0, 0, -1, 0, 194)" gradientUnits="userSpaceOnUse">
      <stop offset="0" stop-opacity="0.1"/>
      <stop offset="0.5" stop-color="gray" stop-opacity="0.05"/>
      <stop offset="1" stop-color="#fff" stop-opacity="0.12"/>
    </linearGradient>
    <linearGradient id="未命名的渐变_2" data-name="未命名的渐变 2" x1="166.012" y1="75.988" x2="25.987" y2="216.012" gradientTransform="matrix(1, 0, 0, -1, 0, 242)" gradientUnits="userSpaceOnUse">
      <stop offset="0" stop-opacity="0.04"/>
      <stop offset="0.5" stop-color="gray" stop-opacity="0"/>
      <stop offset="1" stop-color="#fff" stop-opacity="0.1"/>
    </linearGradient>
    <linearGradient id="未命名的渐变_4" data-name="未命名的渐变 4" x1="131.848" y1="464.973" x2="59.526" y2="392.651" gradientTransform="translate(0 -318)" gradientUnits="userSpaceOnUse">
      <stop offset="0" stop-color="#f0a000"/>
      <stop offset="1" stop-color="#e59500"/>
    </linearGradient>
  </defs>
  <title>folder_applications</title>
  <g id="图层_2" data-name="图层 2">
    <g id="图层_1-2" data-name="图层 1">
      <rect class="cls-1" width="192" height="192"/>
      <g>
        <path class="cls-2" d="M96,190C27.3,190,3,165.7,3,97S27.3,4,96,4s93,24.3,93,93S164.7,190,96,190Z"/>
        <path class="cls-3" d="M96,189C28.1,189,4,164.9,4,97S28.1,5,96,5s92,24.1,92,92S163.9,189,96,189Z"/>
        <path class="cls-4" d="M96,188C28.8,188,5,164.2,5,97S28.8,6,96,6s91,23.8,91,91S163.2,188,96,188Z"/>
        <path class="cls-5" d="M186,97c0,66.7-23.3,90-90,90S6,163.7,6,97,29.3,7,96,7,186,30.3,186,97Z"/>
      </g>
      <path class="cls-6" d="M186,96c0,66.7-23.3,90-90,90S6,162.7,6,96,29.3,6,96,6,186,29.3,186,96Z"/>
      <path class="cls-7" d="M71.177,37.953c5.758,7.748,8.622,10.776,9.568,11.7a1.2,1.2,0,0,0,.842.344H180.16C169.684,18.149,144.154,6,96,6,58.276,6,34.438,13.457,20.843,32H59.266A14.424,14.424,0,0,1,71.177,37.953Z"/>
      <path class="cls-8" d="M6,96c0,66.67,23.32,90,90,90s90-23.33,90-90c0-18.545-1.807-33.732-5.846-46H81.587a1.2,1.2,0,0,1-.842-.344c-.946-.927-3.81-3.955-9.568-11.7A14.424,14.424,0,0,0,59.266,32H20.859C10.407,46.245,6,67.029,6,96Z"/>
      <path class="cls-9" d="M7,98c0-28.971,4.407-49.755,14.859-64H60.266a14.424,14.424,0,0,1,11.911,5.953c5.758,7.748,8.622,10.776,9.568,11.7a1.2,1.2,0,0,0,.842.344H180.78c-.2-.674-.41-1.343-.626-2H81.587a1.2,1.2,0,0,1-.842-.344c-.946-.927-3.81-3.955-9.568-11.7A14.424,14.424,0,0,0,59.266,32H20.859C10.407,46.245,6,67.029,6,96c0,24.311,3.106,42.854,10.279,56.61C9.816,139.073,7,121.152,7,98Z"/>
      <path class="cls-10" d="M186,96c0,66.67-23.32,90-90,90S6,162.67,6,96,29.32,6,96,6,186,29.32,186,96Z"/>
      <path class="cls-11" d="M96,6C29.3,6,6,29.3,6,96s23.3,90,90,90,90-23.3,90-90S162.7,6,96,6Zm68.6,158.6C151.2,178,130,184,96,184s-55.2-6-68.6-19.4S8,130,8,96s6-55.2,19.4-68.6S62,8,96,8s55.2,6,68.6,19.4S184,62,184,96,178,151.2,164.6,164.6Z"/>
      <path class="cls-9" d="M128.875,75.625h-22.5a5.641,5.641,0,0,0-5.625,5.625v22.5a5.641,5.641,0,0,0,5.625,5.625h22.5a5.641,5.641,0,0,0,5.625-5.625V81.25A5.641,5.641,0,0,0,128.875,75.625Zm0,41.25h-22.5a5.641,5.641,0,0,0-5.625,5.625V145a5.641,5.641,0,0,0,5.625,5.625h22.5A5.641,5.641,0,0,0,134.5,145V122.5A5.641,5.641,0,0,0,128.875,116.875Zm-41.25,0h-22.5A5.641,5.641,0,0,0,59.5,122.5V145a5.641,5.641,0,0,0,5.625,5.625h22.5A5.641,5.641,0,0,0,93.25,145V122.5A5.641,5.641,0,0,0,87.625,116.875ZM64.971,74.119c-12.227,7.063-14.029,13.806-6.977,26.035s13.806,14.03,26.035,6.975S98.061,93.327,91,81.1,77.2,67.062,64.971,74.119Z"/>
      <path class="cls-12" d="M127.875,73.625h-22.5A5.641,5.641,0,0,0,99.75,79.25v22.5a5.641,5.641,0,0,0,5.625,5.625h22.5a5.641,5.641,0,0,0,5.625-5.625V79.25A5.641,5.641,0,0,0,127.875,73.625Zm0,41.25h-22.5A5.641,5.641,0,0,0,99.75,120.5V143a5.641,5.641,0,0,0,5.625,5.625h22.5A5.641,5.641,0,0,0,133.5,143V120.5A5.641,5.641,0,0,0,127.875,114.875Zm-41.25,0h-22.5A5.641,5.641,0,0,0,58.5,120.5V143a5.641,5.641,0,0,0,5.625,5.625h22.5A5.641,5.641,0,0,0,92.25,143V120.5A5.641,5.641,0,0,0,86.625,114.875ZM63.971,72.119c-12.227,7.063-14.029,13.806-6.977,26.035s13.806,14.03,26.035,6.975S97.061,91.327,90,79.1,76.2,65.062,63.971,72.119Z"/>
      <g>
        <path class="cls-13" d="M64.971,74.119C77.2,67.062,83.944,68.871,91,81.1c.325.563.624,1.11.911,1.65C91.37,81.588,90.736,80.375,90,79.1c-7.058-12.225-13.8-14.034-26.031-6.977-11.669,6.741-13.836,13.194-7.88,24.4C51.435,86.524,54.014,80.449,64.971,74.119Z"/>
        <path class="cls-13" d="M100.75,103.75V81.25a5.641,5.641,0,0,1,5.625-5.625h22.5A5.62,5.62,0,0,1,133.3,77.8a5.641,5.641,0,0,0-5.427-4.173h-22.5A5.642,5.642,0,0,0,99.75,79.25v22.5a5.587,5.587,0,0,0,1.2,3.452A5.607,5.607,0,0,1,100.75,103.75Z"/>
        <path class="cls-13" d="M100.75,145V122.5a5.641,5.641,0,0,1,5.625-5.625h22.5a5.619,5.619,0,0,1,4.427,2.173,5.641,5.641,0,0,0-5.427-4.173h-22.5A5.641,5.641,0,0,0,99.75,120.5V143a5.587,5.587,0,0,0,1.2,3.452A5.607,5.607,0,0,1,100.75,145Z"/>
        <path class="cls-13" d="M59.5,145V122.5a5.641,5.641,0,0,1,5.625-5.625h22.5a5.619,5.619,0,0,1,4.427,2.173,5.641,5.641,0,0,0-5.427-4.173h-22.5A5.641,5.641,0,0,0,58.5,120.5V143a5.587,5.587,0,0,0,1.2,3.452A5.607,5.607,0,0,1,59.5,145Z"/>
      </g>
    </g>
  </g>
</svg>
