<?xml version="1.0" encoding="UTF-8" standalone="no"?>
<svg
   xmlns:dc="http://purl.org/dc/elements/1.1/"
   xmlns:cc="http://creativecommons.org/ns#"
   xmlns:rdf="http://www.w3.org/1999/02/22-rdf-syntax-ns#"
   xmlns:svg="http://www.w3.org/2000/svg"
   xmlns="http://www.w3.org/2000/svg"
   xmlns:sodipodi="http://sodipodi.sourceforge.net/DTD/sodipodi-0.dtd"
   xmlns:inkscape="http://www.inkscape.org/namespaces/inkscape"
   viewBox="0 0 133.33333 133.33333"
   height="133.33333"
   width="133.33333"
   xml:space="preserve"
   id="svg2"
   version="1.1"
   sodipodi:docname="icon-launcher-people.svg"
   inkscape:version="0.92.2 2405546, 2018-03-11"><sodipodi:namedview
     pagecolor="#ffffff"
     bordercolor="#666666"
     borderopacity="1"
     objecttolerance="10"
     gridtolerance="10"
     guidetolerance="10"
     inkscape:pageopacity="0"
     inkscape:pageshadow="2"
     inkscape:window-width="1366"
     inkscape:window-height="717"
     id="namedview79"
     showgrid="false"
     inkscape:zoom="1.7700001"
     inkscape:cx="66.666664"
     inkscape:cy="66.666664"
     inkscape:window-x="0"
     inkscape:window-y="25"
     inkscape:window-maximized="1"
     inkscape:current-layer="svg2" /><metadata
     id="metadata8"><rdf:RDF><cc:Work
         rdf:about=""><dc:format>image/svg+xml</dc:format><dc:type
           rdf:resource="http://purl.org/dc/dcmitype/StillImage" /></cc:Work></rdf:RDF></metadata><defs
     id="defs6"><clipPath
       id="clipPath18"
       clipPathUnits="userSpaceOnUse"><path
         id="path16"
         d="M 50,100 C 12.956,100 0,87.039 0,50 v 0 C 0,12.961 12.956,0 50,0 v 0 c 37.045,0 50,12.961 50,50 v 0 c 0,37.044 -12.955,50 -50,50 z" /></clipPath><linearGradient
       id="linearGradient30"
       spreadMethod="pad"
       gradientTransform="matrix(77.78125,-77.78125,-77.78125,-77.78125,11.109896,88.891144)"
       gradientUnits="userSpaceOnUse"
       y2="0"
       x2="1"
       y1="0"
       x1="0"><stop
         id="stop24"
         offset="0"
         style="stop-opacity:1;stop-color:#f7597e" /><stop
         id="stop26"
         offset="1"
         style="stop-opacity:1;stop-color:#e02453" /><stop
         id="stop28"
         offset="1"
         style="stop-opacity:1;stop-color:#e02453" /></linearGradient><clipPath
       id="clipPath40"
       clipPathUnits="userSpaceOnUse"><path
         id="path38"
         d="m 62.5,62.5 c 6.679,0 12.73,-2.609 17.219,-6.87 v 0 L 55.18,80.18 C 59.701,75.66 62.5,69.4 62.5,62.5" /></clipPath><clipPath
       id="clipPath48"
       clipPathUnits="userSpaceOnUse"><path
         id="path46"
         d="M -32768,32767 H 32767 V -32768 H -32768 Z" /></clipPath><linearGradient
       id="linearGradient56"
       spreadMethod="pad"
       gradientTransform="matrix(24.544983,-24.544983,-24.544983,-24.544983,52.589996,77.589996)"
       gradientUnits="userSpaceOnUse"
       y2="0"
       x2="1"
       y1="0"
       x1="0"><stop
         id="stop50"
         offset="0"
         style="stop-opacity:0.11999695;stop-color:#ffffff" /><stop
         id="stop52"
         offset="0.849572"
         style="stop-opacity:0;stop-color:#ffffff" /><stop
         id="stop54"
         offset="1"
         style="stop-opacity:0;stop-color:#ffffff" /></linearGradient><mask
       id="mask58"
       height="1"
       width="1"
       y="0"
       x="0"
       maskUnits="userSpaceOnUse"><g
         id="g68"><g
           id="g66"
           clip-path="url(#clipPath48)"><g
             id="g64"><g
               id="g62"><path
                 id="path60"
                 style="fill:url(#linearGradient56);stroke:none"
                 d="M -32768,32767 H 32767 V -32768 H -32768 Z" /></g></g></g></g></mask><linearGradient
       id="linearGradient80"
       spreadMethod="pad"
       gradientTransform="matrix(24.544983,-24.544983,-24.544983,-24.544983,52.589996,77.589996)"
       gradientUnits="userSpaceOnUse"
       y2="0"
       x2="1"
       y1="0"
       x1="0"><stop
         id="stop74"
         offset="0"
         style="stop-opacity:1;stop-color:#000000" /><stop
         id="stop76"
         offset="0.849572"
         style="stop-opacity:1;stop-color:#000000" /><stop
         id="stop78"
         offset="1"
         style="stop-opacity:1;stop-color:#000000" /></linearGradient><clipPath
       id="clipPath90"
       clipPathUnits="userSpaceOnUse"><path
         id="path88"
         d="M 85.9,33.77 C 82.96,21.66 75.78,15.47 62.5,13.361 v 0 C 58.82,12.769 54.661,12.5 50,12.5 v 0 c -13.46,0 -22.67,2.281 -28.61,7.79 v 0 L 41.4,0.28 C 44.12,0.1 46.97,0 50,0 v 0 c 31.969,0 45.99,9.67 49.23,36.13 v 0 L 80.59,54.76 c 5.29,-5.55 7.111,-13.529 5.31,-20.99" /></clipPath><clipPath
       id="clipPath98"
       clipPathUnits="userSpaceOnUse"><path
         id="path96"
         d="M -32768,32767 H 32767 V -32768 H -32768 Z" /></clipPath><linearGradient
       id="linearGradient106"
       spreadMethod="pad"
       gradientTransform="matrix(38.331757,-38.331757,-38.331757,-38.331757,44.809998,43.710022)"
       gradientUnits="userSpaceOnUse"
       y2="0"
       x2="1"
       y1="0"
       x1="0"><stop
         id="stop100"
         offset="0"
         style="stop-opacity:0.11999695;stop-color:#ffffff" /><stop
         id="stop102"
         offset="0.849572"
         style="stop-opacity:0;stop-color:#ffffff" /><stop
         id="stop104"
         offset="1"
         style="stop-opacity:0;stop-color:#ffffff" /></linearGradient><mask
       id="mask108"
       height="1"
       width="1"
       y="0"
       x="0"
       maskUnits="userSpaceOnUse"><g
         id="g118"><g
           id="g116"
           clip-path="url(#clipPath98)"><g
             id="g114"><g
               id="g112"><path
                 id="path110"
                 style="fill:url(#linearGradient106);stroke:none"
                 d="M -32768,32767 H 32767 V -32768 H -32768 Z" /></g></g></g></g></mask><linearGradient
       id="linearGradient130"
       spreadMethod="pad"
       gradientTransform="matrix(38.331757,-38.331757,-38.331757,-38.331757,44.809998,43.710022)"
       gradientUnits="userSpaceOnUse"
       y2="0"
       x2="1"
       y1="0"
       x1="0"><stop
         id="stop124"
         offset="0"
         style="stop-opacity:1;stop-color:#000000" /><stop
         id="stop126"
         offset="0.849572"
         style="stop-opacity:1;stop-color:#000000" /><stop
         id="stop128"
         offset="1"
         style="stop-opacity:1;stop-color:#000000" /></linearGradient><clipPath
       id="clipPath140"
       clipPathUnits="userSpaceOnUse"><path
         id="path138"
         d="M 0,100 H 100 V 0 H 0 Z" /></clipPath><clipPath
       id="clipPath148"
       clipPathUnits="userSpaceOnUse"><path
         id="path146"
         d="M 12.5,86.5793 H 86.5736 V 12.5 H 12.5 Z" /></clipPath></defs><g
     transform="matrix(1.25,0,0,-1.25,4,129.33333)"
     id="g10"><g
       id="g12"><g
         clip-path="url(#clipPath18)"
         id="g14"><g
           id="g20"><g
             id="g22"><path
               id="path32"
               style="fill:url(#linearGradient30);stroke:none"
               d="M 50,100 C 12.956,100 0,87.039 0,50 v 0 C 0,12.961 12.956,0 50,0 v 0 c 37.045,0 50,12.961 50,50 v 0 c 0,37.044 -12.955,50 -50,50 z"
               inkscape:connector-curvature="0" /></g></g></g></g><g
       id="g34"><g
         clip-path="url(#clipPath40)"
         id="g36"><g
           id="g42"><g
             id="g44" /><g
             mask="url(#mask58)"
             id="g70"><g
               id="g72"><path
                 id="path82"
                 style="fill:url(#linearGradient80);stroke:none"
                 d="m 62.5,62.5 c 6.679,0 12.73,-2.609 17.219,-6.87 v 0 L 55.18,80.18 C 59.701,75.66 62.5,69.4 62.5,62.5"
                 inkscape:connector-curvature="0" /></g></g></g></g></g><g
       id="g84"><g
         clip-path="url(#clipPath90)"
         id="g86"><g
           id="g92"><g
             id="g94" /><g
             mask="url(#mask108)"
             id="g120"><g
               id="g122"><path
                 id="path132"
                 style="fill:url(#linearGradient130);stroke:none"
                 d="M 85.9,33.77 C 82.96,21.66 75.78,15.47 62.5,13.361 v 0 C 58.82,12.769 54.661,12.5 50,12.5 v 0 c -13.46,0 -22.67,2.281 -28.61,7.79 v 0 L 41.4,0.28 C 44.12,0.1 46.97,0 50,0 v 0 c 31.969,0 45.99,9.67 49.23,36.13 v 0 L 80.59,54.76 c 5.29,-5.55 7.111,-13.529 5.31,-20.99"
                 inkscape:connector-curvature="0" /></g></g></g></g></g><g
       id="g134"><g
         clip-path="url(#clipPath140)"
         id="g136"><g
           id="g142"><g
             id="g144" /><g
             id="g156"><g
               style="opacity:0.60000598"
               id="g154"
               clip-path="url(#clipPath148)"><g
                 id="g152"
                 transform="translate(85.9004,33.7695)"><path
                   id="path150"
                   style="fill:#ffa6ba;fill-opacity:1;fill-rule:nonzero;stroke:none"
                   d="m 0,0 c -2.94,-12.109 -10.12,-18.3 -23.4,-20.409 -3.68,-0.591 -7.84,-0.861 -12.5,-0.861 -13.46,0 -22.67,2.281 -28.61,7.791 l -0.551,0.549 c -2.949,2.951 -5.04,6.771 -6.379,11.58 -1.351,4.821 -1.96,10.64 -1.96,17.58 0,4.661 0.27,8.82 0.859,12.5 2.11,13.291 8.311,20.471 20.44,23.4 7.201,1.741 14.931,0.141 20.441,-4.83 0.319,-0.289 0.63,-0.579 0.939,-0.889 4.521,-4.52 7.321,-10.781 7.321,-17.681 6.679,0 12.73,-2.609 17.219,-6.87 0.3,-0.279 0.59,-0.569 0.87,-0.87 C -0.021,15.44 1.8,7.461 0,0"
                   inkscape:connector-curvature="0" /></g></g></g></g></g></g></g></svg>