<?xml version="1.0" encoding="UTF-8" standalone="no"?>
<svg
   xmlns:dc="http://purl.org/dc/elements/1.1/"
   xmlns:cc="http://creativecommons.org/ns#"
   xmlns:rdf="http://www.w3.org/1999/02/22-rdf-syntax-ns#"
   xmlns:svg="http://www.w3.org/2000/svg"
   xmlns="http://www.w3.org/2000/svg"
   xmlns:sodipodi="http://sodipodi.sourceforge.net/DTD/sodipodi-0.dtd"
   xmlns:inkscape="http://www.inkscape.org/namespaces/inkscape"
   viewBox="0 0 133.33333 133.33333"
   height="133.33333"
   width="133.33333"
   xml:space="preserve"
   id="svg2"
   version="1.1"
   sodipodi:docname="icon-launcher-notes.svg"
   inkscape:version="0.92.2 2405546, 2018-03-11"><sodipodi:namedview
     pagecolor="#ffffff"
     bordercolor="#666666"
     borderopacity="1"
     objecttolerance="10"
     gridtolerance="10"
     guidetolerance="10"
     inkscape:pageopacity="0"
     inkscape:pageshadow="2"
     inkscape:window-width="1366"
     inkscape:window-height="717"
     id="namedview112"
     showgrid="false"
     inkscape:zoom="1.7700001"
     inkscape:cx="66.666664"
     inkscape:cy="66.666664"
     inkscape:window-x="0"
     inkscape:window-y="25"
     inkscape:window-maximized="1"
     inkscape:current-layer="svg2" /><metadata
     id="metadata8"><rdf:RDF><cc:Work
         rdf:about=""><dc:format>image/svg+xml</dc:format><dc:type
           rdf:resource="http://purl.org/dc/dcmitype/StillImage" /></cc:Work></rdf:RDF></metadata><defs
     id="defs6"><clipPath
       id="clipPath18"
       clipPathUnits="userSpaceOnUse"><path
         id="path16"
         d="M 50,100 C 12.956,100 0,87.039 0,50 v 0 C 0,12.961 12.956,0 50,0 v 0 c 37.045,0 50,12.961 50,50 v 0 c 0,37.044 -12.955,50 -50,50 z" /></clipPath><linearGradient
       id="linearGradient30"
       spreadMethod="pad"
       gradientTransform="matrix(77.78125,-77.78125,-77.78125,-77.78125,11.109896,88.891144)"
       gradientUnits="userSpaceOnUse"
       y2="0"
       x2="1"
       y1="0"
       x1="0"><stop
         id="stop24"
         offset="0"
         style="stop-opacity:1;stop-color:#fffebf" /><stop
         id="stop26"
         offset="1"
         style="stop-opacity:1;stop-color:#d9d099" /><stop
         id="stop28"
         offset="1"
         style="stop-opacity:1;stop-color:#d9d099" /></linearGradient><clipPath
       id="clipPath40"
       clipPathUnits="userSpaceOnUse"><path
         id="path38"
         d="M 3.949,77.5 77.5,3.949 C 93.738,10.167 100,24.269 100,50 v 0 c 0,21.322 -4.306,34.651 -15.014,42.136 v 0 z" /></clipPath><clipPath
       id="clipPath48"
       clipPathUnits="userSpaceOnUse"><path
         id="path46"
         d="M -32768,32767 H 32767 V -32768 H -32768 Z" /></clipPath><linearGradient
       id="linearGradient56"
       spreadMethod="pad"
       gradientTransform="matrix(75.658241,-75.658241,-75.658241,-75.658241,28.026405,101.57725)"
       gradientUnits="userSpaceOnUse"
       y2="0"
       x2="1"
       y1="0"
       x1="0"><stop
         id="stop50"
         offset="0"
         style="stop-opacity:0.07998779;stop-color:#ffffff" /><stop
         id="stop52"
         offset="0.863248"
         style="stop-opacity:0;stop-color:#ffffff" /><stop
         id="stop54"
         offset="1"
         style="stop-opacity:0;stop-color:#ffffff" /></linearGradient><mask
       id="mask58"
       height="1"
       width="1"
       y="0"
       x="0"
       maskUnits="userSpaceOnUse"><g
         id="g68"><g
           id="g66"
           clip-path="url(#clipPath48)"><g
             id="g64"><g
               id="g62"><path
                 id="path60"
                 style="fill:url(#linearGradient56);stroke:none"
                 d="M -32768,32767 H 32767 V -32768 H -32768 Z" /></g></g></g></g></mask><linearGradient
       id="linearGradient80"
       spreadMethod="pad"
       gradientTransform="matrix(75.658241,-75.658241,-75.658241,-75.658241,28.026405,101.57725)"
       gradientUnits="userSpaceOnUse"
       y2="0"
       x2="1"
       y1="0"
       x1="0"><stop
         id="stop74"
         offset="0"
         style="stop-opacity:1;stop-color:#000000" /><stop
         id="stop76"
         offset="0.863248"
         style="stop-opacity:1;stop-color:#000000" /><stop
         id="stop78"
         offset="1"
         style="stop-opacity:1;stop-color:#000000" /></linearGradient><clipPath
       id="clipPath90"
       clipPathUnits="userSpaceOnUse"><path
         id="path88"
         d="M 50,100 C 24.267,100 10.166,93.735 3.949,77.5 v 0 H 96.052 C 89.835,93.737 75.734,100 50,100 Z" /></clipPath><linearGradient
       id="linearGradient100"
       spreadMethod="pad"
       gradientTransform="matrix(48.15876,-48.15876,-48.15876,-48.15876,25.92136,103.68713)"
       gradientUnits="userSpaceOnUse"
       y2="0"
       x2="1"
       y1="0"
       x1="0"><stop
         id="stop96"
         offset="0"
         style="stop-opacity:1;stop-color:#01c5bf" /><stop
         id="stop98"
         offset="1"
         style="stop-opacity:1;stop-color:#00ada4" /></linearGradient><clipPath
       id="clipPath110"
       clipPathUnits="userSpaceOnUse"><path
         id="path108"
         d="M 0,100 H 100 V 0 H 0 Z" /></clipPath><clipPath
       id="clipPath118"
       clipPathUnits="userSpaceOnUse"><path
         id="path116"
         d="M 1.00934,67 H 98.991 V 65.75 H 1.00934 Z" /></clipPath><clipPath
       id="clipPath134"
       clipPathUnits="userSpaceOnUse"><path
         id="path132"
         d="M 0.0595703,55.25 H 99.9404 V 54 H 0.0595703 Z" /></clipPath><clipPath
       id="clipPath150"
       clipPathUnits="userSpaceOnUse"><path
         id="path148"
         d="M 0.148621,43.5 H 99.8514 V 42.25 H 0.148621 Z" /></clipPath><clipPath
       id="clipPath166"
       clipPathUnits="userSpaceOnUse"><path
         id="path164"
         d="M 1.42041,31.75 H 98.5796 V 30.5 H 1.42041 Z" /></clipPath><clipPath
       id="clipPath182"
       clipPathUnits="userSpaceOnUse"><path
         id="path180"
         d="M 4.99622,20 H 95.0038 V 18.75 H 4.99622 Z" /></clipPath><clipPath
       id="clipPath198"
       clipPathUnits="userSpaceOnUse"><path
         id="path196"
         d="M 14.4579,8.25 H 85.5421 V 7 H 14.4579 Z" /></clipPath><clipPath
       id="clipPath214"
       clipPathUnits="userSpaceOnUse"><path
         id="path212"
         d="M 20.6259,68.6384 H 79.375 V 20.6116 H 20.6259 Z" /></clipPath></defs><g
     transform="matrix(1.25,0,0,-1.25,4,129.33333)"
     id="g10"><g
       id="g12"><g
         clip-path="url(#clipPath18)"
         id="g14"><g
           id="g20"><g
             id="g22"><path
               id="path32"
               style="fill:url(#linearGradient30);stroke:none"
               d="M 50,100 C 12.956,100 0,87.039 0,50 v 0 C 0,12.961 12.956,0 50,0 v 0 c 37.045,0 50,12.961 50,50 v 0 c 0,37.044 -12.955,50 -50,50 z"
               inkscape:connector-curvature="0" /></g></g></g></g><g
       id="g34"><g
         clip-path="url(#clipPath40)"
         id="g36"><g
           id="g42"><g
             id="g44" /><g
             mask="url(#mask58)"
             id="g70"><g
               id="g72"><path
                 id="path82"
                 style="fill:url(#linearGradient80);stroke:none"
                 d="M 3.949,77.5 77.5,3.949 C 93.738,10.167 100,24.269 100,50 v 0 c 0,21.322 -4.306,34.651 -15.014,42.136 v 0 z"
                 inkscape:connector-curvature="0" /></g></g></g></g></g><g
       id="g84"><g
         clip-path="url(#clipPath90)"
         id="g86"><g
           id="g92"><g
             id="g94"><path
               id="path102"
               style="fill:url(#linearGradient100);stroke:none"
               d="M 50,100 C 24.267,100 10.166,93.735 3.949,77.5 v 0 H 96.052 C 89.835,93.737 75.734,100 50,100 Z"
               inkscape:connector-curvature="0" /></g></g></g></g><g
       id="g104"><g
         clip-path="url(#clipPath110)"
         id="g106"><g
           id="g112"><g
             id="g114" /><g
             id="g126"><g
               style="opacity:0.19999701"
               id="g124"
               clip-path="url(#clipPath118)"><g
                 id="g122"
                 transform="translate(1.0093,65.75)"><path
                   id="path120"
                   style="fill:#000000;fill-opacity:1;fill-rule:nonzero;stroke:none"
                   d="M 0,0 H 97.982 C 97.919,0.426 97.844,0.833 97.776,1.25 H 0.206 C 0.137,0.833 0.062,0.426 0,0"
                   inkscape:connector-curvature="0" /></g></g></g></g><g
           id="g128"><g
             id="g130" /><g
             id="g142"><g
               style="opacity:0.19999701"
               id="g140"
               clip-path="url(#clipPath134)"><g
                 id="g138"
                 transform="translate(0.0596,54)"><path
                   id="path136"
                   style="fill:#000000;fill-opacity:1;fill-rule:nonzero;stroke:none"
                   d="M 0,0 H 99.881 C 99.869,0.422 99.852,0.834 99.836,1.25 H 0.044 C 0.029,0.834 0.012,0.422 0,0"
                   inkscape:connector-curvature="0" /></g></g></g></g><g
           id="g144"><g
             id="g146" /><g
             id="g158"><g
               style="opacity:0.19999701"
               id="g156"
               clip-path="url(#clipPath150)"><g
                 id="g154"
                 transform="translate(0.2227,42.25)"><path
                   id="path152"
                   style="fill:#000000;fill-opacity:1;fill-rule:nonzero;stroke:none"
                   d="m 0,0 h 99.555 c 0.024,0.417 0.053,0.826 0.074,1.25 H -0.074 C -0.054,0.826 -0.024,0.417 0,0"
                   inkscape:connector-curvature="0" /></g></g></g></g><g
           id="g160"><g
             id="g162" /><g
             id="g174"><g
               style="opacity:0.19999701"
               id="g172"
               clip-path="url(#clipPath166)"><g
                 id="g170"
                 transform="translate(1.6733,30.5)"><path
                   id="path168"
                   style="fill:#000000;fill-opacity:1;fill-rule:nonzero;stroke:none"
                   d="m 0,0 h 96.653 c 0.085,0.416 0.176,0.824 0.254,1.25 H -0.253 C -0.175,0.824 -0.084,0.416 0,0"
                   inkscape:connector-curvature="0" /></g></g></g></g><g
           id="g176"><g
             id="g178" /><g
             id="g190"><g
               style="opacity:0.19999701"
               id="g188"
               clip-path="url(#clipPath182)"><g
                 id="g186"
                 transform="translate(5.6226,18.75)"><path
                   id="path184"
                   style="fill:#000000;fill-opacity:1;fill-rule:nonzero;stroke:none"
                   d="m 0,0 h 88.755 c 0.212,0.413 0.427,0.822 0.626,1.25 H -0.626 C -0.427,0.822 -0.212,0.413 0,0"
                   inkscape:connector-curvature="0" /></g></g></g></g><g
           id="g192"><g
             id="g194" /><g
             id="g206"><g
               style="opacity:0.19999701"
               id="g204"
               clip-path="url(#clipPath198)"><g
                 id="g202"
                 transform="translate(16.3066,7)"><path
                   id="path200"
                   style="fill:#000000;fill-opacity:1;fill-rule:nonzero;stroke:none"
                   d="m 0,0 h 67.387 c 0.636,0.398 1.254,0.814 1.848,1.25 H -1.849 C -1.254,0.814 -0.637,0.398 0,0"
                   inkscape:connector-curvature="0" /></g></g></g></g><g
           id="g208"><g
             id="g210" /><g
             id="g222"><g
               style="opacity:0.5"
               id="g220"
               clip-path="url(#clipPath214)"><g
                 id="g218"
                 transform="translate(41.5479,61.2354)"><path
                   id="path216"
                   style="fill:#ababab;fill-opacity:1;fill-rule:nonzero;stroke:none"
                   d="m 0,0 c -0.202,0 -0.467,-0.126 -0.56,-0.174 -1.582,-0.812 -3.382,-3.737 -3.598,-8.237 -0.206,-4.272 -0.226,-7.625 0.01,-10.257 2.879,4.327 5.069,9.114 5.309,13.854 0.165,3.28 -0.668,4.559 -1.003,4.775 C 0.115,-0.011 0.061,0 0,0 m -17.874,-40.624 c -0.92,0 -1.829,0.415 -2.428,1.204 -1.017,1.34 -0.756,3.249 0.583,4.266 0.103,0.079 5.388,4.142 10.618,10.089 -1.72,4.918 -1.421,11.138 -1.141,16.947 0.299,6.209 2.942,11.328 6.898,13.361 2.318,1.192 4.798,1.131 6.805,-0.165 1.555,-1.004 4.113,-3.663 3.783,-10.2 -0.377,-7.448 -4.4,-14.685 -9,-20.618 1.06,-1.128 2.493,-1.761 4.375,-2.122 0.422,-0.082 1.702,-0.327 3.709,1.261 3.572,2.827 6.724,9.275 8.362,14.34 -0.942,1.068 -1.703,2.447 -2.224,4.087 -1.543,4.852 -0.346,7.191 0.93,8.297 1.285,1.116 3.09,1.324 4.711,0.541 2.455,-1.184 4.004,-4.315 3.857,-7.791 -0.003,-0.062 -0.006,-0.125 -0.01,-0.189 0.763,0.95 1.6,2.436 2.33,4.593 1.027,3.03 3.429,10.126 10.498,10.126 1.682,0 3.045,-1.363 3.045,-3.045 0,-1.682 -1.363,-3.046 -3.045,-3.046 -1.621,0 -3.046,-1.018 -4.729,-5.988 -2.965,-8.758 -7.627,-10.023 -9.781,-10.104 -1.981,-5.927 -5.578,-12.968 -10.165,-16.597 -3.466,-2.743 -6.61,-2.857 -8.636,-2.467 -3.134,0.602 -5.468,1.793 -7.197,3.409 -5.117,-5.586 -9.889,-9.25 -10.309,-9.569 -0.55,-0.418 -1.197,-0.62 -1.839,-0.62"
                   inkscape:connector-curvature="0" /></g></g></g></g></g></g></g></svg>