<svg xmlns="http://www.w3.org/2000/svg" xmlns:xlink="http://www.w3.org/1999/xlink" width="192" height="192" viewBox="0 0 192 192">
  <defs>
    <style>
      .cls-1 {
        fill: none;
      }

      .cls-2 {
        opacity: 0.01;
      }

      .cls-2, .cls-3, .cls-4, .cls-5 {
        isolation: isolate;
      }

      .cls-3 {
        opacity: 0.02;
      }

      .cls-4 {
        opacity: 0.04;
      }

      .cls-5 {
        opacity: 0.06;
      }

      .cls-6 {
        fill: #ffa300;
      }

      .cls-7 {
        fill: url(#未命名的渐变_44);
      }

      .cls-8 {
        fill: #ffc200;
      }

      .cls-9 {
        fill: #ffd522;
      }

      .cls-10 {
        fill: url(#未命名的渐变_15);
      }

      .cls-11 {
        fill: url(#未命名的渐变_2);
      }

      .cls-12 {
        fill: url(#未命名的渐变_111);
      }

      .cls-13 {
        fill: #e58d00;
      }
    </style>
    <linearGradient id="未命名的渐变_44" data-name="未命名的渐变 44" x1="100.502" y1="50" x2="100.502" y2="6" gradientUnits="userSpaceOnUse">
      <stop offset="0" stop-color="#b96400" stop-opacity="0.4"/>
      <stop offset="0.225" stop-color="#d17e00" stop-opacity="0.265"/>
      <stop offset="0.527" stop-color="#ea9900" stop-opacity="0.12"/>
      <stop offset="0.795" stop-color="#faaa00" stop-opacity="0.031"/>
      <stop offset="1" stop-color="#ffb000" stop-opacity="0"/>
    </linearGradient>
    <linearGradient id="未命名的渐变_15" data-name="未命名的渐变 15" x1="166.004" y1="27.998" x2="25.998" y2="168.004" gradientTransform="matrix(1, 0, 0, -1, 0, 194)" gradientUnits="userSpaceOnUse">
      <stop offset="0" stop-opacity="0.1"/>
      <stop offset="0.5" stop-color="gray" stop-opacity="0.05"/>
      <stop offset="1" stop-color="#fff" stop-opacity="0.12"/>
    </linearGradient>
    <linearGradient id="未命名的渐变_2" data-name="未命名的渐变 2" x1="166.012" y1="75.988" x2="25.987" y2="216.012" gradientTransform="matrix(1, 0, 0, -1, 0, 242)" gradientUnits="userSpaceOnUse">
      <stop offset="0" stop-opacity="0.04"/>
      <stop offset="0.5" stop-color="gray" stop-opacity="0"/>
      <stop offset="1" stop-color="#fff" stop-opacity="0.1"/>
    </linearGradient>
    <linearGradient id="未命名的渐变_111" data-name="未命名的渐变 111" x1="126.407" y1="52.47" x2="65.595" y2="113.282" gradientTransform="matrix(1, 0, 0, -1, 0, 194)" gradientUnits="userSpaceOnUse">
      <stop offset="0" stop-color="#f0a000"/>
      <stop offset="1" stop-color="#e59500"/>
    </linearGradient>
  </defs>
  <title>folder_internet</title>
  <g id="图层_2" data-name="图层 2">
    <g id="图层_1-2" data-name="图层 1">
      <rect class="cls-1" width="192" height="192"/>
      <g>
        <path class="cls-2" d="M96,190C27.3,190,3,165.7,3,97S27.3,4,96,4s93,24.3,93,93S164.7,190,96,190Z"/>
        <path class="cls-3" d="M96,189C28.1,189,4,164.9,4,97S28.1,5,96,5s92,24.1,92,92S163.9,189,96,189Z"/>
        <path class="cls-4" d="M96,188C28.8,188,5,164.2,5,97S28.8,6,96,6s91,23.8,91,91S163.2,188,96,188Z"/>
        <path class="cls-5" d="M186,97c0,66.7-23.3,90-90,90S6,163.7,6,97,29.3,7,96,7,186,30.3,186,97Z"/>
      </g>
      <path class="cls-6" d="M186,96c0,66.7-23.3,90-90,90S6,162.7,6,96,29.3,6,96,6,186,29.3,186,96Z"/>
      <path class="cls-7" d="M71.177,37.953c5.758,7.748,8.622,10.776,9.568,11.7a1.2,1.2,0,0,0,.842.344H180.16C169.684,18.149,144.154,6,96,6,58.276,6,34.438,13.457,20.843,32H59.266A14.424,14.424,0,0,1,71.177,37.953Z"/>
      <path class="cls-8" d="M6,96c0,66.67,23.32,90,90,90s90-23.33,90-90c0-18.545-1.807-33.732-5.846-46H81.587a1.2,1.2,0,0,1-.842-.344c-.946-.927-3.81-3.955-9.568-11.7A14.424,14.424,0,0,0,59.266,32H20.859C10.407,46.245,6,67.029,6,96Z"/>
      <path class="cls-9" d="M7,98c0-28.971,4.407-49.755,14.859-64H60.266a14.424,14.424,0,0,1,11.911,5.953c5.758,7.748,8.622,10.776,9.568,11.7a1.2,1.2,0,0,0,.842.344H180.78c-.2-.674-.41-1.343-.626-2H81.587a1.2,1.2,0,0,1-.842-.344c-.946-.927-3.81-3.955-9.568-11.7A14.424,14.424,0,0,0,59.266,32H20.859C10.407,46.245,6,67.029,6,96c0,24.311,3.106,42.854,10.279,56.61C9.816,139.073,7,121.152,7,98Z"/>
      <path class="cls-10" d="M186,96c0,66.67-23.32,90-90,90S6,162.67,6,96,29.32,6,96,6,186,29.32,186,96Z"/>
      <path class="cls-11" d="M96,6C29.3,6,6,29.3,6,96s23.3,90,90,90,90-23.3,90-90S162.7,6,96,6Zm68.6,158.6C151.2,178,130,184,96,184s-55.2-6-68.6-19.4S8,130,8,96s6-55.2,19.4-68.6S62,8,96,8s55.2,6,68.6,19.4S184,62,184,96,178,151.2,164.6,164.6Z"/>
      <path class="cls-9" d="M97,70.125a43,43,0,1,0,43,42.99A43,43,0,0,0,97,70.125Zm37.979,34.912.336.338c.15.741.238,1.5.346,2.254l-1.634-1.636ZM61.672,123.752l-.827.834v3.351a38.75,38.75,0,0,1-2.57-9.767l2.122,2.118h1.275Zm6.735,15.937a39.422,39.422,0,0,1-3.325-4.075H66.2l2.2,2.2Zm58.9-36.866-1.569,1.567h-5.254v-1.362h-6.477v-2.045h-9.07l-5.865,5.866v10.709l4.159,4.161h10.027v4.5l2.525,2.524v16.785l1.159,1.158a38.752,38.752,0,0,1-39.3.349l1.92-1.919v-3.069l2.8-2.8h1.469v-6.174l3.1-3.1V127h-4.4l-1.466-1.464V124.1H77.519l-6.147-6.149H64.261L63.12,119.09H60.489l-1.462-1.466v-3.545H57.958c-.008-.325-.049-.639-.049-.964a39.1,39.1,0,0,1,.946-8.451h1.6l.825.821v1.976h.879v-3.749l2.594-2.594h1.706L71.577,96h3l.824-.813V92.591h-.891v-.675h4.236l1.106-1.1v-.77l-1.282-1.281V85.255l-1.4,1.4h-1.43V84.677H73.624l-1.568,1.571H71.2v2.559l-2.287,2.286V88.98H67.076v-.961a39.284,39.284,0,0,1,9.5-8.162l1.306,1.309-.645.643h-1.57V82.7l1.847,1.839h1.222l1.1-1.093V82.253h1.875l.785-.79L79.329,78.3a39.568,39.568,0,0,1,3.739-1.658v.5h3.886V79.9H88.9l-1.124,1.125H86.447v4.732h2.166L91.05,83.33h1.681l4.152-4.144h1.528l4.64-4.632a38.773,38.773,0,0,1,14.167,5.18h-1.169l-4.965,4.958V87h2.569l1.329,1.323h1.337l.905-.9V83.86l1.694-1.695h1.15L118.129,84.1V85.63h2.761v.759l-2.9,2.894a33.063,33.063,0,0,1-3.921,0c.153-.158-.539-1.051-.539-1.051h-1.437l-3.714,3.71h-2.419v1.125h1.155V96.2h-3.548v3.41l.786.788h2.283l3.26-3.26V95.929h3.225l2.8,2.8,1.159-1.157-2.59-2.592h1.634l2.219,2.215v1.333h2.423v-.89h1.021l2.965,2.965h2.56Zm-3.34-5.188-.993-.983.033-.92,1.466-1.472h3.52l2.4,2.406v.967h-6.428Zm6.651,35.334v-5.523l4.058-4.056A38.741,38.741,0,0,1,130.616,132.969Zm1.939-15.616-5.009-5.016v-6.373h1.4v5.93l3.884,3.883h2.724l.423-.422c-.039.667-.053,1.339-.126,2h-3.295ZM105.088,90.245v-.537l.35-.354v-.843h-.788l-.735.61v.547l-.623.632v.674h1.069Zm1.739-.508h-.33l-.692.692v.76h2.387l.658-.659V89.8L107.1,88.056l.457-.463v-.548h-1.182l.584-.578H106.1l-.568.53v.9l1.3,1.294Z"/>
      <path class="cls-12" d="M96,68.125a43,43,0,1,0,43,42.99A43,43,0,0,0,96,68.125Zm37.979,34.912.336.338c.15.741.238,1.5.346,2.254l-1.634-1.636ZM60.672,121.752l-.827.834v3.351a38.75,38.75,0,0,1-2.57-9.767l2.122,2.118h1.275Zm6.735,15.937a39.422,39.422,0,0,1-3.325-4.075H65.2l2.2,2.2Zm58.9-36.866-1.569,1.567h-5.254v-1.362h-6.477V98.983h-9.07l-5.865,5.866v10.709l4.159,4.161h10.027v4.5l2.525,2.524v16.785l1.159,1.158a38.752,38.752,0,0,1-39.3.349l1.92-1.919v-3.069l2.8-2.8h1.469v-6.174l3.1-3.1V125h-4.4l-1.466-1.464V122.1H76.519l-6.147-6.149H63.261L62.12,117.09H59.489l-1.462-1.466v-3.545H56.958c-.008-.325-.049-.639-.049-.964a39.1,39.1,0,0,1,.946-8.451h1.6l.825.821v1.976h.879v-3.749l2.594-2.594h1.706L70.577,94h3l.824-.813V90.591h-.891v-.675h4.236l1.106-1.1v-.77l-1.282-1.281V83.255l-1.4,1.4h-1.43V82.677H72.624l-1.568,1.571H70.2v2.559l-2.287,2.286V86.98H66.076v-.961a39.284,39.284,0,0,1,9.5-8.162l1.306,1.309-.645.643h-1.57V80.7l1.847,1.839h1.222l1.1-1.093V80.253h1.875l.785-.79L78.329,76.3a39.568,39.568,0,0,1,3.739-1.658v.5h3.886V77.9H87.9l-1.124,1.125H85.447v4.732h2.166L90.05,81.33h1.681l4.152-4.144h1.528l4.64-4.632a38.773,38.773,0,0,1,14.167,5.18h-1.169l-4.965,4.958V85h2.569l1.329,1.323h1.337l.905-.9V81.86l1.694-1.695h1.15L117.129,82.1V83.63h2.761v.759l-2.9,2.894a33.063,33.063,0,0,1-3.921,0c.153-.158-.539-1.051-.539-1.051h-1.437l-3.714,3.71h-2.419v1.125h1.155V94.2h-3.548v3.41l.786.788h2.283l3.26-3.26V93.929h3.225l2.8,2.8,1.159-1.157-2.59-2.592h1.634l2.219,2.215v1.333h2.423v-.89h1.021l2.965,2.965h2.56Zm-3.34-5.188-.993-.983.033-.92,1.466-1.472h3.52l2.4,2.406v.967h-6.428Zm6.651,35.334v-5.523l4.058-4.056A38.741,38.741,0,0,1,129.616,130.969Zm1.939-15.616-5.009-5.016v-6.373h1.4v5.93l3.884,3.883h2.724l.423-.422c-.039.667-.053,1.339-.126,2h-3.295ZM104.088,88.245v-.537l.35-.354v-.843h-.788l-.735.61v.547l-.623.632v.674h1.069Zm1.739-.508h-.33l-.692.692v.76h2.387l.658-.659V87.8L106.1,86.056l.457-.463v-.548h-1.182l.584-.578H105.1l-.568.53v.9l1.3,1.294Z"/>
      <g>
        <polygon class="cls-13" points="112.256 124.22 113.256 125.22 113.256 121.719 112.256 121.719 112.256 124.22"/>
        <polygon class="cls-13" points="105.088 89.942 105.088 90.245 104.958 90.376 104.958 91.067 105.805 91.067 105.805 90.429 106.292 89.942 105.088 89.942"/>
        <polygon class="cls-13" points="108.052 98.983 106.634 100.401 104.351 100.401 103.565 99.613 103.565 99.354 98.07 104.849 98.07 115.558 99.07 116.558 99.07 106.849 104.935 100.983 113.005 100.983 113.005 98.983 108.052 98.983"/>
        <polygon class="cls-13" points="114.781 143.529 115.781 144.528 115.781 128.744 114.781 127.745 114.781 143.529"/>
        <polygon class="cls-13" points="102.915 87.121 102.915 87.668 102.292 88.3 102.292 88.974 103.361 88.974 104.088 88.245 104.088 87.708 104.438 87.354 104.438 86.511 103.65 86.511 102.915 87.121"/>
        <polygon class="cls-13" points="107.56 87.593 107.103 88.056 107.714 88.667 107.85 88.53 107.85 87.801 107.56 87.512 107.56 87.593"/>
        <polygon class="cls-13" points="107.094 87.045 106.737 86.69 106.378 87.045 107.094 87.045"/>
        <polygon class="cls-13" points="105.1 84.467 104.532 84.997 104.532 85.9 105.583 86.949 106.1 86.467 106.514 86.467 106.103 86.056 106.56 85.593 106.56 85.045 105.378 85.045 105.962 84.467 105.1 84.467"/>
        <path class="cls-13" d="M135.976,115.355l-.423.422h-2.724l-.427-.426h-.847v0l-4.009-4.015v1l5.009,5.016v0h3.3C135.923,116.694,135.937,116.022,135.976,115.355Z"/>
        <polygon class="cls-13" points="116.073 95.569 115.482 94.977 114.483 94.977 115.573 96.068 116.073 95.569"/>
        <path class="cls-13" d="M68.407,137.815l-1-1v.873q-.936-1.006-1.8-2.075h-.524a39.422,39.422,0,0,0,3.325,4.075Z"/>
        <path class="cls-13" d="M125.736,104.39l1.569-1.567V100.6h-1v.223l-1.569,1.567h-5.254v-1.362h-5.477v2h6.477v1.362Z"/>
        <path class="cls-13" d="M132.106,125.957q-.673,1.635-1.49,3.19v3.822a38.725,38.725,0,0,0,4.058-9.579Z"/>
        <path class="cls-13" d="M60.845,124.586l.827-.834v-3.464h-1v1.464l-.827.834v2.58c.3.938.628,1.865,1,2.771Z"/>
        <polygon class="cls-13" points="77.519 124.096 80.615 124.096 80.057 123.538 80.057 122.096 76.519 122.096 70.372 115.947 63.261 115.947 62.12 117.09 59.489 117.09 59.027 116.627 59.027 117.624 59.689 118.288 60.672 118.288 60.672 119.09 63.12 119.09 64.261 117.947 71.372 117.947 77.519 124.096"/>
        <path class="cls-13" d="M71.2,88.807V86.248h.856l1.568-1.571h2.113v1.978h1.43l.4-.4V84.54h-.054l-.617-.615-.729.73h-1.43V82.677H72.624l-1.568,1.571h-.3c-.188.169-.371.343-.555.516v2.043L68.026,88.98h.887v2.113Z"/>
        <path class="cls-13" d="M67.913,87.1c-.276.308-.571.6-.837.917v.961h.837Z"/>
        <polygon class="cls-13" points="105.532 87.737 105.497 87.737 104.805 88.429 104.805 88.511 105.438 88.511 105.438 89.189 106.823 89.189 105.532 87.9 105.532 87.737"/>
        <rect class="cls-13" x="85.954" y="77.142" width="1" height="0.762"/>
        <polygon class="cls-13" points="86.954 78.852 86.776 79.029 85.447 79.029 85.447 83.761 86.447 83.761 86.447 81.029 87.776 81.029 88.9 79.904 86.954 79.904 86.954 78.852"/>
        <path class="cls-13" d="M110.084,82.692V85h1v-.307l4.965-4.958h1.169c-.874-.531-1.774-1.019-2.689-1.481Z"/>
        <polygon class="cls-13" points="117.453 83.63 118.601 83.63 120.068 82.165 118.918 82.165 117.453 83.63"/>
        <path class="cls-13" d="M54,113.115a43,43,0,0,1,80.945-20.229,43,43,0,1,0-76.886,38.478A42.856,42.856,0,0,1,54,113.115Z"/>
        <path class="cls-13" d="M57.958,114.079h.069v-2h-.088c-.009.345-.03.688-.03,1.036C57.909,113.44,57.95,113.754,57.958,114.079Z"/>
        <path class="cls-13" d="M117.224,87.048v.377l-.905.9h-1.337l-.975-.97c-.575,0-.992-.017-.94-.069s.014-.155-.046-.284h-1.937v-.761l-2.9,2.9.666.665v.729l-.658.659h-2.079v.753h2.264l3.714-3.71h1.437s.692.893.539,1.051a33.063,33.063,0,0,0,3.921,0l2.9-2.894V85.63h-2.245Z"/>
        <polygon class="cls-13" points="60.279 104.664 60.279 105.461 61.158 105.461 61.158 105.365 60.454 104.664 60.279 104.664"/>
        <path class="cls-13" d="M74.928,80.961l.852.848h1.456l.645-.643-1.306-1.309C76.011,80.2,75.473,80.588,74.928,80.961Z"/>
        <path class="cls-13" d="M116.94,146.687l-1.159-1.158v-.754a38.681,38.681,0,0,1-37.187,1.3l-.958.957a38.752,38.752,0,0,0,39.3-.349Z"/>
        <polygon class="cls-13" points="123.103 95.633 123.005 95.732 122.972 96.652 123.965 97.635 123.965 97.633 130.393 97.633 130.393 96.666 129.363 95.633 123.103 95.633"/>
        <polygon class="cls-13" points="78.733 88.935 78.849 88.82 78.849 88.05 78.567 87.768 78.567 88.769 78.733 88.935"/>
        <polygon class="cls-13" points="106.113 94.203 102.565 94.203 102.565 97.613 103.351 98.401 103.565 98.401 103.565 96.203 107.113 96.203 107.113 93.067 106.113 93.067 106.113 94.203"/>
        <path class="cls-13" d="M80.993,79.965l.5-.5-1.484-1.484c-.225.109-.455.209-.678.322Z"/>
        <polygon class="cls-13" points="81.057 124.537 81.057 125.538 82.523 127.002 85.924 127.002 85.924 125.002 81.523 125.002 81.057 124.537"/>
        <polygon class="cls-13" points="127.945 105.964 127.945 109.894 128.945 110.894 128.945 105.964 127.945 105.964"/>
        <path class="cls-13" d="M134.661,105.629l-.136-.136-.5.5,1.634,1.636c-.108-.753-.2-1.513-.346-2.254l-.336-.338-.351.353Z"/>
        <polygon class="cls-13" points="117.336 96.193 117.336 96.525 117.668 96.525 117.336 96.193"/>
      </g>
    </g>
  </g>
</svg>
