<svg xmlns="http://www.w3.org/2000/svg" xmlns:xlink="http://www.w3.org/1999/xlink" width="192" height="192" viewBox="0 0 192 192">
  <defs>
    <style>
      .cls-1 {
        fill: none;
      }

      .cls-2 {
        opacity: 0.01;
      }

      .cls-2, .cls-3, .cls-4, .cls-5 {
        isolation: isolate;
      }

      .cls-3 {
        opacity: 0.02;
      }

      .cls-4 {
        opacity: 0.04;
      }

      .cls-5 {
        opacity: 0.06;
      }

      .cls-6 {
        fill: #ffa300;
      }

      .cls-7 {
        fill: url(#未命名的渐变_6);
      }

      .cls-8 {
        fill: #ffc200;
      }

      .cls-9 {
        fill: #ffd522;
      }

      .cls-10 {
        fill: url(#未命名的渐变_5);
      }

      .cls-11 {
        fill: url(#未命名的渐变_3);
      }

      .cls-12 {
        fill: url(#未命名的渐变_4);
      }

      .cls-13 {
        fill: #e58d00;
      }
    </style>
    <linearGradient id="未命名的渐变_6" data-name="未命名的渐变 6" x1="100.5" y1="-174" x2="100.5" y2="-130" gradientTransform="matrix(1, 0, 0, -1, 0, -124)" gradientUnits="userSpaceOnUse">
      <stop offset="0" stop-color="#b96400" stop-opacity="0.4"/>
      <stop offset="0.225" stop-color="#d17e00" stop-opacity="0.265"/>
      <stop offset="0.527" stop-color="#ea9900" stop-opacity="0.12"/>
      <stop offset="0.795" stop-color="#faaa00" stop-opacity="0.031"/>
      <stop offset="1" stop-color="#ffb000" stop-opacity="0"/>
    </linearGradient>
    <linearGradient id="未命名的渐变_5" data-name="未命名的渐变 5" x1="166.012" y1="802.012" x2="25.988" y2="661.988" gradientTransform="translate(0 -636)" gradientUnits="userSpaceOnUse">
      <stop offset="0" stop-opacity="0.1"/>
      <stop offset="0.5" stop-color="gray" stop-opacity="0.05"/>
      <stop offset="1" stop-color="#fff" stop-opacity="0.12"/>
    </linearGradient>
    <linearGradient id="未命名的渐变_3" data-name="未命名的渐变 3" x1="166.013" y1="754.012" x2="25.987" y2="613.988" gradientTransform="translate(0 -588)" gradientUnits="userSpaceOnUse">
      <stop offset="0" stop-opacity="0.04"/>
      <stop offset="0.5" stop-color="gray" stop-opacity="0"/>
      <stop offset="1" stop-color="#fff" stop-opacity="0.1"/>
    </linearGradient>
    <linearGradient id="未命名的渐变_4" data-name="未命名的渐变 4" x1="130.719" y1="154.655" x2="60.969" y2="84.905" gradientUnits="userSpaceOnUse">
      <stop offset="0" stop-color="#f0a000"/>
      <stop offset="1" stop-color="#e59500"/>
    </linearGradient>
  </defs>
  <title>folder_social</title>
  <g id="图层_2" data-name="图层 2">
    <g id="图层_1-2" data-name="图层 1">
      <rect class="cls-1" width="192" height="192"/>
      <g>
        <path class="cls-2" d="M96,190C27.3,190,3,165.7,3,97S27.3,4,96,4s93,24.3,93,93S164.7,190,96,190Z"/>
        <path class="cls-3" d="M96,189C28.1,189,4,164.9,4,97S28.1,5,96,5s92,24.1,92,92S163.9,189,96,189Z"/>
        <path class="cls-4" d="M96,188C28.8,188,5,164.2,5,97S28.8,6,96,6s91,23.8,91,91S163.2,188,96,188Z"/>
        <path class="cls-5" d="M186,97c0,66.7-23.3,90-90,90S6,163.7,6,97,29.3,7,96,7,186,30.3,186,97Z"/>
      </g>
      <path class="cls-6" d="M186,96c0,66.7-23.3,90-90,90S6,162.7,6,96,29.3,6,96,6,186,29.3,186,96Z"/>
      <path class="cls-7" d="M71.2,38c5.8,7.7,8.6,10.8,9.6,11.7a1.135,1.135,0,0,0,.8.3h98.6C169.7,18.1,144.2,6,96,6,58.3,6,34.4,13.5,20.8,32H59.2A14.255,14.255,0,0,1,71.2,38Z"/>
      <path class="cls-8" d="M6,96c0,66.7,23.3,90,90,90s90-23.3,90-90c0-18.5-1.8-33.7-5.8-46H81.6a1.135,1.135,0,0,1-.8-.3A120.582,120.582,0,0,1,71.2,38a14.734,14.734,0,0,0-11.9-6H20.9C10.4,46.2,6,67,6,96Z"/>
      <path class="cls-9" d="M7,98c0-29,4.4-49.8,14.9-64H60.3a14.2,14.2,0,0,1,11.9,6c5.8,7.7,8.6,10.8,9.6,11.7a1.135,1.135,0,0,0,.8.3h98.2c-.2-.7-.4-1.3-.6-2H81.6a1.135,1.135,0,0,1-.8-.3A120.582,120.582,0,0,1,71.2,38a14.734,14.734,0,0,0-11.9-6H20.9C10.4,46.2,6,67,6,96c0,24.3,3.1,42.9,10.3,56.6C9.8,139.1,7,121.2,7,98Z"/>
      <path class="cls-10" d="M186,96c0,66.7-23.3,90-90,90S6,162.7,6,96,29.3,6,96,6,186,29.3,186,96Z"/>
      <path class="cls-11" d="M96,6C29.3,6,6,29.3,6,96s23.3,90,90,90,90-23.3,90-90S162.7,6,96,6Zm68.6,158.6C151.2,178,130,184,96,184s-55.2-6-68.6-19.4S8,130,8,96s6-55.2,19.4-68.6S62,8,96,8s55.2,6,68.6,19.4S184,62,184,96,178,151.2,164.6,164.6Z"/>
      <path class="cls-9" d="M128.281,139.938a10.693,10.693,0,0,0-2.884-2.206,80.674,80.674,0,0,0-10.685-5.206,13.377,13.377,0,0,1-7.054-6.987,10.094,10.094,0,0,1-1.036-4.7c.057-.941.829-1.374,1.372-2.055a13.236,13.236,0,0,0,1.468-2.315c1.2-2.338,1.593-4.859,2.508-7.276,1.409,1.723,2.319-1.813,2.572-2.7.573-2.016,2.737-7.49.762-8.125a.675.675,0,0,0-.745.234c.037-.48.593-3.262.922-5.052a16.188,16.188,0,0,0,.285-2.871c0-.461.02-.924.037-1.386,0-.088-.786-5.631-1.757-7.748a9.9,9.9,0,0,0-3.64-4.658,30.934,30.934,0,0,0-6.222-2.311c-3.226-1.024-6.6-2.445-10.053-2.157-1.622.137-2.954.9-4.5,1.293-.99.252-1.982-.088-2.978.109a2.751,2.751,0,0,0-1.907,1.743c-.23.43-.209.933-.429,1.357-.283.548-1.041.417-1.539.524-1.383.294-1.948,1.53-2.577,2.654-1.358,2.446-2.138,8.532-2.131,8.678.032.5.011,2.927.062,3.638a19.278,19.278,0,0,0,1.011,6.136c-1.9-.342-1.08,3.21-.872,4.03.253.989,1.506,8.382,3.177,6.808a53.373,53.373,0,0,0,2.076,6.369,12.472,12.472,0,0,0,2.568,3.858c1.228,1.182.385,3.415.037,4.841a11.158,11.158,0,0,1-3,5.339c-1.961,1.921-4.5,2.736-6.94,3.821a49.919,49.919,0,0,0-9.515,5.007c-.686.5-1.513,3.173-1.214,3.377a29.468,29.468,0,0,0,4.171,2.408c6.875,3.278,14.7,4.236,22.234,4.546,8.514.343,17.336.111,25.618-2.079a36.508,36.508,0,0,0,9.147-3.684c.628-.368,1.248-.76,1.847-1.175C128.77,141.82,128.689,140.384,128.281,139.938Zm20.594-.274c-.448.31-.91.6-1.379.877a27.225,27.225,0,0,1-6.832,2.751,47.556,47.556,0,0,1-7.213,1.288,6.4,6.4,0,0,0,.723-2.353,8.088,8.088,0,0,0-1.8-6.061,16.375,16.375,0,0,0-4.271-3.3,86.3,86.3,0,0,0-11.138-5.429,8.933,8.933,0,0,0,.279-.886c.261-1.065.89-2.732-.027-3.615a9.3,9.3,0,0,1-1.918-2.881,14.724,14.724,0,0,1-.615-1.619,28.715,28.715,0,0,0,1.556-4.265c2.389-1.649,3.268-4.776,3.624-6.041l.032-.112c.075-.266.185-.6.308-.984.759-2.362,2.446-7.606.494-11.1.092-.486.182-.963.261-1.395a21.483,21.483,0,0,0,.374-3.815c0-.406.017-.814.032-1.2a10.093,10.093,0,0,0-.105-1.329,7.518,7.518,0,0,1,1.957-.5c2.576-.216,5.1.846,7.507,1.61a23.078,23.078,0,0,1,4.647,1.727,7.4,7.4,0,0,1,2.718,3.478,30.027,30.027,0,0,1,1.312,5.786c-.013.345-.025.691-.027,1.035a12.145,12.145,0,0,1-.213,2.144c-.246,1.337-.661,3.414-.689,3.773a.5.5,0,0,1,.556-.175c1.475.474-.14,4.562-.569,6.068-.189.662-.868,3.3-1.92,2.016a49.47,49.47,0,0,1-1.874,5.434,9.856,9.856,0,0,1-1.095,1.729c-.406.508-.983.831-1.025,1.534a7.535,7.535,0,0,0,.774,3.51,9.984,9.984,0,0,0,5.268,5.218,60.307,60.307,0,0,1,7.979,3.888,7.984,7.984,0,0,1,2.153,1.647C149.026,138.445,149.086,139.517,148.875,139.664Zm-89.036,2.22a5.983,5.983,0,0,0,.665,2.668,36.786,36.786,0,0,1-12.282-3.1,22.027,22.027,0,0,1-3.115-1.8c-.223-.152.394-2.145.907-2.522a37.164,37.164,0,0,1,7.106-3.739c1.822-.811,3.717-1.419,5.182-2.854a8.317,8.317,0,0,0,2.237-3.987c.26-1.065.89-2.732-.027-3.615a9.3,9.3,0,0,1-1.918-2.881,39.833,39.833,0,0,1-1.55-4.757c-1.248,1.176-2.184-4.345-2.373-5.084-.155-.612-.765-3.264.652-3.009a14.4,14.4,0,0,1-.756-4.582c-.038-.531-.022-2.347-.046-2.717-.005-.109.577-4.655,1.591-6.481.47-.839.892-1.763,1.925-1.982.371-.08.938.018,1.149-.392.164-.316.149-.692.321-1.012.336-.634.667-1.154,1.424-1.3s1.484.106,2.224-.082a20.643,20.643,0,0,1,3.356-.965A15.2,15.2,0,0,1,72.519,88.8c-.005.117-.007.214,0,.28.01.226.01.689.014,1.2.006,1.057.013,1.782.04,2.309a24.574,24.574,0,0,0,.409,4.3c-.8,1.851-.83,4.177-.1,7.043.026.108.06.273.1.48.632,3.005,1.49,7.087,3.925,9.259a30.318,30.318,0,0,0,1.567,4.413c.089.194.184.374.275.561a12.886,12.886,0,0,1-.783,1.942,9.914,9.914,0,0,1-1.095,1.729c-.406.508-.983.831-1.025,1.534a7.523,7.523,0,0,0,.774,3.51l.009.018c-.382.17-.783.339-1.2.515-.5.209-.993.419-1.482.636l-.583.259a51.421,51.421,0,0,0-9.974,5.352C60.818,136.026,59.809,140.115,59.839,141.884Z"/>
      <path class="cls-12" d="M127.225,137.826a10.724,10.724,0,0,0-2.883-2.206,80.605,80.605,0,0,0-10.685-5.205,13.371,13.371,0,0,1-7.054-6.987,10.089,10.089,0,0,1-1.037-4.7c.057-.941.829-1.374,1.373-2.054a13.327,13.327,0,0,0,1.467-2.315c1.2-2.338,1.593-4.859,2.508-7.276,1.409,1.722,2.319-1.814,2.572-2.7.574-2.016,2.737-7.491.762-8.126a.674.674,0,0,0-.744.234c.037-.48.592-3.261.921-5.052a16.169,16.169,0,0,0,.285-2.871c0-.461.02-.923.037-1.386,0-.088-.786-5.631-1.757-7.747a9.894,9.894,0,0,0-3.64-4.658,30.877,30.877,0,0,0-6.222-2.312c-3.226-1.024-6.6-2.445-10.053-2.157-1.622.138-2.954.905-4.5,1.293-.99.252-1.982-.088-2.978.109-1.013.2-1.456.9-1.907,1.744-.23.429-.209.932-.429,1.356-.283.549-1.041.417-1.539.524-1.383.294-1.947,1.531-2.577,2.655-1.358,2.445-2.138,8.531-2.131,8.677.032.5.011,2.928.062,3.638a19.251,19.251,0,0,0,1.012,6.136c-1.9-.341-1.081,3.211-.873,4.03.253.989,1.506,8.382,3.177,6.808a53.447,53.447,0,0,0,2.076,6.37,12.484,12.484,0,0,0,2.568,3.858c1.228,1.182.385,3.414.037,4.841a11.158,11.158,0,0,1-3,5.339c-1.961,1.921-4.5,2.735-6.94,3.82a49.948,49.948,0,0,0-9.515,5.007c-.686.5-1.512,3.173-1.213,3.377a29.408,29.408,0,0,0,4.17,2.409c6.875,3.277,14.7,4.236,22.234,4.545,8.514.343,17.336.111,25.618-2.079a36.493,36.493,0,0,0,9.147-3.684c.628-.367,1.248-.76,1.848-1.175C127.714,139.708,127.633,138.273,127.225,137.826Zm20.594-.274c-.448.31-.91.6-1.379.878a27.268,27.268,0,0,1-6.831,2.75,47.467,47.467,0,0,1-7.214,1.288,6.391,6.391,0,0,0,.723-2.353,8.088,8.088,0,0,0-1.8-6.061,16.359,16.359,0,0,0-4.271-3.3,86.3,86.3,0,0,0-11.138-5.429,9,9,0,0,0,.28-.885c.26-1.066.889-2.733-.028-3.616a9.317,9.317,0,0,1-1.918-2.88,14.817,14.817,0,0,1-.615-1.62,28.676,28.676,0,0,0,1.557-4.264c2.388-1.65,3.267-4.777,3.623-6.042l.032-.111c.076-.267.185-.6.308-.985.759-2.362,2.446-7.606.494-11.1.092-.486.182-.962.261-1.395a21.481,21.481,0,0,0,.374-3.814c0-.407.017-.815.032-1.2a10.07,10.07,0,0,0-.105-1.328,7.48,7.48,0,0,1,1.957-.5c2.576-.215,5.1.846,7.507,1.611a23.053,23.053,0,0,1,4.647,1.726,7.388,7.388,0,0,1,2.718,3.479,30.005,30.005,0,0,1,1.312,5.785c-.013.346-.025.691-.027,1.035a12.145,12.145,0,0,1-.213,2.144c-.246,1.337-.661,3.414-.688,3.773a.5.5,0,0,1,.555-.175c1.476.475-.14,4.563-.568,6.068-.19.662-.869,3.3-1.921,2.017a49.731,49.731,0,0,1-1.873,5.433,9.92,9.92,0,0,1-1.1,1.729c-.406.509-.983.832-1.025,1.535a7.538,7.538,0,0,0,.774,3.51,9.994,9.994,0,0,0,5.268,5.218,60.118,60.118,0,0,1,7.979,3.887A8,8,0,0,1,147.665,136C147.97,136.333,148.031,137.405,147.819,137.552Zm-89.036,2.22a6,6,0,0,0,.665,2.669,36.834,36.834,0,0,1-12.282-3.1,21.966,21.966,0,0,1-3.114-1.8c-.224-.152.394-2.145.906-2.522a37.277,37.277,0,0,1,7.106-3.739c1.822-.81,3.717-1.419,5.182-2.853a8.321,8.321,0,0,0,2.237-3.987c.261-1.066.89-2.733-.027-3.616a9.3,9.3,0,0,1-1.918-2.88,39.951,39.951,0,0,1-1.55-4.757c-1.248,1.175-2.184-4.346-2.373-5.084-.155-.613-.764-3.265.652-3.01a14.4,14.4,0,0,1-.756-4.582c-.038-.531-.022-2.346-.046-2.717-.005-.109.577-4.654,1.591-6.48.471-.84.892-1.763,1.925-1.983.372-.08.938.019,1.149-.391.165-.317.149-.692.321-1.013a2.055,2.055,0,0,1,1.424-1.3c.744-.147,1.484.107,2.224-.081a20.646,20.646,0,0,1,3.356-.966,15.221,15.221,0,0,1,6.008,1.115c0,.118-.007.214,0,.28.009.226.009.689.013,1.2.006,1.058.013,1.783.04,2.309a24.565,24.565,0,0,0,.409,4.3c-.8,1.852-.83,4.177-.105,7.043.026.108.06.273.1.48.632,3,1.49,7.087,3.925,9.259a30.235,30.235,0,0,0,1.567,4.413c.09.2.184.374.276.562a12.986,12.986,0,0,1-.784,1.941,9.856,9.856,0,0,1-1.095,1.729c-.406.509-.983.832-1.025,1.535a7.538,7.538,0,0,0,.774,3.51l.009.018c-.382.169-.783.339-1.2.514-.5.21-.994.419-1.483.637l-.583.258a51.481,51.481,0,0,0-9.974,5.353C59.762,133.914,58.753,138,58.783,139.772Z"/>
      <g>
        <path class="cls-13" d="M138.477,107.222q.036-.206.06-.4C138.506,107,138.484,107.146,138.477,107.222Z"/>
        <path class="cls-13" d="M114.861,96.835c-.16.853-.285,1.55-.3,1.767a.713.713,0,0,1,.482-.26A3.148,3.148,0,0,0,114.861,96.835Z"/>
        <path class="cls-13" d="M115.187,112.059a28.676,28.676,0,0,1-1.557,4.264,14.817,14.817,0,0,0,.615,1.62,12.62,12.62,0,0,0,.794,1.479q-.191-.49-.353-.987a28.839,28.839,0,0,0,1.557-4.265c2.388-1.649,3.267-4.776,3.623-6.041l.032-.112c.075-.266.185-.6.308-.984.759-2.362,2.446-7.606.494-11.1.092-.486.182-.963.261-1.395a21.483,21.483,0,0,0,.374-3.815c0-.406.017-.814.032-1.2a10.082,10.082,0,0,0-.105-1.329,7.518,7.518,0,0,1,1.957-.5c2.576-.216,5.1.846,7.507,1.61a23.136,23.136,0,0,1,4.647,1.726,5.66,5.66,0,0,1,1.866,1.893c-.067-.193-.134-.374-.2-.525a7.388,7.388,0,0,0-2.718-3.479,23.053,23.053,0,0,0-4.647-1.726c-2.409-.765-4.931-1.826-7.507-1.611a7.48,7.48,0,0,0-1.957.5,10.07,10.07,0,0,1,.105,1.328c-.014.386-.029.794-.032,1.2a21.481,21.481,0,0,1-.374,3.814c-.079.433-.169.909-.261,1.395,1.952,3.5.265,8.739-.494,11.1-.123.382-.232.718-.308.985l-.032.111C118.454,107.282,117.575,110.409,115.187,112.059Z"/>
        <path class="cls-13" d="M107.381,124.865c.09.227.176.46.277.674a13.377,13.377,0,0,0,7.054,6.987,80.674,80.674,0,0,1,10.685,5.206,10.781,10.781,0,0,1,2.2,1.533,2.427,2.427,0,0,0-.372-1.439,10.724,10.724,0,0,0-2.883-2.206,80.605,80.605,0,0,0-10.685-5.205A12.869,12.869,0,0,1,107.381,124.865Z"/>
        <path class="cls-13" d="M132.985,126.544a8.5,8.5,0,0,0,.336.814,9.984,9.984,0,0,0,5.268,5.218,60.307,60.307,0,0,1,7.979,3.888,8.051,8.051,0,0,1,1.34.907,1.941,1.941,0,0,0-.243-1.372,8,8,0,0,0-2.153-1.647,60.118,60.118,0,0,0-7.979-3.887A9.539,9.539,0,0,1,132.985,126.544Z"/>
        <path class="cls-13" d="M77.22,100.469c.2.786,1.036,5.608,2.209,6.765-.605-1.83-1.019-4.131-1.153-4.653-.208-.82-1.024-4.372.872-4.03a19.278,19.278,0,0,1-1.011-6.136c-.051-.711-.03-3.142-.062-3.638-.007-.146.773-6.232,2.131-8.678.629-1.124,1.194-2.36,2.577-2.654.5-.107,1.256.024,1.539-.524.22-.424.2-.927.429-1.357a2.751,2.751,0,0,1,1.907-1.743c1-.2,1.988.143,2.978-.109,1.541-.389,2.873-1.156,4.5-1.293,3.449-.288,6.827,1.133,10.053,2.157a30.934,30.934,0,0,1,6.222,2.311,7.956,7.956,0,0,1,2.741,2.926c-.052-.134-.1-.264-.157-.379a9.894,9.894,0,0,0-3.64-4.658,30.877,30.877,0,0,0-6.222-2.312c-3.226-1.024-6.6-2.445-10.053-2.157-1.622.138-2.954.905-4.5,1.293-.99.252-1.982-.088-2.978.109-1.013.2-1.456.9-1.907,1.744-.23.429-.209.932-.429,1.356-.283.549-1.041.417-1.539.524-1.383.294-1.947,1.531-2.577,2.655-1.358,2.445-2.138,8.531-2.131,8.677.032.5.011,2.928.062,3.638a19.251,19.251,0,0,0,1.012,6.136C76.2,96.1,77.012,99.65,77.22,100.469Z"/>
        <path class="cls-13" d="M116.632,122.292a11.562,11.562,0,0,1-.441,2.147,9,9,0,0,1-.28.885c.5.2,1,.42,1.492.631.274-1.02.576-2.288-.184-3.02A6.62,6.62,0,0,1,116.632,122.292Z"/>
        <path class="cls-13" d="M46.014,137.13a37.164,37.164,0,0,1,7.106-3.739c1.822-.811,3.717-1.419,5.182-2.854a8.325,8.325,0,0,0,2.237-3.987c.26-1.065.89-2.732-.027-3.615a6.62,6.62,0,0,1-.587-.643,11.479,11.479,0,0,1-.442,2.147,8.326,8.326,0,0,1-2.237,3.987c-1.465,1.434-3.36,2.043-5.182,2.853a37.277,37.277,0,0,0-7.106,3.739c-.512.377-1.13,2.37-.906,2.522.414.288.845.553,1.279.811A3.019,3.019,0,0,1,46.014,137.13Z"/>
        <path class="cls-13" d="M66.683,138.624a49.919,49.919,0,0,1,9.515-5.007c2.44-1.085,4.979-1.9,6.94-3.821a11.158,11.158,0,0,0,3-5.339c.348-1.426,1.191-3.659-.037-4.841-.149-.142-.277-.3-.415-.454a12.758,12.758,0,0,1-.6,3.184,11.163,11.163,0,0,1-3,5.339c-1.961,1.921-4.5,2.735-6.939,3.82a49.927,49.927,0,0,0-9.516,5.007c-.686.5-1.512,3.173-1.213,3.377.395.275.812.52,1.221.774A4.811,4.811,0,0,1,66.683,138.624Z"/>
        <path class="cls-13" d="M132.4,142.468q.889-.093,1.774-.215l0-.026a8.375,8.375,0,0,0-1.384-5.519,9.061,9.061,0,0,1,.328,3.407A6.391,6.391,0,0,1,132.4,142.468Z"/>
        <path class="cls-13" d="M56.647,115.446a17.794,17.794,0,0,0,.891,2.5,12.327,12.327,0,0,0,.816,1.517c-.543-1.359-.864-2.765-1.31-4.163A.471.471,0,0,1,56.647,115.446Z"/>
        <path class="cls-13" d="M81.075,109.584a27.211,27.211,0,0,0,1.4,4.063,17.674,17.674,0,0,0,.869,1.649c-.815-1.922-1.256-3.921-1.889-5.907A.715.715,0,0,1,81.075,109.584Z"/>
        <path class="cls-13" d="M76.288,113.015c-.158-.5-.308-.987-.443-1.458a7.844,7.844,0,0,1-1.367-1.669A10.863,10.863,0,0,0,76.288,113.015Z"/>
        <path class="cls-13" d="M53.615,108.1c.158.616.837,4.55,1.782,5.156-.378-1.275-.636-2.695-.726-3.045-.155-.612-.765-3.264.652-3.009a14.4,14.4,0,0,1-.756-4.582c-.038-.531-.022-2.347-.046-2.717-.005-.109.577-4.655,1.591-6.481.47-.839.892-1.763,1.925-1.982.371-.08.938.018,1.149-.392.164-.316.149-.692.321-1.012.336-.634.667-1.154,1.424-1.3s1.484.106,2.224-.082a20.643,20.643,0,0,1,3.356-.965,12.99,12.99,0,0,1,4.964.776c0-.1,0-.19,0-.3,0-.507,0-.97-.013-1.2,0-.066,0-.162,0-.28a15.221,15.221,0,0,0-6.008-1.115,20.646,20.646,0,0,0-3.356.966c-.74.188-1.48-.066-2.224.081a2.055,2.055,0,0,0-1.424,1.3c-.172.321-.156.7-.321,1.013-.211.41-.777.311-1.149.391-1.033.22-1.454,1.143-1.925,1.983-1.014,1.826-1.6,6.371-1.591,6.48.024.371.008,2.186.046,2.717a14.4,14.4,0,0,0,.756,4.582C52.851,104.837,53.46,107.489,53.615,108.1Z"/>
      </g>
    </g>
  </g>
</svg>
