<?xml version="1.0" encoding="UTF-8" standalone="no"?>
<svg
   xmlns:dc="http://purl.org/dc/elements/1.1/"
   xmlns:cc="http://creativecommons.org/ns#"
   xmlns:rdf="http://www.w3.org/1999/02/22-rdf-syntax-ns#"
   xmlns:svg="http://www.w3.org/2000/svg"
   xmlns="http://www.w3.org/2000/svg"
   xmlns:sodipodi="http://sodipodi.sourceforge.net/DTD/sodipodi-0.dtd"
   xmlns:inkscape="http://www.inkscape.org/namespaces/inkscape"
   viewBox="0 0 133.33333 133.33333"
   height="133.33333"
   width="133.33333"
   xml:space="preserve"
   id="svg2"
   version="1.1"
   sodipodi:docname="icon-launcher-settings.svg"
   inkscape:version="0.92.2 2405546, 2018-03-11"><sodipodi:namedview
     pagecolor="#ffffff"
     bordercolor="#666666"
     borderopacity="1"
     objecttolerance="10"
     gridtolerance="10"
     guidetolerance="10"
     inkscape:pageopacity="0"
     inkscape:pageshadow="2"
     inkscape:window-width="1366"
     inkscape:window-height="717"
     id="namedview111"
     showgrid="false"
     inkscape:zoom="1.7700001"
     inkscape:cx="66.666664"
     inkscape:cy="66.666664"
     inkscape:window-x="0"
     inkscape:window-y="25"
     inkscape:window-maximized="1"
     inkscape:current-layer="svg2" /><metadata
     id="metadata8"><rdf:RDF><cc:Work
         rdf:about=""><dc:format>image/svg+xml</dc:format><dc:type
           rdf:resource="http://purl.org/dc/dcmitype/StillImage" /></cc:Work></rdf:RDF></metadata><defs
     id="defs6"><clipPath
       id="clipPath18"
       clipPathUnits="userSpaceOnUse"><path
         id="path16"
         d="M 50,100 C 12.956,100 0,87.039 0,50 v 0 C 0,12.961 12.956,0 50,0 v 0 c 37.045,0 50,12.961 50,50 v 0 c 0,37.044 -12.955,50 -50,50 z" /></clipPath><linearGradient
       id="linearGradient32"
       spreadMethod="pad"
       gradientTransform="matrix(77.78125,-77.78125,-77.78125,-77.78125,11.109896,88.891144)"
       gradientUnits="userSpaceOnUse"
       y2="0"
       x2="1"
       y1="0"
       x1="0"><stop
         id="stop24"
         offset="0"
         style="stop-opacity:1;stop-color:#f2d351" /><stop
         id="stop26"
         offset="0.14086381"
         style="stop-opacity:1;stop-color:#f2d351" /><stop
         id="stop28"
         offset="0.999999"
         style="stop-opacity:1;stop-color:#f09c5b" /><stop
         id="stop30"
         offset="1"
         style="stop-opacity:1;stop-color:#f09c5b" /></linearGradient><clipPath
       id="clipPath42"
       clipPathUnits="userSpaceOnUse"><path
         id="path40"
         d="M 0,100 H 100 V 0 H 0 Z" /></clipPath><clipPath
       id="clipPath50"
       clipPathUnits="userSpaceOnUse"><path
         id="path48"
         d="M 15.2419,84.7581 H 84.7581 V 15.2419 H 15.2419 Z" /></clipPath><clipPath
       id="clipPath66"
       clipPathUnits="userSpaceOnUse"><path
         id="path64"
         d="m 31.997,18.842 c -1.134,1.162 -1.524,2.922 -0.877,4.498 v 0 l 0.49,1.18 c 0.66,1.58 0.28,3.421 -0.98,4.591 v 0 C 30.1,29.599 29.59,30.11 29.1,30.65 v 0 c -1.169,1.25 -3,1.61 -4.58,0.961 v 0 L 23.34,31.12 c -1.6,-0.66 -3.38,-0.24 -4.54,0.92 v 0 z m 0.073,-0.072 -0.073,0.072 c 0.024,-0.024 0.048,-0.049 0.073,-0.072" /></clipPath><clipPath
       id="clipPath74"
       clipPathUnits="userSpaceOnUse"><path
         id="path72"
         d="M -32768,32767 H 32767 V -32768 H -32768 Z" /></clipPath><linearGradient
       id="linearGradient84"
       spreadMethod="pad"
       gradientTransform="matrix(13.27002,-13.27002,-13.27002,-13.27002,21.028139,34.268189)"
       gradientUnits="userSpaceOnUse"
       y2="0"
       x2="1"
       y1="0"
       x1="0"><stop
         id="stop76"
         offset="0"
         style="stop-opacity:0.11999695;stop-color:#ffffff" /><stop
         id="stop78"
         offset="0.11533982"
         style="stop-opacity:0.11999695;stop-color:#ffffff" /><stop
         id="stop80"
         offset="0.818803"
         style="stop-opacity:0;stop-color:#ffffff" /><stop
         id="stop82"
         offset="1"
         style="stop-opacity:0;stop-color:#ffffff" /></linearGradient><mask
       id="mask86"
       height="1"
       width="1"
       y="0"
       x="0"
       maskUnits="userSpaceOnUse"><g
         id="g96"><g
           id="g94"
           clip-path="url(#clipPath74)"><g
             id="g92"><g
               id="g90"><path
                 id="path88"
                 style="fill:url(#linearGradient84);stroke:none"
                 d="M -32768,32767 H 32767 V -32768 H -32768 Z" /></g></g></g></g></mask><linearGradient
       id="linearGradient110"
       spreadMethod="pad"
       gradientTransform="matrix(13.27002,-13.27002,-13.27002,-13.27002,21.028139,34.268189)"
       gradientUnits="userSpaceOnUse"
       y2="0"
       x2="1"
       y1="0"
       x1="0"><stop
         id="stop102"
         offset="0"
         style="stop-opacity:1;stop-color:#000000" /><stop
         id="stop104"
         offset="0.11533982"
         style="stop-opacity:1;stop-color:#000000" /><stop
         id="stop106"
         offset="0.818803"
         style="stop-opacity:1;stop-color:#000000" /><stop
         id="stop108"
         offset="1"
         style="stop-opacity:1;stop-color:#000000" /></linearGradient><clipPath
       id="clipPath120"
       clipPathUnits="userSpaceOnUse"><path
         id="path118"
         d="M 44.7,62.79 C 37.63,59.87 34.28,51.77 37.21,44.7 v 0 C 40.13,37.63 48.23,34.28 55.3,37.21 v 0 c 7.07,2.92 10.42,11.02 7.49,18.09 v 0 c -2.203,5.334 -7.355,8.55 -12.787,8.55 v 0 c -1.769,0 -3.567,-0.34 -5.303,-1.06" /></clipPath><clipPath
       id="clipPath128"
       clipPathUnits="userSpaceOnUse"><path
         id="path126"
         d="M -32768,32767 H 32767 V -32768 H -32768 Z" /></clipPath><linearGradient
       id="linearGradient138"
       spreadMethod="pad"
       gradientTransform="matrix(19.591255,-19.591255,-19.591255,-19.591255,40.204365,59.795639)"
       gradientUnits="userSpaceOnUse"
       y2="0"
       x2="1"
       y1="0"
       x1="0"><stop
         id="stop130"
         offset="0"
         style="stop-opacity:0.11999695;stop-color:#ffffff" /><stop
         id="stop132"
         offset="0.10233695"
         style="stop-opacity:0.11999695;stop-color:#ffffff" /><stop
         id="stop134"
         offset="0.726495"
         style="stop-opacity:0;stop-color:#ffffff" /><stop
         id="stop136"
         offset="1"
         style="stop-opacity:0;stop-color:#ffffff" /></linearGradient><mask
       id="mask140"
       height="1"
       width="1"
       y="0"
       x="0"
       maskUnits="userSpaceOnUse"><g
         id="g150"><g
           id="g148"
           clip-path="url(#clipPath128)"><g
             id="g146"><g
               id="g144"><path
                 id="path142"
                 style="fill:url(#linearGradient138);stroke:none"
                 d="M -32768,32767 H 32767 V -32768 H -32768 Z" /></g></g></g></g></mask><linearGradient
       id="linearGradient164"
       spreadMethod="pad"
       gradientTransform="matrix(19.591255,-19.591255,-19.591255,-19.591255,40.204365,59.795639)"
       gradientUnits="userSpaceOnUse"
       y2="0"
       x2="1"
       y1="0"
       x1="0"><stop
         id="stop156"
         offset="0"
         style="stop-opacity:1;stop-color:#000000" /><stop
         id="stop158"
         offset="0.10233695"
         style="stop-opacity:1;stop-color:#000000" /><stop
         id="stop160"
         offset="0.726495"
         style="stop-opacity:1;stop-color:#000000" /><stop
         id="stop162"
         offset="1"
         style="stop-opacity:1;stop-color:#000000" /></linearGradient><clipPath
       id="clipPath174"
       clipPathUnits="userSpaceOnUse"><path
         id="path172"
         d="m 82.08,66.63 2.361,-5.71 C 85.32,58.8 84.309,56.38 82.201,55.5 v 0 L 81.02,55.01 C 79.45,54.36 78.401,52.799 78.47,51.1 v 0 c 0.03,-0.73 0.02,-1.46 0,-2.181 v 0 C 78.401,47.21 79.44,45.64 81.02,44.99 v 0 l 1.181,-0.49 c 2.108,-0.88 3.119,-3.3 2.24,-5.42 v 0 L 82.08,33.37 C 81.2,31.25 78.77,30.25 76.66,31.12 v 0 l -1.18,0.491 C 73.901,32.27 72.059,31.89 70.889,30.63 v 0 c -0.488,-0.53 -1,-1.04 -1.539,-1.53 v 0 c -1.251,-1.17 -1.61,-3 -0.961,-4.58 v 0 l 0.491,-1.18 c 0.87,-2.11 -0.13,-4.54 -2.25,-5.42 v 0 L 60.92,15.559 C 58.8,14.68 56.38,15.691 55.5,17.8 v 0 l -0.49,1.18 c -0.65,1.57 -2.211,2.62 -3.911,2.551 v 0 c -0.729,-0.031 -1.459,-0.021 -2.18,0 v 0 C 47.21,21.6 45.64,20.56 44.99,18.98 v 0 L 44.5,17.8 c -0.88,-2.109 -3.3,-3.12 -5.42,-2.241 v 0 l -5.71,2.361 c -0.5,0.21 -0.939,0.5 -1.3,0.85 v 0 L 50.83,0.01 c 36.12,0.2 48.96,13.05 49.16,49.16 v 0 L 81.3,67.85 c 0.32,-0.35 0.589,-0.76 0.78,-1.22" /></clipPath><clipPath
       id="clipPath182"
       clipPathUnits="userSpaceOnUse"><path
         id="path180"
         d="M -32768,32767 H 32767 V -32768 H -32768 Z" /></clipPath><linearGradient
       id="linearGradient192"
       spreadMethod="pad"
       gradientTransform="matrix(32.228123,-32.228123,-32.228123,-32.228123,56.650009,43.350021)"
       gradientUnits="userSpaceOnUse"
       y2="0"
       x2="1"
       y1="0"
       x1="0"><stop
         id="stop184"
         offset="0"
         style="stop-opacity:0.07998779;stop-color:#ffffff" /><stop
         id="stop186"
         offset="0.11533982"
         style="stop-opacity:0.07998779;stop-color:#ffffff" /><stop
         id="stop188"
         offset="0.818803"
         style="stop-opacity:0;stop-color:#ffffff" /><stop
         id="stop190"
         offset="1"
         style="stop-opacity:0;stop-color:#ffffff" /></linearGradient><mask
       id="mask194"
       height="1"
       width="1"
       y="0"
       x="0"
       maskUnits="userSpaceOnUse"><g
         id="g204"><g
           id="g202"
           clip-path="url(#clipPath182)"><g
             id="g200"><g
               id="g198"><path
                 id="path196"
                 style="fill:url(#linearGradient192);stroke:none"
                 d="M -32768,32767 H 32767 V -32768 H -32768 Z" /></g></g></g></g></mask><linearGradient
       id="linearGradient218"
       spreadMethod="pad"
       gradientTransform="matrix(32.228123,-32.228123,-32.228123,-32.228123,56.650009,43.350021)"
       gradientUnits="userSpaceOnUse"
       y2="0"
       x2="1"
       y1="0"
       x1="0"><stop
         id="stop210"
         offset="0"
         style="stop-opacity:1;stop-color:#000000" /><stop
         id="stop212"
         offset="0.11533982"
         style="stop-opacity:1;stop-color:#000000" /><stop
         id="stop214"
         offset="0.818803"
         style="stop-opacity:1;stop-color:#000000" /><stop
         id="stop216"
         offset="1"
         style="stop-opacity:1;stop-color:#000000" /></linearGradient></defs><g
     transform="matrix(1.25,0,0,-1.25,4,129.33333)"
     id="g10"><g
       id="g12"><g
         clip-path="url(#clipPath18)"
         id="g14"><g
           id="g20"><g
             id="g22"><path
               id="path34"
               style="fill:url(#linearGradient32);stroke:none"
               d="M 50,100 C 12.956,100 0,87.039 0,50 v 0 C 0,12.961 12.956,0 50,0 v 0 c 37.045,0 50,12.961 50,50 v 0 c 0,37.044 -12.955,50 -50,50 z"
               inkscape:connector-curvature="0" /></g></g></g></g><g
       id="g36"><g
         clip-path="url(#clipPath42)"
         id="g38"><g
           id="g44"><g
             id="g46" /><g
             id="g58"><g
               style="opacity:0.89999402"
               id="g56"
               clip-path="url(#clipPath50)"><g
                 id="g54"
                 transform="translate(55.2998,37.21)"><path
                   id="path52"
                   style="fill:#ffffff;fill-opacity:1;fill-rule:nonzero;stroke:none"
                   d="m 0,0 c -7.07,-2.93 -15.17,0.42 -18.09,7.49 -2.93,7.07 0.42,15.17 7.49,18.09 C -3.53,28.51 4.57,25.16 7.49,18.09 10.42,11.021 7.07,2.92 0,0 m 26.9,7.29 -1.18,0.49 c -1.579,0.65 -2.619,2.22 -2.55,3.93 0.02,0.72 0.03,1.45 0,2.18 -0.069,1.7 0.98,3.26 2.55,3.91 l 1.18,0.49 c 2.11,0.88 3.121,3.3 2.241,5.42 l -2.361,5.71 c -0.19,0.46 -0.46,0.87 -0.78,1.22 l -0.13,0.13 c -1.16,1.15 -2.92,1.55 -4.51,0.9 l -1.179,-0.49 c -1.58,-0.65 -3.41,-0.29 -4.58,0.96 -0.491,0.54 -1,1.05 -1.531,1.54 -1.259,1.17 -1.639,3.01 -0.98,4.59 l 0.49,1.18 c 0.87,2.11 -0.13,4.54 -2.25,5.42 L 5.62,47.23 C 3.5,48.11 1.08,47.1 0.2,44.99 l -0.49,-1.18 c -0.649,-1.58 -2.22,-2.62 -3.93,-2.55 -0.72,0.02 -1.45,0.03 -2.18,0 -1.7,-0.07 -3.26,0.98 -3.91,2.55 l -0.49,1.18 c -0.88,2.11 -3.3,3.12 -5.42,2.24 l -5.71,-2.36 c -2.12,-0.88 -3.12,-3.31 -2.25,-5.42 l 0.49,-1.18 c 0.65,-1.58 0.29,-3.41 -0.96,-4.58 -0.54,-0.49 -1.05,-1 -1.54,-1.53 -1.17,-1.26 -3.01,-1.64 -4.59,-0.98 l -1.18,0.49 c -2.11,0.87 -4.54,-0.13 -5.42,-2.25 l -2.36,-5.71 c -0.88,-2.12 0.13,-4.54 2.24,-5.42 l 1.18,-0.49 c 1.58,-0.65 2.62,-2.22 2.55,-3.93 -0.02,-0.72 -0.03,-1.45 0,-2.18 0.07,-1.7 -0.98,-3.26 -2.55,-3.91 L -37.5,7.29 c -2.11,-0.88 -3.12,-3.3 -2.24,-5.42 l 2.36,-5.71 c 0.21,-0.51 0.51,-0.96 0.88,-1.33 1.16,-1.16 2.94,-1.58 4.54,-0.92 l 1.18,0.49 c 1.58,0.65 3.41,0.29 4.58,-0.96 0.49,-0.54 1,-1.05 1.53,-1.54 1.26,-1.17 1.64,-3.01 0.98,-4.59 l -0.49,-1.18 c -0.66,-1.609 -0.24,-3.41 0.95,-4.57 0.36,-0.35 0.8,-0.64 1.3,-0.85 l 5.71,-2.36 c 2.12,-0.88 4.54,0.13 5.42,2.24 l 0.49,1.181 c 0.65,1.579 2.22,2.619 3.93,2.549 0.72,-0.02 1.45,-0.03 2.18,0 1.7,0.07 3.261,-0.98 3.91,-2.549 L 0.2,-19.41 c 0.88,-2.11 3.3,-3.12 5.42,-2.24 l 5.71,2.36 c 2.12,0.88 3.12,3.311 2.25,5.42 l -0.49,1.18 c -0.65,1.58 -0.29,3.41 0.96,4.58 0.54,0.49 1.051,1 1.54,1.53 1.17,1.26 3.011,1.64 4.591,0.98 l 1.179,-0.49 c 2.11,-0.87 4.54,0.13 5.42,2.25 l 2.361,5.71 C 30.021,3.99 29.01,6.41 26.9,7.29"
                   inkscape:connector-curvature="0" /></g></g></g></g></g></g><g
       id="g60"><g
         clip-path="url(#clipPath66)"
         id="g62"><g
           id="g68"><g
             id="g70" /><g
             mask="url(#mask86)"
             id="g98"><g
               id="g100"><path
                 id="path112"
                 style="fill:url(#linearGradient110);stroke:none"
                 d="m 31.997,18.842 c -1.134,1.162 -1.524,2.922 -0.877,4.498 v 0 l 0.49,1.18 c 0.66,1.58 0.28,3.421 -0.98,4.591 v 0 C 30.1,29.599 29.59,30.11 29.1,30.65 v 0 c -1.169,1.25 -3,1.61 -4.58,0.961 v 0 L 23.34,31.12 c -1.6,-0.66 -3.38,-0.24 -4.54,0.92 v 0 z m 0.073,-0.072 -0.073,0.072 c 0.024,-0.024 0.048,-0.049 0.073,-0.072"
                 inkscape:connector-curvature="0" /></g></g></g></g></g><g
       id="g114"><g
         clip-path="url(#clipPath120)"
         id="g116"><g
           id="g122"><g
             id="g124" /><g
             mask="url(#mask140)"
             id="g152"><g
               id="g154"><path
                 id="path166"
                 style="fill:url(#linearGradient164);stroke:none"
                 d="M 44.7,62.79 C 37.63,59.87 34.28,51.77 37.21,44.7 v 0 C 40.13,37.63 48.23,34.28 55.3,37.21 v 0 c 7.07,2.92 10.42,11.02 7.49,18.09 v 0 c -2.203,5.334 -7.355,8.55 -12.787,8.55 v 0 c -1.769,0 -3.567,-0.34 -5.303,-1.06"
                 inkscape:connector-curvature="0" /></g></g></g></g></g><g
       id="g168"><g
         clip-path="url(#clipPath174)"
         id="g170"><g
           id="g176"><g
             id="g178" /><g
             mask="url(#mask194)"
             id="g206"><g
               id="g208"><path
                 id="path220"
                 style="fill:url(#linearGradient218);stroke:none"
                 d="m 82.08,66.63 2.361,-5.71 C 85.32,58.8 84.309,56.38 82.201,55.5 v 0 L 81.02,55.01 C 79.45,54.36 78.401,52.799 78.47,51.1 v 0 c 0.03,-0.73 0.02,-1.46 0,-2.181 v 0 C 78.401,47.21 79.44,45.64 81.02,44.99 v 0 l 1.181,-0.49 c 2.108,-0.88 3.119,-3.3 2.24,-5.42 v 0 L 82.08,33.37 C 81.2,31.25 78.77,30.25 76.66,31.12 v 0 l -1.18,0.491 C 73.901,32.27 72.059,31.89 70.889,30.63 v 0 c -0.488,-0.53 -1,-1.04 -1.539,-1.53 v 0 c -1.251,-1.17 -1.61,-3 -0.961,-4.58 v 0 l 0.491,-1.18 c 0.87,-2.11 -0.13,-4.54 -2.25,-5.42 v 0 L 60.92,15.559 C 58.8,14.68 56.38,15.691 55.5,17.8 v 0 l -0.49,1.18 c -0.65,1.57 -2.211,2.62 -3.911,2.551 v 0 c -0.729,-0.031 -1.459,-0.021 -2.18,0 v 0 C 47.21,21.6 45.64,20.56 44.99,18.98 v 0 L 44.5,17.8 c -0.88,-2.109 -3.3,-3.12 -5.42,-2.241 v 0 l -5.71,2.361 c -0.5,0.21 -0.939,0.5 -1.3,0.85 v 0 L 50.83,0.01 c 36.12,0.2 48.96,13.05 49.16,49.16 v 0 L 81.3,67.85 c 0.32,-0.35 0.589,-0.76 0.78,-1.22"
                 inkscape:connector-curvature="0" /></g></g></g></g></g></g></svg>