<?xml version="1.0" encoding="UTF-8" standalone="no"?>
<svg
   xmlns:dc="http://purl.org/dc/elements/1.1/"
   xmlns:cc="http://creativecommons.org/ns#"
   xmlns:rdf="http://www.w3.org/1999/02/22-rdf-syntax-ns#"
   xmlns:svg="http://www.w3.org/2000/svg"
   xmlns="http://www.w3.org/2000/svg"
   xmlns:sodipodi="http://sodipodi.sourceforge.net/DTD/sodipodi-0.dtd"
   xmlns:inkscape="http://www.inkscape.org/namespaces/inkscape"
   viewBox="0 0 133.33333 133.33333"
   height="133.33333"
   width="133.33333"
   xml:space="preserve"
   id="svg2"
   version="1.1"
   sodipodi:docname="icon-launcher-calculator.svg"
   inkscape:version="0.92.2 2405546, 2018-03-11"><sodipodi:namedview
     pagecolor="#ffffff"
     bordercolor="#666666"
     borderopacity="1"
     objecttolerance="10"
     gridtolerance="10"
     guidetolerance="10"
     inkscape:pageopacity="0"
     inkscape:pageshadow="2"
     inkscape:window-width="1366"
     inkscape:window-height="717"
     id="namedview137"
     showgrid="false"
     inkscape:zoom="1.7700001"
     inkscape:cx="66.666664"
     inkscape:cy="66.666664"
     inkscape:window-x="0"
     inkscape:window-y="25"
     inkscape:window-maximized="1"
     inkscape:current-layer="svg2" /><metadata
     id="metadata8"><rdf:RDF><cc:Work
         rdf:about=""><dc:format>image/svg+xml</dc:format><dc:type
           rdf:resource="http://purl.org/dc/dcmitype/StillImage" /></cc:Work></rdf:RDF></metadata><defs
     id="defs6"><clipPath
       id="clipPath18"
       clipPathUnits="userSpaceOnUse"><path
         id="path16"
         d="M 50,100 C 12.956,100 0,87.039 0,50 v 0 C 0,12.961 12.956,0 50,0 v 0 c 37.045,0 50,12.961 50,50 v 0 c 0,37.044 -12.955,50 -50,50 z" /></clipPath><linearGradient
       id="linearGradient32"
       spreadMethod="pad"
       gradientTransform="matrix(77.78125,-77.78125,-77.78125,-77.78125,11.109896,88.891144)"
       gradientUnits="userSpaceOnUse"
       y2="0"
       x2="1"
       y1="0"
       x1="0"><stop
         id="stop24"
         offset="0"
         style="stop-opacity:1;stop-color:#76f0b6" /><stop
         id="stop26"
         offset="0.14086395"
         style="stop-opacity:1;stop-color:#76f0b6" /><stop
         id="stop28"
         offset="1"
         style="stop-opacity:1;stop-color:#c9c906" /><stop
         id="stop30"
         offset="1"
         style="stop-opacity:1;stop-color:#c9c906" /></linearGradient><clipPath
       id="clipPath42"
       clipPathUnits="userSpaceOnUse"><path
         id="path40"
         d="M 30.625,70.75 17.875,64.541 78.198,4.217 c 6.947,2.808 12.006,7.127 15.495,13.256 v 0 L 32.25,78.916 Z" /></clipPath><clipPath
       id="clipPath50"
       clipPathUnits="userSpaceOnUse"><path
         id="path48"
         d="M -32768,32767 H 32767 V -32768 H -32768 Z" /></clipPath><linearGradient
       id="linearGradient58"
       spreadMethod="pad"
       gradientTransform="matrix(62.215599,-62.215599,-62.215599,-62.215599,25.0625,71.728149)"
       gradientUnits="userSpaceOnUse"
       y2="0"
       x2="1"
       y1="0"
       x1="0"><stop
         id="stop52"
         offset="0"
         style="stop-opacity:0.07998779;stop-color:#ffffff" /><stop
         id="stop54"
         offset="0.452991"
         style="stop-opacity:0;stop-color:#ffffff" /><stop
         id="stop56"
         offset="1"
         style="stop-opacity:0;stop-color:#ffffff" /></linearGradient><mask
       id="mask60"
       height="1"
       width="1"
       y="0"
       x="0"
       maskUnits="userSpaceOnUse"><g
         id="g70"><g
           id="g68"
           clip-path="url(#clipPath50)"><g
             id="g66"><g
               id="g64"><path
                 id="path62"
                 style="fill:url(#linearGradient58);stroke:none"
                 d="M -32768,32767 H 32767 V -32768 H -32768 Z" /></g></g></g></g></mask><linearGradient
       id="linearGradient82"
       spreadMethod="pad"
       gradientTransform="matrix(62.215599,-62.215599,-62.215599,-62.215599,25.0625,71.728149)"
       gradientUnits="userSpaceOnUse"
       y2="0"
       x2="1"
       y1="0"
       x1="0"><stop
         id="stop76"
         offset="0"
         style="stop-opacity:1;stop-color:#000000" /><stop
         id="stop78"
         offset="0.452991"
         style="stop-opacity:1;stop-color:#000000" /><stop
         id="stop80"
         offset="1"
         style="stop-opacity:1;stop-color:#000000" /></linearGradient><clipPath
       id="clipPath92"
       clipPathUnits="userSpaceOnUse"><path
         id="path90"
         d="M 19.336,24.849 44.055,0.129 C 45.967,0.047 47.94,0 50,0 v 0 c 9.647,0 17.646,0.888 24.222,2.843 v 0 L 39.665,37.4 Z" /></clipPath><clipPath
       id="clipPath100"
       clipPathUnits="userSpaceOnUse"><path
         id="path98"
         d="M -32768,32767 H 32767 V -32768 H -32768 Z" /></clipPath><linearGradient
       id="linearGradient108"
       spreadMethod="pad"
       gradientTransform="matrix(38.445648,-38.445648,-38.445648,-38.445648,27.555466,33.068588)"
       gradientUnits="userSpaceOnUse"
       y2="0"
       x2="1"
       y1="0"
       x1="0"><stop
         id="stop102"
         offset="0"
         style="stop-opacity:0.07998779;stop-color:#ffffff" /><stop
         id="stop104"
         offset="0.452991"
         style="stop-opacity:0;stop-color:#ffffff" /><stop
         id="stop106"
         offset="1"
         style="stop-opacity:0;stop-color:#ffffff" /></linearGradient><mask
       id="mask110"
       height="1"
       width="1"
       y="0"
       x="0"
       maskUnits="userSpaceOnUse"><g
         id="g120"><g
           id="g118"
           clip-path="url(#clipPath100)"><g
             id="g116"><g
               id="g114"><path
                 id="path112"
                 style="fill:url(#linearGradient108);stroke:none"
                 d="M -32768,32767 H 32767 V -32768 H -32768 Z" /></g></g></g></g></mask><linearGradient
       id="linearGradient132"
       spreadMethod="pad"
       gradientTransform="matrix(38.445648,-38.445648,-38.445648,-38.445648,27.555466,33.068588)"
       gradientUnits="userSpaceOnUse"
       y2="0"
       x2="1"
       y1="0"
       x1="0"><stop
         id="stop126"
         offset="0"
         style="stop-opacity:1;stop-color:#000000" /><stop
         id="stop128"
         offset="0.452991"
         style="stop-opacity:1;stop-color:#000000" /><stop
         id="stop130"
         offset="1"
         style="stop-opacity:1;stop-color:#000000" /></linearGradient><clipPath
       id="clipPath142"
       clipPathUnits="userSpaceOnUse"><path
         id="path140"
         d="M 70.5,76.29 68.558,74.349 74.638,68.27 58.875,64.541 97.269,26.147 C 99.148,32.652 100,40.535 100,50 v 0 c 0,0.745 -0.014,1.465 -0.024,2.19 v 0 l -17.851,17.851 -1.213,-0.287 -8.475,8.474 z" /></clipPath><clipPath
       id="clipPath150"
       clipPathUnits="userSpaceOnUse"><path
         id="path148"
         d="M -32768,32767 H 32767 V -32768 H -32768 Z" /></clipPath><linearGradient
       id="linearGradient158"
       spreadMethod="pad"
       gradientTransform="matrix(38.457062,-38.457062,-38.457062,-38.457062,65.99997,71.79068)"
       gradientUnits="userSpaceOnUse"
       y2="0"
       x2="1"
       y1="0"
       x1="0"><stop
         id="stop152"
         offset="0"
         style="stop-opacity:0.07998779;stop-color:#ffffff" /><stop
         id="stop154"
         offset="0.452991"
         style="stop-opacity:0;stop-color:#ffffff" /><stop
         id="stop156"
         offset="1"
         style="stop-opacity:0;stop-color:#ffffff" /></linearGradient><mask
       id="mask160"
       height="1"
       width="1"
       y="0"
       x="0"
       maskUnits="userSpaceOnUse"><g
         id="g170"><g
           id="g168"
           clip-path="url(#clipPath150)"><g
             id="g166"><g
               id="g164"><path
                 id="path162"
                 style="fill:url(#linearGradient158);stroke:none"
                 d="M -32768,32767 H 32767 V -32768 H -32768 Z" /></g></g></g></g></mask><linearGradient
       id="linearGradient182"
       spreadMethod="pad"
       gradientTransform="matrix(38.457062,-38.457062,-38.457062,-38.457062,65.99997,71.79068)"
       gradientUnits="userSpaceOnUse"
       y2="0"
       x2="1"
       y1="0"
       x1="0"><stop
         id="stop176"
         offset="0"
         style="stop-opacity:1;stop-color:#000000" /><stop
         id="stop178"
         offset="0.452991"
         style="stop-opacity:1;stop-color:#000000" /><stop
         id="stop180"
         offset="1"
         style="stop-opacity:1;stop-color:#000000" /></linearGradient><clipPath
       id="clipPath192"
       clipPathUnits="userSpaceOnUse"><path
         id="path190"
         d="M 0,100 H 100 V 0 H 0 Z" /></clipPath><clipPath
       id="clipPath222"
       clipPathUnits="userSpaceOnUse"><path
         id="path220"
         d="M 58.875,32.874 65.312,26.437 58.875,23.874 78.431,4.318 c 9.036,3.719 14.855,10.024 18.142,19.608 v 0 L 82.125,38.374 Z" /></clipPath><clipPath
       id="clipPath230"
       clipPathUnits="userSpaceOnUse"><path
         id="path228"
         d="M -32768,32767 H 32767 V -32768 H -32768 Z" /></clipPath><linearGradient
       id="linearGradient236"
       spreadMethod="pad"
       gradientTransform="matrix(25.882584,-25.882584,-25.882584,-25.882584,63.8125,37.811523)"
       gradientUnits="userSpaceOnUse"
       y2="0"
       x2="1"
       y1="0"
       x1="0"><stop
         id="stop232"
         offset="0"
         style="stop-opacity:0.11999695;stop-color:#ffffff" /><stop
         id="stop234"
         offset="1"
         style="stop-opacity:0;stop-color:#ffffff" /></linearGradient><mask
       id="mask238"
       height="1"
       width="1"
       y="0"
       x="0"
       maskUnits="userSpaceOnUse"><g
         id="g248"><g
           id="g246"
           clip-path="url(#clipPath230)"><g
             id="g244"><g
               id="g242"><path
                 id="path240"
                 style="fill:url(#linearGradient236);stroke:none"
                 d="M -32768,32767 H 32767 V -32768 H -32768 Z" /></g></g></g></g></mask><linearGradient
       id="linearGradient258"
       spreadMethod="pad"
       gradientTransform="matrix(25.882584,-25.882584,-25.882584,-25.882584,63.8125,37.811523)"
       gradientUnits="userSpaceOnUse"
       y2="0"
       x2="1"
       y1="0"
       x1="0"><stop
         id="stop254"
         offset="0"
         style="stop-opacity:1;stop-color:#000000" /><stop
         id="stop256"
         offset="1"
         style="stop-opacity:1;stop-color:#000000" /></linearGradient><clipPath
       id="clipPath268"
       clipPathUnits="userSpaceOnUse"><path
         id="path266"
         d="M 0,100 H 100 V 0 H 0 Z" /></clipPath></defs><g
     transform="matrix(1.25,0,0,-1.25,4,129.33333)"
     id="g10"><g
       id="g12"><g
         clip-path="url(#clipPath18)"
         id="g14"><g
           id="g20"><g
             id="g22"><path
               id="path34"
               style="fill:url(#linearGradient32);stroke:none"
               d="M 50,100 C 12.956,100 0,87.039 0,50 v 0 C 0,12.961 12.956,0 50,0 v 0 c 37.045,0 50,12.961 50,50 v 0 c 0,37.044 -12.955,50 -50,50 z"
               inkscape:connector-curvature="0" /></g></g></g></g><g
       id="g36"><g
         clip-path="url(#clipPath42)"
         id="g38"><g
           id="g44"><g
             id="g46" /><g
             mask="url(#mask60)"
             id="g72"><g
               id="g74"><path
                 id="path84"
                 style="fill:url(#linearGradient82);stroke:none"
                 d="M 30.625,70.75 17.875,64.541 78.198,4.217 c 6.947,2.808 12.006,7.127 15.495,13.256 v 0 L 32.25,78.916 Z"
                 inkscape:connector-curvature="0" /></g></g></g></g></g><g
       id="g86"><g
         clip-path="url(#clipPath92)"
         id="g88"><g
           id="g94"><g
             id="g96" /><g
             mask="url(#mask110)"
             id="g122"><g
               id="g124"><path
                 id="path134"
                 style="fill:url(#linearGradient132);stroke:none"
                 d="M 19.336,24.849 44.055,0.129 C 45.967,0.047 47.94,0 50,0 v 0 c 9.647,0 17.646,0.888 24.222,2.843 v 0 L 39.665,37.4 Z"
                 inkscape:connector-curvature="0" /></g></g></g></g></g><g
       id="g136"><g
         clip-path="url(#clipPath142)"
         id="g138"><g
           id="g144"><g
             id="g146" /><g
             mask="url(#mask160)"
             id="g172"><g
               id="g174"><path
                 id="path184"
                 style="fill:url(#linearGradient182);stroke:none"
                 d="M 70.5,76.29 68.558,74.349 74.638,68.27 58.875,64.541 97.269,26.147 C 99.148,32.652 100,40.535 100,50 v 0 c 0,0.745 -0.014,1.465 -0.024,2.19 v 0 l -17.851,17.851 -1.213,-0.287 -8.475,8.474 z"
                 inkscape:connector-curvature="0" /></g></g></g></g></g><g
       id="g186"><g
         clip-path="url(#clipPath192)"
         id="g188"><g
           transform="translate(41.125,70.0405)"
           id="g194"><path
             id="path196"
             style="fill:#ffffff;fill-opacity:1;fill-rule:nonzero;stroke:none"
             d="m 0,0 h -8.875 v 8.875 h -5.5 V 0 h -8.875 v -5.5 h 8.875 v -8.875 h 5.5 V -5.5 H 0 Z"
             inkscape:connector-curvature="0" /></g><g
           transform="translate(39.6646,37.3994)"
           id="g198"><path
             id="path200"
             style="fill:#ffffff;fill-opacity:1;fill-rule:nonzero;stroke:none"
             d="M 0,0 -3.889,3.89 -10.165,-2.387 -16.44,3.89 -20.329,0 l 6.275,-6.275 -6.275,-6.276 3.889,-3.889 6.275,6.276 6.276,-6.276 3.889,3.889 -6.275,6.276 z"
             inkscape:connector-curvature="0" /></g><g
           transform="translate(50)"
           id="g202"><path
             id="path204"
             style="fill:#fcbc49;fill-opacity:1;fill-rule:nonzero;stroke:none"
             d="M 0,0 C 37.045,0 50,12.961 50,50 H 8.125 C 3.638,50 0,46.362 0,41.875 Z"
             inkscape:connector-curvature="0" /></g><path
           id="path206"
           style="fill:#ffffff;fill-opacity:1;fill-rule:nonzero;stroke:none"
           d="m 58.875,64.541 h 23.25 v 5.5 h -23.25 z"
           inkscape:connector-curvature="0" /><g
           transform="translate(70.5,61.0405)"
           id="g208"><path
             id="path210"
             style="fill:#ffffff;fill-opacity:1;fill-rule:nonzero;stroke:none"
             d="m 0,0 c -1.519,0 -2.75,-1.231 -2.75,-2.75 0,-1.519 1.231,-2.75 2.75,-2.75 1.519,0 2.75,1.231 2.75,2.75 C 2.75,-1.231 1.519,0 0,0"
             inkscape:connector-curvature="0" /></g><g
           transform="translate(70.5,73.5405)"
           id="g212"><path
             id="path214"
             style="fill:#ffffff;fill-opacity:1;fill-rule:nonzero;stroke:none"
             d="M 0,0 C 1.519,0 2.75,1.231 2.75,2.75 2.75,4.269 1.519,5.5 0,5.5 -1.519,5.5 -2.75,4.269 -2.75,2.75 -2.75,1.231 -1.519,0 0,0"
             inkscape:connector-curvature="0" /></g></g></g><g
       id="g216"><g
         clip-path="url(#clipPath222)"
         id="g218"><g
           id="g224"><g
             id="g226" /><g
             mask="url(#mask238)"
             id="g250"><g
               id="g252"><path
                 id="path260"
                 style="fill:url(#linearGradient258);stroke:none"
                 d="M 58.875,32.874 65.312,26.437 58.875,23.874 78.431,4.318 c 9.036,3.719 14.855,10.024 18.142,19.608 v 0 L 82.125,38.374 Z"
                 inkscape:connector-curvature="0" /></g></g></g></g></g><g
       id="g262"><g
         clip-path="url(#clipPath268)"
         id="g264"><path
           id="path270"
           style="fill:#ffffff;fill-opacity:1;fill-rule:nonzero;stroke:none"
           d="m 58.875,32.874 h 23.25 v 5.5 h -23.25 z"
           inkscape:connector-curvature="0" /><path
           id="path272"
           style="fill:#ffffff;fill-opacity:1;fill-rule:nonzero;stroke:none"
           d="m 58.875,23.874 h 23.25 v 5.5 h -23.25 z"
           inkscape:connector-curvature="0" /></g></g></g></svg>