<?xml version="1.0" encoding="UTF-8" standalone="no"?>
<svg
   xmlns:dc="http://purl.org/dc/elements/1.1/"
   xmlns:cc="http://creativecommons.org/ns#"
   xmlns:rdf="http://www.w3.org/1999/02/22-rdf-syntax-ns#"
   xmlns:svg="http://www.w3.org/2000/svg"
   xmlns="http://www.w3.org/2000/svg"
   xmlns:sodipodi="http://sodipodi.sourceforge.net/DTD/sodipodi-0.dtd"
   xmlns:inkscape="http://www.inkscape.org/namespaces/inkscape"
   viewBox="0 0 133.33333 133.33333"
   height="133.33333"
   width="133.33333"
   xml:space="preserve"
   id="svg2"
   version="1.1"
   sodipodi:docname="icon-launcher-map.svg"
   inkscape:version="0.92.2 2405546, 2018-03-11"><sodipodi:namedview
     pagecolor="#ffffff"
     bordercolor="#666666"
     borderopacity="1"
     objecttolerance="10"
     gridtolerance="10"
     guidetolerance="10"
     inkscape:pageopacity="0"
     inkscape:pageshadow="2"
     inkscape:window-width="1366"
     inkscape:window-height="706"
     id="namedview133"
     showgrid="false"
     inkscape:zoom="1.7700001"
     inkscape:cx="66.666664"
     inkscape:cy="66.666664"
     inkscape:window-x="0"
     inkscape:window-y="34"
     inkscape:window-maximized="1"
     inkscape:current-layer="svg2" /><metadata
     id="metadata8"><rdf:RDF><cc:Work
         rdf:about=""><dc:format>image/svg+xml</dc:format><dc:type
           rdf:resource="http://purl.org/dc/dcmitype/StillImage" /></cc:Work></rdf:RDF></metadata><defs
     id="defs6"><clipPath
       id="clipPath18"
       clipPathUnits="userSpaceOnUse"><path
         id="path16"
         d="M 50,100 C 12.956,100 0,87.039 0,50 v 0 C 0,12.961 12.956,0 50,0 v 0 c 37.045,0 50,12.961 50,50 v 0 c 0,37.044 -12.955,50 -50,50 z" /></clipPath><linearGradient
       id="linearGradient30"
       spreadMethod="pad"
       gradientTransform="matrix(77.78125,-77.78125,-77.78125,-77.78125,11.109896,88.891144)"
       gradientUnits="userSpaceOnUse"
       y2="0"
       x2="1"
       y1="0"
       x1="0"><stop
         id="stop24"
         offset="0"
         style="stop-opacity:1;stop-color:#8fe7f7" /><stop
         id="stop26"
         offset="0.0000006"
         style="stop-opacity:1;stop-color:#8fe7f7" /><stop
         id="stop28"
         offset="1"
         style="stop-opacity:1;stop-color:#4394e9" /></linearGradient><clipPath
       id="clipPath40"
       clipPathUnits="userSpaceOnUse"><path
         id="path38"
         d="M 50,100 C 12.956,100 0,87.039 0,50 v 0 C 0,12.961 12.956,0 50,0 v 0 c 37.045,0 50,12.961 50,50 v 0 c 0,37.044 -12.955,50 -50,50 z" /></clipPath><linearGradient
       id="linearGradient52"
       spreadMethod="pad"
       gradientTransform="matrix(77.78125,-77.78125,-77.78125,-77.78125,11.109896,88.891144)"
       gradientUnits="userSpaceOnUse"
       y2="0"
       x2="1"
       y1="0"
       x1="0"><stop
         id="stop46"
         offset="0"
         style="stop-opacity:1;stop-color:#8fe7f7" /><stop
         id="stop48"
         offset="0.0000006"
         style="stop-opacity:1;stop-color:#8fe7f7" /><stop
         id="stop50"
         offset="1"
         style="stop-opacity:1;stop-color:#4394e9" /></linearGradient><clipPath
       id="clipPath62"
       clipPathUnits="userSpaceOnUse"><path
         id="path60"
         d="M 50,100 C 12.956,100 0,87.039 0,50 v 0 C 0,12.961 12.956,0 50,0 v 0 c 37.045,0 50,12.961 50,50 v 0 c 0,37.044 -12.955,50 -50,50 z" /></clipPath><linearGradient
       id="linearGradient74"
       spreadMethod="pad"
       gradientTransform="matrix(77.78125,-77.78125,-77.78125,-77.78125,11.109896,88.891144)"
       gradientUnits="userSpaceOnUse"
       y2="0"
       x2="1"
       y1="0"
       x1="0"><stop
         id="stop68"
         offset="0"
         style="stop-opacity:1;stop-color:#c7c7c7" /><stop
         id="stop70"
         offset="0.00000039"
         style="stop-opacity:1;stop-color:#c7c7c7" /><stop
         id="stop72"
         offset="1"
         style="stop-opacity:1;stop-color:#838383" /></linearGradient><clipPath
       id="clipPath84"
       clipPathUnits="userSpaceOnUse"><path
         id="path82"
         d="M 22.03,77.25 18.625,48.375 21.132,20.561 41.419,0.275 C 44.128,0.095 46.975,0 50,0 v 0 c 37.045,0 50,12.961 50,50 v 0 c 0,3.033 -0.096,5.886 -0.276,8.603 v 0 L 79.449,78.878 47.875,83 Z" /></clipPath><clipPath
       id="clipPath92"
       clipPathUnits="userSpaceOnUse"><path
         id="path90"
         d="M -32768,32767 H 32767 V -32768 H -32768 Z" /></clipPath><linearGradient
       id="linearGradient98"
       spreadMethod="pad"
       gradientTransform="matrix(66.500603,-66.500603,-66.500603,-66.500603,22.394928,77.614899)"
       gradientUnits="userSpaceOnUse"
       y2="0"
       x2="1"
       y1="0"
       x1="0"><stop
         id="stop94"
         offset="0"
         style="stop-opacity:0.14999619;stop-color:#ffffff" /><stop
         id="stop96"
         offset="1"
         style="stop-opacity:0;stop-color:#ffffff" /></linearGradient><mask
       id="mask100"
       height="1"
       width="1"
       y="0"
       x="0"
       maskUnits="userSpaceOnUse"><g
         id="g110"><g
           id="g108"
           clip-path="url(#clipPath92)"><g
             id="g106"><g
               id="g104"><path
                 id="path102"
                 style="fill:url(#linearGradient98);stroke:none"
                 d="M -32768,32767 H 32767 V -32768 H -32768 Z" /></g></g></g></g></mask><linearGradient
       id="linearGradient120"
       spreadMethod="pad"
       gradientTransform="matrix(66.500603,-66.500603,-66.500603,-66.500603,22.394928,77.614899)"
       gradientUnits="userSpaceOnUse"
       y2="0"
       x2="1"
       y1="0"
       x1="0"><stop
         id="stop116"
         offset="0"
         style="stop-opacity:1;stop-color:#000000" /><stop
         id="stop118"
         offset="1"
         style="stop-opacity:1;stop-color:#000000" /></linearGradient><clipPath
       id="clipPath130"
       clipPathUnits="userSpaceOnUse"><path
         id="path128"
         d="M 0,100 H 100 V 0 H 0 Z" /></clipPath><clipPath
       id="clipPath142"
       clipPathUnits="userSpaceOnUse"><path
         id="path140"
         d="m 59.09,26.67 2.22,-5.47 c 5.601,0.85 9.62,2.54 12.431,5.47 v 0 z" /></clipPath><linearGradient
       id="linearGradient152"
       spreadMethod="pad"
       gradientTransform="matrix(14.649963,0,0,-14.649963,59.090027,23.935028)"
       gradientUnits="userSpaceOnUse"
       y2="0"
       x2="1"
       y1="0"
       x1="0"><stop
         id="stop148"
         offset="0"
         style="stop-opacity:1;stop-color:#8dcf80" /><stop
         id="stop150"
         offset="1"
         style="stop-opacity:1;stop-color:#81c178" /></linearGradient><clipPath
       id="clipPath162"
       clipPathUnits="userSpaceOnUse"><path
         id="path160"
         d="m 46.84,56.831 9,-22.161 h 22.13 c 1.09,4 1.53,9.04 1.53,15.33 v 0 c 0,2.47 -0.07,4.74 -0.21,6.831 v 0 z" /></clipPath><linearGradient
       id="linearGradient172"
       spreadMethod="pad"
       gradientTransform="matrix(32.659973,0,0,-32.659973,46.840027,45.75003)"
       gradientUnits="userSpaceOnUse"
       y2="0"
       x2="1"
       y1="0"
       x1="0"><stop
         id="stop168"
         offset="0"
         style="stop-opacity:1;stop-color:#8dcf80" /><stop
         id="stop170"
         offset="1"
         style="stop-opacity:1;stop-color:#81c178" /></linearGradient><clipPath
       id="clipPath182"
       clipPathUnits="userSpaceOnUse"><path
         id="path180"
         d="m 36.7,78.45 c -0.25,-0.06 -0.5,-0.11 -0.74,-0.16 v 0 c -0.45,-0.11 -0.891,-0.21 -1.31,-0.33 v 0 C 34.4,77.891 34.16,77.819 33.93,77.75 v 0 c -0.11,-0.03 -0.211,-0.06 -0.31,-0.1 v 0 c -0.23,-0.07 -0.459,-0.14 -0.68,-0.219 v 0 C 32.88,77.41 32.819,77.39 32.75,77.359 v 0 C 32.48,77.27 32.22,77.17 31.96,77.06 v 0 c -0.27,-0.1 -0.53,-0.21 -0.79,-0.33 v 0 c -0.3,-0.14 -0.59,-0.279 -0.88,-0.43 v 0 L 34.951,64.83 38.201,56.831 47.21,34.67 H 22.03 c 0.91,-3.35 2.28,-5.97 4.23,-8 v 0 h 24.2 l 2.491,-6.13 c 0.279,0.01 0.559,0.01 0.839,0.02 v 0 c 1.179,0.039 2.3,0.1 3.38,0.18 v 0 c 0.53,0.04 1.05,0.081 1.55,0.13 v 0 c 0.23,0.031 0.46,0.05 0.68,0.08 v 0 c 0.66,0.07 1.291,0.15 1.91,0.25 v 0 l -2.22,5.47 h 14.651 c 1.949,2.03 3.319,4.65 4.229,8 v 0 H 55.84 l -9,22.161 -3.25,7.999 -5.63,13.85 C 37.53,78.61 37.11,78.53 36.7,78.45" /></clipPath><linearGradient
       id="linearGradient192"
       spreadMethod="pad"
       gradientTransform="matrix(55.939941,0,0,-55.939941,22.030029,49.610016)"
       gradientUnits="userSpaceOnUse"
       y2="0"
       x2="1"
       y1="0"
       x1="0"><stop
         id="stop188"
         offset="0"
         style="stop-opacity:1;stop-color:#fee172" /><stop
         id="stop190"
         offset="1"
         style="stop-opacity:1;stop-color:#fed121" /></linearGradient><clipPath
       id="clipPath202"
       clipPathUnits="userSpaceOnUse"><path
         id="path200"
         d="M 61.08,56.831 40,35.75 55.13,20.62 62.401,13.35 C 72.84,14.99 79.53,19.13 83.35,26.67 v 0 c 1.19,2.33 2.091,4.99 2.76,8 v 0 c 0.2,0.901 0.37,1.83 0.52,2.79 v 0 l -7.26,7.25 -12.11,12.121 -3.09,3.089 z" /></clipPath><clipPath
       id="clipPath210"
       clipPathUnits="userSpaceOnUse"><path
         id="path208"
         d="M -32768,32767 H 32767 V -32768 H -32768 Z" /></clipPath><linearGradient
       id="linearGradient220"
       spreadMethod="pad"
       gradientTransform="matrix(27.042944,-27.042944,-27.042944,-27.042944,52.084976,47.835037)"
       gradientUnits="userSpaceOnUse"
       y2="0"
       x2="1"
       y1="0"
       x1="0"><stop
         id="stop212"
         offset="0"
         style="stop-opacity:0.11999695;stop-color:#ffffff" /><stop
         id="stop214"
         offset="0.00000028"
         style="stop-opacity:0.11999695;stop-color:#ffffff" /><stop
         id="stop216"
         offset="0.794872"
         style="stop-opacity:0;stop-color:#ffffff" /><stop
         id="stop218"
         offset="1"
         style="stop-opacity:0;stop-color:#ffffff" /></linearGradient><mask
       id="mask222"
       height="1"
       width="1"
       y="0"
       x="0"
       maskUnits="userSpaceOnUse"><g
         id="g232"><g
           id="g230"
           clip-path="url(#clipPath210)"><g
             id="g228"><g
               id="g226"><path
                 id="path224"
                 style="fill:url(#linearGradient220);stroke:none"
                 d="M -32768,32767 H 32767 V -32768 H -32768 Z" /></g></g></g></g></mask><linearGradient
       id="linearGradient246"
       spreadMethod="pad"
       gradientTransform="matrix(27.042944,-27.042944,-27.042944,-27.042944,52.084976,47.835037)"
       gradientUnits="userSpaceOnUse"
       y2="0"
       x2="1"
       y1="0"
       x1="0"><stop
         id="stop238"
         offset="0"
         style="stop-opacity:1;stop-color:#000000" /><stop
         id="stop240"
         offset="0.00000028"
         style="stop-opacity:1;stop-color:#000000" /><stop
         id="stop242"
         offset="0.794872"
         style="stop-opacity:1;stop-color:#000000" /><stop
         id="stop244"
         offset="1"
         style="stop-opacity:1;stop-color:#000000" /></linearGradient><clipPath
       id="clipPath256"
       clipPathUnits="userSpaceOnUse"><path
         id="path254"
         d="M 0,100 H 100 V 0 H 0 Z" /></clipPath></defs><g
     transform="matrix(1.25,0,0,-1.25,4,129.33333)"
     id="g10"><g
       id="g12"><g
         clip-path="url(#clipPath18)"
         id="g14"><g
           id="g20"><g
             id="g22"><path
               id="path32"
               style="fill:url(#linearGradient30);stroke:none"
               d="M 50,100 C 12.956,100 0,87.039 0,50 v 0 C 0,12.961 12.956,0 50,0 v 0 c 37.045,0 50,12.961 50,50 v 0 c 0,37.044 -12.955,50 -50,50 z"
               inkscape:connector-curvature="0" /></g></g></g></g><g
       id="g34"><g
         clip-path="url(#clipPath40)"
         id="g36"><g
           id="g42"><g
             id="g44"><path
               id="path54"
               style="fill:url(#linearGradient52);stroke:none"
               d="M 50,100 C 12.956,100 0,87.039 0,50 v 0 C 0,12.961 12.956,0 50,0 v 0 c 37.045,0 50,12.961 50,50 v 0 c 0,37.044 -12.955,50 -50,50 z"
               inkscape:connector-curvature="0" /></g></g></g></g><g
       id="g56"><g
         clip-path="url(#clipPath62)"
         id="g58"><g
           id="g64"><g
             id="g66"><path
               id="path76"
               style="fill:url(#linearGradient74);stroke:none"
               d="M 50,100 C 12.956,100 0,87.039 0,50 v 0 C 0,12.961 12.956,0 50,0 v 0 c 37.045,0 50,12.961 50,50 v 0 c 0,37.044 -12.955,50 -50,50 z"
               inkscape:connector-curvature="0" /></g></g></g></g><g
       id="g78"><g
         clip-path="url(#clipPath84)"
         id="g80"><g
           id="g86"><g
             id="g88" /><g
             mask="url(#mask100)"
             id="g112"><g
               id="g114"><path
                 id="path122"
                 style="fill:url(#linearGradient120);stroke:none"
                 d="M 22.03,77.25 18.625,48.375 21.132,20.561 41.419,0.275 C 44.128,0.095 46.975,0 50,0 v 0 c 37.045,0 50,12.961 50,50 v 0 c 0,3.033 -0.096,5.886 -0.276,8.603 v 0 L 79.449,78.878 47.875,83 Z"
                 inkscape:connector-curvature="0" /></g></g></g></g></g><g
       id="g124"><g
         clip-path="url(#clipPath130)"
         id="g126"><g
           transform="translate(77.9697,34.6699)"
           id="g132"><path
             id="path134"
             style="fill:#ffffff;fill-opacity:1;fill-rule:nonzero;stroke:none"
             d="m 0,0 c -0.91,-3.35 -2.279,-5.97 -4.229,-8 -2.811,-2.93 -6.831,-4.62 -12.431,-5.47 -0.619,-0.1 -1.25,-0.18 -1.909,-0.25 -0.221,-0.03 -0.451,-0.05 -0.681,-0.08 -0.5,-0.05 -1.02,-0.09 -1.55,-0.13 -1.08,-0.08 -2.2,-0.14 -3.38,-0.18 -1.21,-0.04 -2.469,-0.06 -3.79,-0.06 -1.02,0 -2,0.01 -2.95,0.04 -3.12,0.07 -5.89,0.28 -8.36,0.66 -5.6,0.85 -9.62,2.54 -12.43,5.47 -1.95,2.03 -3.32,4.65 -4.229,8 -1.091,4 -1.531,9.04 -1.531,15.33 0,2.47 0.07,4.74 0.21,6.83 H 1.32 C 1.46,20.07 1.53,17.8 1.53,15.33 1.53,9.04 1.09,4 0,0 m -47.68,41.63 c 0.29,0.15 0.58,0.29 0.88,0.43 0.26,0.12 0.52,0.23 0.79,0.33 0.25,0.11 0.52,0.21 0.79,0.3 0.07,0.03 0.13,0.05 0.19,0.07 0.22,0.08 0.45,0.16 0.68,0.22 0.1,0.04 0.2,0.07 0.31,0.1 0.23,0.07 0.47,0.14 0.72,0.21 0.42,0.12 0.86,0.22 1.31,0.33 0.24,0.05 0.49,0.1 0.74,0.16 0.41,0.08 0.831,0.16 1.26,0.23 3.38,0.58 7.37,0.82 12.04,0.82 4.67,0 8.66,-0.24 12.04,-0.82 3.01,-0.51 5.55,-1.28 7.67,-2.38 4.37,-2.26 6.97,-5.9 8.39,-11.47 h -56.2 c 1.42,5.57 4.02,9.21 8.39,11.47 M 9.311,22.16 c -0.21,2.9 -0.561,5.57 -1.071,8 -1.94,9.33 -6.19,15.36 -13.51,18.83 -2.24,1.07 -4.77,1.89 -7.62,2.5 -4.29,0.92 -9.29,1.34 -15.08,1.34 -22.11,0 -32.78,-6.15 -36.21,-22.67 -0.509,-2.43 -0.86,-5.1 -1.07,-8 -0.15,-2.14 -0.22,-4.42 -0.22,-6.83 0,-5.9 0.44,-10.98 1.39,-15.33 0.67,-3.01 1.57,-5.67 2.76,-8 3.58,-7.05 9.66,-11.14 18.99,-12.979 2.5,-0.491 5.23,-0.821 8.22,-1.011 1.94,-0.12 3.98,-0.18 6.14,-0.18 17.8,0 28.191,3.99 33.35,14.17 1.19,2.33 2.091,4.99 2.761,8 0.949,4.35 1.389,9.43 1.389,15.33 0,2.41 -0.07,4.69 -0.219,6.83"
             inkscape:connector-curvature="0" /></g></g></g><g
       id="g136"><g
         clip-path="url(#clipPath142)"
         id="g138"><g
           id="g144"><g
             id="g146"><path
               id="path154"
               style="fill:url(#linearGradient152);stroke:none"
               d="m 59.09,26.67 2.22,-5.47 c 5.601,0.85 9.62,2.54 12.431,5.47 v 0 z"
               inkscape:connector-curvature="0" /></g></g></g></g><g
       id="g156"><g
         clip-path="url(#clipPath162)"
         id="g158"><g
           id="g164"><g
             id="g166"><path
               id="path174"
               style="fill:url(#linearGradient172);stroke:none"
               d="m 46.84,56.831 9,-22.161 h 22.13 c 1.09,4 1.53,9.04 1.53,15.33 v 0 c 0,2.47 -0.07,4.74 -0.21,6.831 v 0 z"
               inkscape:connector-curvature="0" /></g></g></g></g><g
       id="g176"><g
         clip-path="url(#clipPath182)"
         id="g178"><g
           id="g184"><g
             id="g186"><path
               id="path194"
               style="fill:url(#linearGradient192);stroke:none"
               d="m 36.7,78.45 c -0.25,-0.06 -0.5,-0.11 -0.74,-0.16 v 0 c -0.45,-0.11 -0.891,-0.21 -1.31,-0.33 v 0 C 34.4,77.891 34.16,77.819 33.93,77.75 v 0 c -0.11,-0.03 -0.211,-0.06 -0.31,-0.1 v 0 c -0.23,-0.07 -0.459,-0.14 -0.68,-0.219 v 0 C 32.88,77.41 32.819,77.39 32.75,77.359 v 0 C 32.48,77.27 32.22,77.17 31.96,77.06 v 0 c -0.27,-0.1 -0.53,-0.21 -0.79,-0.33 v 0 c -0.3,-0.14 -0.59,-0.279 -0.88,-0.43 v 0 L 34.951,64.83 38.201,56.831 47.21,34.67 H 22.03 c 0.91,-3.35 2.28,-5.97 4.23,-8 v 0 h 24.2 l 2.491,-6.13 c 0.279,0.01 0.559,0.01 0.839,0.02 v 0 c 1.179,0.039 2.3,0.1 3.38,0.18 v 0 c 0.53,0.04 1.05,0.081 1.55,0.13 v 0 c 0.23,0.031 0.46,0.05 0.68,0.08 v 0 c 0.66,0.07 1.291,0.15 1.91,0.25 v 0 l -2.22,5.47 h 14.651 c 1.949,2.03 3.319,4.65 4.229,8 v 0 H 55.84 l -9,22.161 -3.25,7.999 -5.63,13.85 C 37.53,78.61 37.11,78.53 36.7,78.45"
               inkscape:connector-curvature="0" /></g></g></g></g><g
       id="g196"><g
         clip-path="url(#clipPath202)"
         id="g198"><g
           id="g204"><g
             id="g206" /><g
             mask="url(#mask222)"
             id="g234"><g
               id="g236"><path
                 id="path248"
                 style="fill:url(#linearGradient246);stroke:none"
                 d="M 61.08,56.831 40,35.75 55.13,20.62 62.401,13.35 C 72.84,14.99 79.53,19.13 83.35,26.67 v 0 c 1.19,2.33 2.091,4.99 2.76,8 v 0 c 0.2,0.901 0.37,1.83 0.52,2.79 v 0 l -7.26,7.25 -12.11,12.121 -3.09,3.089 z"
                 inkscape:connector-curvature="0" /></g></g></g></g></g><g
       id="g250"><g
         clip-path="url(#clipPath256)"
         id="g252"><g
           transform="translate(50,59.9165)"
           id="g258"><path
             id="path260"
             style="fill:#5479f1;fill-opacity:1;fill-rule:nonzero;stroke:none"
             d="m 0,0 c -7.824,0 -14.167,-6.342 -14.167,-14.167 0,-7.824 6.343,-14.166 14.167,-14.166 7.824,0 14.167,6.342 14.167,14.166 V 0 Z"
             inkscape:connector-curvature="0" /></g><g
           transform="translate(50,40.583)"
           id="g262"><path
             id="path264"
             style="fill:#e3e3e3;fill-opacity:1;fill-rule:nonzero;stroke:none"
             d="m 0,0 c -2.854,0 -5.167,2.313 -5.167,5.167 0,2.854 2.313,5.166 5.167,5.166 2.854,0 5.167,-2.312 5.167,-5.166 C 5.167,2.313 2.854,0 0,0 m 0,15 c -5.431,0 -9.833,-4.402 -9.833,-9.833 0,-5.431 4.402,-9.833 9.833,-9.833 5.431,0 9.833,4.402 9.833,9.833 C 9.833,10.598 5.431,15 0,15"
             inkscape:connector-curvature="0" /></g></g></g></g></svg>