<?xml version="1.0" encoding="UTF-8" standalone="no"?>
<svg
   xmlns:dc="http://purl.org/dc/elements/1.1/"
   xmlns:cc="http://creativecommons.org/ns#"
   xmlns:rdf="http://www.w3.org/1999/02/22-rdf-syntax-ns#"
   xmlns:svg="http://www.w3.org/2000/svg"
   xmlns="http://www.w3.org/2000/svg"
   xmlns:sodipodi="http://sodipodi.sourceforge.net/DTD/sodipodi-0.dtd"
   xmlns:inkscape="http://www.inkscape.org/namespaces/inkscape"
   viewBox="0 0 133.33333 133.33333"
   height="133.33333"
   width="133.33333"
   xml:space="preserve"
   id="svg2"
   version="1.1"
   sodipodi:docname="icon-launcher-messaging.svg"
   inkscape:version="0.92.2 2405546, 2018-03-11"><sodipodi:namedview
     pagecolor="#ffffff"
     bordercolor="#666666"
     borderopacity="1"
     objecttolerance="10"
     gridtolerance="10"
     guidetolerance="10"
     inkscape:pageopacity="0"
     inkscape:pageshadow="2"
     inkscape:window-width="1366"
     inkscape:window-height="717"
     id="namedview135"
     showgrid="false"
     inkscape:zoom="1.7700001"
     inkscape:cx="66.666664"
     inkscape:cy="66.666664"
     inkscape:window-x="0"
     inkscape:window-y="25"
     inkscape:window-maximized="1"
     inkscape:current-layer="svg2" /><metadata
     id="metadata8"><rdf:RDF><cc:Work
         rdf:about=""><dc:format>image/svg+xml</dc:format><dc:type
           rdf:resource="http://purl.org/dc/dcmitype/StillImage" /></cc:Work></rdf:RDF></metadata><defs
     id="defs6"><clipPath
       id="clipPath18"
       clipPathUnits="userSpaceOnUse"><path
         id="path16"
         d="M 50,100 C 12.956,100 0,87.039 0,50 v 0 C 0,12.961 12.956,0 50,0 v 0 c 37.045,0 50,12.961 50,50 v 0 c 0,37.044 -12.955,50 -50,50 z" /></clipPath><linearGradient
       id="linearGradient30"
       spreadMethod="pad"
       gradientTransform="matrix(77.78125,-77.78125,-77.78125,-77.78125,11.109896,88.891144)"
       gradientUnits="userSpaceOnUse"
       y2="0"
       x2="1"
       y1="0"
       x1="0"><stop
         id="stop24"
         offset="0"
         style="stop-opacity:1;stop-color:#93eced" /><stop
         id="stop26"
         offset="1"
         style="stop-opacity:1;stop-color:#1fc4ac" /><stop
         id="stop28"
         offset="1"
         style="stop-opacity:1;stop-color:#1fc4ac" /></linearGradient><clipPath
       id="clipPath40"
       clipPathUnits="userSpaceOnUse"><path
         id="path38"
         d="M 17.697,37.353 54.955,0.094 C 88.195,1.256 100,14.669 100,50 v 0 c 0,3.035 -0.096,5.893 -0.276,8.611 v 0 L 79.145,79.187 Z" /></clipPath><clipPath
       id="clipPath48"
       clipPathUnits="userSpaceOnUse"><path
         id="path46"
         d="M -32768,32767 H 32767 V -32768 H -32768 Z" /></clipPath><linearGradient
       id="linearGradient56"
       spreadMethod="pad"
       gradientTransform="matrix(48.711624,-48.711624,-48.711624,-48.711624,43.517456,63.17395)"
       gradientUnits="userSpaceOnUse"
       y2="0"
       x2="1"
       y1="0"
       x1="0"><stop
         id="stop50"
         offset="0"
         style="stop-opacity:0.09999237;stop-color:#ffffff" /><stop
         id="stop52"
         offset="0.890598"
         style="stop-opacity:0;stop-color:#ffffff" /><stop
         id="stop54"
         offset="1"
         style="stop-opacity:0;stop-color:#ffffff" /></linearGradient><mask
       id="mask58"
       height="1"
       width="1"
       y="0"
       x="0"
       maskUnits="userSpaceOnUse"><g
         id="g68"><g
           id="g66"
           clip-path="url(#clipPath48)"><g
             id="g64"><g
               id="g62"><path
                 id="path60"
                 style="fill:url(#linearGradient56);stroke:none"
                 d="M -32768,32767 H 32767 V -32768 H -32768 Z" /></g></g></g></g></mask><linearGradient
       id="linearGradient80"
       spreadMethod="pad"
       gradientTransform="matrix(48.711624,-48.711624,-48.711624,-48.711624,43.517456,63.17395)"
       gradientUnits="userSpaceOnUse"
       y2="0"
       x2="1"
       y1="0"
       x1="0"><stop
         id="stop74"
         offset="0"
         style="stop-opacity:1;stop-color:#000000" /><stop
         id="stop76"
         offset="0.890598"
         style="stop-opacity:1;stop-color:#000000" /><stop
         id="stop78"
         offset="1"
         style="stop-opacity:1;stop-color:#000000" /></linearGradient><clipPath
       id="clipPath90"
       clipPathUnits="userSpaceOnUse"><path
         id="path88"
         d="M 0,100 H 100 V 0 H 0 Z" /></clipPath><clipPath
       id="clipPath106"
       clipPathUnits="userSpaceOnUse"><path
         id="path104"
         d="M 27.611,53.861 44.639,36.833 52.417,44.611 35.389,61.639 Z" /></clipPath><clipPath
       id="clipPath114"
       clipPathUnits="userSpaceOnUse"><path
         id="path112"
         d="M -32768,32767 H 32767 V -32768 H -32768 Z" /></clipPath><linearGradient
       id="linearGradient122"
       spreadMethod="pad"
       gradientTransform="matrix(17.028173,-17.028173,-15.556348,-15.556348,31.5,57.75)"
       gradientUnits="userSpaceOnUse"
       y2="0"
       x2="1"
       y1="0"
       x1="0"><stop
         id="stop116"
         offset="0"
         style="stop-opacity:0.07998779;stop-color:#ffffff" /><stop
         id="stop118"
         offset="0.764101"
         style="stop-opacity:0;stop-color:#ffffff" /><stop
         id="stop120"
         offset="1"
         style="stop-opacity:0;stop-color:#ffffff" /></linearGradient><mask
       id="mask124"
       height="1"
       width="1"
       y="0"
       x="0"
       maskUnits="userSpaceOnUse"><g
         id="g134"><g
           id="g132"
           clip-path="url(#clipPath114)"><g
             id="g130"><g
               id="g128"><path
                 id="path126"
                 style="fill:url(#linearGradient122);stroke:none"
                 d="M -32768,32767 H 32767 V -32768 H -32768 Z" /></g></g></g></g></mask><linearGradient
       id="linearGradient146"
       spreadMethod="pad"
       gradientTransform="matrix(17.028173,-17.028173,-15.556348,-15.556348,31.5,57.75)"
       gradientUnits="userSpaceOnUse"
       y2="0"
       x2="1"
       y1="0"
       x1="0"><stop
         id="stop140"
         offset="0"
         style="stop-opacity:1;stop-color:#000000" /><stop
         id="stop142"
         offset="0.764101"
         style="stop-opacity:1;stop-color:#000000" /><stop
         id="stop144"
         offset="1"
         style="stop-opacity:1;stop-color:#000000" /></linearGradient><clipPath
       id="clipPath156"
       clipPathUnits="userSpaceOnUse"><path
         id="path154"
         d="M 46.111,53.861 62.049,37.924 69.827,45.701 53.888,61.639 Z" /></clipPath><clipPath
       id="clipPath164"
       clipPathUnits="userSpaceOnUse"><path
         id="path162"
         d="M -32768,32767 H 32767 V -32768 H -32768 Z" /></clipPath><linearGradient
       id="linearGradient172"
       spreadMethod="pad"
       gradientTransform="matrix(15.9375,-15.9375,-15.556348,-15.556348,50,57.75)"
       gradientUnits="userSpaceOnUse"
       y2="0"
       x2="1"
       y1="0"
       x1="0"><stop
         id="stop166"
         offset="0"
         style="stop-opacity:0.07998779;stop-color:#ffffff" /><stop
         id="stop168"
         offset="0.764101"
         style="stop-opacity:0;stop-color:#ffffff" /><stop
         id="stop170"
         offset="1"
         style="stop-opacity:0;stop-color:#ffffff" /></linearGradient><mask
       id="mask174"
       height="1"
       width="1"
       y="0"
       x="0"
       maskUnits="userSpaceOnUse"><g
         id="g184"><g
           id="g182"
           clip-path="url(#clipPath164)"><g
             id="g180"><g
               id="g178"><path
                 id="path176"
                 style="fill:url(#linearGradient172);stroke:none"
                 d="M -32768,32767 H 32767 V -32768 H -32768 Z" /></g></g></g></g></mask><linearGradient
       id="linearGradient196"
       spreadMethod="pad"
       gradientTransform="matrix(15.9375,-15.9375,-15.556348,-15.556348,50,57.75)"
       gradientUnits="userSpaceOnUse"
       y2="0"
       x2="1"
       y1="0"
       x1="0"><stop
         id="stop190"
         offset="0"
         style="stop-opacity:1;stop-color:#000000" /><stop
         id="stop192"
         offset="0.764101"
         style="stop-opacity:1;stop-color:#000000" /><stop
         id="stop194"
         offset="1"
         style="stop-opacity:1;stop-color:#000000" /></linearGradient><clipPath
       id="clipPath206"
       clipPathUnits="userSpaceOnUse"><path
         id="path204"
         d="M 64.611,53.861 79.205,39.268 86.982,47.045 72.389,61.639 Z" /></clipPath><clipPath
       id="clipPath214"
       clipPathUnits="userSpaceOnUse"><path
         id="path212"
         d="M -32768,32767 H 32767 V -32768 H -32768 Z" /></clipPath><linearGradient
       id="linearGradient222"
       spreadMethod="pad"
       gradientTransform="matrix(14.593748,-14.593748,-15.556348,-15.556348,68.5,57.75)"
       gradientUnits="userSpaceOnUse"
       y2="0"
       x2="1"
       y1="0"
       x1="0"><stop
         id="stop216"
         offset="0"
         style="stop-opacity:0.07998779;stop-color:#ffffff" /><stop
         id="stop218"
         offset="0.764101"
         style="stop-opacity:0;stop-color:#ffffff" /><stop
         id="stop220"
         offset="1"
         style="stop-opacity:0;stop-color:#ffffff" /></linearGradient><mask
       id="mask224"
       height="1"
       width="1"
       y="0"
       x="0"
       maskUnits="userSpaceOnUse"><g
         id="g234"><g
           id="g232"
           clip-path="url(#clipPath214)"><g
             id="g230"><g
               id="g228"><path
                 id="path226"
                 style="fill:url(#linearGradient222);stroke:none"
                 d="M -32768,32767 H 32767 V -32768 H -32768 Z" /></g></g></g></g></mask><linearGradient
       id="linearGradient246"
       spreadMethod="pad"
       gradientTransform="matrix(14.593748,-14.593748,-15.556348,-15.556348,68.5,57.75)"
       gradientUnits="userSpaceOnUse"
       y2="0"
       x2="1"
       y1="0"
       x1="0"><stop
         id="stop240"
         offset="0"
         style="stop-opacity:1;stop-color:#000000" /><stop
         id="stop242"
         offset="0.764101"
         style="stop-opacity:1;stop-color:#000000" /><stop
         id="stop244"
         offset="1"
         style="stop-opacity:1;stop-color:#000000" /></linearGradient><clipPath
       id="clipPath256"
       clipPathUnits="userSpaceOnUse"><path
         id="path254"
         d="M 0,100 H 100 V 0 H 0 Z" /></clipPath></defs><g
     transform="matrix(1.25,0,0,-1.25,4,129.33333)"
     id="g10"><g
       id="g12"><g
         clip-path="url(#clipPath18)"
         id="g14"><g
           id="g20"><g
             id="g22"><path
               id="path32"
               style="fill:url(#linearGradient30);stroke:none"
               d="M 50,100 C 12.956,100 0,87.039 0,50 v 0 C 0,12.961 12.956,0 50,0 v 0 c 37.045,0 50,12.961 50,50 v 0 c 0,37.044 -12.955,50 -50,50 z"
               inkscape:connector-curvature="0" /></g></g></g></g><g
       id="g34"><g
         clip-path="url(#clipPath40)"
         id="g36"><g
           id="g42"><g
             id="g44" /><g
             mask="url(#mask58)"
             id="g70"><g
               id="g72"><path
                 id="path82"
                 style="fill:url(#linearGradient80);stroke:none"
                 d="M 17.697,37.353 54.955,0.094 C 88.195,1.256 100,14.669 100,50 v 0 c 0,3.035 -0.096,5.893 -0.276,8.611 v 0 L 79.145,79.187 Z"
                 inkscape:connector-curvature="0" /></g></g></g></g></g><g
       id="g84"><g
         clip-path="url(#clipPath90)"
         id="g86"><g
           transform="translate(87.5,50)"
           id="g92"><path
             id="path94"
             style="fill:#9ef7f0;fill-opacity:1;fill-rule:nonzero;stroke:none"
             d="m 0,0 c 0,-16.832 -3.571,-27.038 -12.568,-32.464 -3.703,-2.233 -8.432,0.513 -8.432,4.838 v 5.544 c 0,2.349 -1.903,4.252 -4.252,4.252 h -31.992 c -9.753,0 -17.738,7.865 -17.756,17.618 V 0 c 0,27.78 9.72,37.5 37.5,37.5 C -9.72,37.5 0,27.78 0,0"
             inkscape:connector-curvature="0" /></g><g
           transform="translate(87.5,50)"
           id="g96"><path
             id="path98"
             style="fill:#abfff8;fill-opacity:1;fill-rule:nonzero;stroke:none"
             d="m 0,0 c 0,-16.832 -3.571,-27.038 -12.568,-32.464 -3.703,-2.233 -8.432,0.513 -8.432,4.838 v 5.544 c 0,2.349 -1.903,4.252 -4.252,4.252 h -31.992 c -9.753,0 -17.738,7.865 -17.756,17.618 V 0 c 0,27.78 9.72,37.5 37.5,37.5 C -9.72,37.5 0,27.78 0,0"
             inkscape:connector-curvature="0" /></g></g></g><g
       id="g100"><g
         clip-path="url(#clipPath106)"
         id="g102"><g
           id="g108"><g
             id="g110" /><g
             mask="url(#mask124)"
             id="g136"><g
               id="g138"><path
                 id="path148"
                 style="fill:url(#linearGradient146);stroke:none"
                 d="M 27.611,53.861 44.639,36.833 52.417,44.611 35.389,61.639 Z"
                 inkscape:connector-curvature="0" /></g></g></g></g></g><g
       id="g150"><g
         clip-path="url(#clipPath156)"
         id="g152"><g
           id="g158"><g
             id="g160" /><g
             mask="url(#mask174)"
             id="g186"><g
               id="g188"><path
                 id="path198"
                 style="fill:url(#linearGradient196);stroke:none"
                 d="M 46.111,53.861 62.049,37.924 69.827,45.701 53.888,61.639 Z"
                 inkscape:connector-curvature="0" /></g></g></g></g></g><g
       id="g200"><g
         clip-path="url(#clipPath206)"
         id="g202"><g
           id="g208"><g
             id="g210" /><g
             mask="url(#mask224)"
             id="g236"><g
               id="g238"><path
                 id="path248"
                 style="fill:url(#linearGradient246);stroke:none"
                 d="M 64.611,53.861 79.205,39.268 86.982,47.045 72.389,61.639 Z"
                 inkscape:connector-curvature="0" /></g></g></g></g></g><g
       id="g250"><g
         clip-path="url(#clipPath256)"
         id="g252"><g
           transform="translate(55.5,57.75)"
           id="g258"><path
             id="path260"
             style="fill:#70606c;fill-opacity:1;fill-rule:nonzero;stroke:none"
             d="M 0,0 C 0,3.038 -2.463,5.5 -5.5,5.5 -8.538,5.5 -11,3.038 -11,0 c 0,-3.038 2.462,-5.5 5.5,-5.5 3.037,0 5.5,2.462 5.5,5.5"
             inkscape:connector-curvature="0" /></g><g
           transform="translate(37,57.75)"
           id="g262"><path
             id="path264"
             style="fill:#70606c;fill-opacity:1;fill-rule:nonzero;stroke:none"
             d="M 0,0 C 0,3.038 -2.462,5.5 -5.5,5.5 -8.538,5.5 -11,3.038 -11,0 c 0,-3.038 2.462,-5.5 5.5,-5.5 3.038,0 5.5,2.462 5.5,5.5"
             inkscape:connector-curvature="0" /></g><g
           transform="translate(63,57.75)"
           id="g266"><path
             id="path268"
             style="fill:#70606c;fill-opacity:1;fill-rule:nonzero;stroke:none"
             d="M 0,0 C 0,3.038 2.463,5.5 5.5,5.5 8.537,5.5 11,3.038 11,0 11,-3.038 8.537,-5.5 5.5,-5.5 2.463,-5.5 0,-3.038 0,0"
             inkscape:connector-curvature="0" /></g></g></g></g></svg>