<?xml version="1.0" encoding="UTF-8" standalone="no"?>
<!-- Generator: Adobe Illustrator 22.0.2, SVG Export Plug-In . SVG Version: 6.00 Build 0)  -->

<svg
   xmlns:dc="http://purl.org/dc/elements/1.1/"
   xmlns:cc="http://creativecommons.org/ns#"
   xmlns:rdf="http://www.w3.org/1999/02/22-rdf-syntax-ns#"
   xmlns:svg="http://www.w3.org/2000/svg"
   xmlns="http://www.w3.org/2000/svg"
   xmlns:sodipodi="http://sodipodi.sourceforge.net/DTD/sodipodi-0.dtd"
   xmlns:inkscape="http://www.inkscape.org/namespaces/inkscape"
   version="1.1"
   id="图层_1"
   x="0px"
   y="0px"
   viewBox="0 0 192 192"
   style="enable-background:new 0 0 192 192;"
   xml:space="preserve"
   sodipodi:docname="icon-launcher-folder-09.svg"
   inkscape:version="0.92.2 2405546, 2018-03-11"><metadata
   id="metadata77"><rdf:RDF><cc:Work
       rdf:about=""><dc:format>image/svg+xml</dc:format><dc:type
         rdf:resource="http://purl.org/dc/dcmitype/StillImage" /></cc:Work></rdf:RDF></metadata><defs
   id="defs75" /><sodipodi:namedview
   pagecolor="#ffffff"
   bordercolor="#666666"
   borderopacity="1"
   objecttolerance="10"
   gridtolerance="10"
   guidetolerance="10"
   inkscape:pageopacity="0"
   inkscape:pageshadow="2"
   inkscape:window-width="1366"
   inkscape:window-height="706"
   id="namedview73"
   showgrid="false"
   inkscape:zoom="1.2291667"
   inkscape:cx="96"
   inkscape:cy="96"
   inkscape:window-x="0"
   inkscape:window-y="34"
   inkscape:window-maximized="1"
   inkscape:current-layer="图层_1-2" />
<style
   type="text/css"
   id="style2">
	.st0{fill:none;}
	.st1{opacity:1.000000e-02;enable-background:new    ;}
	.st2{opacity:2.000000e-02;enable-background:new    ;}
	.st3{opacity:4.000000e-02;enable-background:new    ;}
	.st4{opacity:6.000000e-02;enable-background:new    ;}
	.st5{fill:#FFA300;}
	.st6{fill:url(#SVGID_1_);}
	.st7{fill:#FFC200;}
	.st8{fill:#FFD522;}
	.st9{fill:url(#SVGID_2_);}
	.st10{fill:url(#SVGID_3_);}
	.st11{fill:url(#SVGID_4_);}
	.st12{fill:#E58D00;}
</style>
<title
   id="title4">folder_music</title>
<g
   id="图层_2_1_">
	<g
   id="图层_1-2">
		<rect
   class="st0"
   width="192"
   height="192"
   id="rect6"
   x="0"
   y="0"
   style="fill:none" />
		
		<path
   class="st5"
   d="m 186,96 c 0,66.7 -23.3,90 -90,90 C 29.3,186 6,162.7 6,96 6,29.3 29.3,6 96,6 c 66.7,0 90,23.3 90,90 z"
   id="path18"
   inkscape:connector-curvature="0"
   style="fill:#ffa300" />
		
			<linearGradient
   id="SVGID_1_"
   gradientUnits="userSpaceOnUse"
   x1="100.5015"
   y1="144.00301"
   x2="100.5015"
   y2="188"
   gradientTransform="matrix(1,0,0,-1,0,194)">
			<stop
   offset="0"
   style="stop-color:#B96400;stop-opacity:0.4"
   id="stop20" />
			<stop
   offset="0.225"
   style="stop-color:#D17E00;stop-opacity:0.265"
   id="stop22" />
			<stop
   offset="0.527"
   style="stop-color:#EA9900;stop-opacity:0.12"
   id="stop24" />
			<stop
   offset="0.795"
   style="stop-color:#FAAA00;stop-opacity:3.100000e-02"
   id="stop26" />
			<stop
   offset="1"
   style="stop-color:#FFB000;stop-opacity:0"
   id="stop28" />
		</linearGradient>
		<path
   class="st6"
   d="m 71.2,38 c 5.8,7.7 8.6,10.8 9.6,11.7 0.2,0.2 0.5,0.3 0.8,0.3 h 98.6 C 169.7,18.1 144.2,6 96,6 58.3,6 34.4,13.5 20.8,32 h 38.4 c 4.8,-0.1 9.2,2.1 12,6 z"
   id="path31"
   inkscape:connector-curvature="0"
   style="fill:url(#SVGID_1_)" />
		<path
   class="st7"
   d="m 6,96 c 0,66.7 23.3,90 90,90 66.7,0 90,-23.3 90,-90 0,-18.5 -1.8,-33.7 -5.8,-46 H 81.6 C 81.3,50 81,49.9 80.8,49.7 79.9,48.8 77,45.7 71.2,38 68.4,34.2 64,32 59.3,32 H 20.9 C 10.4,46.2 6,67 6,96 Z"
   id="path33"
   inkscape:connector-curvature="0"
   style="fill:#ffc200" />
		<path
   class="st8"
   d="M 7,98 C 7,69 11.4,48.2 21.9,34 h 38.4 c 4.7,-0.1 9.1,2.1 11.9,6 5.8,7.7 8.6,10.8 9.6,11.7 0.2,0.2 0.5,0.3 0.8,0.3 h 98.2 c -0.2,-0.7 -0.4,-1.3 -0.6,-2 H 81.6 C 81.3,50 81,49.9 80.8,49.7 79.9,48.8 77,45.7 71.2,38 68.4,34.2 64,32 59.3,32 H 20.9 C 10.4,46.2 6,67 6,96 6,120.3 9.1,138.9 16.3,152.6 9.8,139.1 7,121.2 7,98 Z"
   id="path35"
   inkscape:connector-curvature="0"
   style="fill:#ffd522" />
		
			<linearGradient
   id="SVGID_2_"
   gradientUnits="userSpaceOnUse"
   x1="166.0041"
   y1="484.0022"
   x2="25.997801"
   y2="343.99591"
   gradientTransform="translate(0,-318)">
			<stop
   offset="0"
   style="stop-color:#000000;stop-opacity:0.1"
   id="stop37" />
			<stop
   offset="0.5"
   style="stop-color:#808080;stop-opacity:5.000000e-02"
   id="stop39" />
			<stop
   offset="1"
   style="stop-color:#FFFFFF;stop-opacity:0.12"
   id="stop41" />
		</linearGradient>
		<path
   class="st9"
   d="m 186,96 c 0,66.7 -23.3,90 -90,90 C 29.3,186 6,162.7 6,96 6,29.3 29.3,6 96,6 c 66.7,0 90,23.3 90,90 z"
   id="path44"
   inkscape:connector-curvature="0"
   style="fill:url(#SVGID_2_)" />
		
			<linearGradient
   id="SVGID_3_"
   gradientUnits="userSpaceOnUse"
   x1="166.0128"
   y1="436.01221"
   x2="25.9872"
   y2="295.98779"
   gradientTransform="translate(0,-270)">
			<stop
   offset="0"
   style="stop-color:#000000;stop-opacity:4.000000e-02"
   id="stop46" />
			<stop
   offset="0.5"
   style="stop-color:#808080;stop-opacity:0"
   id="stop48" />
			<stop
   offset="1"
   style="stop-color:#FFFFFF;stop-opacity:0.1"
   id="stop50" />
		</linearGradient>
		<path
   class="st10"
   d="M 96,6 C 29.3,6 6,29.3 6,96 c 0,66.7 23.3,90 90,90 66.7,0 90,-23.3 90,-90 C 186,29.3 162.7,6 96,6 Z m 68.6,158.6 C 151.2,178 130,184 96,184 62,184 40.8,178 27.4,164.6 14,151.2 8,130 8,96 8,62 14,40.8 27.4,27.4 40.8,14 62,8 96,8 130,8 151.2,14 164.6,27.4 178,40.8 184,62 184,96 c 0,34 -6,55.2 -19.4,68.6 z"
   id="path53"
   inkscape:connector-curvature="0"
   style="fill:url(#SVGID_3_)" />
		<path
   class="st8"
   d="m 67.3,159 c -5.5,0 -9.8,-2.4 -11.3,-6.2 -2.2,-5.8 2.9,-13.1 11.2,-16.3 2.5,-1 5.1,-1.5 7.8,-1.5 2.1,0 4.1,0.4 6.1,1.1 V 85.9 c 0.1,-2.6 1.8,-4.8 4.3,-5.5 l 36.7,-9.2 c 0.4,-0.1 0.7,-0.1 1.1,-0.1 2.1,0 3.7,1.6 3.8,3.7 0,0.1 0,0.2 0,0.2 v 61.1 h -0.1 c -0.6,4.9 -5.2,9.9 -11.6,12.3 -2.5,1 -5.1,1.5 -7.8,1.5 -5.5,0 -9.8,-2.4 -11.3,-6.2 -2.2,-5.8 2.9,-13.1 11.2,-16.3 2.5,-1 5.1,-1.5 7.8,-1.5 2.1,0 4.1,0.4 6.1,1.1 V 91.8 l -34.5,8.6 v 44.7 h -0.1 c -0.6,4.9 -5.2,9.9 -11.6,12.3 -2.5,1.1 -5.1,1.6 -7.8,1.6 z"
   id="path55"
   inkscape:connector-curvature="0"
   style="fill:#ffd522" />
		
			<linearGradient
   id="SVGID_4_"
   gradientUnits="userSpaceOnUse"
   x1="345.2746"
   y1="1119.8224"
   x2="285.9566"
   y2="1060.5034"
   gradientTransform="translate(-233.286,-986.885)">
			<stop
   offset="0"
   style="stop-color:#F0A000"
   id="stop57" />
			<stop
   offset="1"
   style="stop-color:#E59500"
   id="stop59" />
		</linearGradient>
		<path
   class="st11"
   d="m 66.3,156.9 c -5.5,0 -9.8,-2.4 -11.3,-6.2 -2.2,-5.8 2.9,-13.1 11.2,-16.3 2.5,-1 5.1,-1.5 7.8,-1.5 2.1,0 4.1,0.4 6.1,1.1 V 83.9 c 0.1,-2.6 1.8,-4.8 4.3,-5.5 l 36.7,-9.2 c 0.4,-0.1 0.7,-0.1 1.1,-0.1 2.1,0 3.7,1.6 3.8,3.7 0,0.1 0,0.2 0,0.2 v 61 h -0.1 c -0.6,4.9 -5.2,9.9 -11.6,12.3 -2.5,1 -5.1,1.5 -7.8,1.5 -5.5,0 -9.8,-2.4 -11.3,-6.2 -2.2,-5.8 2.9,-13.1 11.2,-16.3 2.5,-1 5.1,-1.5 7.8,-1.5 2.1,0 4.1,0.4 6.1,1.1 V 89.8 l -34.5,8.6 v 44.7 h -0.1 c -0.6,4.9 -5.2,9.9 -11.6,12.3 -2.5,1 -5.2,1.5 -7.8,1.5 z"
   id="path62"
   inkscape:connector-curvature="0"
   style="fill:url(#SVGID_4_)" />
		<g
   id="g68">
			<path
   class="st12"
   d="m 107.4,127.4 c 2.5,-1 5.1,-1.5 7.8,-1.5 2.1,0 4.1,0.4 6.1,1.1 V 91.8 l -1,0.3 v 32.8 c -1.9,-0.8 -4,-1.2 -6.1,-1.1 -2.7,0 -5.3,0.5 -7.8,1.5 -8.3,3.2 -13.4,10.5 -11.2,16.3 0.2,0.6 0.6,1.2 1,1.8 -2,-5.8 3,-12.9 11.2,-16 z"
   id="path64"
   inkscape:connector-curvature="0"
   style="fill:#e58d00" />
			<path
   class="st12"
   d="m 67.2,136.5 c 2.5,-1 5.1,-1.5 7.8,-1.5 2.1,0 4.1,0.4 6.1,1.1 V 85.9 c 0.1,-2.6 1.8,-4.8 4.3,-5.5 l 36.7,-9.2 c 0.4,-0.1 0.7,-0.1 1.1,-0.1 1,0 1.9,0.4 2.7,1.1 -0.3,-1.8 -1.8,-3.2 -3.7,-3.1 -0.4,0 -0.7,0 -1.1,0.1 l -36.7,9.2 c -2.5,0.7 -4.3,2.9 -4.3,5.5 v 50.2 c -1.9,-0.8 -4,-1.2 -6.1,-1.1 -2.7,0 -5.3,0.5 -7.8,1.5 -8.3,3.2 -13.4,10.5 -11.2,16.3 0.2,0.6 0.6,1.2 1,1.8 -1.9,-5.9 3,-13 11.2,-16.1 z"
   id="path66"
   inkscape:connector-curvature="0"
   style="fill:#e58d00" />
		</g>
	</g>
</g>
</svg>