<?xml version="1.0" encoding="UTF-8" standalone="no"?>
<svg
   xmlns:dc="http://purl.org/dc/elements/1.1/"
   xmlns:cc="http://creativecommons.org/ns#"
   xmlns:rdf="http://www.w3.org/1999/02/22-rdf-syntax-ns#"
   xmlns:svg="http://www.w3.org/2000/svg"
   xmlns="http://www.w3.org/2000/svg"
   xmlns:sodipodi="http://sodipodi.sourceforge.net/DTD/sodipodi-0.dtd"
   xmlns:inkscape="http://www.inkscape.org/namespaces/inkscape"
   version="1.1"
   id="svg2"
   xml:space="preserve"
   width="133.33333"
   height="133.33333"
   viewBox="0 0 133.33333 133.33333"
   sodipodi:docname="icon-launcher-email.svg"
   inkscape:version="0.92.2 2405546, 2018-03-11"><sodipodi:namedview
     pagecolor="#ffffff"
     bordercolor="#666666"
     borderopacity="1"
     objecttolerance="10"
     gridtolerance="10"
     guidetolerance="10"
     inkscape:pageopacity="0"
     inkscape:pageshadow="2"
     inkscape:window-width="1366"
     inkscape:window-height="717"
     id="namedview89"
     showgrid="false"
     inkscape:zoom="1.7700001"
     inkscape:cx="66.666664"
     inkscape:cy="66.666664"
     inkscape:window-x="0"
     inkscape:window-y="25"
     inkscape:window-maximized="1"
     inkscape:current-layer="svg2" /><metadata
     id="metadata8"><rdf:RDF><cc:Work
         rdf:about=""><dc:format>image/svg+xml</dc:format><dc:type
           rdf:resource="http://purl.org/dc/dcmitype/StillImage" /></cc:Work></rdf:RDF></metadata><defs
     id="defs6"><clipPath
       clipPathUnits="userSpaceOnUse"
       id="clipPath18"><path
         d="M 50,100 C 12.956,100 0,87.039 0,50 v 0 C 0,12.961 12.956,0 50,0 v 0 c 37.045,0 50,12.961 50,50 v 0 c 0,37.044 -12.955,50 -50,50 z"
         id="path16" /></clipPath><linearGradient
       x1="0"
       y1="0"
       x2="1"
       y2="0"
       gradientUnits="userSpaceOnUse"
       gradientTransform="matrix(77.78125,-77.78125,-77.78125,-77.78125,11.109896,88.891144)"
       spreadMethod="pad"
       id="linearGradient30"><stop
         style="stop-opacity:1;stop-color:#5dc286"
         offset="0"
         id="stop24" /><stop
         style="stop-opacity:1;stop-color:#43c4a2"
         offset="1"
         id="stop26" /><stop
         style="stop-opacity:1;stop-color:#43c4a2"
         offset="1"
         id="stop28" /></linearGradient><clipPath
       clipPathUnits="userSpaceOnUse"
       id="clipPath40"><path
         d="M 50,50 20.853,20.852 41.432,0.275 C 44.137,0.095 46.981,0 50,0 v 0 c 37.045,0 50,12.961 50,50 v 0 c 0,3.02 -0.096,5.863 -0.274,8.568 v 0 l -20.578,20.58 z"
         id="path38" /></clipPath><clipPath
       clipPathUnits="userSpaceOnUse"
       id="clipPath48"><path
         d="M -32768,32767 H 32767 V -32768 H -32768 Z"
         id="path46" /></clipPath><linearGradient
       x1="0"
       y1="0"
       x2="1"
       y2="0"
       gradientUnits="userSpaceOnUse"
       gradientTransform="matrix(38.890621,-38.890621,-38.890621,-38.890621,50.000229,50.000229)"
       spreadMethod="pad"
       id="linearGradient56"><stop
         style="stop-opacity:0.11999695;stop-color:#ffffff"
         offset="0"
         id="stop50" /><stop
         style="stop-opacity:0;stop-color:#ffffff"
         offset="0.849572"
         id="stop52" /><stop
         style="stop-opacity:0;stop-color:#ffffff"
         offset="1"
         id="stop54" /></linearGradient><mask
       maskUnits="userSpaceOnUse"
       x="0"
       y="0"
       width="1"
       height="1"
       id="mask58"><g
         id="g68"><g
           clip-path="url(#clipPath48)"
           id="g66"><g
             id="g64"><g
               id="g62"><path
                 d="M -32768,32767 H 32767 V -32768 H -32768 Z"
                 style="fill:url(#linearGradient56);stroke:none"
                 id="path60" /></g></g></g></g></mask><linearGradient
       x1="0"
       y1="0"
       x2="1"
       y2="0"
       gradientUnits="userSpaceOnUse"
       gradientTransform="matrix(38.890621,-38.890621,-38.890621,-38.890621,50.000229,50.000229)"
       spreadMethod="pad"
       id="linearGradient80"><stop
         style="stop-opacity:1;stop-color:#000000"
         offset="0"
         id="stop74" /><stop
         style="stop-opacity:1;stop-color:#000000"
         offset="0.849572"
         id="stop76" /><stop
         style="stop-opacity:1;stop-color:#000000"
         offset="1"
         id="stop78" /></linearGradient><clipPath
       clipPathUnits="userSpaceOnUse"
       id="clipPath90"><path
         d="M 0,100 H 100 V 0 H 0 Z"
         id="path88" /></clipPath><clipPath
       clipPathUnits="userSpaceOnUse"
       id="clipPath106"><path
         d="M 16.105,72.171 72.171,16.105 C 83.201,21.063 87.5,31.541 87.5,50 v 0 c 0,27.783 -9.717,37.5 -37.5,37.5 v 0 C 31.54,87.5 21.063,83.2 16.105,72.171"
         id="path104" /></clipPath><clipPath
       clipPathUnits="userSpaceOnUse"
       id="clipPath114"><path
         d="M -32768,32767 H 32767 V -32768 H -32768 Z"
         id="path112" /></clipPath><linearGradient
       x1="0"
       y1="0"
       x2="1"
       y2="0"
       gradientUnits="userSpaceOnUse"
       gradientTransform="matrix(58.322639,-58.322639,-58.322639,-58.322639,32.491901,90.814568)"
       spreadMethod="pad"
       id="linearGradient124"><stop
         style="stop-opacity:0.05999847;stop-color:#ffffff"
         offset="0"
         id="stop116" /><stop
         style="stop-opacity:0.05999847;stop-color:#ffffff"
         offset="0.358974"
         id="stop118" /><stop
         style="stop-opacity:0;stop-color:#ffffff"
         offset="0.85641"
         id="stop120" /><stop
         style="stop-opacity:0;stop-color:#ffffff"
         offset="1"
         id="stop122" /></linearGradient><mask
       maskUnits="userSpaceOnUse"
       x="0"
       y="0"
       width="1"
       height="1"
       id="mask126"><g
         id="g136"><g
           clip-path="url(#clipPath114)"
           id="g134"><g
             id="g132"><g
               id="g130"><path
                 d="M -32768,32767 H 32767 V -32768 H -32768 Z"
                 style="fill:url(#linearGradient124);stroke:none"
                 id="path128" /></g></g></g></g></mask><linearGradient
       x1="0"
       y1="0"
       x2="1"
       y2="0"
       gradientUnits="userSpaceOnUse"
       gradientTransform="matrix(58.322639,-58.322639,-58.322639,-58.322639,32.491901,90.814568)"
       spreadMethod="pad"
       id="linearGradient150"><stop
         style="stop-opacity:1;stop-color:#000000"
         offset="0"
         id="stop142" /><stop
         style="stop-opacity:1;stop-color:#000000"
         offset="0.358974"
         id="stop144" /><stop
         style="stop-opacity:1;stop-color:#000000"
         offset="0.85641"
         id="stop146" /><stop
         style="stop-opacity:1;stop-color:#000000"
         offset="1"
         id="stop148" /></linearGradient><clipPath
       clipPathUnits="userSpaceOnUse"
       id="clipPath160"><path
         d="M 0,100 H 100 V 0 H 0 Z"
         id="path158" /></clipPath><clipPath
       clipPathUnits="userSpaceOnUse"
       id="clipPath168"><path
         d="M 16.1047,87.5 H 83.8958 V 48.5437 H 16.1047 Z"
         id="path166" /></clipPath></defs><g
     id="g10"
     transform="matrix(1.25,0,0,-1.25,4,129.33333)"><g
       id="g12"><g
         id="g14"
         clip-path="url(#clipPath18)"><g
           id="g20"><g
             id="g22"><path
               d="M 50,100 C 12.956,100 0,87.039 0,50 v 0 C 0,12.961 12.956,0 50,0 v 0 c 37.045,0 50,12.961 50,50 v 0 c 0,37.044 -12.955,50 -50,50 z"
               style="fill:url(#linearGradient30);stroke:none"
               id="path32"
               inkscape:connector-curvature="0" /></g></g></g></g><g
       id="g34"><g
         id="g36"
         clip-path="url(#clipPath40)"><g
           id="g42"><g
             id="g44" /><g
             id="g70"
             mask="url(#mask58)"><g
               id="g72"><path
                 d="M 50,50 20.853,20.852 41.432,0.275 C 44.137,0.095 46.981,0 50,0 v 0 c 37.045,0 50,12.961 50,50 v 0 c 0,3.02 -0.096,5.863 -0.274,8.568 v 0 l -20.578,20.58 z"
                 style="fill:url(#linearGradient80);stroke:none"
                 id="path82"
                 inkscape:connector-curvature="0" /></g></g></g></g></g><g
       id="g84"><g
         id="g86"
         clip-path="url(#clipPath90)"><g
           id="g92"
           transform="translate(87.5,50)"><path
             d="m 0,0 c 0,-27.779 -9.717,-37.5 -37.5,-37.5 -27.783,0 -37.5,9.721 -37.5,37.5 0,27.779 9.717,37.5 37.5,37.5 C -9.717,37.5 0,27.783 0,0"
             style="fill:#e8da9a;fill-opacity:1;fill-rule:nonzero;stroke:none"
             id="path94"
             inkscape:connector-curvature="0" /></g><g
           id="g96"
           transform="translate(50,12.5)"><path
             d="M 0,0 C 18.461,0 28.937,4.3 33.896,15.329 L 17.529,31.695 c -9.681,9.681 -25.377,9.681 -35.058,0 L -33.896,15.329 C -28.937,4.3 -18.46,0 0,0"
             style="fill:#f5eba8;fill-opacity:1;fill-rule:nonzero;stroke:none"
             id="path98"
             inkscape:connector-curvature="0" /></g></g></g><g
       id="g100"><g
         id="g102"
         clip-path="url(#clipPath106)"><g
           id="g108"><g
             id="g110" /><g
             id="g138"
             mask="url(#mask126)"><g
               id="g140"><path
                 d="M 16.105,72.171 72.171,16.105 C 83.201,21.063 87.5,31.541 87.5,50 v 0 c 0,27.783 -9.717,37.5 -37.5,37.5 v 0 C 31.54,87.5 21.063,83.2 16.105,72.171"
                 style="fill:url(#linearGradient150);stroke:none"
                 id="path152"
                 inkscape:connector-curvature="0" /></g></g></g></g></g><g
       id="g154"><g
         id="g156"
         clip-path="url(#clipPath160)"><g
           id="g162"><g
             id="g164" /><g
             id="g176"><g
               clip-path="url(#clipPath168)"
               id="g174"
               style="opacity:0.69999701"><g
                 transform="translate(50,87.5)"
                 id="g172"><path
                   d="m 0,0 c -18.46,0 -28.937,-4.3 -33.896,-15.329 l 16.367,-16.367 c 9.681,-9.681 25.377,-9.681 35.058,0 l 16.367,16.367 C 28.938,-4.299 18.461,0 0,0"
                   style="fill:#ffffff;fill-opacity:1;fill-rule:nonzero;stroke:none"
                   id="path170"
                   inkscape:connector-curvature="0" /></g></g></g></g></g></g></g></svg>