<?xml version="1.0" encoding="UTF-8" standalone="no"?>
<svg
   xmlns:dc="http://purl.org/dc/elements/1.1/"
   xmlns:cc="http://creativecommons.org/ns#"
   xmlns:rdf="http://www.w3.org/1999/02/22-rdf-syntax-ns#"
   xmlns:svg="http://www.w3.org/2000/svg"
   xmlns="http://www.w3.org/2000/svg"
   xmlns:sodipodi="http://sodipodi.sourceforge.net/DTD/sodipodi-0.dtd"
   xmlns:inkscape="http://www.inkscape.org/namespaces/inkscape"
   viewBox="0 0 133.33333 133.33333"
   height="133.33333"
   width="133.33333"
   xml:space="preserve"
   id="svg2"
   version="1.1"
   sodipodi:docname="icon-launcher-store.svg"
   inkscape:version="0.92.2 2405546, 2018-03-11"><sodipodi:namedview
     pagecolor="#ffffff"
     bordercolor="#666666"
     borderopacity="1"
     objecttolerance="10"
     gridtolerance="10"
     guidetolerance="10"
     inkscape:pageopacity="0"
     inkscape:pageshadow="2"
     inkscape:window-width="1366"
     inkscape:window-height="717"
     id="namedview121"
     showgrid="false"
     inkscape:zoom="1.7700001"
     inkscape:cx="66.666664"
     inkscape:cy="66.666664"
     inkscape:window-x="0"
     inkscape:window-y="25"
     inkscape:window-maximized="1"
     inkscape:current-layer="svg2" /><metadata
     id="metadata8"><rdf:RDF><cc:Work
         rdf:about=""><dc:format>image/svg+xml</dc:format><dc:type
           rdf:resource="http://purl.org/dc/dcmitype/StillImage" /></cc:Work></rdf:RDF></metadata><defs
     id="defs6"><clipPath
       id="clipPath18"
       clipPathUnits="userSpaceOnUse"><path
         id="path16"
         d="M 50,100 C 12.956,100 0,87.039 0,50 v 0 C 0,12.961 12.956,0 50,0 v 0 c 37.045,0 50,12.961 50,50 v 0 c 0,37.044 -12.955,50 -50,50 z" /></clipPath><linearGradient
       id="linearGradient32"
       spreadMethod="pad"
       gradientTransform="matrix(77.78125,-77.78125,-77.78125,-77.78125,11.109896,88.891144)"
       gradientUnits="userSpaceOnUse"
       y2="0"
       x2="1"
       y1="0"
       x1="0"><stop
         id="stop24"
         offset="0"
         style="stop-opacity:1;stop-color:#fcfcfc" /><stop
         id="stop26"
         offset="0.14086381"
         style="stop-opacity:1;stop-color:#fcfcfc" /><stop
         id="stop28"
         offset="0.999999"
         style="stop-opacity:1;stop-color:#f2f2f2" /><stop
         id="stop30"
         offset="1"
         style="stop-opacity:1;stop-color:#f2f2f2" /></linearGradient><clipPath
       id="clipPath42"
       clipPathUnits="userSpaceOnUse"><path
         id="path40"
         d="M 50.063,48.321 21.734,19.993 41.453,0.273 C 44.152,0.095 46.988,0 50,0 v 0 c 37.045,0 50,12.961 50,50 v 0 c 0,3.009 -0.096,5.842 -0.273,8.54 v 0 L 80.005,78.263 Z" /></clipPath><clipPath
       id="clipPath50"
       clipPathUnits="userSpaceOnUse"><path
         id="path48"
         d="M -32768,32767 H 32767 V -32768 H -32768 Z" /></clipPath><linearGradient
       id="linearGradient56"
       spreadMethod="pad"
       gradientTransform="matrix(38.019497,-38.019497,-38.019497,-38.019497,50.86943,49.127182)"
       gradientUnits="userSpaceOnUse"
       y2="0"
       x2="1"
       y1="0"
       x1="0"><stop
         id="stop52"
         offset="0"
         style="stop-opacity:0.07998779;stop-color:#ffffff" /><stop
         id="stop54"
         offset="1"
         style="stop-opacity:0;stop-color:#ffffff" /></linearGradient><mask
       id="mask58"
       height="1"
       width="1"
       y="0"
       x="0"
       maskUnits="userSpaceOnUse"><g
         id="g68"><g
           id="g66"
           clip-path="url(#clipPath50)"><g
             id="g64"><g
               id="g62"><path
                 id="path60"
                 style="fill:url(#linearGradient56);stroke:none"
                 d="M -32768,32767 H 32767 V -32768 H -32768 Z" /></g></g></g></g></mask><linearGradient
       id="linearGradient78"
       spreadMethod="pad"
       gradientTransform="matrix(38.019497,-38.019497,-38.019497,-38.019497,50.86943,49.127182)"
       gradientUnits="userSpaceOnUse"
       y2="0"
       x2="1"
       y1="0"
       x1="0"><stop
         id="stop74"
         offset="0"
         style="stop-opacity:1;stop-color:#231815" /><stop
         id="stop76"
         offset="1"
         style="stop-opacity:1;stop-color:#231815" /></linearGradient><clipPath
       id="clipPath88"
       clipPathUnits="userSpaceOnUse"><path
         id="path86"
         d="M 12.5,50 C 12.5,22.221 22.217,12.5 50,12.5 v 0 c 27.783,0 37.5,9.721 37.5,37.5 v 0 c 0,27.783 -9.717,37.5 -37.5,37.5 v 0 C 22.217,87.5 12.5,77.779 12.5,50" /></clipPath><linearGradient
       id="linearGradient102"
       spreadMethod="pad"
       gradientTransform="matrix(58.335937,-58.335937,-58.335937,-58.335937,20.832422,79.168358)"
       gradientUnits="userSpaceOnUse"
       y2="0"
       x2="1"
       y1="0"
       x1="0"><stop
         id="stop94"
         offset="0"
         style="stop-opacity:1;stop-color:#6ce7f7" /><stop
         id="stop96"
         offset="0.14086381"
         style="stop-opacity:1;stop-color:#6ce7f7" /><stop
         id="stop98"
         offset="0.999999"
         style="stop-opacity:1;stop-color:#50a2eb" /><stop
         id="stop100"
         offset="1"
         style="stop-opacity:1;stop-color:#50a2eb" /></linearGradient><clipPath
       id="clipPath112"
       clipPathUnits="userSpaceOnUse"><path
         id="path110"
         d="m 35.51,77.68 c 0.28,-0.27 0.45,-0.62 0.5,-1.02 v 0 c 0.72,-6.75 6.22,-12.071 13.04,-12.51 v 0 L 35.51,77.701 Z" /></clipPath><clipPath
       id="clipPath120"
       clipPathUnits="userSpaceOnUse"><path
         id="path118"
         d="M -32768,32767 H 32767 V -32768 H -32768 Z" /></clipPath><linearGradient
       id="linearGradient126"
       spreadMethod="pad"
       gradientTransform="matrix(13.544983,-13.544983,-13.544983,-13.544983,34.276867,76.466873)"
       gradientUnits="userSpaceOnUse"
       y2="0"
       x2="1"
       y1="0"
       x1="0"><stop
         id="stop122"
         offset="0"
         style="stop-opacity:0.07998779;stop-color:#ffffff" /><stop
         id="stop124"
         offset="1"
         style="stop-opacity:0;stop-color:#ffffff" /></linearGradient><mask
       id="mask128"
       height="1"
       width="1"
       y="0"
       x="0"
       maskUnits="userSpaceOnUse"><g
         id="g138"><g
           id="g136"
           clip-path="url(#clipPath120)"><g
             id="g134"><g
               id="g132"><path
                 id="path130"
                 style="fill:url(#linearGradient126);stroke:none"
                 d="M -32768,32767 H 32767 V -32768 H -32768 Z" /></g></g></g></g></mask><linearGradient
       id="linearGradient148"
       spreadMethod="pad"
       gradientTransform="matrix(13.544983,-13.544983,-13.544983,-13.544983,34.276867,76.466873)"
       gradientUnits="userSpaceOnUse"
       y2="0"
       x2="1"
       y1="0"
       x1="0"><stop
         id="stop144"
         offset="0"
         style="stop-opacity:1;stop-color:#231815" /><stop
         id="stop146"
         offset="1"
         style="stop-opacity:1;stop-color:#231815" /></linearGradient><clipPath
       id="clipPath158"
       clipPathUnits="userSpaceOnUse"><path
         id="path156"
         d="M 67.309,76.31 C 66.37,67.58 58.981,60.781 50,60.781 v 0 c -4.7,0 -8.96,1.859 -12.09,4.879 v 0 L 80.84,22.74 C 85.531,28.679 87.5,37.51 87.5,50 v 0 c 0,2.58 -0.08,5 -0.259,7.281 v 0 L 66.849,77.67 c 0.331,-0.35 0.512,-0.83 0.46,-1.36" /></clipPath><clipPath
       id="clipPath166"
       clipPathUnits="userSpaceOnUse"><path
         id="path164"
         d="M -32768,32767 H 32767 V -32768 H -32768 Z" /></clipPath><linearGradient
       id="linearGradient174"
       spreadMethod="pad"
       gradientTransform="matrix(42.925049,-42.925049,-42.925049,-42.925049,48.147476,75.897537)"
       gradientUnits="userSpaceOnUse"
       y2="0"
       x2="1"
       y1="0"
       x1="0"><stop
         id="stop168"
         offset="0"
         style="stop-opacity:0.07998779;stop-color:#ffffff" /><stop
         id="stop170"
         offset="0.634188"
         style="stop-opacity:0;stop-color:#ffffff" /><stop
         id="stop172"
         offset="1"
         style="stop-opacity:0;stop-color:#ffffff" /></linearGradient><mask
       id="mask176"
       height="1"
       width="1"
       y="0"
       x="0"
       maskUnits="userSpaceOnUse"><g
         id="g186"><g
           id="g184"
           clip-path="url(#clipPath166)"><g
             id="g182"><g
               id="g180"><path
                 id="path178"
                 style="fill:url(#linearGradient174);stroke:none"
                 d="M -32768,32767 H 32767 V -32768 H -32768 Z" /></g></g></g></g></mask><linearGradient
       id="linearGradient198"
       spreadMethod="pad"
       gradientTransform="matrix(42.925049,-42.925049,-42.925049,-42.925049,48.147476,75.897537)"
       gradientUnits="userSpaceOnUse"
       y2="0"
       x2="1"
       y1="0"
       x1="0"><stop
         id="stop192"
         offset="0"
         style="stop-opacity:1;stop-color:#231815" /><stop
         id="stop194"
         offset="0.634188"
         style="stop-opacity:1;stop-color:#231815" /><stop
         id="stop196"
         offset="1"
         style="stop-opacity:1;stop-color:#231815" /></linearGradient><clipPath
       id="clipPath208"
       clipPathUnits="userSpaceOnUse"><path
         id="path206"
         d="M 0,100 H 100 V 0 H 0 Z" /></clipPath><clipPath
       id="clipPath216"
       clipPathUnits="userSpaceOnUse"><path
         id="path214"
         d="M 32.68,78.18 H 67.3183 V 60.78 H 32.68 Z" /></clipPath></defs><g
     transform="matrix(1.25,0,0,-1.25,4,129.33333)"
     id="g10"><g
       id="g12"><g
         clip-path="url(#clipPath18)"
         id="g14"><g
           id="g20"><g
             id="g22"><path
               id="path34"
               style="fill:url(#linearGradient32);stroke:none"
               d="M 50,100 C 12.956,100 0,87.039 0,50 v 0 C 0,12.961 12.956,0 50,0 v 0 c 37.045,0 50,12.961 50,50 v 0 c 0,37.044 -12.955,50 -50,50 z"
               inkscape:connector-curvature="0" /></g></g></g></g><g
       id="g36"><g
         clip-path="url(#clipPath42)"
         id="g38"><g
           id="g44"><g
             id="g46" /><g
             mask="url(#mask58)"
             id="g70"><g
               id="g72"><path
                 id="path80"
                 style="fill:url(#linearGradient78);stroke:none"
                 d="M 50.063,48.321 21.734,19.993 41.453,0.273 C 44.152,0.095 46.988,0 50,0 v 0 c 37.045,0 50,12.961 50,50 v 0 c 0,3.009 -0.096,5.842 -0.273,8.54 v 0 L 80.005,78.263 Z"
                 inkscape:connector-curvature="0" /></g></g></g></g></g><g
       id="g82"><g
         clip-path="url(#clipPath88)"
         id="g84"><g
           id="g90"><g
             id="g92"><path
               id="path104"
               style="fill:url(#linearGradient102);stroke:none"
               d="M 12.5,50 C 12.5,22.221 22.217,12.5 50,12.5 v 0 c 27.783,0 37.5,9.721 37.5,37.5 v 0 c 0,27.783 -9.717,37.5 -37.5,37.5 v 0 C 22.217,87.5 12.5,77.779 12.5,50"
               inkscape:connector-curvature="0" /></g></g></g></g><g
       id="g106"><g
         clip-path="url(#clipPath112)"
         id="g108"><g
           id="g114"><g
             id="g116" /><g
             mask="url(#mask128)"
             id="g140"><g
               id="g142"><path
                 id="path150"
                 style="fill:url(#linearGradient148);stroke:none"
                 d="m 35.51,77.68 c 0.28,-0.27 0.45,-0.62 0.5,-1.02 v 0 c 0.72,-6.75 6.22,-12.071 13.04,-12.51 v 0 L 35.51,77.701 Z"
                 inkscape:connector-curvature="0" /></g></g></g></g></g><g
       id="g152"><g
         clip-path="url(#clipPath158)"
         id="g154"><g
           id="g160"><g
             id="g162" /><g
             mask="url(#mask176)"
             id="g188"><g
               id="g190"><path
                 id="path200"
                 style="fill:url(#linearGradient198);stroke:none"
                 d="M 67.309,76.31 C 66.37,67.58 58.981,60.781 50,60.781 v 0 c -4.7,0 -8.96,1.859 -12.09,4.879 v 0 L 80.84,22.74 C 85.531,28.679 87.5,37.51 87.5,50 v 0 c 0,2.58 -0.08,5 -0.259,7.281 v 0 L 66.849,77.67 c 0.331,-0.35 0.512,-0.83 0.46,-1.36"
                 inkscape:connector-curvature="0" /></g></g></g></g></g><g
       id="g202"><g
         clip-path="url(#clipPath208)"
         id="g204"><g
           id="g210"><g
             id="g212" /><g
             id="g224"><g
               style="opacity:0.60000598"
               id="g222"
               clip-path="url(#clipPath216)"><g
                 id="g220"
                 transform="translate(67.3096,76.3101)"><path
                   id="path218"
                   style="fill:#ffffff;fill-opacity:1;fill-rule:nonzero;stroke:none"
                   d="m 0,0 c -0.939,-8.73 -8.329,-15.53 -17.31,-15.53 -4.7,0 -8.96,1.86 -12.089,4.88 v 0.01 c -2.861,2.75 -4.77,6.47 -5.221,10.64 -0.009,0.06 -0.009,0.12 -0.009,0.18 0,0.92 0.73,1.69 1.67,1.69 0.459,0 0.879,-0.19 1.159,-0.5 0.28,-0.27 0.45,-0.62 0.5,-1.02 0.72,-6.75 6.22,-12.07 13.04,-12.51 0.321,-0.03 0.631,-0.04 0.95,-0.04 7.26,0 13.241,5.49 13.991,12.55 0.099,0.86 0.799,1.52 1.66,1.52 0.47,0 0.899,-0.2 1.199,-0.51 C -0.13,1.01 0.051,0.53 0,0"
                   inkscape:connector-curvature="0" /></g></g></g></g><g
           transform="translate(54.0762,54.1353)"
           id="g226"><path
             id="path228"
             style="fill:none;stroke:#ffffff;stroke-width:1;stroke-linecap:round;stroke-linejoin:round;stroke-miterlimit:10;stroke-dasharray:none;stroke-opacity:1"
             d="m 0,0 c -0.132,-0.395 -0.247,-0.798 -0.346,-1.201 -0.091,-0.361 -0.165,-0.715 -0.23,-1.077 -0.238,-1.423 -0.255,-2.862 -0.082,-4.276 0.008,-0.041 0.016,-0.082 0.024,-0.132 -0.057,-0.032 -0.115,-0.065 -0.164,-0.099 -0.954,-0.55 -1.891,-1.142 -2.805,-1.784 -0.69,-0.485 -1.364,-0.987 -2.031,-1.529 -0.608,-0.485 -1.208,-0.995 -1.792,-1.53 -0.272,0.584 -0.445,1.201 -0.535,1.842 -0.099,0.682 -0.082,1.373 0.041,2.064 v 0.009 c 0.099,0.625 0.304,1.241 0.601,1.834 0.073,0.147 0.156,0.287 0.246,0.435 0.395,0.65 0.872,1.201 1.423,1.661 0.123,0.099 0.238,0.198 0.37,0.288 0.362,0.304 0.74,0.584 1.118,0.855 1.11,0.814 2.262,1.555 3.437,2.237 C -0.485,-0.271 -0.247,-0.131 0,0 Z"
             inkscape:connector-curvature="0" /></g><g
           transform="translate(52.4717,33.8887)"
           id="g230"><path
             id="path232"
             style="fill:none;stroke:#ffffff;stroke-width:1;stroke-linecap:round;stroke-linejoin:round;stroke-miterlimit:10;stroke-dasharray:none;stroke-opacity:1"
             d="M 0,0 C 0,-1.356 -0.402,-2.623 -1.109,-3.676 -1.176,-3.783 -1.258,-3.89 -1.332,-3.988 -1.406,-4.087 -1.48,-4.186 -1.554,-4.276 -2.73,-5.798 -4.062,-7.122 -5.518,-8.257 c 0.148,0.19 0.288,0.387 0.412,0.593 0.279,0.452 0.518,0.921 0.699,1.397 0.403,1.012 0.592,2.065 0.592,3.109 0,0.148 -0.009,0.296 -0.017,0.436 -0.106,1.546 -0.806,3.027 -2.015,4.095 -0.23,0.206 -0.477,0.387 -0.74,0.552 -0.024,0.024 -0.057,0.049 -0.09,0.065 -0.025,0.017 -0.05,0.033 -0.074,0.041 -0.189,0.123 -0.378,0.247 -0.551,0.395 -0.823,0.641 -1.505,1.464 -1.966,2.418 -0.032,0.049 -0.057,0.098 -0.074,0.148 -0.139,0.287 -0.255,0.592 -0.353,0.912 -0.148,0.494 -0.247,1.012 -0.28,1.538 -0.008,0.164 -0.016,0.321 -0.016,0.486 0,1.127 0.263,2.187 0.74,3.133 0.288,0.576 0.649,1.102 1.077,1.571 0.025,0.024 0.049,0.057 0.074,0.082 0.05,0.049 0.099,0.106 0.157,0.156 0.024,0.033 0.057,0.066 0.082,0.099 1.209,1.266 2.483,2.434 3.816,3.495 -0.552,-0.461 -1.029,-1.012 -1.423,-1.661 -0.091,-0.149 -0.173,-0.288 -0.247,-0.436 -0.296,-0.593 -0.502,-1.209 -0.6,-1.834 v -0.009 c -0.123,-0.69 -0.14,-1.381 -0.041,-2.063 0.09,-0.642 0.263,-1.259 0.534,-1.843 0.518,-1.142 1.365,-2.154 2.509,-2.861 0.032,-0.026 0.065,-0.05 0.098,-0.067 0,0 0.008,0 0.008,-0.007 H -3.19 C -3.166,5.658 -3.141,5.649 -3.116,5.633 -1.661,4.721 -0.583,3.257 -0.181,1.538 -0.057,1.044 0,0.526 0,0 Z"
             inkscape:connector-curvature="0" /></g><g
           transform="translate(48.6563,30.7305)"
           id="g234"><path
             id="path236"
             style="fill:none;stroke:#ffffff;stroke-width:1;stroke-linecap:round;stroke-linejoin:round;stroke-miterlimit:10;stroke-dasharray:none;stroke-opacity:1"
             d="m 0,0 c 0,-1.044 -0.189,-2.097 -0.592,-3.108 -0.181,-0.477 -0.419,-0.946 -0.699,-1.398 -0.124,-0.206 -0.263,-0.403 -0.411,-0.593 -1.892,-1.488 -3.988,-2.639 -6.193,-3.445 -1.694,-0.625 -3.462,-1.045 -5.246,-1.242 1.102,0.379 2.146,0.822 3.141,1.333 1.341,0.682 2.583,1.472 3.676,2.368 0.025,0.024 0.05,0.041 0.074,0.065 1.003,0.823 1.834,1.703 2.492,2.599 1.875,2.533 2.418,5.305 1.727,7.952 C -0.822,3.463 -0.123,1.982 -0.016,0.437 -0.008,0.296 0,0.148 0,0 Z"
             inkscape:connector-curvature="0" /></g><g
           transform="translate(67.875,47.5889)"
           id="g238"><path
             id="path240"
             style="fill:none;stroke:#ffffff;stroke-width:1;stroke-linecap:round;stroke-linejoin:round;stroke-miterlimit:10;stroke-dasharray:none;stroke-opacity:1"
             d="m 0,0 c -1.966,-0.979 -8.586,-3.067 -8.586,-3.067 -1.019,-0.329 -2.022,-0.699 -3.01,-1.119 -0.188,-0.074 -0.378,-0.156 -0.567,-0.247 -0.272,-0.106 -0.542,-0.229 -0.806,-0.361 -1.949,-0.896 -3.832,-1.974 -5.633,-3.216 h -0.016 c -0.033,0.017 -0.066,0.041 -0.099,0.067 -1.143,0.707 -1.99,1.718 -2.508,2.861 0.584,0.535 1.184,1.045 1.792,1.53 0.667,0.542 1.341,1.044 2.032,1.53 0.913,0.641 1.85,1.233 2.804,1.784 0.049,0.033 0.107,0.066 0.164,0.098 0.171,-0.513 0.979,-0.954 1.472,-1.241 0,0 0,-0.009 0.009,-0.009 0.022,-0.013 0.054,-0.032 0.094,-0.054 1.017,-0.574 2.201,-0.768 3.353,-0.581 C -6.908,-1.604 -1.985,-0.746 0,0 Z"
             inkscape:connector-curvature="0" /></g></g></g></g></svg>