<svg xmlns="http://www.w3.org/2000/svg" xmlns:xlink="http://www.w3.org/1999/xlink" width="192" height="192" viewBox="0 0 192 192">
  <defs>
    <style>
      .cls-1 {
        fill: none;
      }

      .cls-2 {
        opacity: 0.01;
      }

      .cls-2, .cls-3, .cls-4, .cls-5 {
        isolation: isolate;
      }

      .cls-3 {
        opacity: 0.02;
      }

      .cls-4 {
        opacity: 0.04;
      }

      .cls-5 {
        opacity: 0.06;
      }

      .cls-6 {
        fill: #ffa300;
      }

      .cls-7 {
        fill: url(#未命名的渐变_6);
      }

      .cls-8 {
        fill: #ffc200;
      }

      .cls-9 {
        fill: #ffd522;
      }

      .cls-10 {
        fill: url(#未命名的渐变_5);
      }

      .cls-11 {
        fill: url(#未命名的渐变_3);
      }

      .cls-12 {
        fill: url(#未命名的渐变_4);
      }

      .cls-13 {
        fill: #e58d00;
      }
    </style>
    <linearGradient id="未命名的渐变_6" data-name="未命名的渐变 6" x1="100.5" y1="368" x2="100.5" y2="324" gradientTransform="translate(0 -318)" gradientUnits="userSpaceOnUse">
      <stop offset="0" stop-color="#b96400" stop-opacity="0.4"/>
      <stop offset="0.225" stop-color="#d17e00" stop-opacity="0.265"/>
      <stop offset="0.527" stop-color="#ea9900" stop-opacity="0.12"/>
      <stop offset="0.795" stop-color="#faaa00" stop-opacity="0.031"/>
      <stop offset="1" stop-color="#ffb000" stop-opacity="0"/>
    </linearGradient>
    <linearGradient id="未命名的渐变_5" data-name="未命名的渐变 5" x1="166.012" y1="-290.012" x2="25.988" y2="-149.988" gradientTransform="matrix(1, 0, 0, -1, 0, -124)" gradientUnits="userSpaceOnUse">
      <stop offset="0" stop-opacity="0.1"/>
      <stop offset="0.5" stop-color="gray" stop-opacity="0.05"/>
      <stop offset="1" stop-color="#fff" stop-opacity="0.12"/>
    </linearGradient>
    <linearGradient id="未命名的渐变_3" data-name="未命名的渐变 3" x1="166.013" y1="-242.012" x2="25.987" y2="-101.988" gradientTransform="matrix(1, 0, 0, -1, 0, -76)" gradientUnits="userSpaceOnUse">
      <stop offset="0" stop-opacity="0.04"/>
      <stop offset="0.5" stop-color="gray" stop-opacity="0"/>
      <stop offset="1" stop-color="#fff" stop-opacity="0.1"/>
    </linearGradient>
    <linearGradient id="未命名的渐变_4" data-name="未命名的渐变 4" x1="126.033" y1="152.16" x2="55.873" y2="82" gradientUnits="userSpaceOnUse">
      <stop offset="0" stop-color="#f0a000"/>
      <stop offset="1" stop-color="#e59500"/>
    </linearGradient>
  </defs>
  <title>folder_news</title>
  <g id="图层_2" data-name="图层 2">
    <g id="图层_1-2" data-name="图层 1">
      <rect class="cls-1" width="192" height="192"/>
      <g>
        <path class="cls-2" d="M96,190C27.3,190,3,165.7,3,97S27.3,4,96,4s93,24.3,93,93S164.7,190,96,190Z"/>
        <path class="cls-3" d="M96,189C28.1,189,4,164.9,4,97S28.1,5,96,5s92,24.1,92,92S163.9,189,96,189Z"/>
        <path class="cls-4" d="M96,188C28.8,188,5,164.2,5,97S28.8,6,96,6s91,23.8,91,91S163.2,188,96,188Z"/>
        <path class="cls-5" d="M186,97c0,66.7-23.3,90-90,90S6,163.7,6,97,29.3,7,96,7,186,30.3,186,97Z"/>
      </g>
      <path class="cls-6" d="M186,96c0,66.7-23.3,90-90,90S6,162.7,6,96,29.3,6,96,6,186,29.3,186,96Z"/>
      <path class="cls-7" d="M71.2,38c5.8,7.7,8.6,10.8,9.6,11.7a1.135,1.135,0,0,0,.8.3h98.6C169.7,18.1,144.2,6,96,6,58.3,6,34.4,13.5,20.8,32H59.2A14.255,14.255,0,0,1,71.2,38Z"/>
      <path class="cls-8" d="M6,96c0,66.7,23.3,90,90,90s90-23.3,90-90c0-18.5-1.8-33.7-5.8-46H81.6a1.135,1.135,0,0,1-.8-.3A120.51,120.51,0,0,1,71.2,38a14.732,14.732,0,0,0-11.9-6H20.9C10.4,46.2,6,67,6,96Z"/>
      <path class="cls-9" d="M7,98c0-29,4.4-49.8,14.9-64H60.3a14.2,14.2,0,0,1,11.9,6c5.8,7.7,8.6,10.8,9.6,11.7a1.135,1.135,0,0,0,.8.3h98.2c-.2-.7-.4-1.3-.6-2H81.6a1.135,1.135,0,0,1-.8-.3A120.51,120.51,0,0,1,71.2,38a14.732,14.732,0,0,0-11.9-6H20.9C10.4,46.2,6,67,6,96c0,24.3,3.1,42.9,10.3,56.6C9.8,139.1,7,121.2,7,98Z"/>
      <path class="cls-10" d="M186,96c0,66.7-23.3,90-90,90S6,162.7,6,96,29.3,6,96,6,186,29.3,186,96Z"/>
      <path class="cls-11" d="M96,6C29.3,6,6,29.3,6,96s23.3,90,90,90,90-23.3,90-90S162.7,6,96,6Zm68.6,158.6C151.2,178,130,184,96,184s-55.2-6-68.6-19.4S8,130,8,96s6-55.2,19.4-68.6S62,8,96,8s55.2,6,68.6,19.4S184,62,184,96,178,151.2,164.6,164.6Z"/>
      <path class="cls-9" d="M85.033,136a10,10,0,1,1-10-10A10,10,0,0,1,85.033,136Zm-20-34.887V112a34,34,0,0,1,34,34h10.886a3,3,0,0,0,3.011-3.165A48.007,48.007,0,0,0,68.2,98.1,3,3,0,0,0,65.033,101.113Zm0-24.019V88a58,58,0,0,1,58,58h10.906a3.029,3.029,0,0,0,3.026-3.154A72,72,0,0,0,68.187,74.068,3.029,3.029,0,0,0,65.033,77.094Z"/>
      <path class="cls-12" d="M84.033,134a10,10,0,1,1-10-10A10,10,0,0,1,84.033,134Zm-20-34.887V110a34,34,0,0,1,34,34h10.886a3,3,0,0,0,3.011-3.165A48.007,48.007,0,0,0,67.2,96.1,3,3,0,0,0,64.033,99.113Zm0-24.019V86a58,58,0,0,1,58,58h10.906a3.029,3.029,0,0,0,3.026-3.154A72,72,0,0,0,67.187,72.068,3.029,3.029,0,0,0,64.033,75.094Z"/>
      <g>
        <path class="cls-13" d="M65.033,101.113A3,3,0,0,1,68.2,98.1,48,48,0,0,1,107.484,123.6,48.014,48.014,0,0,0,67.2,96.1a3,3,0,0,0-3.165,3.01V110c.335,0,.666.016,1,.025Z"/>
        <path class="cls-13" d="M65.033,136a10,10,0,0,1,18.373-5.457,9.994,9.994,0,1,0-17.747,8.914A9.961,9.961,0,0,1,65.033,136Z"/>
        <path class="cls-13" d="M65.033,77.094a3.029,3.029,0,0,1,3.154-3.026A71.993,71.993,0,0,1,128.91,112.78,72,72,0,0,0,67.187,72.068a3.029,3.029,0,0,0-3.154,3.026V86c.335,0,.665.02,1,.025Z"/>
        <path class="cls-13" d="M94.893,129.731A33.86,33.86,0,0,1,98.033,144h.936A33.8,33.8,0,0,0,94.893,129.731Z"/>
        <path class="cls-13" d="M116.5,119.26A57.755,57.755,0,0,1,122.033,144h.949A57.661,57.661,0,0,0,116.5,119.26Z"/>
      </g>
    </g>
  </g>
</svg>
