<svg xmlns="http://www.w3.org/2000/svg" xmlns:xlink="http://www.w3.org/1999/xlink" width="192" height="192" viewBox="0 0 192 192">
  <defs>
    <style>
      .cls-1 {
        fill: none;
      }

      .cls-2 {
        opacity: 0.01;
      }

      .cls-2, .cls-3, .cls-4, .cls-5 {
        isolation: isolate;
      }

      .cls-3 {
        opacity: 0.02;
      }

      .cls-4 {
        opacity: 0.04;
      }

      .cls-5 {
        opacity: 0.06;
      }

      .cls-6 {
        fill: #ffa300;
      }

      .cls-7 {
        fill: url(#未命名的渐变_44);
      }

      .cls-8 {
        fill: #ffc200;
      }

      .cls-9 {
        fill: #ffd522;
      }

      .cls-10 {
        fill: url(#未命名的渐变_15);
      }

      .cls-11 {
        fill: url(#未命名的渐变_2);
      }

      .cls-12 {
        fill: url(#未命名的渐变_113);
      }

      .cls-13 {
        fill: #e58d00;
      }
    </style>
    <linearGradient id="未命名的渐变_44" data-name="未命名的渐变 44" x1="100.502" y1="50" x2="100.502" y2="6" gradientUnits="userSpaceOnUse">
      <stop offset="0" stop-color="#b96400" stop-opacity="0.4"/>
      <stop offset="0.225" stop-color="#d17e00" stop-opacity="0.265"/>
      <stop offset="0.527" stop-color="#ea9900" stop-opacity="0.12"/>
      <stop offset="0.795" stop-color="#faaa00" stop-opacity="0.031"/>
      <stop offset="1" stop-color="#ffb000" stop-opacity="0"/>
    </linearGradient>
    <linearGradient id="未命名的渐变_15" data-name="未命名的渐变 15" x1="166.004" y1="27.998" x2="25.998" y2="168.004" gradientTransform="matrix(1, 0, 0, -1, 0, 194)" gradientUnits="userSpaceOnUse">
      <stop offset="0" stop-opacity="0.1"/>
      <stop offset="0.5" stop-color="gray" stop-opacity="0.05"/>
      <stop offset="1" stop-color="#fff" stop-opacity="0.12"/>
    </linearGradient>
    <linearGradient id="未命名的渐变_2" data-name="未命名的渐变 2" x1="166.012" y1="75.988" x2="25.987" y2="216.012" gradientTransform="matrix(1, 0, 0, -1, 0, 242)" gradientUnits="userSpaceOnUse">
      <stop offset="0" stop-opacity="0.04"/>
      <stop offset="0.5" stop-color="gray" stop-opacity="0"/>
      <stop offset="1" stop-color="#fff" stop-opacity="0.1"/>
    </linearGradient>
    <linearGradient id="未命名的渐变_113" data-name="未命名的渐变 113" x1="126.28" y1="59.546" x2="64.739" y2="121.087" gradientTransform="matrix(1, 0, 0, -1, 0, 194)" gradientUnits="userSpaceOnUse">
      <stop offset="0" stop-color="#f0a000"/>
      <stop offset="1" stop-color="#e59500"/>
    </linearGradient>
  </defs>
  <title>folder_extra</title>
  <g id="图层_2" data-name="图层 2">
    <g id="图层_1-2" data-name="图层 1">
      <rect class="cls-1" width="192" height="192"/>
      <g>
        <path class="cls-2" d="M96,190C27.3,190,3,165.7,3,97S27.3,4,96,4s93,24.3,93,93S164.7,190,96,190Z"/>
        <path class="cls-3" d="M96,189C28.1,189,4,164.9,4,97S28.1,5,96,5s92,24.1,92,92S163.9,189,96,189Z"/>
        <path class="cls-4" d="M96,188C28.8,188,5,164.2,5,97S28.8,6,96,6s91,23.8,91,91S163.2,188,96,188Z"/>
        <path class="cls-5" d="M186,97c0,66.7-23.3,90-90,90S6,163.7,6,97,29.3,7,96,7,186,30.3,186,97Z"/>
      </g>
      <path class="cls-6" d="M186,96c0,66.7-23.3,90-90,90S6,162.7,6,96,29.3,6,96,6,186,29.3,186,96Z"/>
      <path class="cls-7" d="M71.177,37.953c5.758,7.748,8.622,10.776,9.568,11.7a1.2,1.2,0,0,0,.842.344H180.16C169.684,18.149,144.154,6,96,6,58.276,6,34.438,13.457,20.843,32H59.266A14.424,14.424,0,0,1,71.177,37.953Z"/>
      <path class="cls-8" d="M6,96c0,66.67,23.32,90,90,90s90-23.33,90-90c0-18.545-1.807-33.732-5.846-46H81.587a1.2,1.2,0,0,1-.842-.344c-.946-.927-3.81-3.955-9.568-11.7A14.424,14.424,0,0,0,59.266,32H20.859C10.407,46.245,6,67.029,6,96Z"/>
      <path class="cls-9" d="M7,98c0-28.971,4.407-49.755,14.859-64H60.266a14.424,14.424,0,0,1,11.911,5.953c5.758,7.748,8.622,10.776,9.568,11.7a1.2,1.2,0,0,0,.842.344H180.78c-.2-.674-.41-1.343-.626-2H81.587a1.2,1.2,0,0,1-.842-.344c-.946-.927-3.81-3.955-9.568-11.7A14.424,14.424,0,0,0,59.266,32H20.859C10.407,46.245,6,67.029,6,96c0,24.311,3.106,42.854,10.279,56.61C9.816,139.073,7,121.152,7,98Z"/>
      <path class="cls-10" d="M186,96c0,66.67-23.32,90-90,90S6,162.67,6,96,29.32,6,96,6,186,29.32,186,96Z"/>
      <path class="cls-11" d="M96,6C29.3,6,6,29.3,6,96s23.3,90,90,90,90-23.3,90-90S162.7,6,96,6Zm68.6,158.6C151.2,178,130,184,96,184s-55.2-6-68.6-19.4S8,130,8,96s6-55.2,19.4-68.6S62,8,96,8s55.2,6,68.6,19.4S184,62,184,96,178,151.2,164.6,164.6Z"/>
      <path class="cls-9" d="M88.775,93.761l-14.434-5.49a.655.655,0,0,1-.377-.377l-5.47-14.416a.65.65,0,0,0-1.216,0L61.8,87.908a.652.652,0,0,1-.378.378L46.979,93.758a.651.651,0,0,0,0,1.217l14.447,5.487a.652.652,0,0,1,.378.378l5.475,14.433a.651.651,0,0,0,1.217,0l5.488-14.441a.649.649,0,0,1,.377-.377l14.415-5.478A.65.65,0,0,0,88.775,93.761Zm31.57,12.618L110.752,81.1a.651.651,0,0,0-1.217,0l-9.6,25.3a.655.655,0,0,1-.378.378l-25.323,9.595a.651.651,0,0,0,0,1.217l25.332,9.62a.651.651,0,0,1,.377.378l9.6,25.306a.65.65,0,0,0,1.216,0l9.619-25.32a.649.649,0,0,1,.377-.377l25.277-9.6a.65.65,0,0,0,0-1.216l-25.3-9.626A.652.652,0,0,1,120.345,106.379Z"/>
      <path class="cls-12" d="M87.775,91.761l-14.434-5.49a.655.655,0,0,1-.377-.377l-5.47-14.416a.65.65,0,0,0-1.216,0L60.8,85.908a.652.652,0,0,1-.378.378L45.979,91.758a.651.651,0,0,0,0,1.217l14.447,5.487a.652.652,0,0,1,.378.378l5.475,14.433a.651.651,0,0,0,1.217,0l5.488-14.441a.649.649,0,0,1,.377-.377l14.415-5.478A.65.65,0,0,0,87.775,91.761Zm31.57,12.618L109.752,79.1a.651.651,0,0,0-1.217,0l-9.6,25.3a.655.655,0,0,1-.378.378l-25.323,9.595a.651.651,0,0,0,0,1.217l25.332,9.62a.651.651,0,0,1,.377.378l9.6,25.306a.65.65,0,0,0,1.216,0l9.619-25.32a.649.649,0,0,1,.377-.377l25.277-9.6a.65.65,0,0,0,0-1.216l-25.3-9.626A.652.652,0,0,1,119.345,104.379Z"/>
      <g>
        <path class="cls-13" d="M73.964,87.893a.653.653,0,0,0,.377.378l12.9,4.908.53-.2a.65.65,0,0,0,0-1.216L73.35,86.274Z"/>
        <path class="cls-13" d="M120.345,106.379a.652.652,0,0,0,.377.377L144.5,115.8l.53-.2a.65.65,0,0,0,0-1.216l-25.295-9.623Z"/>
        <path class="cls-13" d="M61.421,88.286a.652.652,0,0,0,.378-.378l5.479-14.431a.63.63,0,0,1,.842-.351l-.626-1.648a.65.65,0,0,0-1.216,0L60.8,85.908a.652.652,0,0,1-.378.378L45.979,91.758a.651.651,0,0,0,0,1.217l1.532.582Z"/>
        <path class="cls-13" d="M61.8,100.84a.652.652,0,0,0-.378-.378l-.008,0,4.861,12.814a.6.6,0,0,0,.375.351Z"/>
        <path class="cls-13" d="M99.937,127.592a.651.651,0,0,0-.377-.378l-.009,0,8.985,23.686a.605.605,0,0,0,.375.352Z"/>
        <path class="cls-13" d="M99.552,106.782a.655.655,0,0,0,.378-.378l9.6-25.3a.632.632,0,0,1,.843-.351l-.626-1.649a.651.651,0,0,0-1.217,0l-9.6,25.3a.655.655,0,0,1-.378.378l-25.323,9.595a.651.651,0,0,0,0,1.217l1.533.582Z"/>
      </g>
    </g>
  </g>
</svg>
