<?xml version="1.0" encoding="UTF-8" standalone="no"?>
<svg
   xmlns:dc="http://purl.org/dc/elements/1.1/"
   xmlns:cc="http://creativecommons.org/ns#"
   xmlns:rdf="http://www.w3.org/1999/02/22-rdf-syntax-ns#"
   xmlns:svg="http://www.w3.org/2000/svg"
   xmlns="http://www.w3.org/2000/svg"
   xmlns:sodipodi="http://sodipodi.sourceforge.net/DTD/sodipodi-0.dtd"
   xmlns:inkscape="http://www.inkscape.org/namespaces/inkscape"
   viewBox="0 0 133.33333 133.33333"
   height="133.33333"
   width="133.33333"
   xml:space="preserve"
   id="svg2"
   version="1.1"
   sodipodi:docname="icon-launcher-camera.svg"
   inkscape:version="0.92.2 2405546, 2018-03-11"><sodipodi:namedview
     pagecolor="#ffffff"
     bordercolor="#666666"
     borderopacity="1"
     objecttolerance="10"
     gridtolerance="10"
     guidetolerance="10"
     inkscape:pageopacity="0"
     inkscape:pageshadow="2"
     inkscape:window-width="1366"
     inkscape:window-height="717"
     id="namedview109"
     showgrid="false"
     inkscape:zoom="1.7700001"
     inkscape:cx="66.666664"
     inkscape:cy="66.666664"
     inkscape:window-x="0"
     inkscape:window-y="25"
     inkscape:window-maximized="1"
     inkscape:current-layer="svg2" /><metadata
     id="metadata8"><rdf:RDF><cc:Work
         rdf:about=""><dc:format>image/svg+xml</dc:format><dc:type
           rdf:resource="http://purl.org/dc/dcmitype/StillImage" /></cc:Work></rdf:RDF></metadata><defs
     id="defs6"><clipPath
       id="clipPath18"
       clipPathUnits="userSpaceOnUse"><path
         id="path16"
         d="M 50,100 C 12.956,100 0,87.039 0,50 v 0 C 0,12.961 12.956,0 50,0 v 0 c 37.045,0 50,12.961 50,50 v 0 c 0,37.044 -12.955,50 -50,50 z" /></clipPath><linearGradient
       id="linearGradient34"
       spreadMethod="pad"
       gradientTransform="matrix(77.782288,77.782288,77.782288,-77.782288,11.109376,11.109376)"
       gradientUnits="userSpaceOnUse"
       y2="0"
       x2="1"
       y1="0"
       x1="0"><stop
         id="stop24"
         offset="0"
         style="stop-opacity:1;stop-color:#ecddcd" /><stop
         id="stop26"
         offset="0.0999999"
         style="stop-opacity:1;stop-color:#ecddcd" /><stop
         id="stop28"
         offset="0.5"
         style="stop-opacity:1;stop-color:#9ca5a6" /><stop
         id="stop30"
         offset="0.9"
         style="stop-opacity:1;stop-color:#f6faeb" /><stop
         id="stop32"
         offset="1"
         style="stop-opacity:1;stop-color:#f6faeb" /></linearGradient><clipPath
       id="clipPath44"
       clipPathUnits="userSpaceOnUse"><path
         id="path42"
         d="M 50,50 20.84,20.84 41.404,0.275 C 44.117,0.096 46.97,0 50,0 v 0 c 37.045,0 50,12.961 50,50 v 0 c 0,3.02 -0.096,5.863 -0.274,8.568 v 0 l -20.578,20.58 z" /></clipPath><clipPath
       id="clipPath52"
       clipPathUnits="userSpaceOnUse"><path
         id="path50"
         d="M -32768,32767 H 32767 V -32768 H -32768 Z" /></clipPath><linearGradient
       id="linearGradient62"
       spreadMethod="pad"
       gradientTransform="matrix(38.890621,-38.890621,-38.890621,-38.890621,49.993591,49.993591)"
       gradientUnits="userSpaceOnUse"
       y2="0"
       x2="1"
       y1="0"
       x1="0"><stop
         id="stop54"
         offset="0"
         style="stop-opacity:0.11999695;stop-color:#ffffff" /><stop
         id="stop56"
         offset="0.102564"
         style="stop-opacity:0.11999695;stop-color:#ffffff" /><stop
         id="stop58"
         offset="0.552136"
         style="stop-opacity:0;stop-color:#ffffff" /><stop
         id="stop60"
         offset="1"
         style="stop-opacity:0;stop-color:#ffffff" /></linearGradient><mask
       id="mask64"
       height="1"
       width="1"
       y="0"
       x="0"
       maskUnits="userSpaceOnUse"><g
         id="g74"><g
           id="g72"
           clip-path="url(#clipPath52)"><g
             id="g70"><g
               id="g68"><path
                 id="path66"
                 style="fill:url(#linearGradient62);stroke:none"
                 d="M -32768,32767 H 32767 V -32768 H -32768 Z" /></g></g></g></g></mask><linearGradient
       id="linearGradient88"
       spreadMethod="pad"
       gradientTransform="matrix(38.890621,-38.890621,-38.890621,-38.890621,49.993591,49.993591)"
       gradientUnits="userSpaceOnUse"
       y2="0"
       x2="1"
       y1="0"
       x1="0"><stop
         id="stop80"
         offset="0"
         style="stop-opacity:1;stop-color:#000000" /><stop
         id="stop82"
         offset="0.102564"
         style="stop-opacity:1;stop-color:#000000" /><stop
         id="stop84"
         offset="0.552136"
         style="stop-opacity:1;stop-color:#000000" /><stop
         id="stop86"
         offset="1"
         style="stop-opacity:1;stop-color:#000000" /></linearGradient><clipPath
       id="clipPath98"
       clipPathUnits="userSpaceOnUse"><path
         id="path96"
         d="M 12.5,50 C 12.5,22.221 22.217,12.5 50,12.5 v 0 c 27.783,0 37.5,9.721 37.5,37.5 v 0 c 0,27.783 -9.717,37.5 -37.5,37.5 v 0 C 22.217,87.5 12.5,77.779 12.5,50" /></clipPath><linearGradient
       id="linearGradient110"
       spreadMethod="pad"
       gradientTransform="matrix(58.335937,-58.335937,-58.335937,-58.335937,20.832422,79.168358)"
       gradientUnits="userSpaceOnUse"
       y2="0"
       x2="1"
       y1="0"
       x1="0"><stop
         id="stop104"
         offset="0"
         style="stop-opacity:1;stop-color:#343434" /><stop
         id="stop106"
         offset="1"
         style="stop-opacity:1;stop-color:#383838" /><stop
         id="stop108"
         offset="1"
         style="stop-opacity:1;stop-color:#383838" /></linearGradient><clipPath
       id="clipPath120"
       clipPathUnits="userSpaceOnUse"><path
         id="path118"
         d="M 17.875,50 C 17.875,26.202 26.199,17.875 50,17.875 v 0 c 23.801,0 32.125,8.327 32.125,32.125 v 0 c 0,23.801 -8.324,32.125 -32.125,32.125 v 0 C 26.199,82.125 17.875,73.797 17.875,50" /></clipPath><linearGradient
       id="linearGradient132"
       spreadMethod="pad"
       gradientTransform="matrix(49.974449,-49.974449,-49.974449,-49.974449,25.013107,74.987564)"
       gradientUnits="userSpaceOnUse"
       y2="0"
       x2="1"
       y1="0"
       x1="0"><stop
         id="stop126"
         offset="0"
         style="stop-opacity:1;stop-color:#1f170f" /><stop
         id="stop128"
         offset="0.999999"
         style="stop-opacity:1;stop-color:#4a4b4d" /><stop
         id="stop130"
         offset="1"
         style="stop-opacity:1;stop-color:#4a4b4d" /></linearGradient><clipPath
       id="clipPath142"
       clipPathUnits="userSpaceOnUse"><path
         id="path140"
         d="M 22,50 C 22,29.258 29.255,22 50,22 v 0 c 20.745,0 28,7.258 28,28 v 0 c 0,20.745 -7.255,28 -28,28 v 0 C 29.255,78 22,70.742 22,50" /></clipPath><linearGradient
       id="linearGradient154"
       spreadMethod="pad"
       gradientTransform="matrix(43.557499,-43.557499,-43.557499,-43.557499,28.221542,71.779045)"
       gradientUnits="userSpaceOnUse"
       y2="0"
       x2="1"
       y1="0"
       x1="0"><stop
         id="stop148"
         offset="0"
         style="stop-opacity:1;stop-color:#374780" /><stop
         id="stop150"
         offset="1"
         style="stop-opacity:1;stop-color:#29397a" /><stop
         id="stop152"
         offset="1"
         style="stop-opacity:1;stop-color:#29397a" /></linearGradient><clipPath
       id="clipPath164"
       clipPathUnits="userSpaceOnUse"><path
         id="path162"
         d="M 0,100 H 100 V 0 H 0 Z" /></clipPath><clipPath
       id="clipPath176"
       clipPathUnits="userSpaceOnUse"><path
         id="path174"
         d="M 34.4807,72.951 H 50 V 60.2558 H 34.4807 Z" /></clipPath><clipPath
       id="clipPath192"
       clipPathUnits="userSpaceOnUse"><path
         id="path190"
         d="M 27.049,65.5194 H 39.7443 V 50 H 27.049 Z" /></clipPath><clipPath
       id="clipPath208"
       clipPathUnits="userSpaceOnUse"><path
         id="path206"
         d="M 54.6667,46.5 H 68.5833 V 32.5833 H 54.6667 Z" /></clipPath></defs><g
     transform="matrix(1.25,0,0,-1.25,4,129.33333)"
     id="g10"><g
       id="g12"><g
         clip-path="url(#clipPath18)"
         id="g14"><g
           id="g20"><g
             id="g22"><path
               id="path36"
               style="fill:url(#linearGradient34);stroke:none"
               d="M 50,100 C 12.956,100 0,87.039 0,50 v 0 C 0,12.961 12.956,0 50,0 v 0 c 37.045,0 50,12.961 50,50 v 0 c 0,37.044 -12.955,50 -50,50 z"
               inkscape:connector-curvature="0" /></g></g></g></g><g
       id="g38"><g
         clip-path="url(#clipPath44)"
         id="g40"><g
           id="g46"><g
             id="g48" /><g
             mask="url(#mask64)"
             id="g76"><g
               id="g78"><path
                 id="path90"
                 style="fill:url(#linearGradient88);stroke:none"
                 d="M 50,50 20.84,20.84 41.404,0.275 C 44.117,0.096 46.97,0 50,0 v 0 c 37.045,0 50,12.961 50,50 v 0 c 0,3.02 -0.096,5.863 -0.274,8.568 v 0 l -20.578,20.58 z"
                 inkscape:connector-curvature="0" /></g></g></g></g></g><g
       id="g92"><g
         clip-path="url(#clipPath98)"
         id="g94"><g
           id="g100"><g
             id="g102"><path
               id="path112"
               style="fill:url(#linearGradient110);stroke:none"
               d="M 12.5,50 C 12.5,22.221 22.217,12.5 50,12.5 v 0 c 27.783,0 37.5,9.721 37.5,37.5 v 0 c 0,27.783 -9.717,37.5 -37.5,37.5 v 0 C 22.217,87.5 12.5,77.779 12.5,50"
               inkscape:connector-curvature="0" /></g></g></g></g><g
       id="g114"><g
         clip-path="url(#clipPath120)"
         id="g116"><g
           id="g122"><g
             id="g124"><path
               id="path134"
               style="fill:url(#linearGradient132);stroke:none"
               d="M 17.875,50 C 17.875,26.202 26.199,17.875 50,17.875 v 0 c 23.801,0 32.125,8.327 32.125,32.125 v 0 c 0,23.801 -8.324,32.125 -32.125,32.125 v 0 C 26.199,82.125 17.875,73.797 17.875,50"
               inkscape:connector-curvature="0" /></g></g></g></g><g
       id="g136"><g
         clip-path="url(#clipPath142)"
         id="g138"><g
           id="g144"><g
             id="g146"><path
               id="path156"
               style="fill:url(#linearGradient154);stroke:none"
               d="M 22,50 C 22,29.258 29.255,22 50,22 v 0 c 20.745,0 28,7.258 28,28 v 0 c 0,20.745 -7.255,28 -28,28 v 0 C 29.255,78 22,70.742 22,50"
               inkscape:connector-curvature="0" /></g></g></g></g><g
       id="g158"><g
         clip-path="url(#clipPath164)"
         id="g160"><g
           transform="translate(66.333,50)"
           id="g166"><path
             id="path168"
             style="fill:#492000;fill-opacity:1;fill-rule:nonzero;stroke:none"
             d="m 0,0 c 0,-12.1 -4.231,-16.333 -16.333,-16.333 -12.101,0 -16.334,4.233 -16.334,16.333 0,12.1 4.233,16.333 16.334,16.333 C -4.231,16.333 0,12.101 0,0"
             inkscape:connector-curvature="0" /></g><g
           id="g170"><g
             id="g172" /><g
             id="g184"><g
               style="opacity:0.85000598"
               id="g182"
               clip-path="url(#clipPath176)"><g
                 id="g180"
                 transform="translate(50,70.4087)"><path
                   id="path178"
                   style="fill:#70d8ff;fill-opacity:1;fill-rule:nonzero;stroke:none"
                   d="m 0,0 v -6.297 c 0,-1.326 -1.025,-2.423 -2.346,-2.529 -1.861,-0.149 -3.398,-0.495 -4.65,-1.077 -1,-0.465 -2.179,-0.28 -2.915,0.541 l -4.956,5.53 c -1.118,1.248 -0.754,3.23 0.748,3.971 2.951,1.456 6.737,2.208 11.494,2.401 C -1.191,2.599 0,1.435 0,0"
                   inkscape:connector-curvature="0" /></g></g></g></g><g
           id="g186"><g
             id="g188" /><g
             id="g200"><g
               style="opacity:0.85000598"
               id="g198"
               clip-path="url(#clipPath192)"><g
                 id="g196"
                 transform="translate(39.4946,56.9961)"><path
                   id="path194"
                   style="fill:#70d8ff;fill-opacity:1;fill-rule:nonzero;stroke:none"
                   d="m 0,0 c -0.582,-1.252 -0.928,-2.789 -1.078,-4.65 -0.106,-1.321 -1.203,-2.346 -2.528,-2.346 h -6.297 c -1.435,0 -2.599,1.191 -2.54,2.624 0.193,4.758 0.945,8.544 2.401,11.495 0.741,1.502 2.723,1.866 3.971,0.748 L -0.542,2.915 C 0.28,2.179 0.464,1 0,0"
                   inkscape:connector-curvature="0" /></g></g></g></g><g
           id="g202"><g
             id="g204" /><g
             id="g216"><g
               style="opacity:0.75"
               id="g214"
               clip-path="url(#clipPath208)"><g
                 id="g212"
                 transform="translate(68.583,39.542)"><path
                   id="path210"
                   style="fill:#a45cdb;fill-opacity:1;fill-rule:nonzero;stroke:none"
                   d="m 0,0 c 0,3.843 -3.115,6.958 -6.958,6.958 -3.843,0 -6.958,-3.115 -6.958,-6.958 0,-3.844 3.115,-6.959 6.958,-6.959 C -3.115,-6.959 0,-3.844 0,0"
                   inkscape:connector-curvature="0" /></g></g></g></g></g></g></g></svg>