<svg xmlns="http://www.w3.org/2000/svg" xmlns:xlink="http://www.w3.org/1999/xlink" width="192" height="192" viewBox="0 0 192 192">
  <defs>
    <style>
      .cls-1 {
        fill: none;
      }

      .cls-2 {
        opacity: 0.01;
      }

      .cls-2, .cls-3, .cls-4, .cls-5 {
        isolation: isolate;
      }

      .cls-3 {
        opacity: 0.02;
      }

      .cls-4 {
        opacity: 0.04;
      }

      .cls-5 {
        opacity: 0.06;
      }

      .cls-6 {
        fill: #ffa300;
      }

      .cls-7 {
        fill: url(#未命名的渐变_44);
      }

      .cls-8 {
        fill: #ffc200;
      }

      .cls-9 {
        fill: #ffd522;
      }

      .cls-10 {
        fill: url(#未命名的渐变_15);
      }

      .cls-11 {
        fill: url(#未命名的渐变_2);
      }

      .cls-12 {
        fill: url(#未命名的渐变_111);
      }

      .cls-13 {
        fill: #e58d00;
      }
    </style>
    <linearGradient id="未命名的渐变_44" data-name="未命名的渐变 44" x1="100.502" y1="50" x2="100.502" y2="6" gradientUnits="userSpaceOnUse">
      <stop offset="0" stop-color="#b96400" stop-opacity="0.4"/>
      <stop offset="0.225" stop-color="#d17e00" stop-opacity="0.265"/>
      <stop offset="0.527" stop-color="#ea9900" stop-opacity="0.12"/>
      <stop offset="0.795" stop-color="#faaa00" stop-opacity="0.031"/>
      <stop offset="1" stop-color="#ffb000" stop-opacity="0"/>
    </linearGradient>
    <linearGradient id="未命名的渐变_15" data-name="未命名的渐变 15" x1="166.004" y1="27.998" x2="25.998" y2="168.004" gradientTransform="matrix(1, 0, 0, -1, 0, 194)" gradientUnits="userSpaceOnUse">
      <stop offset="0" stop-opacity="0.1"/>
      <stop offset="0.5" stop-color="gray" stop-opacity="0.05"/>
      <stop offset="1" stop-color="#fff" stop-opacity="0.12"/>
    </linearGradient>
    <linearGradient id="未命名的渐变_2" data-name="未命名的渐变 2" x1="166.012" y1="75.988" x2="25.987" y2="216.012" gradientTransform="matrix(1, 0, 0, -1, 0, 242)" gradientUnits="userSpaceOnUse">
      <stop offset="0" stop-opacity="0.04"/>
      <stop offset="0.5" stop-color="gray" stop-opacity="0"/>
      <stop offset="1" stop-color="#fff" stop-opacity="0.1"/>
    </linearGradient>
    <linearGradient id="未命名的渐变_111" data-name="未命名的渐变 111" x1="128.973" y1="46.624" x2="58.959" y2="116.638" gradientTransform="matrix(1, 0, 0, -1, 0, 194)" gradientUnits="userSpaceOnUse">
      <stop offset="0" stop-color="#f0a000"/>
      <stop offset="1" stop-color="#e59500"/>
    </linearGradient>
  </defs>
  <title>folder_tools</title>
  <g id="图层_2" data-name="图层 2">
    <g id="图层_1-2" data-name="图层 1">
      <rect class="cls-1" width="192" height="192"/>
      <g>
        <path class="cls-2" d="M96,190C27.3,190,3,165.7,3,97S27.3,4,96,4s93,24.3,93,93S164.7,190,96,190Z"/>
        <path class="cls-3" d="M96,189C28.1,189,4,164.9,4,97S28.1,5,96,5s92,24.1,92,92S163.9,189,96,189Z"/>
        <path class="cls-4" d="M96,188C28.8,188,5,164.2,5,97S28.8,6,96,6s91,23.8,91,91S163.2,188,96,188Z"/>
        <path class="cls-5" d="M186,97c0,66.7-23.3,90-90,90S6,163.7,6,97,29.3,7,96,7,186,30.3,186,97Z"/>
      </g>
      <path class="cls-6" d="M186,96c0,66.7-23.3,90-90,90S6,162.7,6,96,29.3,6,96,6,186,29.3,186,96Z"/>
      <path class="cls-7" d="M71.177,37.953c5.758,7.748,8.622,10.776,9.568,11.7a1.2,1.2,0,0,0,.842.344H180.16C169.684,18.149,144.154,6,96,6,58.276,6,34.438,13.457,20.843,32H59.266A14.424,14.424,0,0,1,71.177,37.953Z"/>
      <path class="cls-8" d="M6,96c0,66.67,23.32,90,90,90s90-23.33,90-90c0-18.545-1.807-33.732-5.846-46H81.587a1.2,1.2,0,0,1-.842-.344c-.946-.927-3.81-3.955-9.568-11.7A14.424,14.424,0,0,0,59.266,32H20.859C10.407,46.245,6,67.029,6,96Z"/>
      <path class="cls-9" d="M7,98c0-28.971,4.407-49.755,14.859-64H60.266a14.424,14.424,0,0,1,11.911,5.953c5.758,7.748,8.622,10.776,9.568,11.7a1.2,1.2,0,0,0,.842.344H180.78c-.2-.674-.41-1.343-.626-2H81.587a1.2,1.2,0,0,1-.842-.344c-.946-.927-3.81-3.955-9.568-11.7A14.424,14.424,0,0,0,59.266,32H20.859C10.407,46.245,6,67.029,6,96c0,24.311,3.106,42.854,10.279,56.61C9.816,139.073,7,121.152,7,98Z"/>
      <path class="cls-10" d="M186,96c0,66.67-23.32,90-90,90S6,162.67,6,96,29.32,6,96,6,186,29.32,186,96Z"/>
      <path class="cls-11" d="M96,6C29.3,6,6,29.3,6,96s23.3,90,90,90,90-23.3,90-90S162.7,6,96,6Zm68.6,158.6C151.2,178,130,184,96,184s-55.2-6-68.6-19.4S8,130,8,96s6-55.2,19.4-68.6S62,8,96,8s55.2,6,68.6,19.4S184,62,184,96,178,151.2,164.6,164.6Z"/>
      <path class="cls-9" d="M84.69,111.1,59.666,136.125l.03.03A8.906,8.906,0,0,0,72.24,148.7l.034.031,23.363-23.361A6.047,6.047,0,0,1,96,124l-2.383-3.977Zm-17,34.192a3.242,3.242,0,1,1,0-4.586A3.245,3.245,0,0,1,67.687,145.294Zm34.77-34.111,3.977,2.383a6.369,6.369,0,0,1,1.369-.365l5.725-5.725a17.767,17.767,0,0,0,17.189-4.585c7.448-7.447,6.584-14.6,3.145-18.039l-7.67,7.785c-3.8,3.8-6,3.163-9.8-.63s-4.43-6-.628-9.8l7.783-7.671c-3.437-3.437-10.59-4.3-18.039,3.145a17.758,17.758,0,0,0-4.583,17.191l-7.388,7.388Zm8.674,5.845a3.305,3.305,0,0,0-4.67,0l-5.835-3.5-21-21-3.5-5.836-12.837-10.5-4.666,4.668,10.5,12.836,5.832,3.5,21.008,21,3.5,5.836a3.3,3.3,0,0,0,0,4.666L122.8,152.035a3.3,3.3,0,0,0,4.666,0l7-7a3.3,3.3,0,0,0,0-4.666Z"/>
      <path class="cls-12" d="M83.639,109,58.616,134.024l.03.03A8.906,8.906,0,0,0,71.19,146.6l.033.032,23.363-23.361a6.043,6.043,0,0,1,.363-1.367l-2.384-3.977Zm-17,34.192a3.241,3.241,0,1,1,0-4.585A3.244,3.244,0,0,1,66.636,143.193Zm34.771-34.111,3.976,2.383a6.325,6.325,0,0,1,1.369-.364l5.726-5.726a17.765,17.765,0,0,0,17.188-4.585c7.449-7.447,6.584-14.6,3.146-18.039l-7.67,7.785c-3.8,3.8-6,3.164-9.8-.63s-4.43-6-.629-9.8l7.784-7.672c-3.437-3.437-10.59-4.3-18.039,3.146a17.755,17.755,0,0,0-4.583,17.19l-7.388,7.388Zm8.674,5.845a3.305,3.305,0,0,0-4.67,0l-5.836-3.5-21-21.006-3.5-5.836-12.838-10.5-4.666,4.667,10.5,12.836,5.832,3.5,21.007,21,3.5,5.836a3.3,3.3,0,0,0,0,4.666l23.339,23.34a3.3,3.3,0,0,0,4.666,0l7-7a3.3,3.3,0,0,0,0-4.666Z"/>
      <g>
        <path class="cls-13" d="M115.34,89.906a19.431,19.431,0,0,1-2.022-2.306c.325,1.341,1.383,2.716,3.072,4.407,3.8,3.793,6,4.426,9.8.63l7.67-7.785a8.254,8.254,0,0,1,.982,1.208,8.6,8.6,0,0,0-2.032-3.309l-7.67,7.785C121.341,94.332,119.139,93.7,115.34,89.906Z"/>
        <path class="cls-13" d="M63.285,76.187l12.837,10.5,3.5,5.836,21,21,5.835,3.5a3.305,3.305,0,0,1,4.67,0l23.217,23.223a3.266,3.266,0,0,0-.934-1.984l-23.333-23.34a3.305,3.305,0,0,0-4.67,0l-5.836-3.5-21-21.006-3.5-5.836-12.838-10.5-4.666,4.667,1.418,1.733Z"/>
        <path class="cls-13" d="M94.06,101.734l6.863-6.863a17.76,17.76,0,0,1,4.583-17.191c6.323-6.325,12.425-6.645,16.229-4.5l.76-.749c-3.437-3.437-10.59-4.3-18.039,3.145A17.758,17.758,0,0,0,99.873,92.77l-7.388,7.388Z"/>
        <path class="cls-13" d="M59.7,136.155l-.03-.03L84.69,111.1l8.926,8.924,1.259,2.1c.026-.074.044-.151.074-.224l-2.384-3.977L83.639,109,58.616,134.024l.03.03a8.923,8.923,0,0,0-.519,10.719A8.921,8.921,0,0,1,59.7,136.155Z"/>
        <path class="cls-13" d="M67.687,145.294a3.243,3.243,0,0,0,0-4.586c-.041-.04-.088-.067-.13-.1a3.219,3.219,0,0,1-5.375,2.695,3.224,3.224,0,0,0,5.5,2Z"/>
        <path class="cls-13" d="M99.46,124.03l-1.171-1.953a3.291,3.291,0,0,0,.12,4.518l.118.118A3.276,3.276,0,0,1,99.46,124.03Z"/>
      </g>
    </g>
  </g>
</svg>
