<?xml version="1.0" encoding="UTF-8" standalone="no"?>
<svg
   xmlns:dc="http://purl.org/dc/elements/1.1/"
   xmlns:cc="http://creativecommons.org/ns#"
   xmlns:rdf="http://www.w3.org/1999/02/22-rdf-syntax-ns#"
   xmlns:svg="http://www.w3.org/2000/svg"
   xmlns="http://www.w3.org/2000/svg"
   xmlns:sodipodi="http://sodipodi.sourceforge.net/DTD/sodipodi-0.dtd"
   xmlns:inkscape="http://www.inkscape.org/namespaces/inkscape"
   viewBox="0 0 133.33333 133.33333"
   height="133.33333"
   width="133.33333"
   xml:space="preserve"
   id="svg2"
   version="1.1"
   sodipodi:docname="icon-launcher-browser.svg"
   inkscape:version="0.92.2 2405546, 2018-03-11"><sodipodi:namedview
     pagecolor="#ffffff"
     bordercolor="#666666"
     borderopacity="1"
     objecttolerance="10"
     gridtolerance="10"
     guidetolerance="10"
     inkscape:pageopacity="0"
     inkscape:pageshadow="2"
     inkscape:window-width="1366"
     inkscape:window-height="717"
     id="namedview60"
     showgrid="false"
     inkscape:zoom="1.7700001"
     inkscape:cx="66.666664"
     inkscape:cy="66.666664"
     inkscape:window-x="0"
     inkscape:window-y="25"
     inkscape:window-maximized="1"
     inkscape:current-layer="svg2" /><metadata
     id="metadata8"><rdf:RDF><cc:Work
         rdf:about=""><dc:format>image/svg+xml</dc:format><dc:type
           rdf:resource="http://purl.org/dc/dcmitype/StillImage" /></cc:Work></rdf:RDF></metadata><defs
     id="defs6"><linearGradient
       id="linearGradient30"
       spreadMethod="pad"
       gradientTransform="matrix(77.78125,-77.78125,-77.78125,-77.78125,11.109896,88.891144)"
       gradientUnits="userSpaceOnUse"
       y2="0"
       x2="1"
       y1="0"
       x1="0"><stop
         id="stop24"
         offset="0"
         style="stop-opacity:1;stop-color:#57b3fa" /><stop
         id="stop26"
         offset="1"
         style="stop-opacity:1;stop-color:#5bd7e8" /><stop
         id="stop28"
         offset="1"
         style="stop-opacity:1;stop-color:#5bd7e8" /></linearGradient><clipPath
       id="clipPath40"
       clipPathUnits="userSpaceOnUse"><path
         id="path38"
         d="M 0,100 H 100 V 0 H 0 Z" /></clipPath><clipPath
       id="clipPath48"
       clipPathUnits="userSpaceOnUse"><path
         id="path46"
         d="M 12.5,87.5 H 100 V 0 H 12.5 Z" /></clipPath><clipPath
       id="clipPath52"
       clipPathUnits="userSpaceOnUse"><path
         id="path50"
         d="M 99.725,58.595 79.403,78.916 C 73.518,84.997 64.083,87.5 50,87.5 22.217,87.5 12.5,77.779 12.5,50 12.5,36.025 14.963,26.624 20.944,20.728 L 41.396,0.276 C 44.112,0.097 46.967,0 50,0 c 37.045,0 50,12.961 50,50 0,3.029 -0.097,5.882 -0.275,8.595" /></clipPath><linearGradient
       id="linearGradient66"
       spreadMethod="pad"
       gradientTransform="matrix(68.058586,-68.058586,-68.058586,-68.058586,20.830736,79.166672)"
       gradientUnits="userSpaceOnUse"
       y2="0"
       x2="1"
       y1="0"
       x1="0"><stop
         id="stop58"
         offset="0"
         style="stop-opacity:0.2;stop-color:#ffffff" /><stop
         id="stop60"
         offset="0.713675"
         style="stop-opacity:0.04998856;stop-color:#ffffff" /><stop
         id="stop62"
         offset="1"
         style="stop-opacity:0;stop-color:#ffffff" /><stop
         id="stop64"
         offset="1"
         style="stop-opacity:0;stop-color:#ffffff" /></linearGradient><mask
       id="mask68"
       height="1"
       width="1"
       y="0"
       x="0"
       maskUnits="userSpaceOnUse"><g
         id="g78"><g
           id="g76"><g
             id="g74"><g
               id="g72"><path
                 id="path70"
                 style="fill:url(#linearGradient66);stroke:none"
                 d="M -32768,32767 H 32767 V -32768 H -32768 Z" /></g></g></g></g></mask><linearGradient
       id="linearGradient88"
       spreadMethod="pad"
       gradientTransform="matrix(68.058586,-68.058586,-68.058586,-68.058586,20.830736,79.166672)"
       gradientUnits="userSpaceOnUse"
       y2="0"
       x2="1"
       y1="0"
       x1="0"><stop
         id="stop80"
         offset="0"
         style="stop-opacity:1;stop-color:#000000" /><stop
         id="stop82"
         offset="0.713675"
         style="stop-opacity:1;stop-color:#000000" /><stop
         id="stop84"
         offset="1"
         style="stop-opacity:1;stop-color:#000000" /><stop
         id="stop86"
         offset="1"
         style="stop-opacity:1;stop-color:#000000" /></linearGradient></defs><g
     transform="matrix(1.25,0,0,-1.25,4,129.33333)"
     id="g10"><g
       id="g12"><g
         id="g14"><g
           id="g20"><g
             id="g22"><path
               id="path32"
               style="fill:url(#linearGradient30);stroke:none"
               d="M 50,100 C 12.956,100 0,87.039 0,50 v 0 C 0,12.961 12.956,0 50,0 v 0 c 37.045,0 50,12.961 50,50 v 0 c 0,37.044 -12.955,50 -50,50 z"
               inkscape:connector-curvature="0" /></g></g></g></g><g
       id="g34"><g
         clip-path="url(#clipPath40)"
         id="g36"><g
           id="g42"><g
             id="g44" /><g
             id="g106"><g
               style="opacity:0.5"
               id="g104"
               clip-path="url(#clipPath48)"><g
                 id="g102"><g
                   id="g100"
                   clip-path="url(#clipPath52)"><g
                     id="g98"><g
                       id="g90" /><g
                       id="g96"
                       mask="url(#mask68)"><g
                         id="g94"><path
                           id="path92"
                           style="fill:url(#linearGradient88);stroke:none"
                           d="M 99.725,58.595 79.403,78.916 C 73.518,84.997 64.083,87.5 50,87.5 22.217,87.5 12.5,77.779 12.5,50 12.5,36.025 14.963,26.624 20.944,20.728 L 41.396,0.276 C 44.112,0.097 46.967,0 50,0 c 37.045,0 50,12.961 50,50 0,3.029 -0.097,5.882 -0.275,8.595"
                           inkscape:connector-curvature="0" /></g></g></g></g></g></g></g></g><g
           transform="translate(87.5,50)"
           id="g108"><path
             id="path110"
             style="fill:#82e1ed;fill-opacity:1;fill-rule:nonzero;stroke:none"
             d="m 0,0 c 0,-27.779 -9.717,-37.5 -37.5,-37.5 -27.783,0 -37.5,9.721 -37.5,37.5 0,27.779 9.717,37.5 37.5,37.5 C -9.717,37.5 0,27.783 0,0"
             inkscape:connector-curvature="0" /></g><g
           transform="translate(34.5,83.8335)"
           id="g112"><path
             id="path114"
             style="fill:#ffffff;fill-opacity:1;fill-rule:nonzero;stroke:none"
             d="M 0,0 V -1.667 L -4.125,-5.792 -1.667,-8.25 H 1.75 l 7.917,7.917 V 3.498 C -6.396,2.556 -15.356,-2.597 -19.373,-14.125 h 2.831 L -2.417,0 Z"
             inkscape:connector-curvature="0" /></g><g
           transform="translate(49.4165,72.4585)"
           id="g116"><path
             id="path118"
             style="fill:#ffffff;fill-opacity:1;fill-rule:nonzero;stroke:none"
             d="M 0,0 V 3.958 H 4.667 V 2.625 L -0.437,-2.479 H -6.25 l -5.948,-5.948 h -6.719 v -7.531 h 6.5 l 5.459,5.458 h 1.708 l 5.188,-5.188 H 5.75 l 1.782,1.782 v 5.781 l 5.797,5.797 4.984,-4.984 v -1.646 h -8.23 v -2.917 l 3.334,-3.333 h 7.25 v -7.25 c 0,0 5.541,-7.042 6.291,-6.292 0.75,0.75 4.834,4.833 4.834,4.833 l -2.167,2.167 H 28 v 2.208 l 4.792,4.792 5.264,-5.264 C 37.56,2.46 30.004,12.319 10.42,14.538 l 2.122,-2.121 V 10.625 H 0.083 L -5,5.542 V 2.708 L -2.292,0 Z"
             inkscape:connector-curvature="0" /></g><g
           transform="translate(40.9165,75.0835)"
           id="g120"><path
             id="path122"
             style="fill:#ffffff;fill-opacity:1;fill-rule:nonzero;stroke:none"
             d="m 0,0 v -0.542 l -2.5,-2.5 V -4.458 H 1.875 V 0 Z"
             inkscape:connector-curvature="0" /></g><g
           transform="translate(81.2686,41.1064)"
           id="g124"><path
             id="path126"
             style="fill:#ffffff;fill-opacity:1;fill-rule:nonzero;stroke:none"
             d="m 0,0 -3.831,-3.832 h -1.351 l -5.913,5.913 v 5.361 l -2.361,2.363 H -31.42 l -4.849,4.848 h -2.572 l -4.99,-4.99 h -7.707 L -58.37,2.831 v -7.227 l 13.351,-13.351 h 13.672 l 5.422,-5.422 v -2.156 l -3.258,-3.258 c 7.058,0.132 12.883,0.951 17.628,2.605 v 7.533 L 2.284,-4.606 v 3.615 L 1.294,0 Z"
             inkscape:connector-curvature="0" /></g></g></g></g></svg>