<?xml version="1.0" encoding="UTF-8" standalone="no"?>
<svg
   xmlns:dc="http://purl.org/dc/elements/1.1/"
   xmlns:cc="http://creativecommons.org/ns#"
   xmlns:rdf="http://www.w3.org/1999/02/22-rdf-syntax-ns#"
   xmlns:svg="http://www.w3.org/2000/svg"
   xmlns="http://www.w3.org/2000/svg"
   xmlns:sodipodi="http://sodipodi.sourceforge.net/DTD/sodipodi-0.dtd"
   xmlns:inkscape="http://www.inkscape.org/namespaces/inkscape"
   viewBox="0 0 133.33333 133.33333"
   height="133.33333"
   width="133.33333"
   xml:space="preserve"
   id="svg2"
   version="1.1"
   sodipodi:docname="arabic-keyboard.svg"
   inkscape:version="0.92.2 2405546, 2018-03-11"><sodipodi:namedview
     pagecolor="#ffffff"
     bordercolor="#666666"
     borderopacity="1"
     objecttolerance="10"
     gridtolerance="10"
     guidetolerance="10"
     inkscape:pageopacity="0"
     inkscape:pageshadow="2"
     inkscape:window-width="1366"
     inkscape:window-height="706"
     id="namedview75"
     showgrid="false"
     inkscape:zoom="1.7700001"
     inkscape:cx="66.666664"
     inkscape:cy="66.666664"
     inkscape:window-x="0"
     inkscape:window-y="34"
     inkscape:window-maximized="1"
     inkscape:current-layer="svg2" /><metadata
     id="metadata8"><rdf:RDF><cc:Work
         rdf:about=""><dc:format>image/svg+xml</dc:format><dc:type
           rdf:resource="http://purl.org/dc/dcmitype/StillImage" /></cc:Work></rdf:RDF></metadata><defs
     id="defs6"><clipPath
       id="clipPath18"
       clipPathUnits="userSpaceOnUse"><path
         id="path16"
         d="M 50,100 C 12.956,100 0,87.039 0,50 v 0 C 0,12.961 12.956,0 50,0 v 0 c 37.045,0 50,12.961 50,50 v 0 c 0,37.044 -12.955,50 -50,50 z" /></clipPath><linearGradient
       id="linearGradient32"
       spreadMethod="pad"
       gradientTransform="matrix(77.78125,-77.78125,-77.78125,-77.78125,11.109896,88.891144)"
       gradientUnits="userSpaceOnUse"
       y2="0"
       x2="1"
       y1="0"
       x1="0"><stop
         id="stop24"
         offset="0"
         style="stop-opacity:1;stop-color:#cf5d9f" /><stop
         id="stop26"
         offset="0.2854642"
         style="stop-opacity:1;stop-color:#cf5d9f" /><stop
         id="stop28"
         offset="1"
         style="stop-opacity:1;stop-color:#f24846" /><stop
         id="stop30"
         offset="1"
         style="stop-opacity:1;stop-color:#f24846" /></linearGradient><clipPath
       id="clipPath42"
       clipPathUnits="userSpaceOnUse"><path
         id="path40"
         d="M 0,100 H 100 V 0 H 0 Z" /></clipPath><clipPath
       id="clipPath50"
       clipPathUnits="userSpaceOnUse"><path
         id="path48"
         d="m 12.5,87.5 h 75 v -75 h -75 z" /></clipPath><clipPath
       id="clipPath66"
       clipPathUnits="userSpaceOnUse"><path
         id="path64"
         d="m 12.5,87.5 h 75 v -75 h -75 z" /></clipPath><clipPath
       id="clipPath82"
       clipPathUnits="userSpaceOnUse"><path
         id="path80"
         d="M 40.9639,31.2852 H 58.5381 V 21.3115 H 40.9639 Z" /></clipPath><clipPath
       id="clipPath102"
       clipPathUnits="userSpaceOnUse"><path
         id="path100"
         d="M 87.5,50 C 87.5,22.22 77.781,12.5 50,12.5 v 0 c -13.89,0 -23.26,2.43 -29.169,8.331 v 0 L 41.383,0.277 C 44.103,0.096 46.962,0 50,0 v 0 c 37.045,0 50,12.961 50,50 v 0 c 0,3.032 -0.096,5.885 -0.275,8.6 v 0 L 79.71,78.61 C 85.22,72.67 87.5,63.46 87.5,50" /></clipPath><clipPath
       id="clipPath110"
       clipPathUnits="userSpaceOnUse"><path
         id="path108"
         d="M -32768,32767 H 32767 V -32768 H -32768 Z" /></clipPath><linearGradient
       id="linearGradient120"
       spreadMethod="pad"
       gradientTransform="matrix(38.890621,-38.890621,-38.890621,-38.890621,49.995895,49.995895)"
       gradientUnits="userSpaceOnUse"
       y2="0"
       x2="1"
       y1="0"
       x1="0"><stop
         id="stop112"
         offset="0"
         style="stop-opacity:0.11999695;stop-color:#ffffff" /><stop
         id="stop114"
         offset="0.2854642"
         style="stop-opacity:0.11999695;stop-color:#ffffff" /><stop
         id="stop116"
         offset="1"
         style="stop-opacity:0;stop-color:#ffffff" /><stop
         id="stop118"
         offset="1"
         style="stop-opacity:0;stop-color:#ffffff" /></linearGradient><mask
       id="mask122"
       height="1"
       width="1"
       y="0"
       x="0"
       maskUnits="userSpaceOnUse"><g
         id="g132"><g
           id="g130"
           clip-path="url(#clipPath110)"><g
             id="g128"><g
               id="g126"><path
                 id="path124"
                 style="fill:url(#linearGradient120);stroke:none"
                 d="M -32768,32767 H 32767 V -32768 H -32768 Z" /></g></g></g></g></mask><linearGradient
       id="linearGradient146"
       spreadMethod="pad"
       gradientTransform="matrix(38.890621,-38.890621,-38.890621,-38.890621,49.995895,49.995895)"
       gradientUnits="userSpaceOnUse"
       y2="0"
       x2="1"
       y1="0"
       x1="0"><stop
         id="stop138"
         offset="0"
         style="stop-opacity:1;stop-color:#000000" /><stop
         id="stop140"
         offset="0.2854642"
         style="stop-opacity:1;stop-color:#000000" /><stop
         id="stop142"
         offset="1"
         style="stop-opacity:1;stop-color:#000000" /><stop
         id="stop144"
         offset="1"
         style="stop-opacity:1;stop-color:#000000" /></linearGradient></defs><g
     transform="matrix(1.25,0,0,-1.25,4,129.33333)"
     id="g10"><g
       id="g12"><g
         clip-path="url(#clipPath18)"
         id="g14"><g
           id="g20"><g
             id="g22"><path
               id="path34"
               style="fill:url(#linearGradient32);stroke:none"
               d="M 50,100 C 12.956,100 0,87.039 0,50 v 0 C 0,12.961 12.956,0 50,0 v 0 c 37.045,0 50,12.961 50,50 v 0 c 0,37.044 -12.955,50 -50,50 z"
               inkscape:connector-curvature="0" /></g></g></g></g><g
       id="g36"><g
         clip-path="url(#clipPath42)"
         id="g38"><g
           id="g44"><g
             id="g46" /><g
             id="g58"><g
               style="opacity:0.19999701"
               id="g56"
               clip-path="url(#clipPath50)"><g
                 id="g54"
                 transform="translate(87.5,50)"><path
                   id="path52"
                   style="fill:#ffffff;fill-opacity:1;fill-rule:nonzero;stroke:none"
                   d="m 0,0 c 0,-27.78 -9.72,-37.5 -37.5,-37.5 -13.89,0 -23.26,2.43 -29.17,8.33 l -0.01,0.01 C -72.57,-23.25 -75,-13.88 -75,0 c 0,27.78 9.72,37.5 37.5,37.5 13.79,0 23.12,-2.39 29.04,-8.21 l 0.4,-0.4 0.27,-0.28 C -2.28,22.67 0,13.46 0,0"
                   inkscape:connector-curvature="0" /></g></g></g></g><g
           id="g60"><g
             id="g62" /><g
             id="g74"><g
               style="opacity:0.60000598"
               id="g72"
               clip-path="url(#clipPath66)"><g
                 id="g70"
                 transform="translate(81.5,41.0801)"><path
                   id="path68"
                   style="fill:#ffffff;fill-opacity:1;fill-rule:nonzero;stroke:none"
                   d="m 0,0 h -14.67 c -1.1,0 -2,0.9 -2,2 v 11.67 c 0,1.1 0.9,2 2,2 H 0 c 1.1,0 2,-0.9 2,-2 V 2 C 2,0.9 1.1,0 0,0 m -8,-20.41 c 0,-1.111 -0.9,-2 -2,-2 h -43 c -1.1,0 -2,0.889 -2,2 v 11.66 c 0,1.11 0.9,2 2,2 h 43 c 1.1,0 2,-0.89 2,-2 z M -63,0 c -1.1,0 -2,0.9 -2,2 v 11.67 c 0,1.1 0.9,2 2,2 h 11.08 c 1.105,0 2,-0.896 2,-2 V 2 c 0,-1.1 -0.89,-2 -2,-2 z m 8,36.09 c 0,1.1 0.9,2 2,2 h 3 c 1.1,0 2,-0.9 2,-2 V 24.42 c 0,-1.1 -0.9,-2 -2,-2 h -3 c -1.1,0 -2,0.9 -2,2 z m 8,-22.42 c 0,1.1 0.9,2 2,2 h 3 c 1.1,0 2,-0.9 2,-2 V 2 c 0,-1.1 -0.9,-2 -2,-2 h -3 c -1.1,0 -2,0.9 -2,2 z m 2,22.42 c 0,1.1 0.9,2 2,2 h 3 c 1.1,0 2,-0.9 2,-2 V 24.42 c 0,-1.1 -0.9,-2 -2,-2 h -3 c -1.1,0 -2,0.9 -2,2 z m 8,-22.42 c 0,1.1 0.9,2 2,2 h 3 c 1.1,0 2,-0.9 2,-2 V 2 c 0,-1.1 -0.9,-2 -2,-2 h -3 c -1.1,0 -2,0.9 -2,2 z m 2,22.42 c 0,1.1 0.9,2 2,2 h 3 c 1.1,0 2,-0.9 2,-2 V 24.42 c 0,-1.1 -0.9,-2 -2,-2 h -3 c -1.1,0 -2,0.9 -2,2 z m 8,-22.42 c 0,1.1 0.9,2 2,2 h 3 c 1.1,0 2,-0.9 2,-2 V 2 c 0,-1.1 -0.9,-2 -2,-2 h -3 c -1.1,0 -2,0.9 -2,2 z m 2,22.42 c 0,1.1 0.9,2 2,2 h 3 c 1.1,0 2,-0.9 2,-2 V 24.42 c 0,-1.1 -0.9,-2 -2,-2 h -3 c -1.1,0 -2,0.9 -2,2 z m 10,0 c 0,1.1 0.9,2 2,2 h 3 c 1.1,0 2,-0.9 2,-2 V 24.42 c 0,-1.1 -0.9,-2 -2,-2 h -3 c -1.1,0 -2,0.9 -2,2 z M 6,8.92 C 6,18.73 4.79,26.28 2,31.95 v -7.53 c 0,-1.1 -0.9,-2 -2,-2 h -3 c -1.1,0 -2,0.9 -2,2 v 11.67 c 0,1.1 0.9,2 2,2 h 0.67 c -5.91,5.9 -15.28,8.33 -29.17,8.33 -13.89,0 -23.26,-2.43 -29.17,-8.33 H -60 c 1.1,0 2,-0.9 2,-2 V 24.42 c 0,-1.1 -0.9,-2 -2,-2 h -3 c -1.1,0 -2,0.9 -2,2 v 7.53 c -2.79,-5.67 -4,-13.22 -4,-23.03 0,-9.81 1.21,-17.36 4,-23.03 v 5.36 c 0,1.11 0.9,2 2,2 h 3 c 1.1,0 2,-0.89 2,-2 v -11.66 l -0.009,-2.092 c 5.933,-4.279 14.543,-6.078 26.509,-6.078 11.967,0 20.575,1.799 26.51,6.078 L -5,-20.41 v 11.66 c 0,1.11 0.9,2 2,2 h 3 c 1.1,0 2,-0.89 2,-2 v -5.36 c 2.79,5.67 4,13.22 4,23.03"
                   inkscape:connector-curvature="0" /></g></g></g></g><g
           id="g76"><g
             id="g78" /><g
             id="g94"><g
               style="opacity:0.60000598"
               id="g92"
               clip-path="url(#clipPath82)"><g
                 id="g86"
                 transform="translate(45.4043,28.3438)"><path
                   id="path84"
                   style="fill:#ffffff;fill-opacity:1;fill-rule:nonzero;stroke:none"
                   d="m 0,0 -1.261,-3.628 h 2.48 z M 2.325,-7.032 1.737,-5.268 H -1.807 L -2.409,-7.032 H -4.44 l 3.628,9.973 h 1.526 l 3.642,-9.973 z"
                   inkscape:connector-curvature="0" /></g><g
                 id="g90"
                 transform="translate(54.7705,29.5479)"><path
                   id="path88"
                   style="fill:#ffffff;fill-opacity:1;fill-rule:nonzero;stroke:none"
                   d="M 0,0 H -1.835 V -2.634 H 0 c 0.854,0 1.415,0.547 1.415,1.318 C 1.415,-0.546 0.854,0 0,0 m 1.513,-8.236 -1.948,3.978 h -1.4 v -3.978 h -1.947 v 9.973 h 3.908 c 2.031,0 3.235,-1.386 3.235,-3.053 0,-1.402 -0.854,-2.27 -1.82,-2.62 l 2.227,-4.3 z"
                   inkscape:connector-curvature="0" /></g></g></g></g></g></g><g
       id="g96"><g
         clip-path="url(#clipPath102)"
         id="g98"><g
           id="g104"><g
             id="g106" /><g
             mask="url(#mask122)"
             id="g134"><g
               id="g136"><path
                 id="path148"
                 style="fill:url(#linearGradient146);stroke:none"
                 d="M 87.5,50 C 87.5,22.22 77.781,12.5 50,12.5 v 0 c -13.89,0 -23.26,2.43 -29.169,8.331 v 0 L 41.383,0.277 C 44.103,0.096 46.962,0 50,0 v 0 c 37.045,0 50,12.961 50,50 v 0 c 0,3.032 -0.096,5.885 -0.275,8.6 v 0 L 79.71,78.61 C 85.22,72.67 87.5,63.46 87.5,50"
                 inkscape:connector-curvature="0" /></g></g></g></g></g></g></svg>