<?xml version="1.0" encoding="UTF-8" standalone="no"?>
<svg
   xmlns:dc="http://purl.org/dc/elements/1.1/"
   xmlns:cc="http://creativecommons.org/ns#"
   xmlns:rdf="http://www.w3.org/1999/02/22-rdf-syntax-ns#"
   xmlns:svg="http://www.w3.org/2000/svg"
   xmlns="http://www.w3.org/2000/svg"
   xmlns:sodipodi="http://sodipodi.sourceforge.net/DTD/sodipodi-0.dtd"
   xmlns:inkscape="http://www.inkscape.org/namespaces/inkscape"
   viewBox="0 0 133.33333 133.33333"
   height="133.33333"
   width="133.33333"
   xml:space="preserve"
   id="svg2"
   version="1.1"
   sodipodi:docname="harbour-spritradar.svg"
   inkscape:version="0.92.2 2405546, 2018-03-11"><sodipodi:namedview
     pagecolor="#ffffff"
     bordercolor="#666666"
     borderopacity="1"
     objecttolerance="10"
     gridtolerance="10"
     guidetolerance="10"
     inkscape:pageopacity="0"
     inkscape:pageshadow="2"
     inkscape:window-width="1366"
     inkscape:window-height="706"
     id="namedview128"
     showgrid="false"
     inkscape:zoom="1.7700001"
     inkscape:cx="66.666664"
     inkscape:cy="66.666664"
     inkscape:window-x="0"
     inkscape:window-y="34"
     inkscape:window-maximized="1"
     inkscape:current-layer="svg2" /><metadata
     id="metadata8"><rdf:RDF><cc:Work
         rdf:about=""><dc:format>image/svg+xml</dc:format><dc:type
           rdf:resource="http://purl.org/dc/dcmitype/StillImage" /></cc:Work></rdf:RDF></metadata><defs
     id="defs6"><clipPath
       id="clipPath18"
       clipPathUnits="userSpaceOnUse"><path
         id="path16"
         d="M 50,100 C 12.956,100 0,87.039 0,50 v 0 C 0,12.961 12.956,0 50,0 v 0 c 37.045,0 50,12.961 50,50 v 0 c 0,37.044 -12.955,50 -50,50 z" /></clipPath><linearGradient
       id="linearGradient30"
       spreadMethod="pad"
       gradientTransform="matrix(77.78125,-77.78125,-77.78125,-77.78125,11.109896,88.891144)"
       gradientUnits="userSpaceOnUse"
       y2="0"
       x2="1"
       y1="0"
       x1="0"><stop
         id="stop24"
         offset="0"
         style="stop-opacity:1;stop-color:#ff6e69" /><stop
         id="stop26"
         offset="0.00000007"
         style="stop-opacity:1;stop-color:#ff6e69" /><stop
         id="stop28"
         offset="1"
         style="stop-opacity:1;stop-color:#e65045" /></linearGradient><clipPath
       id="clipPath40"
       clipPathUnits="userSpaceOnUse"><path
         id="path38"
         d="M 87.5,50 C 87.5,22.22 77.781,12.5 50,12.5 v 0 c -13.38,0 -22.57,2.26 -28.51,7.701 v 0 L 41.41,0.28 C 44.12,0.1 46.97,0 50,0 v 0 c 37.04,0 50,12.96 50,50 v 0 c 0,3.04 -0.1,5.89 -0.28,8.61 v 0 L 79.231,79.11 C 85.09,73.201 87.5,63.84 87.5,50" /></clipPath><clipPath
       id="clipPath48"
       clipPathUnits="userSpaceOnUse"><path
         id="path46"
         d="M -32768,32767 H 32767 V -32768 H -32768 Z" /></clipPath><linearGradient
       id="linearGradient54"
       spreadMethod="pad"
       gradientTransform="matrix(38.829994,-38.829994,-38.829994,-38.829994,50.06749,49.947494)"
       gradientUnits="userSpaceOnUse"
       y2="0"
       x2="1"
       y1="0"
       x1="0"><stop
         id="stop50"
         offset="0"
         style="stop-opacity:0.11999695;stop-color:#ffffff" /><stop
         id="stop52"
         offset="1"
         style="stop-opacity:0;stop-color:#ffffff" /></linearGradient><mask
       id="mask56"
       height="1"
       width="1"
       y="0"
       x="0"
       maskUnits="userSpaceOnUse"><g
         id="g66"><g
           id="g64"
           clip-path="url(#clipPath48)"><g
             id="g62"><g
               id="g60"><path
                 id="path58"
                 style="fill:url(#linearGradient54);stroke:none"
                 d="M -32768,32767 H 32767 V -32768 H -32768 Z" /></g></g></g></g></mask><linearGradient
       id="linearGradient76"
       spreadMethod="pad"
       gradientTransform="matrix(38.829994,-38.829994,-38.829994,-38.829994,50.06749,49.947494)"
       gradientUnits="userSpaceOnUse"
       y2="0"
       x2="1"
       y1="0"
       x1="0"><stop
         id="stop72"
         offset="0"
         style="stop-opacity:1;stop-color:#000000" /><stop
         id="stop74"
         offset="1"
         style="stop-opacity:1;stop-color:#000000" /></linearGradient><clipPath
       id="clipPath86"
       clipPathUnits="userSpaceOnUse"><path
         id="path84"
         d="M 0,100 H 100 V 0 H 0 Z" /></clipPath><clipPath
       id="clipPath98"
       clipPathUnits="userSpaceOnUse"><path
         id="path96"
         d="M 66.229,61.96 C 65.61,61.16 65.41,60.13 65.67,59.14 v 0 c 0.29,-1.1 1.19,-1.99 2.29,-2.26 v 0 c 0.27,-0.07 0.55,-0.1 0.821,-0.1 v 0 C 70.56,56.78 72,58.22 72,60 v 0 c 0,0.86 -0.33,1.67 -0.94,2.28 v 0 c -0.61,0.6 -1.421,0.941 -2.279,0.941 v 0 c -1.012,0 -1.942,-0.461 -2.552,-1.261" /></clipPath><clipPath
       id="clipPath106"
       clipPathUnits="userSpaceOnUse"><path
         id="path104"
         d="M -32768,32767 H 32767 V -32768 H -32768 Z" /></clipPath><linearGradient
       id="linearGradient112"
       spreadMethod="pad"
       gradientTransform="matrix(4.5531926,-4.5531926,-4.5531926,-4.5531926,66.501785,62.273197)"
       gradientUnits="userSpaceOnUse"
       y2="0"
       x2="1"
       y1="0"
       x1="0"><stop
         id="stop108"
         offset="0"
         style="stop-opacity:0.11999695;stop-color:#ffffff" /><stop
         id="stop110"
         offset="1"
         style="stop-opacity:0;stop-color:#ffffff" /></linearGradient><mask
       id="mask114"
       height="1"
       width="1"
       y="0"
       x="0"
       maskUnits="userSpaceOnUse"><g
         id="g124"><g
           id="g122"
           clip-path="url(#clipPath106)"><g
             id="g120"><g
               id="g118"><path
                 id="path116"
                 style="fill:url(#linearGradient112);stroke:none"
                 d="M -32768,32767 H 32767 V -32768 H -32768 Z" /></g></g></g></g></mask><linearGradient
       id="linearGradient134"
       spreadMethod="pad"
       gradientTransform="matrix(4.5531926,-4.5531926,-4.5531926,-4.5531926,66.501785,62.273197)"
       gradientUnits="userSpaceOnUse"
       y2="0"
       x2="1"
       y1="0"
       x1="0"><stop
         id="stop130"
         offset="0"
         style="stop-opacity:1;stop-color:#000000" /><stop
         id="stop132"
         offset="1"
         style="stop-opacity:1;stop-color:#000000" /></linearGradient><clipPath
       id="clipPath144"
       clipPathUnits="userSpaceOnUse"><path
         id="path142"
         d="M 33.67,69 29.25,25.25 41.643,12.857 C 44.229,12.62 47.004,12.5 50,12.5 v 0 c 27.781,0 37.5,9.72 37.5,37.5 v 0 c 0,0.026 -0.001,0.05 -0.001,0.075 v 0 L 73.18,64.391 C 74.35,63.21 75,61.65 75,60 V 60 32.559 C 75,29.08 72.17,26.25 68.691,26.25 v 0 c -3.481,0 -6.311,2.83 -6.311,6.309 v 0 5.511 c 0,1.831 -1.48,3.31 -3.309,3.31 v 0 H 56.75 v 3 h 2.321 c 3.479,0 6.309,-2.831 6.309,-6.31 v 0 -5.511 c 0,-1.829 1.49,-3.309 3.311,-3.309 v 0 c 1.829,0 3.309,1.48 3.309,3.309 v 0 21.95 L 70.691,54.08 c -0.611,-0.2 -1.251,-0.3 -1.91,-0.3 v 0 c -0.571,0 -1.161,0.07 -1.771,0.22 v 0 c -1.66,0.4 -3.069,1.52 -3.76,3 v 0 c -1.35,2.9 -0.57,5.61 1.05,7.3 v 0 l -8.39,8.39 z" /></clipPath><clipPath
       id="clipPath152"
       clipPathUnits="userSpaceOnUse"><path
         id="path150"
         d="M -32768,32767 H 32767 V -32768 H -32768 Z" /></clipPath><linearGradient
       id="linearGradient158"
       spreadMethod="pad"
       gradientTransform="matrix(46.832508,-46.832508,-46.832508,-46.832508,30.353577,65.683594)"
       gradientUnits="userSpaceOnUse"
       y2="0"
       x2="1"
       y1="0"
       x1="0"><stop
         id="stop154"
         offset="0"
         style="stop-opacity:0.11999695;stop-color:#ffffff" /><stop
         id="stop156"
         offset="1"
         style="stop-opacity:0;stop-color:#ffffff" /></linearGradient><mask
       id="mask160"
       height="1"
       width="1"
       y="0"
       x="0"
       maskUnits="userSpaceOnUse"><g
         id="g170"><g
           id="g168"
           clip-path="url(#clipPath152)"><g
             id="g166"><g
               id="g164"><path
                 id="path162"
                 style="fill:url(#linearGradient158);stroke:none"
                 d="M -32768,32767 H 32767 V -32768 H -32768 Z" /></g></g></g></g></mask><linearGradient
       id="linearGradient180"
       spreadMethod="pad"
       gradientTransform="matrix(46.832508,-46.832508,-46.832508,-46.832508,30.353577,65.683594)"
       gradientUnits="userSpaceOnUse"
       y2="0"
       x2="1"
       y1="0"
       x1="0"><stop
         id="stop176"
         offset="0"
         style="stop-opacity:1;stop-color:#000000" /><stop
         id="stop178"
         offset="1"
         style="stop-opacity:1;stop-color:#000000" /></linearGradient><clipPath
       id="clipPath190"
       clipPathUnits="userSpaceOnUse"><path
         id="path188"
         d="M 0,100 H 100 V 0 H 0 Z" /></clipPath><clipPath
       id="clipPath198"
       clipPathUnits="userSpaceOnUse"><path
         id="path196"
         d="M 56.75,73.27 H 75 V 26.25 H 56.75 Z" /></clipPath><clipPath
       id="clipPath202"
       clipPathUnits="userSpaceOnUse"><path
         id="path200"
         d="m 68.78,56.78 c -0.27,0 -0.551,0.03 -0.82,0.1 -1.1,0.27 -2,1.16 -2.29,2.26 -0.26,0.99 -0.06,2.02 0.559,2.82 0.611,0.8 1.541,1.26 2.551,1.26 0.86,0 1.67,-0.34 2.28,-0.94 C 71.67,61.67 72,60.86 72,60 72,58.22 70.56,56.78 68.78,56.78 m 4.4,7.61 -8.44,8.44 c -0.28,0.29 -0.66,0.44 -1.06,0.44 -0.4,0 -0.78,-0.15 -1.06,-0.44 -0.58,-0.58 -0.58,-1.53 0,-2.12 l 4.56,-4.56 -1.23,-0.62 c -0.6,-0.3 -1.16,-0.72 -1.65,-1.23 -1.62,-1.69 -2.4,-4.4 -1.05,-7.3 0.69,-1.48 2.1,-2.6 3.76,-3 0.61,-0.15 1.2,-0.22 1.77,-0.22 0.66,0 1.3,0.1 1.91,0.3 L 72,54.51 V 32.56 c 0,-1.83 -1.48,-3.31 -3.31,-3.31 -1.82,0 -3.31,1.48 -3.31,3.31 v 5.51 c 0,3.48 -2.83,6.31 -6.31,6.31 h -2.32 v -3 h 2.32 c 1.83,0 3.31,-1.48 3.31,-3.31 v -5.51 c 0,-3.48 2.83,-6.31 6.31,-6.31 3.48,0 6.31,2.83 6.31,6.31 V 60 c 0,1.65 -0.65,3.21 -1.82,4.39" /></clipPath><clipPath
       id="clipPath206"
       clipPathUnits="userSpaceOnUse"><path
         id="path204"
         d="M -32768,32767 H 32767 V -32768 H -32768 Z" /></clipPath><linearGradient
       id="linearGradient214"
       spreadMethod="pad"
       gradientTransform="matrix(18.25,0,0,-18.25,56.75,49.76001)"
       gradientUnits="userSpaceOnUse"
       y2="0"
       x2="1"
       y1="0"
       x1="0"><stop
         id="stop208"
         offset="0"
         style="stop-opacity:0.8;stop-color:#ffffff" /><stop
         id="stop210"
         offset="0.223931"
         style="stop-opacity:0.6;stop-color:#ffffff" /><stop
         id="stop212"
         offset="1"
         style="stop-opacity:0.6;stop-color:#ffffff" /></linearGradient><mask
       id="mask216"
       height="1"
       width="1"
       y="0"
       x="0"
       maskUnits="userSpaceOnUse"><g
         id="g226"><g
           id="g224"
           clip-path="url(#clipPath206)"><g
             id="g222"><g
               id="g220"><path
                 id="path218"
                 style="fill:url(#linearGradient214);stroke:none"
                 d="M -32768,32767 H 32767 V -32768 H -32768 Z" /></g></g></g></g></mask><linearGradient
       id="linearGradient234"
       spreadMethod="pad"
       gradientTransform="matrix(18.25,0,0,-18.25,56.75,49.76001)"
       gradientUnits="userSpaceOnUse"
       y2="0"
       x2="1"
       y1="0"
       x1="0"><stop
         id="stop228"
         offset="0"
         style="stop-opacity:1;stop-color:#303030" /><stop
         id="stop230"
         offset="0.223931"
         style="stop-opacity:1;stop-color:#303030" /><stop
         id="stop232"
         offset="1"
         style="stop-opacity:1;stop-color:#303030" /></linearGradient></defs><g
     transform="matrix(1.25,0,0,-1.25,4,129.33333)"
     id="g10"><g
       id="g12"><g
         clip-path="url(#clipPath18)"
         id="g14"><g
           id="g20"><g
             id="g22"><path
               id="path32"
               style="fill:url(#linearGradient30);stroke:none"
               d="M 50,100 C 12.956,100 0,87.039 0,50 v 0 C 0,12.961 12.956,0 50,0 v 0 c 37.045,0 50,12.961 50,50 v 0 c 0,37.044 -12.955,50 -50,50 z"
               inkscape:connector-curvature="0" /></g></g></g></g><g
       id="g34"><g
         clip-path="url(#clipPath40)"
         id="g36"><g
           id="g42"><g
             id="g44" /><g
             mask="url(#mask56)"
             id="g68"><g
               id="g70"><path
                 id="path78"
                 style="fill:url(#linearGradient76);stroke:none"
                 d="M 87.5,50 C 87.5,22.22 77.781,12.5 50,12.5 v 0 c -13.38,0 -22.57,2.26 -28.51,7.701 v 0 L 41.41,0.28 C 44.12,0.1 46.97,0 50,0 v 0 c 37.04,0 50,12.96 50,50 v 0 c 0,3.04 -0.1,5.89 -0.28,8.61 v 0 L 79.231,79.11 C 85.09,73.201 87.5,63.84 87.5,50"
                 inkscape:connector-curvature="0" /></g></g></g></g></g><g
       id="g80"><g
         clip-path="url(#clipPath86)"
         id="g82"><g
           transform="translate(87.5,50)"
           id="g88"><path
             id="path90"
             style="fill:#ffaf99;fill-opacity:1;fill-rule:nonzero;stroke:none"
             d="m 0,0 c 0,-27.78 -9.72,-37.5 -37.5,-37.5 -13.38,0 -22.57,2.26 -28.51,7.7 -0.03,0.03 -0.06,0.06 -0.1,0.09 -6.31,5.86 -8.89,15.39 -8.89,29.71 0,27.78 9.72,37.5 37.5,37.5 13.94,0 23.33,-2.45 29.23,-8.39 C -2.41,23.2 0,13.84 0,0"
             inkscape:connector-curvature="0" /></g></g></g><g
       id="g92"><g
         clip-path="url(#clipPath98)"
         id="g94"><g
           id="g100"><g
             id="g102" /><g
             mask="url(#mask114)"
             id="g126"><g
               id="g128"><path
                 id="path136"
                 style="fill:url(#linearGradient134);stroke:none"
                 d="M 66.229,61.96 C 65.61,61.16 65.41,60.13 65.67,59.14 v 0 c 0.29,-1.1 1.19,-1.99 2.29,-2.26 v 0 c 0.27,-0.07 0.55,-0.1 0.821,-0.1 v 0 C 70.56,56.78 72,58.22 72,60 v 0 c 0,0.86 -0.33,1.67 -0.94,2.28 v 0 c -0.61,0.6 -1.421,0.941 -2.279,0.941 v 0 c -1.012,0 -1.942,-0.461 -2.552,-1.261"
                 inkscape:connector-curvature="0" /></g></g></g></g></g><g
       id="g138"><g
         clip-path="url(#clipPath144)"
         id="g140"><g
           id="g146"><g
             id="g148" /><g
             mask="url(#mask160)"
             id="g172"><g
               id="g174"><path
                 id="path182"
                 style="fill:url(#linearGradient180);stroke:none"
                 d="M 33.67,69 29.25,25.25 41.643,12.857 C 44.229,12.62 47.004,12.5 50,12.5 v 0 c 27.781,0 37.5,9.72 37.5,37.5 v 0 c 0,0.026 -0.001,0.05 -0.001,0.075 v 0 L 73.18,64.391 C 74.35,63.21 75,61.65 75,60 V 60 32.559 C 75,29.08 72.17,26.25 68.691,26.25 v 0 c -3.481,0 -6.311,2.83 -6.311,6.309 v 0 5.511 c 0,1.831 -1.48,3.31 -3.309,3.31 v 0 H 56.75 v 3 h 2.321 c 3.479,0 6.309,-2.831 6.309,-6.31 v 0 -5.511 c 0,-1.829 1.49,-3.309 3.311,-3.309 v 0 c 1.829,0 3.309,1.48 3.309,3.309 v 0 21.95 L 70.691,54.08 c -0.611,-0.2 -1.251,-0.3 -1.91,-0.3 v 0 c -0.571,0 -1.161,0.07 -1.771,0.22 v 0 c -1.66,0.4 -3.069,1.52 -3.76,3 v 0 c -1.35,2.9 -0.57,5.61 1.05,7.3 v 0 l -8.39,8.39 z"
                 inkscape:connector-curvature="0" /></g></g></g></g></g><g
       id="g184"><g
         clip-path="url(#clipPath190)"
         id="g186"><g
           id="g192"><g
             id="g194" /><g
             id="g252"><g
               style="opacity:0.80000299"
               id="g250"
               clip-path="url(#clipPath198)"><g
                 id="g248"><g
                   id="g246"
                   clip-path="url(#clipPath202)"><g
                     id="g244"><g
                       id="g236" /><g
                       id="g242"
                       mask="url(#mask216)"><g
                         id="g240"><path
                           id="path238"
                           style="fill:url(#linearGradient234);stroke:none"
                           d="m 68.78,56.78 c -0.27,0 -0.551,0.03 -0.82,0.1 -1.1,0.27 -2,1.16 -2.29,2.26 -0.26,0.99 -0.06,2.02 0.559,2.82 0.611,0.8 1.541,1.26 2.551,1.26 0.86,0 1.67,-0.34 2.28,-0.94 C 71.67,61.67 72,60.86 72,60 72,58.22 70.56,56.78 68.78,56.78 m 4.4,7.61 -8.44,8.44 c -0.28,0.29 -0.66,0.44 -1.06,0.44 -0.4,0 -0.78,-0.15 -1.06,-0.44 -0.58,-0.58 -0.58,-1.53 0,-2.12 l 4.56,-4.56 -1.23,-0.62 c -0.6,-0.3 -1.16,-0.72 -1.65,-1.23 -1.62,-1.69 -2.4,-4.4 -1.05,-7.3 0.69,-1.48 2.1,-2.6 3.76,-3 0.61,-0.15 1.2,-0.22 1.77,-0.22 0.66,0 1.3,0.1 1.91,0.3 L 72,54.51 V 32.56 c 0,-1.83 -1.48,-3.31 -3.31,-3.31 -1.82,0 -3.31,1.48 -3.31,3.31 v 5.51 c 0,3.48 -2.83,6.31 -6.31,6.31 h -2.32 v -3 h 2.32 c 1.83,0 3.31,-1.48 3.31,-3.31 v -5.51 c 0,-3.48 2.83,-6.31 6.31,-6.31 3.48,0 6.31,2.83 6.31,6.31 V 60 c 0,1.65 -0.65,3.21 -1.82,4.39"
                           inkscape:connector-curvature="0" /></g></g></g></g></g></g></g></g><path
           id="path254"
           style="fill:#303030;fill-opacity:1;fill-rule:nonzero;stroke:none"
           d="M 52.333,54.833 H 33.666 V 69 H 52.333 Z M 29.25,70.688 V 25.25 h 27.5 v 45.438 c 0,1.553 -1.259,2.812 -2.812,2.812 H 32.063 c -1.554,0 -2.813,-1.259 -2.813,-2.812"
           inkscape:connector-curvature="0" /></g></g></g></svg>