<?xml version="1.0" encoding="UTF-8" standalone="no"?>
<!-- Created with Inkscape (http://www.inkscape.org/) -->

<svg
   xmlns:dc="http://purl.org/dc/elements/1.1/"
   xmlns:cc="http://creativecommons.org/ns#"
   xmlns:rdf="http://www.w3.org/1999/02/22-rdf-syntax-ns#"
   xmlns:svg="http://www.w3.org/2000/svg"
   xmlns="http://www.w3.org/2000/svg"
   xmlns:sodipodi="http://sodipodi.sourceforge.net/DTD/sodipodi-0.dtd"
   xmlns:inkscape="http://www.inkscape.org/namespaces/inkscape"
   version="1.1"
   id="svg2"
   xml:space="preserve"
   width="106.66667"
   height="106.66667"
   viewBox="0 0 106.66667 106.66667"
   sodipodi:docname="harbour-networkinfo.svg"
   inkscape:version="0.92.2 2405546, 2018-03-11"><metadata
     id="metadata8"><rdf:RDF><cc:Work
         rdf:about=""><dc:format>image/svg+xml</dc:format><dc:type
           rdf:resource="http://purl.org/dc/dcmitype/StillImage" /><dc:title /></cc:Work></rdf:RDF></metadata><defs
     id="defs6"><clipPath
       clipPathUnits="userSpaceOnUse"
       id="clipPath18"><path
         d="m 1,39.956 c 0,-28.892 10.105,-39 39,-39 v 0 c 28.894,0 39,10.108 39,39 v 0 c 0,28.894 -10.106,39 -39,39 v 0 c -28.895,0 -39,-10.106 -39,-39"
         id="path16"
         inkscape:connector-curvature="0" /></clipPath><linearGradient
       x1="0"
       y1="0"
       x2="1"
       y2="0"
       gradientUnits="userSpaceOnUse"
       gradientTransform="matrix(60.670349,-60.670349,-60.670349,-60.670349,9.6648254,70.291695)"
       spreadMethod="pad"
       id="linearGradient30"><stop
         style="stop-opacity:1;stop-color:#fcfdfd"
         offset="0"
         id="stop24" /><stop
         style="stop-opacity:1;stop-color:#fcfdfd"
         offset="0.0000004"
         id="stop26" /><stop
         style="stop-opacity:1;stop-color:#ededed"
         offset="1"
         id="stop28" /></linearGradient><clipPath
       clipPathUnits="userSpaceOnUse"
       id="clipPath40"><path
         d="m 1,39.956 c 0,-28.892 10.105,-39 39,-39 v 0 c 28.894,0 39,10.108 39,39 v 0 c 0,28.894 -10.106,39 -39,39 v 0 c -28.895,0 -39,-10.106 -39,-39"
         id="path38"
         inkscape:connector-curvature="0" /></clipPath><linearGradient
       x1="0"
       y1="0"
       x2="1"
       y2="0"
       gradientUnits="userSpaceOnUse"
       gradientTransform="matrix(80,-80,-80,-80,0,79.956329)"
       spreadMethod="pad"
       id="linearGradient52"><stop
         style="stop-opacity:1;stop-color:#fcfdfd"
         offset="0"
         id="stop46" /><stop
         style="stop-opacity:1;stop-color:#fcfdfd"
         offset="0.0000004"
         id="stop48" /><stop
         style="stop-opacity:1;stop-color:#ededed"
         offset="1"
         id="stop50" /></linearGradient><clipPath
       clipPathUnits="userSpaceOnUse"
       id="clipPath62"><path
         d="m 20.585,54.599 10.614,-10.613 -1.122,-0.871 -5.57,5.57 -5.09,-1.184 L 32.236,19.485 50.24,1.481 c 20.039,2.275 27.959,12.256 28.695,34.85 v 0 L 56.701,58.566 39.582,66.244 Z"
         id="path60"
         inkscape:connector-curvature="0" /></clipPath><clipPath
       clipPathUnits="userSpaceOnUse"
       id="clipPath70"><path
         d="M -32768,32767 H 32767 V -32768 H -32768 Z"
         id="path68"
         inkscape:connector-curvature="0" /></clipPath><linearGradient
       x1="0"
       y1="0"
       x2="1"
       y2="0"
       gradientUnits="userSpaceOnUse"
       gradientTransform="matrix(47.357208,-47.357208,-47.357208,-47.357208,24.739838,58.753998)"
       spreadMethod="pad"
       id="linearGradient80"><stop
         style="stop-opacity:0.29999237;stop-color:#ffffff"
         offset="0"
         id="stop72" /><stop
         style="stop-opacity:0.29999237;stop-color:#ffffff"
         offset="0.0000002"
         id="stop74" /><stop
         style="stop-opacity:0;stop-color:#ffffff"
         offset="0.8"
         id="stop76" /><stop
         style="stop-opacity:0;stop-color:#ffffff"
         offset="1"
         id="stop78" /></linearGradient><mask
       maskUnits="userSpaceOnUse"
       x="0"
       y="0"
       width="1"
       height="1"
       id="mask82"><g
         id="g92"><g
           clip-path="url(#clipPath70)"
           id="g90"><g
             id="g88"><g
               id="g86"><path
                 d="M -32768,32767 H 32767 V -32768 H -32768 Z"
                 style="fill:url(#linearGradient80);stroke:none"
                 id="path84"
                 inkscape:connector-curvature="0" /></g></g></g></g></mask><linearGradient
       x1="0"
       y1="0"
       x2="1"
       y2="0"
       gradientUnits="userSpaceOnUse"
       gradientTransform="matrix(47.357208,-47.357208,-47.357208,-47.357208,24.739838,58.753998)"
       spreadMethod="pad"
       id="linearGradient106"><stop
         style="stop-opacity:1;stop-color:#231815"
         offset="0"
         id="stop98" /><stop
         style="stop-opacity:1;stop-color:#231815"
         offset="0.0000002"
         id="stop100" /><stop
         style="stop-opacity:1;stop-color:#231815"
         offset="0.8"
         id="stop102" /><stop
         style="stop-opacity:1;stop-color:#231815"
         offset="1"
         id="stop104" /></linearGradient><clipPath
       clipPathUnits="userSpaceOnUse"
       id="clipPath116"><path
         d="m 37.007,45.518 c -0.7,-1.653 0.073,-3.561 1.725,-4.261 v 0 c 1.654,-0.699 3.561,0.073 4.26,1.725 v 0 c 0.7,1.653 -0.072,3.561 -1.724,4.261 v 0 c -0.414,0.175 -0.844,0.258 -1.267,0.258 v 0 c -1.266,0 -2.469,-0.744 -2.994,-1.983"
         id="path114"
         inkscape:connector-curvature="0" /></clipPath><linearGradient
       x1="0"
       y1="0"
       x2="1"
       y2="0"
       gradientUnits="userSpaceOnUse"
       gradientTransform="matrix(4.5974131,-4.5974131,-4.5974131,-4.5974131,37.701286,46.548718)"
       spreadMethod="pad"
       id="linearGradient128"><stop
         style="stop-opacity:1;stop-color:#1a9ae1"
         offset="0"
         id="stop122" /><stop
         style="stop-opacity:1;stop-color:#1a9ae1"
         offset="0.0000004"
         id="stop124" /><stop
         style="stop-opacity:1;stop-color:#1985e1"
         offset="1"
         id="stop126" /></linearGradient><clipPath
       clipPathUnits="userSpaceOnUse"
       id="clipPath138"><path
         d="m 30.046,50.593 4.235,-1.794 c 1.339,1.682 3.402,2.764 5.719,2.764 v 0 c 2.317,0 4.38,-1.082 5.72,-2.764 v 0 l 4.234,1.794 c -2.097,3.285 -5.767,5.47 -9.954,5.47 v 0 c -4.187,0 -7.857,-2.185 -9.954,-5.47"
         id="path136"
         inkscape:connector-curvature="0" /></clipPath><linearGradient
       x1="0"
       y1="0"
       x2="1"
       y2="0"
       gradientUnits="userSpaceOnUse"
       gradientTransform="matrix(10.151964,-10.151964,-10.151964,-10.151964,34.924019,55.866253)"
       spreadMethod="pad"
       id="linearGradient150"><stop
         style="stop-opacity:1;stop-color:#1a9ae1"
         offset="0"
         id="stop144" /><stop
         style="stop-opacity:1;stop-color:#1a9ae1"
         offset="0.0000004"
         id="stop146" /><stop
         style="stop-opacity:1;stop-color:#1985e1"
         offset="1"
         id="stop148" /></linearGradient><clipPath
       clipPathUnits="userSpaceOnUse"
       id="clipPath160"><path
         d="m 47.245,45.192 c 0.04,-0.309 0.067,-0.622 0.067,-0.942 v 0 c 0,-4.039 -3.273,-7.312 -7.312,-7.312 v 0 c -4.039,0 -7.313,3.273 -7.313,7.312 v 0 c 0,0.32 0.028,0.633 0.068,0.942 v 0 l -4.237,1.793 C 28.31,46.106 28.187,45.193 28.187,44.25 v 0 c 0,-6.524 5.289,-11.812 11.813,-11.812 v 0 c 6.524,0 11.812,5.288 11.812,11.812 v 0 c 0,0.943 -0.121,1.856 -0.33,2.735 v 0 z"
         id="path158"
         inkscape:connector-curvature="0" /></clipPath><linearGradient
       x1="0"
       y1="0"
       x2="1"
       y2="0"
       gradientUnits="userSpaceOnUse"
       gradientTransform="matrix(15.461188,-15.461188,-15.461188,-15.461188,32.269405,50.736385)"
       spreadMethod="pad"
       id="linearGradient172"><stop
         style="stop-opacity:1;stop-color:#1a9ae1"
         offset="0"
         id="stop166" /><stop
         style="stop-opacity:1;stop-color:#1a9ae1"
         offset="0.0000004"
         id="stop168" /><stop
         style="stop-opacity:1;stop-color:#1985e1"
         offset="1"
         id="stop170" /></linearGradient><clipPath
       clipPathUnits="userSpaceOnUse"
       id="clipPath182"><path
         d="m 55.492,48.685 c 0.403,-1.411 0.633,-2.895 0.633,-4.435 v 0 C 56.125,35.345 48.905,28.125 40,28.125 v 0 c -8.906,0 -16.125,7.22 -16.125,16.125 v 0 c 0,1.54 0.229,3.024 0.632,4.435 v 0 l -5.45,2.308 C 18.373,48.867 18,46.603 18,44.25 v 0 c 0,-4.47 1.33,-8.63 3.63,-12.11 v 0 c 0.12,-0.19 0.25,-0.38 0.39,-0.56 v 0 c 0.14,-0.21 0.29,-0.41 0.449,-0.61 v 0 C 27.45,24.05 33.37,17.84 40.02,12.51 v 0 c 6.68,5.36 12.61,11.61 17.61,18.58 v 0 c 0.24,0.32 0.48,0.65 0.7,0.991 v 0 C 60.65,35.571 62,39.75 62,44.25 v 0 c 0,2.353 -0.373,4.617 -1.057,6.743 v 0 z"
         id="path180"
         inkscape:connector-curvature="0" /></clipPath><linearGradient
       x1="0"
       y1="0"
       x2="1"
       y2="0"
       gradientUnits="userSpaceOnUse"
       gradientTransform="matrix(30.12105,-30.12105,-30.12105,-30.12105,24.946291,56.882202)"
       spreadMethod="pad"
       id="linearGradient194"><stop
         style="stop-opacity:1;stop-color:#1a9ae1"
         offset="0"
         id="stop188" /><stop
         style="stop-opacity:1;stop-color:#1a9ae1"
         offset="0.0000004"
         id="stop190" /><stop
         style="stop-opacity:1;stop-color:#1985e1"
         offset="1"
         id="stop192" /></linearGradient><clipPath
       clipPathUnits="userSpaceOnUse"
       id="clipPath204"><path
         d="m 20.585,54.599 5.452,-2.308 c 2.785,4.827 7.989,8.084 13.963,8.084 v 0 c 5.975,0 11.178,-3.257 13.964,-8.084 v 0 l 5.451,2.308 C 55.712,61.531 48.408,66.25 40,66.25 v 0 c -8.408,0 -15.712,-4.719 -19.415,-11.651"
         id="path202"
         inkscape:connector-curvature="0" /></clipPath><linearGradient
       x1="0"
       y1="0"
       x2="1"
       y2="0"
       gradientUnits="userSpaceOnUse"
       gradientTransform="matrix(20.087248,-20.087248,-20.087248,-20.087248,29.956377,65.315315)"
       spreadMethod="pad"
       id="linearGradient216"><stop
         style="stop-opacity:1;stop-color:#1a9ae1"
         offset="0"
         id="stop210" /><stop
         style="stop-opacity:1;stop-color:#1a9ae1"
         offset="0.0000004"
         id="stop212" /><stop
         style="stop-opacity:1;stop-color:#1985e1"
         offset="1"
         id="stop214" /></linearGradient><clipPath
       clipPathUnits="userSpaceOnUse"
       id="clipPath226"><path
         d="M 0,80 H 80 V 0 H 0 Z"
         id="path224"
         inkscape:connector-curvature="0" /></clipPath><clipPath
       clipPathUnits="userSpaceOnUse"
       id="clipPath234"><path
         d="M 1.02344,79 H 78.9766 V 1 H 1.02344 Z"
         id="path232"
         inkscape:connector-curvature="0" /></clipPath><clipPath
       clipPathUnits="userSpaceOnUse"
       id="clipPath238"><path
         d="M 1.02344,79 H 78.9766 V 1 H 1.02344 Z"
         id="path236"
         inkscape:connector-curvature="0" /></clipPath><clipPath
       clipPathUnits="userSpaceOnUse"
       id="clipPath242"><path
         d="M 78.977,40 C 78.977,11.107 68.877,1 40,1 11.123,1 1.023,11.107 1.023,40 1.023,68.894 11.123,79 40,79 68.877,79 78.977,68.894 78.977,40"
         id="path240"
         inkscape:connector-curvature="0" /></clipPath><clipPath
       clipPathUnits="userSpaceOnUse"
       id="clipPath246"><path
         d="M -24534,24614 H 8232 V -8152 h -32766 z"
         id="path244"
         inkscape:connector-curvature="0" /></clipPath><clipPath
       clipPathUnits="userSpaceOnUse"
       id="clipPath250"><path
         d="M -24534,24614 H 8232 V -8152 h -32766 z"
         id="path248"
         inkscape:connector-curvature="0" /></clipPath><mask
       maskUnits="userSpaceOnUse"
       x="0"
       y="0"
       width="1"
       height="1"
       id="mask252"><g
         id="g264"><g
           clip-path="url(#clipPath246)"
           id="g262"><g
             id="g260"><g
               id="g254" /><g
               id="g258"><g
                 clip-path="url(#clipPath250)"
                 id="g256" /></g></g></g></g></mask><linearGradient
       x1="0"
       y1="0"
       x2="1"
       y2="0"
       gradientUnits="userSpaceOnUse"
       gradientTransform="matrix(0,-53.61993,-53.61993,0,40,74.818359)"
       spreadMethod="pad"
       id="linearGradient270"><stop
         style="stop-opacity:1;stop-color:#ffffff"
         offset="0"
         id="stop266" /><stop
         style="stop-opacity:1;stop-color:#e4e4e5"
         offset="1"
         id="stop268" /></linearGradient><mask
       maskUnits="userSpaceOnUse"
       x="0"
       y="0"
       width="1"
       height="1"
       id="mask272"><g
         id="g298"><g
           clip-path="url(#clipPath234)"
           id="g296"
           style="opacity:0.5"><g
             id="g294"><g
               id="g274" /><g
               id="g292"><g
                 clip-path="url(#clipPath238)"
                 id="g290"><g
                   id="g288"><g
                     clip-path="url(#clipPath242)"
                     id="g286"><g
                       id="g284"><g
                         id="g276" /><g
                         mask="url(#mask252)"
                         id="g282"><g
                           id="g280"><path
                             d="M 78.977,40 C 78.977,11.107 68.877,1 40,1 11.123,1 1.023,11.107 1.023,40 1.023,68.894 11.123,79 40,79 68.877,79 78.977,68.894 78.977,40"
                             style="fill:url(#linearGradient270);stroke:none"
                             id="path278"
                             inkscape:connector-curvature="0" /></g></g></g></g></g></g></g></g></g></g></mask><clipPath
       clipPathUnits="userSpaceOnUse"
       id="clipPath306"><path
         d="M 1.02344,79 H 78.9766 V 1 H 1.02344 Z"
         id="path304"
         inkscape:connector-curvature="0" /></clipPath><clipPath
       clipPathUnits="userSpaceOnUse"
       id="clipPath310"><path
         d="M 78.977,40 C 78.977,11.107 68.877,1 40,1 11.123,1 1.023,11.107 1.023,40 1.023,68.894 11.123,79 40,79 68.877,79 78.977,68.894 78.977,40"
         id="path308"
         inkscape:connector-curvature="0" /></clipPath><linearGradient
       x1="0"
       y1="0"
       x2="1"
       y2="0"
       gradientUnits="userSpaceOnUse"
       gradientTransform="matrix(0,-53.61993,-53.61993,0,40.000019,74.818184)"
       spreadMethod="pad"
       id="linearGradient316"><stop
         style="stop-opacity:1;stop-color:#ffffff"
         offset="0"
         id="stop312" /><stop
         style="stop-opacity:1;stop-color:#000000"
         offset="1"
         id="stop314" /></linearGradient><clipPath
       clipPathUnits="userSpaceOnUse"
       id="clipPath338"><path
         d="M 1,79 H 79 V 1 H 1 Z"
         id="path336"
         inkscape:connector-curvature="0" /></clipPath><clipPath
       clipPathUnits="userSpaceOnUse"
       id="clipPath342"><path
         d="M 1,79 H 79 V 1 H 1 Z"
         id="path340"
         inkscape:connector-curvature="0" /></clipPath><clipPath
       clipPathUnits="userSpaceOnUse"
       id="clipPath346"><path
         d="M -24534,24614 H 8232 V -8152 h -32766 z"
         id="path344"
         inkscape:connector-curvature="0" /></clipPath><clipPath
       clipPathUnits="userSpaceOnUse"
       id="clipPath350"><path
         d="M -24534,24614 H 8232 V -8152 h -32766 z"
         id="path348"
         inkscape:connector-curvature="0" /></clipPath><mask
       maskUnits="userSpaceOnUse"
       x="0"
       y="0"
       width="1"
       height="1"
       id="mask352"><g
         id="g364"><g
           clip-path="url(#clipPath346)"
           id="g362"><g
             id="g360"><g
               id="g354" /><g
               id="g358"><g
                 clip-path="url(#clipPath350)"
                 id="g356" /></g></g></g></g></mask><clipPath
       clipPathUnits="userSpaceOnUse"
       id="clipPath368"><path
         d="M 1,79 H 79 V 1 H 1 Z"
         id="path366"
         inkscape:connector-curvature="0" /></clipPath><clipPath
       clipPathUnits="userSpaceOnUse"
       id="clipPath372"><path
         d="M 39.999,1.975 C 11.57,1.975 1.976,11.57 1.976,40 c 0,28.429 9.594,38.024 38.023,38.024 28.43,0 38.024,-9.595 38.024,-38.024 0,-28.43 -9.594,-38.025 -38.024,-38.025 m 0,77.025 C 11.105,79 1,68.894 1,40 1,11.107 11.105,1 39.999,1 68.896,1 79,11.107 79,40 79,68.894 68.896,79 39.999,79"
         id="path370"
         inkscape:connector-curvature="0" /></clipPath><linearGradient
       x1="0"
       y1="0"
       x2="1"
       y2="0"
       gradientUnits="userSpaceOnUse"
       gradientTransform="matrix(0,-77.263527,-77.263527,0,40,78.75293)"
       spreadMethod="pad"
       id="linearGradient378"><stop
         style="stop-opacity:1;stop-color:#ffffff"
         offset="0"
         id="stop374" /><stop
         style="stop-opacity:1;stop-color:#231815"
         offset="1"
         id="stop376" /></linearGradient><mask
       maskUnits="userSpaceOnUse"
       x="0"
       y="0"
       width="1"
       height="1"
       id="mask380"><g
         id="g414"><g
           clip-path="url(#clipPath338)"
           id="g412"
           style="opacity:0.25"><g
             id="g410"><g
               id="g382" /><g
               id="g408"><g
                 clip-path="url(#clipPath342)"
                 id="g406"><g
                   id="g404"><g
                     id="g384" /><g
                     mask="url(#mask352)"
                     id="g402"><g
                       id="g386" /><g
                       id="g400"><g
                         clip-path="url(#clipPath368)"
                         id="g398"><g
                           id="g396"><g
                             clip-path="url(#clipPath372)"
                             id="g394"><g
                               id="g392"><g
                                 id="g390"><path
                                   d="M 39.999,1.975 C 11.57,1.975 1.976,11.57 1.976,40 c 0,28.429 9.594,38.024 38.023,38.024 28.43,0 38.024,-9.595 38.024,-38.024 0,-28.43 -9.594,-38.025 -38.024,-38.025 m 0,77.025 C 11.105,79 1,68.894 1,40 1,11.107 11.105,1 39.999,1 68.896,1 79,11.107 79,40 79,68.894 68.896,79 39.999,79"
                                   style="fill:url(#linearGradient378);stroke:none"
                                   id="path388"
                                   inkscape:connector-curvature="0" /></g></g></g></g></g></g></g></g></g></g></g></g></g></mask><clipPath
       clipPathUnits="userSpaceOnUse"
       id="clipPath422"><path
         d="M 1,79 H 79 V 1 H 1 Z"
         id="path420"
         inkscape:connector-curvature="0" /></clipPath><clipPath
       clipPathUnits="userSpaceOnUse"
       id="clipPath426"><path
         d="M 39.999,1.975 C 11.57,1.975 1.976,11.57 1.976,40 c 0,28.429 9.594,38.024 38.023,38.024 28.43,0 38.024,-9.595 38.024,-38.024 0,-28.43 -9.594,-38.025 -38.024,-38.025 m 0,77.025 C 11.105,79 1,68.894 1,40 1,11.107 11.105,1 39.999,1 68.896,1 79,11.107 79,40 79,68.894 68.896,79 39.999,79"
         id="path424"
         inkscape:connector-curvature="0" /></clipPath><linearGradient
       x1="0"
       y1="0"
       x2="1"
       y2="0"
       gradientUnits="userSpaceOnUse"
       gradientTransform="matrix(0,-77.263527,-77.263527,0,40,78.753128)"
       spreadMethod="pad"
       id="linearGradient432"><stop
         style="stop-opacity:1;stop-color:#ffffff"
         offset="0"
         id="stop428" /><stop
         style="stop-opacity:1;stop-color:#ffffff"
         offset="1"
         id="stop430" /></linearGradient></defs><sodipodi:namedview
     pagecolor="#ffffff"
     bordercolor="#666666"
     borderopacity="1"
     objecttolerance="10"
     gridtolerance="10"
     guidetolerance="10"
     inkscape:pageopacity="0"
     inkscape:pageshadow="2"
     inkscape:window-width="1366"
     inkscape:window-height="706"
     id="namedview4"
     showgrid="false"
     inkscape:zoom="2.2124999"
     inkscape:cx="53.333336"
     inkscape:cy="53.333336"
     inkscape:window-x="0"
     inkscape:window-y="34"
     inkscape:window-maximized="1"
     inkscape:current-layer="g10" /><g
     id="g10"
     inkscape:groupmode="layer"
     inkscape:label="harbour-networkinfo"
     transform="matrix(1.3333333,0,0,-1.3333333,0,106.66667)"><g
       id="g12"
       transform="matrix(0.97115387,0,0,0.97060635,1.2788462,1.322099)"><g
         id="g14"
         clip-path="url(#clipPath18)"><g
           id="g20"><g
             id="g22"><path
               d="m 1,39.956 c 0,-28.892 10.105,-39 39,-39 v 0 c 28.894,0 39,10.108 39,39 v 0 c 0,28.894 -10.106,39 -39,39 v 0 c -28.895,0 -39,-10.106 -39,-39"
               style="fill:url(#linearGradient30);stroke:none"
               id="path32"
               inkscape:connector-curvature="0" /></g></g></g></g><g
       id="g34"
       transform="matrix(0.97115387,0,0,0.97060635,1.2788462,1.322099)"><g
         id="g36"
         clip-path="url(#clipPath40)"><g
           id="g42"><g
             id="g44"><path
               d="m 1,39.956 c 0,-28.892 10.105,-39 39,-39 v 0 c 28.894,0 39,10.108 39,39 v 0 c 0,28.894 -10.106,39 -39,39 v 0 c -28.895,0 -39,-10.106 -39,-39"
               style="fill:url(#linearGradient52);stroke:none"
               id="path54"
               inkscape:connector-curvature="0" /></g></g></g></g><g
       id="g56"
       transform="matrix(0.97115387,0,0,0.97060635,1.2788462,1.322099)"><g
         id="g58"
         clip-path="url(#clipPath62)"><g
           id="g64"><g
             id="g66" /><g
             id="g94"
             mask="url(#mask82)"><g
               id="g96"><path
                 d="m 20.585,54.599 10.614,-10.613 -1.122,-0.871 -5.57,5.57 -5.09,-1.184 L 32.236,19.485 50.24,1.481 c 20.039,2.275 27.959,12.256 28.695,34.85 v 0 L 56.701,58.566 39.582,66.244 Z"
                 style="fill:url(#linearGradient106);stroke:none"
                 id="path108"
                 inkscape:connector-curvature="0" /></g></g></g></g></g><g
       id="g110"
       transform="matrix(0.97115387,0,0,0.97060635,1.2788462,1.322099)"><g
         id="g112"
         clip-path="url(#clipPath116)"><g
           id="g118"><g
             id="g120"><path
               d="m 37.007,45.518 c -0.7,-1.653 0.073,-3.561 1.725,-4.261 v 0 c 1.654,-0.699 3.561,0.073 4.26,1.725 v 0 c 0.7,1.653 -0.072,3.561 -1.724,4.261 v 0 c -0.414,0.175 -0.844,0.258 -1.267,0.258 v 0 c -1.266,0 -2.469,-0.744 -2.994,-1.983"
               style="fill:url(#linearGradient128);stroke:none"
               id="path130"
               inkscape:connector-curvature="0" /></g></g></g></g><g
       id="g132"
       transform="matrix(0.97115387,0,0,0.97060635,1.2788462,1.322099)"><g
         id="g134"
         clip-path="url(#clipPath138)"><g
           id="g140"><g
             id="g142"><path
               d="m 30.046,50.593 4.235,-1.794 c 1.339,1.682 3.402,2.764 5.719,2.764 v 0 c 2.317,0 4.38,-1.082 5.72,-2.764 v 0 l 4.234,1.794 c -2.097,3.285 -5.767,5.47 -9.954,5.47 v 0 c -4.187,0 -7.857,-2.185 -9.954,-5.47"
               style="fill:url(#linearGradient150);stroke:none"
               id="path152"
               inkscape:connector-curvature="0" /></g></g></g></g><g
       id="g154"
       transform="matrix(0.97115387,0,0,0.97060635,1.2788462,1.322099)"><g
         id="g156"
         clip-path="url(#clipPath160)"><g
           id="g162"><g
             id="g164"><path
               d="m 47.245,45.192 c 0.04,-0.309 0.067,-0.622 0.067,-0.942 v 0 c 0,-4.039 -3.273,-7.312 -7.312,-7.312 v 0 c -4.039,0 -7.313,3.273 -7.313,7.312 v 0 c 0,0.32 0.028,0.633 0.068,0.942 v 0 l -4.237,1.793 C 28.31,46.106 28.187,45.193 28.187,44.25 v 0 c 0,-6.524 5.289,-11.812 11.813,-11.812 v 0 c 6.524,0 11.812,5.288 11.812,11.812 v 0 c 0,0.943 -0.121,1.856 -0.33,2.735 v 0 z"
               style="fill:url(#linearGradient172);stroke:none"
               id="path174"
               inkscape:connector-curvature="0" /></g></g></g></g><g
       id="g176"
       transform="matrix(0.97115387,0,0,0.97060635,1.2788462,1.322099)"><g
         id="g178"
         clip-path="url(#clipPath182)"><g
           id="g184"><g
             id="g186"><path
               d="m 55.492,48.685 c 0.403,-1.411 0.633,-2.895 0.633,-4.435 v 0 C 56.125,35.345 48.905,28.125 40,28.125 v 0 c -8.906,0 -16.125,7.22 -16.125,16.125 v 0 c 0,1.54 0.229,3.024 0.632,4.435 v 0 l -5.45,2.308 C 18.373,48.867 18,46.603 18,44.25 v 0 c 0,-4.47 1.33,-8.63 3.63,-12.11 v 0 c 0.12,-0.19 0.25,-0.38 0.39,-0.56 v 0 c 0.14,-0.21 0.29,-0.41 0.449,-0.61 v 0 C 27.45,24.05 33.37,17.84 40.02,12.51 v 0 c 6.68,5.36 12.61,11.61 17.61,18.58 v 0 c 0.24,0.32 0.48,0.65 0.7,0.991 v 0 C 60.65,35.571 62,39.75 62,44.25 v 0 c 0,2.353 -0.373,4.617 -1.057,6.743 v 0 z"
               style="fill:url(#linearGradient194);stroke:none"
               id="path196"
               inkscape:connector-curvature="0" /></g></g></g></g><g
       id="g198"
       transform="matrix(0.97115387,0,0,0.97060635,1.2788462,1.322099)"><g
         id="g200"
         clip-path="url(#clipPath204)"><g
           id="g206"><g
             id="g208"><path
               d="m 20.585,54.599 5.452,-2.308 c 2.785,4.827 7.989,8.084 13.963,8.084 v 0 c 5.975,0 11.178,-3.257 13.964,-8.084 v 0 l 5.451,2.308 C 55.712,61.531 48.408,66.25 40,66.25 v 0 c -8.408,0 -15.712,-4.719 -19.415,-11.651"
               style="fill:url(#linearGradient216);stroke:none"
               id="path218"
               inkscape:connector-curvature="0" /></g></g></g></g><g
       id="g220"
       transform="matrix(0.97115387,0,0,0.97060635,1.2788462,1.322099)"><g
         id="g222"
         clip-path="url(#clipPath226)"><g
           id="g228"><g
             id="g230" /><g
             id="g300"
             mask="url(#mask272)"><g
               id="g302" /><g
               id="g330"><g
                 clip-path="url(#clipPath306)"
                 id="g328"
                 style="opacity:0.5"><g
                   id="g326"><g
                     clip-path="url(#clipPath310)"
                     id="g324"><g
                       id="g322"><g
                         id="g320"><path
                           d="M 78.977,40 C 78.977,11.107 68.877,1 40,1 11.123,1 1.023,11.107 1.023,40 1.023,68.894 11.123,79 40,79 68.877,79 78.977,68.894 78.977,40"
                           style="fill:url(#linearGradient316);stroke:none"
                           id="path318"
                           inkscape:connector-curvature="0" /></g></g></g></g></g></g></g></g><g
           id="g332"><g
             id="g334" /><g
             id="g416"
             mask="url(#mask380)"><g
               id="g418" /><g
               id="g446"><g
                 clip-path="url(#clipPath422)"
                 id="g444"
                 style="opacity:0.25"><g
                   id="g442"><g
                     clip-path="url(#clipPath426)"
                     id="g440"><g
                       id="g438"><g
                         id="g436"><path
                           d="M 39.999,1.975 C 11.57,1.975 1.976,11.57 1.976,40 c 0,28.429 9.594,38.024 38.023,38.024 28.43,0 38.024,-9.595 38.024,-38.024 0,-28.43 -9.594,-38.025 -38.024,-38.025 m 0,77.025 C 11.105,79 1,68.894 1,40 1,11.107 11.105,1 39.999,1 68.896,1 79,11.107 79,40 79,68.894 68.896,79 39.999,79"
                           style="fill:url(#linearGradient432);stroke:none"
                           id="path434"
                           inkscape:connector-curvature="0" /></g></g></g></g></g></g></g></g></g></g></g></svg>