<?xml version="1.0" encoding="UTF-8" standalone="no"?>
<svg
   xmlns:dc="http://purl.org/dc/elements/1.1/"
   xmlns:cc="http://creativecommons.org/ns#"
   xmlns:rdf="http://www.w3.org/1999/02/22-rdf-syntax-ns#"
   xmlns:svg="http://www.w3.org/2000/svg"
   xmlns="http://www.w3.org/2000/svg"
   xmlns:sodipodi="http://sodipodi.sourceforge.net/DTD/sodipodi-0.dtd"
   xmlns:inkscape="http://www.inkscape.org/namespaces/inkscape"
   viewBox="0 0 133.33333 133.33333"
   height="133.33333"
   width="133.33333"
   xml:space="preserve"
   id="svg2"
   version="1.1"
   sodipodi:docname="harbour-barcode.svg"
   inkscape:version="0.92.2 2405546, 2018-03-11"><sodipodi:namedview
     pagecolor="#ffffff"
     bordercolor="#666666"
     borderopacity="1"
     objecttolerance="10"
     gridtolerance="10"
     guidetolerance="10"
     inkscape:pageopacity="0"
     inkscape:pageshadow="2"
     inkscape:window-width="1366"
     inkscape:window-height="706"
     id="namedview72"
     showgrid="false"
     inkscape:zoom="1.7700001"
     inkscape:cx="66.666664"
     inkscape:cy="66.666664"
     inkscape:window-x="0"
     inkscape:window-y="34"
     inkscape:window-maximized="1"
     inkscape:current-layer="svg2" /><metadata
     id="metadata8"><rdf:RDF><cc:Work
         rdf:about=""><dc:format>image/svg+xml</dc:format><dc:type
           rdf:resource="http://purl.org/dc/dcmitype/StillImage" /></cc:Work></rdf:RDF></metadata><defs
     id="defs6"><clipPath
       id="clipPath18"
       clipPathUnits="userSpaceOnUse"><path
         id="path16"
         d="M 50,100 C 12.956,100 0,87.039 0,50 v 0 C 0,12.961 12.956,0 50,0 v 0 c 37.045,0 50,12.961 50,50 v 0 c 0,37.044 -12.955,50 -50,50 z" /></clipPath><linearGradient
       id="linearGradient30"
       spreadMethod="pad"
       gradientTransform="matrix(77.78125,-77.78125,-77.78125,-77.78125,11.109896,88.891144)"
       gradientUnits="userSpaceOnUse"
       y2="0"
       x2="1"
       y1="0"
       x1="0"><stop
         id="stop24"
         offset="0"
         style="stop-opacity:1;stop-color:#ffbc8f" /><stop
         id="stop26"
         offset="0.0000006"
         style="stop-opacity:1;stop-color:#ffbc8f" /><stop
         id="stop28"
         offset="1"
         style="stop-opacity:1;stop-color:#e68a4c" /></linearGradient><clipPath
       id="clipPath40"
       clipPathUnits="userSpaceOnUse"><path
         id="path38"
         d="M 0,100 H 100 V 0 H 0 Z" /></clipPath><clipPath
       id="clipPath48"
       clipPathUnits="userSpaceOnUse"><path
         id="path46"
         d="m 12.5,87.5 h 75 v -75 h -75 z" /></clipPath><clipPath
       id="clipPath64"
       clipPathUnits="userSpaceOnUse"><path
         id="path62"
         d="M 12.53,47.33 H 87.47 V 12.5 H 12.53 Z" /></clipPath><clipPath
       id="clipPath68"
       clipPathUnits="userSpaceOnUse"><path
         id="path66"
         d="M 87.47,47.33 C 86.84,21.59 76.87,12.5 50,12.5 23.13,12.5 13.16,21.59 12.53,47.33 Z" /></clipPath><clipPath
       id="clipPath72"
       clipPathUnits="userSpaceOnUse"><path
         id="path70"
         d="M -32768,32767 H 32767 V -32768 H -32768 Z" /></clipPath><linearGradient
       id="linearGradient80"
       spreadMethod="pad"
       gradientTransform="matrix(0,-34.830017,-34.830017,0,50,47.330017)"
       gradientUnits="userSpaceOnUse"
       y2="0"
       x2="1"
       y1="0"
       x1="0"><stop
         id="stop74"
         offset="0"
         style="stop-opacity:1;stop-color:#ffffff" /><stop
         id="stop76"
         offset="0.0000006"
         style="stop-opacity:1;stop-color:#ffffff" /><stop
         id="stop78"
         offset="1"
         style="stop-opacity:0;stop-color:#ffffff" /></linearGradient><mask
       id="mask82"
       height="1"
       width="1"
       y="0"
       x="0"
       maskUnits="userSpaceOnUse"><g
         id="g92"><g
           id="g90"
           clip-path="url(#clipPath72)"><g
             id="g88"><g
               id="g86"><path
                 id="path84"
                 style="fill:url(#linearGradient80);stroke:none"
                 d="M -32768,32767 H 32767 V -32768 H -32768 Z" /></g></g></g></g></mask><linearGradient
       id="linearGradient100"
       spreadMethod="pad"
       gradientTransform="matrix(0,-34.830017,-34.830017,0,50,47.330017)"
       gradientUnits="userSpaceOnUse"
       y2="0"
       x2="1"
       y1="0"
       x1="0"><stop
         id="stop94"
         offset="0"
         style="stop-opacity:1;stop-color:#ffffff" /><stop
         id="stop96"
         offset="0.0000006"
         style="stop-opacity:1;stop-color:#ffffff" /><stop
         id="stop98"
         offset="1"
         style="stop-opacity:1;stop-color:#ffffff" /></linearGradient></defs><g
     transform="matrix(1.25,0,0,-1.25,4,129.33333)"
     id="g10"><g
       id="g12"><g
         clip-path="url(#clipPath18)"
         id="g14"><g
           id="g20"><g
             id="g22"><path
               id="path32"
               style="fill:url(#linearGradient30);stroke:none"
               d="M 50,100 C 12.956,100 0,87.039 0,50 v 0 C 0,12.961 12.956,0 50,0 v 0 c 37.045,0 50,12.961 50,50 v 0 c 0,37.044 -12.955,50 -50,50 z"
               inkscape:connector-curvature="0" /></g></g></g></g><g
       id="g34"><g
         clip-path="url(#clipPath40)"
         id="g36"><g
           id="g42"><g
             id="g44" /><g
             id="g56"><g
               style="opacity:0.30000299"
               id="g54"
               clip-path="url(#clipPath48)"><g
                 id="g52"
                 transform="translate(87.5,50)"><path
                   id="path50"
                   style="fill:#ffffff;fill-opacity:1;fill-rule:nonzero;stroke:none"
                   d="m 0,0 c 0,-27.779 -9.717,-37.5 -37.5,-37.5 -27.783,0 -37.5,9.721 -37.5,37.5 0,27.779 9.717,37.5 37.5,37.5 C -9.717,37.5 0,27.783 0,0"
                   inkscape:connector-curvature="0" /></g></g></g></g><g
           id="g58"><g
             id="g60" /><g
             id="g118"><g
               style="opacity:0.39999402"
               id="g116"
               clip-path="url(#clipPath64)"><g
                 id="g114"><g
                   id="g112"
                   clip-path="url(#clipPath68)"><g
                     id="g110"><g
                       id="g102" /><g
                       id="g108"
                       mask="url(#mask82)"><g
                         id="g106"><path
                           id="path104"
                           style="fill:url(#linearGradient100);stroke:none"
                           d="M 87.47,47.33 C 86.84,21.59 76.87,12.5 50,12.5 23.13,12.5 13.16,21.59 12.53,47.33 Z"
                           inkscape:connector-curvature="0" /></g></g></g></g></g></g></g></g><g
           transform="translate(37.5,16.3721)"
           id="g120"><path
             id="path122"
             style="fill:#ffffff;fill-opacity:1;fill-rule:nonzero;stroke:none"
             d="m 0,0 v 0 c 0,-1.58 -1.457,-2.787 -2.999,-2.442 -11.623,2.601 -17.97,8.949 -20.571,20.571 -0.345,1.542 0.862,2.999 2.442,2.999 1.162,0 2.17,-0.809 2.426,-1.942 2.153,-9.54 7.22,-14.607 16.76,-16.76 C -0.809,2.17 0,1.162 0,0"
             inkscape:connector-curvature="0" /></g><g
           transform="translate(86.0703,34.501)"
           id="g124"><path
             id="path126"
             style="fill:#ffffff;fill-opacity:1;fill-rule:nonzero;stroke:none"
             d="m 0,0 c -2.602,-11.622 -8.949,-17.97 -20.571,-20.571 -1.542,-0.345 -2.999,0.862 -2.999,2.442 0,1.162 0.808,2.17 1.942,2.426 9.54,2.153 14.607,7.22 16.76,16.76 0.256,1.133 1.264,1.942 2.426,1.942 C -0.862,2.999 0.345,1.542 0,0"
             inkscape:connector-curvature="0" /></g><g
           transform="translate(83.6279,62.5)"
           id="g128"><path
             id="path130"
             style="fill:#ffffff;fill-opacity:1;fill-rule:nonzero;stroke:none"
             d="m 0,0 v 0 c -1.162,0 -2.17,0.809 -2.426,1.942 -2.152,9.54 -7.22,14.607 -16.76,16.76 -1.133,0.256 -1.942,1.264 -1.942,2.426 0,1.58 1.457,2.787 2.999,2.442 C -6.507,20.969 -0.159,14.622 2.442,2.999 2.787,1.457 1.58,0 0,0"
             inkscape:connector-curvature="0" /></g><g
           transform="translate(62.5,16.3721)"
           id="g132"><path
             id="path134"
             style="fill:#ffffff;fill-opacity:1;fill-rule:nonzero;stroke:none"
             d="m 0,0 v 0 c 0,1.162 0.809,2.17 1.942,2.426 9.54,2.152 14.608,7.22 16.76,16.76 0.256,1.133 1.264,1.942 2.426,1.942 1.58,0 2.787,-1.457 2.442,-2.999 C 20.969,6.507 14.621,0.159 2.999,-2.442 1.457,-2.787 0,-1.58 0,0"
             inkscape:connector-curvature="0" /></g><g
           transform="translate(13.9302,65.4985)"
           id="g136"><path
             id="path138"
             style="fill:#ffffff;fill-opacity:1;fill-rule:nonzero;stroke:none"
             d="m 0,0 c 2.601,11.623 8.948,17.971 20.571,20.571 1.542,0.346 2.999,-0.862 2.999,-2.442 0,-1.162 -0.809,-2.17 -1.943,-2.425 C 12.087,13.551 7.021,8.484 4.868,-1.056 4.612,-2.19 3.604,-2.999 2.442,-2.999 0.862,-2.999 -0.345,-1.542 0,0"
             inkscape:connector-curvature="0" /></g><g
           transform="translate(90.75,50)"
           id="g140"><path
             id="path142"
             style="fill:#ffffff;fill-opacity:1;fill-rule:nonzero;stroke:none"
             d="m 0,0 c 0,-1.47 -1.19,-2.67 -2.67,-2.67 h -76.16 c -0.74,0 -1.41,0.3 -1.89,0.78 -0.48,0.49 -0.78,1.15 -0.78,1.89 0,1.47 1.19,2.67 2.67,2.67 h 76.16 c 0.74,0 1.41,-0.3 1.89,-0.78 C -0.3,1.4 0,0.74 0,0"
             inkscape:connector-curvature="0" /></g></g></g></g></svg>