<svg xmlns="http://www.w3.org/2000/svg" xmlns:xlink="http://www.w3.org/1999/xlink" width="192" height="192" viewBox="0 0 192 192">
  <defs>
    <style>
      .cls-1 {
        fill: none;
      }

      .cls-2 {
        opacity: 0.01;
      }

      .cls-14, .cls-2, .cls-3, .cls-4, .cls-5 {
        isolation: isolate;
      }

      .cls-3 {
        opacity: 0.02;
      }

      .cls-4 {
        opacity: 0.04;
      }

      .cls-5 {
        opacity: 0.06;
      }

      .cls-6 {
        fill: #f47f00;
      }

      .cls-7 {
        fill: url(#未命名的渐变_2);
      }

      .cls-8 {
        fill: url(#未命名的渐变_21);
      }

      .cls-9 {
        fill: url(#未命名的渐变_3);
      }

      .cls-10 {
        fill: #f5f5f5;
      }

      .cls-11, .cls-14 {
        fill: #fff;
      }

      .cls-12 {
        fill: url(#未命名的渐变_19);
      }

      .cls-13 {
        fill: #fa0;
      }

      .cls-14 {
        opacity: 0.2;
      }
    </style>
    <linearGradient id="未命名的渐变_2" data-name="未命名的渐变 2" x1="166.012" y1="75.988" x2="25.987" y2="216.012" gradientTransform="matrix(1, 0, 0, -1, 0, 242)" gradientUnits="userSpaceOnUse">
      <stop offset="0" stop-opacity="0.04"/>
      <stop offset="0.5" stop-color="gray" stop-opacity="0"/>
      <stop offset="1" stop-color="#fff" stop-opacity="0.1"/>
    </linearGradient>
    <linearGradient id="未命名的渐变_21" data-name="未命名的渐变 21" x1="166.004" y1="27.998" x2="25.998" y2="168.004" gradientTransform="matrix(1, 0, 0, -1, 0, 194)" gradientUnits="userSpaceOnUse">
      <stop offset="0" stop-opacity="0.1"/>
      <stop offset="0.5" stop-color="gray" stop-opacity="0.05"/>
      <stop offset="1" stop-color="#fff" stop-opacity="0.12"/>
    </linearGradient>
    <linearGradient id="未命名的渐变_3" data-name="未命名的渐变 3" x1="169.97" y1="424.69" x2="135.45" y2="390.17" gradientTransform="translate(0 -318)" gradientUnits="userSpaceOnUse">
      <stop offset="0" stop-opacity="0.02"/>
      <stop offset="1" stop-opacity="0.08"/>
    </linearGradient>
    <linearGradient id="未命名的渐变_19" data-name="未命名的渐变 19" x1="114" y1="434" x2="114" y2="374" gradientTransform="translate(0 -318)" gradientUnits="userSpaceOnUse">
      <stop offset="0.6" stop-opacity="0.16"/>
      <stop offset="0.8" stop-opacity="0"/>
    </linearGradient>
  </defs>
  <title>miui_fileexplorer</title>
  <g id="图层_2" data-name="图层 2">
    <g id="图层_1-2" data-name="图层 1">
      <rect class="cls-1" width="192" height="192"/>
      <g>
        <path class="cls-2" d="M96,190C27.3,190,3,165.7,3,97S27.3,4,96,4s93,24.3,93,93S164.7,190,96,190Z"/>
        <path class="cls-3" d="M96,189C28.1,189,4,164.9,4,97S28.1,5,96,5s92,24.1,92,92S163.9,189,96,189Z"/>
        <path class="cls-4" d="M96,188C28.8,188,5,164.2,5,97S28.8,6,96,6s91,23.8,91,91S163.2,188,96,188Z"/>
        <path class="cls-5" d="M186,97c0,66.7-23.3,90-90,90S6,163.7,6,97,29.3,7,96,7,186,30.3,186,97Z"/>
      </g>
      <path class="cls-6" d="M186,96c0,66.7-23.3,90-90,90S6,162.7,6,96,29.3,6,96,6,186,29.3,186,96Z"/>
      <path class="cls-7" d="M96,6C29.3,6,6,29.3,6,96s23.3,90,90,90,90-23.3,90-90S162.7,6,96,6Zm68.6,158.6C151.2,178,130,184,96,184s-55.2-6-68.6-19.4S8,130,8,96s6-55.2,19.4-68.6S62,8,96,8s55.2,6,68.6,19.4S184,62,184,96,178,151.2,164.6,164.6Z"/>
      <path class="cls-8" d="M186,96c0,66.67-23.32,90-90,90S6,162.67,6,96,29.32,6,96,6,186,29.32,186,96Z"/>
    </g>
    <g id="图层_4" data-name="图层 4">
      <polygon class="cls-9" points="144.08 63.54 178.6 98.06 144.08 98.06 144.08 63.54"/>
      <path class="cls-10" d="M49,56h80.5c8.56,0,15.5,7,21.5,15.5L183,112c0,2.209-33.791,4-36,4H49a4,4,0,0,1-4-4V60A4,4,0,0,1,49,56Z"/>
      <path class="cls-11" d="M46,114V62a4,4,0,0,1,4-4h80.5c8.56,0,15.5,7,21.5,15.5l30.7,38.853c.186-.117.3-.234.3-.353L151,71.5C145,63,138.06,56,129.5,56H49a4,4,0,0,0-4,4v52a3.975,3.975,0,0,0,1.071,2.707A4.015,4.015,0,0,1,46,114Z"/>
      <path class="cls-12" d="M49,56h80.5c8.56,0,15.5,7,21.5,15.5L183,112c0,2.209-33.791,4-36,4H49a4,4,0,0,1-4-4V60A4,4,0,0,1,49,56Z"/>
      <path class="cls-13" d="M85,60c-5-6-13-16-21-16H14.09C8.47,57.2,6,74.3,6,96c0,66.7,23.3,90,90,90s90-23.3,90-90q0-10.74-.83-20H106C98,76,89.29,65.15,85,60Z"/>
      <path class="cls-14" d="M7,98c0-21.7,2.47-38.8,8.09-52H65c8,0,16,10,21,16,4.29,5.15,13,16,21,16h78.32c-.05-.66-.1-1.35-.16-2H106c-8,0-16.71-10.85-21-16-5-6-13-16-21-16H14.09C8.47,57.2,6,74.3,6,96c0,24.33,3.1,42.87,10.28,56.63C9.81,139.09,7,121.17,7,98Z"/>
    </g>
  </g>
</svg>
