<svg xmlns="http://www.w3.org/2000/svg" xmlns:xlink="http://www.w3.org/1999/xlink" viewBox="0 0 192 192"><defs><style>.cls-1{fill:none;}.cls-2{opacity:0.01;}.cls-2,.cls-3,.cls-4,.cls-5{isolation:isolate;}.cls-3{opacity:0.02;}.cls-4{opacity:0.04;}.cls-5{opacity:0.06;}.cls-6{fill:#2ea6ef;}.cls-7{fill:url(#未命名的渐变_66);}.cls-8{fill:url(#未命名的渐变_2);}.cls-9{fill:#007bd6;}.cls-10{fill:url(#未命名的渐变_76);}.cls-11{fill:#0079c4;}.cls-12{fill:url(#未命名的渐变_78);}.cls-13{fill:#22abef;}.cls-14{fill:url(#未命名的渐变_15);}.cls-15{fill:url(#未命名的渐变_15-2);}.cls-16{fill:#fafafa;}.cls-17{fill:#a0dcf9;}.cls-18,.cls-19{fill:#fff;}.cls-19{opacity:0.4;}</style><linearGradient id="未命名的渐变_66" x1="166.01" y1="75.99" x2="25.99" y2="216.01" gradientTransform="matrix(1, 0, 0, -1, 0, 242)" gradientUnits="userSpaceOnUse"><stop offset="0" stop-opacity="0.1"/><stop offset="0.5" stop-color="gray" stop-opacity="0.05"/><stop offset="1" stop-color="#fff" stop-opacity="0.15"/></linearGradient><linearGradient id="未命名的渐变_2" x1="166.01" y1="75.99" x2="25.99" y2="216.01" gradientTransform="matrix(1, 0, 0, -1, 0, 242)" gradientUnits="userSpaceOnUse"><stop offset="0" stop-opacity="0.04"/><stop offset="0.5" stop-color="gray" stop-opacity="0"/><stop offset="1" stop-color="#fff" stop-opacity="0.1"/></linearGradient><linearGradient id="未命名的渐变_76" x1="148.12" y1="148.12" x2="43.88" y2="43.88" gradientUnits="userSpaceOnUse"><stop offset="0.2" stop-opacity="0"/><stop offset="1" stop-opacity="0.08"/></linearGradient><linearGradient id="未命名的渐变_78" x1="148.13" y1="148.11" x2="90.09" y2="90.07" gradientUnits="userSpaceOnUse"><stop offset="0" stop-opacity="0.04"/><stop offset="1" stop-opacity="0.16"/></linearGradient><linearGradient id="未命名的渐变_15" x1="128.43" y1="104.68" x2="102.08" y2="78.33" xlink:href="#未命名的渐变_78"/><linearGradient id="未命名的渐变_15-2" x1="104.72" y1="128.41" x2="78.24" y2="101.93" xlink:href="#未命名的渐变_78"/></defs><title>compass</title><g id="图层_2" data-name="图层 2"><g id="图层_2-2" data-name="图层 2"><rect class="cls-1" width="192" height="192"/><path class="cls-2" d="M96,190C27.3,190,3,165.7,3,97S27.3,4,96,4s93,24.3,93,93S164.7,190,96,190Z"/><path class="cls-3" d="M96,189C28.1,189,4,164.9,4,97S28.1,5,96,5s92,24.1,92,92S163.9,189,96,189Z"/><path class="cls-4" d="M96,188C28.8,188,5,164.2,5,97S28.8,6,96,6s91,23.8,91,91S163.2,188,96,188Z"/><path class="cls-5" d="M186,97c0,66.7-23.3,90-90,90S6,163.7,6,97,29.3,7,96,7,186,30.3,186,97Z"/><path class="cls-6" d="M186,96c0,66.7-23.3,90-90,90S6,162.7,6,96,29.3,6,96,6,186,29.3,186,96Z"/><path class="cls-7" d="M186,96c0,66.7-23.3,90-90,90S6,162.7,6,96,29.3,6,96,6,186,29.3,186,96Z"/><path class="cls-8" d="M96,6C29.3,6,6,29.3,6,96s23.3,90,90,90,90-23.3,90-90S162.7,6,96,6Zm68.6,158.6C151.2,178,130,184,96,184s-55.2-6-68.6-19.4S8,130,8,96s6-55.2,19.4-68.6S62,8,96,8s55.2,6,68.6,19.4S184,62,184,96,178,151.2,164.6,164.6Z"/><path class="cls-9" d="M163,96c0,49.65-17.35,67-67,67S29,145.65,29,96,46.35,29,96,29,163,46.35,163,96Z"/><path class="cls-10" d="M163,96c0,49.65-17.35,67-67,67S29,145.65,29,96,46.35,29,96,29,163,46.35,163,96Z"/><path class="cls-11" d="M29.91,97.81c0-49.65,17.35-67,67-67,31.64,0,50.14,7.06,59.42,25C147.37,36.52,128.69,29,96,29,46.35,29,29,46.35,29,96c0,18,2.3,31.76,7.58,42C31.93,128,29.91,114.78,29.91,97.81Z"/><path class="cls-12" d="M161.68,75.12l-22.4-22.4L93.1,87.32l-5.85,5.6L52.62,139.13l22.56,22.56A147.48,147.48,0,0,0,96,163c49.65,0,67-17.35,67-67A147.37,147.37,0,0,0,161.68,75.12Z"/><path class="cls-13" d="M96,124c-18.32,0-28-9.68-28-28s9.68-28,28-28,28,9.68,28,28S114.32,124,96,124Z"/><path class="cls-14" d="M113.22,72.24,93.1,87.32l26.35,26.35c3-4.49,4.55-10.38,4.55-17.66C124,84.72,120.32,76.73,113.22,72.24Z"/><path class="cls-15" d="M72.14,113.08C76.61,120.27,84.64,124,96,124c7.32,0,13.24-1.57,17.74-4.6L87.25,92.91Z"/><path class="cls-16" d="M89.36,83.7A1.71,1.71,0,0,1,89.69,81l47.5-28.57a1.71,1.71,0,0,1,2.34,2.34L111,102.31a1.71,1.71,0,0,1-2.67.33l-3.92-3.92a1.66,1.66,0,0,1-.48-1.43,8,8,0,0,0-9.17-9.17,1.66,1.66,0,0,1-1.43-.48Zm9.35,20.67a1.66,1.66,0,0,0-1.43-.48,8,8,0,0,1-9.17-9.17,1.66,1.66,0,0,0-.48-1.43L83.7,89.36a1.71,1.71,0,0,0-2.67.33l-28.57,47.5a1.71,1.71,0,0,0,2.34,2.34L102.31,111a1.71,1.71,0,0,0,.33-2.67Z"/><path class="cls-17" d="M98.71,104.37a1.66,1.66,0,0,0-1.43-.48,8,8,0,0,1-9.17-9.17,1.66,1.66,0,0,0-.48-1.43L83.7,89.36a1.71,1.71,0,0,0-2.67.33l-28.57,47.5a1.71,1.71,0,0,0,2.34,2.34L102.31,111a1.71,1.71,0,0,0,.33-2.67Z"/><path class="cls-18" d="M89.89,84.23a1.69,1.69,0,0,1,.8-1.2l47.5-28.57a1.65,1.65,0,0,1,1.53-.11,1.71,1.71,0,0,0-2.53-1.89L89.69,81a1.71,1.71,0,0,0-.33,2.67Z"/><path class="cls-18" d="M103.59,93.48a8,8,0,0,1,.3,3.8,1.66,1.66,0,0,0,.48,1.43l.52.52A8,8,0,0,0,103.59,93.48Z"/><path class="cls-19" d="M98.71,104.37a1.66,1.66,0,0,0-1.43-.48,7.86,7.86,0,0,1-7.87-3.37,8,8,0,0,0,8.87,5.37,1.66,1.66,0,0,1,1.43.48l3.4,3.4a1.69,1.69,0,0,0-.47-1.47Z"/><path class="cls-19" d="M53.46,139.19,82,91.69a1.71,1.71,0,0,1,2.67-.33l3.4,3.4v0a1.66,1.66,0,0,0-.48-1.43L83.7,89.36a1.71,1.71,0,0,0-2.67.33l-28.57,47.5a1.7,1.7,0,0,0,.81,2.46A1.78,1.78,0,0,1,53.46,139.19Z"/></g></g></svg>