<svg xmlns="http://www.w3.org/2000/svg" xmlns:xlink="http://www.w3.org/1999/xlink" width="192" height="192" viewBox="0 0 192 192"><defs><style>.cls-1{fill:none;}.cls-2{opacity:0.01;}.cls-2,.cls-3,.cls-4,.cls-5{isolation:isolate;}.cls-3{opacity:0.02;}.cls-4{opacity:0.04;}.cls-5{opacity:0.06;}.cls-6{fill:#16b5f4;}.cls-7{fill:url(#未命名的渐变_31);}.cls-8{fill:url(#未命名的渐变_2);}.cls-9{fill:url(#未命名的渐变_29);}.cls-10{fill:#c8daea;}.cls-11{fill:#a9c9dd;}.cls-12{fill:#fafafa;}.cls-13{fill:#fff;}</style><linearGradient id="未命名的渐变_31" x1="166.004" y1="27.998" x2="25.998" y2="168.004" gradientTransform="matrix(1, 0, 0, -1, 0, 194)" gradientUnits="userSpaceOnUse"><stop offset="0" stop-opacity="0.1"/><stop offset="0.5" stop-color="gray" stop-opacity="0.05"/><stop offset="1" stop-color="#fff" stop-opacity="0.12"/></linearGradient><linearGradient id="未命名的渐变_2" x1="166.012" y1="75.988" x2="25.987" y2="216.012" gradientTransform="matrix(1, 0, 0, -1, 0, 242)" gradientUnits="userSpaceOnUse"><stop offset="0" stop-opacity="0.04"/><stop offset="0.5" stop-color="gray" stop-opacity="0"/><stop offset="1" stop-color="#fff" stop-opacity="0.1"/></linearGradient><linearGradient id="未命名的渐变_29" x1="172.218" y1="159.781" x2="73.719" y2="61.281" gradientUnits="userSpaceOnUse"><stop offset="0" stop-opacity="0.02"/><stop offset="1" stop-opacity="0.1"/></linearGradient></defs><title>telegram</title><g id="图层_2" data-name="图层 2"><g id="图层_1-2" data-name="图层 1"><rect class="cls-1" width="192" height="192"/><path class="cls-2" d="M96,190C27.3,190,3,165.7,3,97S27.3,4,96,4s93,24.3,93,93S164.7,190,96,190Z"/><path class="cls-3" d="M96,189C28.1,189,4,164.9,4,97S28.1,5,96,5s92,24.1,92,92S163.9,189,96,189Z"/><path class="cls-4" d="M96,188C28.8,188,5,164.2,5,97S28.8,6,96,6s91,23.8,91,91S163.2,188,96,188Z"/><path class="cls-5" d="M186,97c0,66.7-23.3,90-90,90S6,163.7,6,97,29.3,7,96,7,186,30.3,186,97Z"/><path class="cls-6" d="M186,96c0,66.7-23.3,90-90,90S6,162.7,6,96,29.3,6,96,6,186,29.3,186,96Z"/><path class="cls-7" d="M186,96c0,66.67-23.32,90-90,90S6,162.67,6,96,29.32,6,96,6,186,29.32,186,96Z"/><path class="cls-8" d="M96,6C29.3,6,6,29.3,6,96s23.3,90,90,90,90-23.3,90-90S162.7,6,96,6Zm68.6,158.6C151.2,178,130,184,96,184s-55.2-6-68.6-19.4S8,130,8,96s6-55.2,19.4-68.6S62,8,96,8s55.2,6,68.6,19.4S184,62,184,96,178,151.2,164.6,164.6Z"/><path class="cls-9" d="M186,96.124,144.25,54.375,37,98l37,37,1,5,44.777,44.777C168.291,179.225,185.974,154.065,186,96.124Z"/><path class="cls-10" d="M77.3,140.75c-3.3,0-2.743-1.248-3.883-4.394L63.7,104.375,138.5,60"/><path class="cls-11" d="M77.3,140.75c2.55,0,3.677-1.166,5.1-2.55L96,124.976l-16.964-10.23"/><path class="cls-12" d="M79.034,114.749l41.106,30.369c4.691,2.588,8.076,1.248,9.245-4.355l16.732-78.848c1.713-6.869-2.618-9.984-7.106-7.946L40.76,91.854c-6.707,2.69-6.668,6.432-1.223,8.1l25.214,7.869L123.123,71c2.756-1.671,5.285-.773,3.209,1.07"/><path class="cls-13" d="M41.76,93.854l98.251-37.885c2.436-1.106,4.817-.683,6.219,1.023-.9-3.293-4.013-4.479-7.219-3.023L40.76,91.854c-5.11,2.05-6.294,4.707-4.164,6.595C36.633,96.925,38.282,95.249,41.76,93.854Z"/><path class="cls-13" d="M127.332,74.066c1.518-1.348.569-2.185-1.126-1.887L79.034,114.748l1.768,1.307Z"/></g></g></svg>