<?xml version="1.0" encoding="UTF-8" standalone="no"?>
<svg
   xmlns:dc="http://purl.org/dc/elements/1.1/"
   xmlns:cc="http://creativecommons.org/ns#"
   xmlns:rdf="http://www.w3.org/1999/02/22-rdf-syntax-ns#"
   xmlns:svg="http://www.w3.org/2000/svg"
   xmlns="http://www.w3.org/2000/svg"
   xmlns:sodipodi="http://sodipodi.sourceforge.net/DTD/sodipodi-0.dtd"
   xmlns:inkscape="http://www.inkscape.org/namespaces/inkscape"
   viewBox="0 0 133.33333 133.33333"
   height="133.33333"
   width="133.33333"
   xml:space="preserve"
   id="svg2"
   version="1.1"
   sodipodi:docname="harbour-prostogram.svg"
   inkscape:version="0.92.2 2405546, 2018-03-11"><sodipodi:namedview
     pagecolor="#ffffff"
     bordercolor="#666666"
     borderopacity="1"
     objecttolerance="10"
     gridtolerance="10"
     guidetolerance="10"
     inkscape:pageopacity="0"
     inkscape:pageshadow="2"
     inkscape:window-width="1366"
     inkscape:window-height="706"
     id="namedview103"
     showgrid="false"
     inkscape:zoom="1.7700001"
     inkscape:cx="66.666664"
     inkscape:cy="66.666664"
     inkscape:window-x="0"
     inkscape:window-y="34"
     inkscape:window-maximized="1"
     inkscape:current-layer="svg2" /><metadata
     id="metadata8"><rdf:RDF><cc:Work
         rdf:about=""><dc:format>image/svg+xml</dc:format><dc:type
           rdf:resource="http://purl.org/dc/dcmitype/StillImage" /></cc:Work></rdf:RDF></metadata><defs
     id="defs6"><clipPath
       id="clipPath18"
       clipPathUnits="userSpaceOnUse"><path
         id="path16"
         d="M 0,100 H 100 V 0 H 0 Z" /></clipPath><clipPath
       id="clipPath34"
       clipPathUnits="userSpaceOnUse"><path
         id="path32"
         d="M 73.46,84.71 H 84.71 V 73.46 H 73.46 Z" /></clipPath><clipPath
       id="clipPath66"
       clipPathUnits="userSpaceOnUse"><path
         id="path64"
         d="M 50,50 30.815,30.815 61.153,0.478 C 86.211,2.773 97.219,13.774 99.52,38.822 v 0 L 69.171,69.171 Z" /></clipPath><clipPath
       id="clipPath74"
       clipPathUnits="userSpaceOnUse"><path
         id="path72"
         d="M -32768,32767 H 32767 V -32768 H -32768 Z" /></clipPath><linearGradient
       id="linearGradient82"
       spreadMethod="pad"
       gradientTransform="matrix(38.87653,-38.87653,-38.87653,-38.87653,49.993225,49.993225)"
       gradientUnits="userSpaceOnUse"
       y2="0"
       x2="1"
       y1="0"
       x1="0"><stop
         id="stop76"
         offset="0"
         style="stop-opacity:0.11999695;stop-color:#ffffff" /><stop
         id="stop78"
         offset="1"
         style="stop-opacity:0;stop-color:#ffffff" /><stop
         id="stop80"
         offset="1"
         style="stop-opacity:0;stop-color:#ffffff" /></linearGradient><mask
       id="mask84"
       height="1"
       width="1"
       y="0"
       x="0"
       maskUnits="userSpaceOnUse"><g
         id="g94"><g
           id="g92"
           clip-path="url(#clipPath74)"><g
             id="g90"><g
               id="g88"><path
                 id="path86"
                 style="fill:url(#linearGradient82);stroke:none"
                 d="M -32768,32767 H 32767 V -32768 H -32768 Z" /></g></g></g></g></mask><linearGradient
       id="linearGradient106"
       spreadMethod="pad"
       gradientTransform="matrix(38.87653,-38.87653,-38.87653,-38.87653,49.993225,49.993225)"
       gradientUnits="userSpaceOnUse"
       y2="0"
       x2="1"
       y1="0"
       x1="0"><stop
         id="stop100"
         offset="0"
         style="stop-opacity:1;stop-color:#000000" /><stop
         id="stop102"
         offset="1"
         style="stop-opacity:1;stop-color:#000000" /><stop
         id="stop104"
         offset="1"
         style="stop-opacity:1;stop-color:#000000" /></linearGradient><clipPath
       id="clipPath116"
       clipPathUnits="userSpaceOnUse"><path
         id="path114"
         d="M 25.333,50 C 25.333,31.728 31.725,25.333 50,25.333 v 0 c 18.276,0 24.667,6.395 24.667,24.667 v 0 c 0,18.276 -6.391,24.667 -24.667,24.667 v 0 C 31.725,74.667 25.333,68.272 25.333,50" /></clipPath><linearGradient
       id="linearGradient128"
       spreadMethod="pad"
       gradientTransform="matrix(38.372082,-38.372082,-38.372082,-38.372082,30.814215,69.186302)"
       gradientUnits="userSpaceOnUse"
       y2="0"
       x2="1"
       y1="0"
       x1="0"><stop
         id="stop122"
         offset="0"
         style="stop-opacity:1;stop-color:#d1c7bf" /><stop
         id="stop124"
         offset="1"
         style="stop-opacity:1;stop-color:#a8a19b" /><stop
         id="stop126"
         offset="1"
         style="stop-opacity:1;stop-color:#a8a19b" /></linearGradient><clipPath
       id="clipPath138"
       clipPathUnits="userSpaceOnUse"><path
         id="path136"
         d="M 0,100 H 100 V 0 H 0 Z" /></clipPath><clipPath
       id="clipPath162"
       clipPathUnits="userSpaceOnUse"><path
         id="path160"
         d="m 84.71,79.08 c 0,-4.16 -1.46,-5.62 -5.63,-5.62 v 0 c -2.08,0 -3.48,0.36 -4.37,1.25 v 0 L 99.99,49.43 c 0,0.19 0.01,0.381 0.01,0.57 v 0 c 0,1.25 -0.01,2.48 -0.05,3.67 v 0 c -0.14,5.44 -0.59,10.32 -1.39,14.689 v 0 L 83.46,83.46 c 0.88,-0.89 1.25,-2.3 1.25,-4.38" /></clipPath><clipPath
       id="clipPath170"
       clipPathUnits="userSpaceOnUse"><path
         id="path168"
         d="M -32768,32767 H 32767 V -32768 H -32768 Z" /></clipPath><linearGradient
       id="linearGradient178"
       spreadMethod="pad"
       gradientTransform="matrix(25.279997,-25.279997,-25.279997,-25.279997,79.085007,79.085007)"
       gradientUnits="userSpaceOnUse"
       y2="0"
       x2="1"
       y1="0"
       x1="0"><stop
         id="stop172"
         offset="0"
         style="stop-opacity:0.11999695;stop-color:#ffffff" /><stop
         id="stop174"
         offset="1"
         style="stop-opacity:0;stop-color:#ffffff" /><stop
         id="stop176"
         offset="1"
         style="stop-opacity:0;stop-color:#ffffff" /></linearGradient><mask
       id="mask180"
       height="1"
       width="1"
       y="0"
       x="0"
       maskUnits="userSpaceOnUse"><g
         id="g190"><g
           id="g188"
           clip-path="url(#clipPath170)"><g
             id="g186"><g
               id="g184"><path
                 id="path182"
                 style="fill:url(#linearGradient178);stroke:none"
                 d="M -32768,32767 H 32767 V -32768 H -32768 Z" /></g></g></g></g></mask><linearGradient
       id="linearGradient202"
       spreadMethod="pad"
       gradientTransform="matrix(25.279997,-25.279997,-25.279997,-25.279997,79.085007,79.085007)"
       gradientUnits="userSpaceOnUse"
       y2="0"
       x2="1"
       y1="0"
       x1="0"><stop
         id="stop196"
         offset="0"
         style="stop-opacity:1;stop-color:#000000" /><stop
         id="stop198"
         offset="1"
         style="stop-opacity:1;stop-color:#000000" /><stop
         id="stop200"
         offset="1"
         style="stop-opacity:1;stop-color:#000000" /></linearGradient></defs><g
     transform="matrix(1.25,0,0,-1.2500013,4,129.33333)"
     id="g10"><g
       id="g12"><g
         clip-path="url(#clipPath18)"
         id="g14"><g
           transform="translate(100,50)"
           id="g20"><path
             id="path22"
             style="fill:#f0ece9;fill-opacity:1;fill-rule:nonzero;stroke:none"
             d="m 0,0 c 0,-37.04 -12.96,-50 -50,-50 -37.04,0 -50,12.96 -50,50 0,1.25 0.01,2.48 0.05,3.67 h 99.9 C -0.01,2.48 0,1.25 0,0"
             inkscape:connector-curvature="0" /></g><g
           transform="translate(99.9502,53.6699)"
           id="g24"><path
             id="path26"
             style="fill:#7ad45f;fill-opacity:1;fill-rule:nonzero;stroke:none"
             d="m 0,0 h -99.9 c 0.85,34.23 14.16,46.33 49.95,46.33 C -14.16,46.33 -0.851,34.23 0,0"
             inkscape:connector-curvature="0" /></g><g
           id="g28"><g
             id="g30" /><g
             id="g42"><g
               style="opacity:0.80000299"
               id="g40"
               clip-path="url(#clipPath34)"><g
                 id="g38"
                 transform="translate(84.71,79.0801)"><path
                   id="path36"
                   style="fill:#1f3142;fill-opacity:1;fill-rule:nonzero;stroke:none"
                   d="m 0,0 c 0,-4.16 -1.46,-5.62 -5.63,-5.62 -2.08,0 -3.48,0.36 -4.37,1.25 -0.89,0.89 -1.25,2.29 -1.25,4.37 0,4.17 1.46,5.63 5.62,5.63 2.08,0 3.49,-0.37 4.38,-1.25 C -0.37,3.49 0,2.08 0,0"
                   inkscape:connector-curvature="0" /></g></g></g></g><g
           transform="translate(12.6665,9.667)"
           id="g44"><path
             id="path46"
             style="fill:#fe5e5e;fill-opacity:1;fill-rule:nonzero;stroke:none"
             d="M 0,0 V 44.003 H -6.5 V 8.045 C -4.75,4.91 -2.6,2.238 0,0"
             inkscape:connector-curvature="0" /></g><g
           transform="translate(19.1665,5.4121)"
           id="g48"><path
             id="path50"
             style="fill:#fede82;fill-opacity:1;fill-rule:nonzero;stroke:none"
             d="M 0,0 V 48.258 H -6.5 V 4.255 C -4.584,2.605 -2.415,1.2 0,0"
             inkscape:connector-curvature="0" /></g><g
           transform="translate(25.6665,2.8779)"
           id="g52"><path
             id="path54"
             style="fill:#45dd91;fill-opacity:1;fill-rule:nonzero;stroke:none"
             d="M 0,0 V 50.792 H -6.5 V 2.534 C -4.511,1.546 -2.347,0.704 0,0"
             inkscape:connector-curvature="0" /></g><g
           transform="translate(32.1665,1.3525)"
           id="g56"><path
             id="path58"
             style="fill:#85d8ff;fill-opacity:1;fill-rule:nonzero;stroke:none"
             d="M 0,0 V 52.317 H -6.5 V 1.525 C -4.471,0.917 -2.309,0.407 0,0"
             inkscape:connector-curvature="0" /></g></g></g><g
       id="g60"><g
         clip-path="url(#clipPath66)"
         id="g62"><g
           id="g68"><g
             id="g70" /><g
             mask="url(#mask84)"
             id="g96"><g
               id="g98"><path
                 id="path108"
                 style="fill:url(#linearGradient106);stroke:none"
                 d="M 50,50 30.815,30.815 61.153,0.478 C 86.211,2.773 97.219,13.774 99.52,38.822 v 0 L 69.171,69.171 Z"
                 inkscape:connector-curvature="0" /></g></g></g></g></g><g
       id="g110"><g
         clip-path="url(#clipPath116)"
         id="g112"><g
           id="g118"><g
             id="g120"><path
               id="path130"
               style="fill:url(#linearGradient128);stroke:none"
               d="M 25.333,50 C 25.333,31.728 31.725,25.333 50,25.333 v 0 c 18.276,0 24.667,6.395 24.667,24.667 v 0 c 0,18.276 -6.391,24.667 -24.667,24.667 v 0 C 31.725,74.667 25.333,68.272 25.333,50"
               inkscape:connector-curvature="0" /></g></g></g></g><g
       id="g132"><g
         clip-path="url(#clipPath138)"
         id="g134"><g
           transform="translate(70,50)"
           id="g140"><path
             id="path142"
             style="fill:#1f3142;fill-opacity:1;fill-rule:nonzero;stroke:none"
             d="m 0,0 c 0,-14.815 -5.183,-20 -20,-20 -14.818,0 -20,5.185 -20,20 0,14.815 5.182,20 20,20 C -5.183,20 0,14.818 0,0"
             inkscape:connector-curvature="0" /></g><g
           transform="translate(61,50)"
           id="g144"><path
             id="path146"
             style="fill:#2c4356;fill-opacity:1;fill-rule:nonzero;stroke:none"
             d="m 0,0 c 0,-8.148 -2.851,-11 -11,-11 -8.15,0 -11,2.852 -11,11 0,8.148 2.85,11 11,11 C -2.851,11 0,8.15 0,0"
             inkscape:connector-curvature="0" /></g><g
           transform="translate(55.625,50)"
           id="g148"><path
             id="path150"
             style="fill:#1f3142;fill-opacity:1;fill-rule:nonzero;stroke:none"
             d="m 0,0 c 0,-4.167 -1.457,-5.625 -5.625,-5.625 -4.167,0 -5.625,1.458 -5.625,5.625 0,4.167 1.458,5.625 5.625,5.625 C -1.457,5.625 0,4.167 0,0"
             inkscape:connector-curvature="0" /></g><g
           transform="translate(62.6875,59.4448)"
           id="g152"><path
             id="path154"
             style="fill:#476279;fill-opacity:1;fill-rule:nonzero;stroke:none"
             d="m 0,0 c 0,-3.187 -1.114,-4.302 -4.302,-4.302 -3.187,0 -4.302,1.115 -4.302,4.302 0,3.187 1.115,4.302 4.302,4.302 C -1.114,4.302 0,3.188 0,0"
             inkscape:connector-curvature="0" /></g></g></g><g
       id="g156"><g
         clip-path="url(#clipPath162)"
         id="g158"><g
           id="g164"><g
             id="g166" /><g
             mask="url(#mask180)"
             id="g192"><g
               id="g194"><path
                 id="path204"
                 style="fill:url(#linearGradient202);stroke:none"
                 d="m 84.71,79.08 c 0,-4.16 -1.46,-5.62 -5.63,-5.62 v 0 c -2.08,0 -3.48,0.36 -4.37,1.25 v 0 L 99.99,49.43 c 0,0.19 0.01,0.381 0.01,0.57 v 0 c 0,1.25 -0.01,2.48 -0.05,3.67 v 0 c -0.14,5.44 -0.59,10.32 -1.39,14.689 v 0 L 83.46,83.46 c 0.88,-0.89 1.25,-2.3 1.25,-4.38"
                 inkscape:connector-curvature="0" /></g></g></g></g></g></g></svg>