<svg xmlns="http://www.w3.org/2000/svg" xmlns:xlink="http://www.w3.org/1999/xlink" viewBox="0 0 192 192"><defs><style>.cls-1{fill:none;}.cls-2{opacity:0.01;}.cls-2,.cls-3,.cls-4,.cls-5{isolation:isolate;}.cls-3{opacity:0.02;}.cls-4{opacity:0.04;}.cls-5{opacity:0.06;}.cls-6{fill:#315477;}.cls-7{fill:url(#未命名的渐变);}.cls-8{fill:url(#未命名的渐变_2);}.cls-9{fill:url(#未命名的渐变_3);}.cls-10{fill:#fafafa;}.cls-11{fill:#fff;}</style><linearGradient id="未命名的渐变" x1="166" y1="604" x2="26" y2="464" gradientTransform="translate(0 -438)" gradientUnits="userSpaceOnUse"><stop offset="0" stop-opacity="0.1"/><stop offset="0.5" stop-color="gray" stop-opacity="0.05"/><stop offset="1" stop-color="#f8f8f8" stop-opacity="0.12"/><stop offset="1" stop-color="#fff" stop-opacity="0.15"/></linearGradient><linearGradient id="未命名的渐变_2" x1="166" y1="604" x2="25.99" y2="464" gradientTransform="translate(0 -438)" gradientUnits="userSpaceOnUse"><stop offset="0" stop-opacity="0.05"/><stop offset="0.5" stop-color="gray" stop-opacity="0"/><stop offset="1" stop-color="#fff" stop-opacity="0.1"/></linearGradient><linearGradient id="未命名的渐变_3" x1="166.56" y1="28.56" x2="72.44" y2="122.67" gradientTransform="matrix(1, 0, 0, -1, 0, 194)" gradientUnits="userSpaceOnUse"><stop offset="0" stop-opacity="0.04"/><stop offset="1" stop-opacity="0.18"/></linearGradient></defs><title>tumblr</title><g id="图层_2" data-name="图层 2"><g id="图层_1-2" data-name="图层 1"><rect class="cls-1" width="192" height="192"/><path class="cls-2" d="M96,190C27.34,190,3,165.66,3,97S27.34,4,96,4s93,24.34,93,93S164.66,190,96,190Z"/><path class="cls-3" d="M96,189C28.07,189,4,164.92,4,97S28.07,5,96,5s92,24.07,92,92S163.93,189,96,189Z"/><path class="cls-4" d="M96,188C28.81,188,5,164.19,5,97S28.81,6,96,6s91,23.81,91,91S163.19,188,96,188Z"/><path class="cls-5" d="M186,97c0,66.67-23.32,90-90,90S6,163.67,6,97,29.32,7,96,7,186,30.32,186,97Z"/><path class="cls-6" d="M186,96c0,66.67-23.32,90-90,90S6,162.67,6,96,29.32,6,96,6,186,29.32,186,96Z"/><path class="cls-7" d="M186,96c0,66.67-23.32,90-90,90S6,162.67,6,96,29.32,6,96,6,186,29.32,186,96Z"/><path class="cls-8" d="M96,6C29.32,6,6,29.32,6,96s23.32,90,90,90,90-23.33,90-90S162.68,6,96,6Zm68.59,158.59C151.17,178,130,184,96,184s-55.17-6-68.59-19.41S8,130,8,96s6-55.17,19.41-68.59S62,8,96,8s55.17,6,68.59,19.41S184,62,184,96,178,151.16,164.59,164.59Z"/><path class="cls-9" d="M184.47,122.25,103,40.77l-39.74,48L83.5,109v34.5l40.71,40.71C161.66,178.76,179.47,160.38,184.47,122.25Z"/><path class="cls-10" d="M128.64,144.27a2.47,2.47,0,0,0,.62-2.88l-6.61-13.52a1.59,1.59,0,0,0-2-1l-.25.11A22.46,22.46,0,0,1,111,129c-7,0-7-7-7-7V90h19a1,1,0,0,0,1-1V69a1,1,0,0,0-1-1H104V41a1,1,0,0,0-1-1H87a4,4,0,0,0-4,4h0s-.5,10-6.5,17C71.42,66.93,68,68,65,69s-3,2.34-3,4V89a1,1,0,0,0,1,1H74v31h0a22.58,22.58,0,0,0,.15,3.15,30.24,30.24,0,0,0,29,27.8C112,152.43,122.41,149.72,128.64,144.27Z"/><path class="cls-11" d="M112,131a19.45,19.45,0,0,0,7.68-1.33,3.62,3.62,0,0,1,3.94,1l-.27-.78a3.6,3.6,0,0,0-4.59-2.2l-.08,0A22,22,0,0,1,111,129a6.37,6.37,0,0,1-5.56-2.59A6.33,6.33,0,0,0,112,131Z"/><path class="cls-11" d="M105,70h17a3,3,0,0,1,2,.76A3,3,0,0,0,121,68H105Z"/><path class="cls-11" d="M63,89V75c0-1.66,0-3,3-4s6.42-2.07,11.5-8c6-7,6.5-17,6.5-17V45a3,3,0,0,1,3-3h15a3,3,0,0,1,2,.76A3,3,0,0,0,101,40H86a3,3,0,0,0-3,3v1s-.5,10-6.5,17C71.42,66.93,68,68,65,69s-3,2.34-3,4V87a3,3,0,0,0,1,2.24Z"/><path class="cls-11" d="M75.15,126.15C75.05,125.09,75,124,75,123h0V92H74v29h0a22.58,22.58,0,0,0,.15,3.15,31.58,31.58,0,0,0,3.74,12.11A31.51,31.51,0,0,1,75.15,126.15Z"/></g></g></svg>