<?xml version="1.0" encoding="UTF-8" standalone="no"?>
<!-- Created with Inkscape (http://www.inkscape.org/) -->

<svg
   xmlns:dc="http://purl.org/dc/elements/1.1/"
   xmlns:cc="http://creativecommons.org/ns#"
   xmlns:rdf="http://www.w3.org/1999/02/22-rdf-syntax-ns#"
   xmlns:svg="http://www.w3.org/2000/svg"
   xmlns="http://www.w3.org/2000/svg"
   xmlns:sodipodi="http://sodipodi.sourceforge.net/DTD/sodipodi-0.dtd"
   xmlns:inkscape="http://www.inkscape.org/namespaces/inkscape"
   version="1.1"
   id="svg2"
   xml:space="preserve"
   width="106.66667"
   height="106.66667"
   viewBox="0 0 106.66667 106.66667"
   sodipodi:docname="harbour-maep-qt.svg"
   inkscape:version="0.92.2 2405546, 2018-03-11"><metadata
     id="metadata8"><rdf:RDF><cc:Work
         rdf:about=""><dc:format>image/svg+xml</dc:format><dc:type
           rdf:resource="http://purl.org/dc/dcmitype/StillImage" /><dc:title /></cc:Work></rdf:RDF></metadata><defs
     id="defs6"><clipPath
       clipPathUnits="userSpaceOnUse"
       id="clipPath18"><path
         d="M 0,80 H 80 V 0 H 0 Z"
         id="path16"
         inkscape:connector-curvature="0" /></clipPath><clipPath
       clipPathUnits="userSpaceOnUse"
       id="clipPath30"><path
         d="M 1,40 C 1,11.108 11.105,1 40,1 v 0 c 28.894,0 39,10.108 39,39 v 0 C 79,68.893 68.894,79 40,79 v 0 C 11.105,79 1,68.893 1,40"
         id="path28"
         inkscape:connector-curvature="0" /></clipPath><clipPath
       clipPathUnits="userSpaceOnUse"
       id="clipPath44"><path
         d="M 0,80 H 80 V 0 H 0 Z"
         id="path42"
         inkscape:connector-curvature="0" /></clipPath><clipPath
       clipPathUnits="userSpaceOnUse"
       id="clipPath72"><path
         d="M 53.091,34.021 73.485,13.626 C 77.35,19.738 79,28.337 79,40 v 0 c 0,3.182 -0.131,6.122 -0.388,8.86 v 0 L 63.418,64.055 Z"
         id="path70"
         inkscape:connector-curvature="0" /></clipPath><clipPath
       clipPathUnits="userSpaceOnUse"
       id="clipPath80"><path
         d="M -32768,32767 H 32767 V -32768 H -32768 Z"
         id="path78"
         inkscape:connector-curvature="0" /></clipPath><linearGradient
       x1="0"
       y1="0"
       x2="1"
       y2="0"
       gradientUnits="userSpaceOnUse"
       gradientTransform="matrix(30.247833,-30.247833,-30.247833,-30.247833,53.328018,53.964188)"
       spreadMethod="pad"
       id="linearGradient88"><stop
         style="stop-opacity:0.4;stop-color:#ffffff"
         offset="0"
         id="stop82" /><stop
         style="stop-opacity:0;stop-color:#ffffff"
         offset="1"
         id="stop84" /><stop
         style="stop-opacity:0;stop-color:#ffffff"
         offset="1"
         id="stop86" /></linearGradient><mask
       maskUnits="userSpaceOnUse"
       x="0"
       y="0"
       width="1"
       height="1"
       id="mask90"><g
         id="g100"><g
           clip-path="url(#clipPath80)"
           id="g98"><g
             id="g96"><g
               id="g94"><path
                 d="M -32768,32767 H 32767 V -32768 H -32768 Z"
                 style="fill:url(#linearGradient88);stroke:none"
                 id="path92"
                 inkscape:connector-curvature="0" /></g></g></g></g></mask><linearGradient
       x1="0"
       y1="0"
       x2="1"
       y2="0"
       gradientUnits="userSpaceOnUse"
       gradientTransform="matrix(30.247833,-30.247833,-30.247833,-30.247833,53.328018,53.964188)"
       spreadMethod="pad"
       id="linearGradient112"><stop
         style="stop-opacity:1;stop-color:#000000"
         offset="0"
         id="stop106" /><stop
         style="stop-opacity:1;stop-color:#000000"
         offset="1"
         id="stop108" /><stop
         style="stop-opacity:1;stop-color:#000000"
         offset="1"
         id="stop110" /></linearGradient><clipPath
       clipPathUnits="userSpaceOnUse"
       id="clipPath122"><path
         d="m 43.29,63.01 c -0.349,-0.45 -0.67,-0.92 -0.96,-1.39 v 0 C 39.51,56.911 39.89,50.971 43.14,46.68 v 0 l 0.3,-0.38 4.31,-5.48 5.254,-6.703 c 0.41,-0.523 1.202,-0.524 1.613,-10e-4 v 0 l 5.263,6.695 4.45,5.679 c 3.519,4.49 3.72,10.53 0.94,15.15 v 0 c -0.81,1.36 -1.88,2.59 -3.2,3.63 v 0 c -2.45,1.923 -5.361,2.855 -8.252,2.855 v 0 c -3.965,0 -7.891,-1.755 -10.528,-5.115"
         id="path120"
         inkscape:connector-curvature="0" /></clipPath><linearGradient
       x1="0"
       y1="0"
       x2="1"
       y2="0"
       gradientUnits="userSpaceOnUse"
       gradientTransform="matrix(20.184425,-20.184425,-20.184425,-20.184425,43.717777,63.575508)"
       spreadMethod="pad"
       id="linearGradient134"><stop
         style="stop-opacity:1;stop-color:#ff6e70"
         offset="0"
         id="stop128" /><stop
         style="stop-opacity:1;stop-color:#d95252"
         offset="1"
         id="stop130" /><stop
         style="stop-opacity:1;stop-color:#d95252"
         offset="1"
         id="stop132" /></linearGradient><clipPath
       clipPathUnits="userSpaceOnUse"
       id="clipPath144"><path
         d="M 0,80 H 80 V 0 H 0 Z"
         id="path142"
         inkscape:connector-curvature="0" /></clipPath><clipPath
       clipPathUnits="userSpaceOnUse"
       id="clipPath152"><path
         d="M 1.02344,79 H 78.9766 V 1 H 1.02344 Z"
         id="path150"
         inkscape:connector-curvature="0" /></clipPath><clipPath
       clipPathUnits="userSpaceOnUse"
       id="clipPath156"><path
         d="M 1.02344,79 H 78.9766 V 1 H 1.02344 Z"
         id="path154"
         inkscape:connector-curvature="0" /></clipPath><clipPath
       clipPathUnits="userSpaceOnUse"
       id="clipPath160"><path
         d="M 78.977,40 C 78.977,11.107 68.877,1 40,1 11.123,1 1.023,11.107 1.023,40 1.023,68.894 11.123,79 40,79 68.877,79 78.977,68.894 78.977,40"
         id="path158"
         inkscape:connector-curvature="0" /></clipPath><clipPath
       clipPathUnits="userSpaceOnUse"
       id="clipPath164"><path
         d="M -24534,24614 H 8232 V -8152 h -32766 z"
         id="path162"
         inkscape:connector-curvature="0" /></clipPath><clipPath
       clipPathUnits="userSpaceOnUse"
       id="clipPath168"><path
         d="M -24534,24614 H 8232 V -8152 h -32766 z"
         id="path166"
         inkscape:connector-curvature="0" /></clipPath><mask
       maskUnits="userSpaceOnUse"
       x="0"
       y="0"
       width="1"
       height="1"
       id="mask170"><g
         id="g182"><g
           clip-path="url(#clipPath164)"
           id="g180"><g
             id="g178"><g
               id="g172" /><g
               id="g176"><g
                 clip-path="url(#clipPath168)"
                 id="g174" /></g></g></g></g></mask><linearGradient
       x1="0"
       y1="0"
       x2="1"
       y2="0"
       gradientUnits="userSpaceOnUse"
       gradientTransform="matrix(0,-53.61993,-53.61993,0,40,74.818359)"
       spreadMethod="pad"
       id="linearGradient188"><stop
         style="stop-opacity:1;stop-color:#ffffff"
         offset="0"
         id="stop184" /><stop
         style="stop-opacity:1;stop-color:#e4e4e5"
         offset="1"
         id="stop186" /></linearGradient><mask
       maskUnits="userSpaceOnUse"
       x="0"
       y="0"
       width="1"
       height="1"
       id="mask190"><g
         id="g216"><g
           clip-path="url(#clipPath152)"
           id="g214"
           style="opacity:0.5"><g
             id="g212"><g
               id="g192" /><g
               id="g210"><g
                 clip-path="url(#clipPath156)"
                 id="g208"><g
                   id="g206"><g
                     clip-path="url(#clipPath160)"
                     id="g204"><g
                       id="g202"><g
                         id="g194" /><g
                         mask="url(#mask170)"
                         id="g200"><g
                           id="g198"><path
                             d="M 78.977,40 C 78.977,11.107 68.877,1 40,1 11.123,1 1.023,11.107 1.023,40 1.023,68.894 11.123,79 40,79 68.877,79 78.977,68.894 78.977,40"
                             style="fill:url(#linearGradient188);stroke:none"
                             id="path196"
                             inkscape:connector-curvature="0" /></g></g></g></g></g></g></g></g></g></g></mask><clipPath
       clipPathUnits="userSpaceOnUse"
       id="clipPath224"><path
         d="M 1.02344,79 H 78.9766 V 1 H 1.02344 Z"
         id="path222"
         inkscape:connector-curvature="0" /></clipPath><clipPath
       clipPathUnits="userSpaceOnUse"
       id="clipPath228"><path
         d="M 78.977,40 C 78.977,11.107 68.877,1 40,1 11.123,1 1.023,11.107 1.023,40 1.023,68.894 11.123,79 40,79 68.877,79 78.977,68.894 78.977,40"
         id="path226"
         inkscape:connector-curvature="0" /></clipPath><linearGradient
       x1="0"
       y1="0"
       x2="1"
       y2="0"
       gradientUnits="userSpaceOnUse"
       gradientTransform="matrix(0,-53.61993,-53.61993,0,40.000019,74.818184)"
       spreadMethod="pad"
       id="linearGradient234"><stop
         style="stop-opacity:1;stop-color:#ffffff"
         offset="0"
         id="stop230" /><stop
         style="stop-opacity:1;stop-color:#000000"
         offset="1"
         id="stop232" /></linearGradient><clipPath
       clipPathUnits="userSpaceOnUse"
       id="clipPath256"><path
         d="M 1,79 H 79 V 1 H 1 Z"
         id="path254"
         inkscape:connector-curvature="0" /></clipPath><clipPath
       clipPathUnits="userSpaceOnUse"
       id="clipPath260"><path
         d="M 1,79 H 79 V 1 H 1 Z"
         id="path258"
         inkscape:connector-curvature="0" /></clipPath><clipPath
       clipPathUnits="userSpaceOnUse"
       id="clipPath264"><path
         d="M -24534,24614 H 8232 V -8152 h -32766 z"
         id="path262"
         inkscape:connector-curvature="0" /></clipPath><clipPath
       clipPathUnits="userSpaceOnUse"
       id="clipPath268"><path
         d="M -24534,24614 H 8232 V -8152 h -32766 z"
         id="path266"
         inkscape:connector-curvature="0" /></clipPath><mask
       maskUnits="userSpaceOnUse"
       x="0"
       y="0"
       width="1"
       height="1"
       id="mask270"><g
         id="g282"><g
           clip-path="url(#clipPath264)"
           id="g280"><g
             id="g278"><g
               id="g272" /><g
               id="g276"><g
                 clip-path="url(#clipPath268)"
                 id="g274" /></g></g></g></g></mask><clipPath
       clipPathUnits="userSpaceOnUse"
       id="clipPath286"><path
         d="M 1,79 H 79 V 1 H 1 Z"
         id="path284"
         inkscape:connector-curvature="0" /></clipPath><clipPath
       clipPathUnits="userSpaceOnUse"
       id="clipPath290"><path
         d="M 39.999,1.975 C 11.57,1.975 1.976,11.57 1.976,40 c 0,28.429 9.594,38.024 38.023,38.024 28.43,0 38.024,-9.595 38.024,-38.024 0,-28.43 -9.594,-38.025 -38.024,-38.025 m 0,77.025 C 11.105,79 1,68.894 1,40 1,11.107 11.105,1 39.999,1 68.896,1 79,11.107 79,40 79,68.894 68.896,79 39.999,79"
         id="path288"
         inkscape:connector-curvature="0" /></clipPath><linearGradient
       x1="0"
       y1="0"
       x2="1"
       y2="0"
       gradientUnits="userSpaceOnUse"
       gradientTransform="matrix(0,-77.263527,-77.263527,0,40,78.75293)"
       spreadMethod="pad"
       id="linearGradient296"><stop
         style="stop-opacity:1;stop-color:#ffffff"
         offset="0"
         id="stop292" /><stop
         style="stop-opacity:1;stop-color:#231815"
         offset="1"
         id="stop294" /></linearGradient><mask
       maskUnits="userSpaceOnUse"
       x="0"
       y="0"
       width="1"
       height="1"
       id="mask298"><g
         id="g332"><g
           clip-path="url(#clipPath256)"
           id="g330"
           style="opacity:0.25"><g
             id="g328"><g
               id="g300" /><g
               id="g326"><g
                 clip-path="url(#clipPath260)"
                 id="g324"><g
                   id="g322"><g
                     id="g302" /><g
                     mask="url(#mask270)"
                     id="g320"><g
                       id="g304" /><g
                       id="g318"><g
                         clip-path="url(#clipPath286)"
                         id="g316"><g
                           id="g314"><g
                             clip-path="url(#clipPath290)"
                             id="g312"><g
                               id="g310"><g
                                 id="g308"><path
                                   d="M 39.999,1.975 C 11.57,1.975 1.976,11.57 1.976,40 c 0,28.429 9.594,38.024 38.023,38.024 28.43,0 38.024,-9.595 38.024,-38.024 0,-28.43 -9.594,-38.025 -38.024,-38.025 m 0,77.025 C 11.105,79 1,68.894 1,40 1,11.107 11.105,1 39.999,1 68.896,1 79,11.107 79,40 79,68.894 68.896,79 39.999,79"
                                   style="fill:url(#linearGradient296);stroke:none"
                                   id="path306"
                                   inkscape:connector-curvature="0" /></g></g></g></g></g></g></g></g></g></g></g></g></g></mask><clipPath
       clipPathUnits="userSpaceOnUse"
       id="clipPath340"><path
         d="M 1,79 H 79 V 1 H 1 Z"
         id="path338"
         inkscape:connector-curvature="0" /></clipPath><clipPath
       clipPathUnits="userSpaceOnUse"
       id="clipPath344"><path
         d="M 39.999,1.975 C 11.57,1.975 1.976,11.57 1.976,40 c 0,28.429 9.594,38.024 38.023,38.024 28.43,0 38.024,-9.595 38.024,-38.024 0,-28.43 -9.594,-38.025 -38.024,-38.025 m 0,77.025 C 11.105,79 1,68.894 1,40 1,11.107 11.105,1 39.999,1 68.896,1 79,11.107 79,40 79,68.894 68.896,79 39.999,79"
         id="path342"
         inkscape:connector-curvature="0" /></clipPath><linearGradient
       x1="0"
       y1="0"
       x2="1"
       y2="0"
       gradientUnits="userSpaceOnUse"
       gradientTransform="matrix(0,-77.263527,-77.263527,0,40,78.753128)"
       spreadMethod="pad"
       id="linearGradient350"><stop
         style="stop-opacity:1;stop-color:#ffffff"
         offset="0"
         id="stop346" /><stop
         style="stop-opacity:1;stop-color:#ffffff"
         offset="1"
         id="stop348" /></linearGradient></defs><sodipodi:namedview
     pagecolor="#ffffff"
     bordercolor="#666666"
     borderopacity="1"
     objecttolerance="10"
     gridtolerance="10"
     guidetolerance="10"
     inkscape:pageopacity="0"
     inkscape:pageshadow="2"
     inkscape:window-width="1366"
     inkscape:window-height="706"
     id="namedview4"
     showgrid="false"
     inkscape:zoom="2.2124999"
     inkscape:cx="53.333336"
     inkscape:cy="53.333336"
     inkscape:window-x="0"
     inkscape:window-y="34"
     inkscape:window-maximized="1"
     inkscape:current-layer="g10" /><g
     id="g10"
     inkscape:groupmode="layer"
     inkscape:label="meizu maps"
     transform="matrix(1.3333333,0,0,-1.3333333,0,106.66667)"><g
       id="g12"
       transform="matrix(0.97115387,0,0,0.97115263,1.2788462,1.2789432)"><g
         id="g14"
         clip-path="url(#clipPath18)"><g
           id="g20"
           transform="translate(79,40)"><path
             d="m 0,0 c 0,-28.893 -10.105,-39 -39,-39 -28.895,0 -39,10.107 -39,39 0,28.894 10.105,39 39,39 C -10.105,39 0,28.894 0,0"
             style="fill:#eaeef0;fill-opacity:1;fill-rule:nonzero;stroke:none"
             id="path22"
             inkscape:connector-curvature="0" /></g></g></g><g
       id="g24"
       transform="matrix(0.97115387,0,0,0.97115263,1.2788462,1.2789432)"><g
         id="g26"
         clip-path="url(#clipPath30)"><path
           d="M 80,0 H 0 v 80 h 80 z"
           style="fill:#eaeef0;fill-opacity:1;fill-rule:nonzero;stroke:none"
           id="path32"
           inkscape:connector-curvature="0" /></g></g><g
       id="g34"
       transform="matrix(0.97115387,0,0,0.97115263,39.710512,13.802442)"><path
         d="M 0,0 -17.678,17.678 6.187,41.542 23.864,23.865 Z"
         style="fill:#e1ffba;fill-opacity:1;fill-rule:nonzero;stroke:none"
         id="path36"
         inkscape:connector-curvature="0" /></g><g
       id="g38"
       transform="matrix(0.97115387,0,0,0.97115263,1.2788462,1.2789432)"><g
         id="g40"
         clip-path="url(#clipPath44)"><g
           id="g46"
           transform="translate(28.3774,1.7002)"><path
             d="M 0,0 11.196,11.195 -6.482,28.873 -22.446,12.909 C -18.221,5.5 -11.036,1.494 0,0"
             style="fill:#c3e69f;fill-opacity:1;fill-rule:nonzero;stroke:none"
             id="path48"
             inkscape:connector-curvature="0" /></g><g
           id="g50"
           transform="translate(77.2754,22.9229)"><path
             d="m 0,0 -13.838,13.837 -35.06,-35.06 c 3.484,-0.471 7.342,-0.7 11.623,-0.7 22.235,0 33.336,5.997 37.275,21.923"
             style="fill:#8abf76;fill-opacity:1;fill-rule:nonzero;stroke:none"
             id="path52"
             inkscape:connector-curvature="0" /></g><g
           id="g54"
           transform="translate(78.2998,51.6226)"><path
             d="M 0,0 -14.862,-14.863 -1.024,-28.7 C 0.155,-23.93 0.7,-18.281 0.7,-11.623 0.7,-7.342 0.472,-3.484 0,0"
             style="fill:#c3e69f;fill-opacity:1;fill-rule:nonzero;stroke:none"
             id="path56"
             inkscape:connector-curvature="0" /></g><g
           id="g58"
           transform="translate(1.604,50.8647)"><path
             d="m 0,0 c -0.405,-3.286 -0.604,-6.891 -0.604,-10.865 0,-11.054 1.486,-19.35 4.931,-25.39 l 15.965,15.963 z"
             style="fill:#95cf84;fill-opacity:1;fill-rule:nonzero;stroke:none"
             id="path60"
             inkscape:connector-curvature="0" /></g><g
           id="g62"
           transform="translate(63.4375,42.6528)"><path
             d="m 0,0 -35.581,35.581 c -1.745,-0.251 -3.381,-0.575 -4.934,-0.958 L -20.623,14.731 -41.542,-6.187 -60.988,13.258 c -0.347,-1.586 -0.627,-3.269 -0.845,-5.046 l 17.345,-17.345 2.946,-2.947 2.946,2.947 20.918,20.918 L -2.946,-2.946 0,-5.892 2.946,-2.946 14.862,8.97 c -0.237,1.757 -0.537,3.421 -0.905,4.986 z"
             style="fill:#ffffff;fill-opacity:1;fill-rule:nonzero;stroke:none"
             id="path64"
             inkscape:connector-curvature="0" /></g></g></g><g
       id="g66"
       transform="matrix(0.97115387,0,0,0.97115263,1.2788462,1.2789432)"><g
         id="g68"
         clip-path="url(#clipPath72)"><g
           id="g74"><g
             id="g76" /><g
             id="g102"
             mask="url(#mask90)"><g
               id="g104"><path
                 d="M 53.091,34.021 73.485,13.626 C 77.35,19.738 79,28.337 79,40 v 0 c 0,3.182 -0.131,6.122 -0.388,8.86 v 0 L 63.418,64.055 Z"
                 style="fill:url(#linearGradient112);stroke:none"
                 id="path114"
                 inkscape:connector-curvature="0" /></g></g></g></g></g><g
       id="g116"
       transform="matrix(0.97115387,0,0,0.97115263,1.2788462,1.2789432)"><g
         id="g118"
         clip-path="url(#clipPath122)"><g
           id="g124"><g
             id="g126"><path
               d="m 43.29,63.01 c -0.349,-0.45 -0.67,-0.92 -0.96,-1.39 v 0 C 39.51,56.911 39.89,50.971 43.14,46.68 v 0 l 0.3,-0.38 4.31,-5.48 5.254,-6.703 c 0.41,-0.523 1.202,-0.524 1.613,-10e-4 v 0 l 5.263,6.695 4.45,5.679 c 3.519,4.49 3.72,10.53 0.94,15.15 v 0 c -0.81,1.36 -1.88,2.59 -3.2,3.63 v 0 c -2.45,1.923 -5.361,2.855 -8.252,2.855 v 0 c -3.965,0 -7.891,-1.755 -10.528,-5.115"
               style="fill:url(#linearGradient134);stroke:none"
               id="path136"
               inkscape:connector-curvature="0" /></g></g></g></g><g
       id="g138"
       transform="matrix(0.97115387,0,0,0.97115263,1.2788462,1.2789432)"><g
         id="g140"
         clip-path="url(#clipPath144)"><g
           id="g146"><g
             id="g148" /><g
             id="g218"
             mask="url(#mask190)"><g
               id="g220" /><g
               id="g248"><g
                 clip-path="url(#clipPath224)"
                 id="g246"
                 style="opacity:0.5"><g
                   id="g244"><g
                     clip-path="url(#clipPath228)"
                     id="g242"><g
                       id="g240"><g
                         id="g238"><path
                           d="M 78.977,40 C 78.977,11.107 68.877,1 40,1 11.123,1 1.023,11.107 1.023,40 1.023,68.894 11.123,79 40,79 68.877,79 78.977,68.894 78.977,40"
                           style="fill:url(#linearGradient234);stroke:none"
                           id="path236"
                           inkscape:connector-curvature="0" /></g></g></g></g></g></g></g></g><g
           id="g250"><g
             id="g252" /><g
             id="g334"
             mask="url(#mask298)"><g
               id="g336" /><g
               id="g364"><g
                 clip-path="url(#clipPath340)"
                 id="g362"
                 style="opacity:0.25"><g
                   id="g360"><g
                     clip-path="url(#clipPath344)"
                     id="g358"><g
                       id="g356"><g
                         id="g354"><path
                           d="M 39.999,1.975 C 11.57,1.975 1.976,11.57 1.976,40 c 0,28.429 9.594,38.024 38.023,38.024 28.43,0 38.024,-9.595 38.024,-38.024 0,-28.43 -9.594,-38.025 -38.024,-38.025 m 0,77.025 C 11.105,79 1,68.894 1,40 1,11.107 11.105,1 39.999,1 68.896,1 79,11.107 79,40 79,68.894 68.896,79 39.999,79"
                           style="fill:url(#linearGradient350);stroke:none"
                           id="path352"
                           inkscape:connector-curvature="0" /></g></g></g></g></g></g></g></g></g></g></g></svg>