<svg xmlns="http://www.w3.org/2000/svg" xmlns:xlink="http://www.w3.org/1999/xlink" viewBox="0 0 192 192"><defs><style>.cls-1{fill:none;}.cls-2{opacity:0.01;}.cls-2,.cls-3,.cls-4,.cls-5{isolation:isolate;}.cls-3{opacity:0.02;}.cls-4{opacity:0.04;}.cls-5{opacity:0.06;}.cls-6{fill:#ff7300;}.cls-7{fill:url(#未命名的渐变_304);}.cls-8{fill:url(#未命名的渐变_112);}.cls-9{fill:url(#未命名的渐变_29);}.cls-10{fill:#ff6d00;}.cls-11{fill:#fff6ee;}.cls-12{fill:url(#未命名的渐变_384);}.cls-13{fill:#fff;}</style><linearGradient id="未命名的渐变_304" x1="166" y1="188" x2="26" y2="328" gradientTransform="matrix(1, 0, 0, -1, 0, 354)" gradientUnits="userSpaceOnUse"><stop offset="0" stop-opacity="0.1"/><stop offset="0.5" stop-color="gray" stop-opacity="0.05"/><stop offset="1" stop-color="#f8f8f8" stop-opacity="0.12"/><stop offset="1" stop-color="#fff" stop-opacity="0.12"/></linearGradient><linearGradient id="未命名的渐变_112" x1="166" y1="188" x2="25.99" y2="328" gradientTransform="matrix(1, 0, 0, -1, 0, 354)" gradientUnits="userSpaceOnUse"><stop offset="0" stop-opacity="0.05"/><stop offset="0.5" stop-color="gray" stop-opacity="0"/><stop offset="1" stop-color="#fff" stop-opacity="0.1"/></linearGradient><linearGradient id="未命名的渐变_29" x1="156.97" y1="175.03" x2="62.62" y2="80.69" gradientUnits="userSpaceOnUse"><stop offset="0" stop-opacity="0.02"/><stop offset="1" stop-opacity="0.14"/></linearGradient><linearGradient id="未命名的渐变_384" x1="137.72" y1="149.6" x2="87.06" y2="98.94" gradientUnits="userSpaceOnUse"><stop offset="0" stop-opacity="0.04"/><stop offset="1" stop-opacity="0.16"/></linearGradient></defs><title>vlc</title><g id="图层_2" data-name="图层 2"><g id="图层_2-2" data-name="图层 2"><rect class="cls-1" width="192" height="192"/><path class="cls-2" d="M96,190C27.34,190,3,165.66,3,97S27.34,4,96,4s93,24.34,93,93S164.66,190,96,190Z"/><path class="cls-3" d="M96,189C28.07,189,4,164.92,4,97S28.07,5,96,5s92,24.07,92,92S163.93,189,96,189Z"/><path class="cls-4" d="M96,188C28.81,188,5,164.19,5,97S28.81,6,96,6s91,23.81,91,91S163.19,188,96,188Z"/><path class="cls-5" d="M186,97c0,66.67-23.32,90-90,90S6,163.67,6,97,29.32,7,96,7,186,30.32,186,97Z"/><path class="cls-6" d="M186,96c0,66.67-23.32,90-90,90S6,162.67,6,96,29.32,6,96,6,186,29.32,186,96Z"/><path class="cls-7" d="M186,96c0,66.67-23.32,90-90,90S6,162.67,6,96,29.32,6,96,6,186,29.32,186,96Z"/><path class="cls-8" d="M96,6C29.32,6,6,29.32,6,96s23.32,90,90,90,90-23.33,90-90S162.68,6,96,6Zm68.59,158.59C151.17,178,130,184,96,184s-55.17-6-68.59-19.41S8,130,8,96s6-55.17,19.41-68.59S62,8,96,8s55.17,6,68.59,19.41S184,62,184,96,178,151.16,164.59,164.59Z"/><path class="cls-9" d="M184.09,125,101.21,42.1,97.5,98.5,50.38,145.63,90.7,185.95c1.74,0,3.5.05,5.3.05C151.92,186,177.34,169.59,184.09,125Z"/><path id="path3657" class="cls-10" d="M51.23,138.24a10.45,10.45,0,0,0-2,3.09,4.52,4.52,0,0,0,.12,3.27c.38.63.89,1.27,1.62,1.27,32,0,63.39.05,88.29.12.84,0,2.44-.15,3.1-1.09a5.32,5.32,0,0,0,.18-4.18c-.5-1.13-2.83-1.64-2.83-1.64Z"/><path id="rect2862" class="cls-11" d="M61,108a3.77,3.77,0,0,0-3.4,2.56L49.4,140.86a1.87,1.87,0,0,0,1.87,2.57h90.21a1.42,1.42,0,0,0,1.43-2L134.33,110a2.87,2.87,0,0,0-2.59-2H61Z"/><path id="path2825" class="cls-11" d="M95.93,40c-2.43,0-3.86,1.16-5.29,2.24a6.06,6.06,0,0,0-1.48,2.52L64.22,127.7s1.1,7.17,9.92,10.67c6.11,2.42,12.42,2.74,22.23,2.85,10.93.12,15.38-1,22.52-3.47a15.32,15.32,0,0,0,6.7-4.42,9.4,9.4,0,0,0,2.24-6L102.18,43.22a3.32,3.32,0,0,0-.57-.8A9,9,0,0,0,95.93,40Z"/><path class="cls-12" d="M134.33,110a2.87,2.87,0,0,0-2.59-2h-47L69,117l28.35,28.92,41.93.08c.84,0,2.44-.15,3.1-1.09a4.24,4.24,0,0,0,.51-2.33,1.65,1.65,0,0,0,0-1.11Z"/><path class="cls-13" d="M85,111S95,45,97,43c.59-.59,2.34-.75,4.5-.67A9.32,9.32,0,0,0,95.93,40c-2.43,0-3.86,1.16-5.29,2.24a6.06,6.06,0,0,0-1.48,2.52L69.24,111Z"/><path id="path2843" class="cls-10" d="M73.32,97.42,68,115.18a1.87,1.87,0,0,0,.61,2C75.48,122.59,85.21,126,96,126s20.61-3.41,27.49-8.86a1.87,1.87,0,0,0,.61-2l-5.37-17.63c-5.29,4.25-13.48,6-22.68,6S78.61,101.7,73.32,97.42Z"/><path id="path2829" class="cls-10" d="M106.29,56.69a33.8,33.8,0,0,1-10.43,1.47,34.08,34.08,0,0,1-10.3-1.43l-6,20c4,2.13,10,3.48,16.57,3.48s12.3-1.29,16.33-3.35l-6.16-20.19Z"/></g></g></svg>