<svg xmlns="http://www.w3.org/2000/svg" xmlns:xlink="http://www.w3.org/1999/xlink" viewBox="0 0 192 192"><defs><style>.cls-1{fill:none;}.cls-2{opacity:0.01;}.cls-2,.cls-3,.cls-4,.cls-5{isolation:isolate;}.cls-3{opacity:0.02;}.cls-4{opacity:0.04;}.cls-5{opacity:0.06;}.cls-6{fill:#ebebeb;}.cls-7{fill:url(#未命名的渐变);}.cls-8{fill:url(#未命名的渐变_2);}.cls-9{fill:url(#未命名的渐变_7);}.cls-10{fill:#fff;}.cls-11{fill:url(#未命名的渐变_7-2);}.cls-12{fill:#f6771e;}</style><linearGradient id="未命名的渐变" x1="166.01" y1="766.01" x2="25.99" y2="625.99" gradientTransform="translate(0 -600)" gradientUnits="userSpaceOnUse"><stop offset="0" stop-opacity="0.12"/><stop offset="0.5" stop-color="gray" stop-opacity="0.05"/><stop offset="1" stop-color="#fff" stop-opacity="0.15"/></linearGradient><linearGradient id="未命名的渐变_2" x1="166.01" y1="766.01" x2="25.99" y2="625.99" gradientTransform="translate(0 -600)" gradientUnits="userSpaceOnUse"><stop offset="0" stop-opacity="0.05"/><stop offset="0.5" stop-color="gray" stop-opacity="0"/><stop offset="1" stop-color="#fff" stop-opacity="0.1"/></linearGradient><linearGradient id="未命名的渐变_7" x1="142.75" y1="788.65" x2="73.05" y2="718.95" gradientTransform="translate(0 -600)" gradientUnits="userSpaceOnUse"><stop offset="0" stop-opacity="0.02"/><stop offset="1" stop-opacity="0.18"/></linearGradient><linearGradient id="未命名的渐变_7-2" x1="189.84" y1="742.1" x2="119.97" y2="672.22" xlink:href="#未命名的渐变_7"/></defs><title>android_clock</title><g id="图层_2" data-name="图层 2"><g id="图层_1-2" data-name="图层 1"><g id="图层_2-2" data-name="图层 2-2"><rect class="cls-1" width="192" height="192"/><path class="cls-2" d="M96,190C27.3,190,3,165.7,3,97S27.3,4,96,4s93,24.3,93,93S164.7,190,96,190Z"/><path class="cls-3" d="M96,189C28.1,189,4,164.9,4,97S28.1,5,96,5s92,24.1,92,92S163.9,189,96,189Z"/><path class="cls-4" d="M96,188C28.8,188,5,164.2,5,97S28.8,6,96,6s91,23.8,91,91S163.2,188,96,188Z"/><path class="cls-5" d="M186,97c0,66.7-23.3,90-90,90S6,163.7,6,97,29.3,7,96,7,186,30.3,186,97Z"/><path class="cls-6" d="M186,96c0,66.7-23.3,90-90,90S6,162.7,6,96,29.3,6,96,6,186,29.3,186,96Z"/><path class="cls-7" d="M186,96c0,66.7-23.3,90-90,90S6,162.7,6,96,29.3,6,96,6,186,29.3,186,96Z"/><path class="cls-8" d="M96,6C29.3,6,6,29.3,6,96s23.3,90,90,90,90-23.3,90-90S162.7,6,96,6Zm68.6,158.6C151.2,178,130,184,96,184s-55.2-6-68.6-19.4S8,130,8,96s6-55.2,19.4-68.6S62,8,96,8s55.2,6,68.6,19.4S184,62,184,96,178,151.2,164.6,164.6Z"/><path class="cls-9" d="M160.9,170.5,91.2,100.8,54.9,137.1l48.8,48.8C129.3,185.1,147.9,180.4,160.9,170.5Z"/><circle class="cls-10" cx="96" cy="96" r="58"/><path class="cls-11" d="M91.4,100.9l69.5,69.5C178.8,156.7,186,133.1,186,96c0-5.4-.2-10.6-.5-15.5L148.6,43.6Z"/><path class="cls-12" d="M145.3,146.4a1.14,1.14,0,0,1-.8-.3L93.6,95.2a1.13,1.13,0,0,1,1.6-1.6l50.9,50.9a1.21,1.21,0,0,1,0,1.6A1.14,1.14,0,0,1,145.3,146.4Z"/><path d="M99.2,92.8a4.65,4.65,0,0,1,0,6.4h0a4.65,4.65,0,0,1-6.4,0L61,67.4a4.53,4.53,0,0,1,6.1-6.7h0l.2.2Z"/><path d="M148.5,43.5a3.44,3.44,0,0,1,0,4.8L97.6,99.2a3.39,3.39,0,0,1-4.8-4.8l50.9-50.9A3.44,3.44,0,0,1,148.5,43.5Z"/><circle class="cls-12" cx="96" cy="96" r="6.8"/><circle class="cls-10" cx="96" cy="96" r="4.5"/></g></g></g></svg>