<?xml version="1.0" encoding="UTF-8" standalone="no"?>
<svg
   xmlns:dc="http://purl.org/dc/elements/1.1/"
   xmlns:cc="http://creativecommons.org/ns#"
   xmlns:rdf="http://www.w3.org/1999/02/22-rdf-syntax-ns#"
   xmlns:svg="http://www.w3.org/2000/svg"
   xmlns="http://www.w3.org/2000/svg"
   xmlns:sodipodi="http://sodipodi.sourceforge.net/DTD/sodipodi-0.dtd"
   xmlns:inkscape="http://www.inkscape.org/namespaces/inkscape"
   viewBox="0 0 133.33333 133.33333"
   height="133.33333"
   width="133.33333"
   xml:space="preserve"
   id="svg2"
   version="1.1"
   sodipodi:docname="harbour-situations2application.svg"
   inkscape:version="0.92.2 2405546, 2018-03-11"><sodipodi:namedview
     pagecolor="#ffffff"
     bordercolor="#666666"
     borderopacity="1"
     objecttolerance="10"
     gridtolerance="10"
     guidetolerance="10"
     inkscape:pageopacity="0"
     inkscape:pageshadow="2"
     inkscape:window-width="1366"
     inkscape:window-height="706"
     id="namedview275"
     showgrid="false"
     inkscape:zoom="1.7700001"
     inkscape:cx="66.666664"
     inkscape:cy="66.666664"
     inkscape:window-x="0"
     inkscape:window-y="34"
     inkscape:window-maximized="1"
     inkscape:current-layer="svg2" /><metadata
     id="metadata8"><rdf:RDF><cc:Work
         rdf:about=""><dc:format>image/svg+xml</dc:format><dc:type
           rdf:resource="http://purl.org/dc/dcmitype/StillImage" /></cc:Work></rdf:RDF></metadata><defs
     id="defs6"><clipPath
       id="clipPath18"
       clipPathUnits="userSpaceOnUse"><path
         id="path16"
         d="M 50,100 C 12.956,100 0,87.039 0,50 v 0 C 0,12.961 12.956,0 50,0 v 0 c 37.045,0 50,12.961 50,50 v 0 c 0,37.044 -12.955,50 -50,50 z" /></clipPath><linearGradient
       id="linearGradient32"
       spreadMethod="pad"
       gradientTransform="matrix(77.78125,-77.78125,-77.78125,-77.78125,11.109896,88.891144)"
       gradientUnits="userSpaceOnUse"
       y2="0"
       x2="1"
       y1="0"
       x1="0"><stop
         id="stop24"
         offset="0"
         style="stop-opacity:1;stop-color:#809fbd" /><stop
         id="stop26"
         offset="0.0000006"
         style="stop-opacity:1;stop-color:#809fbd" /><stop
         id="stop28"
         offset="1"
         style="stop-opacity:1;stop-color:#537896" /><stop
         id="stop30"
         offset="1"
         style="stop-opacity:1;stop-color:#537896" /></linearGradient><clipPath
       id="clipPath42"
       clipPathUnits="userSpaceOnUse"><path
         id="path40"
         d="M 0,100 H 100 V 0 H 0 Z" /></clipPath><clipPath
       id="clipPath50"
       clipPathUnits="userSpaceOnUse"><path
         id="path48"
         d="M 33.367,66.627 H 66.633 V 33.373 H 33.367 Z" /></clipPath><clipPath
       id="clipPath66"
       clipPathUnits="userSpaceOnUse"><path
         id="path64"
         d="M 16.1473,83.8527 H 83.8527 V 16.1473 H 16.1473 Z" /></clipPath><clipPath
       id="clipPath94"
       clipPathUnits="userSpaceOnUse"><path
         id="path92"
         d="m 65.89,60.49 c 0.61,-1.31 1.19,-2.76 1.74,-4.35 v 0 c 0.56,-1.6 1,-3.09 1.33,-4.49 v 0 l 4.33,1.5 1.17,-3.38 c 0.57,-1.62 2.79,-1.78 3.59,-0.26 v 0 l 0.83,1.59 -10.321,10.32 z" /></clipPath><clipPath
       id="clipPath102"
       clipPathUnits="userSpaceOnUse"><path
         id="path100"
         d="M -32768,32767 H 32767 V -32768 H -32768 Z" /></clipPath><linearGradient
       id="linearGradient110"
       spreadMethod="pad"
       gradientTransform="matrix(11.63554,-11.63554,-11.63554,-11.63554,65.347534,59.94751)"
       gradientUnits="userSpaceOnUse"
       y2="0"
       x2="1"
       y1="0"
       x1="0"><stop
         id="stop104"
         offset="0"
         style="stop-opacity:0.11999695;stop-color:#ffffff" /><stop
         id="stop106"
         offset="0.00000049"
         style="stop-opacity:0.11999695;stop-color:#ffffff" /><stop
         id="stop108"
         offset="1"
         style="stop-opacity:0;stop-color:#ffffff" /></linearGradient><mask
       id="mask112"
       height="1"
       width="1"
       y="0"
       x="0"
       maskUnits="userSpaceOnUse"><g
         id="g122"><g
           id="g120"
           clip-path="url(#clipPath102)"><g
             id="g118"><g
               id="g116"><path
                 id="path114"
                 style="fill:url(#linearGradient110);stroke:none"
                 d="M -32768,32767 H 32767 V -32768 H -32768 Z" /></g></g></g></g></mask><linearGradient
       id="linearGradient134"
       spreadMethod="pad"
       gradientTransform="matrix(11.63554,-11.63554,-11.63554,-11.63554,65.347534,59.94751)"
       gradientUnits="userSpaceOnUse"
       y2="0"
       x2="1"
       y1="0"
       x1="0"><stop
         id="stop128"
         offset="0"
         style="stop-opacity:1;stop-color:#000000" /><stop
         id="stop130"
         offset="0.00000049"
         style="stop-opacity:1;stop-color:#000000" /><stop
         id="stop132"
         offset="1"
         style="stop-opacity:1;stop-color:#000000" /></linearGradient><clipPath
       id="clipPath144"
       clipPathUnits="userSpaceOnUse"><path
         id="path142"
         d="m 56.139,32.37 c -1.599,-0.56 -3.089,-1 -4.489,-1.33 v 0 l 1.5,-4.33 -3.38,-1.17 c -1.62,-0.57 -1.78,-2.79 -0.26,-3.59 v 0 L 60.2,16.37 c 1,-0.52 2.229,-0.09 2.689,0.94 v 0 L 67.8,28.32 c 0.7,1.57 -0.809,3.211 -2.43,2.65 v 0 l -3.38,-1.18 -1.5,4.32 C 59.18,33.5 57.73,32.92 56.139,32.37" /></clipPath><clipPath
       id="clipPath152"
       clipPathUnits="userSpaceOnUse"><path
         id="path150"
         d="M -32768,32767 H 32767 V -32768 H -32768 Z" /></clipPath><linearGradient
       id="linearGradient160"
       spreadMethod="pad"
       gradientTransform="matrix(12.577103,-12.577103,-12.577103,-12.577103,52.612553,32.002567)"
       gradientUnits="userSpaceOnUse"
       y2="0"
       x2="1"
       y1="0"
       x1="0"><stop
         id="stop154"
         offset="0"
         style="stop-opacity:0.11999695;stop-color:#ffffff" /><stop
         id="stop156"
         offset="0.00000049"
         style="stop-opacity:0.11999695;stop-color:#ffffff" /><stop
         id="stop158"
         offset="1"
         style="stop-opacity:0;stop-color:#ffffff" /></linearGradient><mask
       id="mask162"
       height="1"
       width="1"
       y="0"
       x="0"
       maskUnits="userSpaceOnUse"><g
         id="g172"><g
           id="g170"
           clip-path="url(#clipPath152)"><g
             id="g168"><g
               id="g166"><path
                 id="path164"
                 style="fill:url(#linearGradient160);stroke:none"
                 d="M -32768,32767 H 32767 V -32768 H -32768 Z" /></g></g></g></g></mask><linearGradient
       id="linearGradient184"
       spreadMethod="pad"
       gradientTransform="matrix(12.577103,-12.577103,-12.577103,-12.577103,52.612553,32.002567)"
       gradientUnits="userSpaceOnUse"
       y2="0"
       x2="1"
       y1="0"
       x1="0"><stop
         id="stop178"
         offset="0"
         style="stop-opacity:1;stop-color:#000000" /><stop
         id="stop180"
         offset="0.00000049"
         style="stop-opacity:1;stop-color:#000000" /><stop
         id="stop182"
         offset="1"
         style="stop-opacity:1;stop-color:#000000" /></linearGradient><clipPath
       id="clipPath194"
       clipPathUnits="userSpaceOnUse"><path
         id="path192"
         d="M 0,100 H 100 V 0 H 0 Z" /></clipPath><clipPath
       id="clipPath206"
       clipPathUnits="userSpaceOnUse"><path
         id="path204"
         d="m 25.129,50.92 c -0.019,0.02 -0.039,0.04 -0.059,0.06 v 0 z m 0.411,-0.69 1.17,-3.38 1.84,0.64 -3.421,3.43 c 0.173,-0.183 0.313,-0.42 0.411,-0.69" /></clipPath><clipPath
       id="clipPath214"
       clipPathUnits="userSpaceOnUse"><path
         id="path212"
         d="M -32768,32767 H 32767 V -32768 H -32768 Z" /></clipPath><linearGradient
       id="linearGradient222"
       spreadMethod="pad"
       gradientTransform="matrix(3.4850159,-3.4850159,-3.4850159,-3.4850159,24.447681,50.357716)"
       gradientUnits="userSpaceOnUse"
       y2="0"
       x2="1"
       y1="0"
       x1="0"><stop
         id="stop216"
         offset="0"
         style="stop-opacity:0.11999695;stop-color:#ffffff" /><stop
         id="stop218"
         offset="0.00000049"
         style="stop-opacity:0.11999695;stop-color:#ffffff" /><stop
         id="stop220"
         offset="1"
         style="stop-opacity:0;stop-color:#ffffff" /></linearGradient><mask
       id="mask224"
       height="1"
       width="1"
       y="0"
       x="0"
       maskUnits="userSpaceOnUse"><g
         id="g234"><g
           id="g232"
           clip-path="url(#clipPath214)"><g
             id="g230"><g
               id="g228"><path
                 id="path226"
                 style="fill:url(#linearGradient222);stroke:none"
                 d="M -32768,32767 H 32767 V -32768 H -32768 Z" /></g></g></g></g></mask><linearGradient
       id="linearGradient246"
       spreadMethod="pad"
       gradientTransform="matrix(3.4850159,-3.4850159,-3.4850159,-3.4850159,24.447681,50.357716)"
       gradientUnits="userSpaceOnUse"
       y2="0"
       x2="1"
       y1="0"
       x1="0"><stop
         id="stop240"
         offset="0"
         style="stop-opacity:1;stop-color:#000000" /><stop
         id="stop242"
         offset="0.00000049"
         style="stop-opacity:1;stop-color:#000000" /><stop
         id="stop244"
         offset="1"
         style="stop-opacity:1;stop-color:#000000" /></linearGradient><clipPath
       id="clipPath256"
       clipPathUnits="userSpaceOnUse"><path
         id="path254"
         d="m 39.14,66.95 h 0.01 l -1.14,3.26 z" /></clipPath><clipPath
       id="clipPath264"
       clipPathUnits="userSpaceOnUse"><path
         id="path262"
         d="M -32768,32767 H 32767 V -32768 H -32768 Z" /></clipPath><linearGradient
       id="linearGradient272"
       spreadMethod="pad"
       gradientTransform="matrix(2.2000122,-2.2000122,-2.2000122,-2.2000122,37.477508,69.677521)"
       gradientUnits="userSpaceOnUse"
       y2="0"
       x2="1"
       y1="0"
       x1="0"><stop
         id="stop266"
         offset="0"
         style="stop-opacity:0.11999695;stop-color:#ffffff" /><stop
         id="stop268"
         offset="0.00000049"
         style="stop-opacity:0.11999695;stop-color:#ffffff" /><stop
         id="stop270"
         offset="1"
         style="stop-opacity:0;stop-color:#ffffff" /></linearGradient><mask
       id="mask274"
       height="1"
       width="1"
       y="0"
       x="0"
       maskUnits="userSpaceOnUse"><g
         id="g284"><g
           id="g282"
           clip-path="url(#clipPath264)"><g
             id="g280"><g
               id="g278"><path
                 id="path276"
                 style="fill:url(#linearGradient272);stroke:none"
                 d="M -32768,32767 H 32767 V -32768 H -32768 Z" /></g></g></g></g></mask><linearGradient
       id="linearGradient296"
       spreadMethod="pad"
       gradientTransform="matrix(2.2000122,-2.2000122,-2.2000122,-2.2000122,37.477508,69.677521)"
       gradientUnits="userSpaceOnUse"
       y2="0"
       x2="1"
       y1="0"
       x1="0"><stop
         id="stop290"
         offset="0"
         style="stop-opacity:1;stop-color:#000000" /><stop
         id="stop292"
         offset="0.00000049"
         style="stop-opacity:1;stop-color:#000000" /><stop
         id="stop294"
         offset="1"
         style="stop-opacity:1;stop-color:#000000" /></linearGradient><clipPath
       id="clipPath306"
       clipPathUnits="userSpaceOnUse"><path
         id="path304"
         d="m 50.23,74.46 -3.38,-1.17 1.14,-3.27 c 0.08,0.02 0.18,0.05 0.27,0.07 v 0 c 4.23,0.979 7.66,0.96 10.509,-0.19 v 0 L 51,77.67 c 0.941,-0.97 0.639,-2.71 -0.77,-3.21" /></clipPath><clipPath
       id="clipPath314"
       clipPathUnits="userSpaceOnUse"><path
         id="path312"
         d="M -32768,32767 H 32767 V -32768 H -32768 Z" /></clipPath><linearGradient
       id="linearGradient322"
       spreadMethod="pad"
       gradientTransform="matrix(7.7700195,-7.7700195,-7.7700195,-7.7700195,48.334991,75.005035)"
       gradientUnits="userSpaceOnUse"
       y2="0"
       x2="1"
       y1="0"
       x1="0"><stop
         id="stop316"
         offset="0"
         style="stop-opacity:0.11999695;stop-color:#ffffff" /><stop
         id="stop318"
         offset="0.00000049"
         style="stop-opacity:0.11999695;stop-color:#ffffff" /><stop
         id="stop320"
         offset="1"
         style="stop-opacity:0;stop-color:#ffffff" /></linearGradient><mask
       id="mask324"
       height="1"
       width="1"
       y="0"
       x="0"
       maskUnits="userSpaceOnUse"><g
         id="g334"><g
           id="g332"
           clip-path="url(#clipPath314)"><g
             id="g330"><g
               id="g328"><path
                 id="path326"
                 style="fill:url(#linearGradient322);stroke:none"
                 d="M -32768,32767 H 32767 V -32768 H -32768 Z" /></g></g></g></g></mask><linearGradient
       id="linearGradient346"
       spreadMethod="pad"
       gradientTransform="matrix(7.7700195,-7.7700195,-7.7700195,-7.7700195,48.334991,75.005035)"
       gradientUnits="userSpaceOnUse"
       y2="0"
       x2="1"
       y1="0"
       x1="0"><stop
         id="stop340"
         offset="0"
         style="stop-opacity:1;stop-color:#000000" /><stop
         id="stop342"
         offset="0.00000049"
         style="stop-opacity:1;stop-color:#000000" /><stop
         id="stop344"
         offset="1"
         style="stop-opacity:1;stop-color:#000000" /></linearGradient><clipPath
       id="clipPath356"
       clipPathUnits="userSpaceOnUse"><path
         id="path354"
         d="m 62.79,67.18 c 0.03,-0.03 0.06,-0.06 0.09,-0.09 v 0 l -0.08,0.09 z" /></clipPath><clipPath
       id="clipPath364"
       clipPathUnits="userSpaceOnUse"><path
         id="path362"
         d="M -32768,32767 H 32767 V -32768 H -32768 Z" /></clipPath><linearGradient
       id="linearGradient372"
       spreadMethod="pad"
       gradientTransform="matrix(0.0899963,-0.0899963,-0.0899963,-0.0899963,62.792481,67.182495)"
       gradientUnits="userSpaceOnUse"
       y2="0"
       x2="1"
       y1="0"
       x1="0"><stop
         id="stop366"
         offset="0"
         style="stop-opacity:0.11999695;stop-color:#ffffff" /><stop
         id="stop368"
         offset="0.00000049"
         style="stop-opacity:0.11999695;stop-color:#ffffff" /><stop
         id="stop370"
         offset="1"
         style="stop-opacity:0;stop-color:#ffffff" /></linearGradient><mask
       id="mask374"
       height="1"
       width="1"
       y="0"
       x="0"
       maskUnits="userSpaceOnUse"><g
         id="g384"><g
           id="g382"
           clip-path="url(#clipPath364)"><g
             id="g380"><g
               id="g378"><path
                 id="path376"
                 style="fill:url(#linearGradient372);stroke:none"
                 d="M -32768,32767 H 32767 V -32768 H -32768 Z" /></g></g></g></g></mask><linearGradient
       id="linearGradient396"
       spreadMethod="pad"
       gradientTransform="matrix(0.0899963,-0.0899963,-0.0899963,-0.0899963,62.792481,67.182495)"
       gradientUnits="userSpaceOnUse"
       y2="0"
       x2="1"
       y1="0"
       x1="0"><stop
         id="stop390"
         offset="0"
         style="stop-opacity:1;stop-color:#000000" /><stop
         id="stop392"
         offset="0.00000049"
         style="stop-opacity:1;stop-color:#000000" /><stop
         id="stop394"
         offset="1"
         style="stop-opacity:1;stop-color:#000000" /></linearGradient><clipPath
       id="clipPath406"
       clipPathUnits="userSpaceOnUse"><path
         id="path404"
         d="m 66.83,61.11 c 0.04,-0.08 0.081,-0.17 0.12,-0.26 v 0 l 1.609,0.561 -5.679,5.679 c 1.47,-1.5 2.77,-3.49 3.95,-5.98" /></clipPath><clipPath
       id="clipPath414"
       clipPathUnits="userSpaceOnUse"><path
         id="path412"
         d="M -32768,32767 H 32767 V -32768 H -32768 Z" /></clipPath><linearGradient
       id="linearGradient422"
       spreadMethod="pad"
       gradientTransform="matrix(5.6799922,-5.6799922,-5.6799922,-5.6799922,62.337509,66.547531)"
       gradientUnits="userSpaceOnUse"
       y2="0"
       x2="1"
       y1="0"
       x1="0"><stop
         id="stop416"
         offset="0"
         style="stop-opacity:0.11999695;stop-color:#ffffff" /><stop
         id="stop418"
         offset="0.00000049"
         style="stop-opacity:0.11999695;stop-color:#ffffff" /><stop
         id="stop420"
         offset="1"
         style="stop-opacity:0;stop-color:#ffffff" /></linearGradient><mask
       id="mask424"
       height="1"
       width="1"
       y="0"
       x="0"
       maskUnits="userSpaceOnUse"><g
         id="g434"><g
           id="g432"
           clip-path="url(#clipPath414)"><g
             id="g430"><g
               id="g428"><path
                 id="path426"
                 style="fill:url(#linearGradient422);stroke:none"
                 d="M -32768,32767 H 32767 V -32768 H -32768 Z" /></g></g></g></g></mask><linearGradient
       id="linearGradient446"
       spreadMethod="pad"
       gradientTransform="matrix(5.6799922,-5.6799922,-5.6799922,-5.6799922,62.337509,66.547531)"
       gradientUnits="userSpaceOnUse"
       y2="0"
       x2="1"
       y1="0"
       x1="0"><stop
         id="stop440"
         offset="0"
         style="stop-opacity:1;stop-color:#000000" /><stop
         id="stop442"
         offset="0.00000049"
         style="stop-opacity:1;stop-color:#000000" /><stop
         id="stop444"
         offset="1"
         style="stop-opacity:1;stop-color:#000000" /></linearGradient><clipPath
       id="clipPath456"
       clipPathUnits="userSpaceOnUse"><path
         id="path454"
         d="m 83.23,62.53 c 0.051,-0.05 0.1,-0.1 0.15,-0.15 v 0 l -0.14,0.15 z" /></clipPath><clipPath
       id="clipPath464"
       clipPathUnits="userSpaceOnUse"><path
         id="path462"
         d="M -32768,32767 H 32767 V -32768 H -32768 Z" /></clipPath><linearGradient
       id="linearGradient472"
       spreadMethod="pad"
       gradientTransform="matrix(0.1500244,-0.1500244,-0.1500244,-0.1500244,83.232483,62.532532)"
       gradientUnits="userSpaceOnUse"
       y2="0"
       x2="1"
       y1="0"
       x1="0"><stop
         id="stop466"
         offset="0"
         style="stop-opacity:0.11999695;stop-color:#ffffff" /><stop
         id="stop468"
         offset="0.00000049"
         style="stop-opacity:0.11999695;stop-color:#ffffff" /><stop
         id="stop470"
         offset="1"
         style="stop-opacity:0;stop-color:#ffffff" /></linearGradient><mask
       id="mask474"
       height="1"
       width="1"
       y="0"
       x="0"
       maskUnits="userSpaceOnUse"><g
         id="g484"><g
           id="g482"
           clip-path="url(#clipPath464)"><g
             id="g480"><g
               id="g478"><path
                 id="path476"
                 style="fill:url(#linearGradient472);stroke:none"
                 d="M -32768,32767 H 32767 V -32768 H -32768 Z" /></g></g></g></g></mask><linearGradient
       id="linearGradient496"
       spreadMethod="pad"
       gradientTransform="matrix(0.1500244,-0.1500244,-0.1500244,-0.1500244,83.232483,62.532532)"
       gradientUnits="userSpaceOnUse"
       y2="0"
       x2="1"
       y1="0"
       x1="0"><stop
         id="stop490"
         offset="0"
         style="stop-opacity:1;stop-color:#000000" /><stop
         id="stop492"
         offset="0.00000049"
         style="stop-opacity:1;stop-color:#000000" /><stop
         id="stop494"
         offset="1"
         style="stop-opacity:1;stop-color:#000000" /></linearGradient><clipPath
       id="clipPath506"
       clipPathUnits="userSpaceOnUse"><path
         id="path504"
         d="M 83.63,60.2 78.05,49.51 c -0.8,-1.52 -3.02,-1.36 -3.59,0.26 v 0 l -1.17,3.38 -3.271,-1.14 c 0.021,-0.08 0.051,-0.18 0.071,-0.27 v 0 C 72.22,42.58 69.611,37.201 61.11,33.169 v 0 C 61.03,33.13 60.941,33.089 60.85,33.05 v 0 l 1.14,-3.26 3.38,1.18 c 1.621,0.561 3.13,-1.08 2.43,-2.65 v 0 L 62.889,17.31 C 62.429,16.28 61.2,15.85 60.2,16.37 v 0 l -10.69,5.58 c -1.52,0.8 -1.36,3.02 0.26,3.59 v 0 l 3.38,1.17 -1.14,3.271 C 51.93,29.96 51.83,29.93 51.74,29.911 v 0 C 42.58,27.78 37.201,30.389 33.169,38.89 v 0 c -0.039,0.08 -0.08,0.17 -0.119,0.26 v 0 l -3.26,-1.14 1.17,-3.38 C 31.531,33.01 29.89,31.5 28.319,32.2 v 0 L 17.31,37.111 c -0.18,0.08 -0.35,0.189 -0.49,0.309 v 0 L 54.169,0.066 c 32.486,0.937 44.827,13.285 45.765,45.765 v 0 L 83.38,62.38 c 0.5,-0.59 0.63,-1.45 0.25,-2.18" /></clipPath><clipPath
       id="clipPath514"
       clipPathUnits="userSpaceOnUse"><path
         id="path512"
         d="M -32768,32767 H 32767 V -32768 H -32768 Z" /></clipPath><linearGradient
       id="linearGradient522"
       spreadMethod="pad"
       gradientTransform="matrix(49.180874,-49.180874,-49.180874,-49.180874,39.699951,60.299988)"
       gradientUnits="userSpaceOnUse"
       y2="0"
       x2="1"
       y1="0"
       x1="0"><stop
         id="stop516"
         offset="0"
         style="stop-opacity:0.11999695;stop-color:#ffffff" /><stop
         id="stop518"
         offset="0.00000049"
         style="stop-opacity:0.11999695;stop-color:#ffffff" /><stop
         id="stop520"
         offset="1"
         style="stop-opacity:0;stop-color:#ffffff" /></linearGradient><mask
       id="mask524"
       height="1"
       width="1"
       y="0"
       x="0"
       maskUnits="userSpaceOnUse"><g
         id="g534"><g
           id="g532"
           clip-path="url(#clipPath514)"><g
             id="g530"><g
               id="g528"><path
                 id="path526"
                 style="fill:url(#linearGradient522);stroke:none"
                 d="M -32768,32767 H 32767 V -32768 H -32768 Z" /></g></g></g></g></mask><linearGradient
       id="linearGradient546"
       spreadMethod="pad"
       gradientTransform="matrix(49.180874,-49.180874,-49.180874,-49.180874,39.699951,60.299988)"
       gradientUnits="userSpaceOnUse"
       y2="0"
       x2="1"
       y1="0"
       x1="0"><stop
         id="stop540"
         offset="0"
         style="stop-opacity:1;stop-color:#000000" /><stop
         id="stop542"
         offset="0.00000049"
         style="stop-opacity:1;stop-color:#000000" /><stop
         id="stop544"
         offset="1"
         style="stop-opacity:1;stop-color:#000000" /></linearGradient></defs><g
     transform="matrix(1.25,0,0,-1.25,4,129.33333)"
     id="g10"><g
       id="g12"><g
         clip-path="url(#clipPath18)"
         id="g14"><g
           id="g20"><g
             id="g22"><path
               id="path34"
               style="fill:url(#linearGradient32);stroke:none"
               d="M 50,100 C 12.956,100 0,87.039 0,50 v 0 C 0,12.961 12.956,0 50,0 v 0 c 37.045,0 50,12.961 50,50 v 0 c 0,37.044 -12.955,50 -50,50 z"
               inkscape:connector-curvature="0" /></g></g></g></g><g
       id="g36"><g
         clip-path="url(#clipPath42)"
         id="g38"><g
           id="g44"><g
             id="g46" /><g
             id="g58"><g
               style="opacity:0.30000299"
               id="g56"
               clip-path="url(#clipPath50)"><g
                 id="g54"
                 transform="translate(46.4556,33.373)"><path
                   id="path52"
                   style="fill:#ffffff;fill-opacity:1;fill-rule:nonzero;stroke:none"
                   d="m 0,0 c -4.343,0 -7.133,2.151 -9.63,7.425 -0.548,1.166 -1.096,2.531 -1.624,4.051 -0.529,1.516 -0.947,2.926 -1.244,4.191 -1.68,7.247 0.109,10.947 6.84,14.134 1.166,0.548 2.531,1.096 4.051,1.625 1.521,0.53 2.931,0.948 4.19,1.243 1.672,0.388 3.19,0.585 4.505,0.585 4.344,0 7.134,-2.151 9.63,-7.425 0.549,-1.166 1.096,-2.532 1.625,-4.05 0.531,-1.525 0.949,-2.934 1.243,-4.191 C 21.267,10.34 19.477,6.639 12.747,3.453 11.58,2.904 10.214,2.357 8.696,1.828 7.172,1.298 5.762,0.88 4.505,0.585 2.833,0.197 1.315,0 0,0"
                   inkscape:connector-curvature="0" /></g></g></g></g><g
           id="g60"><g
             id="g62" /><g
             id="g86"><g
               style="opacity:0.39999402"
               id="g84"
               clip-path="url(#clipPath66)"><g
                 id="g70"
                 transform="translate(50.2271,74.4644)"><path
                   id="path68"
                   style="fill:#ffffff;fill-opacity:1;fill-rule:nonzero;stroke:none"
                   d="m 0,0 -3.379,-1.176 1.506,-4.325 c -1.4,-0.329 -2.896,-0.775 -4.492,-1.331 -1.596,-0.556 -3.047,-1.135 -4.348,-1.747 l -1.505,4.326 -3.379,-1.176 c -1.618,-0.564 -3.128,1.078 -2.43,2.643 l 4.91,11.014 c 0.459,1.03 1.692,1.46 2.692,0.938 L 0.263,3.582 C 1.782,2.788 1.618,0.563 0,0"
                   inkscape:connector-curvature="0" /></g><g
                 id="g74"
                 transform="translate(74.4648,49.7734)"><path
                   id="path72"
                   style="fill:#ffffff;fill-opacity:1;fill-rule:nonzero;stroke:none"
                   d="M 0,0 -1.177,3.378 -5.502,1.873 c -0.328,1.399 -0.775,2.896 -1.331,4.492 -0.556,1.596 -1.135,3.046 -1.746,4.347 l 4.325,1.506 -1.176,3.379 c -0.563,1.618 1.079,3.127 2.644,2.429 L 8.228,13.117 c 1.03,-0.459 1.46,-1.693 0.937,-2.693 L 3.581,-0.263 C 2.787,-1.782 0.563,-1.618 0,0"
                   inkscape:connector-curvature="0" /></g><g
                 id="g78"
                 transform="translate(67.7998,28.3213)"><path
                   id="path76"
                   style="fill:#ffffff;fill-opacity:1;fill-rule:nonzero;stroke:none"
                   d="m 0,0 -4.909,-11.014 c -0.46,-1.03 -1.694,-1.46 -2.694,-0.937 l -10.687,5.584 c -1.518,0.794 -1.355,3.017 0.263,3.581 l 3.379,1.177 -1.506,4.325 c 1.4,0.328 2.896,0.775 4.492,1.331 1.597,0.556 3.047,1.135 4.348,1.746 L -5.809,1.468 -2.43,2.644 C -0.812,3.207 0.697,1.565 0,0"
                   inkscape:connector-curvature="0" /></g><g
                 id="g82"
                 transform="translate(32.3677,43.8623)"><path
                   id="path80"
                   style="fill:#ffffff;fill-opacity:1;fill-rule:nonzero;stroke:none"
                   d="m 0,0 c 0.556,-1.597 1.135,-3.047 1.747,-4.348 l -4.326,-1.506 1.176,-3.378 c 0.564,-1.619 -1.078,-3.127 -2.644,-2.43 l -11.013,4.909 c -1.03,0.46 -1.46,1.693 -0.938,2.693 l 5.584,10.687 c 0.794,1.519 3.018,1.356 3.582,-0.262 l 1.176,-3.379 4.325,1.506 C -1.002,3.092 -0.556,1.596 0,0"
                   inkscape:connector-curvature="0" /></g></g></g></g></g></g><g
       id="g88"><g
         clip-path="url(#clipPath94)"
         id="g90"><g
           id="g96"><g
             id="g98" /><g
             mask="url(#mask112)"
             id="g124"><g
               id="g126"><path
                 id="path136"
                 style="fill:url(#linearGradient134);stroke:none"
                 d="m 65.89,60.49 c 0.61,-1.31 1.19,-2.76 1.74,-4.35 v 0 c 0.56,-1.6 1,-3.09 1.33,-4.49 v 0 l 4.33,1.5 1.17,-3.38 c 0.57,-1.62 2.79,-1.78 3.59,-0.26 v 0 l 0.83,1.59 -10.321,10.32 z"
                 inkscape:connector-curvature="0" /></g></g></g></g></g><g
       id="g138"><g
         clip-path="url(#clipPath144)"
         id="g140"><g
           id="g146"><g
             id="g148" /><g
             mask="url(#mask162)"
             id="g174"><g
               id="g176"><path
                 id="path186"
                 style="fill:url(#linearGradient184);stroke:none"
                 d="m 56.139,32.37 c -1.599,-0.56 -3.089,-1 -4.489,-1.33 v 0 l 1.5,-4.33 -3.38,-1.17 c -1.62,-0.57 -1.78,-2.79 -0.26,-3.59 v 0 L 60.2,16.37 c 1,-0.52 2.229,-0.09 2.689,0.94 v 0 L 67.8,28.32 c 0.7,1.57 -0.809,3.211 -2.43,2.65 v 0 l -3.38,-1.18 -1.5,4.32 C 59.18,33.5 57.73,32.92 56.139,32.37"
                 inkscape:connector-curvature="0" /></g></g></g></g></g><g
       id="g188"><g
         clip-path="url(#clipPath194)"
         id="g190"><g
           transform="translate(59.2021,36.8262)"
           id="g196"><path
             id="path198"
             style="fill:#ffffff;fill-opacity:1;fill-rule:nonzero;stroke:none"
             d="m 0,0 c -1.167,-0.549 -2.532,-1.096 -4.051,-1.625 -1.523,-0.53 -2.933,-0.948 -4.19,-1.243 -1.672,-0.388 -3.191,-0.585 -4.506,-0.585 -4.343,0 -7.132,2.151 -9.629,7.425 -0.549,1.166 -1.096,2.531 -1.625,4.05 -0.528,1.517 -0.947,2.927 -1.243,4.192 -1.681,7.246 0.109,10.947 6.84,14.134 1.165,0.548 2.53,1.096 4.05,1.625 1.521,0.529 2.931,0.948 4.19,1.243 1.672,0.388 3.19,0.585 4.506,0.585 4.344,0 7.134,-2.151 9.63,-7.425 0.549,-1.167 1.095,-2.532 1.625,-4.05 C 6.127,16.801 6.546,15.392 6.84,14.135 8.521,6.887 6.73,3.186 0,0 m 10.889,14.917 c -0.348,1.484 -0.822,3.069 -1.41,4.76 -0.589,1.691 -1.203,3.227 -1.85,4.606 -4.026,8.505 -9.409,11.107 -18.575,8.982 -1.483,-0.348 -3.068,-0.822 -4.76,-1.41 -1.69,-0.589 -3.227,-1.202 -4.606,-1.851 -8.504,-4.026 -11.106,-9.408 -8.981,-18.574 0.348,-1.483 0.821,-3.069 1.41,-4.759 0.589,-1.692 1.202,-3.228 1.85,-4.607 4.027,-8.503 9.408,-11.106 18.575,-8.981 1.482,0.348 3.068,0.821 4.759,1.41 1.691,0.589 3.227,1.202 4.606,1.85 8.504,4.026 11.107,9.409 8.982,18.574"
             inkscape:connector-curvature="0" /></g></g></g><g
       id="g200"><g
         clip-path="url(#clipPath206)"
         id="g202"><g
           id="g208"><g
             id="g210" /><g
             mask="url(#mask224)"
             id="g236"><g
               id="g238"><path
                 id="path248"
                 style="fill:url(#linearGradient246);stroke:none"
                 d="m 25.129,50.92 c -0.019,0.02 -0.039,0.04 -0.059,0.06 v 0 z m 0.411,-0.69 1.17,-3.38 1.84,0.64 -3.421,3.43 c 0.173,-0.183 0.313,-0.42 0.411,-0.69"
                 inkscape:connector-curvature="0" /></g></g></g></g></g><g
       id="g250"><g
         clip-path="url(#clipPath256)"
         id="g252"><g
           id="g258"><g
             id="g260" /><g
             mask="url(#mask274)"
             id="g286"><g
               id="g288"><path
                 id="path298"
                 style="fill:url(#linearGradient296);stroke:none"
                 d="m 39.14,66.95 h 0.01 l -1.14,3.26 z"
                 inkscape:connector-curvature="0" /></g></g></g></g></g><g
       id="g300"><g
         clip-path="url(#clipPath306)"
         id="g302"><g
           id="g308"><g
             id="g310" /><g
             mask="url(#mask324)"
             id="g336"><g
               id="g338"><path
                 id="path348"
                 style="fill:url(#linearGradient346);stroke:none"
                 d="m 50.23,74.46 -3.38,-1.17 1.14,-3.27 c 0.08,0.02 0.18,0.05 0.27,0.07 v 0 c 4.23,0.979 7.66,0.96 10.509,-0.19 v 0 L 51,77.67 c 0.941,-0.97 0.639,-2.71 -0.77,-3.21"
                 inkscape:connector-curvature="0" /></g></g></g></g></g><g
       id="g350"><g
         clip-path="url(#clipPath356)"
         id="g352"><g
           id="g358"><g
             id="g360" /><g
             mask="url(#mask374)"
             id="g386"><g
               id="g388"><path
                 id="path398"
                 style="fill:url(#linearGradient396);stroke:none"
                 d="m 62.79,67.18 c 0.03,-0.03 0.06,-0.06 0.09,-0.09 v 0 l -0.08,0.09 z"
                 inkscape:connector-curvature="0" /></g></g></g></g></g><g
       id="g400"><g
         clip-path="url(#clipPath406)"
         id="g402"><g
           id="g408"><g
             id="g410" /><g
             mask="url(#mask424)"
             id="g436"><g
               id="g438"><path
                 id="path448"
                 style="fill:url(#linearGradient446);stroke:none"
                 d="m 66.83,61.11 c 0.04,-0.08 0.081,-0.17 0.12,-0.26 v 0 l 1.609,0.561 -5.679,5.679 c 1.47,-1.5 2.77,-3.49 3.95,-5.98"
                 inkscape:connector-curvature="0" /></g></g></g></g></g><g
       id="g450"><g
         clip-path="url(#clipPath456)"
         id="g452"><g
           id="g458"><g
             id="g460" /><g
             mask="url(#mask474)"
             id="g486"><g
               id="g488"><path
                 id="path498"
                 style="fill:url(#linearGradient496);stroke:none"
                 d="m 83.23,62.53 c 0.051,-0.05 0.1,-0.1 0.15,-0.15 v 0 l -0.14,0.15 z"
                 inkscape:connector-curvature="0" /></g></g></g></g></g><g
       id="g500"><g
         clip-path="url(#clipPath506)"
         id="g502"><g
           id="g508"><g
             id="g510" /><g
             mask="url(#mask524)"
             id="g536"><g
               id="g538"><path
                 id="path548"
                 style="fill:url(#linearGradient546);stroke:none"
                 d="M 83.63,60.2 78.05,49.51 c -0.8,-1.52 -3.02,-1.36 -3.59,0.26 v 0 l -1.17,3.38 -3.271,-1.14 c 0.021,-0.08 0.051,-0.18 0.071,-0.27 v 0 C 72.22,42.58 69.611,37.201 61.11,33.169 v 0 C 61.03,33.13 60.941,33.089 60.85,33.05 v 0 l 1.14,-3.26 3.38,1.18 c 1.621,0.561 3.13,-1.08 2.43,-2.65 v 0 L 62.889,17.31 C 62.429,16.28 61.2,15.85 60.2,16.37 v 0 l -10.69,5.58 c -1.52,0.8 -1.36,3.02 0.26,3.59 v 0 l 3.38,1.17 -1.14,3.271 C 51.93,29.96 51.83,29.93 51.74,29.911 v 0 C 42.58,27.78 37.201,30.389 33.169,38.89 v 0 c -0.039,0.08 -0.08,0.17 -0.119,0.26 v 0 l -3.26,-1.14 1.17,-3.38 C 31.531,33.01 29.89,31.5 28.319,32.2 v 0 L 17.31,37.111 c -0.18,0.08 -0.35,0.189 -0.49,0.309 v 0 L 54.169,0.066 c 32.486,0.937 44.827,13.285 45.765,45.765 v 0 L 83.38,62.38 c 0.5,-0.59 0.63,-1.45 0.25,-2.18"
                 inkscape:connector-curvature="0" /></g></g></g></g></g></g></svg>