<?xml version="1.0" encoding="UTF-8" standalone="no"?>
<svg
   xmlns:dc="http://purl.org/dc/elements/1.1/"
   xmlns:cc="http://creativecommons.org/ns#"
   xmlns:rdf="http://www.w3.org/1999/02/22-rdf-syntax-ns#"
   xmlns:svg="http://www.w3.org/2000/svg"
   xmlns="http://www.w3.org/2000/svg"
   xmlns:sodipodi="http://sodipodi.sourceforge.net/DTD/sodipodi-0.dtd"
   xmlns:inkscape="http://www.inkscape.org/namespaces/inkscape"
   viewBox="0 0 133.33333 133.33333"
   height="133.33333"
   width="133.33333"
   xml:space="preserve"
   id="svg2"
   version="1.1"
   sodipodi:docname="harbour-mashka.svg"
   inkscape:version="0.92.2 2405546, 2018-03-11"><sodipodi:namedview
     pagecolor="#ffffff"
     bordercolor="#666666"
     borderopacity="1"
     objecttolerance="10"
     gridtolerance="10"
     guidetolerance="10"
     inkscape:pageopacity="0"
     inkscape:pageshadow="2"
     inkscape:window-width="1366"
     inkscape:window-height="706"
     id="namedview47"
     showgrid="false"
     inkscape:zoom="1.7700001"
     inkscape:cx="66.666664"
     inkscape:cy="66.666664"
     inkscape:window-x="0"
     inkscape:window-y="34"
     inkscape:window-maximized="1"
     inkscape:current-layer="svg2" /><metadata
     id="metadata8"><rdf:RDF><cc:Work
         rdf:about=""><dc:format>image/svg+xml</dc:format><dc:type
           rdf:resource="http://purl.org/dc/dcmitype/StillImage" /></cc:Work></rdf:RDF></metadata><defs
     id="defs6"><clipPath
       id="clipPath18"
       clipPathUnits="userSpaceOnUse"><path
         id="path16"
         d="M 50,100 C 12.956,100 0,87.039 0,50 v 0 C 0,12.961 12.956,0 50,0 v 0 c 37.045,0 50,12.961 50,50 v 0 c 0,37.044 -12.955,50 -50,50 z" /></clipPath><linearGradient
       id="linearGradient28"
       spreadMethod="pad"
       gradientTransform="matrix(77.78125,-77.78125,-77.78125,-77.78125,11.109896,88.891144)"
       gradientUnits="userSpaceOnUse"
       y2="0"
       x2="1"
       y1="0"
       x1="0"><stop
         id="stop24"
         offset="0"
         style="stop-opacity:1;stop-color:#91afe3" /><stop
         id="stop26"
         offset="1"
         style="stop-opacity:1;stop-color:#454580" /></linearGradient><clipPath
       id="clipPath38"
       clipPathUnits="userSpaceOnUse"><path
         id="path36"
         d="M 46.703,46.703 20.853,20.852 41.432,0.275 C 44.137,0.095 46.981,0 50,0 v 0 c 37.045,0 50,12.961 50,50 v 0 c 0,2.994 -0.095,5.814 -0.269,8.498 v 0 L 79.115,79.115 Z" /></clipPath><clipPath
       id="clipPath46"
       clipPathUnits="userSpaceOnUse"><path
         id="path44"
         d="M -32768,32767 H 32767 V -32768 H -32768 Z" /></clipPath><linearGradient
       id="linearGradient54"
       spreadMethod="pad"
       gradientTransform="matrix(38.890652,-38.890652,-38.890652,-38.890652,49.983658,49.983719)"
       gradientUnits="userSpaceOnUse"
       y2="0"
       x2="1"
       y1="0"
       x1="0"><stop
         id="stop48"
         offset="0"
         style="stop-opacity:0.11999695;stop-color:#ffffff" /><stop
         id="stop50"
         offset="0.00000039"
         style="stop-opacity:0.11999695;stop-color:#ffffff" /><stop
         id="stop52"
         offset="1"
         style="stop-opacity:0;stop-color:#ffffff" /></linearGradient><mask
       id="mask56"
       height="1"
       width="1"
       y="0"
       x="0"
       maskUnits="userSpaceOnUse"><g
         id="g66"><g
           id="g64"
           clip-path="url(#clipPath46)"><g
             id="g62"><g
               id="g60"><path
                 id="path58"
                 style="fill:url(#linearGradient54);stroke:none"
                 d="M -32768,32767 H 32767 V -32768 H -32768 Z" /></g></g></g></g></mask><linearGradient
       id="linearGradient78"
       spreadMethod="pad"
       gradientTransform="matrix(38.890652,-38.890652,-38.890652,-38.890652,49.983658,49.983719)"
       gradientUnits="userSpaceOnUse"
       y2="0"
       x2="1"
       y1="0"
       x1="0"><stop
         id="stop72"
         offset="0"
         style="stop-opacity:1;stop-color:#000000" /><stop
         id="stop74"
         offset="0.00000039"
         style="stop-opacity:1;stop-color:#000000" /><stop
         id="stop76"
         offset="1"
         style="stop-opacity:1;stop-color:#000000" /></linearGradient><clipPath
       id="clipPath88"
       clipPathUnits="userSpaceOnUse"><path
         id="path86"
         d="M 0,100 H 100 V 0 H 0 Z" /></clipPath></defs><g
     transform="matrix(1.25,0,0,-1.25,4,129.33333)"
     id="g10"><g
       id="g12"><g
         clip-path="url(#clipPath18)"
         id="g14"><g
           id="g20"><g
             id="g22"><path
               id="path30"
               style="fill:url(#linearGradient28);stroke:none"
               d="M 50,100 C 12.956,100 0,87.039 0,50 v 0 C 0,12.961 12.956,0 50,0 v 0 c 37.045,0 50,12.961 50,50 v 0 c 0,37.044 -12.955,50 -50,50 z"
               inkscape:connector-curvature="0" /></g></g></g></g><g
       id="g32"><g
         clip-path="url(#clipPath38)"
         id="g34"><g
           id="g40"><g
             id="g42" /><g
             mask="url(#mask56)"
             id="g68"><g
               id="g70"><path
                 id="path80"
                 style="fill:url(#linearGradient78);stroke:none"
                 d="M 46.703,46.703 20.853,20.852 41.432,0.275 C 44.137,0.095 46.981,0 50,0 v 0 c 37.045,0 50,12.961 50,50 v 0 c 0,2.994 -0.095,5.814 -0.269,8.498 v 0 L 79.115,79.115 Z"
                 inkscape:connector-curvature="0" /></g></g></g></g></g><g
       id="g82"><g
         clip-path="url(#clipPath88)"
         id="g84"><g
           transform="translate(73.291,79.1831)"
           id="g90"><path
             id="path92"
             style="fill:#ffffff;fill-opacity:1;fill-rule:nonzero;stroke:none"
             d="m 0,0 -18.127,-18.127 c -1.952,0.219 -3.981,-0.416 -5.478,-1.913 l -0.737,-0.737 v 0.001 c -3.342,3.341 -8.591,3.824 -12.486,1.149 l -21.009,-14.429 c -1.745,-1.198 -2.652,-3.273 -2.4,-5.373 2.023,-16.861 9.838,-24.677 26.7,-26.699 2.1,-0.252 4.175,0.655 5.373,2.399 l 14.429,21.009 c 2.675,3.895 2.192,9.144 -1.15,12.486 l 0.738,0.737 c 1.497,1.497 2.131,3.526 1.913,5.477 L 5.893,-5.893 c 1.61,1.611 1.613,4.226 0.005,5.84 -0.02,0.02 -0.04,0.039 -0.059,0.059 C 4.225,1.614 1.61,1.611 0,0"
             inkscape:connector-curvature="0" /></g></g></g></g></svg>