<svg xmlns="http://www.w3.org/2000/svg" xmlns:xlink="http://www.w3.org/1999/xlink" width="192" height="192" viewBox="0 0 192 192"><defs><style>.cls-1{fill:none;}.cls-2{opacity:0.01;}.cls-2,.cls-3,.cls-4,.cls-5{isolation:isolate;}.cls-3{opacity:0.02;}.cls-4{opacity:0.04;}.cls-5{opacity:0.06;}.cls-6{fill:#0077d8;}.cls-7{fill:url(#未命名的渐变_33);}.cls-8{fill:url(#未命名的渐变_2);}.cls-9{fill:url(#未命名的渐变_43);}.cls-10{fill:#fafafa;}.cls-11{fill:#fff;}</style><linearGradient id="未命名的渐变_33" x1="166.004" y1="27.998" x2="25.998" y2="168.004" gradientTransform="matrix(1, 0, 0, -1, 0, 194)" gradientUnits="userSpaceOnUse"><stop offset="0" stop-opacity="0.1"/><stop offset="0.5" stop-color="gray" stop-opacity="0.05"/><stop offset="1" stop-color="#fff" stop-opacity="0.1"/></linearGradient><linearGradient id="未命名的渐变_2" x1="166.012" y1="75.988" x2="25.987" y2="216.012" gradientTransform="matrix(1, 0, 0, -1, 0, 242)" gradientUnits="userSpaceOnUse"><stop offset="0" stop-opacity="0.04"/><stop offset="0.5" stop-color="gray" stop-opacity="0"/><stop offset="1" stop-color="#fff" stop-opacity="0.1"/></linearGradient><linearGradient id="未命名的渐变_43" x1="160.986" y1="171.011" x2="61.988" y2="72.013" gradientUnits="userSpaceOnUse"><stop offset="0" stop-opacity="0.04"/><stop offset="1" stop-opacity="0.12"/></linearGradient></defs><title>cnbeta</title><g id="图层_2" data-name="图层 2"><g id="图层_1-2" data-name="图层 1"><rect class="cls-1" width="192" height="192"/><path class="cls-2" d="M96,190C27.3,190,3,165.7,3,97S27.3,4,96,4s93,24.3,93,93S164.7,190,96,190Z"/><path class="cls-3" d="M96,189C28.1,189,4,164.9,4,97S28.1,5,96,5s92,24.1,92,92S163.9,189,96,189Z"/><path class="cls-4" d="M96,188C28.8,188,5,164.2,5,97S28.8,6,96,6s91,23.8,91,91S163.2,188,96,188Z"/><path class="cls-5" d="M186,97c0,66.7-23.3,90-90,90S6,163.7,6,97,29.3,7,96,7,186,30.3,186,97Z"/><path class="cls-6" d="M186,96c0,66.7-23.3,90-90,90S6,162.7,6,96,29.3,6,96,6,186,29.3,186,96Z"/><path class="cls-7" d="M186,96c0,66.67-23.32,90-90,90S6,162.67,6,96,29.32,6,96,6,186,29.32,186,96Z"/><path class="cls-8" d="M96,6C29.3,6,6,29.3,6,96s23.3,90,90,90,90-23.3,90-90S162.7,6,96,6Zm68.6,158.6C151.2,178,130,184,96,184s-55.2-6-68.6-19.4S8,130,8,96s6-55.2,19.4-68.6S62,8,96,8s55.2,6,68.6,19.4S184,62,184,96,178,151.2,164.6,164.6Z"/><path class="cls-9" d="M98.776,185.985c56.82-.572,81.189-18.933,86.211-68.156L138.757,71.6l-8.206,12.6L90.177,43.824,60.927,92.582l6.517,6.538-6.517,49.015Z"/><path class="cls-10" d="M109.26,119.96,96.181,97.307a2.317,2.317,0,0,1,0-2.32L109.26,72.334a2.318,2.318,0,0,1,2.008-1.16h26.158a2.319,2.319,0,0,1,2.009,1.16l13.079,22.653a2.322,2.322,0,0,1,0,2.32L139.435,119.96a2.319,2.319,0,0,1-2.009,1.16H111.268A2.318,2.318,0,0,1,109.26,119.96ZM90.64,92.014,103.719,69.36a2.32,2.32,0,0,0,0-2.319L90.64,44.387a2.321,2.321,0,0,0-2.009-1.159H62.473a2.321,2.321,0,0,0-2.009,1.159L47.385,67.041a2.32,2.32,0,0,0,0,2.319L60.464,92.014a2.321,2.321,0,0,0,2.009,1.159H88.631A2.321,2.321,0,0,0,90.64,92.014Zm0,55.892,13.079-22.653a2.32,2.32,0,0,0,0-2.319L90.64,100.28a2.32,2.32,0,0,0-2.009-1.16H62.473a2.32,2.32,0,0,0-2.009,1.16L47.385,122.934a2.32,2.32,0,0,0,0,2.319l13.079,22.653a2.32,2.32,0,0,0,2.009,1.16H88.631A2.32,2.32,0,0,0,90.64,147.906Z"/><path class="cls-11" d="M48.085,70.571a2.308,2.308,0,0,1,.248-1.634L61.412,46.283a2.32,2.32,0,0,1,2.009-1.16H89.579a2.32,2.32,0,0,1,2.009,1.16l12.379,21.443a2.282,2.282,0,0,0-.248-.685L90.64,44.387a2.321,2.321,0,0,0-2.009-1.159H62.473a2.321,2.321,0,0,0-2.009,1.159L47.385,67.041a2.32,2.32,0,0,0,0,2.319Z"/><path class="cls-11" d="M96.181,97.307l.7,1.21a2.305,2.305,0,0,1,.249-1.634L110.208,74.23a2.318,2.318,0,0,1,2.008-1.16h26.158a2.32,2.32,0,0,1,2.009,1.16l12.38,21.442a2.322,2.322,0,0,0-.249-.685L139.435,72.334a2.319,2.319,0,0,0-2.009-1.16H111.268a2.318,2.318,0,0,0-2.008,1.16L96.181,94.987A2.317,2.317,0,0,0,96.181,97.307Z"/><path class="cls-11" d="M48.333,124.829l13.079-22.653a2.32,2.32,0,0,1,2.009-1.16H89.579a2.32,2.32,0,0,1,2.009,1.16l12.379,21.442a2.3,2.3,0,0,0-.248-.685L90.64,100.28a2.32,2.32,0,0,0-2.009-1.16H62.473a2.32,2.32,0,0,0-2.009,1.16L47.385,122.933a2.322,2.322,0,0,0,0,2.32l.7,1.211A2.312,2.312,0,0,1,48.333,124.829Z"/></g></g></svg>