<svg xmlns="http://www.w3.org/2000/svg" xmlns:xlink="http://www.w3.org/1999/xlink" viewBox="0 0 192 192"><defs><style>.cls-1{fill:none;}.cls-2{opacity:0.01;}.cls-3{opacity:0.02;}.cls-4{opacity:0.04;}.cls-5{opacity:0.06;}.cls-6{fill:#009688;}.cls-7{fill:url(#未命名的渐变_14);}.cls-8{fill:url(#未命名的渐变_46);}.cls-9{fill:url(#未命名的渐变_68);}.cls-10{fill:#fafafa;}.cls-11{fill:#fff;}.cls-12{fill:url(#未命名的渐变_60);}.cls-13{fill:url(#未命名的渐变_60-2);}.cls-14{opacity:0.1;}</style><linearGradient id="未命名的渐变_14" x1="166" y1="166" x2="26" y2="26" gradientUnits="userSpaceOnUse"><stop offset="0" stop-opacity="0.1"/><stop offset="0.5" stop-color="gray" stop-opacity="0.05"/><stop offset="1" stop-color="#fff" stop-opacity="0.1"/></linearGradient><linearGradient id="未命名的渐变_46" x1="166" y1="166" x2="26" y2="26" gradientUnits="userSpaceOnUse"><stop offset="0" stop-opacity="0.05"/><stop offset="0.5" stop-color="gray" stop-opacity="0"/><stop offset="1" stop-color="#fff" stop-opacity="0.1"/></linearGradient><linearGradient id="未命名的渐变_68" x1="165.94" y1="166.06" x2="66.44" y2="66.56" gradientUnits="userSpaceOnUse"><stop offset="0" stop-opacity="0.02"/><stop offset="1" stop-opacity="0.16"/></linearGradient><linearGradient id="未命名的渐变_60" x1="90.08" y1="148" x2="90.08" y2="123" gradientUnits="userSpaceOnUse"><stop offset="0.6" stop-opacity="0"/><stop offset="1" stop-opacity="0.12"/></linearGradient><linearGradient id="未命名的渐变_60-2" x1="96" y1="107" x2="96" y2="85" xlink:href="#未命名的渐变_60"/></defs><title>supersu</title><g id="图层_2" data-name="图层 2"><g id="图层_2-2" data-name="图层 2"><rect class="cls-1" width="192" height="192"/><path class="cls-2" d="M96,190C27.34,190,3,165.66,3,97S27.34,4,96,4s93,24.34,93,93S164.66,190,96,190Z"/><path class="cls-3" d="M96,189C28.07,189,4,164.92,4,97S28.07,5,96,5s92,24.07,92,92S163.93,189,96,189Z"/><path class="cls-4" d="M96,188C28.81,188,5,164.19,5,97S28.81,6,96,6s91,23.81,91,91S163.19,188,96,188Z"/><path class="cls-5" d="M186,97c0,66.67-23.32,90-90,90S6,163.67,6,97,29.32,7,96,7,186,30.32,186,97Z"/><path class="cls-6" d="M186,96c0,66.67-23.32,90-90,90S6,162.67,6,96,29.32,6,96,6,186,29.32,186,96Z"/><path class="cls-7" d="M186,96c0,66.67-23.32,90-90,90S6,162.67,6,96,29.32,6,96,6,186,29.32,186,96Z"/><path class="cls-8" d="M96,6C29.32,6,6,29.32,6,96s23.32,90,90,90,90-23.33,90-90S162.68,6,96,6Zm68.59,158.59C151.17,178,130,184,96,184s-55.17-6-68.59-19.41S8,130,8,96s6-55.17,19.41-68.59S62,8,96,8s55.17,6,68.59,19.41S184,62,184,96,178,151.16,164.59,164.59Z"/><path class="cls-9" d="M103,185.91c59-1.57,81.32-23.81,82.94-82.7L129.45,46.75,114.37,68.63l-22-22L80,73,50,83l22,22L47.63,121.11,64.45,138l-1,8.34Z"/><path class="cls-10" d="M104.6,148a6,6,0,0,1-5.92-7l15-92a6,6,0,0,1,5.92-5h4.79a6,6,0,0,1,5.92,7l-15,92a6,6,0,0,1-5.92,5Z"/><path class="cls-10" d="M67.6,148a6,6,0,0,1-5.92-7l15-92a6,6,0,0,1,5.92-5H87.4a6,6,0,0,1,5.92,7l-15,92a6,6,0,0,1-5.92,5Z"/><path class="cls-11" d="M99.67,143l15-92a6,6,0,0,1,5.92-5h4.79A6,6,0,0,1,130,48.11c.07.09.14.18.21.27A6,6,0,0,0,124.4,44h-4.79a6,6,0,0,0-5.92,5l-15,92a6,6,0,0,0,1.14,4.58A6,6,0,0,1,99.67,143Z"/><path class="cls-11" d="M62.67,143l15-92a6,6,0,0,1,5.92-5H88.4A6,6,0,0,1,93,48.11c.07.09.14.18.21.27A6,6,0,0,0,87.4,44H82.62a6,6,0,0,0-5.92,5l-15,92a6,6,0,0,0,1.14,4.58A6,6,0,0,1,62.67,143Z"/><polygon class="cls-5" points="117.54 71.61 110.07 71.61 111.12 65.18 117.54 71.61"/><rect class="cls-10" x="89" y="28" width="16" height="98" rx="6" ry="6" transform="translate(174 -20) rotate(90)"/><rect class="cls-10" x="87" y="66" width="16" height="98" rx="6" ry="6" transform="translate(210 20) rotate(90)"/><path class="cls-12" d="M101.62,123h16.95l-3.26,20a6,6,0,0,1-5.92,5H104.6a6,6,0,0,1-5.92-7ZM61.67,141a6,6,0,0,0,5.92,7h4.79a6,6,0,0,0,5.92-5l3.26-20H64.62Z"/><path class="cls-13" d="M121.18,107H104.23l3.59-22h16.95ZM87.77,85H70.82l-3.59,22H84.18Z"/><path class="cls-11" d="M49,81V77a6,6,0,0,1,6-6h86a6,6,0,0,1,4.77,2.37A6,6,0,0,0,140,69H54a6,6,0,0,0-6,6v4a6,6,0,0,0,1.23,3.63A6,6,0,0,1,49,81Z"/><path class="cls-11" d="M47,119v-4a6,6,0,0,1,6-6h86a6,6,0,0,1,4.77,2.37A6,6,0,0,0,138,107H52a6,6,0,0,0-6,6v4a6,6,0,0,0,1.23,3.63A6,6,0,0,1,47,119Z"/><g class="cls-14"><path d="M100,145.89A6,6,0,0,0,104.6,148h4.79a6,6,0,0,0,5.92-5l3.26-20H101.62l-2.94,18A6,6,0,0,0,100,145.89Z"/><path d="M74.17,147.71A6,6,0,0,0,78.31,143l3.26-20H64.62l-2.13,13Z"/></g><g class="cls-5"><polygon points="121.18 107 124.77 85 107.82 85 104.23 107 121.18 107"/><polygon points="74 107 84.18 107 87.77 85 70.82 85 68.18 101.18 74 107"/></g></g></g></svg>