<?xml version="1.0" encoding="UTF-8" standalone="no"?>
<svg
   xmlns:dc="http://purl.org/dc/elements/1.1/"
   xmlns:cc="http://creativecommons.org/ns#"
   xmlns:rdf="http://www.w3.org/1999/02/22-rdf-syntax-ns#"
   xmlns:svg="http://www.w3.org/2000/svg"
   xmlns="http://www.w3.org/2000/svg"
   xmlns:sodipodi="http://sodipodi.sourceforge.net/DTD/sodipodi-0.dtd"
   xmlns:inkscape="http://www.inkscape.org/namespaces/inkscape"
   viewBox="0 0 133.33333 133.33333"
   height="133.33333"
   width="133.33333"
   xml:space="preserve"
   id="svg2"
   version="1.1"
   sodipodi:docname="harbour-file-browser-root-patch.svg"
   inkscape:version="0.92.2 2405546, 2018-03-11"><sodipodi:namedview
     pagecolor="#ffffff"
     bordercolor="#666666"
     borderopacity="1"
     objecttolerance="10"
     gridtolerance="10"
     guidetolerance="10"
     inkscape:pageopacity="0"
     inkscape:pageshadow="2"
     inkscape:window-width="1366"
     inkscape:window-height="706"
     id="namedview80"
     showgrid="false"
     inkscape:zoom="1.7700001"
     inkscape:cx="66.666664"
     inkscape:cy="66.666664"
     inkscape:window-x="0"
     inkscape:window-y="34"
     inkscape:window-maximized="1"
     inkscape:current-layer="svg2" /><metadata
     id="metadata8"><rdf:RDF><cc:Work
         rdf:about=""><dc:format>image/svg+xml</dc:format><dc:type
           rdf:resource="http://purl.org/dc/dcmitype/StillImage" /></cc:Work></rdf:RDF></metadata><defs
     id="defs6"><clipPath
       id="clipPath18"
       clipPathUnits="userSpaceOnUse"><path
         id="path16"
         d="M 50,100 C 12.956,100 0,87.039 0,50 v 0 C 0,12.961 12.956,0 50,0 v 0 c 37.045,0 50,12.961 50,50 v 0 c 0,37.044 -12.955,50 -50,50 z" /></clipPath><linearGradient
       id="linearGradient30"
       spreadMethod="pad"
       gradientTransform="matrix(77.78125,-77.78125,-77.78125,-77.78125,11.109896,88.891144)"
       gradientUnits="userSpaceOnUse"
       y2="0"
       x2="1"
       y1="0"
       x1="0"><stop
         id="stop24"
         offset="0"
         style="stop-opacity:1;stop-color:#8fe7f7" /><stop
         id="stop26"
         offset="0.0000006"
         style="stop-opacity:1;stop-color:#8fe7f7" /><stop
         id="stop28"
         offset="1"
         style="stop-opacity:1;stop-color:#4394e9" /></linearGradient><clipPath
       id="clipPath40"
       clipPathUnits="userSpaceOnUse"><path
         id="path38"
         d="M 50,100 C 12.956,100 0,87.039 0,50 v 0 C 0,12.961 12.956,0 50,0 v 0 c 37.045,0 50,12.961 50,50 v 0 c 0,37.044 -12.955,50 -50,50 z" /></clipPath><linearGradient
       id="linearGradient52"
       spreadMethod="pad"
       gradientTransform="matrix(77.78125,-77.78125,-77.78125,-77.78125,11.109896,88.891144)"
       gradientUnits="userSpaceOnUse"
       y2="0"
       x2="1"
       y1="0"
       x1="0"><stop
         id="stop46"
         offset="0"
         style="stop-opacity:1;stop-color:#8fe7f7" /><stop
         id="stop48"
         offset="0.0000006"
         style="stop-opacity:1;stop-color:#8fe7f7" /><stop
         id="stop50"
         offset="1"
         style="stop-opacity:1;stop-color:#4394e9" /></linearGradient><clipPath
       id="clipPath62"
       clipPathUnits="userSpaceOnUse"><path
         id="path60"
         d="M 50,100 C 12.956,100 0,87.039 0,50 v 0 C 0,12.961 12.956,0 50,0 v 0 c 37.045,0 50,12.961 50,50 v 0 c 0,37.044 -12.955,50 -50,50 z" /></clipPath><linearGradient
       id="linearGradient74"
       spreadMethod="pad"
       gradientTransform="matrix(77.78125,-77.78125,-77.78125,-77.78125,11.109896,88.891144)"
       gradientUnits="userSpaceOnUse"
       y2="0"
       x2="1"
       y1="0"
       x1="0"><stop
         id="stop68"
         offset="0"
         style="stop-opacity:1;stop-color:#ababab" /><stop
         id="stop70"
         offset="0.00000049"
         style="stop-opacity:1;stop-color:#ababab" /><stop
         id="stop72"
         offset="1"
         style="stop-opacity:1;stop-color:#878787" /></linearGradient><clipPath
       id="clipPath84"
       clipPathUnits="userSpaceOnUse"><path
         id="path82"
         d="M 50,49.921 18.974,20.724 39.261,0.439 C 42.594,0.148 46.161,0 50,0 v 0 c 37.045,0 50,12.961 50,50 v 0 c 0,2.417 -0.059,4.725 -0.172,6.94 v 0 L 81.273,75.497 59.925,74.134 48.3,85.759 Z" /></clipPath><clipPath
       id="clipPath92"
       clipPathUnits="userSpaceOnUse"><path
         id="path90"
         d="M -32768,32767 H 32767 V -32768 H -32768 Z" /></clipPath><linearGradient
       id="linearGradient100"
       spreadMethod="pad"
       gradientTransform="matrix(57.619835,-57.619835,-57.619835,-57.619835,30.387711,67.846146)"
       gradientUnits="userSpaceOnUse"
       y2="0"
       x2="1"
       y1="0"
       x1="0"><stop
         id="stop94"
         offset="0"
         style="stop-opacity:0.11999695;stop-color:#ffffff" /><stop
         id="stop96"
         offset="0.00000049"
         style="stop-opacity:0.11999695;stop-color:#ffffff" /><stop
         id="stop98"
         offset="1"
         style="stop-opacity:0;stop-color:#ffffff" /></linearGradient><mask
       id="mask102"
       height="1"
       width="1"
       y="0"
       x="0"
       maskUnits="userSpaceOnUse"><g
         id="g112"><g
           id="g110"
           clip-path="url(#clipPath92)"><g
             id="g108"><g
               id="g106"><path
                 id="path104"
                 style="fill:url(#linearGradient100);stroke:none"
                 d="M -32768,32767 H 32767 V -32768 H -32768 Z" /></g></g></g></g></mask><linearGradient
       id="linearGradient124"
       spreadMethod="pad"
       gradientTransform="matrix(57.619835,-57.619835,-57.619835,-57.619835,30.387711,67.846146)"
       gradientUnits="userSpaceOnUse"
       y2="0"
       x2="1"
       y1="0"
       x1="0"><stop
         id="stop118"
         offset="0"
         style="stop-opacity:1;stop-color:#000000" /><stop
         id="stop120"
         offset="0.00000049"
         style="stop-opacity:1;stop-color:#000000" /><stop
         id="stop122"
         offset="1"
         style="stop-opacity:1;stop-color:#000000" /></linearGradient><clipPath
       id="clipPath134"
       clipPathUnits="userSpaceOnUse"><path
         id="path132"
         d="M 0,100 H 100 V 0 H 0 Z" /></clipPath><clipPath
       id="clipPath146"
       clipPathUnits="userSpaceOnUse"><path
         id="path144"
         d="M 11.174,34.358 C 16.796,17.346 26.585,12.5 50,12.5 v 0 c 23.415,0 33.205,4.846 38.826,21.858 v 0 C 96.738,58.309 87.286,69.167 50,69.167 v 0 C 12.714,69.167 3.262,58.306 11.174,34.358" /></clipPath><linearGradient
       id="linearGradient156"
       spreadMethod="pad"
       gradientTransform="matrix(53.725483,-53.725483,-53.725483,-53.725483,23.137833,70.251381)"
       gradientUnits="userSpaceOnUse"
       y2="0"
       x2="1"
       y1="0"
       x1="0"><stop
         id="stop152"
         offset="0"
         style="stop-opacity:1;stop-color:#c9c9c9" /><stop
         id="stop154"
         offset="1"
         style="stop-opacity:1;stop-color:#d8d8d8" /></linearGradient></defs><g
     transform="matrix(1.25,0,0,-1.25,4,129.33333)"
     id="g10"><g
       id="g12"><g
         clip-path="url(#clipPath18)"
         id="g14"><g
           id="g20"><g
             id="g22"><path
               id="path32"
               style="fill:url(#linearGradient30);stroke:none"
               d="M 50,100 C 12.956,100 0,87.039 0,50 v 0 C 0,12.961 12.956,0 50,0 v 0 c 37.045,0 50,12.961 50,50 v 0 c 0,37.044 -12.955,50 -50,50 z"
               inkscape:connector-curvature="0" /></g></g></g></g><g
       id="g34"><g
         clip-path="url(#clipPath40)"
         id="g36"><g
           id="g42"><g
             id="g44"><path
               id="path54"
               style="fill:url(#linearGradient52);stroke:none"
               d="M 50,100 C 12.956,100 0,87.039 0,50 v 0 C 0,12.961 12.956,0 50,0 v 0 c 37.045,0 50,12.961 50,50 v 0 c 0,37.044 -12.955,50 -50,50 z"
               inkscape:connector-curvature="0" /></g></g></g></g><g
       id="g56"><g
         clip-path="url(#clipPath62)"
         id="g58"><g
           id="g64"><g
             id="g66"><path
               id="path76"
               style="fill:url(#linearGradient74);stroke:none"
               d="M 50,100 C 12.956,100 0,87.039 0,50 v 0 C 0,12.961 12.956,0 50,0 v 0 c 37.045,0 50,12.961 50,50 v 0 c 0,37.044 -12.955,50 -50,50 z"
               inkscape:connector-curvature="0" /></g></g></g></g><g
       id="g78"><g
         clip-path="url(#clipPath84)"
         id="g80"><g
           id="g86"><g
             id="g88" /><g
             mask="url(#mask102)"
             id="g114"><g
               id="g116"><path
                 id="path126"
                 style="fill:url(#linearGradient124);stroke:none"
                 d="M 50,49.921 18.974,20.724 39.261,0.439 C 42.594,0.148 46.161,0 50,0 v 0 c 37.045,0 50,12.961 50,50 v 0 c 0,2.417 -0.059,4.725 -0.172,6.94 v 0 L 81.273,75.497 59.925,74.134 48.3,85.759 Z"
                 inkscape:connector-curvature="0" /></g></g></g></g></g><g
       id="g128"><g
         clip-path="url(#clipPath134)"
         id="g130"><g
           transform="translate(70.7686,79.8335)"
           id="g136"><path
             id="path138"
             style="fill:#f0f0f0;fill-opacity:1;fill-rule:nonzero;stroke:none"
             d="m 0,0 h -15.68 c -2.101,0 -4.025,1.176 -4.983,3.047 l -0.723,1.411 c -1.004,1.96 -3.068,3.171 -5.267,3.042 -23.283,-1.378 -31.616,-11.616 -31.616,-37.333 0,-27.78 9.717,-37.5 37.5,-37.5 27.784,0 37.5,9.72 37.5,37.5 0,8.132 -0.835,14.714 -2.712,19.958 C 11.897,-3.952 6.291,0 0,0"
             inkscape:connector-curvature="0" /></g></g></g><g
       id="g140"><g
         clip-path="url(#clipPath146)"
         id="g142"><g
           id="g148"><g
             id="g150"><path
               id="path158"
               style="fill:url(#linearGradient156);stroke:none"
               d="M 11.174,34.358 C 16.796,17.346 26.585,12.5 50,12.5 v 0 c 23.415,0 33.205,4.846 38.826,21.858 v 0 C 96.738,58.309 87.286,69.167 50,69.167 v 0 C 12.714,69.167 3.262,58.306 11.174,34.358"
               inkscape:connector-curvature="0" /></g></g></g></g></g></svg>