<svg xmlns="http://www.w3.org/2000/svg" xmlns:xlink="http://www.w3.org/1999/xlink" viewBox="0 0 192 192"><defs><style>.cls-1{fill:none;}.cls-2{opacity:0.01;}.cls-2,.cls-3,.cls-4,.cls-5{isolation:isolate;}.cls-3{opacity:0.02;}.cls-4{opacity:0.04;}.cls-5{opacity:0.06;}.cls-6{fill:#147ced;}.cls-7{fill:url(#未命名的渐变);}.cls-8{fill:url(#未命名的渐变_2);}.cls-9{fill:url(#未命名的渐变_3);}.cls-10{fill:#fff;}</style><linearGradient id="未命名的渐变" x1="166" y1="28" x2="26" y2="168" gradientTransform="matrix(1, 0, 0, -1, 0, 194)" gradientUnits="userSpaceOnUse"><stop offset="0" stop-opacity="0.1"/><stop offset="0.5" stop-color="gray" stop-opacity="0.05"/><stop offset="1" stop-color="#fff" stop-opacity="0.15"/></linearGradient><linearGradient id="未命名的渐变_2" x1="166" y1="28" x2="25.99" y2="168" gradientTransform="matrix(1, 0, 0, -1, 0, 194)" gradientUnits="userSpaceOnUse"><stop offset="0" stop-opacity="0.05"/><stop offset="0.5" stop-color="gray" stop-opacity="0"/><stop offset="1" stop-color="#fff" stop-opacity="0.1"/></linearGradient><linearGradient id="未命名的渐变_3" x1="163.5" y1="25.5" x2="53.95" y2="135.05" gradientTransform="matrix(1, 0, 0, -1, 0, 194)" gradientUnits="userSpaceOnUse"><stop offset="0" stop-opacity="0.06"/><stop offset="1" stop-opacity="0.18"/></linearGradient></defs><title>zhihu</title><g id="图层_2" data-name="图层 2"><g id="图层_1-2" data-name="图层 1"><rect class="cls-1" width="192" height="192"/><path class="cls-2" d="M96,190C27.34,190,3,165.66,3,97S27.34,4,96,4s93,24.34,93,93S164.66,190,96,190Z"/><path class="cls-3" d="M96,189C28.07,189,4,164.92,4,97S28.07,5,96,5s92,24.07,92,92S163.93,189,96,189Z"/><path class="cls-4" d="M96,188C28.81,188,5,164.19,5,97S28.81,6,96,6s91,23.81,91,91S163.19,188,96,188Z"/><path class="cls-5" d="M186,97c0,66.67-23.32,90-90,90S6,163.67,6,97,29.32,7,96,7,186,30.32,186,97Z"/><path class="cls-6" d="M186,96c0,66.67-23.32,90-90,90S6,162.67,6,96,29.32,6,96,6,186,29.32,186,96Z"/><path class="cls-7" d="M186,96c0,66.67-23.32,90-90,90S6,162.67,6,96,29.32,6,96,6,186,29.32,186,96Z"/><path class="cls-8" d="M96,6C29.32,6,6,29.32,6,96s23.32,90,90,90,90-23.33,90-90S162.68,6,96,6Zm68.59,158.59C151.17,178,130,184,96,184s-55.17-6-68.59-19.41S8,130,8,96s6-55.17,19.41-68.59S62,8,96,8s55.17,6,68.59,19.41S184,62,184,96,178,151.16,164.59,164.59Z"/><path class="cls-9" d="M186,100,144,58l-34,7-6.14,4.14L93.38,58.66,87.5,64.5,67.6,45.3,58,57,46.7,78.3,58.44,90,61,93,47,98l21,21L53,138l-8,3,44.93,44.93q3,.07,6.07.07C161.34,186,185,163.6,186,100Z"/><path class="cls-10" d="M102,58v72h8l2,9,14-9h18V58Zm34,64H125l-9,6-1-6h-5V66h26ZM97,93a11.35,11.35,0,0,1,1,5H77.55a113.34,113.34,0,0,1-3.18,14.52l5.35-4.39c4.93,6,6.76,7.9,12.22,14.55C92.57,123.46,93,127,93,129a12.12,12.12,0,0,1-1.21,6.36L74,113.78A84.5,84.5,0,0,1,68,129a22,22,0,0,1-23,12s13-9,19-24a87.94,87.94,0,0,0,5.23-19H47a10.12,10.12,0,0,1,1.5-5c1-1.72,2.5-3,3.5-3H70V66H60.06c-1.36,4.3-2,7.62-6.26,10.2-5,3-7.1,2.2-7.1,2.2s3.1-7.2,6.1-15.2,3-12,7-15a14.26,14.26,0,0,1,7.8-3S65.09,52.14,62.94,58H92q1.5,0,3,3a10.27,10.27,0,0,1,1,5H78V90H94C95,90,96.38,91.65,97,93Z"/></g></g></svg>