<?xml version="1.0" encoding="UTF-8" standalone="no"?>
<!-- Generator: Adobe Illustrator 22.0.1, SVG Export Plug-In . SVG Version: 6.00 Build 0)  -->

<svg
   xmlns:dc="http://purl.org/dc/elements/1.1/"
   xmlns:cc="http://creativecommons.org/ns#"
   xmlns:rdf="http://www.w3.org/1999/02/22-rdf-syntax-ns#"
   xmlns:svg="http://www.w3.org/2000/svg"
   xmlns="http://www.w3.org/2000/svg"
   xmlns:sodipodi="http://sodipodi.sourceforge.net/DTD/sodipodi-0.dtd"
   xmlns:inkscape="http://www.inkscape.org/namespaces/inkscape"
   version="1.1"
   id="图层_1"
   x="0px"
   y="0px"
   viewBox="0 0 192 192"
   style="enable-background:new 0 0 192 192;"
   xml:space="preserve"
   sodipodi:docname="apkd_launcher_com_google_android_youtube-com_google_android_apps_youtube_app_application_Shell$HomeActivity.svg"
   inkscape:version="0.92.2 2405546, 2018-03-11"><metadata
   id="metadata67"><rdf:RDF><cc:Work
       rdf:about=""><dc:format>image/svg+xml</dc:format><dc:type
         rdf:resource="http://purl.org/dc/dcmitype/StillImage" /></cc:Work></rdf:RDF></metadata><defs
   id="defs65" /><sodipodi:namedview
   pagecolor="#ffffff"
   bordercolor="#666666"
   borderopacity="1"
   objecttolerance="10"
   gridtolerance="10"
   guidetolerance="10"
   inkscape:pageopacity="0"
   inkscape:pageshadow="2"
   inkscape:window-width="1366"
   inkscape:window-height="706"
   id="namedview63"
   showgrid="false"
   inkscape:zoom="1.2291667"
   inkscape:cx="96.000003"
   inkscape:cy="96.000003"
   inkscape:window-x="0"
   inkscape:window-y="34"
   inkscape:window-maximized="1"
   inkscape:current-layer="图层_2-2" />
<style
   type="text/css"
   id="style2">
	.st0{fill:none;}
	.st1{opacity:1.000000e-02;enable-background:new    ;}
	.st2{opacity:2.000000e-02;enable-background:new    ;}
	.st3{opacity:4.000000e-02;enable-background:new    ;}
	.st4{opacity:6.000000e-02;enable-background:new    ;}
	.st5{fill:#E42C27;}
	.st6{fill:url(#SVGID_1_);}
	.st7{fill:url(#SVGID_2_);}
	.st8{fill:url(#SVGID_3_);}
	.st9{fill:#FAFAFA;}
	.st10{opacity:5.000000e-02;enable-background:new    ;}
	.st11{fill:#FFFFFF;enable-background:new    ;}
	.st12{opacity:0.1;fill:#FFFFFF;enable-background:new    ;}
	.st13{fill:url(#SVGID_4_);}
</style>
<title
   id="title4">google_youtube</title>
<g
   id="图层_2_1_">
	<g
   id="图层_2-2">
		<rect
   class="st0"
   width="192"
   height="192"
   id="rect6"
   x="0"
   y="0"
   style="fill:none" />
		
		
		
		
		<path
   class="st5"
   d="m 186,96 c 0,66.7 -23.3,90 -90,90 C 29.3,186 6,162.7 6,96 6,29.3 29.3,6 96,6 c 66.7,0 90,23.3 90,90 z"
   id="path16"
   inkscape:connector-curvature="0"
   style="fill:#e42c27" />
		
			<linearGradient
   id="SVGID_1_"
   gradientUnits="userSpaceOnUse"
   x1="166.0041"
   y1="27.997801"
   x2="25.997801"
   y2="168.0041"
   gradientTransform="matrix(1,0,0,-1,0,194)">
			<stop
   offset="0"
   style="stop-color:#000000;stop-opacity:0.1"
   id="stop18" />
			<stop
   offset="0.5"
   style="stop-color:#808080;stop-opacity:5.000000e-02"
   id="stop20" />
			<stop
   offset="1"
   style="stop-color:#FFFFFF;stop-opacity:0.12"
   id="stop22" />
		</linearGradient>
		<path
   class="st6"
   d="m 186,96 c 0,66.7 -23.3,90 -90,90 C 29.3,186 6,162.7 6,96 6,29.3 29.3,6 96,6 c 66.7,0 90,23.3 90,90 z"
   id="path25"
   inkscape:connector-curvature="0"
   style="fill:url(#SVGID_1_)" />
		
			<linearGradient
   id="SVGID_2_"
   gradientUnits="userSpaceOnUse"
   x1="166.0022"
   y1="27.995899"
   x2="25.994101"
   y2="168.0041"
   gradientTransform="matrix(1,0,0,-1,0,194)">
			<stop
   offset="0"
   style="stop-color:#000000;stop-opacity:5.000000e-02"
   id="stop27" />
			<stop
   offset="0.5"
   style="stop-color:#808080;stop-opacity:0"
   id="stop29" />
			<stop
   offset="1"
   style="stop-color:#FFFFFF;stop-opacity:0.1"
   id="stop31" />
		</linearGradient>
		<path
   class="st7"
   d="M 96,6 C 29.3,6 6,29.3 6,96 c 0,66.7 23.3,90 90,90 66.7,0 90,-23.3 90,-90 C 186,29.3 162.7,6 96,6 Z m 68.6,158.6 C 151.2,178 130,184 96,184 62,184 40.8,178 27.4,164.6 14,151.2 8,130 8,96 8,62 14,40.8 27.4,27.4 40.8,14 62,8 96,8 130,8 151.2,14 164.6,27.4 178,40.8 184,62 184,96 c 0,34 -6,55.2 -19.4,68.6 z"
   id="path34"
   inkscape:connector-curvature="0"
   style="fill:url(#SVGID_2_)" />
		
			<linearGradient
   id="SVGID_3_"
   gradientUnits="userSpaceOnUse"
   x1="165.99001"
   y1="28.07"
   x2="88.529999"
   y2="105.53"
   gradientTransform="matrix(1,0,0,-1,0,194)">
			<stop
   offset="0"
   style="stop-color:#000000;stop-opacity:2.000000e-02"
   id="stop36" />
			<stop
   offset="1"
   style="stop-color:#000000;stop-opacity:0.16"
   id="stop38" />
		</linearGradient>
		<path
   class="st8"
   d="m 45.1,131.9 54,54 c 63.3,-0.7 86.2,-23.6 86.9,-87 L 147.3,60.2 Z"
   id="path41"
   inkscape:connector-curvature="0"
   style="fill:url(#SVGID_3_)" />
		<path
   class="st9"
   d="M 153.3,75.6 C 151.4,58.5 143.8,56.3 131.9,55.8 122,55.3 110.1,55 96,55 81.9,55 70,55.3 60.1,55.8 48.2,56.4 40.6,58.5 38.7,75.6 38.1,81.1 38,94.7 38,96 c 0,1.3 0.1,14.9 0.7,20.4 1.9,17.1 9.5,19.3 21.4,19.8 9.9,0.5 21.9,0.8 35.9,0.8 14,0 26,-0.3 35.9,-0.8 11.9,-0.6 19.4,-2.7 21.4,-19.8 0.6,-5.5 0.7,-19.1 0.7,-20.4 0,-1.3 -0.1,-14.9 -0.7,-20.4 z"
   id="path43"
   inkscape:connector-curvature="0"
   style="fill:#fafafa" />
		
		<path
   class="st11"
   d="M 40.7,118.4 C 40.1,112.9 40,99.3 40,98 40,96.7 40.1,83.1 40.7,77.6 42.6,60.5 50.2,58.3 62.1,57.8 72,57.3 83.9,57 98,57 c 14.1,0 26,0.3 35.9,0.8 6.1,0.3 11,1 14.7,3.9 -3.7,-4.6 -9.4,-5.6 -16.7,-5.9 C 122,55.3 110.1,55 96,55 81.9,55 70,55.3 60.1,55.8 48.2,56.4 40.6,58.5 38.7,75.6 38.1,81.1 38,94.7 38,96 c 0,1.3 0.1,14.9 0.7,20.4 0.9,8.4 3.2,13.1 6.7,15.9 -2.4,-2.9 -3.9,-7.3 -4.7,-13.9 z"
   id="path47"
   inkscape:connector-curvature="0"
   style="fill:#ffffff;enable-background:new" />
		<path
   class="st5"
   d="m 80.6,75.8 35.7,19.8 c 0.2,0.1 0.3,0.4 0.2,0.5 0,0.1 -0.1,0.1 -0.2,0.2 l -35.7,19.8 c -0.2,0.1 -0.4,0 -0.5,-0.2 0,-0.1 0,-0.1 0,-0.2 V 76.2 c 0,-0.2 0.2,-0.4 0.4,-0.4 0,0 0,0 0.1,0 z"
   id="path49"
   inkscape:connector-curvature="0"
   style="fill:#e42c27" />
		<path
   class="st12"
   d="m 117.3,96.7 -0.8,-0.5 c 0,0.1 -0.1,0.1 -0.2,0.2 L 81,116 v 0.9 c 0,0.2 0.2,0.4 0.4,0.4 0.1,0 0.1,0 0.2,0 l 35.7,-19.8 c 0.2,0 0.4,-0.2 0.4,-0.4 0,-0.3 -0.2,-0.5 -0.4,-0.4 z"
   id="path51"
   inkscape:connector-curvature="0"
   style="opacity:0.1;fill:#ffffff;enable-background:new" />
		
			<linearGradient
   id="SVGID_4_"
   gradientUnits="userSpaceOnUse"
   x1="112.6766"
   y1="94.044403"
   x2="84.515503"
   y2="122.2055"
   gradientTransform="matrix(1,0,0,-1,0,194)">
			<stop
   offset="0"
   style="stop-color:#000000;stop-opacity:8.000000e-02"
   id="stop53" />
			<stop
   offset="1"
   style="stop-color:#000000;stop-opacity:0.16"
   id="stop55" />
		</linearGradient>
		<path
   class="st13"
   d="m 80.5,75.8 30.5,23.5 5.3,-3 c 0.2,-0.1 0.3,-0.4 0.2,-0.5 0,-0.1 -0.1,-0.1 -0.2,-0.2 z"
   id="path58"
   inkscape:connector-curvature="0"
   style="fill:url(#SVGID_4_)" />
	</g>
</g>
</svg>