<?xml version="1.0" encoding="UTF-8" standalone="no"?>
<svg
   xmlns:dc="http://purl.org/dc/elements/1.1/"
   xmlns:cc="http://creativecommons.org/ns#"
   xmlns:rdf="http://www.w3.org/1999/02/22-rdf-syntax-ns#"
   xmlns:svg="http://www.w3.org/2000/svg"
   xmlns="http://www.w3.org/2000/svg"
   xmlns:sodipodi="http://sodipodi.sourceforge.net/DTD/sodipodi-0.dtd"
   xmlns:inkscape="http://www.inkscape.org/namespaces/inkscape"
   viewBox="0 0 133.33333 133.33333"
   height="133.33333"
   width="133.33333"
   xml:space="preserve"
   id="svg2"
   version="1.1"
   sodipodi:docname="harbour-jupii.svg"
   inkscape:version="0.92.2 2405546, 2018-03-11"><sodipodi:namedview
     pagecolor="#ffffff"
     bordercolor="#666666"
     borderopacity="1"
     objecttolerance="10"
     gridtolerance="10"
     guidetolerance="10"
     inkscape:pageopacity="0"
     inkscape:pageshadow="2"
     inkscape:window-width="1366"
     inkscape:window-height="706"
     id="namedview101"
     showgrid="false"
     inkscape:zoom="1.7700001"
     inkscape:cx="66.666664"
     inkscape:cy="66.666664"
     inkscape:window-x="0"
     inkscape:window-y="34"
     inkscape:window-maximized="1"
     inkscape:current-layer="svg2" /><metadata
     id="metadata8"><rdf:RDF><cc:Work
         rdf:about=""><dc:format>image/svg+xml</dc:format><dc:type
           rdf:resource="http://purl.org/dc/dcmitype/StillImage" /></cc:Work></rdf:RDF></metadata><defs
     id="defs6"><clipPath
       id="clipPath18"
       clipPathUnits="userSpaceOnUse"><path
         id="path16"
         d="M 50,100 C 12.956,100 0,87.039 0,50 v 0 C 0,12.961 12.956,0 50,0 v 0 c 37.045,0 50,12.961 50,50 v 0 c 0,37.044 -12.955,50 -50,50 z" /></clipPath><linearGradient
       id="linearGradient30"
       spreadMethod="pad"
       gradientTransform="matrix(77.78125,-77.78125,-77.78125,-77.78125,11.109896,88.891144)"
       gradientUnits="userSpaceOnUse"
       y2="0"
       x2="1"
       y1="0"
       x1="0"><stop
         id="stop24"
         offset="0"
         style="stop-opacity:1;stop-color:#95abfc" /><stop
         id="stop26"
         offset="0.00000018"
         style="stop-opacity:1;stop-color:#95abfc" /><stop
         id="stop28"
         offset="1"
         style="stop-opacity:1;stop-color:#8841ab" /></linearGradient><clipPath
       id="clipPath40"
       clipPathUnits="userSpaceOnUse"><path
         id="path38"
         d="M 39.165,50 29.9,40.736 57.505,13.13 51.543,13.253 64.102,0.796 c 13.493,1.692 22.593,6.219 28.25,14.533 v 0 L 48.423,59.258 Z" /></clipPath><clipPath
       id="clipPath48"
       clipPathUnits="userSpaceOnUse"><path
         id="path46"
         d="M -32768,32767 H 32767 V -32768 H -32768 Z" /></clipPath><linearGradient
       id="linearGradient56"
       spreadMethod="pad"
       gradientTransform="matrix(44.295071,-44.295071,-44.295071,-44.295071,37.70174,48.536762)"
       gradientUnits="userSpaceOnUse"
       y2="0"
       x2="1"
       y1="0"
       x1="0"><stop
         id="stop50"
         offset="0"
         style="stop-opacity:0.11999695;stop-color:#ffffff" /><stop
         id="stop52"
         offset="0.00000018"
         style="stop-opacity:0.11999695;stop-color:#ffffff" /><stop
         id="stop54"
         offset="1"
         style="stop-opacity:0;stop-color:#ffffff" /></linearGradient><mask
       id="mask58"
       height="1"
       width="1"
       y="0"
       x="0"
       maskUnits="userSpaceOnUse"><g
         id="g68"><g
           id="g66"
           clip-path="url(#clipPath48)"><g
             id="g64"><g
               id="g62"><path
                 id="path60"
                 style="fill:url(#linearGradient56);stroke:none"
                 d="M -32768,32767 H 32767 V -32768 H -32768 Z" /></g></g></g></g></mask><linearGradient
       id="linearGradient80"
       spreadMethod="pad"
       gradientTransform="matrix(44.295071,-44.295071,-44.295071,-44.295071,37.70174,48.536762)"
       gradientUnits="userSpaceOnUse"
       y2="0"
       x2="1"
       y1="0"
       x1="0"><stop
         id="stop74"
         offset="0"
         style="stop-opacity:1;stop-color:#000000" /><stop
         id="stop76"
         offset="0.00000018"
         style="stop-opacity:1;stop-color:#000000" /><stop
         id="stop78"
         offset="1"
         style="stop-opacity:1;stop-color:#000000" /></linearGradient><clipPath
       id="clipPath90"
       clipPathUnits="userSpaceOnUse"><path
         id="path88"
         d="M 60.835,77.5 51.566,68.231 96.385,23.412 C 98.881,30.406 100,39.165 100,50 v 0 c 0,2.451 -0.06,4.789 -0.177,7.032 v 0 L 70.095,86.76 Z" /></clipPath><clipPath
       id="clipPath98"
       clipPathUnits="userSpaceOnUse"><path
         id="path96"
         d="M -32768,32767 H 32767 V -32768 H -32768 Z" /></clipPath><linearGradient
       id="linearGradient106"
       spreadMethod="pad"
       gradientTransform="matrix(44.818512,-44.818512,-44.818512,-44.818512,60.830368,77.495468)"
       gradientUnits="userSpaceOnUse"
       y2="0"
       x2="1"
       y1="0"
       x1="0"><stop
         id="stop100"
         offset="0"
         style="stop-opacity:0.11999695;stop-color:#ffffff" /><stop
         id="stop102"
         offset="0.00000018"
         style="stop-opacity:0.11999695;stop-color:#ffffff" /><stop
         id="stop104"
         offset="1"
         style="stop-opacity:0;stop-color:#ffffff" /></linearGradient><mask
       id="mask108"
       height="1"
       width="1"
       y="0"
       x="0"
       maskUnits="userSpaceOnUse"><g
         id="g118"><g
           id="g116"
           clip-path="url(#clipPath98)"><g
             id="g114"><g
               id="g112"><path
                 id="path110"
                 style="fill:url(#linearGradient106);stroke:none"
                 d="M -32768,32767 H 32767 V -32768 H -32768 Z" /></g></g></g></g></mask><linearGradient
       id="linearGradient130"
       spreadMethod="pad"
       gradientTransform="matrix(44.818512,-44.818512,-44.818512,-44.818512,60.830368,77.495468)"
       gradientUnits="userSpaceOnUse"
       y2="0"
       x2="1"
       y1="0"
       x1="0"><stop
         id="stop124"
         offset="0"
         style="stop-opacity:1;stop-color:#000000" /><stop
         id="stop126"
         offset="0.00000018"
         style="stop-opacity:1;stop-color:#000000" /><stop
         id="stop128"
         offset="1"
         style="stop-opacity:1;stop-color:#000000" /></linearGradient><clipPath
       id="clipPath140"
       clipPathUnits="userSpaceOnUse"><path
         id="path138"
         d="M 0,100 H 100 V 0 H 0 Z" /></clipPath><clipPath
       id="clipPath156"
       clipPathUnits="userSpaceOnUse"><path
         id="path154"
         d="M 2.98047,80.33 H 49.05 V 74.67 H 2.98047 Z" /></clipPath><clipPath
       id="clipPath172"
       clipPathUnits="userSpaceOnUse"><path
         id="path170"
         d="M 50.95,52.83 H 100 V 47.17 H 50.95 Z" /></clipPath><clipPath
       id="clipPath188"
       clipPathUnits="userSpaceOnUse"><path
         id="path186"
         d="M 2.98047,25.33 H 49.05 V 19.67 H 2.98047 Z" /></clipPath></defs><g
     transform="matrix(1.25,0,0,-1.25,4,129.33333)"
     id="g10"><g
       id="g12"><g
         clip-path="url(#clipPath18)"
         id="g14"><g
           id="g20"><g
             id="g22"><path
               id="path32"
               style="fill:url(#linearGradient30);stroke:none"
               d="M 50,100 C 12.956,100 0,87.039 0,50 v 0 C 0,12.961 12.956,0 50,0 v 0 c 37.045,0 50,12.961 50,50 v 0 c 0,37.044 -12.955,50 -50,50 z"
               inkscape:connector-curvature="0" /></g></g></g></g><g
       id="g34"><g
         clip-path="url(#clipPath40)"
         id="g36"><g
           id="g42"><g
             id="g44" /><g
             mask="url(#mask58)"
             id="g70"><g
               id="g72"><path
                 id="path82"
                 style="fill:url(#linearGradient80);stroke:none"
                 d="M 39.165,50 29.9,40.736 57.505,13.13 51.543,13.253 64.102,0.796 c 13.493,1.692 22.593,6.219 28.25,14.533 v 0 L 48.423,59.258 Z"
                 inkscape:connector-curvature="0" /></g></g></g></g></g><g
       id="g84"><g
         clip-path="url(#clipPath90)"
         id="g86"><g
           id="g92"><g
             id="g94" /><g
             mask="url(#mask108)"
             id="g120"><g
               id="g122"><path
                 id="path132"
                 style="fill:url(#linearGradient130);stroke:none"
                 d="M 60.835,77.5 51.566,68.231 96.385,23.412 C 98.881,30.406 100,39.165 100,50 v 0 c 0,2.451 -0.06,4.789 -0.177,7.032 v 0 L 70.095,86.76 Z"
                 inkscape:connector-curvature="0" /></g></g></g></g></g><g
       id="g134"><g
         clip-path="url(#clipPath140)"
         id="g136"><g
           transform="translate(51.0801,50)"
           id="g142"><path
             id="path144"
             style="fill:#ffffff;fill-opacity:1;fill-rule:nonzero;stroke:none"
             d="m 0,0 c 0,-1.02 -0.04,-1.96 -0.13,-2.83 -0.66,-6.67 -3.97,-9.09 -11.78,-9.09 -7.81,0 -11.13,2.42 -11.79,9.09 -0.09,0.87 -0.13,1.81 -0.13,2.83 0,1.02 0.04,1.96 0.13,2.83 0.66,6.67 3.98,9.09 11.79,9.09 7.81,0 11.12,-2.42 11.78,-9.09 C -0.04,1.96 0,1.02 0,0"
             inkscape:connector-curvature="0" /></g><g
           transform="translate(72.75,77.5)"
           id="g146"><path
             id="path148"
             style="fill:#ffffff;fill-opacity:1;fill-rule:nonzero;stroke:none"
             d="m 0,0 c 0,-1.02 -0.04,-1.96 -0.13,-2.83 -0.66,-6.67 -3.98,-9.09 -11.79,-9.09 -7.81,0 -11.12,2.42 -11.78,9.09 -0.09,0.87 -0.13,1.81 -0.13,2.83 0,1.02 0.04,1.96 0.13,2.83 0.66,6.67 3.97,9.09 11.78,9.09 7.81,0 11.13,-2.42 11.79,-9.09 C -0.04,1.96 0,1.02 0,0"
             inkscape:connector-curvature="0" /></g><g
           id="g150"><g
             id="g152" /><g
             id="g164"><g
               style="opacity:0.5"
               id="g162"
               clip-path="url(#clipPath156)"><g
                 id="g160"
                 transform="translate(5.1553,80.3301)"><path
                   id="path158"
                   style="fill:#ffffff;fill-opacity:1;fill-rule:nonzero;stroke:none"
                   d="m 0,0 c -0.835,-1.75 -1.554,-3.641 -2.175,-5.66 h 46.07 c -0.09,0.87 -0.13,1.81 -0.13,2.83 0,1.02 0.04,1.96 0.13,2.83 z"
                   inkscape:connector-curvature="0" /></g></g></g></g><g
           id="g166"><g
             id="g168" /><g
             id="g180"><g
               style="opacity:0.5"
               id="g178"
               clip-path="url(#clipPath172)"><g
                 id="g176"
                 transform="translate(51.0801,50)"><path
                   id="path174"
                   style="fill:#ffffff;fill-opacity:1;fill-rule:nonzero;stroke:none"
                   d="m 0,0 c 0,-1.02 -0.04,-1.96 -0.13,-2.83 h 49.018 c 0.018,0.931 0.032,1.867 0.032,2.83 0,0.963 -0.014,1.899 -0.032,2.83 H -0.13 C -0.04,1.96 0,1.02 0,0"
                   inkscape:connector-curvature="0" /></g></g></g></g><g
           id="g182"><g
             id="g184" /><g
             id="g196"><g
               style="opacity:0.5"
               id="g194"
               clip-path="url(#clipPath188)"><g
                 id="g192"
                 transform="translate(2.9805,25.3301)"><path
                   id="path190"
                   style="fill:#ffffff;fill-opacity:1;fill-rule:nonzero;stroke:none"
                   d="m 0,0 c 0.622,-2.02 1.34,-3.91 2.175,-5.66 h 43.894 c -0.09,0.87 -0.13,1.81 -0.13,2.83 0,1.019 0.04,1.96 0.13,2.83 z"
                   inkscape:connector-curvature="0" /></g></g></g></g><g
           transform="translate(72.75,22.5)"
           id="g198"><path
             id="path200"
             style="fill:#ffffff;fill-opacity:1;fill-rule:nonzero;stroke:none"
             d="m 0,0 c 0,-1.02 -0.04,-1.96 -0.13,-2.83 -0.66,-6.67 -3.98,-9.09 -11.79,-9.09 -7.81,0 -11.12,2.42 -11.78,9.09 -0.09,0.87 -0.13,1.81 -0.13,2.83 0,1.02 0.04,1.96 0.13,2.83 0.66,6.67 3.97,9.09 11.78,9.09 7.81,0 11.13,-2.42 11.79,-9.09 C -0.04,1.96 0,1.02 0,0"
             inkscape:connector-curvature="0" /></g></g></g></g></svg>