<?xml version="1.0" encoding="UTF-8" standalone="no"?>
<svg
   xmlns:dc="http://purl.org/dc/elements/1.1/"
   xmlns:cc="http://creativecommons.org/ns#"
   xmlns:rdf="http://www.w3.org/1999/02/22-rdf-syntax-ns#"
   xmlns:svg="http://www.w3.org/2000/svg"
   xmlns="http://www.w3.org/2000/svg"
   xmlns:sodipodi="http://sodipodi.sourceforge.net/DTD/sodipodi-0.dtd"
   xmlns:inkscape="http://www.inkscape.org/namespaces/inkscape"
   viewBox="0 0 133.33333 133.33333"
   height="133.33333"
   width="133.33333"
   xml:space="preserve"
   id="svg2"
   version="1.1"
   sodipodi:docname="harbour-chargemon.svg"
   inkscape:version="0.92.2 2405546, 2018-03-11"><sodipodi:namedview
     pagecolor="#ffffff"
     bordercolor="#666666"
     borderopacity="1"
     objecttolerance="10"
     gridtolerance="10"
     guidetolerance="10"
     inkscape:pageopacity="0"
     inkscape:pageshadow="2"
     inkscape:window-width="1366"
     inkscape:window-height="706"
     id="namedview50"
     showgrid="false"
     inkscape:zoom="1.7700001"
     inkscape:cx="66.666664"
     inkscape:cy="66.666664"
     inkscape:window-x="0"
     inkscape:window-y="34"
     inkscape:window-maximized="1"
     inkscape:current-layer="svg2" /><metadata
     id="metadata8"><rdf:RDF><cc:Work
         rdf:about=""><dc:format>image/svg+xml</dc:format><dc:type
           rdf:resource="http://purl.org/dc/dcmitype/StillImage" /></cc:Work></rdf:RDF></metadata><defs
     id="defs6"><clipPath
       id="clipPath18"
       clipPathUnits="userSpaceOnUse"><path
         id="path16"
         d="M 50,100 C 12.956,100 0,87.039 0,50 v 0 C 0,12.961 12.956,0 50,0 v 0 c 37.045,0 50,12.961 50,50 v 0 c 0,37.044 -12.955,50 -50,50 z" /></clipPath><linearGradient
       id="linearGradient30"
       spreadMethod="pad"
       gradientTransform="matrix(77.78125,-77.78125,-77.78125,-77.78125,11.109896,88.891144)"
       gradientUnits="userSpaceOnUse"
       y2="0"
       x2="1"
       y1="0"
       x1="0"><stop
         id="stop24"
         offset="0"
         style="stop-opacity:1;stop-color:#75b6eb" /><stop
         id="stop26"
         offset="0.00000017"
         style="stop-opacity:1;stop-color:#75b6eb" /><stop
         id="stop28"
         offset="1"
         style="stop-opacity:1;stop-color:#3e6bbf" /></linearGradient><clipPath
       id="clipPath40"
       clipPathUnits="userSpaceOnUse"><path
         id="path38"
         d="M 17.916,47.5 30.625,34.792 24.834,18.5 43.169,0.165 C 45.349,0.056 47.624,0 50,0 v 0 c 37.045,0 50,12.961 50,50 v 0 c 0,1.504 -0.029,2.953 -0.073,4.378 v 0 L 78.605,75.7 76.1,74.788 69.976,80.913 55.375,68.709 42.583,81.5 Z" /></clipPath><clipPath
       id="clipPath48"
       clipPathUnits="userSpaceOnUse"><path
         id="path46"
         d="M -32768,32767 H 32767 V -32768 H -32768 Z" /></clipPath><linearGradient
       id="linearGradient56"
       spreadMethod="pad"
       gradientTransform="matrix(58.348965,-58.348965,-58.348965,-58.348965,29.95137,68.868057)"
       gradientUnits="userSpaceOnUse"
       y2="0"
       x2="1"
       y1="0"
       x1="0"><stop
         id="stop50"
         offset="0"
         style="stop-opacity:0.11999695;stop-color:#ffffff" /><stop
         id="stop52"
         offset="0.00000018"
         style="stop-opacity:0.11999695;stop-color:#ffffff" /><stop
         id="stop54"
         offset="1"
         style="stop-opacity:0;stop-color:#ffffff" /></linearGradient><mask
       id="mask58"
       height="1"
       width="1"
       y="0"
       x="0"
       maskUnits="userSpaceOnUse"><g
         id="g68"><g
           id="g66"
           clip-path="url(#clipPath48)"><g
             id="g64"><g
               id="g62"><path
                 id="path60"
                 style="fill:url(#linearGradient56);stroke:none"
                 d="M -32768,32767 H 32767 V -32768 H -32768 Z" /></g></g></g></g></mask><linearGradient
       id="linearGradient80"
       spreadMethod="pad"
       gradientTransform="matrix(58.348965,-58.348965,-58.348965,-58.348965,29.95137,68.868057)"
       gradientUnits="userSpaceOnUse"
       y2="0"
       x2="1"
       y1="0"
       x1="0"><stop
         id="stop74"
         offset="0"
         style="stop-opacity:1;stop-color:#000000" /><stop
         id="stop76"
         offset="0.00000018"
         style="stop-opacity:1;stop-color:#000000" /><stop
         id="stop78"
         offset="1"
         style="stop-opacity:1;stop-color:#000000" /></linearGradient><clipPath
       id="clipPath90"
       clipPathUnits="userSpaceOnUse"><path
         id="path88"
         d="M 0,100 H 100 V 0 H 0 Z" /></clipPath></defs><g
     transform="matrix(1.25,0,0,-1.25,4,129.33333)"
     id="g10"><g
       id="g12"><g
         clip-path="url(#clipPath18)"
         id="g14"><g
           id="g20"><g
             id="g22"><path
               id="path32"
               style="fill:url(#linearGradient30);stroke:none"
               d="M 50,100 C 12.956,100 0,87.039 0,50 v 0 C 0,12.961 12.956,0 50,0 v 0 c 37.045,0 50,12.961 50,50 v 0 c 0,37.044 -12.955,50 -50,50 z"
               inkscape:connector-curvature="0" /></g></g></g></g><g
       id="g34"><g
         clip-path="url(#clipPath40)"
         id="g36"><g
           id="g42"><g
             id="g44" /><g
             mask="url(#mask58)"
             id="g70"><g
               id="g72"><path
                 id="path82"
                 style="fill:url(#linearGradient80);stroke:none"
                 d="M 17.916,47.5 30.625,34.792 24.834,18.5 43.169,0.165 C 45.349,0.056 47.624,0 50,0 v 0 c 37.045,0 50,12.961 50,50 v 0 c 0,1.504 -0.029,2.953 -0.073,4.378 v 0 L 78.605,75.7 76.1,74.788 69.976,80.913 55.375,68.709 42.583,81.5 Z"
                 inkscape:connector-curvature="0" /></g></g></g></g></g><g
       id="g84"><g
         clip-path="url(#clipPath90)"
         id="g86"><g
           transform="translate(74.917,77.25)"
           id="g92"><path
             id="path94"
             style="fill:#63e082;fill-opacity:1;fill-rule:nonzero;stroke:none"
             d="m 0,0 h -3.417 c 0,2.854 -2.313,5.167 -5.167,5.167 h -5.166 c -2.854,0 -5.167,-2.313 -5.167,-5.167 h -3.417 C -25.187,0 -27.5,-2.313 -27.5,-5.167 V -19.75 h 11.888 L -27.5,-36.137 V -54.5 c 0,-2.854 2.313,-5.167 5.166,-5.167 H 0 c 2.854,0 5.166,2.313 5.166,5.167 V -5.167 C 5.166,-2.313 2.854,0 0,0"
             inkscape:connector-curvature="0" /></g><g
           transform="translate(49.5,52.5)"
           id="g96"><path
             id="path98"
             style="fill:#ffd857;fill-opacity:1;fill-rule:nonzero;stroke:none"
             d="m 0,0 h -12.034 l 5.117,29 -24.666,-34 h 12.034 l -5.118,-29 z"
             inkscape:connector-curvature="0" /></g></g></g></g></svg>