<?xml version="1.0" encoding="UTF-8" standalone="no"?>
<!-- Generator: Adobe Illustrator 22.0.1, SVG Export Plug-In . SVG Version: 6.00 Build 0)  -->

<svg
   xmlns:dc="http://purl.org/dc/elements/1.1/"
   xmlns:cc="http://creativecommons.org/ns#"
   xmlns:rdf="http://www.w3.org/1999/02/22-rdf-syntax-ns#"
   xmlns:svg="http://www.w3.org/2000/svg"
   xmlns="http://www.w3.org/2000/svg"
   xmlns:sodipodi="http://sodipodi.sourceforge.net/DTD/sodipodi-0.dtd"
   xmlns:inkscape="http://www.inkscape.org/namespaces/inkscape"
   version="1.1"
   id="图层_1"
   x="0px"
   y="0px"
   viewBox="0 0 192 192"
   style="enable-background:new 0 0 192 192;"
   xml:space="preserve"
   sodipodi:docname="harbour-cargodock.svg"
   inkscape:version="0.92.2 2405546, 2018-03-11"><metadata
   id="metadata74"><rdf:RDF><cc:Work
       rdf:about=""><dc:format>image/svg+xml</dc:format><dc:type
         rdf:resource="http://purl.org/dc/dcmitype/StillImage" /></cc:Work></rdf:RDF></metadata><defs
   id="defs72" /><sodipodi:namedview
   pagecolor="#ffffff"
   bordercolor="#666666"
   borderopacity="1"
   objecttolerance="10"
   gridtolerance="10"
   guidetolerance="10"
   inkscape:pageopacity="0"
   inkscape:pageshadow="2"
   inkscape:window-width="1366"
   inkscape:window-height="706"
   id="namedview70"
   showgrid="false"
   inkscape:zoom="1.2291667"
   inkscape:cx="96"
   inkscape:cy="96"
   inkscape:window-x="0"
   inkscape:window-y="34"
   inkscape:window-maximized="1"
   inkscape:current-layer="图层_1-2" />
<style
   type="text/css"
   id="style2">
	.st0{fill:none;}
	.st1{opacity:1.000000e-02;enable-background:new    ;}
	.st2{opacity:2.000000e-02;enable-background:new    ;}
	.st3{opacity:4.000000e-02;enable-background:new    ;}
	.st4{opacity:6.000000e-02;enable-background:new    ;}
	.st5{fill:#0071CE;}
	.st6{fill:#008CFF;}
	.st7{fill:url(#SVGID_1_);}
	.st8{fill:url(#SVGID_2_);}
	.st9{fill:url(#SVGID_3_);}
	.st10{fill:#0064BF;}
	.st11{opacity:0.2;fill:#50A7E2;enable-background:new    ;}
	.st12{fill:#96C1EA;}
	.st13{fill:url(#SVGID_4_);}
	.st14{fill:#E4EBEF;}
	.st15{fill:url(#SVGID_5_);}
</style>
<title
   id="title4">oneplus_filemanager</title>
<g
   id="图层_2_1_">
	<g
   id="图层_1-2">
		<rect
   class="st0"
   width="192"
   height="192"
   id="rect6"
   x="0"
   y="0"
   style="fill:none" />
		
		
		
		
		<path
   class="st5"
   d="m 186,96 c 0,66.7 -23.3,90 -90,90 C 29.3,186 6,162.7 6,96 6,29.3 29.3,6 96,6 c 66.7,0 90,23.3 90,90 z"
   id="path16"
   inkscape:connector-curvature="0"
   style="fill:#0071ce" />
		<path
   class="st6"
   d="m 110,88 c 8,-8 12,-11 12,-17 V 7.5 C 113.4,6.4 104.7,6 96,6 29.3,6 6,29.3 6,96 c 0,66.7 23.3,90 90,90 0.7,0 1.3,0 2,0 v -81 c 0,-6 4,-9 12,-17 z"
   id="path18"
   inkscape:connector-curvature="0"
   style="fill:#008cff" />
		
			<linearGradient
   id="SVGID_1_"
   gradientUnits="userSpaceOnUse"
   x1="166.0125"
   y1="75.987503"
   x2="25.987499"
   y2="216.0125"
   gradientTransform="matrix(1,0,0,-1,0,242)">
			<stop
   offset="0"
   style="stop-color:#000000;stop-opacity:0.1"
   id="stop20" />
			<stop
   offset="0.5"
   style="stop-color:#808080;stop-opacity:5.000000e-02"
   id="stop22" />
			<stop
   offset="1"
   style="stop-color:#FFFFFF;stop-opacity:0.1"
   id="stop24" />
		</linearGradient>
		<path
   class="st7"
   d="m 186,96 c 0,66.7 -23.3,90 -90,90 C 29.3,186 6,162.7 6,96 6,29.3 29.3,6 96,6 c 66.7,0 90,23.3 90,90 z"
   id="path27"
   inkscape:connector-curvature="0"
   style="fill:url(#SVGID_1_)" />
		
			<linearGradient
   id="SVGID_2_"
   gradientUnits="userSpaceOnUse"
   x1="166.0127"
   y1="75.987701"
   x2="25.987301"
   y2="216.0123"
   gradientTransform="matrix(1,0,0,-1,0,242)">
			<stop
   offset="0"
   style="stop-color:#000000;stop-opacity:4.000000e-02"
   id="stop29" />
			<stop
   offset="0.5"
   style="stop-color:#808080;stop-opacity:0"
   id="stop31" />
			<stop
   offset="1"
   style="stop-color:#FFFFFF;stop-opacity:0.1"
   id="stop33" />
		</linearGradient>
		<path
   class="st8"
   d="M 96,6 C 29.3,6 6,29.3 6,96 c 0,66.7 23.3,90 90,90 66.7,0 90,-23.3 90,-90 C 186,29.3 162.7,6 96,6 Z m 68.6,158.6 C 151.2,178 130,184 96,184 62,184 40.8,178 27.4,164.6 14,151.2 8,130 8,96 8,62 14,40.8 27.4,27.4 40.8,14 62,8 96,8 130,8 151.2,14 164.6,27.4 178,40.8 184,62 184,96 c 0,34 -6,55.2 -19.4,68.6 z"
   id="path36"
   inkscape:connector-curvature="0"
   style="fill:url(#SVGID_2_)" />
		
			<linearGradient
   id="SVGID_3_"
   gradientUnits="userSpaceOnUse"
   x1="172.5137"
   y1="32.494301"
   x2="71.503998"
   y2="133.504"
   gradientTransform="matrix(1,0,0,-1,0,192)">
			<stop
   offset="0"
   style="stop-color:#000000;stop-opacity:2.000000e-02"
   id="stop38" />
			<stop
   offset="1"
   style="stop-color:#000000;stop-opacity:0.14"
   id="stop40" />
		</linearGradient>
		<path
   class="st9"
   d="m 186,96 c 0.1,-8.5 -0.4,-17 -1.4,-25.4 L 122.5,8.5 122,8 v 63 c 0,6 -4,9 -12,17 -8,8 -12,11 -12,17 v 81 c 65.2,-0.5 88,-24 88,-90 z"
   id="path43"
   inkscape:connector-curvature="0"
   style="fill:url(#SVGID_3_)" />
		<path
   class="st10"
   d="m 106,28 c -2.2,0 -4,1.8 -4,4 v 32 c 0,2.2 1.8,4 4,4 2.2,0 4,-1.8 4,-4 V 32 c 0,-2.2 -1.8,-4 -4,-4 z"
   id="path45"
   inkscape:connector-curvature="0"
   style="fill:#0064bf" />
		<path
   class="st11"
   d="m 107,30 c -2.2,0 -4,1.8 -4,4 v 32 c 0,2.2 1.8,4 4,4 2.2,0 4,-1.8 4,-4 V 34 c 0,-2.2 -1.8,-4 -4,-4 z"
   id="path47"
   inkscape:connector-curvature="0"
   style="opacity:0.2;fill:#50a7e2;enable-background:new" />
		<path
   class="st12"
   d="m 148,52 h -22 v 19 c 0,6 -4,9 -12,17 -8,8 -12,11 -12,17 v 35 h 46 c 2.2,0 4,-1.8 4,-4 V 56 c 0,-2.2 -1.8,-4 -4,-4 z"
   id="path49"
   inkscape:connector-curvature="0"
   style="fill:#96c1ea" />
		
			<linearGradient
   id="SVGID_4_"
   gradientUnits="userSpaceOnUse"
   x1="102"
   y1="96"
   x2="152"
   y2="96"
   gradientTransform="matrix(1,0,0,-1,0,192)">
			<stop
   offset="0.6"
   style="stop-color:#000000;stop-opacity:8.000000e-02"
   id="stop51" />
			<stop
   offset="0.9"
   style="stop-color:#000000;stop-opacity:0"
   id="stop53" />
		</linearGradient>
		<path
   class="st13"
   d="m 148,52 h -22 v 19 c 0,6 -4,9 -12,17 -8,8 -12,11 -12,17 v 35 h 46 c 2.2,0 4,-1.8 4,-4 V 56 c 0,-2.2 -1.8,-4 -4,-4 z"
   id="path56"
   inkscape:connector-curvature="0"
   style="fill:url(#SVGID_4_)" />
		<path
   class="st14"
   d="m 130,40 h -8 v 31 c 0,6 -4,9 -12,17 -8,8 -12,11 -12,17 v 47 h 32 c 2.2,0 4,-1.8 4,-4 V 44 c 0,-2.2 -1.8,-4 -4,-4 z"
   id="path58"
   inkscape:connector-curvature="0"
   style="fill:#e4ebef" />
		
			<linearGradient
   id="SVGID_5_"
   gradientUnits="userSpaceOnUse"
   x1="98"
   y1="96"
   x2="134"
   y2="96"
   gradientTransform="matrix(1,0,0,-1,0,192)">
			<stop
   offset="0"
   style="stop-color:#000000;stop-opacity:8.000000e-02"
   id="stop60" />
			<stop
   offset="0.2"
   style="stop-color:#000000;stop-opacity:0"
   id="stop62" />
		</linearGradient>
		<path
   class="st15"
   d="m 130,40 h -8 v 31 c 0,6 -4,9 -12,17 -8,8 -12,11 -12,17 v 47 h 32 c 2.2,0 4,-1.8 4,-4 V 44 c 0,-2.2 -1.8,-4 -4,-4 z"
   id="path65"
   inkscape:connector-curvature="0"
   style="fill:url(#SVGID_5_)" />
	</g>
</g>
</svg>