<svg xmlns="http://www.w3.org/2000/svg" xmlns:xlink="http://www.w3.org/1999/xlink" width="192" height="192" viewBox="0 0 192 192">
  <defs>
    <style>
      .cls-1 {
        opacity: 0.01;
      }

      .cls-1, .cls-2, .cls-3, .cls-4 {
        isolation: isolate;
      }

      .cls-2 {
        opacity: 0.02;
      }

      .cls-3 {
        opacity: 0.04;
      }

      .cls-4 {
        opacity: 0.06;
      }

      .cls-5 {
        fill: #2cbf61;
      }

      .cls-6 {
        fill: #00ad98;
        opacity: 0.6;
      }

      .cls-7 {
        fill: url(#未命名的渐变_28);
      }

      .cls-8 {
        fill: url(#未命名的渐变_2);
      }

      .cls-9 {
        fill: none;
      }

      .cls-10 {
        fill: url(#未命名的渐变_41);
      }

      .cls-11 {
        fill: #14dd90;
      }

      .cls-12 {
        fill: url(#未命名的渐变_17);
      }

      .cls-13 {
        fill: #fafafa;
      }

      .cls-14 {
        fill: #fff;
      }

      .cls-15 {
        fill: url(#未命名的渐变_39);
      }

      .cls-16 {
        fill: #3c9;
      }
    </style>
    <linearGradient id="未命名的渐变_28" data-name="未命名的渐变 28" x1="166.004" y1="27.998" x2="25.998" y2="168.004" gradientTransform="matrix(1, 0, 0, -1, 0, 194)" gradientUnits="userSpaceOnUse">
      <stop offset="0" stop-opacity="0.1"/>
      <stop offset="0.5" stop-color="gray" stop-opacity="0.05"/>
      <stop offset="1" stop-color="#fff" stop-opacity="0.12"/>
    </linearGradient>
    <linearGradient id="未命名的渐变_2" data-name="未命名的渐变 2" x1="166.012" y1="75.988" x2="25.987" y2="216.012" gradientTransform="matrix(1, 0, 0, -1, 0, 242)" gradientUnits="userSpaceOnUse">
      <stop offset="0" stop-opacity="0.04"/>
      <stop offset="0.5" stop-color="gray" stop-opacity="0"/>
      <stop offset="1" stop-color="#fff" stop-opacity="0.1"/>
    </linearGradient>
    <linearGradient id="未命名的渐变_41" data-name="未命名的渐变 41" x1="163.253" y1="168.753" x2="87.75" y2="93.25" gradientUnits="userSpaceOnUse">
      <stop offset="0" stop-opacity="0.02"/>
      <stop offset="1" stop-opacity="0.1"/>
    </linearGradient>
    <linearGradient id="未命名的渐变_17" data-name="未命名的渐变 17" x1="146.25" y1="146.75" x2="87.25" y2="87.75" xlink:href="#未命名的渐变_41"/>
    <linearGradient id="未命名的渐变_39" data-name="未命名的渐变 39" x1="96" y1="92" x2="150" y2="92" gradientUnits="userSpaceOnUse">
      <stop offset="0" stop-opacity="0.08"/>
      <stop offset="0.25" stop-opacity="0"/>
    </linearGradient>
  </defs>
  <title>seekbooks</title>
  <g id="图层_2" data-name="图层 2">
    <g id="图层_1-2" data-name="图层 1">
      <g>
        <path class="cls-1" d="M96,190C27.3,190,3,165.7,3,97S27.3,4,96,4s93,24.3,93,93S164.7,190,96,190Z"/>
        <path class="cls-2" d="M96,189C28.1,189,4,164.9,4,97S28.1,5,96,5s92,24.1,92,92S163.9,189,96,189Z"/>
        <path class="cls-3" d="M96,188C28.8,188,5,164.2,5,97S28.8,6,96,6s91,23.8,91,91S163.2,188,96,188Z"/>
        <path class="cls-4" d="M186,97c0,66.7-23.3,90-90,90S6,163.7,6,97,29.3,7,96,7,186,30.3,186,97Z"/>
      </g>
      <path class="cls-5" d="M186,96c0,66.7-23.3,90-90,90S6,162.7,6,96,29.3,6,96,6,186,29.3,186,96Z"/>
      <path class="cls-6" d="M96,6C29.32,6,6,29.33,6,96a205.085,205.085,0,0,0,1.43,25.532C79.217,147.794,118.3,127.344,153.088,49.29q6.056-13.586,10.24-25.785C149.064,11.144,127.314,6,96,6Z"/>
      <path class="cls-7" d="M186,96c0,66.67-23.32,90-90,90S6,162.67,6,96,29.32,6,96,6,186,29.32,186,96Z"/>
      <path class="cls-8" d="M96,6C29.3,6,6,29.3,6,96s23.3,90,90,90,90-23.3,90-90S162.7,6,96,6Zm68.6,158.6C151.2,178,130,184,96,184s-55.2-6-68.6-19.4S8,130,8,96s6-55.2,19.4-68.6S62,8,96,8s55.2,6,68.6,19.4S184,62,184,96,178,151.2,164.6,164.6Z"/>
      <rect class="cls-9" width="192" height="192"/>
      <path class="cls-10" d="M40,141l44.753,44.753Q90.162,186,96,186c66.68,0,90-23.33,90-90L150,60Z"/>
      <path class="cls-11" d="M137.482,58c-7.26-3-11.408-5-21.778-5C103.259,53,96,66,96,66S88.741,53,76.3,53c-10.37,0-14.518,2-21.778,5A66.834,66.834,0,0,1,40,62v79s9.433-.13,16.556-3c7.444-3,10.407-5,18.7-5,12.741,0,16.593,7,16.593,7h8.3s3.852-7,16.593-7c8.3,0,11.259,2,18.7,5,7.123,2.87,16.556,3,16.556,3V62A66.834,66.834,0,0,1,137.482,58Z"/>
      <path class="cls-12" d="M42,133l7.057,7.057a38.882,38.882,0,0,0,7.5-2.057c7.444-3,10.407-5,18.7-5,12.741,0,16.593,7,16.593,7h8.3s3.852-7,16.593-7c8.3,0,11.259,2,18.7,5,7.123,2.87,16.556,3,16.556,3V62s-1.533-.214-3.88-.729Z"/>
      <path class="cls-13" d="M96,64s7-13,19-13c10,0,14,2,21,5a62.609,62.609,0,0,0,14,4v73s-9-1-15-4c-5.657-2.828-11-4-19-4a23.368,23.368,0,0,0-17,7H96Z"/>
      <path class="cls-13" d="M96,64S89,51,77,51c-10,0-14,2-21,5a62.609,62.609,0,0,1-14,4v73s9-1,15-4c5.657-2.828,11-4,19-4a23.368,23.368,0,0,1,17,7h3Z"/>
      <path class="cls-14" d="M97,66s7-13,19-13c10,0,14,2,21,5a62.835,62.835,0,0,0,13,3.833V60a62.609,62.609,0,0,1-14-4c-7-3-11-5-21-5-12,0-19,13-19,13v68h1Z"/>
      <path class="cls-15" d="M96,64s7-13,19-13c10,0,14,2,21,5a62.609,62.609,0,0,0,14,4v73s-9-1-15-4c-5.657-2.828-11-4-19-4a23.368,23.368,0,0,0-17,7H96Z"/>
      <rect class="cls-16" x="95" y="65" width="2" height="64" rx="1" ry="1" transform="translate(192 194) rotate(180)"/>
      <path class="cls-14" d="M43,62a62.609,62.609,0,0,0,14-4c7-3,11-5,21-5,9.355,0,15.67,7.9,18,11.382V64S89,51,77,51c-10,0-14,2-21,5a62.609,62.609,0,0,1-14,4v73s.374-.042,1-.131Z"/>
    </g>
  </g>
</svg>
