<?xml version="1.0" encoding="UTF-8" standalone="no"?>
<svg
   xmlns:dc="http://purl.org/dc/elements/1.1/"
   xmlns:cc="http://creativecommons.org/ns#"
   xmlns:rdf="http://www.w3.org/1999/02/22-rdf-syntax-ns#"
   xmlns:svg="http://www.w3.org/2000/svg"
   xmlns="http://www.w3.org/2000/svg"
   xmlns:sodipodi="http://sodipodi.sourceforge.net/DTD/sodipodi-0.dtd"
   xmlns:inkscape="http://www.inkscape.org/namespaces/inkscape"
   viewBox="0 0 133.33333 133.33333"
   height="133.33333"
   width="133.33333"
   xml:space="preserve"
   id="svg2"
   version="1.1"
   sodipodi:docname="harbour-laufhelden.svg"
   inkscape:version="0.92.2 2405546, 2018-03-11"><sodipodi:namedview
     pagecolor="#ffffff"
     bordercolor="#666666"
     borderopacity="1"
     objecttolerance="10"
     gridtolerance="10"
     guidetolerance="10"
     inkscape:pageopacity="0"
     inkscape:pageshadow="2"
     inkscape:window-width="1366"
     inkscape:window-height="706"
     id="namedview50"
     showgrid="false"
     inkscape:zoom="1.7700001"
     inkscape:cx="66.666664"
     inkscape:cy="66.666664"
     inkscape:window-x="0"
     inkscape:window-y="34"
     inkscape:window-maximized="1"
     inkscape:current-layer="svg2" /><metadata
     id="metadata8"><rdf:RDF><cc:Work
         rdf:about=""><dc:format>image/svg+xml</dc:format><dc:type
           rdf:resource="http://purl.org/dc/dcmitype/StillImage" /></cc:Work></rdf:RDF></metadata><defs
     id="defs6"><clipPath
       id="clipPath18"
       clipPathUnits="userSpaceOnUse"><path
         id="path16"
         d="M 50,100 C 12.956,100 0,87.039 0,50 v 0 C 0,12.961 12.956,0 50,0 v 0 c 37.045,0 50,12.961 50,50 v 0 c 0,37.044 -12.955,50 -50,50 z" /></clipPath><linearGradient
       id="linearGradient30"
       spreadMethod="pad"
       gradientTransform="matrix(77.78125,-77.78125,-77.78125,-77.78125,11.109896,88.891144)"
       gradientUnits="userSpaceOnUse"
       y2="0"
       x2="1"
       y1="0"
       x1="0"><stop
         id="stop24"
         offset="0"
         style="stop-opacity:1;stop-color:#86f09f" /><stop
         id="stop26"
         offset="0.00000039"
         style="stop-opacity:1;stop-color:#86f09f" /><stop
         id="stop28"
         offset="1"
         style="stop-opacity:1;stop-color:#41ad5b" /></linearGradient><clipPath
       id="clipPath40"
       clipPathUnits="userSpaceOnUse"><path
         id="path38"
         d="M 72.454,72.084 66.68,66.309 83.946,49.044 81.751,47.971 69.895,59.827 50.964,70.834 37.57,59.792 48.306,49.055 19.509,20.902 40.046,0.366 C 43.152,0.12 46.465,0 50,0 v 0 c 37.045,0 50,12.961 50,50 v 0 c 0,2.154 -0.049,4.22 -0.139,6.213 v 0 l -21.638,21.64 z" /></clipPath><clipPath
       id="clipPath48"
       clipPathUnits="userSpaceOnUse"><path
         id="path46"
         d="M -32768,32767 H 32767 V -32768 H -32768 Z" /></clipPath><linearGradient
       id="linearGradient56"
       spreadMethod="pad"
       gradientTransform="matrix(50.002285,-50.002285,-50.002285,-50.002285,38.009934,60.233261)"
       gradientUnits="userSpaceOnUse"
       y2="0"
       x2="1"
       y1="0"
       x1="0"><stop
         id="stop50"
         offset="0"
         style="stop-opacity:0.11999695;stop-color:#ffffff" /><stop
         id="stop52"
         offset="0.00000039"
         style="stop-opacity:0.11999695;stop-color:#ffffff" /><stop
         id="stop54"
         offset="1"
         style="stop-opacity:0;stop-color:#ffffff" /></linearGradient><mask
       id="mask58"
       height="1"
       width="1"
       y="0"
       x="0"
       maskUnits="userSpaceOnUse"><g
         id="g68"><g
           id="g66"
           clip-path="url(#clipPath48)"><g
             id="g64"><g
               id="g62"><path
                 id="path60"
                 style="fill:url(#linearGradient56);stroke:none"
                 d="M -32768,32767 H 32767 V -32768 H -32768 Z" /></g></g></g></g></mask><linearGradient
       id="linearGradient80"
       spreadMethod="pad"
       gradientTransform="matrix(50.002285,-50.002285,-50.002285,-50.002285,38.009934,60.233261)"
       gradientUnits="userSpaceOnUse"
       y2="0"
       x2="1"
       y1="0"
       x1="0"><stop
         id="stop74"
         offset="0"
         style="stop-opacity:1;stop-color:#000000" /><stop
         id="stop76"
         offset="0.00000039"
         style="stop-opacity:1;stop-color:#000000" /><stop
         id="stop78"
         offset="1"
         style="stop-opacity:1;stop-color:#000000" /></linearGradient><clipPath
       id="clipPath90"
       clipPathUnits="userSpaceOnUse"><path
         id="path88"
         d="M 0,100 H 100 V 0 H 0 Z" /></clipPath></defs><g
     transform="matrix(1.25,0,0,-1.25,4,129.33333)"
     id="g10"><g
       id="g12"><g
         clip-path="url(#clipPath18)"
         id="g14"><g
           id="g20"><g
             id="g22"><path
               id="path32"
               style="fill:url(#linearGradient30);stroke:none"
               d="M 50,100 C 12.956,100 0,87.039 0,50 v 0 C 0,12.961 12.956,0 50,0 v 0 c 37.045,0 50,12.961 50,50 v 0 c 0,37.044 -12.955,50 -50,50 z"
               inkscape:connector-curvature="0" /></g></g></g></g><g
       id="g34"><g
         clip-path="url(#clipPath40)"
         id="g36"><g
           id="g42"><g
             id="g44" /><g
             mask="url(#mask58)"
             id="g70"><g
               id="g72"><path
                 id="path82"
                 style="fill:url(#linearGradient80);stroke:none"
                 d="M 72.454,72.084 66.68,66.309 83.946,49.044 81.751,47.971 69.895,59.827 50.964,70.834 37.57,59.792 48.306,49.055 19.509,20.902 40.046,0.366 C 43.152,0.12 46.465,0 50,0 v 0 c 37.045,0 50,12.961 50,50 v 0 c 0,2.154 -0.049,4.22 -0.139,6.213 v 0 l -21.638,21.64 z"
                 inkscape:connector-curvature="0" /></g></g></g></g></g><g
       id="g84"><g
         clip-path="url(#clipPath90)"
         id="g86"><g
           transform="translate(82.2041,50.8877)"
           id="g92"><path
             id="path94"
             style="fill:#ffffff;fill-opacity:1;fill-rule:nonzero;stroke:none"
             d="m 0,0 h -12.31 v 8.94 l -17.108,17.108 c -1.006,1.006 -2.638,1.006 -3.644,0 L -44.635,14.475 c -1.538,-1.538 -1.538,-4.032 0,-5.57 1.538,-1.538 4.032,-1.538 5.57,0 l 7.825,7.825 4.841,-4.84 0.009,-0.01 -36.304,-36.296 c -1.538,-1.537 -1.539,-4.031 -10e-4,-5.569 1.538,-1.538 4.032,-1.537 5.57,10e-4 l 20.825,20.834 8.16,-8.161 -11.776,-3.614 c -2.079,-0.637 -3.247,-2.841 -2.609,-4.92 0.638,-2.079 2.841,-3.248 4.921,-2.609 l 15.774,4.844 4.422,1.361 c 1.854,0.571 2.435,2.911 1.063,4.284 L -27.81,-6.5 l 7.63,7.64 v -6.444 c 0,-1.423 1.154,-2.576 2.576,-2.576 L 0,-7.88 c 2.176,0 3.94,1.764 3.94,3.94 C 3.94,-1.764 2.176,0 0,0"
             inkscape:connector-curvature="0" /></g><g
           transform="translate(72.4541,63.9175)"
           id="g96"><path
             id="path98"
             style="fill:#ffffff;fill-opacity:1;fill-rule:nonzero;stroke:none"
             d="m 0,0 c 4.511,0 8.167,3.656 8.167,8.167 0,4.51 -3.656,8.166 -8.167,8.166 -4.51,0 -8.167,-3.656 -8.167,-8.166 C -8.167,3.656 -4.51,0 0,0"
             inkscape:connector-curvature="0" /></g></g></g></g></svg>