<svg xmlns="http://www.w3.org/2000/svg" xmlns:xlink="http://www.w3.org/1999/xlink" width="192" height="192" viewBox="0 0 192 192">
  <defs>
    <style>
      .cls-1 {
        fill: none;
      }

      .cls-2 {
        opacity: 0.01;
      }

      .cls-2, .cls-3, .cls-4, .cls-5 {
        isolation: isolate;
      }

      .cls-3 {
        opacity: 0.02;
      }

      .cls-4 {
        opacity: 0.04;
      }

      .cls-5 {
        opacity: 0.06;
      }

      .cls-6 {
        fill: #007aff;
      }

      .cls-7 {
        fill: url(#未命名的渐变_4);
      }

      .cls-8 {
        fill: url(#未命名的渐变_2);
      }

      .cls-9 {
        fill: #e9f5ff;
      }

      .cls-10 {
        fill: #fff;
      }

      .cls-11 {
        fill: url(#未命名的渐变_17);
      }

      .cls-12 {
        fill: #fafafa;
      }
    </style>
    <linearGradient id="未命名的渐变_4" data-name="未命名的渐变 4" x1="166.004" y1="27.998" x2="25.998" y2="168.004" gradientTransform="matrix(1, 0, 0, -1, 0, 194)" gradientUnits="userSpaceOnUse">
      <stop offset="0" stop-opacity="0.1"/>
      <stop offset="0.5" stop-color="gray" stop-opacity="0.05"/>
      <stop offset="1" stop-color="#fff" stop-opacity="0.12"/>
    </linearGradient>
    <linearGradient id="未命名的渐变_2" data-name="未命名的渐变 2" x1="166.012" y1="75.988" x2="25.987" y2="216.012" gradientTransform="matrix(1, 0, 0, -1, 0, 242)" gradientUnits="userSpaceOnUse">
      <stop offset="0" stop-opacity="0.04"/>
      <stop offset="0.5" stop-color="gray" stop-opacity="0"/>
      <stop offset="1" stop-color="#fff" stop-opacity="0.1"/>
    </linearGradient>
    <linearGradient id="未命名的渐变_17" data-name="未命名的渐变 17" x1="174.603" y1="155.397" x2="73.107" y2="53.9" gradientUnits="userSpaceOnUse">
      <stop offset="0" stop-opacity="0.02"/>
      <stop offset="1" stop-opacity="0.1"/>
    </linearGradient>
  </defs>
  <title>miui_weather</title>
  <g id="图层_2" data-name="图层 2">
    <g id="图层_1-2" data-name="图层 1">
      <rect class="cls-1" width="192" height="192"/>
      <g>
        <path class="cls-2" d="M96,190C27.3,190,3,165.7,3,97S27.3,4,96,4s93,24.3,93,93S164.7,190,96,190Z"/>
        <path class="cls-3" d="M96,189C28.1,189,4,164.9,4,97S28.1,5,96,5s92,24.1,92,92S163.9,189,96,189Z"/>
        <path class="cls-4" d="M96,188C28.8,188,5,164.2,5,97S28.8,6,96,6s91,23.8,91,91S163.2,188,96,188Z"/>
        <path class="cls-5" d="M186,97c0,66.7-23.3,90-90,90S6,163.7,6,97,29.3,7,96,7,186,30.3,186,97Z"/>
      </g>
      <path class="cls-6" d="M186,96c0,66.7-23.3,90-90,90S6,162.7,6,96,29.3,6,96,6,186,29.3,186,96Z"/>
      <path class="cls-7" d="M186,96c0,66.67-23.32,90-90,90S6,162.67,6,96,29.32,6,96,6,186,29.32,186,96Z"/>
      <path class="cls-8" d="M96,6C29.3,6,6,29.3,6,96s23.3,90,90,90,90-23.3,90-90S162.7,6,96,6Zm68.6,158.6C151.2,178,130,184,96,184s-55.2-6-68.6-19.4S8,130,8,96s6-55.2,19.4-68.6S62,8,96,8s55.2,6,68.6,19.4S184,62,184,96,178,151.2,164.6,164.6Z"/>
      <path class="cls-9" d="M35.518,138.154c6.687,0,13.665,4.46,17.874,8.712C60.3,131.22,76.77,120,96,120s35.7,11.22,42.608,26.866c4.209-4.252,11.187-8.712,17.874-8.712a21.65,21.65,0,0,1,20.08,12.781C164.354,176.139,139.338,186,96,186s-68.354-9.861-80.562-35.065A21.65,21.65,0,0,1,35.518,138.154Z"/>
      <path class="cls-10" d="M139.608,148.866c4.209-4.252,11.187-8.712,17.874-8.712A21.544,21.544,0,0,1,176.531,151c.01-.021.021-.04.031-.061a21.65,21.65,0,0,0-20.08-12.781c-6.671,0-13.632,4.439-17.844,8.683C138.978,147.506,139.305,148.18,139.608,148.866Z"/>
      <path class="cls-10" d="M36.518,140.154c6.687,0,13.665,4.46,17.874,8.712C61.3,133.22,77.77,122,97,122c18.013,0,33.6,9.845,41.183,23.95C131.046,130.785,114.852,120,96,120c-19.23,0-35.7,11.22-42.608,26.866-4.209-4.252-11.187-8.712-17.874-8.712a21.65,21.65,0,0,0-20.08,12.781c.326.673.666,1.329,1.01,1.98A21.648,21.648,0,0,1,36.518,140.154Z"/>
      <path class="cls-11" d="M148.63,177.628a62.065,62.065,0,0,0,7.863-4.121l17.015-17.015c6.2-9.974,9.882-22.787,11.5-38.893L121.955,54.544,107,53,94,60l14,14-2.2,1.3L80.33,49.836,60.863,66.144,70.719,76V99.3Z"/>
      <path class="cls-12" d="M145.364,49.778a7.656,7.656,0,0,0-1.77-2.572,8.245,8.245,0,0,0-2.656-1.687,8.772,8.772,0,0,0-3.291-.609,8.554,8.554,0,0,0-3.263.609,8.315,8.315,0,0,0-2.628,1.687,7.627,7.627,0,0,0-1.77,2.572,8.23,8.23,0,0,0-.636,3.264,8.019,8.019,0,0,0,.636,3.235,7.7,7.7,0,0,0,1.77,2.545,8.23,8.23,0,0,0,2.655,1.687,8.774,8.774,0,0,0,3.292.609,8.624,8.624,0,0,0,3.235-.609,8.245,8.245,0,0,0,2.656-1.687,7.656,7.656,0,0,0,1.77-2.572A8.244,8.244,0,0,0,146,52.986,8.106,8.106,0,0,0,145.364,49.778ZM140.828,56.2a4.476,4.476,0,0,1-6.251,0,4.615,4.615,0,0,1,0-6.306,4.127,4.127,0,0,1,3.07-1.273,4.3,4.3,0,0,1,4.425,4.37A4.4,4.4,0,0,1,140.828,56.2ZM78.493,100a2.252,2.252,0,0,0,2.252-2.252V51.131a2.252,2.252,0,0,0-2.252-2.252H74.1a2.261,2.261,0,0,0-1.154.317L57.881,58.182a2.252,2.252,0,0,0-.849,2.965L59.4,65.741a2.253,2.253,0,0,0,3.133.917l7.562-4.388V97.748A2.252,2.252,0,0,0,72.344,100Zm44.072,0a2.252,2.252,0,0,0,2.252-2.252v-5.27a2.252,2.252,0,0,0-2.252-2.252H103.413c.056-.135.115-.27.178-.4a15.142,15.142,0,0,1,1.914-2.995,29.644,29.644,0,0,1,3.107-3.26c1.256-1.147,2.728-2.365,4.379-3.625,1.39-1.066,2.745-2.2,4.03-3.364A29.846,29.846,0,0,0,120.6,72.7,18.85,18.85,0,0,0,123.21,68.1a15.186,15.186,0,0,0,1-5.549,15.994,15.994,0,0,0-.9-5.268,12.857,12.857,0,0,0-2.985-4.788,14.64,14.64,0,0,0-5.1-3.286,21.3,21.3,0,0,0-13.156-.317,21.336,21.336,0,0,0-4.684,2.16,17.969,17.969,0,0,0-3.476,2.79,19.916,19.916,0,0,0-2.13,2.6,2.25,2.25,0,0,0,.406,2.956L96.032,62.7a2.251,2.251,0,0,0,1.468.545,2.283,2.283,0,0,0,.246-.014,2.25,2.25,0,0,0,1.557-.89A17.052,17.052,0,0,1,100.64,60.8a10.144,10.144,0,0,1,1.768-1.431,11.443,11.443,0,0,1,2.395-1.151,8.747,8.747,0,0,1,2.9-.445c2.07,0,3.531.455,4.342,1.352a5.16,5.16,0,0,1,1.312,3.625,6.74,6.74,0,0,1-.423,2.43,9.112,9.112,0,0,1-1.36,2.327,19.508,19.508,0,0,1-2.485,2.57c-1.06.93-2.286,1.935-3.632,2.979a58.459,58.459,0,0,0-5.765,4.992,29.781,29.781,0,0,0-4.275,5.34A22.569,22.569,0,0,0,92.79,89.5a28.094,28.094,0,0,0-.853,7.164v1.081A2.252,2.252,0,0,0,94.189,100Z"/>
      <path class="cls-10" d="M122.565,90.226H105.492a13.582,13.582,0,0,0-.9,1.6c-.063.133-.122.268-.178.4h19.152a2.24,2.24,0,0,1,1.252.381v-.129A2.252,2.252,0,0,0,122.565,90.226Z"/>
      <path class="cls-10" d="M142.072,52.986a4.4,4.4,0,0,1-1.244,3.209,4.476,4.476,0,0,1-6.251,0c-.056-.058-.095-.124-.148-.183a4.406,4.406,0,0,0,7.4,2.183,4.4,4.4,0,0,0,1.244-3.209,4.254,4.254,0,0,0-1.084-2.9A4.788,4.788,0,0,1,142.072,52.986Z"/>
      <path class="cls-10" d="M130.758,57.662a8.659,8.659,0,0,1,.228-5.884,7.627,7.627,0,0,1,1.77-2.572,8.335,8.335,0,0,1,2.628-1.688,8.572,8.572,0,0,1,3.263-.608,8.791,8.791,0,0,1,3.291.608,8.264,8.264,0,0,1,2.656,1.688,7.5,7.5,0,0,1,.978,1.142c-.064-.192-.129-.383-.208-.57a7.656,7.656,0,0,0-1.77-2.572,8.264,8.264,0,0,0-2.656-1.688,8.791,8.791,0,0,0-3.291-.608,8.572,8.572,0,0,0-3.263.608,8.335,8.335,0,0,0-2.628,1.688,7.627,7.627,0,0,0-1.77,2.572,8.23,8.23,0,0,0-.636,3.264,8.019,8.019,0,0,0,.636,3.235A7.834,7.834,0,0,0,130.758,57.662Z"/>
      <path class="cls-10" d="M71.092,99.619V64.27l-1,.58v32.9A2.251,2.251,0,0,0,71.092,99.619Z"/>
      <path class="cls-10" d="M57.931,62.892a2.244,2.244,0,0,1,.95-2.71L73.948,51.2a2.261,2.261,0,0,1,1.154-.317h4.391a2.242,2.242,0,0,1,1.252.38v-.128a2.252,2.252,0,0,0-2.252-2.252H74.1a2.261,2.261,0,0,0-1.154.317L57.881,58.182a2.252,2.252,0,0,0-.849,2.965Z"/>
      <path class="cls-10" d="M92.4,59.58a2.238,2.238,0,0,1,.375-1.145,19.916,19.916,0,0,1,2.13-2.6,17.969,17.969,0,0,1,3.476-2.79,21.315,21.315,0,0,1,4.684-2.16,21.3,21.3,0,0,1,13.156.317,14.64,14.64,0,0,1,5.1,3.286,13.091,13.091,0,0,1,1.75,2.218,12.86,12.86,0,0,0-2.75-4.218,14.64,14.64,0,0,0-5.1-3.286,21.3,21.3,0,0,0-13.156-.317,21.315,21.315,0,0,0-4.684,2.16,17.969,17.969,0,0,0-3.476,2.79,19.916,19.916,0,0,0-2.13,2.6,2.251,2.251,0,0,0,.406,2.956Z"/>
      <path class="cls-10" d="M91.937,97.748a2.248,2.248,0,0,0,1,1.871v-.952A28.094,28.094,0,0,1,93.79,91.5a22.569,22.569,0,0,1,2.625-6.114,29.781,29.781,0,0,1,4.275-5.34,58.459,58.459,0,0,1,5.765-4.992c1.346-1.044,2.572-2.049,3.632-2.979a19.508,19.508,0,0,0,2.485-2.57,9.112,9.112,0,0,0,1.36-2.327,6.74,6.74,0,0,0,.423-2.43,5.178,5.178,0,0,0-1.187-3.458,6.076,6.076,0,0,1,.187,1.458,6.74,6.74,0,0,1-.423,2.43,9.112,9.112,0,0,1-1.36,2.327,19.508,19.508,0,0,1-2.485,2.57c-1.06.93-2.286,1.935-3.632,2.979a58.459,58.459,0,0,0-5.765,4.992,29.781,29.781,0,0,0-4.275,5.34A22.569,22.569,0,0,0,92.79,89.5a28.094,28.094,0,0,0-.853,7.164Z"/>
    </g>
  </g>
</svg>
