<?xml version="1.0" encoding="UTF-8" standalone="no"?>
<svg
   xmlns:dc="http://purl.org/dc/elements/1.1/"
   xmlns:cc="http://creativecommons.org/ns#"
   xmlns:rdf="http://www.w3.org/1999/02/22-rdf-syntax-ns#"
   xmlns:svg="http://www.w3.org/2000/svg"
   xmlns="http://www.w3.org/2000/svg"
   xmlns:sodipodi="http://sodipodi.sourceforge.net/DTD/sodipodi-0.dtd"
   xmlns:inkscape="http://www.inkscape.org/namespaces/inkscape"
   viewBox="0 0 133.33333 133.33333"
   height="133.33333"
   width="133.33333"
   xml:space="preserve"
   id="svg2"
   version="1.1"
   sodipodi:docname="harbour-webcat.svg"
   inkscape:version="0.92.2 2405546, 2018-03-11"><sodipodi:namedview
     pagecolor="#ffffff"
     bordercolor="#666666"
     borderopacity="1"
     objecttolerance="10"
     gridtolerance="10"
     guidetolerance="10"
     inkscape:pageopacity="0"
     inkscape:pageshadow="2"
     inkscape:window-width="1366"
     inkscape:window-height="706"
     id="namedview75"
     showgrid="false"
     inkscape:zoom="1.7700001"
     inkscape:cx="66.666664"
     inkscape:cy="66.666664"
     inkscape:window-x="0"
     inkscape:window-y="34"
     inkscape:window-maximized="1"
     inkscape:current-layer="svg2" /><metadata
     id="metadata8"><rdf:RDF><cc:Work
         rdf:about=""><dc:format>image/svg+xml</dc:format><dc:type
           rdf:resource="http://purl.org/dc/dcmitype/StillImage" /></cc:Work></rdf:RDF></metadata><defs
     id="defs6"><clipPath
       id="clipPath18"
       clipPathUnits="userSpaceOnUse"><path
         id="path16"
         d="M 50,100 C 12.956,100 0,87.039 0,50 v 0 C 0,12.961 12.956,0 50,0 v 0 c 37.045,0 50,12.961 50,50 v 0 c 0,37.044 -12.955,50 -50,50 z" /></clipPath><linearGradient
       id="linearGradient30"
       spreadMethod="pad"
       gradientTransform="matrix(77.78125,-77.78125,-77.78125,-77.78125,11.109896,88.891144)"
       gradientUnits="userSpaceOnUse"
       y2="0"
       x2="1"
       y1="0"
       x1="0"><stop
         id="stop24"
         offset="0"
         style="stop-opacity:1;stop-color:#7184d9" /><stop
         id="stop26"
         offset="0.0000006"
         style="stop-opacity:1;stop-color:#7184d9" /><stop
         id="stop28"
         offset="1"
         style="stop-opacity:1;stop-color:#3459c9" /></linearGradient><clipPath
       id="clipPath40"
       clipPathUnits="userSpaceOnUse"><path
         id="path38"
         d="M 50,50 20.854,20.854 41.433,0.274 C 44.138,0.095 46.981,0 50,0 v 0 c 37.045,0 50,12.961 50,50 v 0 c 0,3.037 -0.096,5.895 -0.276,8.614 v 0 L 79.169,79.169 Z" /></clipPath><clipPath
       id="clipPath48"
       clipPathUnits="userSpaceOnUse"><path
         id="path46"
         d="M -32768,32767 H 32767 V -32768 H -32768 Z" /></clipPath><linearGradient
       id="linearGradient56"
       spreadMethod="pad"
       gradientTransform="matrix(38.890621,-38.890621,-38.890621,-38.890621,50.011108,50.011108)"
       gradientUnits="userSpaceOnUse"
       y2="0"
       x2="1"
       y1="0"
       x1="0"><stop
         id="stop50"
         offset="0"
         style="stop-opacity:0.11999695;stop-color:#ffffff" /><stop
         id="stop52"
         offset="0.00000049"
         style="stop-opacity:0.11999695;stop-color:#ffffff" /><stop
         id="stop54"
         offset="1"
         style="stop-opacity:0;stop-color:#ffffff" /></linearGradient><mask
       id="mask58"
       height="1"
       width="1"
       y="0"
       x="0"
       maskUnits="userSpaceOnUse"><g
         id="g68"><g
           id="g66"
           clip-path="url(#clipPath48)"><g
             id="g64"><g
               id="g62"><path
                 id="path60"
                 style="fill:url(#linearGradient56);stroke:none"
                 d="M -32768,32767 H 32767 V -32768 H -32768 Z" /></g></g></g></g></mask><linearGradient
       id="linearGradient80"
       spreadMethod="pad"
       gradientTransform="matrix(38.890621,-38.890621,-38.890621,-38.890621,50.011108,50.011108)"
       gradientUnits="userSpaceOnUse"
       y2="0"
       x2="1"
       y1="0"
       x1="0"><stop
         id="stop74"
         offset="0"
         style="stop-opacity:1;stop-color:#000000" /><stop
         id="stop76"
         offset="0.00000049"
         style="stop-opacity:1;stop-color:#000000" /><stop
         id="stop78"
         offset="1"
         style="stop-opacity:1;stop-color:#000000" /></linearGradient><clipPath
       id="clipPath90"
       clipPathUnits="userSpaceOnUse"><path
         id="path88"
         d="M 12.5,50 C 12.5,22.221 22.217,12.5 50,12.5 v 0 c 27.783,0 37.5,9.721 37.5,37.5 v 0 c 0,27.783 -9.717,37.5 -37.5,37.5 v 0 C 22.217,87.5 12.5,77.779 12.5,50" /></clipPath><linearGradient
       id="linearGradient102"
       spreadMethod="pad"
       gradientTransform="matrix(58.335937,-58.335937,-58.335937,-58.335937,20.832422,79.168358)"
       gradientUnits="userSpaceOnUse"
       y2="0"
       x2="1"
       y1="0"
       x1="0"><stop
         id="stop96"
         offset="0"
         style="stop-opacity:1;stop-color:#fffc92" /><stop
         id="stop98"
         offset="0.00000039"
         style="stop-opacity:1;stop-color:#fffc92" /><stop
         id="stop100"
         offset="1"
         style="stop-opacity:1;stop-color:#f2c23f" /></linearGradient><clipPath
       id="clipPath112"
       clipPathUnits="userSpaceOnUse"><path
         id="path110"
         d="M 0,100 H 100 V 0 H 0 Z" /></clipPath><clipPath
       id="clipPath124"
       clipPathUnits="userSpaceOnUse"><path
         id="path122"
         d="M 12.5,85.5188 H 55.75 V 13.4752 H 12.5 Z" /></clipPath><clipPath
       id="clipPath140"
       clipPathUnits="userSpaceOnUse"><path
         id="path138"
         d="M 48.9479,87.5 H 87.5 V 19.75 H 48.9479 Z" /></clipPath></defs><g
     transform="matrix(1.25,0,0,-1.25,4,129.33333)"
     id="g10"><g
       id="g12"><g
         clip-path="url(#clipPath18)"
         id="g14"><g
           id="g20"><g
             id="g22"><path
               id="path32"
               style="fill:url(#linearGradient30);stroke:none"
               d="M 50,100 C 12.956,100 0,87.039 0,50 v 0 C 0,12.961 12.956,0 50,0 v 0 c 37.045,0 50,12.961 50,50 v 0 c 0,37.044 -12.955,50 -50,50 z"
               inkscape:connector-curvature="0" /></g></g></g></g><g
       id="g34"><g
         clip-path="url(#clipPath40)"
         id="g36"><g
           id="g42"><g
             id="g44" /><g
             mask="url(#mask58)"
             id="g70"><g
               id="g72"><path
                 id="path82"
                 style="fill:url(#linearGradient80);stroke:none"
                 d="M 50,50 20.854,20.854 41.433,0.274 C 44.138,0.095 46.981,0 50,0 v 0 c 37.045,0 50,12.961 50,50 v 0 c 0,3.037 -0.096,5.895 -0.276,8.614 v 0 L 79.169,79.169 Z"
                 inkscape:connector-curvature="0" /></g></g></g></g></g><g
       id="g84"><g
         clip-path="url(#clipPath90)"
         id="g86"><g
           id="g92"><g
             id="g94"><path
               id="path104"
               style="fill:url(#linearGradient102);stroke:none"
               d="M 12.5,50 C 12.5,22.221 22.217,12.5 50,12.5 v 0 c 27.783,0 37.5,9.721 37.5,37.5 v 0 c 0,27.783 -9.717,37.5 -37.5,37.5 v 0 C 22.217,87.5 12.5,77.779 12.5,50"
               inkscape:connector-curvature="0" /></g></g></g></g><g
       id="g106"><g
         clip-path="url(#clipPath112)"
         id="g108"><g
           transform="translate(48.8813,22.5898)"
           id="g114"><path
             id="path116"
             style="fill:#000000;fill-opacity:1;fill-rule:nonzero;stroke:none"
             d="m 0,0 c 0.382,-1.035 1.855,-1.035 2.237,0 3.152,8.542 4.882,17.772 4.882,27.41 0,9.637 -1.73,18.868 -4.882,27.411 C 1.855,55.855 0.382,55.855 0,54.821 -3.152,46.278 -4.881,37.047 -4.881,27.41 -4.881,17.772 -3.152,8.542 0,0"
             inkscape:connector-curvature="0" /></g><g
           id="g118"><g
             id="g120" /><g
             id="g132"><g
               style="opacity:0.10000598"
               id="g130"
               clip-path="url(#clipPath124)"><g
                 id="g128"
                 transform="translate(49.6875,76.6875)"><path
                   id="path126"
                   style="fill:#000000;fill-opacity:1;fill-rule:nonzero;stroke:none"
                   d="m 0,0 -6.187,2.25 -3.626,-1.125 1,-1.25 1.313,-1 -2.125,-0.875 -2.188,1.75 -1.968,-1.969 -0.969,-0.969 -1.437,0.625 1.874,0.876 0.75,1.312 -0.312,2.312 h -2 V -0.125 L -17.25,-1.25 -17.625,1.5 -17.187,3.625 -16.25,4 v 1.187 l 0.437,1.042 h 1 v 1.333 l -2.499,1.251 -0.048,0.018 c -2.823,-0.796 -5.295,-1.852 -7.455,-3.184 l 2.211,-1.501 -0.875,-2.647 -2.614,-2.614 -3.761,-2.073 -1.167,-1.999 -3,-3.001 -1.314,-1.313 c -1.271,-4.742 -1.853,-10.426 -1.853,-17.186 0,-1.917 0.052,-3.74 0.147,-5.488 l 1.853,-0.679 0.667,-2.084 1.833,-0.5 0.751,-2.916 0.708,-2.75 2.958,-0.584 -0.583,-2.166 -1.792,-1.792 -0.583,-1.958 1.542,-2.417 3.25,-3.083 3.25,-3.084 v -2 l -0.484,-1.505 c 3.021,-1.644 6.62,-2.792 10.844,-3.519 l 0.056,0.108 4,0.083 1.417,2 h 3.333 l 2.417,0.75 v 2.833 l 1.916,0.667 0.417,4.167 -6.416,1.166 -3.834,1 -0.917,2.917 -4.583,1.167 -1.583,2.416 -2,1 -3.5,0.334 -1.5,1.666 h -1.667 l -3.833,0.75 -1.833,5.084 -1.501,1.25 -0.083,3.25 -2.75,1.042 v 2.125 l 0.75,2.916 1.25,1.25 2.5,-1.75 1.917,-0.916 0.417,-3.625 1.333,-1.709 0.583,4.584 1.125,1.125 h 3.042 l 1,1.708 0.75,1.417 h 2.917 l 0.583,1.25 2.666,0.75 1.334,2.166 3.25,-1.583 h 2 l -0.334,2 -3,1 2.084,0.833 -1.5,2.333 v 2.084 l -2.667,0.833 -0.917,2.167 -1.666,-1.667 v -1.917 l -1.5,-1.5 -1.5,1.334 -1.333,1.333 v 2.833 l 1.125,1.126 h 1.958 l 1.416,-0.459 0.667,0.5 2.083,0.5 0.75,-1.25 0.417,-1.583 h 1.5 l 1.083,1.083 0.5,2.25 v 3.833 h 1.501 l 1.5,-2.249 V -8.104 -11 l 2.249,-2.313 2.376,-1.5 5.312,4.938 1.812,0.75 -3.249,2.438 z"
                   inkscape:connector-curvature="0" /></g></g></g></g><g
           id="g134"><g
             id="g136" /><g
             id="g148"><g
               style="opacity:0.10000598"
               id="g146"
               clip-path="url(#clipPath140)"><g
                 id="g144"
                 transform="translate(87.5,50)"><path
                   id="path142"
                   style="fill:#000000;fill-opacity:1;fill-rule:nonzero;stroke:none"
                   d="M 0,0 C 0,1.815 -0.044,3.55 -0.129,5.214 L -2.583,7.25 -3.917,8.417 -0.182,6.04 C -1.597,29.198 -11.838,37.5 -37.5,37.5 c -0.358,0 -0.7,-0.009 -1.052,-0.012 l 1.885,-1.175 1.584,-2.146 7.166,-0.917 1.417,-1.917 h 2 L -23.167,28 -23.5,26.75 -26.75,26.167 -27.083,23 l 1.666,-1.75 v -2.833 l 4.5,-0.834 1.167,1.167 -1.5,1.333 -0.417,1.917 h 1.917 l 1.167,-1.583 0.333,-2.25 -2.5,-2.5 -0.75,-2.417 -1.25,-1.25 -0.75,1.917 -1.75,2.333 -1.667,0.417 L -27.25,13.833 -28.167,12 -27.5,10.583 h 1.917 2.833 L -21.917,9 h 0.834 L -20,7.333 -20.708,6.625 h -1.875 L -23.25,3.333 -21.917,1.75 h 2.417 l 1.292,1.292 0.375,2.708 v 2.167 l 0.583,0.583 0.583,0.667 h 2 l 1.75,0.75 0.5,-2 1.084,1.083 0.916,0.917 1.917,-0.417 0.667,1.917 h -1.584 l -0.833,0.916 -0.167,2.25 -2.75,0.334 v 1 l 3.084,1.75 H -8.25 L -9.208,16.708 V 15.167 L -7.25,11.5 H -5 L -4.333,9.75 -5.667,7.5 h -1.75 L -7.833,5 l -3,-0.917 -2.25,1.417 h -2 l -1.25,-2.083 -2.5,-2.334 -1.792,-1.791 -0.542,-3.959 -1.166,-1.166 -0.834,-1.834 -1.333,-0.583 v -2 l 1.167,-1.75 v -3.25 l 2.916,-1.667 4.5,-0.833 4.334,2 1.291,1.292 2.125,0.375 0.584,-2.584 1.833,-1.083 -1.083,-3.5 -0.917,-1.25 -1.917,-7.75 0.274,0.097 C -2.721,-24.33 0,-14.692 0,0"
                   inkscape:connector-curvature="0" /></g></g></g></g></g></g></g></svg>