<svg xmlns="http://www.w3.org/2000/svg" xmlns:xlink="http://www.w3.org/1999/xlink" width="192" height="192" viewBox="0 0 192 192"><defs><style>.cls-1{fill:none;}.cls-2{opacity:0.01;}.cls-2,.cls-3,.cls-4,.cls-5{isolation:isolate;}.cls-3{opacity:0.02;}.cls-4{opacity:0.04;}.cls-5{opacity:0.06;}.cls-6{fill:#00af8d;}.cls-7{fill:url(#未命名的渐变_15);}.cls-8{fill:url(#未命名的渐变_2);}.cls-9{fill:url(#未命名的渐变_17);}.cls-10{fill:url(#未命名的渐变_17-2);}.cls-11{fill:#fafafa;}.cls-12{fill:#fff;}</style><linearGradient id="未命名的渐变_15" x1="166.004" y1="27.998" x2="25.998" y2="168.004" gradientTransform="matrix(1, 0, 0, -1, 0, 194)" gradientUnits="userSpaceOnUse"><stop offset="0" stop-opacity="0.1"/><stop offset="0.5" stop-color="gray" stop-opacity="0.05"/><stop offset="1" stop-color="#fff" stop-opacity="0.12"/></linearGradient><linearGradient id="未命名的渐变_2" x1="166.012" y1="75.988" x2="25.987" y2="216.012" gradientTransform="matrix(1, 0, 0, -1, 0, 242)" gradientUnits="userSpaceOnUse"><stop offset="0" stop-opacity="0.04"/><stop offset="0.5" stop-color="gray" stop-opacity="0"/><stop offset="1" stop-color="#fff" stop-opacity="0.1"/></linearGradient><linearGradient id="未命名的渐变_17" x1="158.989" y1="173.01" x2="79.967" y2="93.988" gradientUnits="userSpaceOnUse"><stop offset="0" stop-opacity="0.02"/><stop offset="1" stop-opacity="0.1"/></linearGradient><linearGradient id="未命名的渐变_17-2" x1="189.317" y1="115.657" x2="131.83" y2="58.17" xlink:href="#未命名的渐变_17"/></defs><title>shanbay_sentence</title><g id="图层_2" data-name="图层 2"><g id="图层_1-2" data-name="图层 1"><rect class="cls-1" width="192" height="192"/><path class="cls-2" d="M96,190C27.3,190,3,165.7,3,97S27.3,4,96,4s93,24.3,93,93S164.7,190,96,190Z"/><path class="cls-3" d="M96,189C28.1,189,4,164.9,4,97S28.1,5,96,5s92,24.1,92,92S163.9,189,96,189Z"/><path class="cls-4" d="M96,188C28.8,188,5,164.2,5,97S28.8,6,96,6s91,23.8,91,91S163.2,188,96,188Z"/><path class="cls-5" d="M186,97c0,66.7-23.3,90-90,90S6,163.7,6,97,29.3,7,96,7,186,30.3,186,97Z"/><path class="cls-6" d="M186,96c0,66.7-23.3,90-90,90S6,162.7,6,96,29.3,6,96,6,186,29.3,186,96Z"/><path class="cls-7" d="M186,96c0,66.67-23.32,90-90,90S6,162.67,6,96,29.32,6,96,6,186,29.32,186,96Z"/><path class="cls-8" d="M96,6C29.3,6,6,29.3,6,96s23.3,90,90,90,90-23.3,90-90S162.7,6,96,6Zm68.6,158.6C151.2,178,130,184,96,184s-55.2-6-68.6-19.4S8,130,8,96s6-55.2,19.4-68.6S62,8,96,8s55.2,6,68.6,19.4S184,62,184,96,178,151.2,164.6,164.6Z"/><path class="cls-9" d="M100.52,185.958c52.163-.872,76.446-17.207,83.339-59.5L123.7,66.3,77.029,112.971l-6.364-6.364L66.259,107.7l8.023,8.022-9.273,9.273-3.536-3.535-4.439,3.934,3.788,3.788-8.541,8.541Z"/><path class="cls-10" d="M136.426,53.574l-9.192,9.192,57.487,57.487q.943-8.026,1.183-17.2Z"/><path class="cls-11" d="M78.206,127.939l-13.488,5.278a13.458,13.458,0,0,0-7.935-7.935L62.06,111.8a19.626,19.626,0,0,1,16.146,16.143ZM54.975,129.9l-3.293,8.415,8.43-3.3a8.557,8.557,0,0,0-5.137-5.116Zm57.2-68.439L66.015,107.62A24.741,24.741,0,0,1,82.38,123.985l46.156-46.157a4.545,4.545,0,0,0,0-6.429L118.6,61.464A4.545,4.545,0,0,0,112.172,61.464Zm26.008-6.137-3.507-3.507a9.119,9.119,0,0,0-12.858,0h0a4.146,4.146,0,0,0,0,5.845l10.52,10.52a4.146,4.146,0,0,0,5.845,0h0A9.119,9.119,0,0,0,138.18,55.327Z"/><path class="cls-12" d="M63.06,113.8a19.679,19.679,0,0,1,10.662,5.482,19.406,19.406,0,0,1,3.1,4.036,19.322,19.322,0,0,0-4.1-6.036A19.679,19.679,0,0,0,62.06,111.8l-5.277,13.486c.5.211,1,.454,1.5.716Z"/><path class="cls-12" d="M113.172,63.464a4.545,4.545,0,0,1,6.429,0l9.935,9.935c.087.087.15.188.229.28a4.513,4.513,0,0,0-1.229-2.28L118.6,61.464a4.545,4.545,0,0,0-6.429,0L66.015,107.62c.716.218,1.455.485,2.206.794Z"/><path class="cls-12" d="M122.815,53.82h0a9.119,9.119,0,0,1,12.858,0l3.507,3.507a9.062,9.062,0,0,1,1.112,1.357,9,9,0,0,0-2.112-3.357l-3.507-3.507a9.119,9.119,0,0,0-12.858,0h0a4.137,4.137,0,0,0-.133,5.682A4.137,4.137,0,0,1,122.815,53.82Z"/><path class="cls-12" d="M55.975,131.9a9.987,9.987,0,0,1,3.136,1.986,7.908,7.908,0,0,1,.931,1.158l.07-.028a8.557,8.557,0,0,0-5.137-5.116l-3.293,8.415,2.1-.823Z"/><path class="cls-12" d="M81.326,121.174a24.792,24.792,0,0,1,1.054,2.81l.206-.2A24.349,24.349,0,0,0,81.326,121.174Z"/><path class="cls-12" d="M64.7,133.17c.006.015.015.031.022.047h0Z"/></g></g></svg>