<?xml version="1.0" encoding="UTF-8" standalone="no"?>
<svg
   xmlns:dc="http://purl.org/dc/elements/1.1/"
   xmlns:cc="http://creativecommons.org/ns#"
   xmlns:rdf="http://www.w3.org/1999/02/22-rdf-syntax-ns#"
   xmlns:svg="http://www.w3.org/2000/svg"
   xmlns="http://www.w3.org/2000/svg"
   xmlns:sodipodi="http://sodipodi.sourceforge.net/DTD/sodipodi-0.dtd"
   xmlns:inkscape="http://www.inkscape.org/namespaces/inkscape"
   viewBox="0 0 133.33333 133.33333"
   height="133.33333"
   width="133.33333"
   xml:space="preserve"
   id="svg2"
   version="1.1"
   sodipodi:docname="harbour-linksbag.svg"
   inkscape:version="0.92.2 2405546, 2018-03-11"><sodipodi:namedview
     pagecolor="#ffffff"
     bordercolor="#666666"
     borderopacity="1"
     objecttolerance="10"
     gridtolerance="10"
     guidetolerance="10"
     inkscape:pageopacity="0"
     inkscape:pageshadow="2"
     inkscape:window-width="1366"
     inkscape:window-height="706"
     id="namedview130"
     showgrid="false"
     inkscape:zoom="1.7700001"
     inkscape:cx="66.666664"
     inkscape:cy="66.666664"
     inkscape:window-x="0"
     inkscape:window-y="34"
     inkscape:window-maximized="1"
     inkscape:current-layer="svg2" /><metadata
     id="metadata8"><rdf:RDF><cc:Work
         rdf:about=""><dc:format>image/svg+xml</dc:format><dc:type
           rdf:resource="http://purl.org/dc/dcmitype/StillImage" /></cc:Work></rdf:RDF></metadata><defs
     id="defs6"><clipPath
       id="clipPath18"
       clipPathUnits="userSpaceOnUse"><path
         id="path16"
         d="M 50,100 C 12.956,100 0,87.039 0,50 v 0 C 0,12.961 12.956,0 50,0 v 0 c 37.045,0 50,12.961 50,50 v 0 c 0,37.044 -12.955,50 -50,50 z" /></clipPath><linearGradient
       id="linearGradient32"
       spreadMethod="pad"
       gradientTransform="matrix(77.78125,-77.78125,-77.78125,-77.78125,11.109896,88.891144)"
       gradientUnits="userSpaceOnUse"
       y2="0"
       x2="1"
       y1="0"
       x1="0"><stop
         id="stop24"
         offset="0"
         style="stop-opacity:1;stop-color:#ff9b6f" /><stop
         id="stop26"
         offset="0.00000039"
         style="stop-opacity:1;stop-color:#ff9b6f" /><stop
         id="stop28"
         offset="1"
         style="stop-opacity:1;stop-color:#f24242" /><stop
         id="stop30"
         offset="1"
         style="stop-opacity:1;stop-color:#f24242" /></linearGradient><clipPath
       id="clipPath42"
       clipPathUnits="userSpaceOnUse"><path
         id="path40"
         d="M 68.25,69.88 V 64 h 6.059 c 3.011,0 5.441,-2.43 5.441,-5.44 v 0 -28.251 c 0,-2.999 -2.43,-5.429 -5.441,-5.429 v 0 H 25.69 c -1.51,0 -2.87,0.61 -3.851,1.59 v 0 L 48.29,0.02 C 48.86,0.01 49.42,0 50,0 v 0 c 34.21,0 47.87,11.07 49.76,41.94 v 0 L 66.01,75.68 c 1.39,-1.53 2.24,-3.57 2.24,-5.8" /></clipPath><clipPath
       id="clipPath50"
       clipPathUnits="userSpaceOnUse"><path
         id="path48"
         d="M -32768,32767 H 32767 V -32768 H -32768 Z" /></clipPath><linearGradient
       id="linearGradient60"
       spreadMethod="pad"
       gradientTransform="matrix(43.71851,-43.71851,-43.71851,-43.71851,42.667511,52.337494)"
       gradientUnits="userSpaceOnUse"
       y2="0"
       x2="1"
       y1="0"
       x1="0"><stop
         id="stop52"
         offset="0"
         style="stop-opacity:0.11999695;stop-color:#ffffff" /><stop
         id="stop54"
         offset="0.00000039"
         style="stop-opacity:0.11999695;stop-color:#ffffff" /><stop
         id="stop56"
         offset="1"
         style="stop-opacity:0;stop-color:#ffffff" /><stop
         id="stop58"
         offset="1"
         style="stop-opacity:0;stop-color:#ffffff" /></linearGradient><mask
       id="mask62"
       height="1"
       width="1"
       y="0"
       x="0"
       maskUnits="userSpaceOnUse"><g
         id="g72"><g
           id="g70"
           clip-path="url(#clipPath50)"><g
             id="g68"><g
               id="g66"><path
                 id="path64"
                 style="fill:url(#linearGradient60);stroke:none"
                 d="M -32768,32767 H 32767 V -32768 H -32768 Z" /></g></g></g></g></mask><linearGradient
       id="linearGradient86"
       spreadMethod="pad"
       gradientTransform="matrix(43.71851,-43.71851,-43.71851,-43.71851,42.667511,52.337494)"
       gradientUnits="userSpaceOnUse"
       y2="0"
       x2="1"
       y1="0"
       x1="0"><stop
         id="stop78"
         offset="0"
         style="stop-opacity:1;stop-color:#000000" /><stop
         id="stop80"
         offset="0.00000039"
         style="stop-opacity:1;stop-color:#000000" /><stop
         id="stop82"
         offset="1"
         style="stop-opacity:1;stop-color:#000000" /><stop
         id="stop84"
         offset="1"
         style="stop-opacity:1;stop-color:#000000" /></linearGradient><clipPath
       id="clipPath96"
       clipPathUnits="userSpaceOnUse"><path
         id="path94"
         d="m 40.38,73.5 c -2.01,0 -3.63,-1.62 -3.63,-3.62 v 0 V 64 h 26.5 v 5.88 c 0,2 -1.62,3.62 -3.63,3.62 v 0 z" /></clipPath><clipPath
       id="clipPath104"
       clipPathUnits="userSpaceOnUse"><path
         id="path102"
         d="M -32768,32767 H 32767 V -32768 H -32768 Z" /></clipPath><linearGradient
       id="linearGradient114"
       spreadMethod="pad"
       gradientTransform="matrix(16.939379,-16.939379,-16.939379,-16.939379,41.530312,76.159065)"
       gradientUnits="userSpaceOnUse"
       y2="0"
       x2="1"
       y1="0"
       x1="0"><stop
         id="stop106"
         offset="0"
         style="stop-opacity:0.11999695;stop-color:#ffffff" /><stop
         id="stop108"
         offset="0.00000039"
         style="stop-opacity:0.11999695;stop-color:#ffffff" /><stop
         id="stop110"
         offset="1"
         style="stop-opacity:0;stop-color:#ffffff" /><stop
         id="stop112"
         offset="1"
         style="stop-opacity:0;stop-color:#ffffff" /></linearGradient><mask
       id="mask116"
       height="1"
       width="1"
       y="0"
       x="0"
       maskUnits="userSpaceOnUse"><g
         id="g126"><g
           id="g124"
           clip-path="url(#clipPath104)"><g
             id="g122"><g
               id="g120"><path
                 id="path118"
                 style="fill:url(#linearGradient114);stroke:none"
                 d="M -32768,32767 H 32767 V -32768 H -32768 Z" /></g></g></g></g></mask><linearGradient
       id="linearGradient140"
       spreadMethod="pad"
       gradientTransform="matrix(16.939379,-16.939379,-16.939379,-16.939379,41.530312,76.159065)"
       gradientUnits="userSpaceOnUse"
       y2="0"
       x2="1"
       y1="0"
       x1="0"><stop
         id="stop132"
         offset="0"
         style="stop-opacity:1;stop-color:#000000" /><stop
         id="stop134"
         offset="0.00000039"
         style="stop-opacity:1;stop-color:#000000" /><stop
         id="stop136"
         offset="1"
         style="stop-opacity:1;stop-color:#000000" /><stop
         id="stop138"
         offset="1"
         style="stop-opacity:1;stop-color:#000000" /></linearGradient><clipPath
       id="clipPath150"
       clipPathUnits="userSpaceOnUse"><path
         id="path148"
         d="m 40.38,78.5 c -4.77,0 -8.63,-3.86 -8.63,-8.62 v 0 V 64 h -6.06 c -3.01,0 -5.44,-2.43 -5.44,-5.44 v 0 -28.251 c 0,-1.499 0.61,-2.859 1.589,-3.839 v 0 c 0.981,-0.98 2.341,-1.59 3.851,-1.59 v 0 h 48.619 c 3.011,0 5.441,2.43 5.441,5.429 v 0 28.251 c 0,3.01 -2.43,5.44 -5.441,5.44 v 0 H 68.25 v 5.88 c 0,2.23 -0.85,4.27 -2.24,5.8 v 0 c -0.09,0.1 -0.179,0.19 -0.279,0.28 v 0 c -0.381,0.39 -0.811,0.75 -1.281,1.06 v 0 c 0,0 0,0.01 -0.01,0.01 v 0 c -0.221,0.15 -0.46,0.29 -0.7,0.42 v 0 c 0,0 0,0.01 -0.009,0.01 v 0 c -0.212,0.11 -0.421,0.22 -0.641,0.31 v 0 c -0.42,0.19 -0.86,0.34 -1.309,0.46 v 0 C 61.52,78.29 61.259,78.35 61,78.39 v 0 c -0.45,0.07 -0.911,0.11 -1.38,0.11 v 0 z m -3.63,-8.62 c 0,2 1.62,3.62 3.63,3.62 v 0 h 19.24 c 2.01,0 3.63,-1.62 3.63,-3.62 v 0 V 64 h -26.5 z" /></clipPath><clipPath
       id="clipPath158"
       clipPathUnits="userSpaceOnUse"><path
         id="path156"
         d="M -32768,32767 H 32767 V -32768 H -32768 Z" /></clipPath><linearGradient
       id="linearGradient168"
       spreadMethod="pad"
       gradientTransform="matrix(46.693756,-46.693756,-46.693756,-46.693756,26.652512,68.351273)"
       gradientUnits="userSpaceOnUse"
       y2="0"
       x2="1"
       y1="0"
       x1="0"><stop
         id="stop160"
         offset="0"
         style="stop-opacity:0.11999695;stop-color:#ffffff" /><stop
         id="stop162"
         offset="0.00000039"
         style="stop-opacity:0.11999695;stop-color:#ffffff" /><stop
         id="stop164"
         offset="1"
         style="stop-opacity:0;stop-color:#ffffff" /><stop
         id="stop166"
         offset="1"
         style="stop-opacity:0;stop-color:#ffffff" /></linearGradient><mask
       id="mask170"
       height="1"
       width="1"
       y="0"
       x="0"
       maskUnits="userSpaceOnUse"><g
         id="g180"><g
           id="g178"
           clip-path="url(#clipPath158)"><g
             id="g176"><g
               id="g174"><path
                 id="path172"
                 style="fill:url(#linearGradient168);stroke:none"
                 d="M -32768,32767 H 32767 V -32768 H -32768 Z" /></g></g></g></g></mask><linearGradient
       id="linearGradient194"
       spreadMethod="pad"
       gradientTransform="matrix(46.693756,-46.693756,-46.693756,-46.693756,26.652512,68.351273)"
       gradientUnits="userSpaceOnUse"
       y2="0"
       x2="1"
       y1="0"
       x1="0"><stop
         id="stop186"
         offset="0"
         style="stop-opacity:1;stop-color:#000000" /><stop
         id="stop188"
         offset="0.00000039"
         style="stop-opacity:1;stop-color:#000000" /><stop
         id="stop190"
         offset="1"
         style="stop-opacity:1;stop-color:#000000" /><stop
         id="stop192"
         offset="1"
         style="stop-opacity:1;stop-color:#000000" /></linearGradient><clipPath
       id="clipPath204"
       clipPathUnits="userSpaceOnUse"><path
         id="path202"
         d="M 0,100 H 100 V 0 H 0 Z" /></clipPath><clipPath
       id="clipPath212"
       clipPathUnits="userSpaceOnUse"><path
         id="path210"
         d="m 20.25,53.3333 h 59.5 V 33.4167 h -59.5 z" /></clipPath><clipPath
       id="clipPath226"
       clipPathUnits="userSpaceOnUse"><path
         id="path224"
         d="m 31.75,67.125 h 5 v -4.7708 h -5 z" /></clipPath><clipPath
       id="clipPath240"
       clipPathUnits="userSpaceOnUse"><path
         id="path238"
         d="m 63.25,67.125 h 5 v -4.7708 h -5 z" /></clipPath></defs><g
     transform="matrix(1.25,0,0,-1.25,4,129.33333)"
     id="g10"><g
       id="g12"><g
         clip-path="url(#clipPath18)"
         id="g14"><g
           id="g20"><g
             id="g22"><path
               id="path34"
               style="fill:url(#linearGradient32);stroke:none"
               d="M 50,100 C 12.956,100 0,87.039 0,50 v 0 C 0,12.961 12.956,0 50,0 v 0 c 37.045,0 50,12.961 50,50 v 0 c 0,37.044 -12.955,50 -50,50 z"
               inkscape:connector-curvature="0" /></g></g></g></g><g
       id="g36"><g
         clip-path="url(#clipPath42)"
         id="g38"><g
           id="g44"><g
             id="g46" /><g
             mask="url(#mask62)"
             id="g74"><g
               id="g76"><path
                 id="path88"
                 style="fill:url(#linearGradient86);stroke:none"
                 d="M 68.25,69.88 V 64 h 6.059 c 3.011,0 5.441,-2.43 5.441,-5.44 v 0 -28.251 c 0,-2.999 -2.43,-5.429 -5.441,-5.429 v 0 H 25.69 c -1.51,0 -2.87,0.61 -3.851,1.59 v 0 L 48.29,0.02 C 48.86,0.01 49.42,0 50,0 v 0 c 34.21,0 47.87,11.07 49.76,41.94 v 0 L 66.01,75.68 c 1.39,-1.53 2.24,-3.57 2.24,-5.8"
                 inkscape:connector-curvature="0" /></g></g></g></g></g><g
       id="g90"><g
         clip-path="url(#clipPath96)"
         id="g92"><g
           id="g98"><g
             id="g100" /><g
             mask="url(#mask116)"
             id="g128"><g
               id="g130"><path
                 id="path142"
                 style="fill:url(#linearGradient140);stroke:none"
                 d="m 40.38,73.5 c -2.01,0 -3.63,-1.62 -3.63,-3.62 v 0 V 64 h 26.5 v 5.88 c 0,2 -1.62,3.62 -3.63,3.62 v 0 z"
                 inkscape:connector-curvature="0" /></g></g></g></g></g><g
       id="g144"><g
         clip-path="url(#clipPath150)"
         id="g146"><g
           id="g152"><g
             id="g154" /><g
             mask="url(#mask170)"
             id="g182"><g
               id="g184"><path
                 id="path196"
                 style="fill:url(#linearGradient194);stroke:none"
                 d="m 40.38,78.5 c -4.77,0 -8.63,-3.86 -8.63,-8.62 v 0 V 64 h -6.06 c -3.01,0 -5.44,-2.43 -5.44,-5.44 v 0 -28.251 c 0,-1.499 0.61,-2.859 1.589,-3.839 v 0 c 0.981,-0.98 2.341,-1.59 3.851,-1.59 v 0 h 48.619 c 3.011,0 5.441,2.43 5.441,5.429 v 0 28.251 c 0,3.01 -2.43,5.44 -5.441,5.44 v 0 H 68.25 v 5.88 c 0,2.23 -0.85,4.27 -2.24,5.8 v 0 c -0.09,0.1 -0.179,0.19 -0.279,0.28 v 0 c -0.381,0.39 -0.811,0.75 -1.281,1.06 v 0 c 0,0 0,0.01 -0.01,0.01 v 0 c -0.221,0.15 -0.46,0.29 -0.7,0.42 v 0 c 0,0 0,0.01 -0.009,0.01 v 0 c -0.212,0.11 -0.421,0.22 -0.641,0.31 v 0 c -0.42,0.19 -0.86,0.34 -1.309,0.46 v 0 C 61.52,78.29 61.259,78.35 61,78.39 v 0 c -0.45,0.07 -0.911,0.11 -1.38,0.11 v 0 z m -3.63,-8.62 c 0,2 1.62,3.62 3.63,3.62 v 0 h 19.24 c 2.01,0 3.63,-1.62 3.63,-3.62 v 0 V 64 h -26.5 z"
                 inkscape:connector-curvature="0" /></g></g></g></g></g><g
       id="g198"><g
         clip-path="url(#clipPath204)"
         id="g200"><g
           id="g206"><g
             id="g208" /><g
             id="g218"><g
               style="opacity:0.5"
               id="g216"
               clip-path="url(#clipPath212)"><path
                 id="path214"
                 style="fill:#ffffff;fill-opacity:1;fill-rule:nonzero;stroke:none"
                 d="m 79.75,33.417 h -59.5 v 19.917 h 59.5 z"
                 inkscape:connector-curvature="0" /></g></g></g><g
           id="g220"><g
             id="g222" /><g
             id="g232"><g
               style="opacity:0.5"
               id="g230"
               clip-path="url(#clipPath226)"><path
                 id="path228"
                 style="fill:#ffffff;fill-opacity:1;fill-rule:nonzero;stroke:none"
                 d="m 36.75,62.354 h -5 v 4.771 h 5 z"
                 inkscape:connector-curvature="0" /></g></g></g><g
           id="g234"><g
             id="g236" /><g
             id="g246"><g
               style="opacity:0.5"
               id="g244"
               clip-path="url(#clipPath240)"><path
                 id="path242"
                 style="fill:#ffffff;fill-opacity:1;fill-rule:nonzero;stroke:none"
                 d="m 68.25,62.354 h -5 v 4.771 h 5 z"
                 inkscape:connector-curvature="0" /></g></g></g><g
           transform="translate(70.125,49.25)"
           id="g248"><path
             id="path250"
             style="fill:#ffffff;fill-opacity:1;fill-rule:nonzero;stroke:none"
             d="m 0,0 v -14.375 l -5.5,3.75 -5.5,-3.75 V 0 h -38.875 v -18.937 c 0,-3.003 2.435,-5.438 5.437,-5.438 H 4.187 c 3.003,0 5.438,2.435 5.438,5.438 V 0 Z"
             inkscape:connector-curvature="0" /></g><g
           transform="translate(36.75,67.125)"
           id="g252"><path
             id="path254"
             style="fill:#ffffff;fill-opacity:1;fill-rule:nonzero;stroke:none"
             d="m 0,0 v 2.75 c 0,2.002 1.623,3.625 3.625,3.625 h 19.25 C 24.877,6.375 26.5,4.752 26.5,2.75 V 0 h 5 v 2.75 c 0,4.764 -3.861,8.625 -8.625,8.625 H 3.625 C -1.139,11.375 -5,7.514 -5,2.75 V 0 Z"
             inkscape:connector-curvature="0" /></g><g
           transform="translate(74.3125,64)"
           id="g256"><path
             id="path258"
             style="fill:#ffffff;fill-opacity:1;fill-rule:nonzero;stroke:none"
             d="m 0,0 h -6.062 -5.001 -26.5 -5 -6.062 c -3.003,0 -5.438,-2.435 -5.438,-5.437 v -6.188 h 59.5 v 6.188 C 5.437,-2.435 3.003,0 0,0"
             inkscape:connector-curvature="0" /></g></g></g></g></svg>