<?xml version="1.0" encoding="UTF-8" standalone="no"?>
<svg
   xmlns:dc="http://purl.org/dc/elements/1.1/"
   xmlns:cc="http://creativecommons.org/ns#"
   xmlns:rdf="http://www.w3.org/1999/02/22-rdf-syntax-ns#"
   xmlns:svg="http://www.w3.org/2000/svg"
   xmlns="http://www.w3.org/2000/svg"
   xmlns:sodipodi="http://sodipodi.sourceforge.net/DTD/sodipodi-0.dtd"
   xmlns:inkscape="http://www.inkscape.org/namespaces/inkscape"
   viewBox="0 0 133.33333 133.33333"
   height="133.33333"
   width="133.33333"
   xml:space="preserve"
   id="svg2"
   version="1.1"
   sodipodi:docname="harbour-storeman.svg"
   inkscape:version="0.92.2 2405546, 2018-03-11"><sodipodi:namedview
     pagecolor="#ffffff"
     bordercolor="#666666"
     borderopacity="1"
     objecttolerance="10"
     gridtolerance="10"
     guidetolerance="10"
     inkscape:pageopacity="0"
     inkscape:pageshadow="2"
     inkscape:window-width="1366"
     inkscape:window-height="706"
     id="namedview116"
     showgrid="false"
     inkscape:zoom="1.7700001"
     inkscape:cx="66.666664"
     inkscape:cy="66.666664"
     inkscape:window-x="0"
     inkscape:window-y="34"
     inkscape:window-maximized="1"
     inkscape:current-layer="svg2" /><metadata
     id="metadata8"><rdf:RDF><cc:Work
         rdf:about=""><dc:format>image/svg+xml</dc:format><dc:type
           rdf:resource="http://purl.org/dc/dcmitype/StillImage" /></cc:Work></rdf:RDF></metadata><defs
     id="defs6"><clipPath
       id="clipPath18"
       clipPathUnits="userSpaceOnUse"><path
         id="path16"
         d="M 50,100 C 12.956,100 0,87.039 0,50 v 0 C 0,12.961 12.956,0 50,0 v 0 c 37.045,0 50,12.961 50,50 v 0 c 0,37.044 -12.955,50 -50,50 z" /></clipPath><linearGradient
       id="linearGradient32"
       spreadMethod="pad"
       gradientTransform="matrix(77.78125,-77.78125,-77.78125,-77.78125,11.109896,88.891144)"
       gradientUnits="userSpaceOnUse"
       y2="0"
       x2="1"
       y1="0"
       x1="0"><stop
         id="stop24"
         offset="0"
         style="stop-opacity:1;stop-color:#f2f2f2" /><stop
         id="stop26"
         offset="0.14086381"
         style="stop-opacity:1;stop-color:#f2f2f2" /><stop
         id="stop28"
         offset="0.999999"
         style="stop-opacity:1;stop-color:#b8b8b8" /><stop
         id="stop30"
         offset="1"
         style="stop-opacity:1;stop-color:#b8b8b8" /></linearGradient><clipPath
       id="clipPath42"
       clipPathUnits="userSpaceOnUse"><path
         id="path40"
         d="M 16.635,30.802 47.408,0.03 C 48.262,0.014 49.118,0 50,0 v 0 c 37.045,0 50,12.961 50,50 v 0 c 0,0.882 -0.014,1.737 -0.029,2.592 v 0 L 83.365,69.198 Z" /></clipPath><clipPath
       id="clipPath50"
       clipPathUnits="userSpaceOnUse"><path
         id="path48"
         d="M -32768,32767 H 32767 V -32768 H -32768 Z" /></clipPath><linearGradient
       id="linearGradient60"
       spreadMethod="pad"
       gradientTransform="matrix(45.974174,-45.974174,-45.974174,-45.974174,42.916443,57.083557)"
       gradientUnits="userSpaceOnUse"
       y2="0"
       x2="1"
       y1="0"
       x1="0"><stop
         id="stop52"
         offset="0"
         style="stop-opacity:0.07998779;stop-color:#ffffff" /><stop
         id="stop54"
         offset="0.14086381"
         style="stop-opacity:0.07998779;stop-color:#ffffff" /><stop
         id="stop56"
         offset="0.999999"
         style="stop-opacity:0;stop-color:#ffffff" /><stop
         id="stop58"
         offset="1"
         style="stop-opacity:0;stop-color:#ffffff" /></linearGradient><mask
       id="mask62"
       height="1"
       width="1"
       y="0"
       x="0"
       maskUnits="userSpaceOnUse"><g
         id="g72"><g
           id="g70"
           clip-path="url(#clipPath50)"><g
             id="g68"><g
               id="g66"><path
                 id="path64"
                 style="fill:url(#linearGradient60);stroke:none"
                 d="M -32768,32767 H 32767 V -32768 H -32768 Z" /></g></g></g></g></mask><linearGradient
       id="linearGradient86"
       spreadMethod="pad"
       gradientTransform="matrix(45.974174,-45.974174,-45.974174,-45.974174,42.916443,57.083557)"
       gradientUnits="userSpaceOnUse"
       y2="0"
       x2="1"
       y1="0"
       x1="0"><stop
         id="stop78"
         offset="0"
         style="stop-opacity:1;stop-color:#000000" /><stop
         id="stop80"
         offset="0.14086381"
         style="stop-opacity:1;stop-color:#000000" /><stop
         id="stop82"
         offset="0.999999"
         style="stop-opacity:1;stop-color:#000000" /><stop
         id="stop84"
         offset="1"
         style="stop-opacity:1;stop-color:#000000" /></linearGradient><clipPath
       id="clipPath96"
       clipPathUnits="userSpaceOnUse"><path
         id="path94"
         d="M 0,100 H 100 V 0 H 0 Z" /></clipPath><clipPath
       id="clipPath108"
       clipPathUnits="userSpaceOnUse"><path
         id="path106"
         d="M 16.635,30.802 50.537,11.228 50.647,50.185 16.745,69.758 Z" /></clipPath><clipPath
       id="clipPath124"
       clipPathUnits="userSpaceOnUse"><path
         id="path122"
         d="M 0,100 H 100 V 0 H 0 Z" /></clipPath><clipPath
       id="clipPath136"
       clipPathUnits="userSpaceOnUse"><path
         id="path134"
         d="M 16.745,69.758 50.647,50.185 83.365,69.198 49.463,88.771 Z" /></clipPath><clipPath
       id="clipPath148"
       clipPathUnits="userSpaceOnUse"><path
         id="path146"
         d="M 0,100 H 100 V 0 H 0 Z" /></clipPath><clipPath
       id="clipPath160"
       clipPathUnits="userSpaceOnUse"><path
         id="path158"
         d="m 50.647,50.185 -0.11,-38.957 32.718,19.014 0.11,38.956 z" /></clipPath><clipPath
       id="clipPath172"
       clipPathUnits="userSpaceOnUse"><path
         id="path170"
         d="M 32.875,53.375 28.5,50.844 27.906,47.64 l 1.069,-3.671 1.853,-3.476 v -3.868 l -2.047,-2.531 -6.288,-0.942 13.562,-13.563 14.482,-8.361 18.207,10.582 -32.2,32.2 z" /></clipPath><clipPath
       id="clipPath180"
       clipPathUnits="userSpaceOnUse"><path
         id="path178"
         d="M -32768,32767 H 32767 V -32768 H -32768 Z" /></clipPath><linearGradient
       id="linearGradient190"
       spreadMethod="pad"
       gradientTransform="matrix(34.639191,-34.639191,-34.639191,-34.639191,25.377838,47.721588)"
       gradientUnits="userSpaceOnUse"
       y2="0"
       x2="1"
       y1="0"
       x1="0"><stop
         id="stop182"
         offset="0"
         style="stop-opacity:0.07998779;stop-color:#ffffff" /><stop
         id="stop184"
         offset="0.14086381"
         style="stop-opacity:0.07998779;stop-color:#ffffff" /><stop
         id="stop186"
         offset="0.999999"
         style="stop-opacity:0;stop-color:#ffffff" /><stop
         id="stop188"
         offset="1"
         style="stop-opacity:0;stop-color:#ffffff" /></linearGradient><mask
       id="mask192"
       height="1"
       width="1"
       y="0"
       x="0"
       maskUnits="userSpaceOnUse"><g
         id="g202"><g
           id="g200"
           clip-path="url(#clipPath180)"><g
             id="g198"><g
               id="g196"><path
                 id="path194"
                 style="fill:url(#linearGradient190);stroke:none"
                 d="M -32768,32767 H 32767 V -32768 H -32768 Z" /></g></g></g></g></mask><linearGradient
       id="linearGradient216"
       spreadMethod="pad"
       gradientTransform="matrix(34.639191,-34.639191,-34.639191,-34.639191,25.377838,47.721588)"
       gradientUnits="userSpaceOnUse"
       y2="0"
       x2="1"
       y1="0"
       x1="0"><stop
         id="stop208"
         offset="0"
         style="stop-opacity:1;stop-color:#000000" /><stop
         id="stop210"
         offset="0.14086381"
         style="stop-opacity:1;stop-color:#000000" /><stop
         id="stop212"
         offset="0.999999"
         style="stop-opacity:1;stop-color:#000000" /><stop
         id="stop214"
         offset="1"
         style="stop-opacity:1;stop-color:#000000" /></linearGradient><clipPath
       id="clipPath226"
       clipPathUnits="userSpaceOnUse"><path
         id="path224"
         d="M 0,100 H 100 V 0 H 0 Z" /></clipPath></defs><g
     transform="matrix(1.25,0,0,-1.25,4,129.33333)"
     id="g10"><g
       id="g12"><g
         clip-path="url(#clipPath18)"
         id="g14"><g
           id="g20"><g
             id="g22"><path
               id="path34"
               style="fill:url(#linearGradient32);stroke:none"
               d="M 50,100 C 12.956,100 0,87.039 0,50 v 0 C 0,12.961 12.956,0 50,0 v 0 c 37.045,0 50,12.961 50,50 v 0 c 0,37.044 -12.955,50 -50,50 z"
               inkscape:connector-curvature="0" /></g></g></g></g><g
       id="g36"><g
         clip-path="url(#clipPath42)"
         id="g38"><g
           id="g44"><g
             id="g46" /><g
             mask="url(#mask62)"
             id="g74"><g
               id="g76"><path
                 id="path88"
                 style="fill:url(#linearGradient86);stroke:none"
                 d="M 16.635,30.802 47.408,0.03 C 48.262,0.014 49.118,0 50,0 v 0 c 37.045,0 50,12.961 50,50 v 0 c 0,0.882 -0.014,1.737 -0.029,2.592 v 0 L 83.365,69.198 Z"
                 inkscape:connector-curvature="0" /></g></g></g></g></g><g
       id="g90"><g
         clip-path="url(#clipPath96)"
         id="g92"><g
           transform="translate(16.6348,30.8018)"
           id="g98"><path
             id="path100"
             style="fill:#ca8c18;fill-opacity:1;fill-rule:nonzero;stroke:none"
             d="M 0,0 0.11,38.956 34.012,19.383 33.902,-19.573 Z"
             inkscape:connector-curvature="0" /></g></g></g><g
       id="g102"><g
         clip-path="url(#clipPath108)"
         id="g104"><g
           transform="translate(16.6348,30.8018)"
           id="g110"><path
             id="path112"
             style="fill:#ca8c18;fill-opacity:1;fill-rule:nonzero;stroke:none"
             d="M 0,0 0.11,38.956 34.012,19.383 33.902,-19.573 Z"
             inkscape:connector-curvature="0" /></g><g
           transform="translate(50.5366,11.2285)"
           id="g114"><path
             id="path116"
             style="fill:#ca8c18;fill-opacity:1;fill-rule:nonzero;stroke:none"
             d="m 0,0 -33.902,19.573 0.11,38.956 L 0.11,38.956 Z"
             inkscape:connector-curvature="0" /></g></g></g><g
       id="g118"><g
         clip-path="url(#clipPath124)"
         id="g120"><g
           transform="translate(16.7451,69.7578)"
           id="g126"><path
             id="path128"
             style="fill:#f6bf5a;fill-opacity:1;fill-rule:nonzero;stroke:none"
             d="M 0,0 32.718,19.014 66.62,-0.56 33.902,-19.573 Z"
             inkscape:connector-curvature="0" /></g></g></g><g
       id="g130"><g
         clip-path="url(#clipPath136)"
         id="g132"><g
           transform="translate(16.7451,69.7578)"
           id="g138"><path
             id="path140"
             style="fill:#f6bf5a;fill-opacity:1;fill-rule:nonzero;stroke:none"
             d="M 0,0 32.718,19.014 66.62,-0.56 33.902,-19.573 Z"
             inkscape:connector-curvature="0" /></g></g></g><g
       id="g142"><g
         clip-path="url(#clipPath148)"
         id="g144"><g
           transform="translate(50.647,50.1846)"
           id="g150"><path
             id="path152"
             style="fill:#ca9532;fill-opacity:1;fill-rule:nonzero;stroke:none"
             d="M 0,0 32.718,19.014 32.608,-19.942 -0.11,-38.956 Z"
             inkscape:connector-curvature="0" /></g></g></g><g
       id="g154"><g
         clip-path="url(#clipPath160)"
         id="g156"><g
           transform="translate(50.647,50.1846)"
           id="g162"><path
             id="path164"
             style="fill:#ca9532;fill-opacity:1;fill-rule:nonzero;stroke:none"
             d="M 0,0 32.718,19.014 32.608,-19.942 -0.11,-38.956 Z"
             inkscape:connector-curvature="0" /></g></g></g><g
       id="g166"><g
         clip-path="url(#clipPath172)"
         id="g168"><g
           id="g174"><g
             id="g176" /><g
             mask="url(#mask192)"
             id="g204"><g
               id="g206"><path
                 id="path218"
                 style="fill:url(#linearGradient216);stroke:none"
                 d="M 32.875,53.375 28.5,50.844 27.906,47.64 l 1.069,-3.671 1.853,-3.476 v -3.868 l -2.047,-2.531 -6.288,-0.942 13.562,-13.563 14.482,-8.361 18.207,10.582 -32.2,32.2 z"
                 inkscape:connector-curvature="0" /></g></g></g></g></g><g
       id="g220"><g
         clip-path="url(#clipPath226)"
         id="g222"><g
           transform="translate(30.9023,50.2578)"
           id="g228"><path
             id="path230"
             style="fill:#ffffff;fill-opacity:1;fill-rule:nonzero;stroke:none"
             d="m 0,0 c -0.088,-0.507 -0.096,-1.053 -0.031,-1.61 0.032,-0.31 0.183,-1.008 0.183,-1.008 0,0 0.646,0.262 0.939,0.359 0.46,0.171 0.959,0.311 1.518,0.439 0.326,0.072 1.211,0.211 1.311,0.229 0.233,0.027 0.459,0.064 0.699,0.086 C 4.503,-0.2 4.533,0.983 4.709,2.036 4.756,2.33 4.891,2.917 4.891,2.917 4.086,2.831 3.347,2.692 2.641,2.511 2.368,2.439 1.556,2.182 1.556,2.182 1.176,2.034 0.85,1.787 0.583,1.437 0.522,1.357 0.462,1.285 0.416,1.197 0.208,0.843 0.067,0.442 0,0 m 9.215,-6.46 c 0.014,-0.008 0.366,-0.081 0.904,-0.193 -0.518,0.2 -0.996,0.384 -1.415,0.549 -0.227,0.089 -0.455,0.2 -0.683,0.331 -0.711,0.411 -1.412,1.022 -2.025,1.776 L 5.843,-3.81 C 5.538,-3.427 5.154,-2.945 4.896,-2.468 4.709,-2.482 4.53,-2.509 4.35,-2.535 4.23,-2.55 4.104,-2.561 3.984,-2.575 3.658,-2.632 3.338,-2.692 3.032,-2.76 2.486,-2.881 2,-3.021 1.554,-3.184 1.201,-3.301 0.875,-3.434 0.555,-3.569 l -0.1,-0.042 c 0.04,-0.115 0.232,-0.6 0.232,-0.6 0.085,-0.195 0.37,-0.771 0.37,-0.771 0.132,-0.253 0.278,-0.505 0.43,-0.747 0,0 0.325,-0.461 0.431,-0.607 1.291,0.256 2.642,0.348 4.012,0.282 0.199,0 0.891,-0.055 1.038,-0.071 0.711,-0.06 1.47,-0.176 2.247,-0.335 m -8.556,-9.668 c 0.275,0.637 0.417,1.388 0.419,2.242 10e-4,0.122 -0.006,0.241 -0.012,0.352 -0.019,0.294 -0.058,0.584 -0.117,0.886 l -0.027,0.152 c -0.065,0.298 -0.144,0.58 -0.236,0.871 l -0.06,0.172 -0.099,0.24 c 0.081,-1.95 -0.449,-3.516 -1.57,-4.605 -0.52,-0.51 -1.16,-0.912 -1.906,-1.177 -0.619,-0.232 -1.278,-0.371 -1.984,-0.438 0.134,-0.031 0.273,-0.05 0.406,-0.073 1.61,-0.249 3.1,-0.162 4.438,0.266 0.087,0.088 0.18,0.171 0.254,0.274 0.207,0.263 0.367,0.544 0.494,0.838 m 3.12,4.574 C 3.517,-10.08 2.79,-8.49 1.782,-7.183 l -0.172,0.23 c -0.842,1.082 -1.524,2.378 -1.952,3.71 -0.204,0.639 -0.349,1.287 -0.42,1.932 -0.078,0.657 -0.063,1.283 0.038,1.866 0.034,0.24 0.088,0.477 0.162,0.702 -0.227,-0.129 -0.913,-0.551 -0.913,-0.551 -0.28,-0.198 -0.533,-0.472 -0.728,-0.81 -0.34,-0.568 -0.509,-1.304 -0.511,-2.174 0,-0.122 0.089,-1.244 0.194,-1.71 0.073,-0.302 0.291,-1.001 0.291,-1.001 0.31,-0.912 0.772,-1.837 1.342,-2.679 0.126,-0.202 0.921,-1.266 1.087,-1.537 0.146,-0.229 0.271,-0.454 0.397,-0.688 0.477,-0.886 0.82,-1.811 1.017,-2.711 0.059,-0.242 0.105,-0.482 0.137,-0.722 0.02,-0.195 0.04,-0.382 0.052,-0.572 0.007,-0.142 0.013,-0.276 0.012,-0.413 -10e-4,-0.229 -0.055,-0.862 -0.055,-0.862 -0.014,-0.145 -0.034,-0.286 -0.055,-0.42 -0.013,-0.084 -0.101,-0.469 -0.135,-0.587 -0.02,-0.073 -0.12,-0.396 -0.12,-0.396 0.486,0.284 0.946,0.615 1.373,0.995 0,0 0.267,0.251 0.307,0.297 0.5,0.575 0.769,1.414 0.772,2.452 10e-4,0.427 -0.045,0.858 -0.123,1.278 m 12.231,3.541 c 0.072,-0.248 -0.002,-0.45 -0.181,-0.446 -1.457,10e-4 -6.191,1.014 -6.397,1.063 -0.751,0.152 -1.489,0.264 -2.188,0.324 -0.14,0.019 -0.811,0.071 -0.991,0.067 -1.264,0.065 -2.495,-0.019 -3.679,-0.237 0.961,-1.396 1.655,-3.02 1.923,-4.528 0.091,-0.488 0.143,-0.992 0.142,-1.488 -0.003,-1.206 -0.312,-2.189 -0.893,-2.841 -0.04,-0.052 -0.293,-0.297 -0.347,-0.342 -0.867,-0.784 -1.879,-1.361 -2.998,-1.716 -1.405,-0.458 -2.982,-0.557 -4.678,-0.288 -1.283,0.198 -2.613,0.598 -3.961,1.209 -0.213,0.115 -0.359,0.337 -0.398,0.558 -0.039,0.237 0.061,0.385 0.24,0.358 0.792,-0.151 1.557,-0.218 2.275,-0.204 0.992,0.007 1.883,0.15 2.649,0.426 0.753,0.277 1.352,0.65 1.84,1.125 1.267,1.233 1.698,3.147 1.253,5.537 -0.126,0.195 -0.835,1.163 -0.975,1.38 -0.649,0.956 -1.185,2.03 -1.541,3.077 -0.013,0.03 -0.046,0.125 -0.066,0.213 -0.092,0.26 -0.185,0.581 -0.263,0.94 -0.125,0.546 -0.197,1.054 -0.222,1.535 -0.006,0.164 -0.012,0.305 -0.012,0.442 0.003,1.008 0.205,1.847 0.599,2.506 0.228,0.388 0.514,0.704 0.854,0.936 l 0.173,0.114 c 0.967,0.604 1.926,1.059 2.918,1.396 0.14,0.057 0.832,0.276 1.125,0.344 0.793,0.208 1.631,0.358 2.57,0.435 0,0 0.439,0.03 0.545,0.037 C 5.38,3.922 5.439,3.904 5.498,3.87 5.585,3.82 5.671,3.735 5.738,3.628 5.857,3.452 5.896,3.246 5.85,3.105 5.756,2.838 5.675,2.556 5.601,2.262 5.534,2.003 5.48,1.744 5.433,1.473 5.322,0.8 5.274,0.068 5.288,-0.708 5.304,-1.643 5.625,-2.554 6.209,-3.282 6.212,-3.285 6.215,-3.288 6.217,-3.292 L 6.29,-3.38 c 0.579,-0.708 1.167,-1.219 1.758,-1.56 0.182,-0.105 0.364,-0.194 0.545,-0.266 1.981,-0.769 5.529,-2.106 6.946,-2.306 0.042,-0.007 0.086,-0.023 0.128,-0.048 0.145,-0.084 0.281,-0.258 0.343,-0.453"
             inkscape:connector-curvature="0" /></g></g></g></g></svg>