<svg xmlns="http://www.w3.org/2000/svg" xmlns:xlink="http://www.w3.org/1999/xlink" width="192" height="192" viewBox="0 0 192 192">
  <defs>
    <style>
      .cls-1 {
        opacity: 0.01;
      }

      .cls-1, .cls-2, .cls-3, .cls-4 {
        isolation: isolate;
      }

      .cls-2 {
        opacity: 0.02;
      }

      .cls-3 {
        opacity: 0.04;
      }

      .cls-4 {
        opacity: 0.06;
      }

      .cls-5 {
        fill: #e00000;
      }

      .cls-6 {
        fill: url(#未命名的渐变);
      }

      .cls-7 {
        fill: url(#未命名的渐变_2);
      }

      .cls-8 {
        fill: none;
      }

      .cls-9 {
        fill: url(#未命名的渐变_3);
      }

      .cls-10 {
        fill: #3d0000;
      }

      .cls-11 {
        fill: #fafafa;
      }

      .cls-12 {
        fill: #fff;
      }

      .cls-13 {
        fill-rule: evenodd;
        fill: url(#未命名的渐变_12);
      }
    </style>
    <linearGradient id="未命名的渐变" x1="166.004" y1="512.002" x2="25.998" y2="371.996" gradientTransform="translate(0 -346)" gradientUnits="userSpaceOnUse">
      <stop offset="0" stop-opacity="0.1"/>
      <stop offset="0.5" stop-color="gray" stop-opacity="0.05"/>
      <stop offset="1" stop-color="#fff" stop-opacity="0.1"/>
    </linearGradient>
    <linearGradient id="未命名的渐变_2" data-name="未命名的渐变 2" x1="166.013" y1="464.012" x2="25.987" y2="323.988" gradientTransform="translate(0 -298)" gradientUnits="userSpaceOnUse">
      <stop offset="0" stop-opacity="0.04"/>
      <stop offset="0.5" stop-color="gray" stop-opacity="0"/>
      <stop offset="1" stop-color="#fff" stop-opacity="0.1"/>
    </linearGradient>
    <linearGradient id="未命名的渐变_3" data-name="未命名的渐变 3" x1="167.651" y1="29.649" x2="73.879" y2="123.42" gradientTransform="matrix(1, 0, 0, -1, 0, 194)" gradientUnits="userSpaceOnUse">
      <stop offset="0" stop-opacity="0.04"/>
      <stop offset="1" stop-opacity="0.12"/>
    </linearGradient>
    <linearGradient id="未命名的渐变_12" data-name="未命名的渐变 12" x1="95.139" y1="96" x2="150.705" y2="96" gradientUnits="userSpaceOnUse">
      <stop offset="0" stop-opacity="0.24"/>
      <stop offset="0.2" stop-opacity="0"/>
    </linearGradient>
  </defs>
  <title>adia64</title>
  <g id="图层_2" data-name="图层 2">
    <g id="图层_1-2" data-name="图层 1">
      <g>
        <path class="cls-1" d="M96,190C27.3,190,3,165.7,3,97S27.3,4,96,4s93,24.3,93,93S164.7,190,96,190Z"/>
        <path class="cls-2" d="M96,189C28.1,189,4,164.9,4,97S28.1,5,96,5s92,24.1,92,92S163.9,189,96,189Z"/>
        <path class="cls-3" d="M96,188C28.8,188,5,164.2,5,97S28.8,6,96,6s91,23.8,91,91S163.2,188,96,188Z"/>
        <path class="cls-4" d="M186,97c0,66.7-23.3,90-90,90S6,163.7,6,97,29.3,7,96,7,186,30.3,186,97Z"/>
      </g>
      <path class="cls-5" d="M186,96c0,66.7-23.3,90-90,90S6,162.7,6,96,29.3,6,96,6,186,29.3,186,96Z"/>
      <path class="cls-6" d="M186,96c0,66.67-23.32,90-90,90S6,162.67,6,96,29.32,6,96,6,186,29.32,186,96Z"/>
      <path class="cls-7" d="M96,6C29.3,6,6,29.3,6,96s23.3,90,90,90,90-23.3,90-90S162.7,6,96,6Zm68.6,158.6C151.2,178,130,184,96,184s-55.2-6-68.6-19.4S8,130,8,96s6-55.2,19.4-68.6S62,8,96,8s55.2,6,68.6,19.4S184,62,184,96,178,151.2,164.6,164.6Z"/>
      <rect class="cls-8" width="192" height="192"/>
      <path class="cls-9" d="M107.672,74.328,88.9,55.559,68,81,44.8,129.2l56.738,56.738C163.972,184.647,186,160.789,186,96c0-.339,0-.669-.006-1.006L146,55Z"/>
      <path class="cls-10" d="M131.232,138c-5.042,0-7.874-.034-8.415-.1a2,2,0,0,1-1.759-1.978l-.038-12.075q-1.143-.018-2.855-.018c-2.03,0-4.315.018-6.235.033-1.4.011-2.611.021-3.389.021-.286,0-.973,0-1.9-.012-1.926-.014-4.9-.036-7.485-.036-2.246,0-3.457.018-4.11.035l-.289.423a21.343,21.343,0,0,1-1.9,2.5,40.961,40.961,0,0,1-3.284,3.225,31.733,31.733,0,0,1-8.114,5.094,35.942,35.942,0,0,1-14.239,2.832,33.3,33.3,0,0,1-17.847-4.88,31.072,31.072,0,0,1-3.609-2.805,27.153,27.153,0,0,1-2.97-3.068l-.348-.4a27.453,27.453,0,0,1-4.793-8.63A33.116,33.116,0,0,1,36,106.519a45.711,45.711,0,0,1,3.476-16c1-2.457,1.876-4.2,2.8-6.052.389-.779.792-1.588,1.227-2.491,2.168-4.508,7.387-11.7,11.2-16.947l1.435-1.982c1.7-2.357,3.388-4.706,5.165-7.222a3.239,3.239,0,0,1,2.856-1.4c.168,0,.354.006.562.014s.444.016.717.016h.156c1.038,0,2.85-.01,5-.022,3.144-.018,7.007-.04,10.232-.04,4.86,0,6.023.051,6.474.09a2,2,0,0,1,1.822,2.164l0,.019c-.064.665-.1,1.066-4.518,6.891l-.212.28c-.792,1.055-1.577,2.133-2.38,3.234q-1.05,1.452-2.169,2.955L78.469,71.86c-1.825,2.435-4.094,5.464-5.344,7.294,7.985.227,13.75,2.985,19.674,9.346.208.223.4.445.574.662l.236-.3c.425-.532.849-1.022,1.271-1.51.233-.269.466-.538.7-.813l26.761-31.807a2,2,0,0,1,1.528-.712L144.6,54a2,2,0,0,1,2,2l.047,44.354,2.569,0c.278,0,.655-.014,1.076-.028.6-.019,1.279-.042,1.907-.042a8.135,8.135,0,0,1,2.407.245,2,2,0,0,1,1.384,1.9l.018,19.309a2,2,0,0,1-1.56,1.954,14.206,14.206,0,0,1-2.765.131c-1.135,0-2.494-.019-3.688-.037l-1.319-.018-.017,12.1a2,2,0,0,1-1.6,1.957c-.811.165-10.771.178-13.815.178Zm-63.4-39.2a7.623,7.623,0,0,0-1.43.138,8.346,8.346,0,0,0-6.906,6.243,8.213,8.213,0,0,0,2.69,8.406,8.59,8.59,0,0,0,5.363,2,7.613,7.613,0,0,0,5.6-2.49,9.152,9.152,0,0,0,2.165-7.118c-.323-3.524-3.214-7.179-7.485-7.179Zm53.47,1.707V89.736L112.05,100.51Z"/>
      <path class="cls-11" d="M93.375,100.1a21.8,21.8,0,0,0-5.94-9.283,20.443,20.443,0,0,0-14.881-6.344c-4.91.013-6.759.913-10.977,1.413h0c.185-.484,4.3-5.938,4.72-6.529,2.622-3.707,5.681-7.627,8.347-11.351l4.758-6.5a11.505,11.505,0,0,0,1.147-1.657l-15.54.055a16,16,0,0,0-.977,1.323l-6.409,8.942C51.9,78.333,48.577,82.29,44.507,92.358c-3.17,7.836-4.836,18.225-.97,26.236a24.216,24.216,0,0,0,5.923,7.891l2.632,1.981A23.007,23.007,0,0,0,56.1,130.6c9.025,3.838,22.22,1.971,29.312-4.123a26.5,26.5,0,0,0,3.135-3.005C94.04,117.8,95.958,107.438,93.375,100.1ZM78.613,114.7c-.2.328-.485.7-.69.976l-.761.9A12.894,12.894,0,0,1,62.3,119.921a12.67,12.67,0,0,1-5.777-4.462,13.878,13.878,0,0,1-1.715-13.311,13.4,13.4,0,0,1,1.173-2.282A13.662,13.662,0,0,1,66.52,93.605a12.738,12.738,0,0,1,12.825,7.346A14.8,14.8,0,0,1,78.613,114.7Zm62.678-9.053-.053-46.258h-15.6c-.484.207-.716.663-1.028,1.024l-3.814,4.5c-.3.376-.621.782-.921,1.13L98.94,90.893a3.052,3.052,0,0,1-.476.545L96.21,94.111a31.033,31.033,0,0,1,1.883,4.328,29.742,29.742,0,0,1-.713,20.11c9.371.038,18.988-.111,28.26,0l.675.016.03,14.045h14.9c0-2.923-.125-11.791.043-14.06h9.417V105.655Zm-14.941,0H100.92L126.35,76.02Z"/>
      <g>
        <path class="cls-12" d="M63.3,121.921a12.893,12.893,0,0,0,14.861-3.351l.761-.9c.2-.275.489-.648.69-.976a14.8,14.8,0,0,0,.732-13.746,12.672,12.672,0,0,0-.8-1.477,14.748,14.748,0,0,1-.932,13.223c-.2.328-.485.7-.69.976l-.761.9A12.893,12.893,0,0,1,62.3,119.921a13.119,13.119,0,0,1-6.508-5.577,12.825,12.825,0,0,0,1.731,3.115A12.675,12.675,0,0,0,63.3,121.921Z"/>
        <polygon class="cls-12" points="127.35 78.02 126.35 79.185 126.35 105.641 103.637 105.641 101.92 107.641 127.35 107.641 127.35 78.02"/>
        <rect class="cls-12" x="142.294" y="105.652" width="8.411" height="1.999"/>
        <path class="cls-12" d="M64.25,85.476a29.1,29.1,0,0,0-1.673,2.409c4.218-.5,6.067-1.4,10.977-1.413a20.443,20.443,0,0,1,14.881,6.344,23.793,23.793,0,0,1,4.074,5.105,21.821,21.821,0,0,0-5.074-7.105,20.443,20.443,0,0,0-14.881-6.344A38.642,38.642,0,0,0,64.25,85.476Z"/>
        <path class="cls-12" d="M45.507,94.358C49.577,84.29,52.9,80.333,58.621,72.169l6.409-8.942a16,16,0,0,1,.977-1.323l13.138-.047.257-.351a11.573,11.573,0,0,0,1.145-1.657l-15.54.055a16,16,0,0,0-.977,1.323l-6.409,8.942C51.9,78.333,48.577,82.29,44.507,92.358c-3.167,7.832-4.836,18.225-.97,26.236.237.491.5.976.766,1.457C40.76,112.117,42.41,102.016,45.507,94.358Z"/>
        <path class="cls-12" d="M127.313,120.567l-.675-.016h-.321l.026,12.063h1Z"/>
        <path class="cls-12" d="M99.074,118.548a29.372,29.372,0,0,0,.017-18.11,31.033,31.033,0,0,0-1.883-4.328l2.254-2.673a3.052,3.052,0,0,0,.476-.545L120.875,68.04c.3-.348.624-.754.921-1.13l3.814-4.5c.312-.361.544-.817,1.028-1.024h14.607v-2h-15.6c-.484.207-.716.663-1.028,1.024l-3.814,4.5c-.3.376-.62.782-.921,1.13L98.938,90.892a3.052,3.052,0,0,1-.476.545L96.208,94.11a31.033,31.033,0,0,1,1.883,4.328,29.742,29.742,0,0,1-.713,20.11C97.941,118.55,98.51,118.547,99.074,118.548Z"/>
      </g>
      <path class="cls-13" d="M95.139,95.464c.209-.294.325-.474.514-.695l2.809-3.332a3.06,3.06,0,0,0,.476-.545L119.875,66.04c.3-.348.624-.754.921-1.13l3.814-4.5c.312-.361.544-.817,1.028-1.024l15.6,0,.053,46.258,9.41.006,0,12.895h-9.417c-.168,2.269-.043,11.137-.043,14.06h-14.9l-.03-14.045-.675-.016c-9.826-.117-20.05.064-29.946-.006a41.976,41.976,0,0,0,1.6-5.368,29.534,29.534,0,0,0-.283-12.623,36.569,36.569,0,0,0-1.87-5.09Zm5.781,10.177h25.43V76.02Z"/>
    </g>
  </g>
</svg>
