<svg xmlns="http://www.w3.org/2000/svg" xmlns:xlink="http://www.w3.org/1999/xlink" viewBox="0 0 192 192"><defs><style>.cls-1{fill:none;}.cls-2{opacity:0.01;}.cls-2,.cls-3,.cls-4,.cls-5{isolation:isolate;}.cls-3{opacity:0.02;}.cls-4{opacity:0.04;}.cls-5{opacity:0.06;}.cls-6{fill:#5a6363;}.cls-7{fill:url(#未命名的渐变_64);}.cls-8{fill:url(#未命名的渐变_2);}.cls-9{fill:url(#未命名的渐变_15);}.cls-10{fill:#dcdcdc;}.cls-11{fill:#fafafa;}.cls-12{fill:#00c1b7;}.cls-13{fill:#0ed6e0;}.cls-14{fill:#c8c8c8;}.cls-15{fill:#f0f0f0;}.cls-16{fill:#d2d2d2;}.cls-17{fill:url(#未命名的渐变_58);}.cls-18{fill:url(#未命名的渐变_55);}.cls-19{fill:url(#未命名的渐变_58-2);}.cls-20{fill:url(#未命名的渐变_55-2);}</style><linearGradient id="未命名的渐变_64" x1="166.01" y1="75.99" x2="25.99" y2="216.01" gradientTransform="matrix(1, 0, 0, -1, 0, 242)" gradientUnits="userSpaceOnUse"><stop offset="0" stop-opacity="0.1"/><stop offset="0.5" stop-color="gray" stop-opacity="0.05"/><stop offset="1" stop-color="#fff" stop-opacity="0.12"/></linearGradient><linearGradient id="未命名的渐变_2" x1="166.01" y1="75.99" x2="25.99" y2="216.01" gradientTransform="matrix(1, 0, 0, -1, 0, 242)" gradientUnits="userSpaceOnUse"><stop offset="0" stop-opacity="0.04"/><stop offset="0.5" stop-color="gray" stop-opacity="0"/><stop offset="1" stop-color="#fff" stop-opacity="0.1"/></linearGradient><linearGradient id="未命名的渐变_15" x1="166.03" y1="165.99" x2="79.27" y2="79.24" gradientUnits="userSpaceOnUse"><stop offset="0" stop-opacity="0.04"/><stop offset="1" stop-opacity="0.16"/></linearGradient><linearGradient id="未命名的渐变_58" x1="96" y1="154" x2="112.74" y2="125" gradientUnits="userSpaceOnUse"><stop offset="0.9" stop-opacity="0"/><stop offset="1" stop-opacity="0.1"/></linearGradient><linearGradient id="未命名的渐变_55" x1="96" y1="96" x2="129.49" y2="96" gradientUnits="userSpaceOnUse"><stop offset="0" stop-opacity="0.1"/><stop offset="0.1" stop-opacity="0"/></linearGradient><linearGradient id="未命名的渐变_58-2" x1="96" y1="115.33" x2="79.26" y2="86.33" xlink:href="#未命名的渐变_58"/><linearGradient id="未命名的渐变_55-2" x1="79.26" y1="67" x2="96" y2="38" xlink:href="#未命名的渐变_55"/></defs><title>share</title><g id="图层_2" data-name="图层 2"><g id="图层_2-2" data-name="图层 2"><rect class="cls-1" width="192" height="192"/><path class="cls-2" d="M96,190C27.3,190,3,165.7,3,97S27.3,4,96,4s93,24.3,93,93S164.7,190,96,190Z"/><path class="cls-3" d="M96,189C28.1,189,4,164.9,4,97S28.1,5,96,5s92,24.1,92,92S163.9,189,96,189Z"/><path class="cls-4" d="M96,188C28.8,188,5,164.2,5,97S28.8,6,96,6s91,23.8,91,91S163.2,188,96,188Z"/><path class="cls-5" d="M186,97c0,66.7-23.3,90-90,90S6,163.7,6,97,29.3,7,96,7,186,30.3,186,97Z"/><path class="cls-6" d="M186,96c0,66.7-23.3,90-90,90S6,162.7,6,96,29.3,6,96,6,186,29.3,186,96Z"/><path class="cls-7" d="M186,96c0,66.7-23.3,90-90,90S6,162.7,6,96,29.3,6,96,6,186,29.3,186,96Z"/><path class="cls-8" d="M96,6C29.3,6,6,29.3,6,96s23.3,90,90,90,90-23.3,90-90S162.7,6,96,6Zm68.6,158.6C151.2,178,130,184,96,184s-55.2-6-68.6-19.4S8,130,8,96s6-55.2,19.4-68.6S62,8,96,8s55.2,6,68.6,19.4S184,62,184,96,178,151.2,164.6,164.6Z"/><path class="cls-9" d="M113.31,185.39c48.08-3.64,68.47-24,72.09-72.15L129.49,57.33,62.63,95.88,96,129.25l-33.45,5.38Z"/><polygon class="cls-10" points="96 154 129.49 134.67 96 115.33 96 154"/><polygon class="cls-11" points="96 115.33 96 115.33 96 115.33 96 115.33"/><polygon class="cls-12" points="96 115.33 129.49 96 96 76.67 96 115.33"/><polygon class="cls-13" points="96 115.33 96 115.33 129.49 134.67 129.49 96 96 115.33"/><polygon class="cls-14" points="96 115.33 62.51 134.67 96 154 96 115.33 96 115.33"/><polygon class="cls-10" points="96 115.33 96 76.67 62.51 96 96 115.33 96 115.33"/><polygon class="cls-11" points="96 76.67 96 76.67 96 76.67 96 76.67"/><polygon class="cls-15" points="62.51 57.33 62.51 96 96 76.67 62.51 57.33"/><polygon class="cls-11" points="96 76.67 129.49 57.33 96 38 96 76.67"/><polygon class="cls-16" points="96 76.67 96 38 62.51 57.33 96 76.67 96 76.67"/><polygon class="cls-17" points="96 154 129.49 134.67 96 115.33 96 154"/><polygon class="cls-18" points="96 115.33 129.49 96 96 76.67 96 115.33"/><polygon class="cls-14" points="96 115.33 62.51 134.67 96 154 96 115.33 96 115.33"/><polygon class="cls-19" points="96 115.33 96 76.67 62.51 96 96 115.33 96 115.33"/><polygon class="cls-20" points="96 76.67 96 38 62.51 57.33 96 76.67 96 76.67"/></g></g></svg>