<svg xmlns="http://www.w3.org/2000/svg" xmlns:xlink="http://www.w3.org/1999/xlink" viewBox="0 0 192 192"><defs><style>.cls-1{fill:none;}.cls-2{opacity:0.01;}.cls-2,.cls-3,.cls-4,.cls-5{isolation:isolate;}.cls-3{opacity:0.02;}.cls-4{opacity:0.04;}.cls-5{opacity:0.06;}.cls-6{fill:#d22222;}.cls-7{fill:url(#未命名的渐变);}.cls-8{fill:url(#未命名的渐变_2);}.cls-9{fill:url(#未命名的渐变_3);}.cls-10{fill:#fafafa;}.cls-11{fill:#fff;}.cls-12{fill:url(#未命名的渐变_4);}.cls-13{fill:url(#未命名的渐变_5);}</style><linearGradient id="未命名的渐变" x1="166.01" y1="-572.01" x2="25.99" y2="-431.99" gradientTransform="matrix(1, 0, 0, -1, 0, -406)" gradientUnits="userSpaceOnUse"><stop offset="0" stop-opacity="0.1"/><stop offset="0.5" stop-color="gray" stop-opacity="0.05"/><stop offset="1" stop-color="#fff" stop-opacity="0.12"/></linearGradient><linearGradient id="未命名的渐变_2" x1="166.01" y1="-572.01" x2="25.99" y2="-431.99" gradientTransform="matrix(1, 0, 0, -1, 0, -406)" gradientUnits="userSpaceOnUse"><stop offset="0" stop-opacity="0.05"/><stop offset="0.5" stop-color="gray" stop-opacity="0"/><stop offset="1" stop-color="#fff" stop-opacity="0.1"/></linearGradient><linearGradient id="未命名的渐变_3" x1="166.99" y1="28.97" x2="62.4" y2="133.56" gradientTransform="matrix(1, 0, 0, -1, 0, 194)" gradientUnits="userSpaceOnUse"><stop offset="0" stop-opacity="0.04"/><stop offset="1" stop-opacity="0.18"/></linearGradient><linearGradient id="未命名的渐变_4" x1="112" y1="44.13" x2="112" y2="60" gradientTransform="matrix(1, 0, 0, -1, 0, 194)" gradientUnits="userSpaceOnUse"><stop offset="0.4" stop-opacity="0"/><stop offset="1" stop-opacity="0.12"/></linearGradient><linearGradient id="未命名的渐变_5" x1="140.43" y1="56.63" x2="73.59" y2="123.47" gradientTransform="matrix(1, 0, 0, -1, 0, 194)" gradientUnits="userSpaceOnUse"><stop offset="0.2" stop-opacity="0"/><stop offset="1" stop-opacity="0.08"/></linearGradient></defs><title>ruanmei_ithome</title><g id="图层_2" data-name="图层 2"><g id="图层_1-2" data-name="图层 1"><rect class="cls-1" width="192" height="192"/><path class="cls-2" d="M96,190C27.3,190,3,165.7,3,97S27.3,4,96,4s93,24.3,93,93S164.7,190,96,190Z"/><path class="cls-3" d="M96,189C28.1,189,4,164.9,4,97S28.1,5,96,5s92,24.1,92,92S163.9,189,96,189Z"/><path class="cls-4" d="M96,188C28.8,188,5,164.2,5,97S28.8,6,96,6s91,23.8,91,91S163.2,188,96,188Z"/><path class="cls-5" d="M186,97c0,66.7-23.3,90-90,90S6,163.7,6,97,29.3,7,96,7,186,30.3,186,97Z"/><path class="cls-6" d="M186,96c0,66.7-23.3,90-90,90S6,162.7,6,96,29.3,6,96,6,186,29.3,186,96Z"/><path class="cls-7" d="M186,96c0,66.7-23.3,90-90,90S6,162.7,6,96,29.3,6,96,6,186,29.3,186,96Z"/><path class="cls-8" d="M96,6C29.3,6,6,29.3,6,96s23.3,90,90,90,90-23.3,90-90S162.7,6,96,6Zm68.6,158.6C151.2,178,130,184,96,184s-55.2-6-68.6-19.4S8,130,8,96s6-55.2,19.4-68.6S62,8,96,8s55.2,6,68.6,19.4S184,62,184,96,178,151.2,164.6,164.6Z"/><path class="cls-9" d="M186,96.33,148.08,58.42,58.5,64.33,43.81,129.56l56.4,56.4C163.57,185,185.92,161.35,186,96.33Z"/><path class="cls-10" d="M138,54H54A14,14,0,0,0,40,68v52a14,14,0,0,0,14,14h46l22.11,15.66a1.2,1.2,0,0,0,1.89-1V134h14a14,14,0,0,0,14-14V68A14,14,0,0,0,138,54ZM76,118.5a1.5,1.5,0,0,1-1.5,1.5h-11a1.5,1.5,0,0,1-1.5-1.5h0v-49A1.5,1.5,0,0,1,63.5,68h11A1.5,1.5,0,0,1,76,69.5Zm56-40a1.5,1.5,0,0,1-1.5,1.5H116v38.5a1.5,1.5,0,0,1-1.5,1.5h-9a1.5,1.5,0,0,1-1.5-1.5h0V80H89.5A1.5,1.5,0,0,1,88,78.5v-9A1.5,1.5,0,0,1,89.5,68h41a1.5,1.5,0,0,1,1.5,1.5Z"/><path class="cls-11" d="M64.5,122h11a1.5,1.5,0,0,0,1.5-1.5v-49a1.5,1.5,0,0,0-1-1.41V118.5a1.5,1.5,0,0,1-1.5,1.5h-11a1.49,1.49,0,0,1-.5-.09v.59A1.5,1.5,0,0,0,64.5,122Z"/><path class="cls-11" d="M41,122V70A14,14,0,0,1,55,56h84a14,14,0,0,1,12,6.8A14,14,0,0,0,138,54H54A14,14,0,0,0,40,68v52a13.91,13.91,0,0,0,2,7.2A13.94,13.94,0,0,1,41,122Z"/><path class="cls-11" d="M90.5,82H104V80H89.5a1.49,1.49,0,0,1-.5-.09v.59A1.5,1.5,0,0,0,90.5,82Z"/><path class="cls-11" d="M106.5,122h9a1.5,1.5,0,0,0,1.5-1.5V82h14.5a1.5,1.5,0,0,0,1.5-1.5v-9a1.5,1.5,0,0,0-1-1.41V78.5a1.5,1.5,0,0,1-1.5,1.5H116v38.5a1.5,1.5,0,0,1-1.5,1.5h-9a1.49,1.49,0,0,1-.5-.09v.59A1.5,1.5,0,0,0,106.5,122Z"/><path class="cls-12" d="M100,134h24v14.65a1.22,1.22,0,0,1-1.92,1Z"/><path class="cls-13" d="M152,88.89V120a14,14,0,0,1-14,14H77L62.93,119.89a1.49,1.49,0,0,0,.57.11h11a1.5,1.5,0,0,0,1.5-1.5h0v-49a1.49,1.49,0,0,0-.38-1L104,96.89V118.5a1.5,1.5,0,0,0,1.5,1.5h9a1.5,1.5,0,0,0,1.5-1.5h0V80h14.5a1.5,1.5,0,0,0,1.5-1.5v-9a1.49,1.49,0,0,0-.39-1Zm-63.05-9L104,94.95V80H89.5A1.49,1.49,0,0,1,88.95,79.89Z"/></g></g></svg>