<?xml version="1.0" encoding="UTF-8" standalone="no"?>
<svg
   xmlns:dc="http://purl.org/dc/elements/1.1/"
   xmlns:cc="http://creativecommons.org/ns#"
   xmlns:rdf="http://www.w3.org/1999/02/22-rdf-syntax-ns#"
   xmlns:svg="http://www.w3.org/2000/svg"
   xmlns="http://www.w3.org/2000/svg"
   xmlns:sodipodi="http://sodipodi.sourceforge.net/DTD/sodipodi-0.dtd"
   xmlns:inkscape="http://www.inkscape.org/namespaces/inkscape"
   viewBox="0 0 133.33333 133.33333"
   height="133.33333"
   width="133.33333"
   xml:space="preserve"
   id="svg2"
   version="1.1"
   sodipodi:docname="harbour-lighthouse.svg"
   inkscape:version="0.92.2 2405546, 2018-03-11"><sodipodi:namedview
     pagecolor="#ffffff"
     bordercolor="#666666"
     borderopacity="1"
     objecttolerance="10"
     gridtolerance="10"
     guidetolerance="10"
     inkscape:pageopacity="0"
     inkscape:pageshadow="2"
     inkscape:window-width="1366"
     inkscape:window-height="706"
     id="namedview79"
     showgrid="false"
     inkscape:zoom="1.7700001"
     inkscape:cx="66.666664"
     inkscape:cy="66.666664"
     inkscape:window-x="0"
     inkscape:window-y="34"
     inkscape:window-maximized="1"
     inkscape:current-layer="svg2" /><metadata
     id="metadata8"><rdf:RDF><cc:Work
         rdf:about=""><dc:format>image/svg+xml</dc:format><dc:type
           rdf:resource="http://purl.org/dc/dcmitype/StillImage" /></cc:Work></rdf:RDF></metadata><defs
     id="defs6"><clipPath
       id="clipPath18"
       clipPathUnits="userSpaceOnUse"><path
         id="path16"
         d="M 50,100 C 12.956,100 0,87.039 0,50 v 0 C 0,12.961 12.956,0 50,0 v 0 c 37.045,0 50,12.961 50,50 v 0 c 0,37.044 -12.955,50 -50,50 z" /></clipPath><linearGradient
       id="linearGradient32"
       spreadMethod="pad"
       gradientTransform="matrix(77.78125,-77.78125,-77.78125,-77.78125,11.109896,88.891144)"
       gradientUnits="userSpaceOnUse"
       y2="0"
       x2="1"
       y1="0"
       x1="0"><stop
         id="stop24"
         offset="0"
         style="stop-opacity:1;stop-color:#60dbd1" /><stop
         id="stop26"
         offset="0.00000023"
         style="stop-opacity:1;stop-color:#60dbd1" /><stop
         id="stop28"
         offset="1"
         style="stop-opacity:1;stop-color:#3e8994" /><stop
         id="stop30"
         offset="1"
         style="stop-opacity:1;stop-color:#3e8994" /></linearGradient><clipPath
       id="clipPath42"
       clipPathUnits="userSpaceOnUse"><path
         id="path40"
         d="M 0,100 H 100 V 0 H 0 Z" /></clipPath><clipPath
       id="clipPath50"
       clipPathUnits="userSpaceOnUse"><path
         id="path48"
         d="m 12.5,87.5 h 75 v -75 h -75 z" /></clipPath><clipPath
       id="clipPath66"
       clipPathUnits="userSpaceOnUse"><path
         id="path64"
         d="M 28.3333,71.6667 H 71.6667 V 28.3333 H 28.3333 Z" /></clipPath><clipPath
       id="clipPath82"
       clipPathUnits="userSpaceOnUse"><path
         id="path80"
         d="M 19.389,36.525 55.79,0.123 c 22.9,0.954 35.447,7.886 40.88,24.068 v 0 L 80.599,40.262 71,33 H 57.625 L 44.86,43.172 32.083,43.917 Z" /></clipPath><clipPath
       id="clipPath90"
       clipPathUnits="userSpaceOnUse"><path
         id="path88"
         d="M -32768,32767 H 32767 V -32768 H -32768 Z" /></clipPath><linearGradient
       id="linearGradient100"
       spreadMethod="pad"
       gradientTransform="matrix(47.455349,-47.455349,-47.455349,-47.455349,35.625748,52.761429)"
       gradientUnits="userSpaceOnUse"
       y2="0"
       x2="1"
       y1="0"
       x1="0"><stop
         id="stop92"
         offset="0"
         style="stop-opacity:0.11999695;stop-color:#ffffff" /><stop
         id="stop94"
         offset="0.00000023"
         style="stop-opacity:0.11999695;stop-color:#ffffff" /><stop
         id="stop96"
         offset="1"
         style="stop-opacity:0;stop-color:#ffffff" /><stop
         id="stop98"
         offset="1"
         style="stop-opacity:0;stop-color:#ffffff" /></linearGradient><mask
       id="mask102"
       height="1"
       width="1"
       y="0"
       x="0"
       maskUnits="userSpaceOnUse"><g
         id="g112"><g
           id="g110"
           clip-path="url(#clipPath90)"><g
             id="g108"><g
               id="g106"><path
                 id="path104"
                 style="fill:url(#linearGradient100);stroke:none"
                 d="M -32768,32767 H 32767 V -32768 H -32768 Z" /></g></g></g></g></mask><linearGradient
       id="linearGradient126"
       spreadMethod="pad"
       gradientTransform="matrix(47.455349,-47.455349,-47.455349,-47.455349,35.625748,52.761429)"
       gradientUnits="userSpaceOnUse"
       y2="0"
       x2="1"
       y1="0"
       x1="0"><stop
         id="stop118"
         offset="0"
         style="stop-opacity:1;stop-color:#000000" /><stop
         id="stop120"
         offset="0.00000023"
         style="stop-opacity:1;stop-color:#000000" /><stop
         id="stop122"
         offset="1"
         style="stop-opacity:1;stop-color:#000000" /><stop
         id="stop124"
         offset="1"
         style="stop-opacity:1;stop-color:#000000" /></linearGradient><clipPath
       id="clipPath136"
       clipPathUnits="userSpaceOnUse"><path
         id="path134"
         d="M 0,100 H 100 V 0 H 0 Z" /></clipPath><clipPath
       id="clipPath144"
       clipPathUnits="userSpaceOnUse"><path
         id="path142"
         d="M 41.6667,58.3333 H 58.3333 V 41.6667 H 41.6667 Z" /></clipPath></defs><g
     transform="matrix(1.25,0,0,-1.25,4,129.33333)"
     id="g10"><g
       id="g12"><g
         clip-path="url(#clipPath18)"
         id="g14"><g
           id="g20"><g
             id="g22"><path
               id="path34"
               style="fill:url(#linearGradient32);stroke:none"
               d="M 50,100 C 12.956,100 0,87.039 0,50 v 0 C 0,12.961 12.956,0 50,0 v 0 c 37.045,0 50,12.961 50,50 v 0 c 0,37.044 -12.955,50 -50,50 z"
               inkscape:connector-curvature="0" /></g></g></g></g><g
       id="g36"><g
         clip-path="url(#clipPath42)"
         id="g38"><g
           id="g44"><g
             id="g46" /><g
             id="g58"><g
               style="opacity:0.30000299"
               id="g56"
               clip-path="url(#clipPath50)"><g
                 id="g54"
                 transform="translate(87.5,50)"><path
                   id="path52"
                   style="fill:#f2f2f2;fill-opacity:1;fill-rule:nonzero;stroke:none"
                   d="m 0,0 c 0,-27.779 -9.717,-37.5 -37.5,-37.5 -27.783,0 -37.5,9.721 -37.5,37.5 0,27.779 9.717,37.5 37.5,37.5 C -9.717,37.5 0,27.783 0,0"
                   inkscape:connector-curvature="0" /></g></g></g></g><g
           id="g60"><g
             id="g62" /><g
             id="g74"><g
               style="opacity:0.30000299"
               id="g72"
               clip-path="url(#clipPath66)"><g
                 id="g70"
                 transform="translate(71.667,50)"><path
                   id="path68"
                   style="fill:#f2f2f2;fill-opacity:1;fill-rule:nonzero;stroke:none"
                   d="m 0,0 c 0,-16.05 -5.614,-21.667 -21.667,-21.667 -16.053,0 -21.666,5.617 -21.666,21.667 0,16.05 5.613,21.667 21.666,21.667 C -5.614,21.667 0,16.053 0,0"
                   inkscape:connector-curvature="0" /></g></g></g></g></g></g><g
       id="g76"><g
         clip-path="url(#clipPath82)"
         id="g78"><g
           id="g84"><g
             id="g86" /><g
             mask="url(#mask102)"
             id="g114"><g
               id="g116"><path
                 id="path128"
                 style="fill:url(#linearGradient126);stroke:none"
                 d="M 19.389,36.525 55.79,0.123 c 22.9,0.954 35.447,7.886 40.88,24.068 v 0 L 80.599,40.262 71,33 H 57.625 L 44.86,43.172 32.083,43.917 Z"
                 inkscape:connector-curvature="0" /></g></g></g></g></g><g
       id="g130"><g
         clip-path="url(#clipPath136)"
         id="g132"><g
           id="g138"><g
             id="g140" /><g
             id="g152"><g
               style="opacity:0.60000598"
               id="g150"
               clip-path="url(#clipPath144)"><g
                 id="g148"
                 transform="translate(58.333,50)"><path
                   id="path146"
                   style="fill:#f2f2f2;fill-opacity:1;fill-rule:nonzero;stroke:none"
                   d="m 0,0 c 0,-6.173 -2.159,-8.333 -8.333,-8.333 -6.174,0 -8.334,2.16 -8.334,8.333 0,6.173 2.16,8.333 8.334,8.333 C -2.159,8.333 0,6.174 0,0"
                   inkscape:connector-curvature="0" /></g></g></g></g><g
           transform="translate(63.9336,29.4502)"
           id="g154"><path
             id="path156"
             style="fill:#f2f2f2;fill-opacity:1;fill-rule:nonzero;stroke:none"
             d="m 0,0 c -6.039,0 -11.824,2.572 -15.874,7.058 -3.329,3.688 -7.899,5.726 -12.868,5.74 -4.994,0 -9.561,-2.015 -12.897,-5.672 -0.383,-0.419 -0.909,-0.65 -1.48,-0.65 -0.499,0 -0.977,0.184 -1.346,0.521 -0.814,0.743 -0.872,2.011 -0.129,2.826 4.045,4.433 9.806,6.975 15.806,6.975 6.079,-0.016 11.847,-2.589 15.883,-7.059 C -9.614,6.092 -4.909,4 0.001,4 c 0.197,0 0.395,0.003 0.593,0.01 5.136,0.174 9.905,2.589 13.084,6.627 0.382,0.484 0.955,0.762 1.573,0.762 0.315,0 0.785,-0.074 1.235,-0.428 0.42,-0.33 0.686,-0.805 0.749,-1.335 C 17.298,9.105 17.151,8.582 16.82,8.162 12.911,3.196 7.046,0.226 0.729,0.013 0.487,0.005 0.243,0 0,0"
             inkscape:connector-curvature="0" /></g></g></g></g></svg>