<?xml version="1.0" encoding="UTF-8" standalone="no"?>
<svg
   xmlns:dc="http://purl.org/dc/elements/1.1/"
   xmlns:cc="http://creativecommons.org/ns#"
   xmlns:rdf="http://www.w3.org/1999/02/22-rdf-syntax-ns#"
   xmlns:svg="http://www.w3.org/2000/svg"
   xmlns="http://www.w3.org/2000/svg"
   xmlns:sodipodi="http://sodipodi.sourceforge.net/DTD/sodipodi-0.dtd"
   xmlns:inkscape="http://www.inkscape.org/namespaces/inkscape"
   viewBox="0 0 133.33333 133.33333"
   height="133.33333"
   width="133.33333"
   xml:space="preserve"
   id="svg2"
   version="1.1"
   sodipodi:docname="harbour-pure-maps.svg"
   inkscape:version="0.92.2 2405546, 2018-03-11"><sodipodi:namedview
     pagecolor="#ffffff"
     bordercolor="#666666"
     borderopacity="1"
     objecttolerance="10"
     gridtolerance="10"
     guidetolerance="10"
     inkscape:pageopacity="0"
     inkscape:pageshadow="2"
     inkscape:window-width="1366"
     inkscape:window-height="706"
     id="namedview73"
     showgrid="false"
     inkscape:zoom="1.7700001"
     inkscape:cx="66.666664"
     inkscape:cy="66.666664"
     inkscape:window-x="0"
     inkscape:window-y="34"
     inkscape:window-maximized="1"
     inkscape:current-layer="svg2" /><metadata
     id="metadata8"><rdf:RDF><cc:Work
         rdf:about=""><dc:format>image/svg+xml</dc:format><dc:type
           rdf:resource="http://purl.org/dc/dcmitype/StillImage" /></cc:Work></rdf:RDF></metadata><defs
     id="defs6"><clipPath
       id="clipPath18"
       clipPathUnits="userSpaceOnUse"><path
         id="path16"
         d="M 50,100 C 12.956,100 0,87.039 0,50 v 0 C 0,12.961 12.956,0 50,0 v 0 c 37.045,0 50,12.961 50,50 v 0 c 0,37.044 -12.955,50 -50,50 z" /></clipPath><linearGradient
       id="linearGradient30"
       spreadMethod="pad"
       gradientTransform="matrix(77.78125,-77.78125,-77.78125,-77.78125,11.109896,88.891144)"
       gradientUnits="userSpaceOnUse"
       y2="0"
       x2="1"
       y1="0"
       x1="0"><stop
         id="stop24"
         offset="0"
         style="stop-opacity:1;stop-color:#ededed" /><stop
         id="stop26"
         offset="0.00000049"
         style="stop-opacity:1;stop-color:#ededed" /><stop
         id="stop28"
         offset="1"
         style="stop-opacity:1;stop-color:#d4d4d4" /></linearGradient><clipPath
       id="clipPath40"
       clipPathUnits="userSpaceOnUse"><path
         id="path38"
         d="M 30.875,69.125 20.834,20.834 41.392,0.276 C 44.109,0.096 46.966,0 50,0 v 0 c 37.045,0 50,12.961 50,50 v 0 c 0,3.03 -0.096,5.882 -0.275,8.595 v 0 L 79.16,79.16 Z" /></clipPath><clipPath
       id="clipPath48"
       clipPathUnits="userSpaceOnUse"><path
         id="path46"
         d="M -32768,32767 H 32767 V -32768 H -32768 Z" /></clipPath><linearGradient
       id="linearGradient56"
       spreadMethod="pad"
       gradientTransform="matrix(58.015621,-58.015621,-58.015621,-58.015621,30.87204,69.12204)"
       gradientUnits="userSpaceOnUse"
       y2="0"
       x2="1"
       y1="0"
       x1="0"><stop
         id="stop50"
         offset="0"
         style="stop-opacity:0.11999695;stop-color:#ffffff" /><stop
         id="stop52"
         offset="0.00000028"
         style="stop-opacity:0.11999695;stop-color:#ffffff" /><stop
         id="stop54"
         offset="1"
         style="stop-opacity:0;stop-color:#ffffff" /></linearGradient><mask
       id="mask58"
       height="1"
       width="1"
       y="0"
       x="0"
       maskUnits="userSpaceOnUse"><g
         id="g68"><g
           id="g66"
           clip-path="url(#clipPath48)"><g
             id="g64"><g
               id="g62"><path
                 id="path60"
                 style="fill:url(#linearGradient56);stroke:none"
                 d="M -32768,32767 H 32767 V -32768 H -32768 Z" /></g></g></g></g></mask><linearGradient
       id="linearGradient80"
       spreadMethod="pad"
       gradientTransform="matrix(58.015621,-58.015621,-58.015621,-58.015621,30.87204,69.12204)"
       gradientUnits="userSpaceOnUse"
       y2="0"
       x2="1"
       y1="0"
       x1="0"><stop
         id="stop74"
         offset="0"
         style="stop-opacity:1;stop-color:#000000" /><stop
         id="stop76"
         offset="0.00000028"
         style="stop-opacity:1;stop-color:#000000" /><stop
         id="stop78"
         offset="1"
         style="stop-opacity:1;stop-color:#000000" /></linearGradient><clipPath
       id="clipPath90"
       clipPathUnits="userSpaceOnUse"><path
         id="path88"
         d="M 12.5,50 C 12.5,22.221 22.217,12.5 50,12.5 v 0 c 27.783,0 37.5,9.721 37.5,37.5 v 0 c 0,27.783 -9.717,37.5 -37.5,37.5 v 0 C 22.217,87.5 12.5,77.779 12.5,50 M 32,50 c 0,13.334 4.664,18 18,18 v 0 c 13.336,0 18,-4.664 18,-18 v 0 C 68,36.666 63.336,32 50,32 v 0 C 36.664,32 32,36.666 32,50" /></clipPath><linearGradient
       id="linearGradient102"
       spreadMethod="pad"
       gradientTransform="matrix(58.335937,-58.335937,-58.335937,-58.335937,20.83242,79.168358)"
       gradientUnits="userSpaceOnUse"
       y2="0"
       x2="1"
       y1="0"
       x1="0"><stop
         id="stop96"
         offset="0"
         style="stop-opacity:1;stop-color:#999999" /><stop
         id="stop98"
         offset="0.00000039"
         style="stop-opacity:1;stop-color:#999999" /><stop
         id="stop100"
         offset="1"
         style="stop-opacity:1;stop-color:#828282" /></linearGradient><clipPath
       id="clipPath112"
       clipPathUnits="userSpaceOnUse"><path
         id="path110"
         d="M 0,100 H 100 V 0 H 0 Z" /></clipPath></defs><g
     transform="matrix(1.25,0,0,-1.25,4,129.33333)"
     id="g10"><g
       id="g12"><g
         clip-path="url(#clipPath18)"
         id="g14"><g
           id="g20"><g
             id="g22"><path
               id="path32"
               style="fill:url(#linearGradient30);stroke:none"
               d="M 50,100 C 12.956,100 0,87.039 0,50 v 0 C 0,12.961 12.956,0 50,0 v 0 c 37.045,0 50,12.961 50,50 v 0 c 0,37.044 -12.955,50 -50,50 z"
               inkscape:connector-curvature="0" /></g></g></g></g><g
       id="g34"><g
         clip-path="url(#clipPath40)"
         id="g36"><g
           id="g42"><g
             id="g44" /><g
             mask="url(#mask58)"
             id="g70"><g
               id="g72"><path
                 id="path82"
                 style="fill:url(#linearGradient80);stroke:none"
                 d="M 30.875,69.125 20.834,20.834 41.392,0.276 C 44.109,0.096 46.966,0 50,0 v 0 c 37.045,0 50,12.961 50,50 v 0 c 0,3.03 -0.096,5.882 -0.275,8.595 v 0 L 79.16,79.16 Z"
                 inkscape:connector-curvature="0" /></g></g></g></g></g><g
       id="g84"><g
         clip-path="url(#clipPath90)"
         id="g86"><g
           id="g92"><g
             id="g94"><path
               id="path104"
               style="fill:url(#linearGradient102);stroke:none"
               d="M 12.5,50 C 12.5,22.221 22.217,12.5 50,12.5 v 0 c 27.783,0 37.5,9.721 37.5,37.5 v 0 c 0,27.783 -9.717,37.5 -37.5,37.5 v 0 C 22.217,87.5 12.5,77.779 12.5,50 M 32,50 c 0,13.334 4.664,18 18,18 v 0 c 13.336,0 18,-4.664 18,-18 v 0 C 68,36.666 63.336,32 50,32 v 0 C 36.664,32 32,36.666 32,50"
               inkscape:connector-curvature="0" /></g></g></g></g><g
       id="g106"><g
         clip-path="url(#clipPath112)"
         id="g108"><g
           transform="translate(16.4302,72.8901)"
           id="g114"><path
             id="path116"
             style="fill:#7aeb7a;fill-opacity:1;fill-rule:nonzero;stroke:none"
             d="M 0,0 1.4,1.4 4.61,4.65 7.49,5.28 7.9,7.94 9.19,7.78 9.61,5.82 l 1.13,0.29 0.45,2.17 2.71,2.16 V 12 C 7.34,9.73 2.84,5.86 0,0"
             inkscape:connector-curvature="0" /></g><g
           transform="translate(49.8701,70.0801)"
           id="g118"><path
             id="path120"
             style="fill:#7aeb7a;fill-opacity:1;fill-rule:nonzero;stroke:none"
             d="m 0,0 3.05,1.09 0.87,2.79 2.04,1.5 2.05,0.21 1.83,0.29 2.5,-2.13 1.58,-0.33 -0.29,-1.04 h 1 l 0.96,1.21 -0.63,1.29 -2.25,0.79 -0.96,1.08 h 1.3 L 14.34,5.79 15.8,5.34 17.63,2.88 19.09,1.71 v 1.71 l -0.25,1.12 0.44,0.44 0.52,0.9 -0.38,1.21 1.21,1.2 1.38,-0.66 2.45,-0.75 1.13,-0.84 -0.691,-0.68 -2.309,0.35 -1.67,-0.25 -1,-1 0.96,-1.25 1.29,-1.12 2.34,-0.5 1.54,0.7 0.5,-1.16 0.2,-1.79 -0.16,-1.79 4,-4.34 2.75,-4.66 0.66,-1.42 h 1.8 l 1.16,2.17 0.13,0.81 v 0.02 c -0.26,2.2 -0.62,4.22 -1.09,6.12 l -2.87,2.17 v 0.42 h 1.92 l 0.28,-0.18 C 31.729,10.1 23.6,15.57 9.03,17.02 L 9.34,16.54 10.46,14.96 10.21,13.59 7.3,13.04 4.09,11.71 2.13,11.09 0.65,9.61 0.34,7.25 H -2.54 L -3.79,5.71 V 2.59 L -1.91,0 Z"
             inkscape:connector-curvature="0" /></g><g
           transform="translate(56.1699,84.96)"
           id="g122"><path
             id="path124"
             style="fill:#7aeb7a;fill-opacity:1;fill-rule:nonzero;stroke:none"
             d="M 0,0 0.37,-1.04 H 2.04 L 2.83,-0.38 1.91,1.16 1.65,2.24 C 0.59,2.33 -0.51,2.4 -1.65,2.44 H -1.66 L -1.84,2.04 -3.13,1.66 -2.88,0 Z"
             inkscape:connector-curvature="0" /></g><g
           transform="translate(87.3496,55.6602)"
           id="g126"><path
             id="path128"
             style="fill:#7aeb7a;fill-opacity:1;fill-rule:nonzero;stroke:none"
             d="m 0,0 v 0.03 l -0.02,0.06 -0.929,0.06 -0.821,-0.81 -2.04,0.17 -7.66,11.91 -2.17,1.13 -3.33,0.75 h -4.46 l -2.63,-0.96 -2.87,1 -2.63,1.71 h -3.169 l -0.621,-0.59 -6.379,-0.58 -1.621,-1.71 c 1.241,0.12 2.57,0.17 4,0.17 13.34,0 18,-4.66 18,-18 0,-5.41 -0.769,-9.401 -2.58,-12.22 l 2.58,-3.24 v -4 l -2.059,-1.5 -1.021,-2.79 1.41,-5.21 0.59,-3.75 2.41,-0.33 3.42,1.54 6.71,7.29 0.42,2.13 4.16,4.91 v 5.79 l 1.081,1.71 0.709,6.67 1.5,3.46 0.161,0.83 v 0.03 C 0.131,-2.84 0.08,-1.39 0,0"
             inkscape:connector-curvature="0" /></g><g
           transform="translate(21.9399,39.8096)"
           id="g130"><path
             id="path132"
             style="fill:#7aeb7a;fill-opacity:1;fill-rule:nonzero;stroke:none"
             d="M 0,0 -3.19,0.94 V 3 L -4.75,5.19 -5.56,9 -8.13,10.811 -9.4,13.23 c -0.03,-0.99 -0.04,-2 -0.04,-3.04 0,-15.82 3.15,-25.78 11,-31.429 v 3.05 l 0.97,2.04 1.59,1.589 0.5,6 1,2.25 -0.5,2 z"
             inkscape:connector-curvature="0" /></g><g
           transform="translate(49.7969,82.8594)"
           id="g134"><path
             id="path136"
             style="fill:#7aeb7a;fill-opacity:1;fill-rule:nonzero;stroke:none"
             d="M 0,0 0.203,-1.312 -0.266,-1.797 1.344,-2.016 2.656,-1.062 2.141,0.375 0.984,1.062 0.125,2.125 -0.312,2.344 -1.094,1.672 -0.844,0.453 Z"
             inkscape:connector-curvature="0" /></g><g
           transform="translate(49.2969,82.2188)"
           id="g138"><path
             id="path140"
             style="fill:#7aeb7a;fill-opacity:1;fill-rule:nonzero;stroke:none"
             d="m 0,0 -1.422,1.703 -1.187,-1 -0.079,-0.859 2.219,-0.485 z"
             inkscape:connector-curvature="0" /></g><g
           transform="translate(34.8799,85.3398)"
           id="g142"><path
             id="path144"
             style="fill:#7aeb7a;fill-opacity:1;fill-rule:nonzero;stroke:none"
             d="M 0,0 1.53,0.5 3.54,1.44 C 2.31,1.26 1.13,1.06 0,0.81 Z"
             inkscape:connector-curvature="0" /></g></g></g></g></svg>