<svg xmlns="http://www.w3.org/2000/svg" xmlns:xlink="http://www.w3.org/1999/xlink" viewBox="0 0 192 192"><defs><style>.cls-1{fill:none;}.cls-2{opacity:0.01;}.cls-2,.cls-3,.cls-4,.cls-5,.cls-9{isolation:isolate;}.cls-3{opacity:0.02;}.cls-4{opacity:0.04;}.cls-5{opacity:0.06;}.cls-6{fill:#f5f5f5;}.cls-7{fill:url(#未命名的渐变_20);}.cls-8{opacity:0.05;}.cls-9{fill:#232323;}.cls-10{fill:url(#未命名的渐变_2);}.cls-11{fill:#323232;}.cls-12{fill:url(#未命名的渐变_15);}.cls-13{fill:#282828;}</style><linearGradient id="未命名的渐变_20" x1="166" y1="28" x2="26" y2="168" gradientTransform="matrix(1, 0, 0, -1, 0, 194)" gradientUnits="userSpaceOnUse"><stop offset="0" stop-opacity="0.1"/><stop offset="0.5" stop-color="gray" stop-opacity="0.05"/><stop offset="1" stop-color="#fff" stop-opacity="0.15"/></linearGradient><linearGradient id="未命名的渐变_2" x1="166.01" y1="75.99" x2="25.99" y2="216.01" gradientTransform="matrix(1, 0, 0, -1, 0, 242)" gradientUnits="userSpaceOnUse"><stop offset="0" stop-opacity="0.04"/><stop offset="0.5" stop-color="gray" stop-opacity="0"/><stop offset="1" stop-color="#fff" stop-opacity="0.1"/></linearGradient><linearGradient id="未命名的渐变_15" x1="174.06" y1="157.94" x2="60.3" y2="44.18" gradientUnits="userSpaceOnUse"><stop offset="0" stop-opacity="0.02"/><stop offset="1" stop-opacity="0.12"/></linearGradient></defs><title>wikipedia</title><g id="图层_2" data-name="图层 2"><g id="图层_1-2" data-name="图层 1"><rect class="cls-1" width="192" height="192"/><path class="cls-2" d="M96,190C27.3,190,3,165.7,3,97S27.3,4,96,4s93,24.3,93,93S164.7,190,96,190Z"/><path class="cls-3" d="M96,189C28.1,189,4,164.9,4,97S28.1,5,96,5s92,24.1,92,92S163.9,189,96,189Z"/><path class="cls-4" d="M96,188C28.8,188,5,164.2,5,97S28.8,6,96,6s91,23.8,91,91S163.2,188,96,188Z"/><path class="cls-5" d="M186,97c0,66.7-23.3,90-90,90S6,163.7,6,97,29.3,7,96,7,186,30.3,186,97Z"/><path class="cls-6" d="M186,96c0,66.7-23.3,90-90,90S6,162.7,6,96,29.3,6,96,6,186,29.3,186,96Z"/><path class="cls-7" d="M186,96c0,66.67-23.32,90-90,90S6,162.67,6,96,29.32,6,96,6,186,29.32,186,96Z"/><g class="cls-8"><path class="cls-9" d="M157.95,86.72c-.16-.12-.21.09-.21.09V87c0,.88.11,2.94.27,4.53a8.21,8.21,0,0,0,.36,1.76l.05.1c.11.19.24.43.38.32a2.54,2.54,0,0,0,.34-.73l.16-.74c.24.14.36.66.43,1.21,0,0,0-.07,0-.07s-.18-1.66-.38-1.65-.26.88-.26.88-.08.59-.2.57-.46,0-.71-1.77a25.5,25.5,0,0,1-.2-3.7s-.06-.19.06-.24.24.13.24.13a.23.23,0,0,0,.36,0c.13-.13.19-.44,0-1.58a1.75,1.75,0,0,1-.17.74C158.32,87.19,158.11,86.84,157.95,86.72Z"/><path class="cls-9" d="M61.54,141.82l.21.23,0,0Z"/><path class="cls-9" d="M60.61,44.28h0Z"/><path class="cls-9" d="M59.31,46.81l.48-.19h0c.57-.25,1.45-.67,2.76-1.36h0l-.66-.94-.06-.06h0l0,0s-.16-.17-1.12,0l-.09,0h.11l.08,0h0a.07.07,0,0,1,0,.07v0a.35.35,0,0,1-.07.15c-.27.36-.7.62-1.47,1.44-.38.41-.51.66-.48.79S59.06,46.89,59.31,46.81Z"/><path class="cls-9" d="M115.23,47.42s1.59-.51,2.38-.8a11.1,11.1,0,0,1,2.08-.51,13.25,13.25,0,0,1,2.14-.16,1.09,1.09,0,0,1,.66.15,1.44,1.44,0,0,1,.31.34A4.15,4.15,0,0,0,126.53,49c2.8.14,2.83-1.37,2.59-1.83A4,4,0,0,0,128,46,8,8,0,0,1,126.63,45c-.24-.34,0-.45.13-.47s3-.62,3.42-.76l0,0-.71-.22a2.38,2.38,0,0,1-1,.39,15.93,15.93,0,0,1-2.18.39c-.63.08-.63.3-.63.3l-1.1,1.76a.7.7,0,0,0,.05.38,1.78,1.78,0,0,0,.51.56s.72.53,1.24.88.5.47.5.47a3.5,3.5,0,0,1-2.35-.35,2.87,2.87,0,0,1-1.16-1.36,2.85,2.85,0,0,0-.65-.83,6,6,0,0,0-3.53-.19,26.09,26.09,0,0,0-3.66,1c-.34.13-2,.69-2.89.91-.65.17-1.18.33-1.63.47l.88.09C113.7,47.89,115.23,47.42,115.23,47.42Z"/><path class="cls-9" d="M91.62,50.19v-.13S91.61,50.12,91.62,50.19Z"/><path class="cls-9" d="M49.2,58.63a2.43,2.43,0,0,1,1-.22c.64,0,.49.44.49.44A4.07,4.07,0,0,1,50,60a4.79,4.79,0,0,0-.84,1.5s-.4.91.24,1.2c0,0,.3.18,1.18-.11a47.13,47.13,0,0,1,5.56-1.33l1.24-.63a39.73,39.73,0,0,0-4.39,1c-1.29.35-2.47.92-3.13.76s-.11-1,.05-1.21a3.42,3.42,0,0,1,.31-.51l1-1.69h0l.06-.13c.08-.23.15-.67-.59-.75a3.21,3.21,0,0,0-2,.78,2.78,2.78,0,0,0-1.05,1.78l.14-.39A2.67,2.67,0,0,1,49.2,58.63Z"/><polygon class="cls-9" points="100.69 133.87 100.69 133.88 100.7 133.88 100.69 133.87"/><path class="cls-9" d="M159.6,100.75h0l-.12-.3h0l0,0,.38-.64A14.32,14.32,0,0,0,159,101h0l-.14.23-.77,1.25a13.1,13.1,0,0,0-1.84,4.73,4.91,4.91,0,0,0-.07,1.3,2.29,2.29,0,0,0,.06.25v0l.06.18v0h0l.07.18h0a.37.37,0,0,1,0,.1,3.57,3.57,0,0,1-.09.68l0,.18,0,.2c0,.14-.08.29-.14.44l-.05.13a4.89,4.89,0,0,1-.24.54l0,.05a3.33,3.33,0,0,1-1,1.29s-.95.68-1.08.2a2.83,2.83,0,0,1,0-1.21,17.89,17.89,0,0,0,.32-2.6c0-.62-.6-.12-.6-.12s-.13.15-.37.46-1.61,2.05-2.14,2.66a35.86,35.86,0,0,1-5.38,4.93l0,0h0a7.83,7.83,0,0,0-.69-.93c-.35-.46-1-.25-1.79-2.17a12,12,0,0,1-1-4.15,9.38,9.38,0,0,1,0-1,2.53,2.53,0,0,1,.85-2c.52-.48,2.79-.27,2.79-.27s1.12.23,2.12-1.42a9.14,9.14,0,0,0,.6-5.71c-.32-1.35-.78-2.52-2.63-2.72s-2.68,2.08-2.68,2.08a7.67,7.67,0,0,1-.76,1.37c-.39.5-1.45.36-1.45.36a1.45,1.45,0,0,1-1.58-1c-.55-1.14-1.81-4.12-1.81-4.12a17.35,17.35,0,0,1-.86-2.58l-.91-.37h0l.91.37a33.62,33.62,0,0,0,5-3.3c2.35-2,4.64-4,5.22-4.56a2.67,2.67,0,0,1,1.64-.92c.52,0,.92.4,1.24,1.8s.39,2.55.53,3.24.36,1.47,1.17,1.63a3.38,3.38,0,0,0,2.3-.89,2.69,2.69,0,0,0,.55-.71,4.36,4.36,0,0,0,.56-2.29,8.37,8.37,0,0,0-1-3.92s-.44-.77-.6-1-.19-.3,0-.66a4.39,4.39,0,0,1,.25-.42,3.18,3.18,0,0,1,1.07-1,5.87,5.87,0,0,1,1.41-.5,3.53,3.53,0,0,0,.78-.33h0l-.13-.37,0-.11L157,79c.6,1.87,1.25,4.82,1.37,5.34l-.11-.55A47,47,0,0,0,157,79l-.36-.4h0L157,79a.63.63,0,0,1,.82.06l0,0,0,0-.49-.63.15-.61a1.4,1.4,0,0,0-.86-.11h0v0s-.39-1.14-1.29-3.43a21.28,21.28,0,0,1-1.06-3.08s-.05-.25.08-.29.11-.22.11-.22a5.55,5.55,0,0,0-.35-1.24,15.29,15.29,0,0,0-.83-2,12.69,12.69,0,0,1,.66,1.58l0,.09a1.17,1.17,0,0,1,.08.69c0,.51-.18.57-.18.57l0,.18a12.91,12.91,0,0,0,.52,1.49s1.34,3.4,2.19,5.69v0c-.42.11-.5.44-1.21.56a3.29,3.29,0,0,0-2.44,1.65,2.26,2.26,0,0,0-.36,1.17v0s0,.06,0,.09a3,3,0,0,0,0,.42s0,.1,0,.14,0,.21.07.31,0,.1,0,.14v0a3.52,3.52,0,0,0,.21.54s.45.74.67,1.12,1.34,2.78,0,4.52a3.79,3.79,0,0,1-1.91,1.08c-1.08.24-.8-1-.91-1.7a8.9,8.9,0,0,0-1.55-4.5c-1.22-1.44-3.44,1.11-4.55,2a44.39,44.39,0,0,1-8.37,6.17l-.16-2.08a13.68,13.68,0,0,0-.71-2.86A20.76,20.76,0,0,0,133,81.3a3,3,0,0,0-1.87-1.58,2.53,2.53,0,0,0-.6-.07,1.7,1.7,0,0,0-1.79,1.53,3.41,3.41,0,0,1-1,1.58c-.55.32-2,1.18-3,.68l-.09-.07a1.32,1.32,0,0,1-.31-.24c-.07-.07-.11-.15-.18-.23a7.9,7.9,0,0,1-.92-1.33,6.87,6.87,0,0,1-.86-2.66,2.57,2.57,0,0,1,.46-2s.12-.37,2-.37c2.13,0,2.52-.66,2.52-.66a1.58,1.58,0,0,0,.37-1.21,10.32,10.32,0,0,0-1-3.76c-.07-.12-.16-.27-.25-.41A23.4,23.4,0,0,0,124.62,68l-1.21-.22h0l0-.22.14-.65h0c-.11-.11-.31-.32-.56-.59-.74-.82-2-2.24-3-3.45-.7-.85-1.29-1.59-1.53-1.93a11.9,11.9,0,0,1-.77-1.2,3.12,3.12,0,0,1-.15-.34l0,0a2.06,2.06,0,0,1,.52-1.46c.3-.35.66-.42,1.38-.26a3.43,3.43,0,0,0,2.36.11c1.16-.37,1.21-1.24,1.3-2.13A5.64,5.64,0,0,0,122,52.81a7.19,7.19,0,0,0-.66-.84,3.62,3.62,0,0,0-2.9-1c-.83.05-1.31.66-1.8.92a2.71,2.71,0,0,1-1.79.36,3.24,3.24,0,0,1-.76-.4,3.68,3.68,0,0,1-1-1.18c-.54-.95-1-1.82-1.23-2.27h0l-.89-.09h0l-.41.12c-.53.14-4.3,1.26-5.71,1.68a23.43,23.43,0,0,1-2.32.58c-2.12.21-2.75-.17-2.75-.17-.37-.16-.33-.66-.33-.66V48.42a1,1,0,0,0-.45-.77,4.7,4.7,0,0,0-2-.36,11.79,11.79,0,0,0-2.62.17,4.16,4.16,0,0,0-2.21,1.19,1.84,1.84,0,0,0-.6,1.43v.11c0,.26.05.88.1,1.37a1,1,0,0,0,.61.84,14.34,14.34,0,0,1-3.82,1.51,26.12,26.12,0,0,1-4.6,1h0c.06.71.67,4.14.67,4.14s.26,1.58.37,2.06h0v.06c.11.41.39,1.32.39,1.32a1.11,1.11,0,0,0,.57.67,3,3,0,0,0,2.18,0,3.17,3.17,0,0,0,1.5-1.18l.54-.62A2,2,0,0,1,92,60.86a3.45,3.45,0,0,1,1.63,1.54l0,.08A3.61,3.61,0,0,1,94.15,64a1.31,1.31,0,0,1-.37.57l0,0-.18.17-.16.13-.13.11a2.67,2.67,0,0,1-2.1.55,5,5,0,0,0-1-.06l-.9,0a3.91,3.91,0,0,0-1.53.51c-1.13.67-.9,3.58-.38,6.32a54.47,54.47,0,0,0,1.31,5.32h0a120.06,120.06,0,0,0-13.23,2.49c-3,.79-3.2,1.65-3.2,1.65a1.75,1.75,0,0,0-.18.36,1,1,0,0,0,.35,1.19,2.09,2.09,0,0,1,1.27,1.49,1.53,1.53,0,0,1-.05.8,2.92,2.92,0,0,1-.93,1.24,9.14,9.14,0,0,1-3.63,1.59c-.33.07-1.38.21-1.38.21-.25,0-.48,0-.71,0A3.24,3.24,0,0,1,64.77,88c-1.14-.9-.37-2.34.39-2.88a3.62,3.62,0,0,0,1.24-1.39.82.82,0,0,0,0-.47l-.73-.67a3.45,3.45,0,0,0-1-.4l-.14-.05H64.5l-.23,0-.55-.09-.29,0-.58,0-.32,0-.62,0H60.58l-.77,0h-.24l-1,.07h0l-1,.09h-.08l-.86.09-.22,0-.63.08-.26,0-.5.07-.24,0-.41.06-.19,0-.34.05-.12,0-.22,0h-.07l-.09,0s0-.15,0-.24h0s0,0,0-.07h0v-.07h0v-.08h0s0-.06,0-.08h0v-.1s0-.06,0-.09v0l0-.1h0l0-.1v-.27s0-.07,0-.11v0s0-.07,0-.1V81s0-.08,0-.11V80.7s0-.08,0-.12h0s0-.09,0-.13a.17.17,0,0,0,0,0v-.15s0-.08,0-.12v0S53,80,53,80h0s0-.08,0-.13v0s0-.09,0-.13a.21.21,0,0,0,0,0s0-.08,0-.12v0s0-.08,0-.13v0s0-.08,0-.12h0s0-.08,0-.13V79s0-.08,0-.12v0s0-.08,0-.13a6.35,6.35,0,0,1,.36-2.19l.07-.21a13.64,13.64,0,0,1,1.44-3.07v0a2.51,2.51,0,0,1,.88-.82,1.77,1.77,0,0,1,.66-.2,4.25,4.25,0,0,1,1.72.25l.14,0h1.26l.12,0H60a5.28,5.28,0,0,0,1-1l.05-.06v0l0-.06h0l0-.06h0l.14-.2h0l0-.06h0l0-.05v0l0-.05h0l.06-.1v0l0,0,0,0,0,0v0l0,0v-.05c.08-.16.12-.26.12-.26a4.63,4.63,0,0,0-.26-4A11.63,11.63,0,0,0,60.19,65a1.19,1.19,0,0,0-.33-.15l-.11,0-.16,0-.26,0h0a1.58,1.58,0,0,0-.47.15,1.84,1.84,0,0,1-.8.26h-.09a7.75,7.75,0,0,1,.61-2.83c.43-1,1.35-2.82,1.35-2.82a33.26,33.26,0,0,0,1.84-3.62,7.5,7.5,0,0,0,.52-2.43h0l-.73-.94L61.12,52a.89.89,0,0,0-.22-.21l-.13-.08-.18.06h0l-.26.07.21-.18a1.42,1.42,0,0,1,1.34-.42,2,2,0,0,0,1.4-.16,8.18,8.18,0,0,0,2.07-2.74l1.24-2.5-1-1.68h0a4.82,4.82,0,0,0-1.22.33,18.54,18.54,0,0,1-2.16,3.87s-.47.69-.83.52a1.87,1.87,0,0,0-1.14-.11,4.4,4.4,0,0,0-2.44,1.77c-1,1.33-1.11,2.34-.57,2.63s1.31-.1,1.78-.51.8-.61.95-.59.12.39.09.51a14.48,14.48,0,0,1-2,4.9c-.46.8-1.06,2-1.34,2.56l.76.56-1.25.63a7.87,7.87,0,0,0-.59,3.27A1.52,1.52,0,0,0,57,65.8a3.68,3.68,0,0,0,1.68-.44c.91-.47,1.12,1.56,1.12,1.89a3.84,3.84,0,0,1-1.28,3.06,2.21,2.21,0,0,1-1.23.39,3.16,3.16,0,0,1-1.2-.21,3.09,3.09,0,0,0-2,.1,7,7,0,0,0-2.38,2.72,13.11,13.11,0,0,0-1.28,5.51,26.63,26.63,0,0,0,.36,3.61l.83.54h0l-.84-.54a26.37,26.37,0,0,1-6.11.74c-2.28,0-2.22-1.21-1.93-2a3.15,3.15,0,0,1,.13-.3l0-.07.11-.2.06-.1A9.65,9.65,0,0,0,44,78.29s.28-2.19-1.78-2a2.65,2.65,0,0,0-2.47,1.94,12.09,12.09,0,0,0-.11,1.74,4.38,4.38,0,0,1-.93,3.21,2.1,2.1,0,0,1-1.92.62s-1.67-.73-2-.9a1.12,1.12,0,0,0-.94-.08l-.07,0a32,32,0,0,1,1.6-5.31,1.39,1.39,0,0,1,.11-.24c.11-.2.29-.45.51-.45,0,0,.08,0,.14.25s.08.35.18.26h0a14.35,14.35,0,0,0,1.05-2.6,25.34,25.34,0,0,0,.76-2.91l-.08.06c-.32.2-.22-.54-.19-.73a8.37,8.37,0,0,1,.45-1.37,34.86,34.86,0,0,1,3.46-6.53h0l-.36.55a1.31,1.31,0,0,0,.31-.07,3.71,3.71,0,0,1,1.39.15,4,4,0,0,0,2.59-.62,4.8,4.8,0,0,0,.73-.57,4.23,4.23,0,0,1-2.67.73,3.81,3.81,0,0,0-1.67-.06c-.18,0-.26-.05-.31-.11.26-.38.41-.59.41-.59l.11-.63-.52.82a3.31,3.31,0,0,1,.42-.86l-.86.48-.43.71c-.08.18-.22.6.06.64h.2C37.89,69.36,37.41,72,37.41,72c0,.27,0,.39.14.38s.31-.44.14.44c-.11.59-.66,2.14-.87,2.77s-.45,1.06-.62,1-.17-.29-.17-.29-.05-.69-.5.31a36.46,36.46,0,0,0-1.79,5.83c0,.15-.08.3-.11.45l0,.8h0l0-.78a2.58,2.58,0,0,0-.34.53l.11.41-.31.71v0h0a2.31,2.31,0,0,1,.27-.44h0a51.61,51.61,0,0,0-.78,6.66c0,.26,0,.26-.09.22s0-.2-.06-.2-.15.26-.15.26-.06,1.1-.06,1.1.14-.06.14-.06,0,.16.12.07a7.14,7.14,0,0,0,.26-1.73,36.24,36.24,0,0,1,.77-6.48.39.39,0,0,1,.21-.09,1.89,1.89,0,0,1,.79.2,12.06,12.06,0,0,0,2.06.9,1.84,1.84,0,0,0,1.51-.37l.21-.17c.1-.08.19-.15.29-.24l.16-.18c.1-.11.21-.21.3-.33l0,0a5,5,0,0,0,.82-1.4,15.24,15.24,0,0,0,.35-3v0s0-.53,0-.65a1.13,1.13,0,0,1,.26-1,1.83,1.83,0,0,1,1.43-.46,1.16,1.16,0,0,1,1.11.48,1.62,1.62,0,0,1,.29.67,1,1,0,0,1-.08.42s-.46.79-.63,1.17A5.28,5.28,0,0,0,42,82.78h0c.19,1.07,1.85,1.57,1.85,1.57a9.44,9.44,0,0,0,3.23,0L51,83.76l.68-.78h0l-.67.77c.1,1.42.21,4.22.19,5.15,0,1.14-.19,3.56-1.4,4.13,0,0-.41.21-1.09-.3A2.93,2.93,0,0,0,47,92.19a2.38,2.38,0,0,0-2.12,1.64,11.59,11.59,0,0,0-.36,4.51c.11,1.14,1.1,3.08,2.35,3.08a1.86,1.86,0,0,0,1.32-.69c.71-.73,1.13-.8,1.45-.79s.94.34,1.34,3.57a59.05,59.05,0,0,1,.52,8.36l.74.48h0l-.75-.49-1.4.13a15.75,15.75,0,0,1-5.39-.75c-2.2-.66-3.59-1.83-3.88-2.58,0,0,0-.07,0-.1a1.6,1.6,0,0,1-.05-.38c0-.05,0-.09,0-.14a3.78,3.78,0,0,1,.09-.71,8,8,0,0,0,.16-3c0-.15-.07-.3-.1-.45l0-.13,0-.11,0-.08a4,4,0,0,0-1.85-2.46,3.3,3.3,0,0,0-2.06-.65s-1.18-.18-1.13,1.81A12.23,12.23,0,0,0,36,105.1s.23.7-.14.8-.93-.45-.93-.45l-.6-.57-.14-.15c-.33-.33-.71-.73-1-1.12-.07-.62-.15-1.3-.24-2a35.94,35.94,0,0,1-.26-5.36c0-.67-.08-1-.15-1s-.12.06-.16.36,0,.5-.08.48-.1-.59-.1-.59h0v.19c0,.22,0,.43,0,.65l0,.5c0,.75.16.44.17.31s0-.41,0-.41.13-1.11.11,0,.3,5.72.3,5.72c0,.3.05.6.09.91l.05.08,0-.05.06.08-.27.66a5.3,5.3,0,0,0,.33.47v0h0c.35,2.73.88,5.39.88,5.39a24.72,24.72,0,0,0,1.64,5.33c.25.51.3.11.21-.34s.68.86,1.09,2.1.7,2.27.7,2.27.32,1,.18,1-.37-.37-.37-.37-.59-1-.34-.29c.5,1.54,2,4.79,2,4.79l1.75,3.1c-1.25-2.26-2.88-5.81-3.06-6.29s-.33-.91-.22-.73a4.25,4.25,0,0,0,.58.91c.33.36.55-.28-.78-3.89s-1.7-3.81-1.76-3.88-.27-.3-.21.21,0,.82-.64-1.44a58.82,58.82,0,0,1-1.28-6.38c0-.13-.06-.59-.13-1.23h0l.36.43c.24.27.53.59.89,1l.08.08.12.11c1.26,1.22,1.67.41,1.67.41a1.78,1.78,0,0,0,0-.18v0c0-.06,0-.12,0-.2v-.06c0-.07,0-.15,0-.25v0h0a6.08,6.08,0,0,0-.18-1.76,4.25,4.25,0,0,1-.14-2.16.61.61,0,0,1,.18-.25l.08-.05a.55.55,0,0,1,.21-.06h.08c.72,0,2.83.45,3.49,2.2a3.67,3.67,0,0,1,0,1.85,6.49,6.49,0,0,0,0,2.88,4.73,4.73,0,0,0,1.84,2.47A12.46,12.46,0,0,0,48,113.29a17.16,17.16,0,0,0,3.26,0l.93-1v0l-.93.94c-.05.25-.11.52-.18.78a8.08,8.08,0,0,0,0,3.22c.2,1.52,1,4.66,2.2,5.48a4.86,4.86,0,0,0,3.66,1,3,3,0,0,0,1.78-.89,1,1,0,0,1,.86-.3,5,5,0,0,1,2.58,2.61c.89,1.79,1.09,3.75-.4,4.1s-4-1.06-4-1.06a2.6,2.6,0,0,0-2.64.08c-1.19.89-1.22,2.26-.63,3.95a24.92,24.92,0,0,0,1.9,4l.88.37h0l-.89-.37a27.8,27.8,0,0,1-5.11-1.36c-.41-.21-.73-.31-1-.44a.79.79,0,0,1-.27-.23,1,1,0,0,1-.1-.72,4.1,4.1,0,0,0-.94-2.3,25.49,25.49,0,0,0-2.83-2.61c-1.34-1-1.91-.71-1.91-.71s-.61.32-.06,1.62a5,5,0,0,0,1.08,1.76s.26.28.11.35-.61-.27-1-.6-2.36-2.18-3.08-2.85l.13.45.07.11a11.85,11.85,0,0,0,2.7,2.86c1.94,1.52,2,.91,2,.91a1.45,1.45,0,0,0-.37-1.05,5.81,5.81,0,0,1-1-1.7v0a1.13,1.13,0,0,1,0-.2.46.46,0,0,1,0-.17s0,0,0,0c.18-.42.39-.39.39-.39s.17-.07.75.37a16.2,16.2,0,0,1,2.52,2.14,2.41,2.41,0,0,1,.6,1.45v0a.86.86,0,0,0,0,.12,2,2,0,0,0,.57,1.35c.7.76,2.17,2.15,7.34,2.94H57l.24-.68h0l.7.82h0a64.48,64.48,0,0,0,6.95.71s5.9.21,7.5.21c1.38,0,1.34.62,1.31.79v0a3.43,3.43,0,0,1-.28.81A4,4,0,0,0,73,141.5a1.63,1.63,0,0,0,.2,1s.73,1.79,5.49,1.91a18.37,18.37,0,0,0,7.07-.86c.91-.38,1.28-.8,1.35-1.2.17-.88-1.07-1.66-1.07-1.66s-1-.6-1.42-.93a.53.53,0,0,1-.25-.44,1.12,1.12,0,0,1,.1-.36,1.52,1.52,0,0,1,.71-.62c.33-.17,1.56-.82,6.72-2.16a45.17,45.17,0,0,1,8.26-1.48h0a8,8,0,0,0,1.63,2.69,9.55,9.55,0,0,0,3.61,2.15c1.52.58.83,1.61.83,1.61-.86,1.88-3.45,2-4.2,2a38,38,0,0,0-3.83.56c-1.48.33-2.87.52-3.7,1.48s-.5,2,0,3,1.79,1.6,3.58,1.54a10.25,10.25,0,0,0,4-1.07,35.2,35.2,0,0,1,3.52-1.17c.56-.16,1.32-.49,1.88.33a12.91,12.91,0,0,1,1.54,3.07l.69-.15h0l-.32.07-.32.07a35.71,35.71,0,0,0-4,1.34,50.31,50.31,0,0,1-7.49,1.79s-3.19.37-3.48.79.22.63.22.63a5.08,5.08,0,0,0,2.09.35,2.72,2.72,0,0,1,.59,0s.06.09-.29.2a16.13,16.13,0,0,1-3.48.7c-2.43.31-2.38-.08-2.38-.08a.47.47,0,0,1,.1-.27c.11-.17,0-.46-.37-.67a4.71,4.71,0,0,0-2.29-.33c-1.76,0-5.28,0-8.56-.18h0a3.15,3.15,0,0,0-.31-.24l-.15-.09-.16-.1.05,0L79,154.7c-.88-.47-4.68-3-5.85-3.77a16.55,16.55,0,0,0-2.93-1.67l-.19-.07a1.78,1.78,0,0,0-1-.11c-.69.22-.6.49-1,.7a1.36,1.36,0,0,1-1.2-.14l0,0-.65-.32-.22-.12-.35-.19a11.94,11.94,0,0,1-2.25-1.62l-.31-.28-.65-.6c-1.56-1.49,2-.15,2-.15s.78.33.43-.48a3,3,0,0,0-.18-.34l-.14-.21-.14-.21-.21-.29-.15-.2-.25-.33-.18-.23-.27-.33-.26-.31-.23-.28-.42-.48-.11-.12-.44-.48,0,0-.8-.85c-.5-.52-.91-1-1.29-1.41l0,0a26.73,26.73,0,0,1-1.79-2.35l-.69-.81,0,0,0,0-.24.68a17,17,0,0,0,2.1,2.64s3.09,3.42,4.81,5.59c0,0,.1.2-.2,0a5.33,5.33,0,0,0-2.28-.71c-.7.07-.56.5-.56.5s.3,1.57,5,4.22a7.73,7.73,0,0,0,2.78,1s.35,0,.78-.43.56-.43.86-.33a9.63,9.63,0,0,1,2.18,1.39c1.49,1.07,4.38,2.73,5.42,3.42a4.9,4.9,0,0,1,.69.53c-2.77-.22-5.91-.63-6.46-.75a.62.62,0,0,1-.26-.15c-.11-.11-.81-.53-1.46-.92a25.84,25.84,0,0,0-2.6-1.14s-2.52-1-2.44-.65c0,.08.16.19.34.31l1.33.7h0s-.93-.5-.67-.5a1.55,1.55,0,0,1,.55.14,19.19,19.19,0,0,1,2.46.86,12.17,12.17,0,0,1,1.76,1,8.38,8.38,0,0,0,2.91.92c1.69.23,4,.49,4.73.56h0a1.19,1.19,0,0,1-.12.39c-.21.5.74.78.74.78a12.49,12.49,0,0,0,3.67,1.06,12.1,12.1,0,0,1,2.63,0,11.13,11.13,0,0,1,1.69.43c.08.07-.38,0-.39,0l-.19,0a28,28,0,0,0-2.94-.24c-.16.08,0,.23,1.24.55h0q2.34.41,4.74.64a35.14,35.14,0,0,1-4.79-.89s-.16-.1.22,0a18,18,0,0,0,3.09.2c.42-.06.15-.22,0-.3l-.12-.05-.33-.13h0a13.57,13.57,0,0,0-3.27-.6,13.3,13.3,0,0,0-1.88,0A4,4,0,0,1,81,157.1s-1.29-.4-1-.81a.59.59,0,0,0,.08-.63l3.2.18s3.73.14,5.77,0c.92-.08.64.4.64.4a.44.44,0,0,0,.26.66s1,.55,4.19.2S98.09,156,98.09,156s.37-.34-.44-.5a11.92,11.92,0,0,0-1.47-.15c-.83-.08-1.25-.26-.7-.4a11.33,11.33,0,0,1,1.47-.22s2.82-.39,5.1-1c0,0,2.43-.57,4.84-1.42.95-.33,1.75-.58,2.37-.75l.54-.8h0l-.54.79a1.66,1.66,0,0,1-.32,1.4c-.2.33-.74.74-.47,1.49s2.11.5,3.18.18,2-.61,2.67-.87.9.11.9.11.31.22-.72.76a4.73,4.73,0,0,1-.68.28l-.23.08c-.23.07-.48.13-.73.19l-.14,0-.71.14h0l-.68.1-.12,0-.54.07c-.45.05-.61,0-.82.07h0l-.14,0-.11,0-.1,0-.25.08h0l-.53.18c-1.36.47-.09.89-.09.89a12.19,12.19,0,0,0,2.07.35l-.17,0c-1.51.37-4.7,1-5.41,1.13s-.52.08-.52.08.62-.24-.52-.28a25.3,25.3,0,0,0-4.53.36c-1.57.23-1.48.41-1.48.41s-.05.19.89.18.67.06.67.06c-1.75.25-5.26.3-5.26.3h0c.57,0,1.15,0,1.72,0,.76,0,1.53,0,2.28,0,.3,0,1.86-.19,2.41-.31s-.12-.13-.12-.13l-.93,0s-1,0-.07-.2,2.3-.24,3-.32c1-.12.68.13.68.13l-.05,0s0,.12.66.08,4.51-.75,7.48-1.49a9.06,9.06,0,0,0,2.43-.24l.32-.09h0l.08,0,.68-.21.33-.1h0c-.32.07-.62.13-.91.17a11.62,11.62,0,0,1-1.58.13h0c2.94-.86,5.14-1.57,5.14-1.57s.2-.07.08,0a3,3,0,0,1-.58.25s-.75.38,1.06-.14l.25-.08q2.32-.88,4.56-1.93s.16-.18,0-.13,0-.08.23-.16,2.39-1.22,3.82-1.84l-.24.18.5-.27.11-.07h0l1.47-.87h0l-.61.28a20.49,20.49,0,0,0,2.11-1.8s.83-.82.68-.94-.78.32-.78.32a6.11,6.11,0,0,1-.88.58l-.22.1-.11,0a.75.75,0,0,1-.26,0l0,0c-.36-.11.64-1.07.64-1.07a6.48,6.48,0,0,1,1.42-1.16,2.6,2.6,0,0,1,.8-.31,4.9,4.9,0,0,0,.67-.16,2.33,2.33,0,0,0,.69-.36l.45-.35a2.26,2.26,0,0,0,.62-.79c.23-.41.52-1,1.08-2l.13-.22h0c1.38-.77,1.88-1,2.2-1.21,1.48-.88,3.25-2,3.71-2.33,0,0,1-.65.15.24s-1.21,1.26-1.21,1.26-.78.78-.59,1c0,0,.21.31,1.5-.86a29.43,29.43,0,0,0,2.85-3.06,1.11,1.11,0,0,0,.18-.37,2.37,2.37,0,0,1,.34-.49c.18-.19,1.73-1.88,2.5-2.66h0q.51-.68,1-1.38c-.45.48-2.16,2.29-3.11,3.36,0,0-.89,1-1.18,1.32a1.11,1.11,0,0,0-.28.59,5.44,5.44,0,0,1-.49.65c-.34.4-1.55,1.49-1.55,1.49a3.74,3.74,0,0,1-.94.6c-.22,0,.54-.67.54-.67s.74-.78,1.21-1.41.17-.59.17-.59-.23-.06-1.24.58l-1.71,1.08-3.53,2,0,0a30.9,30.9,0,0,1,3-3.88,33.75,33.75,0,0,0,2.38-3.16,7,7,0,0,0,.83-2,.42.42,0,0,0,0-.22s-.05,0-.07,0a.2.2,0,0,0-.1,0c-.3,0-.95.28-1.94,1a17.62,17.62,0,0,1-2.2,1.44l-.1,0,.07,0a3.36,3.36,0,0,1-1,.31,1,1,0,0,1-1.17-.91,3.06,3.06,0,0,1,0-.85,3.5,3.5,0,0,1,1.33-2.47,8.92,8.92,0,0,1,3.18-.64,3.69,3.69,0,0,0,1.35-.39,9,9,0,0,0,2.5-2.57,15,15,0,0,0,2-6.82,7.6,7.6,0,0,0,0-.91,5.66,5.66,0,0,0-.27-1.37h0a54.42,54.42,0,0,0,4.85-4.48,17.93,17.93,0,0,0,2.37-3,2.72,2.72,0,0,1,.15-.24l0,0,.08-.08h0s0,0,0,0v0a.36.36,0,0,1,0,.09,9.06,9.06,0,0,1-.3,1.35,6.67,6.67,0,0,0-.12,1.41v0a3.41,3.41,0,0,0,.05.47v.07a1.94,1.94,0,0,0,.08.29l0,.09a1.1,1.1,0,0,0,.18.29h0c.51.56,2-1,2-1a6.28,6.28,0,0,0,1.21-2.58,8.64,8.64,0,0,0,.29-2.55.78.78,0,0,0-.06-.27,1.35,1.35,0,0,1-.12-1.07,22,22,0,0,1,2.48-5l.28-.31a65.22,65.22,0,0,1-1.09,8.59l0-.13c.24-1,.45-2.06.64-3.11h0s.43-4.06.57-5.51v0l.19-.21v0h0ZM41.8,63.08v0Zm0,.13h0Zm0-.29v0ZM33.66,83.49l0,.12Zm-.06.26h0Zm110.11,43,0,.06-.19.26c-.06.08-.18.23-.33.39s-.15.16-.22.23l-.09.08-.27.25-.06.06a3.45,3.45,0,0,1-1.73.87c-1.4.17-2.92.15-4.33,1.5l-.07.05-.15.15-.07.07,0,0a4.38,4.38,0,0,0-.42.56,5.74,5.74,0,0,0-.87,3.61,1.24,1.24,0,0,0,1.69,1,12.91,12.91,0,0,0,4.31-2.52c1.18-.94.46.32.46.32a20.33,20.33,0,0,1-3,4.09,18,18,0,0,0-2.22,2.75c-.4.56-.73,1.06-1,1.49h0v0c-1.56.84-3.81,1.95-5.21,2.53-1.79.74-2.71.9-2.55.66a3.92,3.92,0,0,1,.58-.58,1.75,1.75,0,0,0,.5-1s.16-.73-2-.28a17.13,17.13,0,0,0-4.13,1.52s-3.22,1.48-2.46,2.37c0,0,.15.23.8.44s-1.15.76-1.15.76a39.1,39.1,0,0,1-4.69,1.16c-1.72.35-3.21.68-4.22.9h0a7.54,7.54,0,0,0-.44-1.2l-.06-.13c-.09-.18-.17-.35-.26-.52l0-.08-.29-.51-.11-.17-.13-.21-.27-.43c-.39-.63-1-1-3-.67a22.59,22.59,0,0,0-4.24,1.3,8.69,8.69,0,0,1-4.14,1,2.29,2.29,0,0,1-1.08-.42,2.83,2.83,0,0,1-1-2.16c0-.56.38-1,1.3-1.41a22.6,22.6,0,0,1,6.25-1,5.25,5.25,0,0,0,4.33-2.22,1.79,1.79,0,0,0-.06-2.54,3.08,3.08,0,0,0-.55-.39,16.35,16.35,0,0,0-1.9-.92,3.3,3.3,0,0,1-.42-.23l0,0-.08-.06-.21-.15c-.21-.16-.43-.33-.64-.52a4.72,4.72,0,0,1-1.49-2c0-.11-.08-.25-.13-.37l-.8-.53-.25-.17h0l.05,0,0,0-.07.06h0l1.06.7c.92-.08,2.11-.16,3.18-.21a54.24,54.24,0,0,0,7.37-1,32,32,0,0,0,7-2.45c2.16-1.12,2.27-1.9,2.27-1.9a.69.69,0,0,0,.06-.57,1.34,1.34,0,0,0-.55-.69c-.9-.66-1.3-.48-2.1-1.29a.8.8,0,0,1-.2-.31c-.24-.77.89-1.7.89-1.7s.77-1.08,5-2.73,5-1.09,5.21-.91a.46.46,0,0,1,.13.2,2,2,0,0,1,0,1c-.09.4-.62,1.82-.9,2.57a1.86,1.86,0,0,0-.06,1.46,1.12,1.12,0,0,0,.82.56,8.61,8.61,0,0,0,4.3-.56c3.63-1.29,4.71-2.88,10.7-7.22l0,0,0-.81h0v0l0,.79a7,7,0,0,1,.18,3.53,13.62,13.62,0,0,1-1.24,4.17C143.85,126.56,143.78,126.68,143.71,126.79Zm-86.56,9.58s-2.35-4.23-2.1-5.78a1.63,1.63,0,0,1,.69-1.06,2.79,2.79,0,0,1,.86-.42c1-.31.89.68,3.9,1.22,0,0,2,.54,2.94-.59a1.91,1.91,0,0,0,.34-.59c.68-1.89-.71-4.25-.71-4.25s-1.82-3.33-4.07-3.45h0c-1.14,0-.85.74-2.62,1.16,0,0-2.4.23-3.16-1.21a11.49,11.49,0,0,1-1.27-5s0-.08,0-.12a8.36,8.36,0,0,1,.09-1.34c0-.08,0-.17.06-.29s.09-.3.14-.52a5.41,5.41,0,0,0,.17-.85h0l4.54-.49c3.17-.34,5.3-.68,7.27-.39a3.36,3.36,0,0,1,2.61,1.83.62.62,0,0,1,0,.37.68.68,0,0,1-.27.3,3.78,3.78,0,0,0-1.19,1.12h0l-.08.17h0a2.54,2.54,0,0,0,.29,2.38,4.75,4.75,0,0,0,4.36,1.79,49.06,49.06,0,0,0,5.67-1.23,5.1,5.1,0,0,0,2.87-1.63,2,2,0,0,0,.36-.86c.19-1.26-1.92-2.88-1.92-2.88a13,13,0,0,1-1.14-.94.15.15,0,0,1,0-.11c0-.08.15-.12.15-.12a13.74,13.74,0,0,0,1.7-.52,38,38,0,0,1,4.2-1.53c2.3-.72,7-1.56,7-1.56s2.61-.42,5.87-.68h0l.38-.43.11-.12-.49.57c0,.31,0,.62,0,1a18.36,18.36,0,0,0,.9,7.35,6.7,6.7,0,0,0,2.19,2.91,2.74,2.74,0,0,0,2.53,0,26.35,26.35,0,0,0,2.44-1.3c.94-.6.91-.85,2-1.9a3.22,3.22,0,0,1,2.6-.76,2.7,2.7,0,0,1,2.18,1.65,8.15,8.15,0,0,1,.43,4.73c-.2.83-.56,1.37-1.33,1.23a24,24,0,0,0-2.53-.29,10.84,10.84,0,0,0-3,.25c-1.18.31-2.76,1.15-4.28,3.61a5.09,5.09,0,0,0-.33,4.52c.21.58.8,1.38,1.31,2.38l.95.32h0l-.94-.31a63.74,63.74,0,0,0-7,1.23c-3.29.8-6.42,1.44-8.65,2.88,0,0-1.67,1.11-.71,2.19a6.67,6.67,0,0,0,2,1.54s.59.26.58.42,0,.39-.46.64a11.31,11.31,0,0,1-5.15,1.08c-3.4.06-4.9,0-5.9-.87-.82-.74.21-2.31.21-2.31a2.28,2.28,0,0,0,0-1.82c-.41-1.05-2.78-1.07-2.78-1.07l-3.28-.17c-3.88-.1-9-.54-11.28-.82h0Zm-10-42.85a4.15,4.15,0,0,1,1.31.59,1.72,1.72,0,0,0,1.53.16,1.28,1.28,0,0,0,.43-.28,4.54,4.54,0,0,0,1.47-3.26,31.11,31.11,0,0,0,0-7.16h0l1.86-.31c.79-.12,1.68-.24,2.62-.33a42,42,0,0,1,7.3-.17s.46.06.51.22a.1.1,0,0,1,0,.07,2.7,2.7,0,0,1-.53.52,5.5,5.5,0,0,0-.82.84A3.25,3.25,0,0,0,62,86.49a1.34,1.34,0,0,0,0,.29,3.64,3.64,0,0,0,3,2.71,11.32,11.32,0,0,0,5.11-.43A7.88,7.88,0,0,0,73.63,87a2.48,2.48,0,0,0,.74-2.32,3.9,3.9,0,0,0-.73-1.58,1.71,1.71,0,0,0-.81-.55s-.13,0-.14-.11a.13.13,0,0,1,0-.09,2.69,2.69,0,0,1,1.72-1.13A91.36,91.36,0,0,1,88.32,78.5h0s.65,2.57,1.13,4.23a33.11,33.11,0,0,1,.78,3.65,1.35,1.35,0,0,1-.4,1.32,5.42,5.42,0,0,1-1.79.7,3.18,3.18,0,0,1-1.25-.25,5,5,0,0,0-1.16-.23,7,7,0,0,0-2.87.22A4.11,4.11,0,0,0,80.08,92a8.36,8.36,0,0,0,.67,4.53,4,4,0,0,0,3.09,2.65,2.88,2.88,0,0,0,2.42-1.32,5.75,5.75,0,0,1,.74-.94,5.28,5.28,0,0,1,3.32-.22,6.4,6.4,0,0,1,3.41,3.36c.73,1.63,1,3.45.91,6.72l.73.56h0l-.74-.56c-2.06.17-4.44.45-4.44.45a77,77,0,0,0-10.3,2.28c-4.18,1.29-5,2-5,2a1.32,1.32,0,0,0-.15,1.82,6.06,6.06,0,0,0,1.29,1.35c.86.68,1.55,1.32,1.45,1.65a.86.86,0,0,1-.36.48s-1.2,1.07-6.13,1.9c0,0-3.17.61-4.15-.34s-.55-1.6-.55-1.6.07-.22.78-.66a2,2,0,0,0,.81-2.16c-.38-1.42-2.67-3.19-5.14-3.17a96.71,96.71,0,0,0-10.27,1h0c0-.33,0-.67,0-1-.12-2.08-.26-5.29-.55-7.16s-.79-4.76-2.5-4.84c0,0-.84-.07-2.05,1.11s-2.11-.89-2.16-2.08a8.06,8.06,0,0,1,.51-3.5,1.08,1.08,0,0,1,.35-.39A2,2,0,0,1,47.18,93.52Zm76.34-25.08a10.6,10.6,0,0,1,2.94,5.41s.34,1.17-.35,1.26-2,.09-2,.09-.53.05-1.4.23a2.25,2.25,0,0,0-1.54,1.74,7.16,7.16,0,0,0,1,5.15c1.47,2.75,3.34,2.63,3.34,2.63a5.12,5.12,0,0,0,3.06-1.07,4.21,4.21,0,0,0,1.38-2.27c.06-.27.18-.53.39-.53a3.15,3.15,0,0,0,.64-.07c.5-.07.87.28,1.28,1.12a29.76,29.76,0,0,1,2.1,4.26,16.36,16.36,0,0,1,.8,4,13.16,13.16,0,0,0,.16,1.55l.39.57h0l-.41-.59a104.71,104.71,0,0,1-9.86,4.4,15.39,15.39,0,0,1-3.31,1s-.21,0,0-.22a6.47,6.47,0,0,0,.64-.92,6.55,6.55,0,0,0,.81-2.92c0-1.21-1.4-2.4-3.36-2.19a23.59,23.59,0,0,0-6.08,1.62c-2.25.87-4.19,2.71-4.45,4.23S111,99.32,111,99.32s1.86.94,2.1,1.45a1.38,1.38,0,0,1,.06,1,2,2,0,0,1-1,1c-.81.47-3,1.61-3,1.61a19.18,19.18,0,0,1-7,1.9s-3.83.33-6,.44h-.08a18.11,18.11,0,0,0-.83-6.65,9,9,0,0,0-.66-1.45,8,8,0,0,0-3.47-3.11,6.11,6.11,0,0,0-4-.11,3,3,0,0,0-2,1.66c-.47.81-1,.76-1,.76s-1.65,0-2.29-2.37c0-.1-.05-.19-.08-.3-.08-.39-.13-.73-.17-1.07,0-.08,0-.17,0-.25,0-.23,0-.42,0-.62s0-.33,0-.47a3.85,3.85,0,0,1,.72-2.65,2.43,2.43,0,0,1,1.72-.78,7.41,7.41,0,0,1,3.18.39,4,4,0,0,0,3-.47,2.64,2.64,0,0,0,1.42-1.46,4,4,0,0,0,.14-2c-.25-1.75-.31-2.16-1.86-7.48,1.78-.24,3.26-.47,4.86-.77s3-.6,4.95-1c0,0,3.81-.68,4.61-2.07.46-.81,1.29-1.92-.05-3h0a1.88,1.88,0,0,0-.87-.36l-.12,0c-.42-.09-.79-.17-1.14-.29a3.85,3.85,0,0,1-1-.53,1.42,1.42,0,0,1-.69-1.09s-.06-.56,1.08-1.2a8.71,8.71,0,0,1,1.31-.73,15.4,15.4,0,0,1,1.87-.72A12.53,12.53,0,0,1,109.1,66s1,.11.86.81a19,19,0,0,0-.78,2.46,1.45,1.45,0,0,0,.61,1.45,2.63,2.63,0,0,0,.57.32,6.23,6.23,0,0,0,2.25.36c.36,0,.59,0,.59,0a19.75,19.75,0,0,0,4.58-1c1.8-.58,3.6-1.21,4.67-1.59l1-.37h0Zm15,32.26a2.66,2.66,0,0,0,3.2,1.24c1.07-.27,1.42-.85,2-2.13s.91-1.37.91-1.37.24-.34,1.32-.21a1.46,1.46,0,0,1,1.31.89,7.26,7.26,0,0,1,.5,3,5.39,5.39,0,0,1-.81,2.79c-.36.55-2.21.37-2.21.37s-3.18-.36-3.46,3.46a13.75,13.75,0,0,0,1,6.46,4.47,4.47,0,0,0,1.33,1.83,7.27,7.27,0,0,1,.76.66,1.19,1.19,0,0,1,.16.19h0c-2.27,1.83-2.94,2.43-4.74,3.7a39.82,39.82,0,0,1-4.31,2.75,10.47,10.47,0,0,1-4.91,1.07s-.72-.08-.37-.6a11.08,11.08,0,0,0,1-2.43c.18-.65.52-2.28-.79-2.8s-3.78.25-3.78.25-5.67,1.51-8,4-.36,3.57-.36,3.57a8.53,8.53,0,0,0,1.74.91c.81.29.65.55.44.7a24,24,0,0,1-5.53,2.47,40.9,40.9,0,0,1-8.07,1.51l-5.63.35c-.43-.84-.87-1.59-.87-1.59a5.3,5.3,0,0,1-.54-1.16,4.19,4.19,0,0,1,.24-3.48,6.77,6.77,0,0,1,3.43-2.94,9.59,9.59,0,0,1,3.76,0,3.33,3.33,0,0,0,2.67-.27s1.08-.47,1.41-2.63h0c0-.06,0-.13,0-.2s0-.15,0-.22v-.05c0-.28,0-.59,0-.9v0c0-.16,0-.33,0-.49s0-.32,0-.48v0c-.19-1.95-1-4-3-4.57a4.61,4.61,0,0,0-4.42.71,16,16,0,0,1-2.06,2c-.51.25-1.28.7-1.28.7a8,8,0,0,1-1.82.81c-.45.1-2-1.9-2.34-3.62a3.88,3.88,0,0,1-.08-.39,36.2,36.2,0,0,1-.41-5.2c0-.36,0-.75,0-1.17v0l1.55-.08a42,42,0,0,0,9.08-1.23,23.74,23.74,0,0,0,6.22-2.85,3.35,3.35,0,0,0,1.64-1.91,3.72,3.72,0,0,0,.08-.38c0-.06,0-.1,0-.16h0c.21-1.62-1.71-2.7-1.71-2.7A11.86,11.86,0,0,1,111,97.64a.51.51,0,0,1-.13-.49.62.62,0,0,1,.1-.21,6.69,6.69,0,0,1,3.63-3,21.47,21.47,0,0,1,5.79-1.51c1.17-.12,1.56.3,1.72.5a1.21,1.21,0,0,1,0,1,14.23,14.23,0,0,1-.81,1.75c-.25.45-.66,1.52-.4,2s1.06.74,2.08.56a37.27,37.27,0,0,0,6.13-1.95c2.38-1,6.36-2.94,6.36-2.94l0,0h0l.1-.88v0l-.1.9A52.29,52.29,0,0,0,138.53,100.7ZM88.46,78.17l.2-.45h0Zm12.22,55.7h0Zm56-55.3h0ZM93.71,51.92s.78-.37,0-1.1a7.64,7.64,0,0,0-1.12-1s-.51-.28,0-1a3.4,3.4,0,0,1,1.69-1.17A10.92,10.92,0,0,1,98,47.61s.62.05.58.51-.11,1.09-.1,1.29a1.39,1.39,0,0,0,.5,1.06,3.34,3.34,0,0,0,1.38.57,8.73,8.73,0,0,0,3.56-.27c2-.56,4.56-1.43,6.81-2h0c.14.31.44.9,1.08,2a4.94,4.94,0,0,0,4,2.61,4.69,4.69,0,0,0,2.52-1,1.22,1.22,0,0,1,1-.48c1.08-.07,1.35.84,2.24,2.11a2.21,2.21,0,0,1,.34,2.27,1.55,1.55,0,0,1-1.85.5c-.45-.1-.5-.15-1-.25a2,2,0,0,0-2.18,1,2.43,2.43,0,0,0,.21,3.12s3.1,4.15,5.45,6.71l-4.09,1.39a32.2,32.2,0,0,1-5.22,1.44c-2.07.28-2.53,0-2.81-.3s0-1.27,0-1.27.84-1.72.44-2.62-3.07-1.13-3.12-1.13A10.2,10.2,0,0,0,102.12,66c-2.38,1.33-2.69,2.06-2.69,2.06a2.09,2.09,0,0,0,.14,2.34,3.65,3.65,0,0,0,2.36,1.44s1.28.1,1.58.48a.76.76,0,0,1,.1.78s-.42,1.16-2.79,1.64A90,90,0,0,1,89.4,77h0a40.54,40.54,0,0,1-1.58-8.73c-.13-1.22.06-1.62.75-1.93A4.83,4.83,0,0,1,91,66.19a4.18,4.18,0,0,0,2.32-.4,3,3,0,0,0,1.88-2.71,6.23,6.23,0,0,0-2.45-4.2,2.54,2.54,0,0,0-.84-.33,3.12,3.12,0,0,0-2.37.5c-.76.56-1.06,1.29-1.52,1.52a3.17,3.17,0,0,1-1.68.61l-.13,0c-.69-.17-.73-1.72-1-3.47l-.3-1.76-.13-.73S91.61,53.93,93.71,51.92Zm-5,25.8h0ZM52.2,112.36h0Zm5,24.3h0v0h0Zm73.34,11.8a23.83,23.83,0,0,1-2.65,2.37l-3,1.41c-2.06,1-2.82,1.43-2.82,1.43s-.11.06,0,.1,0,.08,0,.08c-1.06.51-3.39,1.34-3.39,1.34s-.21.07-.2,0,.25-.13.25-.13.48-.18.35-.27a7,7,0,0,0-1.52.38s-2.44.78-3.63,1.11l-1.94.53c-.69,0-1.18-.14-1.42-.17-.54-.07-1-.18-1.1-.45a.12.12,0,0,1,0-.09c.05-.18.61-.16.61-.16a24.4,24.4,0,0,0,3.33-.65l.74-.22c2-.63,2.42-1.23,2.35-1.68a.29.29,0,0,0-.1-.17l-.06,0-.15-.07-.08,0-.27,0h0l-.38,0h0a6.29,6.29,0,0,0-1.13.26c-1.17.38-2.93.94-3.34,1l-.31,0h-.23l-.14,0-.11,0-.09,0a.39.39,0,0,1-.15-.13.87.87,0,0,1,.18-1.13,1.74,1.74,0,0,0,.5-.87,2.69,2.69,0,0,0,0-.64c0-.05,0-.11,0-.16s0-.13,0-.2l.13,0s2.89-.68,4.1-.88A26.74,26.74,0,0,0,120,149c1.16-.56,1.75-1,1.89-1.35s-.49-.54-.49-.54-.74-.17-.64-.43.37-.48,1.52-1a24.78,24.78,0,0,1,4-1.43c1.45-.35.92.24.92.24a6.41,6.41,0,0,0-1,1.23c-.11.34,0,.36.15.42a3.35,3.35,0,0,0,1.28-.08,46.07,46.07,0,0,0,6.69-2.94l.17-.1.49-.81h0l-.06.1a16.86,16.86,0,0,0-1,1.8,4.14,4.14,0,0,0-.39,1.08c0,.39-.32.34-.32.34a3.62,3.62,0,0,0-1.46.34l-.08,0-.1.05a5.7,5.7,0,0,0-.89.54l-.19.12-.1.08a18.32,18.32,0,0,0-1.92,1.8l-.05.07-.29.33s-.53.71,0,.71a5,5,0,0,0,2.18-1C130.79,148.13,130.56,148.47,130.56,148.47Z"/><path class="cls-9" d="M123.42,67.83l1.21.22c.74-.28,1.76-.68,2.87-1.17a35.68,35.68,0,0,0,4.36-2.45s2.28-1.4,3.62-1.36c0,0,.31,0,.34.4a5.27,5.27,0,0,0,.27,1.37,4,4,0,0,0,3.42,2.57,4.74,4.74,0,0,0,.87,0c.12,0,.22,0,.32-.05s.29,0,.41-.07a3.6,3.6,0,0,0,.51-.18l.11,0A3.31,3.31,0,0,0,143.07,66a2.34,2.34,0,0,0-.62-2.88s-1.2-1.29-1.24-1.39a.16.16,0,0,1,0-.2.45.45,0,0,1,.17-.09c.21-.06,1.7-.48,3.14-.94l.08,0,.35-.11,1.15-.41h0l.17-.07.16-.06,0,0,.23-.1,0,0h0l-.33-.6.5.46c1.28,2.07,3.56,5.38,3.56,5.38s.32.42.63.76h0a2.73,2.73,0,0,0-.08-.78l-.11-.34c0-.46.55.12.77.36-.62-.95-.83-1-.83-1s-.53-.29-.14.74-.09.29-.09.29c-1.16-1.48-3.56-5.38-3.56-5.38l-.28-.19.27.18a3.08,3.08,0,0,0,.46-.28.93.93,0,0,0,.23-.22c.22-.34-.07-1-.07-1h0l-.5-.69-.76-.32h0l-.07,0-.61.44.23,1.06a10.19,10.19,0,0,1-2.1.77,19.43,19.43,0,0,0-2.74,1s-1.12.36-.69,1.27c0,.09.09.15.13.22a.9.9,0,0,0,.1.2l0,0a3.68,3.68,0,0,0,.79.9l.2.22.12.14.1.12a3.72,3.72,0,0,1,.27.39,1.51,1.51,0,0,1,.24.66c0,.66-.25,1-1,1.35a4.1,4.1,0,0,1-1.35.47,3.39,3.39,0,0,1-2.51-.49,3.85,3.85,0,0,1-1-2.08,1.92,1.92,0,0,0-1.44-1.57,4.36,4.36,0,0,0-3.07.53s-1.33.71-2.76,1.63a33.23,33.23,0,0,1-5.82,2.65l-.19.88h0Z"/><path class="cls-9" d="M48.12,55.23a.49.49,0,0,1,0-.12A.74.74,0,0,0,48.12,55.23Z"/><path class="cls-9" d="M48.12,55.27v0A.16.16,0,0,0,48.12,55.27Z"/><path class="cls-9" d="M48.26,55.42s.41-.63.24-.55a2.78,2.78,0,0,1-.21.29.42.42,0,0,1-.11.1s-.05,0-.06,0h0A1.57,1.57,0,0,0,48.26,55.42Z"/><path class="cls-9" d="M44.95,59.09l.66-.66a1.28,1.28,0,0,0,.17-.5,4.53,4.53,0,0,0-.84.51S44.46,59,44.95,59.09Z"/></g><path class="cls-10" d="M96,6C29.3,6,6,29.3,6,96s23.3,90,90,90,90-23.3,90-90S162.7,6,96,6Zm68.6,158.6C151.2,178,130,184,96,184s-55.2-6-68.6-19.4S8,130,8,96s6-55.2,19.4-68.6S62,8,96,8s55.2,6,68.6,19.4S184,62,184,96,178,151.2,164.6,164.6Z"/><path class="cls-11" d="M115.87,124.45l.82.22,21.22-50.35c.74-2,.62-3.47-.32-4.32l-.21-.17a6.55,6.55,0,0,1-.47,2.49l-21.22,50.35-.79-.22Z"/><path class="cls-11" d="M130.48,66.48v-1l.3-.21H154V63.53l-.24-.21h-24l-.3.21v2.1a.72.72,0,0,0,.33.61A1.18,1.18,0,0,0,130.48,66.48Z"/><path class="cls-11" d="M73.69,65.57l.3-.21H94.21V63.53l-.55-.18H73l-.3.21v2.2c0,.4.35.55,1,.67Z"/><path class="cls-11" d="M92.24,96.2l-.86-1.69c1.4,3.1,13.29,29.44,17.68,38.48.15.31.3.6.45.87C104.44,123.28,92.24,96.2,92.24,96.2Z"/><path class="cls-11" d="M82.18,76.32l-.39-.77,1.46,3h0l.46.91C83.21,78.4,82.5,77,82.18,76.32Z"/><path class="cls-12" d="M186,96c0-.16,0-.32,0-.48l-32-32L129.71,66l8.2,8.27-2.1,3.25-14-14-19.7,2.69,6.64,6.64-2.16,3L94.21,63.53,72.86,66,88.48,81.63v5.89L64.55,63.58l-26,2.36L52,79.41l24.63,55.47,49.1,49.1C169.78,177,186,151.6,186,96Z"/><path id="path3898" class="cls-13" d="M83.25,78.5s-1.55-3.14-2.07-4.18c-3.51-7-3.44-7.33-7-7.8-1-.13-1.51-.26-1.51-.75v-2.2l.3-.21H93.66l.55.18v2.19c0,.5-.36.76-1.09.76l-1.5.21c-3.79.29-3.17,1.84-.65,6.86l23.9,48.9.82.22,21.22-50.35c.74-2,.62-3.47-.32-4.32s-1.62-1.31-4.08-1.41l-2-.1a1.17,1.17,0,0,1-.7-.25.72.72,0,0,1-.33-.61v-2.1l.3-.21h24l.24.21v2.1c0,.57-.32.85-1,.85q-4.71.21-7,2a11.89,11.89,0,0,0-3.54,5.11S123,118.28,116.33,133.13c-2.56,4.87-5.07,4.42-7.28-.14-4.67-9.62-17.82-38.79-17.82-38.79l-8-15.7Z"/><path id="path3900" class="cls-13" d="M121.54,63.32s-13.48,0-19.49,0l-.3.21v2.09a.72.72,0,0,0,.33.61,1.15,1.15,0,0,0,.69.25l1,.11c2.45.1,3.58.75,3.92,1.15.59.72.88,1.49-.54,4.58L81.94,122.54l-.66-.17s-18-38-23.25-50.74a8.61,8.61,0,0,1-.79-2.9q0-1.94,3.5-2.09l2.72-.11c.72,0,1.09-.28,1.09-.85V63.58l-.24-.21s-21.6,0-26.06,0l-.24.21v2.19c0,.4.5.64,1.51.75q4.11.22,5.41,1.31c.86.74,1.78,2.6,3,5.5,6.55,15.75,20.48,43.84,27.26,59.84,2,4.37,4.41,5,7.39-.13,5.16-9.57,19.16-38.81,19.16-38.81l11-20.61c1.28-2.18,2.52-4.12,3.15-5,1.15-1.65,1.79-2,4.93-2.11.64,0,1-.29,1-.86V63.54l-.24-.22Z"/><path class="cls-11" d="M82.28,124.36l.66.17,25.18-50.21c1.42-3.09,1.13-3.87.54-4.58a2,2,0,0,0-.54-.41,10.22,10.22,0,0,1-1,3L81.94,122.54l-.6-.16Z"/><path class="cls-11" d="M102.75,66.48v-.95l.3-.21c5.15,0,15.81,0,18.73,0V63.54l-.24-.22h0s-13.48,0-19.49,0l-.3.21v2.09a.72.72,0,0,0,.33.61A1.15,1.15,0,0,0,102.75,66.48Z"/><path class="cls-11" d="M39,65.58l.24-.21c4,0,21.47,0,25.3,0V63.58l-.24-.21s-21.6,0-26.06,0l-.24.21v2.19c0,.32.34.54,1,.67Z"/><path class="cls-11" d="M48.91,75.34a38.5,38.5,0,0,0-1.85-4q.4.88.85,2c6.55,15.75,20.48,43.84,27.26,59.84A12.82,12.82,0,0,0,76,134.7C69.11,118.62,55.4,90.93,48.91,75.34Z"/></g></g></svg>