<svg xmlns="http://www.w3.org/2000/svg" xmlns:xlink="http://www.w3.org/1999/xlink" width="192" height="192" viewBox="0 0 192 192">
  <defs>
    <style>
      .cls-1 {
        opacity: 0.01;
      }

      .cls-1, .cls-2, .cls-3, .cls-4 {
        isolation: isolate;
      }

      .cls-2 {
        opacity: 0.02;
      }

      .cls-3 {
        opacity: 0.04;
      }

      .cls-4 {
        opacity: 0.06;
      }

      .cls-5 {
        fill: #ff4500;
      }

      .cls-6 {
        fill: url(#未命名的渐变_2);
      }

      .cls-7 {
        fill: none;
      }

      .cls-8 {
        fill: #ffc70a;
        opacity: 0.1;
      }

      .cls-11, .cls-12, .cls-13, .cls-8 {
        fill-rule: evenodd;
      }

      .cls-9 {
        fill: #ffa60a;
        opacity: 0.2;
      }

      .cls-10 {
        fill: url(#未命名的渐变_15);
      }

      .cls-11 {
        fill: url(#未命名的渐变_17);
      }

      .cls-12 {
        fill: #fafafa;
      }

      .cls-13 {
        fill: #fff;
      }
    </style>
    <linearGradient id="未命名的渐变_2" data-name="未命名的渐变 2" x1="166.012" y1="75.988" x2="25.987" y2="216.012" gradientTransform="matrix(1, 0, 0, -1, 0, 242)" gradientUnits="userSpaceOnUse">
      <stop offset="0" stop-opacity="0.04"/>
      <stop offset="0.5" stop-color="gray" stop-opacity="0"/>
      <stop offset="1" stop-color="#fff" stop-opacity="0.1"/>
    </linearGradient>
    <linearGradient id="未命名的渐变_15" data-name="未命名的渐变 15" x1="166.004" y1="27.998" x2="25.998" y2="168.004" gradientTransform="matrix(1, 0, 0, -1, 0, 194)" gradientUnits="userSpaceOnUse">
      <stop offset="0" stop-opacity="0.1"/>
      <stop offset="0.5" stop-color="gray" stop-opacity="0.05"/>
      <stop offset="1" stop-color="#fff" stop-opacity="0.1"/>
    </linearGradient>
    <linearGradient id="未命名的渐变_17" data-name="未命名的渐变 17" x1="171.252" y1="160.752" x2="79.473" y2="68.973" gradientUnits="userSpaceOnUse">
      <stop offset="0" stop-opacity="0.02"/>
      <stop offset="1" stop-opacity="0.1"/>
    </linearGradient>
  </defs>
  <title>reddit</title>
  <g id="图层_2" data-name="图层 2">
    <g id="图层_1-2" data-name="图层 1">
      <g>
        <path class="cls-1" d="M96,190C27.3,190,3,165.7,3,97S27.3,4,96,4s93,24.3,93,93S164.7,190,96,190Z"/>
        <path class="cls-2" d="M96,189C28.1,189,4,164.9,4,97S28.1,5,96,5s92,24.1,92,92S163.9,189,96,189Z"/>
        <path class="cls-3" d="M96,188C28.8,188,5,164.2,5,97S28.8,6,96,6s91,23.8,91,91S163.2,188,96,188Z"/>
        <path class="cls-4" d="M186,97c0,66.7-23.3,90-90,90S6,163.7,6,97,29.3,7,96,7,186,30.3,186,97Z"/>
      </g>
      <path class="cls-5" d="M186,96c0,66.7-23.3,90-90,90S6,162.7,6,96,29.3,6,96,6,186,29.3,186,96Z"/>
      <path class="cls-6" d="M96,6C29.3,6,6,29.3,6,96s23.3,90,90,90,90-23.3,90-90S162.7,6,96,6Zm68.6,158.6C151.2,178,130,184,96,184s-55.2-6-68.6-19.4S8,130,8,96s6-55.2,19.4-68.6S62,8,96,8s55.2,6,68.6,19.4S184,62,184,96,178,151.2,164.6,164.6Z"/>
      <rect class="cls-7" width="192" height="192"/>
      <path class="cls-8" d="M6,96c0,14.179,1.06,26.39,3.362,36.841Q12.907,133,16.5,133C87.469,133,145,87.333,145,31a82.123,82.123,0,0,0-2.208-18.889C130.387,7.886,114.946,6,96,6,29.32,6,6,29.33,6,96Z"/>
      <ellipse class="cls-9" cx="65" cy="132.442" rx="19.442" ry="22" transform="translate(-82.208 142.227) rotate(-67.662)"/>
      <ellipse class="cls-9" cx="144.61" cy="146.4" rx="5.903" ry="6.418" transform="translate(-45.765 224.516) rotate(-67.662)"/>
      <circle class="cls-9" cx="140.5" cy="54.5" r="20.5"/>
      <path class="cls-10" d="M186,96c0,66.67-23.32,90-90,90S6,162.67,6,96,29.32,6,96,6,186,29.32,186,96Z"/>
      <path class="cls-11" d="M186,96q0-3.1-.068-6.068L143,47l-15,6-22.711-5.183L96,77.5H84.5L65,97H51.445v29.445l59.133,59.133C166.116,182.167,186,157.559,186,96Z"/>
      <path class="cls-12" d="M150.338,101.991a12.533,12.533,0,0,1-3.211,2.383,24.662,24.662,0,0,1,.392,4.3c0,9.872-5.879,18.766-15.383,25.162C122.8,140.114,109.939,144,95.755,144s-27.047-3.886-36.377-10.166c-9.5-6.4-15.382-15.29-15.382-25.162a24.733,24.733,0,0,1,.435-4.53,12.586,12.586,0,0,1-2.776-2.156,13.163,13.163,0,0,1,0-18.207,12.189,12.189,0,0,1,17.522-.128c.068-.047.132-.1.2-.142,9.2-6.191,21.828-10.048,35.768-10.158L103.3,46.768a1.354,1.354,0,0,1,1.6-.94l21.464,5.212a10.482,10.482,0,0,1,2.4-3.98,9.908,9.908,0,0,1,14.327.006,10.672,10.672,0,0,1,0,14.767,9.9,9.9,0,0,1-14.319.007,10.583,10.583,0,0,1-2.974-7.39c0-.224.019-.444.033-.665l-20.328-4.937L97.985,73.379c13.3.384,25.313,4.179,34.152,10.13.165.111.321.229.484.342.022-.023.041-.049.063-.071a12.208,12.208,0,0,1,17.658-.006,13.164,13.164,0,0,1,0,18.217ZM77.7,94.568a7.489,7.489,0,1,0,5.283,2.2A7.463,7.463,0,0,0,77.7,94.568Zm41.917,2.2a7.468,7.468,0,1,0,2.189,5.284A7.45,7.45,0,0,0,119.618,96.764Zm-4.668,26.541a1.4,1.4,0,0,0-1.975-.006,16.28,16.28,0,0,1-7.723,4.032,38.643,38.643,0,0,1-9.186.957c-.022,0-.044.006-.066.007s-.044-.007-.066-.007a38.683,38.683,0,0,1-9.187-.957A16.274,16.274,0,0,1,79.03,123.3a1.4,1.4,0,1,0-1.98,1.981,19.013,19.013,0,0,0,9.03,4.764,41.346,41.346,0,0,0,9.854,1.045c.022,0,.044-.006.066-.007s.044.007.066.007a41.317,41.317,0,0,0,9.853-1.045,19.012,19.012,0,0,0,9.025-4.764A1.4,1.4,0,0,0,114.95,123.305Z"/>
      <g>
        <path class="cls-13" d="M87.08,132.044a41.346,41.346,0,0,0,9.854,1.045c.022,0,.044-.006.066-.007s.044.007.066.007a41.317,41.317,0,0,0,9.853-1.045,19.012,19.012,0,0,0,9.025-4.764,1.4,1.4,0,0,0,.006-1.975,1.357,1.357,0,0,0-.775-.37,1.371,1.371,0,0,1-.231.345,19.012,19.012,0,0,1-9.025,4.764,41.317,41.317,0,0,1-9.853,1.045c-.022,0-.044-.006-.066-.007s-.044.007-.066.007a41.346,41.346,0,0,1-9.854-1.045,19.568,19.568,0,0,1-8.362-4.152,1.387,1.387,0,0,0,.332,1.388A19.013,19.013,0,0,0,87.08,132.044Z"/>
        <path class="cls-13" d="M126.8,55.555a10.381,10.381,0,0,0,1.608,4.54,10.405,10.405,0,0,1-.668-3.645c0-.224.02-.444.034-.665Z"/>
        <path class="cls-13" d="M122.807,104.048a7.436,7.436,0,0,0-1.362-4.292,7.467,7.467,0,0,1-13.227,6.583,7.475,7.475,0,0,0,14.589-2.291Z"/>
        <path class="cls-13" d="M132.6,83.78c-.022.022-.041.048-.063.071-.163-.113-.318-.231-.483-.342-8.474-5.716-19.876-9.434-32.527-10.06l-.591,1.93c13.274.384,25.264,4.179,34.085,10.13.165.111.321.229.484.342.021-.023.04-.049.062-.071a12.168,12.168,0,0,1,17.624-.006,12.893,12.893,0,0,1,1.811,2.4,12.945,12.945,0,0,0-2.778-4.4,12.168,12.168,0,0,0-17.624.006Z"/>
        <path class="cls-13" d="M45.05,110.672a24.733,24.733,0,0,1,.435-4.53,12.638,12.638,0,0,1-1.164-.781,23.939,23.939,0,0,0-.238,3.311,25.672,25.672,0,0,0,3.176,12.259A25.3,25.3,0,0,1,45.05,110.672Z"/>
        <path class="cls-13" d="M85.176,102.048a7.474,7.474,0,0,1-12.759,5.286,7.541,7.541,0,0,1-.835-1,7.476,7.476,0,0,0,14.594-2.286,7.42,7.42,0,0,0-1.361-4.291A7.454,7.454,0,0,1,85.176,102.048Z"/>
        <path class="cls-13" d="M39.066,94.884a13.066,13.066,0,0,1,3.648-9.105A12.15,12.15,0,0,1,60.2,85.651c.068-.047.132-.1.2-.142,9.178-6.191,21.786-10.048,35.7-10.158l8.137-26.583a1.351,1.351,0,0,1,1.6-.94l21.422,5.212a10.512,10.512,0,0,1,2.4-3.98,9.875,9.875,0,0,1,14.3.006A10.469,10.469,0,0,1,145.3,50.8a10.511,10.511,0,0,0-2.314-3.737,9.875,9.875,0,0,0-14.3-.006,10.5,10.5,0,0,0-2.4,3.98L104.87,45.828a1.352,1.352,0,0,0-1.6.94L95.134,73.351c-13.912.11-26.52,3.967-35.7,10.158-.069.046-.133.095-.2.142a12.149,12.149,0,0,0-17.488.128,13.169,13.169,0,0,0-1.81,15.811A13.205,13.205,0,0,1,39.066,94.884Z"/>
      </g>
    </g>
  </g>
</svg>
