<?xml version="1.0" encoding="UTF-8" standalone="no"?>
<svg
   xmlns:dc="http://purl.org/dc/elements/1.1/"
   xmlns:cc="http://creativecommons.org/ns#"
   xmlns:rdf="http://www.w3.org/1999/02/22-rdf-syntax-ns#"
   xmlns:svg="http://www.w3.org/2000/svg"
   xmlns="http://www.w3.org/2000/svg"
   xmlns:sodipodi="http://sodipodi.sourceforge.net/DTD/sodipodi-0.dtd"
   xmlns:inkscape="http://www.inkscape.org/namespaces/inkscape"
   viewBox="0 0 133.33333 133.33333"
   height="133.33333"
   width="133.33333"
   xml:space="preserve"
   id="svg2"
   version="1.1"
   sodipodi:docname="harbour-quasarmx-full.svg"
   inkscape:version="0.92.2 2405546, 2018-03-11"><sodipodi:namedview
     pagecolor="#ffffff"
     bordercolor="#666666"
     borderopacity="1"
     objecttolerance="10"
     gridtolerance="10"
     guidetolerance="10"
     inkscape:pageopacity="0"
     inkscape:pageshadow="2"
     inkscape:window-width="1366"
     inkscape:window-height="706"
     id="namedview83"
     showgrid="false"
     inkscape:zoom="1.7700001"
     inkscape:cx="66.666664"
     inkscape:cy="66.666664"
     inkscape:window-x="0"
     inkscape:window-y="34"
     inkscape:window-maximized="1"
     inkscape:current-layer="svg2" /><metadata
     id="metadata8"><rdf:RDF><cc:Work
         rdf:about=""><dc:format>image/svg+xml</dc:format><dc:type
           rdf:resource="http://purl.org/dc/dcmitype/StillImage" /></cc:Work></rdf:RDF></metadata><defs
     id="defs6"><clipPath
       id="clipPath18"
       clipPathUnits="userSpaceOnUse"><path
         id="path16"
         d="M 50,100 C 12.956,100 0,87.039 0,50 v 0 C 0,12.961 12.956,0 50,0 v 0 c 37.045,0 50,12.961 50,50 v 0 c 0,37.044 -12.955,50 -50,50 z" /></clipPath><linearGradient
       id="linearGradient30"
       spreadMethod="pad"
       gradientTransform="matrix(77.78125,-77.78125,-77.78125,-77.78125,11.109896,88.891144)"
       gradientUnits="userSpaceOnUse"
       y2="0"
       x2="1"
       y1="0"
       x1="0"><stop
         id="stop24"
         offset="0"
         style="stop-opacity:1;stop-color:#aeaef5" /><stop
         id="stop26"
         offset="1"
         style="stop-opacity:1;stop-color:#7d5fb3" /><stop
         id="stop28"
         offset="1"
         style="stop-opacity:1;stop-color:#7d5fb3" /></linearGradient><clipPath
       id="clipPath40"
       clipPathUnits="userSpaceOnUse"><path
         id="path38"
         d="M 34.75,82.25 19.125,70.125 15.625,47.569 22.99,28.692 30.279,21.405 28.008,16.854 44.76,0.104 C 46.455,0.041 48.191,0 50,0 v 0 c 37.045,0 50,12.961 50,50 v 0 c 0,1.809 -0.041,3.545 -0.104,5.24 v 0 l -16.75,16.752 -5.799,-1.02 -6.333,6.333 -16.764,6.82 z" /></clipPath><clipPath
       id="clipPath48"
       clipPathUnits="userSpaceOnUse"><path
         id="path46"
         d="M -32768,32767 H 32767 V -32768 H -32768 Z" /></clipPath><linearGradient
       id="linearGradient56"
       spreadMethod="pad"
       gradientTransform="matrix(64.390617,-64.390617,-64.390617,-64.390617,24.500015,75.500015)"
       gradientUnits="userSpaceOnUse"
       y2="0"
       x2="1"
       y1="0"
       x1="0"><stop
         id="stop50"
         offset="0"
         style="stop-opacity:0.14999619;stop-color:#ffffff" /><stop
         id="stop52"
         offset="0.294017"
         style="stop-opacity:0.14999619;stop-color:#ffffff" /><stop
         id="stop54"
         offset="1"
         style="stop-opacity:0;stop-color:#ffffff" /></linearGradient><mask
       id="mask58"
       height="1"
       width="1"
       y="0"
       x="0"
       maskUnits="userSpaceOnUse"><g
         id="g68"><g
           id="g66"
           clip-path="url(#clipPath48)"><g
             id="g64"><g
               id="g62"><path
                 id="path60"
                 style="fill:url(#linearGradient56);stroke:none"
                 d="M -32768,32767 H 32767 V -32768 H -32768 Z" /></g></g></g></g></mask><linearGradient
       id="linearGradient80"
       spreadMethod="pad"
       gradientTransform="matrix(64.390617,-64.390617,-64.390617,-64.390617,24.500015,75.500015)"
       gradientUnits="userSpaceOnUse"
       y2="0"
       x2="1"
       y1="0"
       x1="0"><stop
         id="stop74"
         offset="0"
         style="stop-opacity:1;stop-color:#000000" /><stop
         id="stop76"
         offset="0.294017"
         style="stop-opacity:1;stop-color:#000000" /><stop
         id="stop78"
         offset="1"
         style="stop-opacity:1;stop-color:#000000" /></linearGradient><clipPath
       id="clipPath90"
       clipPathUnits="userSpaceOnUse"><path
         id="path88"
         d="M 0,100 H 100 V 0 H 0 Z" /></clipPath><clipPath
       id="clipPath110"
       clipPathUnits="userSpaceOnUse"><path
         id="path108"
         d="M 46.066,34.658 76.969,3.755 c 8.593,3.159 14.461,8.457 18.116,16.434 v 0 L 66.066,49.208 Z" /></clipPath><clipPath
       id="clipPath118"
       clipPathUnits="userSpaceOnUse"><path
         id="path116"
         d="M -32768,32767 H 32767 V -32768 H -32768 Z" /></clipPath><linearGradient
       id="linearGradient126"
       spreadMethod="pad"
       gradientTransform="matrix(33.177387,-33.177387,-33.177387,-33.177387,54.702942,43.295471)"
       gradientUnits="userSpaceOnUse"
       y2="0"
       x2="1"
       y1="0"
       x1="0"><stop
         id="stop120"
         offset="0"
         style="stop-opacity:0.11999695;stop-color:#ffffff" /><stop
         id="stop122"
         offset="0.00000007"
         style="stop-opacity:0.11999695;stop-color:#ffffff" /><stop
         id="stop124"
         offset="1"
         style="stop-opacity:0;stop-color:#ffffff" /></linearGradient><mask
       id="mask128"
       height="1"
       width="1"
       y="0"
       x="0"
       maskUnits="userSpaceOnUse"><g
         id="g138"><g
           id="g136"
           clip-path="url(#clipPath118)"><g
             id="g134"><g
               id="g132"><path
                 id="path130"
                 style="fill:url(#linearGradient126);stroke:none"
                 d="M -32768,32767 H 32767 V -32768 H -32768 Z" /></g></g></g></g></mask><linearGradient
       id="linearGradient150"
       spreadMethod="pad"
       gradientTransform="matrix(33.177387,-33.177387,-33.177387,-33.177387,54.702942,43.295471)"
       gradientUnits="userSpaceOnUse"
       y2="0"
       x2="1"
       y1="0"
       x1="0"><stop
         id="stop144"
         offset="0"
         style="stop-opacity:1;stop-color:#000000" /><stop
         id="stop146"
         offset="0.00000007"
         style="stop-opacity:1;stop-color:#000000" /><stop
         id="stop148"
         offset="1"
         style="stop-opacity:1;stop-color:#000000" /></linearGradient><clipPath
       id="clipPath160"
       clipPathUnits="userSpaceOnUse"><path
         id="path158"
         d="M 0,100 H 100 V 0 H 0 Z" /></clipPath></defs><g
     transform="matrix(1.25,0,0,-1.25,4,129.33333)"
     id="g10"><g
       id="g12"><g
         clip-path="url(#clipPath18)"
         id="g14"><g
           id="g20"><g
             id="g22"><path
               id="path32"
               style="fill:url(#linearGradient30);stroke:none"
               d="M 50,100 C 12.956,100 0,87.039 0,50 v 0 C 0,12.961 12.956,0 50,0 v 0 c 37.045,0 50,12.961 50,50 v 0 c 0,37.044 -12.955,50 -50,50 z"
               inkscape:connector-curvature="0" /></g></g></g></g><g
       id="g34"><g
         clip-path="url(#clipPath40)"
         id="g36"><g
           id="g42"><g
             id="g44" /><g
             mask="url(#mask58)"
             id="g70"><g
               id="g72"><path
                 id="path82"
                 style="fill:url(#linearGradient80);stroke:none"
                 d="M 34.75,82.25 19.125,70.125 15.625,47.569 22.99,28.692 30.279,21.405 28.008,16.854 44.76,0.104 C 46.455,0.041 48.191,0 50,0 v 0 c 37.045,0 50,12.961 50,50 v 0 c 0,1.809 -0.041,3.545 -0.104,5.24 v 0 l -16.75,16.752 -5.799,-1.02 -6.333,6.333 -16.764,6.82 z"
                 inkscape:connector-curvature="0" /></g></g></g></g></g><g
       id="g84"><g
         clip-path="url(#clipPath90)"
         id="g86"><g
           transform="translate(84.5869,53.8311)"
           id="g92"><path
             id="path94"
             style="fill:#ffffff;fill-opacity:1;fill-rule:nonzero;stroke:none"
             d="m 0,0 -19.611,19.611 c 0.645,0.469 1.319,0.871 2.021,1.208 -5.27,4.914 -12.328,7.919 -20.079,7.919 -16.26,0 -29.487,-13.227 -29.487,-29.487 0,-7.751 3.005,-14.809 7.919,-20.079 0.337,0.702 0.739,1.376 1.208,2.021 l 19.611,-19.611 c -5.485,-3.978 -13.218,-3.501 -18.161,1.441 -2.733,2.744 -4.109,6.348 -4.118,9.933 0,0.337 0.009,0.684 0.037,1.021 -6.871,6.252 -11.177,15.257 -11.177,25.274 0,18.872 15.296,34.168 34.168,34.168 10.017,0 19.022,-4.306 25.274,-11.177 0.337,0.028 0.684,0.037 1.021,0.037 3.585,-0.009 7.189,-1.385 9.933,-4.118 C 3.501,13.218 3.979,5.486 0,0"
             inkscape:connector-curvature="0" /></g><g
           transform="translate(47.8633,20.7207)"
           id="g96"><path
             id="path98"
             style="fill:#b1b1b1;fill-opacity:1;fill-rule:nonzero;stroke:none"
             d="m 0,0 c 1.065,-1.064 1.065,-2.791 0,-3.856 -0.534,-0.525 -1.104,-1.021 -1.694,-1.452 l -19.612,19.612 c 0.431,0.59 0.927,1.161 1.451,1.694 1.065,1.065 2.792,1.065 3.857,0 z"
             inkscape:connector-curvature="0" /></g><g
           transform="translate(84.5869,53.8311)"
           id="g100"><path
             id="path102"
             style="fill:#b1b1b1;fill-opacity:1;fill-rule:nonzero;stroke:none"
             d="m 0,0 c -0.431,-0.59 -0.927,-1.161 -1.451,-1.694 -1.066,-1.065 -2.792,-1.065 -3.857,0 l -15.998,15.998 c -1.065,1.065 -1.065,2.791 0,3.857 0.534,0.524 1.105,1.02 1.695,1.45 z"
             inkscape:connector-curvature="0" /></g></g></g><g
       id="g104"><g
         clip-path="url(#clipPath110)"
         id="g106"><g
           id="g112"><g
             id="g114" /><g
             mask="url(#mask128)"
             id="g140"><g
               id="g142"><path
                 id="path152"
                 style="fill:url(#linearGradient150);stroke:none"
                 d="M 46.066,34.658 76.969,3.755 c 8.593,3.159 14.461,8.457 18.116,16.434 v 0 L 66.066,49.208 Z"
                 inkscape:connector-curvature="0" /></g></g></g></g></g><g
       id="g154"><g
         clip-path="url(#clipPath160)"
         id="g156"><g
           transform="translate(65.7363,49.4795)"
           id="g162"><path
             id="path164"
             style="fill:#ffffff;fill-opacity:1;fill-rule:nonzero;stroke:none"
             d="m 0,0 -16.705,11.316 c -1.533,1.038 -3.603,-0.06 -3.603,-1.911 v -22.632 c 0,-1.851 2.07,-2.95 3.603,-1.911 L 0,-3.822 C 1.352,-2.906 1.352,-0.916 0,0"
             inkscape:connector-curvature="0" /></g></g></g></g></svg>