<svg xmlns="http://www.w3.org/2000/svg" xmlns:xlink="http://www.w3.org/1999/xlink" width="192" height="192" viewBox="0 0 192 192"><defs><style>.cls-1{fill:none;}.cls-2{opacity:0.01;}.cls-2,.cls-3,.cls-4,.cls-5{isolation:isolate;}.cls-3{opacity:0.02;}.cls-4{opacity:0.04;}.cls-5{opacity:0.06;}.cls-6{fill:#0080ff;}.cls-7{fill:url(#未命名的渐变_13);}.cls-8{fill:url(#未命名的渐变_2);}.cls-9{fill:url(#未命名的渐变_18);}.cls-10{fill:#fafafa;}.cls-11{fill:#fff;}.cls-12{fill:#fba223;}.cls-13{fill:#1f79eb;}.cls-14{fill:#fdfdfe;}.cls-15{fill:url(#未命名的渐变_46);}</style><linearGradient id="未命名的渐变_13" x1="166.004" y1="27.998" x2="25.998" y2="168.004" gradientTransform="matrix(1, 0, 0, -1, 0, 194)" gradientUnits="userSpaceOnUse"><stop offset="0" stop-opacity="0.1"/><stop offset="0.5" stop-color="gray" stop-opacity="0.05"/><stop offset="1" stop-color="#fff" stop-opacity="0.12"/></linearGradient><linearGradient id="未命名的渐变_2" x1="166.012" y1="75.988" x2="25.987" y2="216.012" gradientTransform="matrix(1, 0, 0, -1, 0, 242)" gradientUnits="userSpaceOnUse"><stop offset="0" stop-opacity="0.04"/><stop offset="0.5" stop-color="gray" stop-opacity="0"/><stop offset="1" stop-color="#fff" stop-opacity="0.1"/></linearGradient><linearGradient id="未命名的渐变_18" x1="167.583" y1="164.413" x2="58.772" y2="55.602" gradientUnits="userSpaceOnUse"><stop offset="0" stop-opacity="0.04"/><stop offset="1" stop-opacity="0.12"/></linearGradient><linearGradient id="未命名的渐变_46" x1="62.742" y1="71.533" x2="50.291" y2="59.082" gradientUnits="userSpaceOnUse"><stop offset="0" stop-opacity="0.12"/><stop offset="0.5" stop-opacity="0"/></linearGradient></defs><title>ctrip</title><g id="图层_2" data-name="图层 2"><g id="图层_1-2" data-name="图层 1"><rect class="cls-1" width="192" height="192"/><path class="cls-2" d="M96,190C27.3,190,3,165.7,3,97S27.3,4,96,4s93,24.3,93,93S164.7,190,96,190Z"/><path class="cls-3" d="M96,189C28.1,189,4,164.9,4,97S28.1,5,96,5s92,24.1,92,92S163.9,189,96,189Z"/><path class="cls-4" d="M96,188C28.8,188,5,164.2,5,97S28.8,6,96,6s91,23.8,91,91S163.2,188,96,188Z"/><path class="cls-5" d="M186,97c0,66.7-23.3,90-90,90S6,163.7,6,97,29.3,7,96,7,186,30.3,186,97Z"/><path class="cls-6" d="M186,96c0,66.7-23.3,90-90,90S6,162.7,6,96,29.3,6,96,6,186,29.3,186,96Z"/><path class="cls-7" d="M186,96c0,66.67-23.32,90-90,90S6,162.67,6,96,29.32,6,96,6,186,29.32,186,96Z"/><path class="cls-8" d="M96,6C29.3,6,6,29.3,6,96s23.3,90,90,90,90-23.3,90-90S162.7,6,96,6Zm68.6,158.6C151.2,178,130,184,96,184s-55.2-6-68.6-19.4S8,130,8,96s6-55.2,19.4-68.6S62,8,96,8s55.2,6,68.6,19.4S184,62,184,96,178,151.2,164.6,164.6Z"/><path class="cls-9" d="M112.905,185.419c50.418-3.71,70.551-25.732,72.862-78.505L137.821,58.967l-.695.286L122.887,45.015,75.875,64.375l-22.042-.958-11.18,8.3L63.1,92.167v43.444Z"/><path class="cls-10" d="M49.415,95.507a60.426,60.426,0,0,1,2.8-11.659A45.074,45.074,0,0,1,55.1,77.206c.9-1.652,1.485-3.395.327-5.038a5.515,5.515,0,0,0-5.442-2.275,17.362,17.362,0,0,0-3.926,1.033c-.916.333-1.831.672-2.761.959-1.3.4-1.725.041-1.581-1.321A8.611,8.611,0,0,1,43.3,66.453c3.114-4.407,7.542-6.677,12.659-7.874a27.1,27.1,0,0,1,13.345.3,1.827,1.827,0,0,0,2-.573C78.183,51.612,85.9,46.154,95.006,42.9c6.544-2.341,13.253-3.328,20.121-1.612a18.249,18.249,0,0,1,8.682,4.569,13.4,13.4,0,0,1,4.309,9.475c.021,1.037.477,1.447,1.471,1.451a18.55,18.55,0,0,1,5.424.518c4.394,1.336,5.606,5.871,2.4,9.186a10.962,10.962,0,0,1-5.337,3.07,20.122,20.122,0,0,1-12.97-.846c-.312-.131-.623-.265-.94-.383-.066-.024-.158.021-.24.034.51,1.4.51,1.4,7.279,4.122-1.892.757-3.749,1.325-5.621,1.869a73.008,73.008,0,0,0-10.5,3.69,2.41,2.41,0,0,0-1.52,2.611,20.2,20.2,0,0,1-.761,6.418,12.547,12.547,0,0,1-2.011,4.193c-3.166,4.072-6.811,7.455-12.011,8.7a13.235,13.235,0,0,1-3.917.349c-.424-.026-.9-.044-1.1-.493-.186-.434.241-.678.472-.957.864-1.047,1.794-2.043,2.6-3.131a5.835,5.835,0,0,0,1.152-4.8,2.719,2.719,0,0,0-3.276-2.233,6.751,6.751,0,0,0-2.571,1.063c-10.151,6.621-15.279,16.058-15.186,28.116a29.271,29.271,0,0,0,10.23,22.27c6.509,5.815,14.3,8.381,23.049,8.2-12.291-3.611-20.631-11.151-22.906-24.05a25.741,25.741,0,0,1,3.683-19.17c.662.581.26,1.008.143,1.41a32.165,32.165,0,0,0-1.19,14.833,21.6,21.6,0,0,0,6.595,12.616c.274.249.571.472.857.706.074.5.564.59.88.81,7.5,5.218,15.515,6.089,23.649,1.976,8.046-4.069,11.975-10.953,11.936-20.013-.019-4.4,2.3-7.179,6.737-8,.832.173,1.683-.035,2.524.2,3.387.929,5.2,3.294,5.43,6.874.912,14.012-8,25.593-19.445,30.34a58.035,58.035,0,0,1-26.158,4.609,48.317,48.317,0,0,1-17.216-4.215c-13.246-6.007-22.572-15.747-27.686-29.4a46.587,46.587,0,0,1-2.78-20.2C49.348,96.946,49.374,96.226,49.415,95.507Zm69.044-36.891A4.045,4.045,0,0,0,114.4,54.46a4.144,4.144,0,0,0-4.095,4.146,4.1,4.1,0,0,0,4.086,4.137A3.99,3.99,0,0,0,118.459,58.616Z"/><path class="cls-11" d="M119.128,70.24c-.066-.024-.158.021-.239.034.421,1.159.505,1.364,4.338,2.934.658-.226,1.318-.463,1.982-.729-.834-.335-1.563-.628-2.2-.888a19.46,19.46,0,0,1-2.936-.968C119.756,70.491,119.446,70.357,119.128,70.24Z"/><path class="cls-11" d="M82.147,142.06c6.509,5.814,14.3,8.381,23.049,8.195a44.01,44.01,0,0,1-5.676-2.1,32.291,32.291,0,0,1-25.033-16.349A30.705,30.705,0,0,0,82.147,142.06Z"/><path class="cls-11" d="M92.035,91.22a5.85,5.85,0,0,1-1.195,4.507c-.807,1.088-1.737,2.084-2.6,3.131-.231.279-.658.523-.472.957.192.449.672.467,1.1.493.24.015.478.016.717.017.752-.885,1.528-1.751,2.218-2.681a5.837,5.837,0,0,0,1.152-4.8A2.883,2.883,0,0,0,92.035,91.22Z"/><path class="cls-11" d="M118.459,58.616a3.99,3.99,0,0,1-4.064,4.127,4.063,4.063,0,0,1-3.048-1.4,4.086,4.086,0,0,0,4.006,3.312,3.99,3.99,0,0,0,4.064-4.127,4.2,4.2,0,0,0-1.05-2.809A4.489,4.489,0,0,1,118.459,58.616Z"/><path class="cls-11" d="M84.285,110.025q.363-1.754.873-3.5c.117-.4.519-.829-.143-1.41a25.741,25.741,0,0,0-3.683,19.17,30.814,30.814,0,0,0,3.305,9.588,31.876,31.876,0,0,1-2.347-7.672A26.155,26.155,0,0,1,84.285,110.025Z"/><path class="cls-11" d="M53.03,119.78a46.565,46.565,0,0,1-2.78-20.2c.056-.718.083-1.438.123-2.157a60.5,60.5,0,0,1,2.8-11.659,45.238,45.238,0,0,1,2.888-6.643c.9-1.651,1.486-3.394.327-5.037-.115-.163-.242-.308-.367-.454a5.819,5.819,0,0,1-.918,3.575,45.074,45.074,0,0,0-2.888,6.642,60.426,60.426,0,0,0-2.8,11.659c-.041.719-.067,1.439-.124,2.157a46.587,46.587,0,0,0,2.78,20.2,56.223,56.223,0,0,0,2.832,6.325C54.229,122.765,53.6,121.3,53.03,119.78Z"/><path class="cls-11" d="M44.254,68.37c3.114-4.407,7.543-6.677,12.659-7.874a27.088,27.088,0,0,1,13.345.3,1.829,1.829,0,0,0,2-.573c6.887-6.694,14.6-12.153,23.711-15.411,6.543-2.341,13.253-3.328,20.121-1.613a18.248,18.248,0,0,1,8.681,4.57,16.109,16.109,0,0,1,2.417,3.025,14.83,14.83,0,0,0-3.375-4.942,18.249,18.249,0,0,0-8.682-4.569c-6.868-1.716-13.577-.729-20.121,1.612C85.9,46.154,78.183,51.612,71.3,58.306a1.827,1.827,0,0,1-2,.573,27.1,27.1,0,0,0-13.345-.3c-5.117,1.2-9.545,3.467-12.659,7.874a8.611,8.611,0,0,0-1.576,4.111c-.122,1.147.172,1.575,1.04,1.445A8.649,8.649,0,0,1,44.254,68.37Z"/><path class="cls-11" d="M129.077,57.244c.02,1.036.476,1.447,1.471,1.451a18.546,18.546,0,0,1,5.423.517,6.258,6.258,0,0,1,3.106,2.007,5.63,5.63,0,0,0-4.064-3.923,18.55,18.55,0,0,0-5.424-.518,2.377,2.377,0,0,1-.55-.063C129.05,56.892,129.073,57.064,129.077,57.244Z"/><path class="cls-11" d="M134.622,109.461c-4.441.817-6.756,3.594-6.737,8,.039,9.06-3.89,15.944-11.936,20.013-8.134,4.113-16.151,3.242-23.649-1.976-.316-.22-.806-.306-.88-.81-.286-.234-.584-.457-.857-.706a19.766,19.766,0,0,1-3.919-4.952,19.982,19.982,0,0,0,4.878,6.869c.273.249.57.471.857.706.073.5.564.59.88.81,7.5,5.218,15.514,6.089,23.648,1.975,8.046-4.069,11.975-10.952,11.936-20.013-.019-4.4,2.3-7.179,6.737-8,.832.173,1.683-.035,2.524.2a7.083,7.083,0,0,1,4.045,2.668,6.768,6.768,0,0,0-5-4.585C136.305,109.426,135.454,109.634,134.622,109.461Z"/><path class="cls-12" d="M134.622,109.461c-4.441.817-6.756,3.594-6.737,8,.039,9.06-3.89,15.944-11.936,20.013-8.134,4.113-16.151,3.242-23.649-1.976-.316-.22-.806-.306-.88-.81a3.3,3.3,0,0,1,1.1.242,20.05,20.05,0,0,0,27.125-13.991,23.713,23.713,0,0,0,.085-10.466c-.871-4.222,1.047-7.764,4.843-9.037,4.332-1.453,8.483,1.01,9.574,5.69C134.328,107.9,134.465,108.681,134.622,109.461Z"/><path class="cls-13" d="M118.459,58.616a3.99,3.99,0,0,1-4.064,4.127,4.1,4.1,0,0,1-4.086-4.137A4.144,4.144,0,0,1,114.4,54.46,4.045,4.045,0,0,1,118.459,58.616Zm-2.345-1.171a1.083,1.083,0,0,0-1.161-1.091,1.119,1.119,0,0,0,.072,2.237A1.064,1.064,0,0,0,116.114,57.445Z"/><path class="cls-14" d="M116.114,57.445a1.064,1.064,0,0,1-1.089,1.146,1.119,1.119,0,0,1-.072-2.237A1.083,1.083,0,0,1,116.114,57.445Z"/><path class="cls-15" d="M70.938,58.6a1.726,1.726,0,0,1-1.638.277,27.1,27.1,0,0,0-13.345-.3c-5.117,1.2-9.545,3.467-12.659,7.874a8.611,8.611,0,0,0-1.576,4.111c-.144,1.362.286,1.72,1.581,1.321.93-.287,1.845-.626,2.761-.959a17.362,17.362,0,0,1,3.926-1.033,5.515,5.515,0,0,1,5.442,2.275c1.158,1.643.573,3.386-.327,5.038a39.686,39.686,0,0,0-1.77,3.736A135.083,135.083,0,0,1,62,68,103.734,103.734,0,0,1,70.938,58.6Z"/></g></g></svg>