<?xml version="1.0" encoding="UTF-8" standalone="no"?>
<svg
   xmlns:dc="http://purl.org/dc/elements/1.1/"
   xmlns:cc="http://creativecommons.org/ns#"
   xmlns:rdf="http://www.w3.org/1999/02/22-rdf-syntax-ns#"
   xmlns:svg="http://www.w3.org/2000/svg"
   xmlns="http://www.w3.org/2000/svg"
   xmlns:sodipodi="http://sodipodi.sourceforge.net/DTD/sodipodi-0.dtd"
   xmlns:inkscape="http://www.inkscape.org/namespaces/inkscape"
   viewBox="0 0 133.33333 133.33333"
   height="133.33333"
   width="133.33333"
   xml:space="preserve"
   id="svg2"
   version="1.1"
   sodipodi:docname="harbour-received.svg"
   inkscape:version="0.92.2 2405546, 2018-03-11"><sodipodi:namedview
     pagecolor="#ffffff"
     bordercolor="#666666"
     borderopacity="1"
     objecttolerance="10"
     gridtolerance="10"
     guidetolerance="10"
     inkscape:pageopacity="0"
     inkscape:pageshadow="2"
     inkscape:window-width="1366"
     inkscape:window-height="706"
     id="namedview87"
     showgrid="false"
     inkscape:zoom="1.7700001"
     inkscape:cx="66.666664"
     inkscape:cy="66.666664"
     inkscape:window-x="0"
     inkscape:window-y="34"
     inkscape:window-maximized="1"
     inkscape:current-layer="svg2" /><metadata
     id="metadata8"><rdf:RDF><cc:Work
         rdf:about=""><dc:format>image/svg+xml</dc:format><dc:type
           rdf:resource="http://purl.org/dc/dcmitype/StillImage" /></cc:Work></rdf:RDF></metadata><defs
     id="defs6"><clipPath
       id="clipPath18"
       clipPathUnits="userSpaceOnUse"><path
         id="path16"
         d="M 50,100 C 12.956,100 0,87.039 0,50 v 0 C 0,12.961 12.956,0 50,0 v 0 c 37.045,0 50,12.961 50,50 v 0 c 0,37.044 -12.955,50 -50,50 z" /></clipPath><linearGradient
       id="linearGradient30"
       spreadMethod="pad"
       gradientTransform="matrix(77.78125,-77.78125,-77.78125,-77.78125,11.109896,88.891144)"
       gradientUnits="userSpaceOnUse"
       y2="0"
       x2="1"
       y1="0"
       x1="0"><stop
         id="stop24"
         offset="0"
         style="stop-opacity:1;stop-color:#89f571" /><stop
         id="stop26"
         offset="0.0000006"
         style="stop-opacity:1;stop-color:#89f571" /><stop
         id="stop28"
         offset="1"
         style="stop-opacity:1;stop-color:#74c93c" /></linearGradient><clipPath
       id="clipPath40"
       clipPathUnits="userSpaceOnUse"><path
         id="path38"
         d="M 87.5,50 C 87.5,22.22 77.781,12.5 50,12.5 v 0 c -13.24,0 -22.38,2.21 -28.32,7.53 v 0 L 41.431,0.269 C 44.141,0.1 46.98,0 50,0 v 0 c 37.04,0 50,12.96 50,50 v 0 c 0,2.96 -0.09,5.75 -0.26,8.41 v 0 L 80.77,77.38 C 85.51,71.419 87.5,62.56 87.5,50" /></clipPath><clipPath
       id="clipPath48"
       clipPathUnits="userSpaceOnUse"><path
         id="path46"
         d="M -32768,32767 H 32767 V -32768 H -32768 Z" /></clipPath><linearGradient
       id="linearGradient56"
       spreadMethod="pad"
       gradientTransform="matrix(38.06501,-38.06501,-38.06501,-38.06501,50.787491,49.137527)"
       gradientUnits="userSpaceOnUse"
       y2="0"
       x2="1"
       y1="0"
       x1="0"><stop
         id="stop50"
         offset="0"
         style="stop-opacity:0.11999695;stop-color:#ffffff" /><stop
         id="stop52"
         offset="0.00000027"
         style="stop-opacity:0.11999695;stop-color:#ffffff" /><stop
         id="stop54"
         offset="1"
         style="stop-opacity:0;stop-color:#ffffff" /></linearGradient><mask
       id="mask58"
       height="1"
       width="1"
       y="0"
       x="0"
       maskUnits="userSpaceOnUse"><g
         id="g68"><g
           id="g66"
           clip-path="url(#clipPath48)"><g
             id="g64"><g
               id="g62"><path
                 id="path60"
                 style="fill:url(#linearGradient56);stroke:none"
                 d="M -32768,32767 H 32767 V -32768 H -32768 Z" /></g></g></g></g></mask><linearGradient
       id="linearGradient80"
       spreadMethod="pad"
       gradientTransform="matrix(38.06501,-38.06501,-38.06501,-38.06501,50.787491,49.137527)"
       gradientUnits="userSpaceOnUse"
       y2="0"
       x2="1"
       y1="0"
       x1="0"><stop
         id="stop74"
         offset="0"
         style="stop-opacity:1;stop-color:#000000" /><stop
         id="stop76"
         offset="0.00000027"
         style="stop-opacity:1;stop-color:#000000" /><stop
         id="stop78"
         offset="1"
         style="stop-opacity:1;stop-color:#000000" /></linearGradient><clipPath
       id="clipPath90"
       clipPathUnits="userSpaceOnUse"><path
         id="path88"
         d="M 0,100 H 100 V 0 H 0 Z" /></clipPath><clipPath
       id="clipPath98"
       clipPathUnits="userSpaceOnUse"><path
         id="path96"
         d="m 12.5,87.5 h 75 v -75 h -75 z" /></clipPath><clipPath
       id="clipPath114"
       clipPathUnits="userSpaceOnUse"><path
         id="path112"
         d="M 35.75,68.687 35.125,40.438 31.919,24.877 44.125,12.671 C 45.99,12.56 47.939,12.5 50,12.5 v 0 c 27.783,0 37.5,9.721 37.5,37.5 v 0 c 0,0.238 -0.007,0.465 -0.007,0.701 v 0 l -22.13,22.13 -5.238,0.606 -19.062,1.188 z" /></clipPath><clipPath
       id="clipPath122"
       clipPathUnits="userSpaceOnUse"><path
         id="path120"
         d="M -32768,32767 H 32767 V -32768 H -32768 Z" /></clipPath><linearGradient
       id="linearGradient130"
       spreadMethod="pad"
       gradientTransform="matrix(45.949219,-45.949219,-45.949219,-45.949219,31.965836,65.528336)"
       gradientUnits="userSpaceOnUse"
       y2="0"
       x2="1"
       y1="0"
       x1="0"><stop
         id="stop124"
         offset="0"
         style="stop-opacity:0.14999619;stop-color:#ffffff" /><stop
         id="stop126"
         offset="0.00000038"
         style="stop-opacity:0.14999619;stop-color:#ffffff" /><stop
         id="stop128"
         offset="1"
         style="stop-opacity:0;stop-color:#ffffff" /></linearGradient><mask
       id="mask132"
       height="1"
       width="1"
       y="0"
       x="0"
       maskUnits="userSpaceOnUse"><g
         id="g142"><g
           id="g140"
           clip-path="url(#clipPath122)"><g
             id="g138"><g
               id="g136"><path
                 id="path134"
                 style="fill:url(#linearGradient130);stroke:none"
                 d="M -32768,32767 H 32767 V -32768 H -32768 Z" /></g></g></g></g></mask><linearGradient
       id="linearGradient154"
       spreadMethod="pad"
       gradientTransform="matrix(45.949219,-45.949219,-45.949219,-45.949219,31.965836,65.528336)"
       gradientUnits="userSpaceOnUse"
       y2="0"
       x2="1"
       y1="0"
       x1="0"><stop
         id="stop148"
         offset="0"
         style="stop-opacity:1;stop-color:#000000" /><stop
         id="stop150"
         offset="0.00000038"
         style="stop-opacity:1;stop-color:#000000" /><stop
         id="stop152"
         offset="1"
         style="stop-opacity:1;stop-color:#000000" /></linearGradient><clipPath
       id="clipPath164"
       clipPathUnits="userSpaceOnUse"><path
         id="path162"
         d="M 0,100 H 100 V 0 H 0 Z" /></clipPath></defs><g
     transform="matrix(1.25,0,0,-1.25,4,129.33333)"
     id="g10"><g
       id="g12"><g
         clip-path="url(#clipPath18)"
         id="g14"><g
           id="g20"><g
             id="g22"><path
               id="path32"
               style="fill:url(#linearGradient30);stroke:none"
               d="M 50,100 C 12.956,100 0,87.039 0,50 v 0 C 0,12.961 12.956,0 50,0 v 0 c 37.045,0 50,12.961 50,50 v 0 c 0,37.044 -12.955,50 -50,50 z"
               inkscape:connector-curvature="0" /></g></g></g></g><g
       id="g34"><g
         clip-path="url(#clipPath40)"
         id="g36"><g
           id="g42"><g
             id="g44" /><g
             mask="url(#mask58)"
             id="g70"><g
               id="g72"><path
                 id="path82"
                 style="fill:url(#linearGradient80);stroke:none"
                 d="M 87.5,50 C 87.5,22.22 77.781,12.5 50,12.5 v 0 c -13.24,0 -22.38,2.21 -28.32,7.53 v 0 L 41.431,0.269 C 44.141,0.1 46.98,0 50,0 v 0 c 37.04,0 50,12.96 50,50 v 0 c 0,2.96 -0.09,5.75 -0.26,8.41 v 0 L 80.77,77.38 C 85.51,71.419 87.5,62.56 87.5,50"
                 inkscape:connector-curvature="0" /></g></g></g></g></g><g
       id="g84"><g
         clip-path="url(#clipPath90)"
         id="g86"><g
           id="g92"><g
             id="g94" /><g
             id="g106"><g
               style="opacity:0.39999402"
               id="g104"
               clip-path="url(#clipPath98)"><g
                 id="g102"
                 transform="translate(87.5,50)"><path
                   id="path100"
                   style="fill:#000000;fill-opacity:1;fill-rule:nonzero;stroke:none"
                   d="m 0,0 c 0,-27.78 -9.72,-37.5 -37.5,-37.5 -13.24,0 -22.38,2.21 -28.32,7.53 -6.52,5.84 -9.18,15.43 -9.18,29.97 0,27.78 9.72,37.5 37.5,37.5 15.22,0 25.02,-2.92 30.77,-10.12 C -1.99,21.42 0,12.56 0,0"
                   inkscape:connector-curvature="0" /></g></g></g></g></g></g><g
       id="g108"><g
         clip-path="url(#clipPath114)"
         id="g110"><g
           id="g116"><g
             id="g118" /><g
             mask="url(#mask132)"
             id="g144"><g
               id="g146"><path
                 id="path156"
                 style="fill:url(#linearGradient154);stroke:none"
                 d="M 35.75,68.687 35.125,40.438 31.919,24.877 44.125,12.671 C 45.99,12.56 47.939,12.5 50,12.5 v 0 c 27.783,0 37.5,9.721 37.5,37.5 v 0 c 0,0.238 -0.007,0.465 -0.007,0.701 v 0 l -22.13,22.13 -5.238,0.606 -19.062,1.188 z"
                 inkscape:connector-curvature="0" /></g></g></g></g></g><g
       id="g158"><g
         clip-path="url(#clipPath164)"
         id="g160"><g
           transform="translate(65.5996,31.5703)"
           id="g166"><path
             id="path168"
             style="fill:#26ff41;fill-opacity:1;fill-rule:nonzero;stroke:none"
             d="M 0,0 -4.649,8.06 H -4.66 L -5.689,9.85 -7.92,13.71 C -8.1,13.689 -8.279,13.68 -8.47,13.68 h -12.94 c -0.908,0 -1.779,0.164 -2.584,0.464 -1.381,0.514 -2.856,-0.459 -2.856,-1.934 0,-0.847 0.504,-1.63 1.293,-1.934 1.286,-0.496 2.684,-0.766 4.147,-0.766 h 11.1 L -3.68,-1.971 C -4.4,-3.255 -4.462,-5.046 -3.177,-6.545 -2.465,-7.377 -1.395,-7.82 -0.3,-7.82 h 0.03 c 1.541,0 2.88,0.889 3.52,2.189 0.261,0.521 0.4,1.101 0.4,1.721 C 3.65,-1.83 2.04,-0.141 0,0"
             inkscape:connector-curvature="0" /></g><g
           transform="translate(36.75,30.9697)"
           id="g170"><path
             id="path172"
             style="fill:#26ff41;fill-opacity:1;fill-rule:nonzero;stroke:none"
             d="m 0,0 v 33.66 c 0,4.12 3.33,7.45 7.44,7.45 h 12.94 c 4.114,0 7.45,-3.335 7.45,-7.45 V 21.72 c 0,-2.506 -1.247,-4.729 -3.154,-6.075 -0.877,-0.62 -1.19,-1.769 -0.651,-2.698 l 0.073,-0.126 C 24.683,11.813 26.009,11.5 26.969,12.16 30.008,14.252 32,17.758 32,21.72 v 11.94 c 0,6.418 -5.202,11.62 -11.62,11.62 H 7.44 c -6.41,0 -11.61,-5.2 -11.61,-11.62 L -4.17,0 c -1.248,-0.783 -2.02,-2.248 -1.789,-3.886 0.242,-1.717 1.674,-3.106 3.396,-3.306 C -0.18,-7.469 1.83,-5.625 1.83,-3.31 1.83,-1.91 1.1,-0.7 0,0"
             inkscape:connector-curvature="0" /></g></g></g></g></svg>