<?xml version="1.0" encoding="UTF-8" standalone="no"?>
<svg
   xmlns:dc="http://purl.org/dc/elements/1.1/"
   xmlns:cc="http://creativecommons.org/ns#"
   xmlns:rdf="http://www.w3.org/1999/02/22-rdf-syntax-ns#"
   xmlns:svg="http://www.w3.org/2000/svg"
   xmlns="http://www.w3.org/2000/svg"
   xmlns:sodipodi="http://sodipodi.sourceforge.net/DTD/sodipodi-0.dtd"
   xmlns:inkscape="http://www.inkscape.org/namespaces/inkscape"
   viewBox="0 0 133.33333 133.33333"
   height="133.33333"
   width="133.33333"
   xml:space="preserve"
   id="svg2"
   version="1.1"
   sodipodi:docname="harbour-tooter.svg"
   inkscape:version="0.92.2 2405546, 2018-03-11"><sodipodi:namedview
     pagecolor="#ffffff"
     bordercolor="#666666"
     borderopacity="1"
     objecttolerance="10"
     gridtolerance="10"
     guidetolerance="10"
     inkscape:pageopacity="0"
     inkscape:pageshadow="2"
     inkscape:window-width="1366"
     inkscape:window-height="706"
     id="namedview281"
     showgrid="false"
     inkscape:zoom="1.7700001"
     inkscape:cx="66.666664"
     inkscape:cy="66.666664"
     inkscape:window-x="0"
     inkscape:window-y="34"
     inkscape:window-maximized="1"
     inkscape:current-layer="svg2" /><metadata
     id="metadata8"><rdf:RDF><cc:Work
         rdf:about=""><dc:format>image/svg+xml</dc:format><dc:type
           rdf:resource="http://purl.org/dc/dcmitype/StillImage" /></cc:Work></rdf:RDF></metadata><defs
     id="defs6"><clipPath
       id="clipPath18"
       clipPathUnits="userSpaceOnUse"><path
         id="path16"
         d="M 50,100 C 12.956,100 0,87.039 0,50 v 0 C 0,12.961 12.956,0 50,0 v 0 c 37.045,0 50,12.961 50,50 v 0 c 0,37.044 -12.955,50 -50,50 z" /></clipPath><linearGradient
       id="linearGradient30"
       spreadMethod="pad"
       gradientTransform="matrix(77.78125,-77.78125,-77.78125,-77.78125,11.109896,88.891144)"
       gradientUnits="userSpaceOnUse"
       y2="0"
       x2="1"
       y1="0"
       x1="0"><stop
         id="stop24"
         offset="0"
         style="stop-opacity:1;stop-color:#e69275" /><stop
         id="stop26"
         offset="1"
         style="stop-opacity:1;stop-color:#cf5140" /><stop
         id="stop28"
         offset="1"
         style="stop-opacity:1;stop-color:#cf5140" /></linearGradient><clipPath
       id="clipPath40"
       clipPathUnits="userSpaceOnUse"><path
         id="path38"
         d="M 50,100 C 12.956,100 0,87.039 0,50 v 0 C 0,12.961 12.956,0 50,0 v 0 c 37.045,0 50,12.961 50,50 v 0 c 0,37.044 -12.955,50 -50,50 z" /></clipPath><linearGradient
       id="linearGradient52"
       spreadMethod="pad"
       gradientTransform="matrix(77.78125,-77.78125,-77.78125,-77.78125,11.109896,88.891144)"
       gradientUnits="userSpaceOnUse"
       y2="0"
       x2="1"
       y1="0"
       x1="0"><stop
         id="stop46"
         offset="0"
         style="stop-opacity:1;stop-color:#ff9999" /><stop
         id="stop48"
         offset="1"
         style="stop-opacity:1;stop-color:#f06161" /><stop
         id="stop50"
         offset="1"
         style="stop-opacity:1;stop-color:#f06161" /></linearGradient><clipPath
       id="clipPath62"
       clipPathUnits="userSpaceOnUse"><path
         id="path60"
         d="M 0,100 H 100 V 0 H 0 Z" /></clipPath><clipPath
       id="clipPath70"
       clipPathUnits="userSpaceOnUse"><path
         id="path68"
         d="m 83.34,8.66003 h 2.75 v -1.88 h -2.75 z" /></clipPath><clipPath
       id="clipPath86"
       clipPathUnits="userSpaceOnUse"><path
         id="path84"
         d="M 0.299988,93.29 H 87.37 V 0 H 0.299988 Z" /></clipPath><clipPath
       id="clipPath102"
       clipPathUnits="userSpaceOnUse"><path
         id="path100"
         d="m 76.984,23.94 9.344,-9.342 1.042,0.992 v 13.62 h -2.09 l 2.09,1.98 v 9.397 L 75.386,52.57 Z" /></clipPath><clipPath
       id="clipPath110"
       clipPathUnits="userSpaceOnUse"><path
         id="path108"
         d="M -32768,32767 H 32767 V -32768 H -32768 Z" /></clipPath><linearGradient
       id="linearGradient118"
       spreadMethod="pad"
       gradientTransform="matrix(24.482178,-24.482178,-24.482178,-24.482178,68.628281,45.812668)"
       gradientUnits="userSpaceOnUse"
       y2="0"
       x2="1"
       y1="0"
       x1="0"><stop
         id="stop112"
         offset="0"
         style="stop-opacity:0.07998779;stop-color:#ffffff" /><stop
         id="stop114"
         offset="1"
         style="stop-opacity:0;stop-color:#ffffff" /><stop
         id="stop116"
         offset="1"
         style="stop-opacity:0;stop-color:#ffffff" /></linearGradient><mask
       id="mask120"
       height="1"
       width="1"
       y="0"
       x="0"
       maskUnits="userSpaceOnUse"><g
         id="g130"><g
           id="g128"
           clip-path="url(#clipPath110)"><g
             id="g126"><g
               id="g124"><path
                 id="path122"
                 style="fill:url(#linearGradient118);stroke:none"
                 d="M -32768,32767 H 32767 V -32768 H -32768 Z" /></g></g></g></g></mask><linearGradient
       id="linearGradient142"
       spreadMethod="pad"
       gradientTransform="matrix(24.482178,-24.482178,-24.482178,-24.482178,68.628281,45.812668)"
       gradientUnits="userSpaceOnUse"
       y2="0"
       x2="1"
       y1="0"
       x1="0"><stop
         id="stop136"
         offset="0"
         style="stop-opacity:1;stop-color:#000000" /><stop
         id="stop138"
         offset="1"
         style="stop-opacity:1;stop-color:#000000" /><stop
         id="stop140"
         offset="1"
         style="stop-opacity:1;stop-color:#000000" /></linearGradient><clipPath
       id="clipPath152"
       clipPathUnits="userSpaceOnUse"><path
         id="path150"
         d="M 87.325,13.6 87.37,13.556 V 13.6 Z" /></clipPath><clipPath
       id="clipPath160"
       clipPathUnits="userSpaceOnUse"><path
         id="path158"
         d="M -32768,32767 H 32767 V -32768 H -32768 Z" /></clipPath><linearGradient
       id="linearGradient168"
       spreadMethod="pad"
       gradientTransform="matrix(0.0447388,-0.0447388,-0.0447388,-0.0447388,87.336441,13.611221)"
       gradientUnits="userSpaceOnUse"
       y2="0"
       x2="1"
       y1="0"
       x1="0"><stop
         id="stop162"
         offset="0"
         style="stop-opacity:0.07998779;stop-color:#ffffff" /><stop
         id="stop164"
         offset="1"
         style="stop-opacity:0;stop-color:#ffffff" /><stop
         id="stop166"
         offset="1"
         style="stop-opacity:0;stop-color:#ffffff" /></linearGradient><mask
       id="mask170"
       height="1"
       width="1"
       y="0"
       x="0"
       maskUnits="userSpaceOnUse"><g
         id="g180"><g
           id="g178"
           clip-path="url(#clipPath160)"><g
             id="g176"><g
               id="g174"><path
                 id="path172"
                 style="fill:url(#linearGradient168);stroke:none"
                 d="M -32768,32767 H 32767 V -32768 H -32768 Z" /></g></g></g></g></mask><linearGradient
       id="linearGradient192"
       spreadMethod="pad"
       gradientTransform="matrix(0.0447388,-0.0447388,-0.0447388,-0.0447388,87.336441,13.611221)"
       gradientUnits="userSpaceOnUse"
       y2="0"
       x2="1"
       y1="0"
       x1="0"><stop
         id="stop186"
         offset="0"
         style="stop-opacity:1;stop-color:#000000" /><stop
         id="stop188"
         offset="1"
         style="stop-opacity:1;stop-color:#000000" /><stop
         id="stop190"
         offset="1"
         style="stop-opacity:1;stop-color:#000000" /></linearGradient><clipPath
       id="clipPath202"
       clipPathUnits="userSpaceOnUse"><path
         id="path200"
         d="M 0,100 H 100 V 0 H 0 Z" /></clipPath><clipPath
       id="clipPath218"
       clipPathUnits="userSpaceOnUse"><path
         id="path216"
         d="m 18.9,43.639 c 0.39,-0.238 0.79,-0.479 1.19,-0.689 v 0 l -9.19,9.19 c 1.88,-3.48 4.65,-6.42 8,-8.501" /></clipPath><clipPath
       id="clipPath226"
       clipPathUnits="userSpaceOnUse"><path
         id="path224"
         d="M -32768,32767 H 32767 V -32768 H -32768 Z" /></clipPath><linearGradient
       id="linearGradient234"
       spreadMethod="pad"
       gradientTransform="matrix(9.1900024,-9.1900024,-9.1900024,-9.1900024,10.564796,51.804787)"
       gradientUnits="userSpaceOnUse"
       y2="0"
       x2="1"
       y1="0"
       x1="0"><stop
         id="stop228"
         offset="0"
         style="stop-opacity:0.07998779;stop-color:#ffffff" /><stop
         id="stop230"
         offset="1"
         style="stop-opacity:0;stop-color:#ffffff" /><stop
         id="stop232"
         offset="1"
         style="stop-opacity:0;stop-color:#ffffff" /></linearGradient><mask
       id="mask236"
       height="1"
       width="1"
       y="0"
       x="0"
       maskUnits="userSpaceOnUse"><g
         id="g246"><g
           id="g244"
           clip-path="url(#clipPath226)"><g
             id="g242"><g
               id="g240"><path
                 id="path238"
                 style="fill:url(#linearGradient234);stroke:none"
                 d="M -32768,32767 H 32767 V -32768 H -32768 Z" /></g></g></g></g></mask><linearGradient
       id="linearGradient258"
       spreadMethod="pad"
       gradientTransform="matrix(9.1900024,-9.1900024,-9.1900024,-9.1900024,10.564796,51.804787)"
       gradientUnits="userSpaceOnUse"
       y2="0"
       x2="1"
       y1="0"
       x1="0"><stop
         id="stop252"
         offset="0"
         style="stop-opacity:1;stop-color:#000000" /><stop
         id="stop254"
         offset="1"
         style="stop-opacity:1;stop-color:#000000" /><stop
         id="stop256"
         offset="1"
         style="stop-opacity:1;stop-color:#000000" /></linearGradient><clipPath
       id="clipPath268"
       clipPathUnits="userSpaceOnUse"><path
         id="path266"
         d="M 17.307,47.753 17.2,47.86 c 0.036,-0.036 0.071,-0.071 0.107,-0.107 M 23.64,41.42 C 24.3,41.19 24.97,41 25.66,40.849 v 0 C 27.11,40.5 28.62,40.3 30.17,40.27 v 0 c 0.22,-0.01 0.43,-0.02 0.64,-0.02 v 0 c 0.21,0 0.42,0.01 0.641,0.02 v 0 C 34,40.4 36.35,41.3 38.26,42.75 v 0 C 36.15,42.43 33.99,42.241 31.8,42.21 v 0 c -0.331,-0.02 -0.66,-0.02 -0.99,-0.02 v 0 c -0.33,0 -0.66,0 -0.99,0.02 v 0 c -2,0.111 -3.93,0.52 -5.72,1.201 v 0 C 23.13,43.76 22.2,44.2 21.31,44.71 v 0 c -1.466,0.836 -2.809,1.858 -4.003,3.043 v 0 z" /></clipPath><clipPath
       id="clipPath276"
       clipPathUnits="userSpaceOnUse"><path
         id="path274"
         d="M -32768,32767 H 32767 V -32768 H -32768 Z" /></clipPath><linearGradient
       id="linearGradient284"
       spreadMethod="pad"
       gradientTransform="matrix(13.084991,-13.084991,-13.084991,-13.084991,21.187458,51.847431)"
       gradientUnits="userSpaceOnUse"
       y2="0"
       x2="1"
       y1="0"
       x1="0"><stop
         id="stop278"
         offset="0"
         style="stop-opacity:0.07998779;stop-color:#ffffff" /><stop
         id="stop280"
         offset="1"
         style="stop-opacity:0;stop-color:#ffffff" /><stop
         id="stop282"
         offset="1"
         style="stop-opacity:0;stop-color:#ffffff" /></linearGradient><mask
       id="mask286"
       height="1"
       width="1"
       y="0"
       x="0"
       maskUnits="userSpaceOnUse"><g
         id="g296"><g
           id="g294"
           clip-path="url(#clipPath276)"><g
             id="g292"><g
               id="g290"><path
                 id="path288"
                 style="fill:url(#linearGradient284);stroke:none"
                 d="M -32768,32767 H 32767 V -32768 H -32768 Z" /></g></g></g></g></mask><linearGradient
       id="linearGradient308"
       spreadMethod="pad"
       gradientTransform="matrix(13.084991,-13.084991,-13.084991,-13.084991,21.187458,51.847431)"
       gradientUnits="userSpaceOnUse"
       y2="0"
       x2="1"
       y1="0"
       x1="0"><stop
         id="stop302"
         offset="0"
         style="stop-opacity:1;stop-color:#000000" /><stop
         id="stop304"
         offset="1"
         style="stop-opacity:1;stop-color:#000000" /><stop
         id="stop306"
         offset="1"
         style="stop-opacity:1;stop-color:#000000" /></linearGradient><clipPath
       id="clipPath318"
       clipPathUnits="userSpaceOnUse"><path
         id="path316"
         d="m 61.47,0.5 c 1.33,0.12 2.62,0.27 3.86,0.45 v 0 C 64.09,0.78 62.8,0.63 61.47,0.5" /></clipPath><clipPath
       id="clipPath326"
       clipPathUnits="userSpaceOnUse"><path
         id="path324"
         d="M -32768,32767 H 32767 V -32768 H -32768 Z" /></clipPath><linearGradient
       id="linearGradient334"
       spreadMethod="pad"
       gradientTransform="matrix(1.705017,-1.705017,-1.705017,-1.705017,62.547485,1.5775146)"
       gradientUnits="userSpaceOnUse"
       y2="0"
       x2="1"
       y1="0"
       x1="0"><stop
         id="stop328"
         offset="0"
         style="stop-opacity:0.07998779;stop-color:#ffffff" /><stop
         id="stop330"
         offset="1"
         style="stop-opacity:0;stop-color:#ffffff" /><stop
         id="stop332"
         offset="1"
         style="stop-opacity:0;stop-color:#ffffff" /></linearGradient><mask
       id="mask336"
       height="1"
       width="1"
       y="0"
       x="0"
       maskUnits="userSpaceOnUse"><g
         id="g346"><g
           id="g344"
           clip-path="url(#clipPath326)"><g
             id="g342"><g
               id="g340"><path
                 id="path338"
                 style="fill:url(#linearGradient334);stroke:none"
                 d="M -32768,32767 H 32767 V -32768 H -32768 Z" /></g></g></g></g></mask><linearGradient
       id="linearGradient358"
       spreadMethod="pad"
       gradientTransform="matrix(1.705017,-1.705017,-1.705017,-1.705017,62.547485,1.5775146)"
       gradientUnits="userSpaceOnUse"
       y2="0"
       x2="1"
       y1="0"
       x1="0"><stop
         id="stop352"
         offset="0"
         style="stop-opacity:1;stop-color:#000000" /><stop
         id="stop354"
         offset="1"
         style="stop-opacity:1;stop-color:#000000" /><stop
         id="stop356"
         offset="1"
         style="stop-opacity:1;stop-color:#000000" /></linearGradient><clipPath
       id="clipPath368"
       clipPathUnits="userSpaceOnUse"><path
         id="path366"
         d="M 53.63,89.29 C 52.96,88.91 52.321,88.5 51.67,88.1 v 0 c 0.69,-0.02 1.38,-0.05 2.07,-0.12 v 0 c 0.49,0.12 0.98,0.25 1.47,0.36 v 0 c 2.95,0.67 5.99,1.12 9.08,1.349 v 0 L 61.08,92.9 c -2.57,-1.04 -5.06,-2.239 -7.45,-3.61" /></clipPath><clipPath
       id="clipPath376"
       clipPathUnits="userSpaceOnUse"><path
         id="path374"
         d="M -32768,32767 H 32767 V -32768 H -32768 Z" /></clipPath><linearGradient
       id="linearGradient384"
       spreadMethod="pad"
       gradientTransform="matrix(5.5150146,-5.5150146,-5.5150146,-5.5150146,55.222488,91.652542)"
       gradientUnits="userSpaceOnUse"
       y2="0"
       x2="1"
       y1="0"
       x1="0"><stop
         id="stop378"
         offset="0"
         style="stop-opacity:0.07998779;stop-color:#ffffff" /><stop
         id="stop380"
         offset="1"
         style="stop-opacity:0;stop-color:#ffffff" /><stop
         id="stop382"
         offset="1"
         style="stop-opacity:0;stop-color:#ffffff" /></linearGradient><mask
       id="mask386"
       height="1"
       width="1"
       y="0"
       x="0"
       maskUnits="userSpaceOnUse"><g
         id="g396"><g
           id="g394"
           clip-path="url(#clipPath376)"><g
             id="g392"><g
               id="g390"><path
                 id="path388"
                 style="fill:url(#linearGradient384);stroke:none"
                 d="M -32768,32767 H 32767 V -32768 H -32768 Z" /></g></g></g></g></mask><linearGradient
       id="linearGradient408"
       spreadMethod="pad"
       gradientTransform="matrix(5.5150146,-5.5150146,-5.5150146,-5.5150146,55.222488,91.652542)"
       gradientUnits="userSpaceOnUse"
       y2="0"
       x2="1"
       y1="0"
       x1="0"><stop
         id="stop402"
         offset="0"
         style="stop-opacity:1;stop-color:#000000" /><stop
         id="stop404"
         offset="1"
         style="stop-opacity:1;stop-color:#000000" /><stop
         id="stop406"
         offset="1"
         style="stop-opacity:1;stop-color:#000000" /></linearGradient><clipPath
       id="clipPath418"
       clipPathUnits="userSpaceOnUse"><path
         id="path416"
         d="m 71.25,2.05 c 4,0.931 7.51,2.21 10.59,3.87 v 0 h -1.46 c -3.21,3.95 -5.51,8.6 -6.701,13.59 v 0 c -0.08,0.311 -0.149,0.61 -0.209,0.92 v 0 c -0.62,2.94 -0.85,5.999 -0.65,9.089 v 0 c -0.18,0.312 -0.35,0.611 -0.52,0.922 v 0 c -0.37,0.659 -0.729,1.339 -1.05,2.028 v 0 z" /></clipPath><clipPath
       id="clipPath426"
       clipPathUnits="userSpaceOnUse"><path
         id="path424"
         d="M -32768,32767 H 32767 V -32768 H -32768 Z" /></clipPath><linearGradient
       id="linearGradient434"
       spreadMethod="pad"
       gradientTransform="matrix(18.570005,-18.570005,-18.570005,-18.570005,63.644989,24.865021)"
       gradientUnits="userSpaceOnUse"
       y2="0"
       x2="1"
       y1="0"
       x1="0"><stop
         id="stop428"
         offset="0"
         style="stop-opacity:0.07998779;stop-color:#ffffff" /><stop
         id="stop430"
         offset="1"
         style="stop-opacity:0;stop-color:#ffffff" /><stop
         id="stop432"
         offset="1"
         style="stop-opacity:0;stop-color:#ffffff" /></linearGradient><mask
       id="mask436"
       height="1"
       width="1"
       y="0"
       x="0"
       maskUnits="userSpaceOnUse"><g
         id="g446"><g
           id="g444"
           clip-path="url(#clipPath426)"><g
             id="g442"><g
               id="g440"><path
                 id="path438"
                 style="fill:url(#linearGradient434);stroke:none"
                 d="M -32768,32767 H 32767 V -32768 H -32768 Z" /></g></g></g></g></mask><linearGradient
       id="linearGradient458"
       spreadMethod="pad"
       gradientTransform="matrix(18.570005,-18.570005,-18.570005,-18.570005,63.644989,24.865021)"
       gradientUnits="userSpaceOnUse"
       y2="0"
       x2="1"
       y1="0"
       x1="0"><stop
         id="stop452"
         offset="0"
         style="stop-opacity:1;stop-color:#000000" /><stop
         id="stop454"
         offset="1"
         style="stop-opacity:1;stop-color:#000000" /><stop
         id="stop456"
         offset="1"
         style="stop-opacity:1;stop-color:#000000" /></linearGradient><clipPath
       id="clipPath468"
       clipPathUnits="userSpaceOnUse"><path
         id="path466"
         d="m 83.34,6.781 c 0.959,0.579 1.88,1.199 2.75,1.879 v 0 C 85.22,7.99 84.299,7.36 83.34,6.781" /></clipPath><clipPath
       id="clipPath476"
       clipPathUnits="userSpaceOnUse"><path
         id="path474"
         d="M -32768,32767 H 32767 V -32768 H -32768 Z" /></clipPath><linearGradient
       id="linearGradient484"
       spreadMethod="pad"
       gradientTransform="matrix(0.4349975,-0.4349975,-0.4349975,-0.4349975,84.497528,7.9375305)"
       gradientUnits="userSpaceOnUse"
       y2="0"
       x2="1"
       y1="0"
       x1="0"><stop
         id="stop478"
         offset="0"
         style="stop-opacity:0.07998779;stop-color:#ffffff" /><stop
         id="stop480"
         offset="1"
         style="stop-opacity:0;stop-color:#ffffff" /><stop
         id="stop482"
         offset="1"
         style="stop-opacity:0;stop-color:#ffffff" /></linearGradient><mask
       id="mask486"
       height="1"
       width="1"
       y="0"
       x="0"
       maskUnits="userSpaceOnUse"><g
         id="g496"><g
           id="g494"
           clip-path="url(#clipPath476)"><g
             id="g492"><g
               id="g490"><path
                 id="path488"
                 style="fill:url(#linearGradient484);stroke:none"
                 d="M -32768,32767 H 32767 V -32768 H -32768 Z" /></g></g></g></g></mask><linearGradient
       id="linearGradient508"
       spreadMethod="pad"
       gradientTransform="matrix(0.4349975,-0.4349975,-0.4349975,-0.4349975,84.497528,7.9375305)"
       gradientUnits="userSpaceOnUse"
       y2="0"
       x2="1"
       y1="0"
       x1="0"><stop
         id="stop502"
         offset="0"
         style="stop-opacity:1;stop-color:#000000" /><stop
         id="stop504"
         offset="1"
         style="stop-opacity:1;stop-color:#000000" /><stop
         id="stop506"
         offset="1"
         style="stop-opacity:1;stop-color:#000000" /></linearGradient><clipPath
       id="clipPath518"
       clipPathUnits="userSpaceOnUse"><path
         id="path516"
         d="m 60.21,86.65 c 4.05,-1.22 7.75,-3.07 11.04,-5.41 v 0 c 2.29,-1.631 4.37,-3.49 6.23,-5.55 v 0 c 0.051,-0.06 0.11,-0.121 0.15,-0.19 v 0 c 5.06,-5.68 8.379,-12.8 9.389,-20.451 v 0 C 87.12,54.39 87.19,53.73 87.241,53.06 v 0 C 87.33,52.05 87.37,51.03 87.37,50 v 0 -3.2 l -2.09,-1.98 h 2.09 V 31.19 l -2.09,-1.98 h 2.09 V 15.59 L 85.28,13.6 h 2.09 V 9.7 C 96.35,17.45 100,30.33 100,50 v 0 c 0,3.63 -0.13,7.02 -0.39,10.2 v 0 L 69.941,89.87 C 66.58,89.069 63.34,87.971 60.21,86.65" /></clipPath><clipPath
       id="clipPath526"
       clipPathUnits="userSpaceOnUse"><path
         id="path524"
         d="M -32768,32767 H 32767 V -32768 H -32768 Z" /></clipPath><linearGradient
       id="linearGradient534"
       spreadMethod="pad"
       gradientTransform="matrix(52.10923,-52.10923,-52.10923,-52.10923,51,77.440002)"
       gradientUnits="userSpaceOnUse"
       y2="0"
       x2="1"
       y1="0"
       x1="0"><stop
         id="stop528"
         offset="0"
         style="stop-opacity:0.07998779;stop-color:#ffffff" /><stop
         id="stop530"
         offset="1"
         style="stop-opacity:0;stop-color:#ffffff" /><stop
         id="stop532"
         offset="1"
         style="stop-opacity:0;stop-color:#ffffff" /></linearGradient><mask
       id="mask536"
       height="1"
       width="1"
       y="0"
       x="0"
       maskUnits="userSpaceOnUse"><g
         id="g546"><g
           id="g544"
           clip-path="url(#clipPath526)"><g
             id="g542"><g
               id="g540"><path
                 id="path538"
                 style="fill:url(#linearGradient534);stroke:none"
                 d="M -32768,32767 H 32767 V -32768 H -32768 Z" /></g></g></g></g></mask><linearGradient
       id="linearGradient558"
       spreadMethod="pad"
       gradientTransform="matrix(52.10923,-52.10923,-52.10923,-52.10923,51,77.440002)"
       gradientUnits="userSpaceOnUse"
       y2="0"
       x2="1"
       y1="0"
       x1="0"><stop
         id="stop552"
         offset="0"
         style="stop-opacity:1;stop-color:#000000" /><stop
         id="stop554"
         offset="1"
         style="stop-opacity:1;stop-color:#000000" /><stop
         id="stop556"
         offset="1"
         style="stop-opacity:1;stop-color:#000000" /></linearGradient></defs><g
     transform="matrix(1.25,0,0,-1.25,4,129.33333)"
     id="g10"><g
       id="g12"><g
         clip-path="url(#clipPath18)"
         id="g14"><g
           id="g20"><g
             id="g22"><path
               id="path32"
               style="fill:url(#linearGradient30);stroke:none"
               d="M 50,100 C 12.956,100 0,87.039 0,50 v 0 C 0,12.961 12.956,0 50,0 v 0 c 37.045,0 50,12.961 50,50 v 0 c 0,37.044 -12.955,50 -50,50 z"
               inkscape:connector-curvature="0" /></g></g></g></g><g
       id="g34"><g
         clip-path="url(#clipPath40)"
         id="g36"><g
           id="g42"><g
             id="g44"><path
               id="path54"
               style="fill:url(#linearGradient52);stroke:none"
               d="M 50,100 C 12.956,100 0,87.039 0,50 v 0 C 0,12.961 12.956,0 50,0 v 0 c 37.045,0 50,12.961 50,50 v 0 c 0,37.044 -12.955,50 -50,50 z"
               inkscape:connector-curvature="0" /></g></g></g></g><g
       id="g56"><g
         clip-path="url(#clipPath62)"
         id="g58"><g
           id="g64"><g
             id="g66" /><g
             id="g78"><g
               style="opacity:0.5"
               id="g76"
               clip-path="url(#clipPath70)"><g
                 id="g74"
                 transform="translate(83.3398,6.7803)"><path
                   id="path72"
                   style="fill:#ffffff;fill-opacity:1;fill-rule:nonzero;stroke:none"
                   d="M 0,0 C 0.96,0.58 1.88,1.2 2.75,1.88 1.88,1.21 0.96,0.58 0,0"
                   inkscape:connector-curvature="0" /></g></g></g></g><g
           id="g80"><g
             id="g82" /><g
             id="g94"><g
               style="opacity:0.5"
               id="g92"
               clip-path="url(#clipPath86)"><g
                 id="g90"
                 transform="translate(56.3301,48.6699)"><path
                   id="path88"
                   style="fill:#ffffff;fill-opacity:1;fill-rule:nonzero;stroke:none"
                   d="m 0,0 c -5.38,0 -9.75,4.36 -9.75,9.75 0,5.38 4.37,9.75 9.75,9.75 5.39,0 9.75,-4.37 9.75,-9.75 C 9.75,4.36 5.39,0 0,0 m 31.04,1.33 c 0,1.03 -0.04,2.05 -0.13,3.06 -0.05,0.67 -0.12,1.33 -0.221,1.99 -1.009,7.65 -4.329,14.77 -9.389,20.45 -0.04,0.07 -0.1,0.13 -0.15,0.19 -1.86,2.06 -3.94,3.92 -6.23,5.55 -3.29,2.34 -6.99,4.19 -11.04,5.41 3.13,1.32 6.37,2.42 9.73,3.22 -0.28,0.01 -0.55,0.01 -0.83,0.01 -1.62,0 -3.23,-0.06 -4.82,-0.19 -3.09,-0.23 -6.13,-0.68 -9.08,-1.35 -0.49,-0.11 -0.98,-0.24 -1.47,-0.36 -0.69,0.07 -1.38,0.1 -2.07,0.12 0.65,0.4 1.29,0.81 1.96,1.19 2.389,1.37 4.88,2.57 7.45,3.61 C 1.27,43.76 -2.13,43 -5.4,41.97 c -3.53,1.56 -7.36,2.48 -11.32,2.65 2.9,-0.84 5.65,-2.1 8.17,-3.72 -2.54,-0.95 -4.99,-2.06 -7.37,-3.31 -1.22,-0.46 -2.42,-0.98 -3.56,-1.58 -0.44,-0.23 -0.88,-0.47 -1.31,-0.72 -0.43,0.03 -0.86,0.04 -1.29,0.04 -1.2,0 -2.38,-0.09 -3.53,-0.27 l -0.01,-0.01 C -36.06,33.42 -44.13,24.64 -44.68,13.87 V 13.8 c -0.02,-0.36 -0.03,-0.72 -0.03,-1.09 0,-0.37 0.01,-0.73 0.03,-1.09 v -0.07 c 0.02,-0.33 0.05,-0.65 0.09,-0.97 v -0.02 c 0.22,-2 0.75,-3.89 1.54,-5.65 0.95,-2.14 2.29,-4.08 3.92,-5.72 1.22,-1.23 2.6,-2.29 4.11,-3.15 0.89,-0.51 1.82,-0.95 2.79,-1.3 1.79,-0.679 3.72,-1.09 5.72,-1.2 0.33,-0.019 0.66,-0.019 0.99,-0.019 0.33,0 0.66,0 0.99,0.019 2.19,0.03 4.35,0.22 6.46,0.54 -1.91,-1.45 -4.26,-2.35 -6.81,-2.48 -0.22,-0.01 -0.43,-0.02 -0.64,-0.02 -0.21,0 -0.42,0.01 -0.64,0.02 -1.55,0.03 -3.06,0.23 -4.51,0.58 -0.69,0.15 -1.36,0.341 -2.02,0.57 -0.05,0.01 -0.11,0.03 -0.16,0.05 -0.01,0 -0.01,0 -0.02,0.011 -1.17,0.389 -2.3,0.879 -3.37,1.469 -0.4,0.21 -0.8,0.45 -1.19,0.69 -3.35,2.08 -6.12,5.02 -8,8.5 -0.08,-0.05 -0.16,-0.1 -0.24,-0.16 -1.49,-0.99 -2.91,-2.11 -4.23,-3.34 -2.38,-2.199 -4.45,-4.76 -6.13,-7.62 0.54,-7.77 1.86,-14.27 4.09,-19.62 0.35,-0.85 0.73,-1.669 1.13,-2.459 0.11,-0.221 0.23,-0.441 0.35,-0.661 0.35,-0.67 0.72,-1.32 1.11,-1.94 0.16,-0.25 0.31,-0.49 0.48,-0.73 0.47,-0.71 0.96,-1.39 1.47,-2.04 0.24,-0.3 0.48,-0.589 0.73,-0.879 0.39,-0.451 0.78,-0.881 1.19,-1.301 0.22,-0.23 0.45,-0.46 0.68,-0.67 0.32,-0.31 0.65,-0.61 0.98,-0.9 0.22,-0.19 0.44,-0.379 0.66,-0.56 0.64,-0.529 1.3,-1.029 1.98,-1.5 0.35,-0.24 0.71,-0.48 1.08,-0.71 0.47,-0.3 0.95,-0.59 1.45,-0.859 0.37,-0.21 0.74,-0.411 1.13,-0.611 0.45,-0.22 0.9,-0.45 1.37,-0.66 0.47,-0.21 0.94,-0.42 1.43,-0.62 1.91,-0.79 3.98,-1.46 6.19,-2.02 0.58,-0.15 1.17,-0.29 1.78,-0.42 0.58,-0.129 1.17,-0.25 1.77,-0.36 0.6,-0.12 1.2,-0.22 1.82,-0.32 0.62,-0.1 1.25,-0.199 1.89,-0.28 0.44,-0.06 0.89,-0.12 1.34,-0.169 0.35,-0.051 0.7,-0.091 1.05,-0.121 0.51,-0.06 1.02,-0.11 1.54,-0.16 0.2,-0.009 0.4,-0.03 0.61,-0.05 1.13,-0.09 2.3,-0.169 3.49,-0.23 0.76,-0.04 1.54,-0.07 2.33,-0.1 0.74,-0.02 1.49,-0.04 2.26,-0.05 0.76,-0.01 1.53,-0.02 2.32,-0.02 2.6,0 5.08,0.06 7.44,0.191 0.44,0.029 0.89,0.059 1.329,0.089 0.921,0.06 1.821,0.13 2.701,0.22 1.33,0.13 2.62,0.28 3.86,0.45 0.42,0.06 0.83,0.13 1.24,0.19 0.41,0.06 0.81,0.12 1.199,0.2 0.401,0.07 0.801,0.141 1.191,0.22 0.39,0.08 0.77,0.15 1.16,0.24 0.38,0.08 0.76,0.16 1.13,0.25 v 30.42 c 0.32,-0.69 0.68,-1.37 1.05,-2.029 0.17,-0.311 0.34,-0.611 0.52,-0.921 -0.2,-3.09 0.03,-6.15 0.65,-9.09 0.06,-0.31 0.13,-0.61 0.21,-0.92 1.19,-4.99 3.49,-9.64 6.7,-13.59 h 1.46 c 0.5,0.271 1,0.55 1.48,0.84 0.01,0 0.01,0.01 0.02,0.02 0.96,0.58 1.88,1.21 2.75,1.88 0.44,0.33 0.86,0.67 1.27,1.031 0,0 0.01,0 0.01,0.009 v 3.9 h -2.09 l 2.09,1.99 v 13.62 h -2.09 l 2.09,1.981 V -3.85 h -2.09 l 2.09,1.98 z"
                   inkscape:connector-curvature="0" /></g></g></g></g></g></g><g
       id="g96"><g
         clip-path="url(#clipPath102)"
         id="g98"><g
           id="g104"><g
             id="g106" /><g
             mask="url(#mask120)"
             id="g132"><g
               id="g134"><path
                 id="path144"
                 style="fill:url(#linearGradient142);stroke:none"
                 d="m 76.984,23.94 9.344,-9.342 1.042,0.992 v 13.62 h -2.09 l 2.09,1.98 v 9.397 L 75.386,52.57 Z"
                 inkscape:connector-curvature="0" /></g></g></g></g></g><g
       id="g146"><g
         clip-path="url(#clipPath152)"
         id="g148"><g
           id="g154"><g
             id="g156" /><g
             mask="url(#mask170)"
             id="g182"><g
               id="g184"><path
                 id="path194"
                 style="fill:url(#linearGradient192);stroke:none"
                 d="M 87.325,13.6 87.37,13.556 V 13.6 Z"
                 inkscape:connector-curvature="0" /></g></g></g></g></g><g
       id="g196"><g
         clip-path="url(#clipPath202)"
         id="g198"><g
           transform="translate(86.0195,20.4805)"
           id="g204"><path
             id="path206"
             style="fill:#ffffff;fill-opacity:1;fill-rule:nonzero;stroke:none"
             d="M 0,0 C -0.539,-0.23 -1.13,-0.37 -1.75,-0.381 -2.43,-0.4 -3.069,-0.271 -3.649,-0.021 -5.59,0.76 -7.39,1.899 -8.93,3.359 -9.47,3.869 -9.97,4.42 -10.449,5 c -0.04,0.06 -0.09,0.109 -0.13,0.17 -0.191,0.239 -0.381,0.489 -0.551,0.739 -0.739,1.011 -1.43,2.061 -2.069,3.13 -0.181,0.311 -0.351,0.61 -0.521,0.921 -0.37,0.659 -0.729,1.34 -1.05,2.029 -0.32,0.651 -0.62,1.321 -0.879,1.99 -1.93,4.621 -2.96,9.63 -2.96,14.781 v 0.01 c 0,0.37 0.049,0.75 0.139,1.12 0.45,1.85 1.95,3.17 3.7,3.489 0.27,0.051 0.541,0.08 0.821,0.08 0.37,0 0.75,-0.049 1.12,-0.14 2.14,-0.519 3.569,-2.429 3.569,-4.529 0,0 -1.197,-17.833 3.522,-24.52 C -4.243,2.15 -2.56,0.72 0,0"
             inkscape:connector-curvature="0" /></g><g
           transform="translate(61.6816,61.1104)"
           id="g208"><path
             id="path210"
             style="fill:#ffffff;fill-opacity:1;fill-rule:nonzero;stroke:none"
             d="m 0,0 c -0.619,-1.412 -2.266,-2.054 -3.678,-1.435 -1.412,0.62 -2.053,2.267 -1.434,3.679 0.62,1.411 2.266,2.054 3.678,1.434 C -0.022,3.059 0.62,1.412 0,0 m -1.43,6.234 c -2.824,1.24 -6.117,-0.045 -7.356,-2.868 -1.239,-2.824 0.045,-6.117 2.868,-7.357 2.824,-1.239 6.117,0.045 7.356,2.869 1.24,2.824 -0.044,6.117 -2.868,7.356"
             inkscape:connector-curvature="0" /></g></g></g><g
       id="g212"><g
         clip-path="url(#clipPath218)"
         id="g214"><g
           id="g220"><g
             id="g222" /><g
             mask="url(#mask236)"
             id="g248"><g
               id="g250"><path
                 id="path260"
                 style="fill:url(#linearGradient258);stroke:none"
                 d="m 18.9,43.639 c 0.39,-0.238 0.79,-0.479 1.19,-0.689 v 0 l -9.19,9.19 c 1.88,-3.48 4.65,-6.42 8,-8.501"
                 inkscape:connector-curvature="0" /></g></g></g></g></g><g
       id="g262"><g
         clip-path="url(#clipPath268)"
         id="g264"><g
           id="g270"><g
             id="g272" /><g
             mask="url(#mask286)"
             id="g298"><g
               id="g300"><path
                 id="path310"
                 style="fill:url(#linearGradient308);stroke:none"
                 d="M 17.307,47.753 17.2,47.86 c 0.036,-0.036 0.071,-0.071 0.107,-0.107 M 23.64,41.42 C 24.3,41.19 24.97,41 25.66,40.849 v 0 C 27.11,40.5 28.62,40.3 30.17,40.27 v 0 c 0.22,-0.01 0.43,-0.02 0.64,-0.02 v 0 c 0.21,0 0.42,0.01 0.641,0.02 v 0 C 34,40.4 36.35,41.3 38.26,42.75 v 0 C 36.15,42.43 33.99,42.241 31.8,42.21 v 0 c -0.331,-0.02 -0.66,-0.02 -0.99,-0.02 v 0 c -0.33,0 -0.66,0 -0.99,0.02 v 0 c -2,0.111 -3.93,0.52 -5.72,1.201 v 0 C 23.13,43.76 22.2,44.2 21.31,44.71 v 0 c -1.466,0.836 -2.809,1.858 -4.003,3.043 v 0 z"
                 inkscape:connector-curvature="0" /></g></g></g></g></g><g
       id="g312"><g
         clip-path="url(#clipPath318)"
         id="g314"><g
           id="g320"><g
             id="g322" /><g
             mask="url(#mask336)"
             id="g348"><g
               id="g350"><path
                 id="path360"
                 style="fill:url(#linearGradient358);stroke:none"
                 d="m 61.47,0.5 c 1.33,0.12 2.62,0.27 3.86,0.45 v 0 C 64.09,0.78 62.8,0.63 61.47,0.5"
                 inkscape:connector-curvature="0" /></g></g></g></g></g><g
       id="g362"><g
         clip-path="url(#clipPath368)"
         id="g364"><g
           id="g370"><g
             id="g372" /><g
             mask="url(#mask386)"
             id="g398"><g
               id="g400"><path
                 id="path410"
                 style="fill:url(#linearGradient408);stroke:none"
                 d="M 53.63,89.29 C 52.96,88.91 52.321,88.5 51.67,88.1 v 0 c 0.69,-0.02 1.38,-0.05 2.07,-0.12 v 0 c 0.49,0.12 0.98,0.25 1.47,0.36 v 0 c 2.95,0.67 5.99,1.12 9.08,1.349 v 0 L 61.08,92.9 c -2.57,-1.04 -5.06,-2.239 -7.45,-3.61"
                 inkscape:connector-curvature="0" /></g></g></g></g></g><g
       id="g412"><g
         clip-path="url(#clipPath418)"
         id="g414"><g
           id="g420"><g
             id="g422" /><g
             mask="url(#mask436)"
             id="g448"><g
               id="g450"><path
                 id="path460"
                 style="fill:url(#linearGradient458);stroke:none"
                 d="m 71.25,2.05 c 4,0.931 7.51,2.21 10.59,3.87 v 0 h -1.46 c -3.21,3.95 -5.51,8.6 -6.701,13.59 v 0 c -0.08,0.311 -0.149,0.61 -0.209,0.92 v 0 c -0.62,2.94 -0.85,5.999 -0.65,9.089 v 0 c -0.18,0.312 -0.35,0.611 -0.52,0.922 v 0 c -0.37,0.659 -0.729,1.339 -1.05,2.028 v 0 z"
                 inkscape:connector-curvature="0" /></g></g></g></g></g><g
       id="g462"><g
         clip-path="url(#clipPath468)"
         id="g464"><g
           id="g470"><g
             id="g472" /><g
             mask="url(#mask486)"
             id="g498"><g
               id="g500"><path
                 id="path510"
                 style="fill:url(#linearGradient508);stroke:none"
                 d="m 83.34,6.781 c 0.959,0.579 1.88,1.199 2.75,1.879 v 0 C 85.22,7.99 84.299,7.36 83.34,6.781"
                 inkscape:connector-curvature="0" /></g></g></g></g></g><g
       id="g512"><g
         clip-path="url(#clipPath518)"
         id="g514"><g
           id="g520"><g
             id="g522" /><g
             mask="url(#mask536)"
             id="g548"><g
               id="g550"><path
                 id="path560"
                 style="fill:url(#linearGradient558);stroke:none"
                 d="m 60.21,86.65 c 4.05,-1.22 7.75,-3.07 11.04,-5.41 v 0 c 2.29,-1.631 4.37,-3.49 6.23,-5.55 v 0 c 0.051,-0.06 0.11,-0.121 0.15,-0.19 v 0 c 5.06,-5.68 8.379,-12.8 9.389,-20.451 v 0 C 87.12,54.39 87.19,53.73 87.241,53.06 v 0 C 87.33,52.05 87.37,51.03 87.37,50 v 0 -3.2 l -2.09,-1.98 h 2.09 V 31.19 l -2.09,-1.98 h 2.09 V 15.59 L 85.28,13.6 h 2.09 V 9.7 C 96.35,17.45 100,30.33 100,50 v 0 c 0,3.63 -0.13,7.02 -0.39,10.2 v 0 L 69.941,89.87 C 66.58,89.069 63.34,87.971 60.21,86.65"
                 inkscape:connector-curvature="0" /></g></g></g></g></g></g></svg>