<?xml version="1.0" encoding="UTF-8" standalone="no"?>
<svg
   xmlns:dc="http://purl.org/dc/elements/1.1/"
   xmlns:cc="http://creativecommons.org/ns#"
   xmlns:rdf="http://www.w3.org/1999/02/22-rdf-syntax-ns#"
   xmlns:svg="http://www.w3.org/2000/svg"
   xmlns="http://www.w3.org/2000/svg"
   xmlns:sodipodi="http://sodipodi.sourceforge.net/DTD/sodipodi-0.dtd"
   xmlns:inkscape="http://www.inkscape.org/namespaces/inkscape"
   viewBox="0 0 133.33333 133.33333"
   height="133.33333"
   width="133.33333"
   xml:space="preserve"
   id="svg2"
   version="1.1"
   sodipodi:docname="harbour-recorder.svg"
   inkscape:version="0.92.2 2405546, 2018-03-11"><sodipodi:namedview
     pagecolor="#ffffff"
     bordercolor="#666666"
     borderopacity="1"
     objecttolerance="10"
     gridtolerance="10"
     guidetolerance="10"
     inkscape:pageopacity="0"
     inkscape:pageshadow="2"
     inkscape:window-width="1366"
     inkscape:window-height="706"
     id="namedview79"
     showgrid="false"
     inkscape:zoom="1.7700001"
     inkscape:cx="66.666664"
     inkscape:cy="66.666664"
     inkscape:window-x="0"
     inkscape:window-y="34"
     inkscape:window-maximized="1"
     inkscape:current-layer="svg2" /><metadata
     id="metadata8"><rdf:RDF><cc:Work
         rdf:about=""><dc:format>image/svg+xml</dc:format><dc:type
           rdf:resource="http://purl.org/dc/dcmitype/StillImage" /></cc:Work></rdf:RDF></metadata><defs
     id="defs6"><clipPath
       id="clipPath18"
       clipPathUnits="userSpaceOnUse"><path
         id="path16"
         d="M 50,100 C 12.956,100 0,87.039 0,50 v 0 C 0,12.961 12.956,0 50,0 v 0 c 37.045,0 50,12.961 50,50 v 0 c 0,37.044 -12.955,50 -50,50 z" /></clipPath><linearGradient
       id="linearGradient32"
       spreadMethod="pad"
       gradientTransform="matrix(77.78125,-77.78125,-77.78125,-77.78125,11.109896,88.891144)"
       gradientUnits="userSpaceOnUse"
       y2="0"
       x2="1"
       y1="0"
       x1="0"><stop
         id="stop24"
         offset="0"
         style="stop-opacity:1;stop-color:#303030" /><stop
         id="stop26"
         offset="0.129914"
         style="stop-opacity:1;stop-color:#303030" /><stop
         id="stop28"
         offset="0.753846"
         style="stop-opacity:1;stop-color:#3b3b3b" /><stop
         id="stop30"
         offset="1"
         style="stop-opacity:1;stop-color:#3b3b3b" /></linearGradient><clipPath
       id="clipPath42"
       clipPathUnits="userSpaceOnUse"><path
         id="path40"
         d="M 50,100 C 12.96,100 0,87.04 0,50 v 0 C 0,12.96 12.96,0 50,0 v 0 c 37.04,0 50,12.96 50,50 v 0 c 0,37.04 -12.96,50 -50,50 z M 44.99,79.32 c 0,2.77 2.24,5.01 5.01,5.01 v 0 c 2.77,0 5.01,-2.24 5.01,-5.01 v 0 c 0,-2.76 -2.24,-5 -5.01,-5 v 0 c -2.77,0 -5.01,2.24 -5.01,5 m 15.2,-11.66 c -2.39,1.38 -3.209,4.44 -1.829,6.84 v 0 c 1.379,2.39 4.448,3.21 6.84,1.83 v 0 C 67.6,74.95 68.42,71.88 67.04,69.49 v 0 c -0.931,-1.608 -2.612,-2.507 -4.342,-2.507 v 0 c -0.852,0 -1.716,0.218 -2.508,0.677 m -27.23,1.83 c -1.38,2.39 -0.56,5.46 1.839,6.84 v 0 c 2.391,1.38 5.461,0.56 6.841,-1.83 v 0 c 1.38,-2.4 0.56,-5.46 -1.83,-6.84 v 0 c -0.792,-0.459 -1.656,-0.677 -2.508,-0.677 v 0 c -1.73,0 -3.411,0.899 -4.342,2.507 m 38.1,-7.33 c -1.38,2.39 -0.56,5.46 1.829,6.84 v 0 c 2.401,1.38 5.461,0.56 6.841,-1.83 v 0 c 1.39,-2.4 0.57,-5.46 -1.83,-6.85 v 0 c -0.789,-0.454 -1.65,-0.67 -2.498,-0.67 v 0 c -1.733,0 -3.416,0.899 -4.342,2.51 M 22.1,60.32 c -2.4,1.39 -3.22,4.45 -1.83,6.85 v 0 c 1.38,2.39 4.44,3.21 6.84,1.83 v 0 c 2.39,-1.38 3.21,-4.45 1.829,-6.84 v 0 c -0.925,-1.611 -2.608,-2.51 -4.34,-2.51 v 0 c -0.849,0 -1.71,0.216 -2.499,0.67 m 22.89,4.341 c 0,2.769 2.24,5.009 5.01,5.009 v 0 c 2.77,0 5.01,-2.24 5.01,-5.009 v 0 C 55.01,61.9 52.77,59.65 50,59.65 v 0 c -2.77,0 -5.01,2.25 -5.01,5.011 M 58.361,54.83 c -1.38,2.39 -0.561,5.46 1.829,6.84 v 0 c 2.4,1.379 5.46,0.56 6.85,-1.83 v 0 c 1.38,-2.4 0.56,-5.46 -1.839,-6.85 v 0 c -0.787,-0.454 -1.647,-0.67 -2.495,-0.67 v 0 c -1.733,0 -3.42,0.899 -4.345,2.51 M 34.799,52.99 C 32.4,54.38 31.58,57.44 32.96,59.84 v 0 c 1.39,2.39 4.45,3.209 6.85,1.83 v 0 c 2.39,-1.38 3.21,-4.45 1.83,-6.84 v 0 c -0.926,-1.61 -2.614,-2.51 -4.346,-2.51 v 0 c -0.849,0 -1.708,0.216 -2.495,0.67 M 70.39,50 c 0,2.77 2.24,5.01 5.01,5.01 v 0 c 2.761,0 5.001,-2.24 5.001,-5.01 v 0 c 0,-2.77 -2.24,-5.01 -5.001,-5.01 v 0 c -2.77,0 -5.01,2.24 -5.01,5.01 m -25.4,0 c 0,2.77 2.24,5.01 5.01,5.01 v 0 c 2.77,0 5.01,-2.24 5.01,-5.01 v 0 c 0,-2.77 -2.24,-5.01 -5.01,-5.01 v 0 c -2.77,0 -5.01,2.24 -5.01,5.01 M 19.6,50 c 0,2.77 2.239,5.01 5,5.01 v 0 c 2.77,0 5.01,-2.24 5.01,-5.01 v 0 c 0,-2.77 -2.24,-5.01 -5.01,-5.01 v 0 c -2.761,0 -5,2.24 -5,5.01 M 60.19,38.33 c -2.39,1.38 -3.209,4.451 -1.829,6.84 v 0 c 1.379,2.4 4.448,3.219 6.84,1.84 v 0 C 67.6,45.62 68.42,42.559 67.04,40.16 v 0 c -0.932,-1.604 -2.616,-2.5 -4.348,-2.5 v 0 c -0.85,0 -1.712,0.216 -2.502,0.67 m -27.23,1.83 c -1.38,2.399 -0.56,5.46 1.839,6.85 v 0 c 2.391,1.379 5.461,0.56 6.841,-1.84 v 0 c 1.38,-2.389 0.56,-5.46 -1.83,-6.84 v 0 c -0.79,-0.454 -1.652,-0.67 -2.502,-0.67 v 0 c -1.732,0 -3.415,0.896 -4.348,2.5 m 12.03,-4.821 c 0,2.761 2.24,5.011 5.01,5.011 v 0 c 2.77,0 5.01,-2.25 5.01,-5.011 v 0 C 55.01,32.57 52.77,30.33 50,30.33 v 0 c -2.77,0 -5.01,2.24 -5.01,5.009 M 72.889,31 C 70.5,32.38 69.68,35.45 71.06,37.84 v 0 c 1.38,2.4 4.44,3.22 6.84,1.84 v 0 c 2.4,-1.39 3.22,-4.45 1.83,-6.85 v 0 c -0.926,-1.603 -2.608,-2.5 -4.34,-2.5 v 0 c -0.849,0 -1.711,0.216 -2.501,0.67 M 20.27,32.83 c -1.39,2.4 -0.57,5.46 1.83,6.85 v 0 c 2.4,1.38 5.46,0.56 6.839,-1.84 v 0 C 30.32,35.45 29.5,32.38 27.11,31 v 0 c -0.79,-0.454 -1.651,-0.67 -2.5,-0.67 v 0 c -1.732,0 -3.414,0.897 -4.34,2.5 M 58.361,25.5 c -1.38,2.4 -0.561,5.46 1.829,6.84 v 0 c 2.4,1.39 5.46,0.57 6.85,-1.83 v 0 c 1.38,-2.39 0.56,-5.46 -1.839,-6.84 v 0 C 64.414,23.216 63.553,23 62.703,23 v 0 c -1.731,0 -3.417,0.897 -4.342,2.5 M 34.799,23.67 C 32.4,25.05 31.58,28.12 32.96,30.51 v 0 c 1.39,2.4 4.45,3.22 6.85,1.83 v 0 c 2.39,-1.38 3.21,-4.44 1.83,-6.84 v 0 C 40.714,23.897 39.028,23 37.296,23 v 0 c -0.849,0 -1.71,0.216 -2.497,0.67 M 44.99,20.679 c 0,2.762 2.24,5.001 5.01,5.001 v 0 c 2.77,0 5.01,-2.239 5.01,-5.001 v 0 C 55.01,17.91 52.77,15.67 50,15.67 v 0 c -2.77,0 -5.01,2.24 -5.01,5.009" /></clipPath><linearGradient
       id="linearGradient54"
       spreadMethod="pad"
       gradientTransform="matrix(77.779991,-77.779991,-77.779991,-77.779991,11.110003,88.890007)"
       gradientUnits="userSpaceOnUse"
       y2="0"
       x2="1"
       y1="0"
       x1="0"><stop
         id="stop48"
         offset="0"
         style="stop-opacity:1;stop-color:#85e6dc" /><stop
         id="stop50"
         offset="0.00000039"
         style="stop-opacity:1;stop-color:#85e6dc" /><stop
         id="stop52"
         offset="1"
         style="stop-opacity:1;stop-color:#2e85bf" /></linearGradient><clipPath
       id="clipPath64"
       clipPathUnits="userSpaceOnUse"><path
         id="path62"
         d="m 21.064,46.457 c 0,10e-4 -0.001,0.002 -0.002,0.003 v 0 z" /></clipPath><clipPath
       id="clipPath72"
       clipPathUnits="userSpaceOnUse"><path
         id="path70"
         d="M -32768,32767 H 32767 V -32768 H -32768 Z" /></clipPath><linearGradient
       id="linearGradient80"
       spreadMethod="pad"
       gradientTransform="matrix(0.0029297,-0.0029297,-0.0029297,-0.0029297,21.061676,46.459991)"
       gradientUnits="userSpaceOnUse"
       y2="0"
       x2="1"
       y1="0"
       x1="0"><stop
         id="stop74"
         offset="0"
         style="stop-opacity:0.11999695;stop-color:#ffffff" /><stop
         id="stop76"
         offset="0.00000017"
         style="stop-opacity:0.11999695;stop-color:#ffffff" /><stop
         id="stop78"
         offset="1"
         style="stop-opacity:0;stop-color:#ffffff" /></linearGradient><mask
       id="mask82"
       height="1"
       width="1"
       y="0"
       x="0"
       maskUnits="userSpaceOnUse"><g
         id="g92"><g
           id="g90"
           clip-path="url(#clipPath72)"><g
             id="g88"><g
               id="g86"><path
                 id="path84"
                 style="fill:url(#linearGradient80);stroke:none"
                 d="M -32768,32767 H 32767 V -32768 H -32768 Z" /></g></g></g></g></mask><linearGradient
       id="linearGradient104"
       spreadMethod="pad"
       gradientTransform="matrix(0.0029297,-0.0029297,-0.0029297,-0.0029297,21.061676,46.459991)"
       gradientUnits="userSpaceOnUse"
       y2="0"
       x2="1"
       y1="0"
       x1="0"><stop
         id="stop98"
         offset="0"
         style="stop-opacity:1;stop-color:#000000" /><stop
         id="stop100"
         offset="0.00000017"
         style="stop-opacity:1;stop-color:#000000" /><stop
         id="stop102"
         offset="1"
         style="stop-opacity:1;stop-color:#000000" /></linearGradient><clipPath
       id="clipPath114"
       clipPathUnits="userSpaceOnUse"><path
         id="path112"
         d="m 55.01,79.32 c 0,-2.76 -2.24,-5 -5.01,-5 v 0 c -1.323,0 -2.516,0.52 -3.411,1.356 v 0 L 60.47,61.796 c 2.354,1.169 5.232,0.345 6.57,-1.956 v 0 c 1.38,-2.4 0.56,-5.46 -1.839,-6.85 v 0 c -2.392,-1.38 -5.461,-0.56 -6.84,1.84 v 0 c -1.367,2.366 -0.572,5.393 1.764,6.793 v 0 l -6.58,6.58 c 0.905,-0.906 1.465,-2.158 1.465,-3.542 v 0 C 55.01,61.9 52.77,59.65 50,59.65 v 0 c -2.77,0 -5.01,2.25 -5.01,5.011 v 0 c 0,1.826 0.984,3.405 2.441,4.281 v 0 l -6.591,6.591 -0.01,-0.011 c 0.305,-0.303 0.585,-0.633 0.81,-1.022 v 0 c 1.38,-2.4 0.56,-5.46 -1.83,-6.84 v 0 c -2.01,-1.163 -4.471,-0.761 -6.037,0.805 v 0 L 33.77,68.461 47.767,54.464 c 0.675,0.338 1.426,0.546 2.233,0.546 v 0 c 2.77,0 5.01,-2.24 5.01,-5.01 v 0 c 0,-2.77 -2.24,-5.01 -5.01,-5.01 v 0 c -2.77,0 -5.01,2.24 -5.01,5.01 v 0 c 0,1.827 0.985,3.409 2.444,4.284 v 0 l -6.59,6.59 -0.013,-0.012 c 1.561,-1.564 1.965,-4.031 0.809,-6.032 v 0 c -1.38,-2.4 -4.45,-3.22 -6.841,-1.84 v 0 C 32.4,54.38 31.58,57.44 32.96,59.84 v 0 c 0.444,0.763 1.069,1.346 1.776,1.768 v 0 L 28.145,68.2 28.134,68.189 c 1.559,-1.564 1.961,-4.028 0.805,-6.029 v 0 C 27.56,59.76 24.5,58.94 22.1,60.32 v 0 c -0.389,0.226 -0.72,0.507 -1.025,0.811 v 0 L 21.067,61.123 35.062,47.128 c 2.348,1.181 5.247,0.358 6.578,-1.958 v 0 c 1.38,-2.389 0.56,-5.46 -1.83,-6.84 v 0 c -2.4,-1.38 -5.46,-0.561 -6.85,1.83 v 0 c -1.362,2.369 -0.573,5.375 1.755,6.789 v 0 l -6.459,6.458 C 29.09,52.512 29.61,51.322 29.61,50 v 0 c 0,-2.77 -2.24,-5.01 -5.01,-5.01 v 0 c -1.38,0 -2.629,0.56 -3.534,1.466 v 0 L 35.047,32.475 c 1.459,0.734 3.242,0.746 4.763,-0.135 v 0 c 2.39,-1.38 3.21,-4.44 1.83,-6.84 v 0 c -1.38,-2.39 -4.45,-3.21 -6.841,-1.83 v 0 C 32.4,25.05 31.58,28.12 32.96,30.51 v 0 c 0.444,0.767 1.068,1.35 1.776,1.774 v 0 L 28.141,38.88 28.13,38.867 c 0.304,-0.304 0.585,-0.637 0.809,-1.027 v 0 C 30.32,35.45 29.5,32.38 27.11,31 v 0 c -2.012,-1.156 -4.475,-0.751 -6.036,0.812 v 0 L 21.071,31.81 52.848,0.032 C 86.769,0.681 99.321,13.24 99.967,47.166 v 0 l -21.031,21.032 -0.01,-0.01 c 0.302,-0.302 0.581,-0.631 0.804,-1.018 v 0 c 1.39,-2.4 0.57,-5.46 -1.83,-6.85 v 0 c -2.4,-1.38 -5.46,-0.56 -6.84,1.84 v 0 c -1.365,2.364 -0.572,5.388 1.758,6.789 v 0 l -6.581,6.581 -0.01,-0.011 c 1.565,-1.563 1.969,-4.028 0.813,-6.029 v 0 c -1.39,-2.4 -4.45,-3.22 -6.85,-1.83 v 0 c -2.39,1.38 -3.209,4.44 -1.829,6.84 v 0 c 0.439,0.762 1.061,1.343 1.767,1.766 v 0 l -6.519,6.518 c 0.864,-0.9 1.401,-2.116 1.401,-3.464 M 70.39,50 c 0,2.77 2.24,5.01 5.01,5.01 v 0 c 2.761,0 5.001,-2.24 5.001,-5.01 v 0 c 0,-2.77 -2.24,-5.01 -5.001,-5.01 v 0 c -2.77,0 -5.01,2.24 -5.01,5.01 M 60.19,38.33 c -2.39,1.38 -3.209,4.451 -1.829,6.84 v 0 c 1.379,2.4 4.448,3.219 6.84,1.84 v 0 C 67.6,45.62 68.42,42.559 67.04,40.16 v 0 c -0.932,-1.604 -2.616,-2.5 -4.348,-2.5 v 0 c -0.85,0 -1.712,0.216 -2.502,0.67 m -15.2,-2.991 c 0,2.761 2.24,5.011 5.01,5.011 v 0 c 2.77,0 5.01,-2.25 5.01,-5.011 v 0 C 55.01,32.57 52.77,30.33 50,30.33 v 0 c -2.77,0 -5.01,2.24 -5.01,5.009 M 72.889,31 C 70.5,32.38 69.68,35.45 71.06,37.84 v 0 c 1.38,2.4 4.44,3.22 6.84,1.84 v 0 c 2.4,-1.39 3.22,-4.45 1.83,-6.85 v 0 c -0.926,-1.603 -2.608,-2.5 -4.34,-2.5 v 0 c -0.849,0 -1.711,0.216 -2.501,0.67 M 58.361,25.5 c -1.38,2.4 -0.561,5.46 1.829,6.84 v 0 c 2.4,1.39 5.46,0.57 6.85,-1.83 v 0 c 1.38,-2.39 0.56,-5.46 -1.839,-6.84 v 0 C 64.414,23.216 63.553,23 62.703,23 v 0 c -1.731,0 -3.417,0.897 -4.342,2.5 M 44.99,20.679 c 0,2.762 2.24,5.001 5.01,5.001 v 0 c 2.77,0 5.01,-2.239 5.01,-5.001 v 0 C 55.01,17.91 52.77,15.67 50,15.67 v 0 c -2.77,0 -5.01,2.24 -5.01,5.009" /></clipPath><clipPath
       id="clipPath122"
       clipPathUnits="userSpaceOnUse"><path
         id="path120"
         d="M -32768,32767 H 32767 V -32768 H -32768 Z" /></clipPath><linearGradient
       id="linearGradient130"
       spreadMethod="pad"
       gradientTransform="matrix(58.910011,-58.910011,-58.910011,-58.910011,29.976105,70.031158)"
       gradientUnits="userSpaceOnUse"
       y2="0"
       x2="1"
       y1="0"
       x1="0"><stop
         id="stop124"
         offset="0"
         style="stop-opacity:0.11999695;stop-color:#ffffff" /><stop
         id="stop126"
         offset="0.00000017"
         style="stop-opacity:0.11999695;stop-color:#ffffff" /><stop
         id="stop128"
         offset="1"
         style="stop-opacity:0;stop-color:#ffffff" /></linearGradient><mask
       id="mask132"
       height="1"
       width="1"
       y="0"
       x="0"
       maskUnits="userSpaceOnUse"><g
         id="g142"><g
           id="g140"
           clip-path="url(#clipPath122)"><g
             id="g138"><g
               id="g136"><path
                 id="path134"
                 style="fill:url(#linearGradient130);stroke:none"
                 d="M -32768,32767 H 32767 V -32768 H -32768 Z" /></g></g></g></g></mask><linearGradient
       id="linearGradient154"
       spreadMethod="pad"
       gradientTransform="matrix(58.910011,-58.910011,-58.910011,-58.910011,29.976105,70.031158)"
       gradientUnits="userSpaceOnUse"
       y2="0"
       x2="1"
       y1="0"
       x1="0"><stop
         id="stop148"
         offset="0"
         style="stop-opacity:1;stop-color:#000000" /><stop
         id="stop150"
         offset="0.00000017"
         style="stop-opacity:1;stop-color:#000000" /><stop
         id="stop152"
         offset="1"
         style="stop-opacity:1;stop-color:#000000" /></linearGradient></defs><g
     transform="matrix(1.25,0,0,-1.25,4,129.33333)"
     id="g10"><g
       id="g12"><g
         clip-path="url(#clipPath18)"
         id="g14"><g
           id="g20"><g
             id="g22"><path
               id="path34"
               style="fill:url(#linearGradient32);stroke:none"
               d="M 50,100 C 12.956,100 0,87.039 0,50 v 0 C 0,12.961 12.956,0 50,0 v 0 c 37.045,0 50,12.961 50,50 v 0 c 0,37.044 -12.955,50 -50,50 z"
               inkscape:connector-curvature="0" /></g></g></g></g><g
       id="g36"><g
         clip-path="url(#clipPath42)"
         id="g38"><g
           id="g44"><g
             id="g46"><path
               id="path56"
               style="fill:url(#linearGradient54);stroke:none"
               d="M 50,100 C 12.96,100 0,87.04 0,50 v 0 C 0,12.96 12.96,0 50,0 v 0 c 37.04,0 50,12.96 50,50 v 0 c 0,37.04 -12.96,50 -50,50 z M 44.99,79.32 c 0,2.77 2.24,5.01 5.01,5.01 v 0 c 2.77,0 5.01,-2.24 5.01,-5.01 v 0 c 0,-2.76 -2.24,-5 -5.01,-5 v 0 c -2.77,0 -5.01,2.24 -5.01,5 m 15.2,-11.66 c -2.39,1.38 -3.209,4.44 -1.829,6.84 v 0 c 1.379,2.39 4.448,3.21 6.84,1.83 v 0 C 67.6,74.95 68.42,71.88 67.04,69.49 v 0 c -0.931,-1.608 -2.612,-2.507 -4.342,-2.507 v 0 c -0.852,0 -1.716,0.218 -2.508,0.677 m -27.23,1.83 c -1.38,2.39 -0.56,5.46 1.839,6.84 v 0 c 2.391,1.38 5.461,0.56 6.841,-1.83 v 0 c 1.38,-2.4 0.56,-5.46 -1.83,-6.84 v 0 c -0.792,-0.459 -1.656,-0.677 -2.508,-0.677 v 0 c -1.73,0 -3.411,0.899 -4.342,2.507 m 38.1,-7.33 c -1.38,2.39 -0.56,5.46 1.829,6.84 v 0 c 2.401,1.38 5.461,0.56 6.841,-1.83 v 0 c 1.39,-2.4 0.57,-5.46 -1.83,-6.85 v 0 c -0.789,-0.454 -1.65,-0.67 -2.498,-0.67 v 0 c -1.733,0 -3.416,0.899 -4.342,2.51 M 22.1,60.32 c -2.4,1.39 -3.22,4.45 -1.83,6.85 v 0 c 1.38,2.39 4.44,3.21 6.84,1.83 v 0 c 2.39,-1.38 3.21,-4.45 1.829,-6.84 v 0 c -0.925,-1.611 -2.608,-2.51 -4.34,-2.51 v 0 c -0.849,0 -1.71,0.216 -2.499,0.67 m 22.89,4.341 c 0,2.769 2.24,5.009 5.01,5.009 v 0 c 2.77,0 5.01,-2.24 5.01,-5.009 v 0 C 55.01,61.9 52.77,59.65 50,59.65 v 0 c -2.77,0 -5.01,2.25 -5.01,5.011 M 58.361,54.83 c -1.38,2.39 -0.561,5.46 1.829,6.84 v 0 c 2.4,1.379 5.46,0.56 6.85,-1.83 v 0 c 1.38,-2.4 0.56,-5.46 -1.839,-6.85 v 0 c -0.787,-0.454 -1.647,-0.67 -2.495,-0.67 v 0 c -1.733,0 -3.42,0.899 -4.345,2.51 M 34.799,52.99 C 32.4,54.38 31.58,57.44 32.96,59.84 v 0 c 1.39,2.39 4.45,3.209 6.85,1.83 v 0 c 2.39,-1.38 3.21,-4.45 1.83,-6.84 v 0 c -0.926,-1.61 -2.614,-2.51 -4.346,-2.51 v 0 c -0.849,0 -1.708,0.216 -2.495,0.67 M 70.39,50 c 0,2.77 2.24,5.01 5.01,5.01 v 0 c 2.761,0 5.001,-2.24 5.001,-5.01 v 0 c 0,-2.77 -2.24,-5.01 -5.001,-5.01 v 0 c -2.77,0 -5.01,2.24 -5.01,5.01 m -25.4,0 c 0,2.77 2.24,5.01 5.01,5.01 v 0 c 2.77,0 5.01,-2.24 5.01,-5.01 v 0 c 0,-2.77 -2.24,-5.01 -5.01,-5.01 v 0 c -2.77,0 -5.01,2.24 -5.01,5.01 M 19.6,50 c 0,2.77 2.239,5.01 5,5.01 v 0 c 2.77,0 5.01,-2.24 5.01,-5.01 v 0 c 0,-2.77 -2.24,-5.01 -5.01,-5.01 v 0 c -2.761,0 -5,2.24 -5,5.01 M 60.19,38.33 c -2.39,1.38 -3.209,4.451 -1.829,6.84 v 0 c 1.379,2.4 4.448,3.219 6.84,1.84 v 0 C 67.6,45.62 68.42,42.559 67.04,40.16 v 0 c -0.932,-1.604 -2.616,-2.5 -4.348,-2.5 v 0 c -0.85,0 -1.712,0.216 -2.502,0.67 m -27.23,1.83 c -1.38,2.399 -0.56,5.46 1.839,6.85 v 0 c 2.391,1.379 5.461,0.56 6.841,-1.84 v 0 c 1.38,-2.389 0.56,-5.46 -1.83,-6.84 v 0 c -0.79,-0.454 -1.652,-0.67 -2.502,-0.67 v 0 c -1.732,0 -3.415,0.896 -4.348,2.5 m 12.03,-4.821 c 0,2.761 2.24,5.011 5.01,5.011 v 0 c 2.77,0 5.01,-2.25 5.01,-5.011 v 0 C 55.01,32.57 52.77,30.33 50,30.33 v 0 c -2.77,0 -5.01,2.24 -5.01,5.009 M 72.889,31 C 70.5,32.38 69.68,35.45 71.06,37.84 v 0 c 1.38,2.4 4.44,3.22 6.84,1.84 v 0 c 2.4,-1.39 3.22,-4.45 1.83,-6.85 v 0 c -0.926,-1.603 -2.608,-2.5 -4.34,-2.5 v 0 c -0.849,0 -1.711,0.216 -2.501,0.67 M 20.27,32.83 c -1.39,2.4 -0.57,5.46 1.83,6.85 v 0 c 2.4,1.38 5.46,0.56 6.839,-1.84 v 0 C 30.32,35.45 29.5,32.38 27.11,31 v 0 c -0.79,-0.454 -1.651,-0.67 -2.5,-0.67 v 0 c -1.732,0 -3.414,0.897 -4.34,2.5 M 58.361,25.5 c -1.38,2.4 -0.561,5.46 1.829,6.84 v 0 c 2.4,1.39 5.46,0.57 6.85,-1.83 v 0 c 1.38,-2.39 0.56,-5.46 -1.839,-6.84 v 0 C 64.414,23.216 63.553,23 62.703,23 v 0 c -1.731,0 -3.417,0.897 -4.342,2.5 M 34.799,23.67 C 32.4,25.05 31.58,28.12 32.96,30.51 v 0 c 1.39,2.4 4.45,3.22 6.85,1.83 v 0 c 2.39,-1.38 3.21,-4.44 1.83,-6.84 v 0 C 40.714,23.897 39.028,23 37.296,23 v 0 c -0.849,0 -1.71,0.216 -2.497,0.67 M 44.99,20.679 c 0,2.762 2.24,5.001 5.01,5.001 v 0 c 2.77,0 5.01,-2.239 5.01,-5.001 v 0 C 55.01,17.91 52.77,15.67 50,15.67 v 0 c -2.77,0 -5.01,2.24 -5.01,5.009"
               inkscape:connector-curvature="0" /></g></g></g></g><g
       id="g58"><g
         clip-path="url(#clipPath64)"
         id="g60"><g
           id="g66"><g
             id="g68" /><g
             mask="url(#mask82)"
             id="g94"><g
               id="g96"><path
                 id="path106"
                 style="fill:url(#linearGradient104);stroke:none"
                 d="m 21.064,46.457 c 0,10e-4 -0.001,0.002 -0.002,0.003 v 0 z"
                 inkscape:connector-curvature="0" /></g></g></g></g></g><g
       id="g108"><g
         clip-path="url(#clipPath114)"
         id="g110"><g
           id="g116"><g
             id="g118" /><g
             mask="url(#mask132)"
             id="g144"><g
               id="g146"><path
                 id="path156"
                 style="fill:url(#linearGradient154);stroke:none"
                 d="m 55.01,79.32 c 0,-2.76 -2.24,-5 -5.01,-5 v 0 c -1.323,0 -2.516,0.52 -3.411,1.356 v 0 L 60.47,61.796 c 2.354,1.169 5.232,0.345 6.57,-1.956 v 0 c 1.38,-2.4 0.56,-5.46 -1.839,-6.85 v 0 c -2.392,-1.38 -5.461,-0.56 -6.84,1.84 v 0 c -1.367,2.366 -0.572,5.393 1.764,6.793 v 0 l -6.58,6.58 c 0.905,-0.906 1.465,-2.158 1.465,-3.542 v 0 C 55.01,61.9 52.77,59.65 50,59.65 v 0 c -2.77,0 -5.01,2.25 -5.01,5.011 v 0 c 0,1.826 0.984,3.405 2.441,4.281 v 0 l -6.591,6.591 -0.01,-0.011 c 0.305,-0.303 0.585,-0.633 0.81,-1.022 v 0 c 1.38,-2.4 0.56,-5.46 -1.83,-6.84 v 0 c -2.01,-1.163 -4.471,-0.761 -6.037,0.805 v 0 L 33.77,68.461 47.767,54.464 c 0.675,0.338 1.426,0.546 2.233,0.546 v 0 c 2.77,0 5.01,-2.24 5.01,-5.01 v 0 c 0,-2.77 -2.24,-5.01 -5.01,-5.01 v 0 c -2.77,0 -5.01,2.24 -5.01,5.01 v 0 c 0,1.827 0.985,3.409 2.444,4.284 v 0 l -6.59,6.59 -0.013,-0.012 c 1.561,-1.564 1.965,-4.031 0.809,-6.032 v 0 c -1.38,-2.4 -4.45,-3.22 -6.841,-1.84 v 0 C 32.4,54.38 31.58,57.44 32.96,59.84 v 0 c 0.444,0.763 1.069,1.346 1.776,1.768 v 0 L 28.145,68.2 28.134,68.189 c 1.559,-1.564 1.961,-4.028 0.805,-6.029 v 0 C 27.56,59.76 24.5,58.94 22.1,60.32 v 0 c -0.389,0.226 -0.72,0.507 -1.025,0.811 v 0 L 21.067,61.123 35.062,47.128 c 2.348,1.181 5.247,0.358 6.578,-1.958 v 0 c 1.38,-2.389 0.56,-5.46 -1.83,-6.84 v 0 c -2.4,-1.38 -5.46,-0.561 -6.85,1.83 v 0 c -1.362,2.369 -0.573,5.375 1.755,6.789 v 0 l -6.459,6.458 C 29.09,52.512 29.61,51.322 29.61,50 v 0 c 0,-2.77 -2.24,-5.01 -5.01,-5.01 v 0 c -1.38,0 -2.629,0.56 -3.534,1.466 v 0 L 35.047,32.475 c 1.459,0.734 3.242,0.746 4.763,-0.135 v 0 c 2.39,-1.38 3.21,-4.44 1.83,-6.84 v 0 c -1.38,-2.39 -4.45,-3.21 -6.841,-1.83 v 0 C 32.4,25.05 31.58,28.12 32.96,30.51 v 0 c 0.444,0.767 1.068,1.35 1.776,1.774 v 0 L 28.141,38.88 28.13,38.867 c 0.304,-0.304 0.585,-0.637 0.809,-1.027 v 0 C 30.32,35.45 29.5,32.38 27.11,31 v 0 c -2.012,-1.156 -4.475,-0.751 -6.036,0.812 v 0 L 21.071,31.81 52.848,0.032 C 86.769,0.681 99.321,13.24 99.967,47.166 v 0 l -21.031,21.032 -0.01,-0.01 c 0.302,-0.302 0.581,-0.631 0.804,-1.018 v 0 c 1.39,-2.4 0.57,-5.46 -1.83,-6.85 v 0 c -2.4,-1.38 -5.46,-0.56 -6.84,1.84 v 0 c -1.365,2.364 -0.572,5.388 1.758,6.789 v 0 l -6.581,6.581 -0.01,-0.011 c 1.565,-1.563 1.969,-4.028 0.813,-6.029 v 0 c -1.39,-2.4 -4.45,-3.22 -6.85,-1.83 v 0 c -2.39,1.38 -3.209,4.44 -1.829,6.84 v 0 c 0.439,0.762 1.061,1.343 1.767,1.766 v 0 l -6.519,6.518 c 0.864,-0.9 1.401,-2.116 1.401,-3.464 M 70.39,50 c 0,2.77 2.24,5.01 5.01,5.01 v 0 c 2.761,0 5.001,-2.24 5.001,-5.01 v 0 c 0,-2.77 -2.24,-5.01 -5.001,-5.01 v 0 c -2.77,0 -5.01,2.24 -5.01,5.01 M 60.19,38.33 c -2.39,1.38 -3.209,4.451 -1.829,6.84 v 0 c 1.379,2.4 4.448,3.219 6.84,1.84 v 0 C 67.6,45.62 68.42,42.559 67.04,40.16 v 0 c -0.932,-1.604 -2.616,-2.5 -4.348,-2.5 v 0 c -0.85,0 -1.712,0.216 -2.502,0.67 m -15.2,-2.991 c 0,2.761 2.24,5.011 5.01,5.011 v 0 c 2.77,0 5.01,-2.25 5.01,-5.011 v 0 C 55.01,32.57 52.77,30.33 50,30.33 v 0 c -2.77,0 -5.01,2.24 -5.01,5.009 M 72.889,31 C 70.5,32.38 69.68,35.45 71.06,37.84 v 0 c 1.38,2.4 4.44,3.22 6.84,1.84 v 0 c 2.4,-1.39 3.22,-4.45 1.83,-6.85 v 0 c -0.926,-1.603 -2.608,-2.5 -4.34,-2.5 v 0 c -0.849,0 -1.711,0.216 -2.501,0.67 M 58.361,25.5 c -1.38,2.4 -0.561,5.46 1.829,6.84 v 0 c 2.4,1.39 5.46,0.57 6.85,-1.83 v 0 c 1.38,-2.39 0.56,-5.46 -1.839,-6.84 v 0 C 64.414,23.216 63.553,23 62.703,23 v 0 c -1.731,0 -3.417,0.897 -4.342,2.5 M 44.99,20.679 c 0,2.762 2.24,5.001 5.01,5.001 v 0 c 2.77,0 5.01,-2.239 5.01,-5.001 v 0 C 55.01,17.91 52.77,15.67 50,15.67 v 0 c -2.77,0 -5.01,2.24 -5.01,5.009"
                 inkscape:connector-curvature="0" /></g></g></g></g></g></g></svg>