<?xml version="1.0" encoding="UTF-8" standalone="no"?>
<svg
   xmlns:dc="http://purl.org/dc/elements/1.1/"
   xmlns:cc="http://creativecommons.org/ns#"
   xmlns:rdf="http://www.w3.org/1999/02/22-rdf-syntax-ns#"
   xmlns:svg="http://www.w3.org/2000/svg"
   xmlns="http://www.w3.org/2000/svg"
   xmlns:sodipodi="http://sodipodi.sourceforge.net/DTD/sodipodi-0.dtd"
   xmlns:inkscape="http://www.inkscape.org/namespaces/inkscape"
   viewBox="0 0 133.33333 133.33333"
   height="133.33333"
   width="133.33333"
   xml:space="preserve"
   id="svg2"
   version="1.1"
   sodipodi:docname="harbour-worldclock.svg"
   inkscape:version="0.92.2 2405546, 2018-03-11"><sodipodi:namedview
     pagecolor="#ffffff"
     bordercolor="#666666"
     borderopacity="1"
     objecttolerance="10"
     gridtolerance="10"
     guidetolerance="10"
     inkscape:pageopacity="0"
     inkscape:pageshadow="2"
     inkscape:window-width="1366"
     inkscape:window-height="706"
     id="namedview78"
     showgrid="false"
     inkscape:zoom="1.7700001"
     inkscape:cx="66.666664"
     inkscape:cy="66.666664"
     inkscape:window-x="0"
     inkscape:window-y="34"
     inkscape:window-maximized="1"
     inkscape:current-layer="svg2" /><metadata
     id="metadata8"><rdf:RDF><cc:Work
         rdf:about=""><dc:format>image/svg+xml</dc:format><dc:type
           rdf:resource="http://purl.org/dc/dcmitype/StillImage" /></cc:Work></rdf:RDF></metadata><defs
     id="defs6"><clipPath
       id="clipPath18"
       clipPathUnits="userSpaceOnUse"><path
         id="path16"
         d="M 50,100 C 12.956,100 0,87.039 0,50 v 0 C 0,12.961 12.956,0 50,0 v 0 c 37.045,0 50,12.961 50,50 v 0 c 0,37.044 -12.955,50 -50,50 z" /></clipPath><linearGradient
       id="linearGradient30"
       spreadMethod="pad"
       gradientTransform="matrix(77.78125,-77.78125,-77.78125,-77.78125,11.109896,88.891144)"
       gradientUnits="userSpaceOnUse"
       y2="0"
       x2="1"
       y1="0"
       x1="0"><stop
         id="stop24"
         offset="0"
         style="stop-opacity:1;stop-color:#94e9f7" /><stop
         id="stop26"
         offset="0.00000049"
         style="stop-opacity:1;stop-color:#94e9f7" /><stop
         id="stop28"
         offset="1"
         style="stop-opacity:1;stop-color:#3bbfff" /></linearGradient><clipPath
       id="clipPath40"
       clipPathUnits="userSpaceOnUse"><path
         id="path38"
         d="M 0,100 H 100 V 0 H 0 Z" /></clipPath><clipPath
       id="clipPath48"
       clipPathUnits="userSpaceOnUse"><path
         id="path46"
         d="M 3.32104,99.7002 H 56.25 V 15.5625 H 3.32104 Z" /></clipPath><clipPath
       id="clipPath64"
       clipPathUnits="userSpaceOnUse"><path
         id="path62"
         d="M 67.9167,98.5809 H 100 V 25.75 H 67.9167 Z" /></clipPath><clipPath
       id="clipPath80"
       clipPathUnits="userSpaceOnUse"><path
         id="path78"
         d="M 50,50.416 23.251,63.544 41.356,45.439 40.956,43.958 79.943,4.972 C 94.372,11.651 100,25.599 100,50 v 0 c 0,0.376 -0.01,0.735 -0.013,1.106 v 0 L 82.633,68.46 Z" /></clipPath><clipPath
       id="clipPath88"
       clipPathUnits="userSpaceOnUse"><path
         id="path86"
         d="M -32768,32767 H 32767 V -32768 H -32768 Z" /></clipPath><linearGradient
       id="linearGradient96"
       spreadMethod="pad"
       gradientTransform="matrix(59.033794,-59.033794,-59.033794,-59.033794,38.85527,79.148605)"
       gradientUnits="userSpaceOnUse"
       y2="0"
       x2="1"
       y1="0"
       x1="0"><stop
         id="stop90"
         offset="0"
         style="stop-opacity:0.11999695;stop-color:#ffffff" /><stop
         id="stop92"
         offset="0.00000049"
         style="stop-opacity:0.11999695;stop-color:#ffffff" /><stop
         id="stop94"
         offset="1"
         style="stop-opacity:0;stop-color:#ffffff" /></linearGradient><mask
       id="mask98"
       height="1"
       width="1"
       y="0"
       x="0"
       maskUnits="userSpaceOnUse"><g
         id="g108"><g
           id="g106"
           clip-path="url(#clipPath88)"><g
             id="g104"><g
               id="g102"><path
                 id="path100"
                 style="fill:url(#linearGradient96);stroke:none"
                 d="M -32768,32767 H 32767 V -32768 H -32768 Z" /></g></g></g></g></mask><linearGradient
       id="linearGradient120"
       spreadMethod="pad"
       gradientTransform="matrix(59.033794,-59.033794,-59.033794,-59.033794,38.85527,79.148605)"
       gradientUnits="userSpaceOnUse"
       y2="0"
       x2="1"
       y1="0"
       x1="0"><stop
         id="stop114"
         offset="0"
         style="stop-opacity:1;stop-color:#000000" /><stop
         id="stop116"
         offset="0.00000049"
         style="stop-opacity:1;stop-color:#000000" /><stop
         id="stop118"
         offset="1"
         style="stop-opacity:1;stop-color:#000000" /></linearGradient><clipPath
       id="clipPath130"
       clipPathUnits="userSpaceOnUse"><path
         id="path128"
         d="M 0,100 H 100 V 0 H 0 Z" /></clipPath><clipPath
       id="clipPath138"
       clipPathUnits="userSpaceOnUse"><path
         id="path136"
         d="M 29.743,9.125 H 72.0007 V 0 H 29.743 Z" /></clipPath></defs><g
     transform="matrix(1.25,0,0,-1.25,4,129.33333)"
     id="g10"><g
       id="g12"><g
         clip-path="url(#clipPath18)"
         id="g14"><g
           id="g20"><g
             id="g22"><path
               id="path32"
               style="fill:url(#linearGradient30);stroke:none"
               d="M 50,100 C 12.956,100 0,87.039 0,50 v 0 C 0,12.961 12.956,0 50,0 v 0 c 37.045,0 50,12.961 50,50 v 0 c 0,37.044 -12.955,50 -50,50 z"
               inkscape:connector-curvature="0" /></g></g></g></g><g
       id="g34"><g
         clip-path="url(#clipPath40)"
         id="g36"><g
           id="g42"><g
             id="g44" /><g
             id="g56"><g
               style="opacity:0.39999402"
               id="g54"
               clip-path="url(#clipPath48)"><g
                 id="g52"
                 transform="translate(47.9585,59.2915)"><path
                   id="path50"
                   style="fill:#ffffff;fill-opacity:1;fill-rule:nonzero;stroke:none"
                   d="m 0,0 -1.542,1.792 -3.833,0.875 -1.667,4.625 -5.666,0.458 -1,1.708 -0.625,2.084 -2.125,1.125 -1.875,-1.75 -8.209,-0.125 -2.875,-2.292 -1.791,-0.25 -3.125,2.792 0.625,1.958 -0.292,3 -1.667,0.333 -1.166,-2 -1.875,0.75 -0.209,4 2.125,3.417 3.792,2.708 2.042,-0.458 1.25,-3.042 h 1.875 v 4.084 l 3.333,2.875 3.208,3.958 5.167,3.917 9.917,1.625 1.666,1.458 -2.395,0.784 c -20.896,-1.457 -32.529,-8.484 -37.7,-23.919 l 0.845,-0.615 4.084,-3.167 2.666,-1.583 2.584,-3.917 4.083,-0.916 0.667,-2.584 -2.25,-4.25 0.75,-5.833 2.916,-2.417 1.084,-3.166 2.916,-1.084 3,-4.083 0.709,-14.323 3.25,-4.781 1.468,-4.625 2.157,-2.344 2.031,-0.531 0.437,1.687 -1.093,0.344 -0.875,1.156 1,1 -0.334,3.167 1,4.5 h 2.5 l 0.667,3.667 1.792,1.125 1.708,1.708 1,4.333 2.417,2.25 h 2.666 l 1.667,2.834 1,3.916 -0.583,3.834 4.166,2.333 0.834,3.833 L 4.583,0.5 Z"
                   inkscape:connector-curvature="0" /></g></g></g></g><g
           id="g58"><g
             id="g60" /><g
             id="g72"><g
               style="opacity:0.39999402"
               id="g70"
               clip-path="url(#clipPath64)"><g
                 id="g68"
                 transform="translate(68.2441,98.5811)"><path
                   id="path66"
                   style="fill:#ffffff;fill-opacity:1;fill-rule:nonzero;stroke:none"
                   d="m 0,0 -0.327,-0.498 1.5,-1.333 2.5,0.5 2.166,-1.667 3.334,-1.417 0.416,-2.416 H 7.173 l 0.083,-3 4.583,-1 1.25,3.833 h 1.25 l 0.417,-2.417 4,-0.583 v -2 h -6.667 l -3.416,-2 -2.334,-3.333 -0.583,-6.584 0.333,-4.416 3.667,-2.167 1.5,-2 -1.417,-1.583 2.75,-2.584 h 8.084 l 3.666,-3.583 -0.5,-6.167 -0.166,-8.749 -1.584,-3.584 -0.75,-9.666 1.834,-4.417 4.166,2.583 2.917,5.417 0.489,0.489 c 0.687,4.685 1.011,9.923 1.011,15.761 C 31.756,-18.429 23.17,-4.238 0,0"
                   inkscape:connector-curvature="0" /></g></g></g></g></g></g><g
       id="g74"><g
         clip-path="url(#clipPath80)"
         id="g76"><g
           id="g82"><g
             id="g84" /><g
             mask="url(#mask98)"
             id="g110"><g
               id="g112"><path
                 id="path122"
                 style="fill:url(#linearGradient120);stroke:none"
                 d="M 50,50.416 23.251,63.544 41.356,45.439 40.956,43.958 79.943,4.972 C 94.372,11.651 100,25.599 100,50 v 0 c 0,0.376 -0.01,0.735 -0.013,1.106 v 0 L 82.633,68.46 Z"
                 inkscape:connector-curvature="0" /></g></g></g></g></g><g
       id="g124"><g
         clip-path="url(#clipPath130)"
         id="g126"><g
           id="g132"><g
             id="g134" /><g
             id="g146"><g
               style="opacity:0.39999402"
               id="g144"
               clip-path="url(#clipPath138)"><g
                 id="g142"
                 transform="translate(50)"><path
                   id="path140"
                   style="fill:#ffffff;fill-opacity:1;fill-rule:nonzero;stroke:none"
                   d="M 0,0 C 8.587,0 15.864,0.707 22.001,2.238 L 21.875,2.792 18.917,4.458 16.625,4.708 13.167,4.292 8.375,5.583 7.208,6.917 2.167,4.125 1.167,0.292 -8.875,2.083 h -1.375 l -0.208,0.959 1.416,1.125 0.584,3.041 -3.459,1.917 -0.625,-3.458 h -3.291 L -17.708,4.292 -20.257,1.83 C -14.496,0.581 -7.786,0 0,0"
                   inkscape:connector-curvature="0" /></g></g></g></g><g
           transform="translate(40.9565,43.958)"
           id="g148"><path
             id="path150"
             style="fill:#6e6e6e;fill-opacity:1;fill-rule:nonzero;stroke:none"
             d="m 0,0 -1.056,2.006 42.732,22.496 1.056,-2.005 z"
             inkscape:connector-curvature="0" /></g><g
           transform="translate(23.251,63.5444)"
           id="g152"><path
             id="path154"
             style="fill:#494949;fill-opacity:1;fill-rule:nonzero;stroke:none"
             d="M 0,0 2.924,4.658 35.004,-15.48 32.08,-20.138 Z"
             inkscape:connector-curvature="0" /></g></g></g></g></svg>