<?xml version="1.0" encoding="UTF-8" standalone="no"?>
<svg
   xmlns:dc="http://purl.org/dc/elements/1.1/"
   xmlns:cc="http://creativecommons.org/ns#"
   xmlns:rdf="http://www.w3.org/1999/02/22-rdf-syntax-ns#"
   xmlns:svg="http://www.w3.org/2000/svg"
   xmlns="http://www.w3.org/2000/svg"
   xmlns:sodipodi="http://sodipodi.sourceforge.net/DTD/sodipodi-0.dtd"
   xmlns:inkscape="http://www.inkscape.org/namespaces/inkscape"
   viewBox="0 0 133.33333 133.33333"
   height="133.33333"
   width="133.33333"
   xml:space="preserve"
   id="svg2"
   version="1.1"
   sodipodi:docname="harbour-zaster.svg"
   inkscape:version="0.92.2 2405546, 2018-03-11"><sodipodi:namedview
     pagecolor="#ffffff"
     bordercolor="#666666"
     borderopacity="1"
     objecttolerance="10"
     gridtolerance="10"
     guidetolerance="10"
     inkscape:pageopacity="0"
     inkscape:pageshadow="2"
     inkscape:window-width="1366"
     inkscape:window-height="706"
     id="namedview83"
     showgrid="false"
     inkscape:zoom="1.7700001"
     inkscape:cx="66.666664"
     inkscape:cy="66.666664"
     inkscape:window-x="0"
     inkscape:window-y="34"
     inkscape:window-maximized="1"
     inkscape:current-layer="svg2" /><metadata
     id="metadata8"><rdf:RDF><cc:Work
         rdf:about=""><dc:format>image/svg+xml</dc:format><dc:type
           rdf:resource="http://purl.org/dc/dcmitype/StillImage" /></cc:Work></rdf:RDF></metadata><defs
     id="defs6"><clipPath
       id="clipPath18"
       clipPathUnits="userSpaceOnUse"><path
         id="path16"
         d="M 50,100 C 12.956,100 0,87.039 0,50 v 0 C 0,12.961 12.956,0 50,0 v 0 c 37.045,0 50,12.961 50,50 v 0 c 0,37.044 -12.955,50 -50,50 z" /></clipPath><linearGradient
       id="linearGradient30"
       spreadMethod="pad"
       gradientTransform="matrix(77.78125,-77.78125,-77.78125,-77.78125,11.109896,88.891144)"
       gradientUnits="userSpaceOnUse"
       y2="0"
       x2="1"
       y1="0"
       x1="0"><stop
         id="stop24"
         offset="0"
         style="stop-opacity:1;stop-color:#e5ecf2" /><stop
         id="stop26"
         offset="0.00000039"
         style="stop-opacity:1;stop-color:#e5ecf2" /><stop
         id="stop28"
         offset="1"
         style="stop-opacity:1;stop-color:#c6d5de" /></linearGradient><clipPath
       id="clipPath40"
       clipPathUnits="userSpaceOnUse"><path
         id="path38"
         d="M 50.834,51.042 20.79,20.998 41.519,0.268 C 44.199,0.094 47.012,0 50,0 v 0 c 37.045,0 50,12.961 50,50 v 0 c 0,3.008 -0.095,5.84 -0.272,8.537 v 0 l -20.7,20.7 z" /></clipPath><clipPath
       id="clipPath48"
       clipPathUnits="userSpaceOnUse"><path
         id="path46"
         d="M -32768,32767 H 32767 V -32768 H -32768 Z" /></clipPath><linearGradient
       id="linearGradient56"
       spreadMethod="pad"
       gradientTransform="matrix(38.994839,-38.994839,-38.994839,-38.994839,49.90892,50.117355)"
       gradientUnits="userSpaceOnUse"
       y2="0"
       x2="1"
       y1="0"
       x1="0"><stop
         id="stop50"
         offset="0"
         style="stop-opacity:0.07998779;stop-color:#ffffff" /><stop
         id="stop52"
         offset="0.00000018"
         style="stop-opacity:0.07998779;stop-color:#ffffff" /><stop
         id="stop54"
         offset="1"
         style="stop-opacity:0;stop-color:#ffffff" /></linearGradient><mask
       id="mask58"
       height="1"
       width="1"
       y="0"
       x="0"
       maskUnits="userSpaceOnUse"><g
         id="g68"><g
           id="g66"
           clip-path="url(#clipPath48)"><g
             id="g64"><g
               id="g62"><path
                 id="path60"
                 style="fill:url(#linearGradient56);stroke:none"
                 d="M -32768,32767 H 32767 V -32768 H -32768 Z" /></g></g></g></g></mask><linearGradient
       id="linearGradient80"
       spreadMethod="pad"
       gradientTransform="matrix(38.994839,-38.994839,-38.994839,-38.994839,49.90892,50.117355)"
       gradientUnits="userSpaceOnUse"
       y2="0"
       x2="1"
       y1="0"
       x1="0"><stop
         id="stop74"
         offset="0"
         style="stop-opacity:1;stop-color:#000000" /><stop
         id="stop76"
         offset="0.00000018"
         style="stop-opacity:1;stop-color:#000000" /><stop
         id="stop78"
         offset="1"
         style="stop-opacity:1;stop-color:#000000" /></linearGradient><clipPath
       id="clipPath90"
       clipPathUnits="userSpaceOnUse"><path
         id="path88"
         d="M 12.5,50 C 12.5,22.221 22.217,12.5 50,12.5 v 0 c 27.783,0 37.5,9.721 37.5,37.5 v 0 c 0,27.783 -9.717,37.5 -37.5,37.5 v 0 C 22.217,87.5 12.5,77.779 12.5,50" /></clipPath><linearGradient
       id="linearGradient100"
       spreadMethod="pad"
       gradientTransform="matrix(58.335937,-58.335937,-58.335937,-58.335937,20.832422,79.168358)"
       gradientUnits="userSpaceOnUse"
       y2="0"
       x2="1"
       y1="0"
       x1="0"><stop
         id="stop96"
         offset="0"
         style="stop-opacity:1;stop-color:#bbc9d4" /><stop
         id="stop98"
         offset="1"
         style="stop-opacity:1;stop-color:#8699a6" /></linearGradient><clipPath
       id="clipPath110"
       clipPathUnits="userSpaceOnUse"><path
         id="path108"
         d="M 41.75,71.875 32.333,58.917 37.375,53.875 36.5,53.125 40.313,49.313 36.5,43.813 38.906,41.406 30.083,28.833 46.348,12.568 C 47.534,12.527 48.741,12.5 50,12.5 v 0 c 27.783,0 37.5,9.721 37.5,37.5 v 0 c 0,2.408 -0.078,4.671 -0.23,6.813 v 0 L 70.833,73.25 Z" /></clipPath><clipPath
       id="clipPath118"
       clipPathUnits="userSpaceOnUse"><path
         id="path116"
         d="M -32768,32767 H 32767 V -32768 H -32768 Z" /></clipPath><linearGradient
       id="linearGradient126"
       spreadMethod="pad"
       gradientTransform="matrix(44.230469,-44.230469,-44.230469,-44.230469,35.6875,65.8125)"
       gradientUnits="userSpaceOnUse"
       y2="0"
       x2="1"
       y1="0"
       x1="0"><stop
         id="stop120"
         offset="0"
         style="stop-opacity:0.07998779;stop-color:#ffffff" /><stop
         id="stop122"
         offset="0.00000018"
         style="stop-opacity:0.07998779;stop-color:#ffffff" /><stop
         id="stop124"
         offset="1"
         style="stop-opacity:0;stop-color:#ffffff" /></linearGradient><mask
       id="mask128"
       height="1"
       width="1"
       y="0"
       x="0"
       maskUnits="userSpaceOnUse"><g
         id="g138"><g
           id="g136"
           clip-path="url(#clipPath118)"><g
             id="g134"><g
               id="g132"><path
                 id="path130"
                 style="fill:url(#linearGradient126);stroke:none"
                 d="M -32768,32767 H 32767 V -32768 H -32768 Z" /></g></g></g></g></mask><linearGradient
       id="linearGradient150"
       spreadMethod="pad"
       gradientTransform="matrix(44.230469,-44.230469,-44.230469,-44.230469,35.6875,65.8125)"
       gradientUnits="userSpaceOnUse"
       y2="0"
       x2="1"
       y1="0"
       x1="0"><stop
         id="stop144"
         offset="0"
         style="stop-opacity:1;stop-color:#000000" /><stop
         id="stop146"
         offset="0.00000018"
         style="stop-opacity:1;stop-color:#000000" /><stop
         id="stop148"
         offset="1"
         style="stop-opacity:1;stop-color:#000000" /></linearGradient><clipPath
       id="clipPath160"
       clipPathUnits="userSpaceOnUse"><path
         id="path158"
         d="M 0,100 H 100 V 0 H 0 Z" /></clipPath></defs><g
     transform="matrix(1.25,0,0,-1.25,4,129.33333)"
     id="g10"><g
       id="g12"><g
         clip-path="url(#clipPath18)"
         id="g14"><g
           id="g20"><g
             id="g22"><path
               id="path32"
               style="fill:url(#linearGradient30);stroke:none"
               d="M 50,100 C 12.956,100 0,87.039 0,50 v 0 C 0,12.961 12.956,0 50,0 v 0 c 37.045,0 50,12.961 50,50 v 0 c 0,37.044 -12.955,50 -50,50 z"
               inkscape:connector-curvature="0" /></g></g></g></g><g
       id="g34"><g
         clip-path="url(#clipPath40)"
         id="g36"><g
           id="g42"><g
             id="g44" /><g
             mask="url(#mask58)"
             id="g70"><g
               id="g72"><path
                 id="path82"
                 style="fill:url(#linearGradient80);stroke:none"
                 d="M 50.834,51.042 20.79,20.998 41.519,0.268 C 44.199,0.094 47.012,0 50,0 v 0 c 37.045,0 50,12.961 50,50 v 0 c 0,3.008 -0.095,5.84 -0.272,8.537 v 0 l -20.7,20.7 z"
                 inkscape:connector-curvature="0" /></g></g></g></g></g><g
       id="g84"><g
         clip-path="url(#clipPath90)"
         id="g86"><g
           id="g92"><g
             id="g94"><path
               id="path102"
               style="fill:url(#linearGradient100);stroke:none"
               d="M 12.5,50 C 12.5,22.221 22.217,12.5 50,12.5 v 0 c 27.783,0 37.5,9.721 37.5,37.5 v 0 c 0,27.783 -9.717,37.5 -37.5,37.5 v 0 C 22.217,87.5 12.5,77.779 12.5,50"
               inkscape:connector-curvature="0" /></g></g></g></g><g
       id="g104"><g
         clip-path="url(#clipPath110)"
         id="g106"><g
           id="g112"><g
             id="g114" /><g
             mask="url(#mask128)"
             id="g140"><g
               id="g142"><path
                 id="path152"
                 style="fill:url(#linearGradient150);stroke:none"
                 d="M 41.75,71.875 32.333,58.917 37.375,53.875 36.5,53.125 40.313,49.313 36.5,43.813 38.906,41.406 30.083,28.833 46.348,12.568 C 47.534,12.527 48.741,12.5 50,12.5 v 0 c 27.783,0 37.5,9.721 37.5,37.5 v 0 c 0,2.408 -0.078,4.671 -0.23,6.813 v 0 L 70.833,73.25 Z"
                 inkscape:connector-curvature="0" /></g></g></g></g></g><g
       id="g154"><g
         clip-path="url(#clipPath160)"
         id="g156"><g
           transform="translate(69.417,44.667)"
           id="g162"><path
             id="path164"
             style="fill:#dce1e3;fill-opacity:1;fill-rule:nonzero;stroke:none"
             d="m 0,0 -5.021,-8.346 c -1.021,-1.699 -2.859,-2.738 -4.841,-2.738 h -15.221 l 7.564,10.23 h 14.352 v 5.812 h -10.054 l 2.589,3.5 h 7.465 v 5.813 H -6.333 L 1.416,24.75 v 3.833 h -37.249 l -1.25,-14.333 h 2.25 l 4.753,7.532 c 1.035,1.64 2.839,2.635 4.778,2.635 h 12.885 L -19.848,14.271 H -32.917 V 8.458 h 8.812 l -2.564,-3.5 h -6.248 v -5.812 h 1.991 l -8.407,-11.48 v -3.5 H 0.916 L 2.166,0 Z"
             inkscape:connector-curvature="0" /></g></g></g></g></svg>