<svg xmlns="http://www.w3.org/2000/svg" xmlns:xlink="http://www.w3.org/1999/xlink" width="192" height="192" viewBox="0 0 192 192"><defs><style>.cls-1{fill:none;}.cls-2{opacity:0.01;}.cls-2,.cls-3,.cls-4,.cls-5{isolation:isolate;}.cls-3{opacity:0.02;}.cls-4{opacity:0.04;}.cls-5{opacity:0.06;}.cls-6{fill:#004da0;}.cls-7{fill:url(#未命名的渐变_3);}.cls-8{fill:url(#未命名的渐变_2);}.cls-9{fill:url(#未命名的渐变_90);}.cls-10{fill:#fafafa;}.cls-11{fill:#fff;}</style><linearGradient id="未命名的渐变_3" x1="166.004" y1="27.998" x2="25.998" y2="168.004" gradientTransform="matrix(1, 0, 0, -1, 0, 194)" gradientUnits="userSpaceOnUse"><stop offset="0" stop-opacity="0.1"/><stop offset="0.5" stop-color="gray" stop-opacity="0.05"/><stop offset="1" stop-color="#fff" stop-opacity="0.1"/></linearGradient><linearGradient id="未命名的渐变_2" x1="166.012" y1="75.988" x2="25.987" y2="216.012" gradientTransform="matrix(1, 0, 0, -1, 0, 242)" gradientUnits="userSpaceOnUse"><stop offset="0" stop-opacity="0.04"/><stop offset="0.5" stop-color="gray" stop-opacity="0"/><stop offset="1" stop-color="#fff" stop-opacity="0.1"/></linearGradient><linearGradient id="未命名的渐变_90" x1="165.908" y1="166.097" x2="68.133" y2="68.323" gradientUnits="userSpaceOnUse"><stop offset="0" stop-opacity="0.04"/><stop offset="1" stop-opacity="0.12"/></linearGradient></defs><title>bank_spdb</title><g id="图层_2" data-name="图层 2"><g id="图层_1-2" data-name="图层 1"><rect class="cls-1" width="192" height="192"/><path class="cls-2" d="M96,190C27.3,190,3,165.7,3,97S27.3,4,96,4s93,24.3,93,93S164.7,190,96,190Z"/><path class="cls-3" d="M96,189C28.1,189,4,164.9,4,97S28.1,5,96,5s92,24.1,92,92S163.9,189,96,189Z"/><path class="cls-4" d="M96,188C28.8,188,5,164.2,5,97S28.8,6,96,6s91,23.8,91,91S163.2,188,96,188Z"/><path class="cls-5" d="M186,97c0,66.7-23.3,90-90,90S6,163.7,6,97,29.3,7,96,7,186,30.3,186,97Z"/><path class="cls-6" d="M186,96c0,66.7-23.3,90-90,90S6,162.7,6,96,29.3,6,96,6,186,29.3,186,96Z"/><path class="cls-7" d="M186,96c0,66.67-23.32,90-90,90S6,162.67,6,96,29.32,6,96,6,186,29.32,186,96Z"/><path class="cls-8" d="M96,6C29.3,6,6,29.3,6,96s23.3,90,90,90,90-23.3,90-90S162.7,6,96,6Zm68.6,158.6C151.2,178,130,184,96,184s-55.2-6-68.6-19.4S8,130,8,96s6-55.2,19.4-68.6S62,8,96,8s55.2,6,68.6,19.4S184,62,184,96,178,151.2,164.6,164.6Z"/><path class="cls-9" d="M186,96.171,149.984,60.155,138.76,84.24,128.52,74H116L105,85H93L83,75H71L42.457,94v38.312L95.791,186H96C162.623,186,185.959,162.708,186,96.171Z"/><path class="cls-10" d="M41,90c0-10,3.9-15.22,6-18,2.386-3.151,7.325-6.559,16.321-6.559s11.969,2.734,15.449,5.2c4.634,3.281,7.19,9.033,7.19,9.033s-1.844-.082-5.973,0c-4.99.1-9.882,2.433-13.2,4.646s-9.66,8.726-9.66,17.673v39.255c0,1.721-1.032,1.6-1.966.934s-10.988-8.406-12.635-9.808S41,128.736,41,127.064C41,127.064,41,95.359,41,90ZM151,64.936c0-1.672.123-3.908-1.524-5.31s-11.7-9.143-12.634-9.807-1.967-.787-1.967.934V90.008c0,8.947-6.342,15.461-9.66,17.673s-8.21,4.548-13.2,4.646c-4.129.082-5.973,0-5.973,0s2.557,5.752,7.19,9.033c3.48,2.465,6.452,5.2,15.449,5.2S142.614,123.151,145,120c2.1-2.78,6-8,6-18C151,96.641,151,64.936,151,64.936ZM60.2,112.021a22.22,22.22,0,0,0,14.257,13.273,23.065,23.065,0,0,0,21.336-4.129c1.792-1.626,6.757-5.484,8.087-15.793.787-6.1,1.2-9.493,5.678-16.506a20.208,20.208,0,0,1,12.29-8.407,26.82,26.82,0,0,1,9.98-.54s-.491-3.638-5.85-8.653a22.727,22.727,0,0,0-15.437-5.825,22.97,22.97,0,0,0-15.829,6.464C89.155,77.362,88.32,84.54,87.926,87.44a31.11,31.11,0,0,1-2.851,10.717,25.745,25.745,0,0,1-7.733,9.775c-5.43,4.346-10.555,4.089-12.62,4.384A19.215,19.215,0,0,1,60.2,112.021Z"/><path class="cls-11" d="M61.2,114.021a19.215,19.215,0,0,0,4.523.3c2.065-.3,7.189-.038,12.62-4.384a25.745,25.745,0,0,0,7.733-9.775A31.11,31.11,0,0,0,88.926,89.44c.394-2.9,1.229-10.078,6.785-15.535a22.97,22.97,0,0,1,15.829-6.464,22.727,22.727,0,0,1,15.437,5.825,24.848,24.848,0,0,1,4.46,5.362,21.006,21.006,0,0,0-5.46-7.362,22.727,22.727,0,0,0-15.437-5.825,22.97,22.97,0,0,0-15.829,6.464C89.155,77.362,88.32,84.54,87.926,87.44a31.11,31.11,0,0,1-2.851,10.717,25.745,25.745,0,0,1-7.733,9.775c-5.431,4.346-10.555,4.089-12.62,4.384a19.215,19.215,0,0,1-4.523-.3,17.612,17.612,0,0,0,1.346,2.881C61.307,114.35,61.2,114.021,61.2,114.021Z"/><path class="cls-11" d="M42.2,132.032a13.726,13.726,0,0,1-.2-2.968S42,97.359,42,92c0-10,3.9-15.22,6-18,2.386-3.151,7.325-6.559,16.321-6.559s11.969,2.734,15.449,5.2A23.056,23.056,0,0,1,85.9,79.671l.059,0S83.4,73.921,78.77,70.64c-3.48-2.465-6.452-5.2-15.449-5.2S49.386,68.849,47,72c-2.1,2.78-6,8-6,18,0,5.359,0,37.064,0,37.064C41,128.609,40.915,130.628,42.2,132.032Z"/><path class="cls-11" d="M113.013,114.327c4.99-.1,9.882-2.433,13.2-4.646s9.66-8.726,9.66-17.673V52.753c0-1.721,1.033-1.6,1.967-.934s10.987,8.406,12.634,9.807a3.744,3.744,0,0,1,.327.342,4.119,4.119,0,0,0-1.327-2.342c-1.647-1.4-11.7-9.143-12.634-9.807s-1.967-.787-1.967.934V90.008c0,8.947-6.342,15.461-9.66,17.673s-8.21,4.548-13.2,4.646c-4.129.082-5.973,0-5.973,0a22.365,22.365,0,0,0,1.059,2C107.386,114.34,109.232,114.4,113.013,114.327Z"/></g></g></svg>