<svg xmlns="http://www.w3.org/2000/svg" xmlns:xlink="http://www.w3.org/1999/xlink" viewBox="0 0 192 192"><defs><style>.cls-1{fill:none;}.cls-2{opacity:0.01;}.cls-2,.cls-3,.cls-4,.cls-5{isolation:isolate;}.cls-3{opacity:0.02;}.cls-4{opacity:0.04;}.cls-5{opacity:0.06;}.cls-6{fill:#00a4ff;}.cls-7{fill:url(#未命名的渐变_2);}.cls-8{fill:url(#未命名的渐变_112);}.cls-9{fill:url(#未命名的渐变_7);}.cls-10{fill:#fafafa;}.cls-11{fill:#fff;}.cls-12{fill:#008cff;opacity:0.1;}</style><linearGradient id="未命名的渐变_2" x1="166" y1="188" x2="26" y2="328" gradientTransform="matrix(1, 0, 0, -1, 0, 354)" gradientUnits="userSpaceOnUse"><stop offset="0" stop-opacity="0.1"/><stop offset="0.5" stop-color="gray" stop-opacity="0.05"/><stop offset="1" stop-color="#f8f8f8" stop-opacity="0.12"/><stop offset="1" stop-color="#fff" stop-opacity="0.15"/></linearGradient><linearGradient id="未命名的渐变_112" x1="166" y1="188" x2="25.99" y2="328" gradientTransform="matrix(1, 0, 0, -1, 0, 354)" gradientUnits="userSpaceOnUse"><stop offset="0" stop-opacity="0.05"/><stop offset="0.5" stop-color="gray" stop-opacity="0"/><stop offset="1" stop-color="#fff" stop-opacity="0.1"/></linearGradient><linearGradient id="未命名的渐变_7" x1="166.97" y1="165.03" x2="70.69" y2="68.76" gradientUnits="userSpaceOnUse"><stop offset="0" stop-opacity="0.02"/><stop offset="1" stop-opacity="0.14"/></linearGradient></defs><title>gaotie</title><g id="图层_2" data-name="图层 2"><g id="图层_2-2" data-name="图层 2"><rect class="cls-1" width="192" height="192"/><path class="cls-2" d="M96,190C27.34,190,3,165.66,3,97S27.34,4,96,4s93,24.34,93,93S164.66,190,96,190Z"/><path class="cls-3" d="M96,189C28.07,189,4,164.92,4,97S28.07,5,96,5s92,24.07,92,92S163.93,189,96,189Z"/><path class="cls-4" d="M96,188C28.81,188,5,164.19,5,97S28.81,6,96,6s91,23.81,91,91S163.19,188,96,188Z"/><path class="cls-5" d="M186,97c0,66.67-23.32,90-90,90S6,163.67,6,97,29.32,7,96,7,186,30.32,186,97Z"/><path class="cls-6" d="M186,96c0,66.67-23.32,90-90,90S6,162.67,6,96,29.32,6,96,6,186,29.32,186,96Z"/><path class="cls-7" d="M186,96c0,66.67-23.32,90-90,90S6,162.67,6,96,29.32,6,96,6,186,29.32,186,96Z"/><path class="cls-8" d="M96,6C29.32,6,6,29.32,6,96s23.32,90,90,90,90-23.33,90-90S162.68,6,96,6Zm68.59,158.59C151.17,178,130,184,96,184s-55.17-6-68.59-19.41S8,130,8,96s6-55.17,19.41-68.59S62,8,96,8s55.17,6,68.59,19.41S184,62,184,96,178,151.16,164.59,164.59Z"/><path class="cls-9" d="M186,96c0-.55,0-1.1,0-1.65L163.43,71.79l-45-6.42-3,2L110,61.94,65.29,86.85,58.94,80.5,43.43,108,51,115.8H48.6l-8.88-8.88L41,128.41,98.21,186C163.19,185.47,186,161.92,186,96Z"/><path class="cls-10" d="M111.55,64.07c1,4.8-8.75,11.95-18.77,17.61C80.7,88.52,66.83,91.62,62,84.15c-4.26-6.56,14.34-22.32,26.24-24.61S110.81,60.35,111.55,64.07ZM116,105c-.4.12-1.32.4-2.17.59a1.6,1.6,0,0,1-.36,0,1.62,1.62,0,0,1-1.52-2.2c.11-.3.26-.65.45-1.07,2.31-5.15,15.92-19.39,22.86-20.84,4.32-.9,18.69-1.79,29.68-2.35-.12-1.52-.27-3-.44-4.42-8.08-.36-18.4-.71-27.69-.81-7-.07-10.33,1.41-11.22,1.77-8,3.21-27.43,19.65-33.24,24.95l-.6.55c-5.78,5.28-14.5,13.25-21.37,14.95a30.15,30.15,0,0,1-7,.7h0c-7.35,0-17.64-1.78-22.44-6.79a5.2,5.2,0,0,1-1.18-3.22,26.54,26.54,0,0,0-2.9,13.39c.54,7.13,7.6,11.58,13.18,13.51,18.22,6.3,31.65-1,61.59-13.62,16.32-6.87,39.68-19.14,52.7-25.23,0-1.32,1.07-3.68,1.07-5,0-2.35-.05-2.56-.14-4.76-11.55,2.4-27.4,6.53-34.82,11.91C124.63,101.22,119.89,103.83,116,105Zm-3.22-45.47-1.19-.45a7,7,0,0,1,3.18,4.34c.42,2.13,1.71,8.59-20.35,21.07-8.22,4.65-16.29,7.21-22.73,7.21h0c-7.13,0-10.67-3.16-12.39-5.8-.63-1-.83-3.21-.28-5.59-2,2-3.92,3.89-5.28,5.48-7.71,9-14.8,17.48-10.44,22,5.18,5.41,20,6.74,26.3,5.18s15.15-9.81,20.56-14.74,25.49-22,34.22-25.56c5.76-2.32,26.51-.78,39.93.53-.12-.91-.93-1.76-2.44-2.67C146.43,67.52,118.93,62,112.74,59.55Z"/><path class="cls-11" d="M114.44,107.68a1.6,1.6,0,0,0,.36,0c.86-.19,1.78-.47,2.17-.59,3.94-1.18,8.67-3.8,14.46-8,7.23-5.24,22.44-9.29,33.9-11.71,0-.59-.06-1.19-.1-2.24-11.55,2.4-27.4,6.53-34.82,11.91-5.79,4.2-10.52,6.81-14.46,8-.4.12-1.32.4-2.17.59a1.6,1.6,0,0,1-.36,0,1.62,1.62,0,0,1-.51-.09,1.61,1.61,0,0,0,1.53,2.13Z"/><path class="cls-11" d="M114.07,61.71c6.74,2.53,33.61,7.9,48.78,10.93.32.19.6.38.86.57l.56.05c-.12-.91-.93-1.76-2.44-2.67-15.4-3.07-42.9-8.56-49.09-11l-1.19-.45A8.17,8.17,0,0,1,114.07,61.71Z"/><path class="cls-11" d="M41.93,112.13c4.8,5,15.09,6.79,22.44,6.79h0a30.15,30.15,0,0,0,7-.7c6.86-1.7,15.59-9.67,21.37-14.95l.6-.55c5.81-5.3,25.27-21.74,33.24-24.95.89-.36,4.24-1.85,11.22-1.77,9,.09,18.94.42,26.89.77-.05-.52-.11-1-.17-1.55-3-.29-6.24-.58-9.63-.84-5.89-.2-12.21-.37-18.11-.43-7-.07-10.33,1.41-11.22,1.77-8,3.21-27.43,19.65-33.24,24.95l-.6.55c-5.78,5.28-14.5,13.25-21.37,14.95a30.15,30.15,0,0,1-7,.7h0c-7.33,0-17.59-1.77-22.4-6.75A3.83,3.83,0,0,0,41.93,112.13Z"/><path class="cls-11" d="M54.72,87.85c1.06-1.23,2.45-2.68,4-4.18a11.73,11.73,0,0,1,.3-3.34c-2,2-3.92,3.89-5.28,5.48C46.11,94.63,39.13,103,43.07,107.63,42,102.81,48.15,95.49,54.72,87.85Z"/><path class="cls-11" d="M62.46,84.82c-1.35-7.16,15.65-21.09,26.78-23.23,10.13-2,19.38,0,22.36,2.92a3.37,3.37,0,0,0-.06-.44c-.74-3.72-11.42-6.82-23.32-4.53S57.72,77.59,62,84.15Q62.21,84.5,62.46,84.82Z"/><path class="cls-11" d="M37.86,122.3a26.4,26.4,0,0,1,2.62-12.78,6.5,6.5,0,0,1-.74-2.65,26.54,26.54,0,0,0-2.9,13.39c.23,3,2,5.34,3.33,7.21C39.6,126,38,124.32,37.86,122.3Z"/><path class="cls-11" d="M60.28,88c1.72,2.65,5.26,5.8,12.39,5.8h0c6.43,0,14.5-2.56,22.73-7.21,22.06-12.48,20.77-18.95,20.35-21.07A5.89,5.89,0,0,0,114.63,63c0,.13.08.26.1.39.42,2.13,1.71,8.59-20.35,21.07-8.22,4.65-16.29,7.21-22.73,7.21h0c-6.42,0-9.93-2.56-11.82-5A3.7,3.7,0,0,0,60.28,88Z"/><path class="cls-12" d="M112.74,59.55l-1.19-.45a7,7,0,0,1,3.18,4.34c.42,2.13,1.71,8.59-20.35,21.07-8.22,4.65-16.29,7.21-22.73,7.21h0c-7.13,0-10.67-3.16-12.39-5.8-.63-1-.83-3.21-.28-5.59-2,2-3.92,3.89-5.28,5.48-7.71,9-14.8,17.48-10.44,22,5.18,5.41,20,6.74,26.3,5.18s15.15-9.81,20.56-14.74,25.49-22,34.22-25.56c5.76-2.32,26.51-.78,39.93.53-.12-.91-.93-1.76-2.44-2.67C146.43,67.52,118.93,62,112.74,59.55Z"/></g></g></svg>