<svg xmlns="http://www.w3.org/2000/svg" xmlns:xlink="http://www.w3.org/1999/xlink" viewBox="0 0 192 192"><defs><style>.cls-1{fill:none;}.cls-2{opacity:0.01;}.cls-2,.cls-3,.cls-4,.cls-5{isolation:isolate;}.cls-3{opacity:0.02;}.cls-4{opacity:0.04;}.cls-5{opacity:0.06;}.cls-6{fill:#3688ff;}.cls-7{fill:url(#未命名的渐变_20);}.cls-8{fill:url(#未命名的渐变_112);}.cls-9{fill:url(#未命名的渐变_32);}.cls-10{fill:#fafafa;}.cls-11{fill:#fff;}</style><linearGradient id="未命名的渐变_20" x1="166" y1="188" x2="26" y2="328" gradientTransform="matrix(1, 0, 0, -1, 0, 354)" gradientUnits="userSpaceOnUse"><stop offset="0" stop-opacity="0.1"/><stop offset="0.5" stop-color="gray" stop-opacity="0.05"/><stop offset="1" stop-color="#f8f8f8" stop-opacity="0.12"/><stop offset="1" stop-color="#fff" stop-opacity="0.1"/></linearGradient><linearGradient id="未命名的渐变_112" x1="166" y1="188" x2="25.99" y2="328" gradientTransform="matrix(1, 0, 0, -1, 0, 354)" gradientUnits="userSpaceOnUse"><stop offset="0" stop-opacity="0.05"/><stop offset="0.5" stop-color="gray" stop-opacity="0"/><stop offset="1" stop-color="#fff" stop-opacity="0.1"/></linearGradient><linearGradient id="未命名的渐变_32" x1="160.25" y1="171.76" x2="98.24" y2="109.76" gradientUnits="userSpaceOnUse"><stop offset="0" stop-opacity="0.02"/><stop offset="1" stop-opacity="0.12"/></linearGradient></defs><title>mxplayer</title><g id="图层_2" data-name="图层 2"><g id="图层_2-2" data-name="图层 2"><rect class="cls-1" width="192" height="192"/><path class="cls-2" d="M96,190C27.34,190,3,165.66,3,97S27.34,4,96,4s93,24.34,93,93S164.66,190,96,190Z"/><path class="cls-3" d="M96,189C28.07,189,4,164.92,4,97S28.07,5,96,5s92,24.07,92,92S163.93,189,96,189Z"/><path class="cls-4" d="M96,188C28.81,188,5,164.19,5,97S28.81,6,96,6s91,23.81,91,91S163.19,188,96,188Z"/><path class="cls-5" d="M186,97c0,66.67-23.32,90-90,90S6,163.67,6,97,29.32,7,96,7,186,30.32,186,97Z"/><path class="cls-6" d="M186,96c0,66.67-23.32,90-90,90S6,162.67,6,96,29.32,6,96,6,186,29.32,186,96Z"/><path class="cls-7" d="M186,96c0,66.67-23.32,90-90,90S6,162.67,6,96,29.32,6,96,6,186,29.32,186,96Z"/><path class="cls-8" d="M96,6C29.32,6,6,29.32,6,96s23.32,90,90,90,90-23.33,90-90S162.68,6,96,6Zm68.59,158.59C151.17,178,130,184,96,184s-55.17-6-68.59-19.41S8,130,8,96s6-55.17,19.41-68.59S62,8,96,8s55.17,6,68.59,19.41S184,62,184,96,178,151.16,164.59,164.59Z"/><path class="cls-9" d="M69.5,138.5l46.65,46.65c37.84-3.48,57.86-18,65.76-49.22L139.77,93.79Z"/><path class="cls-10" d="M70.43,139.27c-2.19-.06-2.43-3-2.43-4.33V57.06c0-1.29.24-4.27,2.42-4.33a6.47,6.47,0,0,1,3.32,1.12l.13.09,63.8,38c1.85,1.16,3,2.68,3,4.06s-1.11,2.89-3,4L73.78,138.14A6.47,6.47,0,0,1,70.43,139.27Z"/><path class="cls-11" d="M69,136.94V59.06c0-1.29.24-4.27,2.42-4.33a6.47,6.47,0,0,1,3.32,1.12l.13.09,63.8,38a8.14,8.14,0,0,1,1.91,1.63,5.84,5.84,0,0,0-2.91-3.63l-63.8-38-.13-.09a6.47,6.47,0,0,0-3.32-1.12c-2.18.06-2.42,3-2.42,4.33v77.88c0,1,.14,2.95,1.18,3.85A9.37,9.37,0,0,1,69,136.94Z"/></g></g></svg>