<svg xmlns="http://www.w3.org/2000/svg" xmlns:xlink="http://www.w3.org/1999/xlink" viewBox="0 0 192 192"><defs><style>.cls-1{fill:none;}.cls-2{opacity:0.01;}.cls-2,.cls-3,.cls-4,.cls-5{isolation:isolate;}.cls-3{opacity:0.02;}.cls-4{opacity:0.04;}.cls-5{opacity:0.06;}.cls-6{fill:#008903;}.cls-7{fill:url(#未命名的渐变_8);}.cls-8{fill:url(#未命名的渐变_112);}.cls-9{fill:url(#未命名的渐变_17);}.cls-10{fill:#fafafa;}.cls-11{fill:#fff;}</style><linearGradient id="未命名的渐变_8" x1="166" y1="188" x2="26" y2="328" gradientTransform="matrix(1, 0, 0, -1, 0, 354)" gradientUnits="userSpaceOnUse"><stop offset="0" stop-opacity="0.1"/><stop offset="0.5" stop-color="gray" stop-opacity="0.05"/><stop offset="1" stop-color="#f8f8f8" stop-opacity="0.12"/><stop offset="1" stop-color="#fff" stop-opacity="0.12"/></linearGradient><linearGradient id="未命名的渐变_112" x1="166" y1="188" x2="25.99" y2="328" gradientTransform="matrix(1, 0, 0, -1, 0, 354)" gradientUnits="userSpaceOnUse"><stop offset="0" stop-opacity="0.05"/><stop offset="0.5" stop-color="gray" stop-opacity="0"/><stop offset="1" stop-color="#fff" stop-opacity="0.1"/></linearGradient><linearGradient id="未命名的渐变_17" x1="166.74" y1="165.25" x2="69.74" y2="68.26" gradientUnits="userSpaceOnUse"><stop offset="0" stop-opacity="0.04"/><stop offset="1" stop-opacity="0.16"/></linearGradient></defs><title>microsoft_translator</title><g id="图层_2" data-name="图层 2"><g id="图层_2-2" data-name="图层 2"><rect class="cls-1" width="192" height="192"/><path class="cls-2" d="M96,190C27.34,190,3,165.66,3,97S27.34,4,96,4s93,24.34,93,93S164.66,190,96,190Z"/><path class="cls-3" d="M96,189C28.07,189,4,164.92,4,97S28.07,5,96,5s92,24.07,92,92S163.93,189,96,189Z"/><path class="cls-4" d="M96,188C28.81,188,5,164.19,5,97S28.81,6,96,6s91,23.81,91,91S163.19,188,96,188Z"/><path class="cls-5" d="M186,97c0,66.67-23.32,90-90,90S6,163.67,6,97,29.32,7,96,7,186,30.32,186,97Z"/><path class="cls-6" d="M186,96c0,66.67-23.32,90-90,90S6,162.67,6,96,29.32,6,96,6,186,29.32,186,96Z"/><path class="cls-7" d="M186,96c0,66.67-23.32,90-90,90S6,162.67,6,96,29.32,6,96,6,186,29.32,186,96Z"/><path class="cls-8" d="M96,6C29.32,6,6,29.32,6,96s23.32,90,90,90,90-23.33,90-90S162.68,6,96,6Zm68.59,158.59C151.17,178,130,184,96,184s-55.17-6-68.59-19.41S8,130,8,96s6-55.17,19.41-68.59S62,8,96,8s55.17,6,68.59,19.41S184,62,184,96,178,151.16,164.59,164.59Z"/><path class="cls-9" d="M53.44,138.56,100.83,186c62.36-1.12,84.73-24.47,85.16-88.07L135.13,47l-7.27,5.11-9.73-9.73L115,51l-15,4,9,9-3.5,4.5L98,61,79,59,52,86,62.5,96.5,54,105l13,13H53.44Z"/><path class="cls-10" d="M116.72,61a41.25,41.25,0,0,1,7.5-.82h1.52q.23-.7.47-1.76l6.33,1.76-.35.94v.12a23.91,23.91,0,0,1,6,2.34q7.5,4.34,7.5,12.54,0,15-22.27,18l-1.64-6.68q16.88-2.23,16.88-11.84,0-6.33-8.32-8.91a50.63,50.63,0,0,1-11,18.11q-7,7.21-13.77,7.21a8.46,8.46,0,0,1-6.62-3,11,11,0,0,1-2.64-7.56A17.68,17.68,0,0,1,100,70.7a25.09,25.09,0,0,1,10.31-7.79q0-3.63.23-7.27h-.82q-2.81,0-10.2-.23l.47-6.21q6,.35,10.9.47.12-2,.59-7.85l6.68.47-.7,7.15q7.26-.59,17.7-2.46l.82,6.09a168.42,168.42,0,0,1-19,2.34Q116.72,59.39,116.72,61Zm-6.45,8.55q-7.38,4.69-7.38,11.37,0,4.45,3.4,4.45,1.87,0,5-2.11A100.57,100.57,0,0,1,110.28,69.58Zm6.33-2.81q0,5.27.35,10.08l.12,1.52a41,41,0,0,0,7-12.66h-.59A23.2,23.2,0,0,0,116.61,66.77ZM83,141H76.48l-.32-5a15,15,0,0,1-12.73,6.15q-6.36,0-10.1-3.67t-3.74-10q0-14.85,16.23-14.85a67.86,67.86,0,0,1,10.18.85v-2.73q0-9-10.18-9A25.23,25.23,0,0,0,54,105.83l-2.23-5.63a28.1,28.1,0,0,1,15.27-4.1Q83,96.1,83,111.3Zm-7-20.51a91.22,91.22,0,0,0-10.33-.85q-10,0-10,8.71,0,7.34,8.83,7.34a12.32,12.32,0,0,0,8.08-2.82A8.34,8.34,0,0,0,76,126.29ZM98,61h.3a27.92,27.92,0,0,0-35,.31L52,50V86H88L75,73A28,28,0,0,1,98,61Zm-4,70h-.3a27.92,27.92,0,0,0,35-.31L140,142V106H104l13,13A28,28,0,0,1,94,131Z"/><path class="cls-11" d="M132.19,61.14l.35-.94-6.33-1.76q-.24,1.05-.47,1.76h-1.52a39.08,39.08,0,0,0-6.44.64c0,.91-.06,1.64-.06,2.18a41.25,41.25,0,0,1,7.5-.82h1.52q.23-.7.47-1.76l6.33,1.76-.35.94v.12a23.91,23.91,0,0,1,6,2.34,15.32,15.32,0,0,1,5.53,5.16,14.4,14.4,0,0,0-6.53-7.16,23.91,23.91,0,0,0-6-2.34Z"/><path class="cls-11" d="M118.07,80.37a41,41,0,0,0,7-12.66h-.59c-.4,0-.8,0-1.2,0a40.42,40.42,0,0,1-5.45,9.62c0,.49.06,1,.09,1.47Z"/><path class="cls-11" d="M110.36,72.19a87.8,87.8,0,0,0,1,11.1q-3.16,2.11-5,2.11a3.12,3.12,0,0,1-2.24-.8,3.05,3.05,0,0,0,3.24,2.8q1.87,0,5-2.11a100.57,100.57,0,0,1-1.05-13.71Z"/><path class="cls-11" d="M138.64,75.68q0,9.61-16.88,11.84l1.64,6.68.49-.08-1.13-4.6q16.88-2.23,16.88-11.84a7.65,7.65,0,0,0-1.39-4.53A8.2,8.2,0,0,1,138.64,75.68Z"/><polygon class="cls-11" points="106 108 140 108 140 106 104 106 106 108"/><path class="cls-11" d="M76,75,87,86h1L76.45,74.45C76.31,74.64,76.16,74.83,76,75Z"/><path class="cls-11" d="M97.33,83.54A17.68,17.68,0,0,1,101,72.7a25.09,25.09,0,0,1,10.31-7.79q0-3.63.23-7.27h-1.1c-.08,1.76-.14,3.51-.14,5.27A25.09,25.09,0,0,0,100,70.7a17.68,17.68,0,0,0-3.63,10.84,11.43,11.43,0,0,0,1.72,6.33A12.48,12.48,0,0,1,97.33,83.54Z"/><path class="cls-11" d="M54.22,105.75l-1.4-3.55a28.1,28.1,0,0,1,15.27-4.1Q78,98.1,81.74,104q-3.2-7.9-14.65-7.91a28.1,28.1,0,0,0-15.27,4.1L54,105.83Z"/><path class="cls-11" d="M77.16,138c-.26.34-.54.65-.81,1l.13,2h.87Z"/><path class="cls-11" d="M77,122.49l-1-.12v3.92a8.34,8.34,0,0,1-3.42,6.57,12.32,12.32,0,0,1-8.08,2.82q-5.39,0-7.49-2.74,1.39,4.74,8.49,4.74a12.32,12.32,0,0,0,8.08-2.82A8.34,8.34,0,0,0,77,128.29Z"/><path class="cls-11" d="M118,121l-1.43-1.43A28,28,0,0,1,94,131h-.3a28.23,28.23,0,0,0,2.87,2A28,28,0,0,0,118,121Z"/><path class="cls-11" d="M101,51.19q6,.35,10.9.47.12-2,.59-7.85l5.49.39.19-1.92-6.68-.47q-.47,5.86-.59,7.85-4.92-.12-10.9-.47L99.5,55.4l1.15,0Z"/><path class="cls-11" d="M50.59,130.54q0-14.85,16.23-14.85a67.86,67.86,0,0,1,10.18.85v-2.73a9.52,9.52,0,0,0-1.54-5.65,11.51,11.51,0,0,1,.54,3.65v2.73a67.86,67.86,0,0,0-10.18-.85q-16.23,0-16.23,14.85a14.48,14.48,0,0,0,2,7.81A15.9,15.9,0,0,1,50.59,130.54Z"/><path class="cls-11" d="M118.43,51.43q7-.56,17-2.34L135.12,47q-9.59,1.72-16.49,2.35Z"/><path class="cls-11" d="M53,52,64.31,63.31A27.85,27.85,0,0,1,96.43,61c.52,0,1,0,1.57,0h.3a27.92,27.92,0,0,0-35,.31L52,50V86h1Z"/></g></g></svg>