<svg xmlns="http://www.w3.org/2000/svg" xmlns:xlink="http://www.w3.org/1999/xlink" viewBox="0 0 192 192"><defs><style>.cls-1{fill:none;}.cls-2{opacity:0.01;}.cls-13,.cls-2,.cls-3,.cls-4,.cls-5{isolation:isolate;}.cls-3{opacity:0.02;}.cls-4{opacity:0.04;}.cls-5{opacity:0.06;}.cls-6{fill:#2b3c6d;}.cls-7{fill:url(#未命名的渐变_8);}.cls-8{fill:#23b1ff;}.cls-9{fill:#ff633e;}.cls-10{fill:#ffd24c;}.cls-11{fill:url(#未命名的渐变_7);}.cls-12{fill:#374f93;}.cls-13,.cls-17{fill:#fff;}.cls-13{opacity:0.08;}.cls-14{fill:url(#未命名的渐变_3);}.cls-15{fill:url(#未命名的渐变_2);}.cls-16{fill:#fafafa;}</style><linearGradient id="未命名的渐变_8" x1="166.01" y1="1314.01" x2="25.99" y2="1173.99" gradientTransform="translate(0 -1148)" gradientUnits="userSpaceOnUse"><stop offset="0" stop-opacity="0.04"/><stop offset="0.5" stop-color="gray" stop-opacity="0"/><stop offset="1" stop-color="#fff" stop-opacity="0.1"/></linearGradient><linearGradient id="未命名的渐变_7" x1="100.67" y1="138" x2="100.67" y2="188" gradientTransform="matrix(1, 0, 0, -1, 0, 194)" gradientUnits="userSpaceOnUse"><stop offset="0" stop-opacity="0.14"/><stop offset="0.06" stop-opacity="0"/></linearGradient><linearGradient id="未命名的渐变_3" x1="166.01" y1="1314.01" x2="25.99" y2="1173.99" gradientTransform="translate(0 -1148)" gradientUnits="userSpaceOnUse"><stop offset="0" stop-opacity="0.1"/><stop offset="0.5" stop-color="gray" stop-opacity="0.05"/><stop offset="1" stop-color="#fff" stop-opacity="0.1"/></linearGradient><linearGradient id="未命名的渐变_2" x1="158.73" y1="173.28" x2="82.72" y2="97.28" gradientUnits="userSpaceOnUse"><stop offset="0" stop-opacity="0.02"/><stop offset="1" stop-opacity="0.14"/></linearGradient></defs><title>fileexpert</title><g id="图层_2" data-name="图层 2"><g id="图层_2-2" data-name="图层 2"><rect class="cls-1" width="192" height="192"/><path class="cls-2" d="M96,190C27.3,190,3,165.7,3,97S27.3,4,96,4s93,24.3,93,93S164.7,190,96,190Z"/><path class="cls-3" d="M96,189C28.1,189,4,164.9,4,97S28.1,5,96,5s92,24.1,92,92S163.9,189,96,189Z"/><path class="cls-4" d="M96,188C28.8,188,5,164.2,5,97S28.8,6,96,6s91,23.8,91,91S163.2,188,96,188Z"/><path class="cls-5" d="M186,97c0,66.7-23.3,90-90,90S6,163.7,6,97,29.3,7,96,7,186,30.3,186,97Z"/><path class="cls-6" d="M186,96c0,66.7-23.3,90-90,90S6,162.7,6,96,29.3,6,96,6,186,29.3,186,96Z"/><path class="cls-7" d="M96,6C29.3,6,6,29.3,6,96s23.3,90,90,90,90-23.3,90-90S162.7,6,96,6Zm68.6,158.6C151.2,178,130,184,96,184s-55.2-6-68.6-19.4S8,130,8,96s6-55.2,19.4-68.6S62,8,96,8s55.2,6,68.6,19.4S184,62,184,96,178,151.2,164.6,164.6Z"/><path class="cls-8" d="M152,100H76A12,12,0,0,1,64,88V50A12,12,0,0,1,76,38h72c6.6,0,10,3,16,10l14.31,17.89s8.57,28.34-1.46,30.51C166.57,98.62,155.34,100,152,100Z"/><path class="cls-9" d="M128,100H52A12,12,0,0,1,40,88V50A12,12,0,0,1,52,38h72c6.6,0,10,3,16,10l32,40C172,94.6,134.6,100,128,100Z"/><path class="cls-10" d="M104,100H48A12,12,0,0,1,36,88V50A12,12,0,0,1,48,38h52c6.6,0,10,3,16,10l32,40C148,94.6,110.6,100,104,100Z"/><path class="cls-11" d="M181.9,56C172.7,19.66,147.07,6,96,6,57,6,32.78,14,19.45,34H64c8,0,15.83,5,21,11,4.36,5.1,13,11,21,11Z"/><path class="cls-12" d="M181.9,56H106c-8,0-16.71-5.85-21-11-5-6-13-11-21-11H19.45C10,48.17,6,68.35,6,96c0,66.7,23.3,90,90,90s90-23.3,90-90C186,80.37,184.72,67.12,181.9,56Z"/><path class="cls-13" d="M7,98c0-27.65,4-47.83,13.45-62H65c8,0,16,5,21,11,4.29,5.15,13,11,21,11h75.36c-.15-.67-.3-1.35-.46-2H106c-8,0-16.71-5.85-21-11-5-6-13-11-21-11H19.45C10,48.17,6,68.35,6,96c0,24.33,3.1,42.87,10.28,56.63C9.81,139.09,7,121.17,7,98Z"/><path class="cls-14" d="M186,96c0,66.7-23.3,90-90,90S6,162.7,6,96,29.3,6,96,6,186,29.3,186,96Z"/><path class="cls-15" d="M182.86,131.85,131.51,80.5,89,91,58.25,137.92l47.46,47.9C152.13,184,175.09,168.81,182.86,131.85Z"/><path class="cls-16" d="M70.93,138H58.43a.3.3,0,0,1-.28-.41L79.51,81.3A2,2,0,0,1,81.39,80h49.45a.72.72,0,0,1,.65,1c-1.26,2.46-4.75,8.58-9.49,11-6,3-13,3-16,3H89.31l-4.93,13H97.84c-4.1,1.48-9.52,3.68-13.67,7.83-6,6-10.84,17.67-11.88,21.16A1.41,1.41,0,0,1,70.93,138ZM87,123h20.64c4.31-1,6.85-2.49,10.36-6,5-5,6-9,6-9H105s-4,0-10,5A35.35,35.35,0,0,0,87,123Z"/><path class="cls-17" d="M85.14,108l-.76,2h7.51c1.74-.81,4.44-1.45,6-2Z"/><path class="cls-17" d="M80.51,83.3A2,2,0,0,1,82.39,82H131c.19-.35.37-.68.51-1a.72.72,0,0,0-.65-1H81.39a2,2,0,0,0-1.89,1.3L58.15,137.59a.3.3,0,0,0,.28.41h1.32Z"/><path class="cls-17" d="M96,115c6-5,10-5,10-5h17.2a11.42,11.42,0,0,0,.8-2H105s-4,0-10,5a35.35,35.35,0,0,0-8,10h2.17A33.9,33.9,0,0,1,96,115Z"/></g></g></svg>