<?xml version="1.0" encoding="UTF-8" standalone="no"?>
<svg
   xmlns:dc="http://purl.org/dc/elements/1.1/"
   xmlns:cc="http://creativecommons.org/ns#"
   xmlns:rdf="http://www.w3.org/1999/02/22-rdf-syntax-ns#"
   xmlns:svg="http://www.w3.org/2000/svg"
   xmlns="http://www.w3.org/2000/svg"
   xmlns:sodipodi="http://sodipodi.sourceforge.net/DTD/sodipodi-0.dtd"
   xmlns:inkscape="http://www.inkscape.org/namespaces/inkscape"
   viewBox="0 0 133.33333 133.33333"
   height="133.33333"
   width="133.33333"
   xml:space="preserve"
   id="svg2"
   version="1.1"
   sodipodi:docname="harbour-slumber.svg"
   inkscape:version="0.92.2 2405546, 2018-03-11"><sodipodi:namedview
     pagecolor="#ffffff"
     bordercolor="#666666"
     borderopacity="1"
     objecttolerance="10"
     gridtolerance="10"
     guidetolerance="10"
     inkscape:pageopacity="0"
     inkscape:pageshadow="2"
     inkscape:window-width="1366"
     inkscape:window-height="706"
     id="namedview51"
     showgrid="false"
     inkscape:zoom="1.7700001"
     inkscape:cx="66.666664"
     inkscape:cy="66.666664"
     inkscape:window-x="0"
     inkscape:window-y="34"
     inkscape:window-maximized="1"
     inkscape:current-layer="svg2" /><metadata
     id="metadata8"><rdf:RDF><cc:Work
         rdf:about=""><dc:format>image/svg+xml</dc:format><dc:type
           rdf:resource="http://purl.org/dc/dcmitype/StillImage" /></cc:Work></rdf:RDF></metadata><defs
     id="defs6"><clipPath
       id="clipPath18"
       clipPathUnits="userSpaceOnUse"><path
         id="path16"
         d="M 50,100 C 12.956,100 0,87.039 0,50 v 0 C 0,12.961 12.956,0 50,0 v 0 c 37.045,0 50,12.961 50,50 v 0 c 0,37.044 -12.955,50 -50,50 z" /></clipPath><linearGradient
       id="linearGradient32"
       spreadMethod="pad"
       gradientTransform="matrix(77.78125,-77.78125,-77.78125,-77.78125,11.109896,88.891144)"
       gradientUnits="userSpaceOnUse"
       y2="0"
       x2="1"
       y1="0"
       x1="0"><stop
         id="stop24"
         offset="0"
         style="stop-opacity:1;stop-color:#7b90d8" /><stop
         id="stop26"
         offset="0.00000049"
         style="stop-opacity:1;stop-color:#7b90d8" /><stop
         id="stop28"
         offset="1"
         style="stop-opacity:1;stop-color:#4b60c7" /><stop
         id="stop30"
         offset="1"
         style="stop-opacity:1;stop-color:#4b60c7" /></linearGradient><clipPath
       id="clipPath42"
       clipPathUnits="userSpaceOnUse"><path
         id="path40"
         d="M 14.834,59.333 22.953,22.953 45.841,0.066 C 47.196,0.026 48.574,0 50,0 v 0 c 23.908,0 37.772,5.412 44.605,19.198 v 0 L 30.753,83.05 Z" /></clipPath><clipPath
       id="clipPath50"
       clipPathUnits="userSpaceOnUse"><path
         id="path48"
         d="M -32768,32767 H 32767 V -32768 H -32768 Z" /></clipPath><linearGradient
       id="linearGradient60"
       spreadMethod="pad"
       gradientTransform="matrix(65.028221,-65.028221,-65.028221,-65.028221,13.779236,66.075867)"
       gradientUnits="userSpaceOnUse"
       y2="0"
       x2="1"
       y1="0"
       x1="0"><stop
         id="stop52"
         offset="0"
         style="stop-opacity:0.11999695;stop-color:#ffffff" /><stop
         id="stop54"
         offset="0.00000049"
         style="stop-opacity:0.11999695;stop-color:#ffffff" /><stop
         id="stop56"
         offset="1"
         style="stop-opacity:0;stop-color:#ffffff" /><stop
         id="stop58"
         offset="1"
         style="stop-opacity:0;stop-color:#ffffff" /></linearGradient><mask
       id="mask62"
       height="1"
       width="1"
       y="0"
       x="0"
       maskUnits="userSpaceOnUse"><g
         id="g72"><g
           id="g70"
           clip-path="url(#clipPath50)"><g
             id="g68"><g
               id="g66"><path
                 id="path64"
                 style="fill:url(#linearGradient60);stroke:none"
                 d="M -32768,32767 H 32767 V -32768 H -32768 Z" /></g></g></g></g></mask><linearGradient
       id="linearGradient86"
       spreadMethod="pad"
       gradientTransform="matrix(65.028221,-65.028221,-65.028221,-65.028221,13.779236,66.075867)"
       gradientUnits="userSpaceOnUse"
       y2="0"
       x2="1"
       y1="0"
       x1="0"><stop
         id="stop78"
         offset="0"
         style="stop-opacity:1;stop-color:#000000" /><stop
         id="stop80"
         offset="0.00000049"
         style="stop-opacity:1;stop-color:#000000" /><stop
         id="stop82"
         offset="1"
         style="stop-opacity:1;stop-color:#000000" /><stop
         id="stop84"
         offset="1"
         style="stop-opacity:1;stop-color:#000000" /></linearGradient><clipPath
       id="clipPath96"
       clipPathUnits="userSpaceOnUse"><path
         id="path94"
         d="M 0,100 H 100 V 0 H 0 Z" /></clipPath></defs><g
     transform="matrix(1.25,0,0,-1.25,4,129.33333)"
     id="g10"><g
       id="g12"><g
         clip-path="url(#clipPath18)"
         id="g14"><g
           id="g20"><g
             id="g22"><path
               id="path34"
               style="fill:url(#linearGradient32);stroke:none"
               d="M 50,100 C 12.956,100 0,87.039 0,50 v 0 C 0,12.961 12.956,0 50,0 v 0 c 37.045,0 50,12.961 50,50 v 0 c 0,37.044 -12.955,50 -50,50 z"
               inkscape:connector-curvature="0" /></g></g></g></g><g
       id="g36"><g
         clip-path="url(#clipPath42)"
         id="g38"><g
           id="g44"><g
             id="g46" /><g
             mask="url(#mask62)"
             id="g74"><g
               id="g76"><path
                 id="path88"
                 style="fill:url(#linearGradient86);stroke:none"
                 d="M 14.834,59.333 22.953,22.953 45.841,0.066 C 47.196,0.026 48.574,0 50,0 v 0 c 23.908,0 37.772,5.412 44.605,19.198 v 0 L 30.753,83.05 Z"
                 inkscape:connector-curvature="0" /></g></g></g></g></g><g
       id="g90"><g
         clip-path="url(#clipPath96)"
         id="g92"><g
           transform="translate(69.625,28.5)"
           id="g98"><path
             id="path100"
             style="fill:#fff9e4;fill-opacity:1;fill-rule:nonzero;stroke:none"
             d="m 0,0 c -22.713,0 -41.125,18.412 -41.125,41.125 0,4.703 0.8,9.216 2.253,13.425 -11.362,-6.631 -19.003,-18.945 -19.003,-33.05 0,-21.125 17.125,-38.25 38.25,-38.25 14.105,0 26.419,7.641 33.05,19.004 C 9.217,0.8 4.703,0 0,0"
             inkscape:connector-curvature="0" /></g></g></g></g></svg>