<svg xmlns="http://www.w3.org/2000/svg" xmlns:xlink="http://www.w3.org/1999/xlink" width="192" height="192" viewBox="0 0 192 192"><defs><style>.cls-1,.cls-3,.cls-4,.cls-5,.cls-6{isolation:isolate;}.cls-2{fill:none;}.cls-3{opacity:0.01;}.cls-4{opacity:0.02;}.cls-5{opacity:0.04;}.cls-6{opacity:0.06;}.cls-7{fill:#ffbe00;}.cls-8{fill:url(#未命名的渐变_10);}.cls-9{fill:url(#未命名的渐变_2);}.cls-10,.cls-11{mix-blend-mode:soft-light;}.cls-10{fill:url(#未命名的渐变_118);}.cls-11,.cls-13{fill:#fff;}.cls-11{opacity:0.75;}.cls-12{fill:#fafafa;}</style><linearGradient id="未命名的渐变_10" x1="166.004" y1="27.998" x2="25.998" y2="168.004" gradientTransform="matrix(1, 0, 0, -1, 0, 194)" gradientUnits="userSpaceOnUse"><stop offset="0" stop-opacity="0.1"/><stop offset="0.5" stop-color="gray" stop-opacity="0.05"/><stop offset="1" stop-color="#fff" stop-opacity="0.12"/></linearGradient><linearGradient id="未命名的渐变_2" x1="166.012" y1="75.988" x2="25.987" y2="216.012" gradientTransform="matrix(1, 0, 0, -1, 0, 242)" gradientUnits="userSpaceOnUse"><stop offset="0" stop-opacity="0.04"/><stop offset="0.5" stop-color="gray" stop-opacity="0"/><stop offset="1" stop-color="#fff" stop-opacity="0.1"/></linearGradient><linearGradient id="未命名的渐变_118" x1="165.97" y1="166.025" x2="46.087" y2="46.142" gradientUnits="userSpaceOnUse"><stop offset="0" stop-opacity="0.1"/><stop offset="1" stop-opacity="0.3"/></linearGradient></defs><title>samsung_stranslate</title><g class="cls-1"><g id="图层_2" data-name="图层 2"><g id="图层_1-2" data-name="图层 1"><rect class="cls-2" width="192" height="192"/><path class="cls-3" d="M96,190C27.3,190,3,165.7,3,97S27.3,4,96,4s93,24.3,93,93S164.7,190,96,190Z"/><path class="cls-4" d="M96,189C28.1,189,4,164.9,4,97S28.1,5,96,5s92,24.1,92,92S163.9,189,96,189Z"/><path class="cls-5" d="M96,188C28.8,188,5,164.2,5,97S28.8,6,96,6s91,23.8,91,91S163.2,188,96,188Z"/><path class="cls-6" d="M186,97c0,66.7-23.3,90-90,90S6,163.7,6,97,29.3,7,96,7,186,30.3,186,97Z"/><path class="cls-7" d="M6,96c0,66.7,23.3,90,90,90s90-23.3,90-90S162.7,6,96,6,6,29.3,6,96Z"/><path class="cls-8" d="M186,96c0,66.67-23.32,90-90,90S6,162.67,6,96,29.32,6,96,6,186,29.32,186,96Z"/><path class="cls-9" d="M96,6C29.3,6,6,29.3,6,96s23.3,90,90,90,90-23.3,90-90S162.7,6,96,6Zm68.6,158.6C151.2,178,130,184,96,184s-55.2-6-68.6-19.4S8,130,8,96s6-55.2,19.4-68.6S62,8,96,8s55.2,6,68.6,19.4S184,62,184,96,178,151.2,164.6,164.6Z"/><path class="cls-10" d="M184.051,125.219,107.439,48.608H43.621v51.9l41.908,41.908v2.059l39.6,39.594C160.972,178.6,178.564,161.031,184.051,125.219Z"/><path class="cls-11" d="M139,92H103l3-16.031V56a8,8,0,0,0-8-8H53a8,8,0,0,0-8,8V92a8,8,0,0,0,8,8H89l-3,16v20a8,8,0,0,0,8,8h45a8,8,0,0,0,8-8V100A8,8,0,0,0,139,92Z"/><path class="cls-12" d="M140,148H94a12,12,0,0,1-12-12V109.446a8.011,8.011,0,0,1,1.851-5.117l16.991-20.415A5.014,5.014,0,0,0,102,80.71V56a4,4,0,0,0-4-4H52a4,4,0,0,0-4,4V92a4,4,0,0,0,4,4H67.849A4.116,4.116,0,0,1,72,99.607,4,4,0,0,1,68.021,104H52A12,12,0,0,1,40,92V56A12,12,0,0,1,52,44H98a12,12,0,0,1,12,12V82.523a8.015,8.015,0,0,1-1.85,5.116L91.158,108.055a5.012,5.012,0,0,0-1.158,3.2V136a4,4,0,0,0,4,4h46a4,4,0,0,0,4-4V100a4,4,0,0,0-4-4H124.172a4.116,4.116,0,0,1-4.153-3.607A4,4,0,0,1,124,88h16a12,12,0,0,1,12,12v36A12,12,0,0,1,140,148ZM66.321,85.928,68.092,81.5H79.908l1.771,4.428a2.5,2.5,0,1,0,4.642-1.856l-10-25a2.5,2.5,0,0,0-4.642,0l-10,25a2.5,2.5,0,1,0,4.642,1.856ZM70.092,76.5,74,66.731,77.908,76.5ZM127,131.5V119h5.5a2.5,2.5,0,0,0,0-5H127v-9.5a2.5,2.5,0,0,0-5,0v27a2.5,2.5,0,0,0,5,0Zm-18.438-1.048c.225-.181,5.542-4.482,7.759-10.023A32.688,32.688,0,0,0,118.5,109.5,2.5,2.5,0,0,0,116,107h-9a2.5,2.5,0,0,0,0,5h6.311a26.838,26.838,0,0,1-1.632,6.571c-1.7,4.254-6.059,7.829-6.241,7.977a2.5,2.5,0,0,0,3.124,3.9Z"/><path class="cls-13" d="M121.019,94.393A4,4,0,0,1,125,90h16a11.979,11.979,0,0,1,10.183,5.673A12,12,0,0,0,140,88H124a4,4,0,0,0-3.981,4.393,3.818,3.818,0,0,0,1.052,2.261C121.056,94.566,121.027,94.483,121.019,94.393Z"/><path class="cls-13" d="M132.5,114H128v2h5.5a2.476,2.476,0,0,1,1.5.512V116.5A2.5,2.5,0,0,0,132.5,114Z"/><path class="cls-13" d="M91.071,138.707A3.994,3.994,0,0,0,95,142h46a4,4,0,0,0,4-4V102a3.975,3.975,0,0,0-1.071-2.707A4.015,4.015,0,0,1,144,100v36a4,4,0,0,1-4,4H94A3.979,3.979,0,0,1,91.071,138.707Z"/><path class="cls-13" d="M104.5,109.5a2.488,2.488,0,0,0,1,1.988A2.5,2.5,0,0,1,108,109h9a2.471,2.471,0,0,1,1.5.513V109.5A2.5,2.5,0,0,0,116,107h-9A2.5,2.5,0,0,0,104.5,109.5Z"/><path class="cls-13" d="M123,133.487V106.5a2.5,2.5,0,0,1,2.5-2.5,2.471,2.471,0,0,1,1.5.513V104.5a2.5,2.5,0,0,0-5,0v27A2.488,2.488,0,0,0,123,133.487Z"/><path class="cls-13" d="M104.515,128.224a2.484,2.484,0,0,0,.533,1.838,2.521,2.521,0,0,0,.463.438c0-.092-.006-.183,0-.276a2.485,2.485,0,0,1,.923-1.676c.182-.148,4.539-3.723,6.241-7.977A26.838,26.838,0,0,0,114.311,114h-1.318a25.261,25.261,0,0,1-1.314,4.571c-1.7,4.254-6.059,7.829-6.241,7.977A2.485,2.485,0,0,0,104.515,128.224Z"/><path class="cls-13" d="M80.908,83.5h-.2l.971,2.428a2.5,2.5,0,0,0,.519.8Z"/><path class="cls-13" d="M74,57.5a2.488,2.488,0,0,0-2.321,1.572l-10,25A2.472,2.472,0,0,0,62.5,86.99a2.5,2.5,0,0,1,.177-.918l10-25a2.494,2.494,0,0,1,4.123-.8l-.481-1.2A2.488,2.488,0,0,0,74,57.5Z"/><path class="cls-13" d="M83,138V111.446a8.011,8.011,0,0,1,1.851-5.117l16.991-20.415A5.014,5.014,0,0,0,103,82.71V58a3.975,3.975,0,0,0-1.071-2.707A4.015,4.015,0,0,1,102,56V80.71a5.014,5.014,0,0,1-1.158,3.2L83.851,104.329A8.011,8.011,0,0,0,82,109.446V136a11.924,11.924,0,0,0,1.817,6.327A11.957,11.957,0,0,1,83,138Z"/><polygon class="cls-13" points="75 68.731 74.9 68.981 77.908 76.5 71.892 76.5 71.092 78.5 78.908 78.5 75 68.731"/><path class="cls-13" d="M67.849,96H52a3.979,3.979,0,0,1-2.929-1.293A3.994,3.994,0,0,0,53,98H68.849a4.275,4.275,0,0,1,3.1,1.346A4.124,4.124,0,0,0,67.849,96Z"/><path class="cls-13" d="M41,94V58A12,12,0,0,1,53,46H99a11.979,11.979,0,0,1,10.183,5.673A12,12,0,0,0,98,44H52A12,12,0,0,0,40,56V92a11.924,11.924,0,0,0,1.817,6.327A11.957,11.957,0,0,1,41,94Z"/></g></g></g></svg>