<svg xmlns="http://www.w3.org/2000/svg" xmlns:xlink="http://www.w3.org/1999/xlink" viewBox="0 0 192 192"><defs><style>.cls-1{fill:none;}.cls-2{opacity:0.01;}.cls-13,.cls-2,.cls-21,.cls-3,.cls-4,.cls-5{isolation:isolate;}.cls-3{opacity:0.02;}.cls-4{opacity:0.04;}.cls-5{opacity:0.06;}.cls-6{fill:#ebebeb;}.cls-7{opacity:0.8;}.cls-8{fill:#e60063;}.cls-9{fill:#00c9c7;}.cls-10{fill:#e6be00;}.cls-11{fill:url(#未命名的渐变_35);}.cls-12{fill:url(#未命名的渐变_2);}.cls-13{opacity:0.5;fill:url(#未命名的渐变_39);}.cls-14{fill:#4a6582;}.cls-15{fill:url(#未命名的渐变_33);}.cls-16{fill:url(#未命名的渐变_42);}.cls-17{fill:#fff;}.cls-18{fill:#29404c;}.cls-19{fill:#374b65;}.cls-20{fill:url(#未命名的渐变_7);}.cls-21,.cls-23{opacity:0.1;}.cls-22{fill:#062335;}.cls-23{fill:#008ee5;}.cls-24{fill:#021a26;}.cls-25{fill:#00a9dd;}.cls-25,.cls-26{opacity:0.2;}.cls-26{fill:#9fcaed;}</style><linearGradient id="未命名的渐变_35" x1="166.01" y1="75.99" x2="25.99" y2="216.01" gradientTransform="matrix(1, 0, 0, -1, 0, 242)" gradientUnits="userSpaceOnUse"><stop offset="0" stop-opacity="0.1"/><stop offset="0.5" stop-color="gray" stop-opacity="0.05"/><stop offset="1" stop-color="#fff" stop-opacity="0.1"/></linearGradient><linearGradient id="未命名的渐变_2" x1="166.01" y1="75.99" x2="25.99" y2="216.01" gradientTransform="matrix(1, 0, 0, -1, 0, 242)" gradientUnits="userSpaceOnUse"><stop offset="0" stop-opacity="0.04"/><stop offset="0.5" stop-color="gray" stop-opacity="0"/><stop offset="1" stop-color="#fff" stop-opacity="0.1"/></linearGradient><linearGradient id="未命名的渐变_39" x1="188.44" y1="676.44" x2="152" y2="640" gradientTransform="translate(0 -600)" gradientUnits="userSpaceOnUse"><stop offset="0" stop-opacity="0"/><stop offset="1" stop-opacity="0.15"/></linearGradient><linearGradient id="未命名的渐变_33" x1="133.8" y1="155.7" x2="133.8" y2="155.7" gradientTransform="matrix(1, 0, 0, -1, 0, 274)" gradientUnits="userSpaceOnUse"><stop offset="0" stop-opacity="0.12"/><stop offset="0.5" stop-color="gray" stop-opacity="0.05"/><stop offset="1" stop-color="#fff" stop-opacity="0.12"/></linearGradient><linearGradient id="未命名的渐变_42" x1="165.89" y1="75.95" x2="96.43" y2="145.42" gradientTransform="matrix(1, 0, 0, -1, 0, 242)" gradientUnits="userSpaceOnUse"><stop offset="0" stop-opacity="0"/><stop offset="1" stop-opacity="0.12"/></linearGradient><radialGradient id="未命名的渐变_7" cx="96.31" cy="174.7" r="48.07" gradientTransform="matrix(1, 0, 0, -1, -0.31, 270.7)" gradientUnits="userSpaceOnUse"><stop offset="0" stop-color="#fff" stop-opacity="0"/><stop offset="0.85" stop-color="#7d7d7d" stop-opacity="0.1"/><stop offset="1" stop-opacity="0.2"/></radialGradient></defs><title>oneplus_camera</title><g id="图层_2" data-name="图层 2"><g id="图层_2-2" data-name="图层 2"><rect class="cls-1" width="192" height="192"/><path class="cls-2" d="M96,190C27.3,190,3,165.7,3,97S27.3,4,96,4s93,24.3,93,93S164.7,190,96,190Z"/><path class="cls-3" d="M96,189C28.1,189,4,164.9,4,97S28.1,5,96,5s92,24.1,92,92S163.9,189,96,189Z"/><path class="cls-4" d="M96,188C28.8,188,5,164.2,5,97S28.8,6,96,6s91,23.8,91,91S163.2,188,96,188Z"/><path class="cls-5" d="M186,97c0,66.7-23.3,90-90,90S6,163.7,6,97,29.3,7,96,7,186,30.3,186,97Z"/><path class="cls-6" d="M186,96c0,66.7-23.3,90-90,90S6,162.7,6,96,29.3,6,96,6,186,29.3,186,96Z"/><g class="cls-7"><path class="cls-8" d="M104,38.46V6.12C101.4,6,98.74,6,96,6s-5.4,0-8,.12V38.46a57.25,57.25,0,0,1,16,0Z"/><path class="cls-9" d="M88,6.12q-8.51.26-16,1.12V43.09a57.67,57.67,0,0,1,16-4.63Z"/><path class="cls-10" d="M120,7.25q-7.5-.87-16-1.12V38.46a57.67,57.67,0,0,1,16,4.63Z"/></g><path class="cls-11" d="M186,96c0,66.7-23.3,90-90,90S6,162.7,6,96,29.3,6,96,6,186,29.3,186,96Z"/><path class="cls-12" d="M96,6C29.3,6,6,29.3,6,96s23.3,90,90,90,90-23.3,90-90S162.7,6,96,6Zm68.6,158.6C151.2,178,130,184,96,184s-55.2-6-68.6-19.4S8,130,8,96s6-55.2,19.4-68.6S62,8,96,8s55.2,6,68.6,19.4S184,62,184,96,178,151.2,164.6,164.6Z"/><path class="cls-13" d="M183.9,65.9,155,37l-6,6,36.4,36.4A121.11,121.11,0,0,0,183.9,65.9Z"/><circle class="cls-14" cx="152" cy="40" r="4.3"/><path class="cls-15" d="M133.8,118.3"/><path class="cls-16" d="M55.3,137.7l48.2,48.2c58.4-1.7,80.6-23.9,82.3-82.2L137.6,55.5Z"/><circle class="cls-17" cx="96" cy="96" r="58.1"/><circle class="cls-18" cx="96" cy="96" r="47.9"/><circle class="cls-19" cx="96" cy="96" r="43.26"/><path class="cls-20" d="M96,144a48,48,0,1,1,48-48h0a47.65,47.65,0,0,1-47.3,48H96Z"/><path class="cls-21" d="M62.13,129.87l67.73-67.73a47.9,47.9,0,0,0-67.73,67.73Z"/><circle class="cls-22" cx="96" cy="96" r="19.26"/><circle class="cls-23" cx="96" cy="96" r="30.9"/><circle class="cls-24" cx="96" cy="96" r="8.24"/><circle class="cls-25" cx="111.45" cy="111.45" r="5.15"/><circle class="cls-26" cx="83.64" cy="83.64" r="12.36"/></g></g></svg>