<svg xmlns="http://www.w3.org/2000/svg" xmlns:xlink="http://www.w3.org/1999/xlink" viewBox="0 0 192 192"><defs><style>.cls-1,.cls-3,.cls-4,.cls-5,.cls-6{isolation:isolate;}.cls-2{fill:none;}.cls-3{opacity:0.01;}.cls-4{opacity:0.02;}.cls-5{opacity:0.04;}.cls-6{opacity:0.06;}.cls-7{fill:#fca412;}.cls-8{fill:url(#未命名的渐变_66);}.cls-9{fill:url(#未命名的渐变_2);}.cls-10{fill:url(#未命名的渐变_29);}.cls-11{fill:#fafafa;}.cls-12{fill:#fff;mix-blend-mode:darken;}</style><linearGradient id="未命名的渐变_66" x1="166.01" y1="75.99" x2="25.99" y2="216.01" gradientTransform="matrix(1, 0, 0, -1, 0, 242)" gradientUnits="userSpaceOnUse"><stop offset="0" stop-opacity="0.1"/><stop offset="0.5" stop-color="gray" stop-opacity="0.05"/><stop offset="1" stop-color="#fff" stop-opacity="0.15"/></linearGradient><linearGradient id="未命名的渐变_2" x1="166.01" y1="75.99" x2="25.99" y2="216.01" gradientTransform="matrix(1, 0, 0, -1, 0, 242)" gradientUnits="userSpaceOnUse"><stop offset="0" stop-opacity="0.04"/><stop offset="0.5" stop-color="gray" stop-opacity="0"/><stop offset="1" stop-color="#fff" stop-opacity="0.1"/></linearGradient><linearGradient id="未命名的渐变_29" x1="165.39" y1="166.62" x2="83.64" y2="84.86" gradientUnits="userSpaceOnUse"><stop offset="0" stop-opacity="0.02"/><stop offset="1" stop-opacity="0.14"/></linearGradient></defs><title>pureweather</title><g class="cls-1"><g id="图层_2" data-name="图层 2"><g id="图层_2-2" data-name="图层 2"><rect class="cls-2" width="192" height="192"/><path class="cls-3" d="M96,190C27.3,190,3,165.7,3,97S27.3,4,96,4s93,24.3,93,93S164.7,190,96,190Z"/><path class="cls-4" d="M96,189C28.1,189,4,164.9,4,97S28.1,5,96,5s92,24.1,92,92S163.9,189,96,189Z"/><path class="cls-5" d="M96,188C28.8,188,5,164.2,5,97S28.8,6,96,6s91,23.8,91,91S163.2,188,96,188Z"/><path class="cls-6" d="M186,97c0,66.7-23.3,90-90,90S6,163.7,6,97,29.3,7,96,7,186,30.3,186,97Z"/><path class="cls-7" d="M186,96c0,66.7-23.3,90-90,90S6,162.7,6,96,29.3,6,96,6,186,29.3,186,96Z"/><path class="cls-8" d="M186,96c0,66.7-23.3,90-90,90S6,162.7,6,96,29.3,6,96,6,186,29.3,186,96Z"/><path class="cls-9" d="M96,6C29.3,6,6,29.3,6,96s23.3,90,90,90,90-23.3,90-90S162.7,6,96,6Zm68.6,158.6C151.2,178,130,184,96,184s-55.2-6-68.6-19.4S8,130,8,96s6-55.2,19.4-68.6S62,8,96,8s55.2,6,68.6,19.4S184,62,184,96,178,151.2,164.6,164.6Z"/><path class="cls-10" d="M147.92,70.6,44.36,124.14,106,185.81c55-2.18,76.95-23.37,79.68-77.43Z"/><path class="cls-11" d="M118,56A38,38,0,0,0,81.09,85,27,27,0,1,0,63,132h55a38,38,0,0,0,0-76Z"/><path class="cls-12" d="M37,107A27,27,0,0,1,82.09,87a38,38,0,0,1,70.35-9,38,38,0,0,0-71.35,7,27,27,0,0,0-41.71,33.12A26.89,26.89,0,0,1,37,107Z"/></g></g></g></svg>