<svg xmlns="http://www.w3.org/2000/svg" xmlns:xlink="http://www.w3.org/1999/xlink" width="192" height="192" viewBox="0 0 192 192"><defs><style>.cls-1{fill:none;}.cls-2{opacity:0.01;}.cls-2,.cls-3,.cls-4,.cls-5{isolation:isolate;}.cls-3{opacity:0.02;}.cls-4{opacity:0.04;}.cls-5{opacity:0.06;}.cls-6{fill:#00af8d;}.cls-7{fill:url(#未命名的渐变_15);}.cls-8{fill:url(#未命名的渐变_2);}.cls-9{fill:url(#未命名的渐变_17);}.cls-10{fill:#fafafa;}.cls-11{fill:#fff;}</style><linearGradient id="未命名的渐变_15" x1="166.004" y1="27.998" x2="25.998" y2="168.004" gradientTransform="matrix(1, 0, 0, -1, 0, 194)" gradientUnits="userSpaceOnUse"><stop offset="0" stop-opacity="0.1"/><stop offset="0.5" stop-color="gray" stop-opacity="0.05"/><stop offset="1" stop-color="#fff" stop-opacity="0.12"/></linearGradient><linearGradient id="未命名的渐变_2" x1="166.012" y1="75.988" x2="25.987" y2="216.012" gradientTransform="matrix(1, 0, 0, -1, 0, 242)" gradientUnits="userSpaceOnUse"><stop offset="0" stop-opacity="0.04"/><stop offset="0.5" stop-color="gray" stop-opacity="0"/><stop offset="1" stop-color="#fff" stop-opacity="0.1"/></linearGradient><linearGradient id="未命名的渐变_17" x1="165.78" y1="166.215" x2="72.492" y2="72.927" gradientUnits="userSpaceOnUse"><stop offset="0" stop-opacity="0.02"/><stop offset="1" stop-opacity="0.1"/></linearGradient></defs><title>shanbay_listen</title><g id="图层_2" data-name="图层 2"><g id="图层_1-2" data-name="图层 1"><rect class="cls-1" width="192" height="192"/><path class="cls-2" d="M96,190C27.3,190,3,165.7,3,97S27.3,4,96,4s93,24.3,93,93S164.7,190,96,190Z"/><path class="cls-3" d="M96,189C28.1,189,4,164.9,4,97S28.1,5,96,5s92,24.1,92,92S163.9,189,96,189Z"/><path class="cls-4" d="M96,188C28.8,188,5,164.2,5,97S28.8,6,96,6s91,23.8,91,91S163.2,188,96,188Z"/><path class="cls-5" d="M186,97c0,66.7-23.3,90-90,90S6,163.7,6,97,29.3,7,96,7,186,30.3,186,97Z"/><path class="cls-6" d="M186,96c0,66.7-23.3,90-90,90S6,162.7,6,96,29.3,6,96,6,186,29.3,186,96Z"/><path class="cls-7" d="M186,96c0,66.67-23.32,90-90,90S6,162.67,6,96,29.32,6,96,6,186,29.32,186,96Z"/><path class="cls-8" d="M96,6C29.3,6,6,29.3,6,96s23.3,90,90,90,90-23.3,90-90S162.7,6,96,6Zm68.6,158.6C151.2,178,130,184,96,184s-55.2-6-68.6-19.4S8,130,8,96s6-55.2,19.4-68.6S62,8,96,8s55.2,6,68.6,19.4S184,62,184,96,178,151.2,164.6,164.6Z"/><path class="cls-9" d="M185.869,104.24l-52.89-52.89-24.668,1.837-26.26,11.67L69.089,76.33,55.379,98.1,49.75,132.25l53.644,53.644C161.72,184.24,184.018,162.209,185.869,104.24Z"/><path class="cls-10" d="M48.713,125.522a75.623,75.623,0,0,1,52.1-72.53,74.729,74.729,0,0,1,29.1-3.49,3.638,3.638,0,1,1-.391,7.263c-2.248-.137-4.495-.239-6.743-.161-20.214.7-37.072,8.6-50.341,23.857A66.363,66.363,0,0,0,56.6,116.14,64.675,64.675,0,0,0,56.23,129.6a3.852,3.852,0,0,1-1.644,3.835,3.645,3.645,0,0,1-5.611-2.957C48.839,128.831,48.8,127.175,48.713,125.522Zm30.066,1.76c.11-1.024.236-2.049.411-3.063A54.256,54.256,0,0,1,126.6,79.285a57.09,57.09,0,0,1,10.008-.185,3.485,3.485,0,0,0,3.825-3.283,3.579,3.579,0,0,0-3.369-3.864,60.413,60.413,0,0,0-19.333,1.526c-28.7,6.917-48.771,34.64-46.31,64.01a3.639,3.639,0,1,0,7.248-.57c-.089-1.37-.129-2.744-.19-4.117C78.509,130.957,78.581,129.115,78.779,127.282ZM134.67,97.321c-.622.057-1.244.128-1.857.242-14.475,2.7-24.872,10.762-31.263,23.965a37.58,37.58,0,0,0-3.66,17.8c.077,2.423,1.883,3.794,4.091,3.117a3.412,3.412,0,0,0,2.464-3.284,40.9,40.9,0,0,1,.217-5.145,34.864,34.864,0,0,1,27-29.591,36.29,36.29,0,0,1,8.187-.748,3.551,3.551,0,0,0,3.543-3.606c.031-1.706-1.363-2.917-3.395-2.945-.531-.007-1.062,0-1.593,0A27.152,27.152,0,0,0,134.67,97.321Z"/><path class="cls-11" d="M49.975,132.48c-.136-1.649-.178-3.3-.262-4.958a75.623,75.623,0,0,1,52.1-72.53,74.729,74.729,0,0,1,29.1-3.49,3.943,3.943,0,0,1,2.518,1.141,3.726,3.726,0,0,0-3.518-3.141,74.729,74.729,0,0,0-29.1,3.49,75.623,75.623,0,0,0-52.1,72.53c.084,1.653.126,3.309.262,4.958a3.951,3.951,0,0,0,1.061,2.416C50.011,132.76,49.987,132.623,49.975,132.48Z"/><path class="cls-11" d="M72.421,139.489c-2.461-29.37,17.608-57.093,46.31-64.01a60.413,60.413,0,0,1,19.333-1.526,3.673,3.673,0,0,1,2.327,1.06,3.551,3.551,0,0,0-3.327-3.06,60.413,60.413,0,0,0-19.333,1.526c-28.7,6.917-48.771,34.64-46.31,64.01a3.9,3.9,0,0,0,1.071,2.4C72.468,139.754,72.433,139.627,72.421,139.489Z"/><path class="cls-11" d="M98.89,141.333a37.578,37.578,0,0,1,3.66-17.8c6.391-13.2,16.788-21.266,31.263-23.965.613-.114,1.235-.185,1.857-.242a27.152,27.152,0,0,1,3.739-.192c.531,0,1.062-.005,1.593,0a3.834,3.834,0,0,1,2.381.78c-.062-1.616-1.417-2.753-3.381-2.78-.531-.007-1.062,0-1.593,0a27.152,27.152,0,0,0-3.739.192c-.622.057-1.244.128-1.857.242-14.475,2.7-24.872,10.762-31.263,23.965a37.578,37.578,0,0,0-3.66,17.8,3.509,3.509,0,0,0,1.068,2.546A4.474,4.474,0,0,1,98.89,141.333Z"/></g></g></svg>