<?xml version="1.0" encoding="UTF-8" standalone="no"?>
<svg
   xmlns:dc="http://purl.org/dc/elements/1.1/"
   xmlns:cc="http://creativecommons.org/ns#"
   xmlns:rdf="http://www.w3.org/1999/02/22-rdf-syntax-ns#"
   xmlns:svg="http://www.w3.org/2000/svg"
   xmlns="http://www.w3.org/2000/svg"
   xmlns:sodipodi="http://sodipodi.sourceforge.net/DTD/sodipodi-0.dtd"
   xmlns:inkscape="http://www.inkscape.org/namespaces/inkscape"
   viewBox="0 0 133.33333 133.33333"
   height="133.33333"
   width="133.33333"
   xml:space="preserve"
   id="svg2"
   version="1.1"
   sodipodi:docname="harbour-jollacompass.svg"
   inkscape:version="0.92.2 2405546, 2018-03-11"><sodipodi:namedview
     pagecolor="#ffffff"
     bordercolor="#666666"
     borderopacity="1"
     objecttolerance="10"
     gridtolerance="10"
     guidetolerance="10"
     inkscape:pageopacity="0"
     inkscape:pageshadow="2"
     inkscape:window-width="1366"
     inkscape:window-height="706"
     id="namedview143"
     showgrid="false"
     inkscape:zoom="1.7700001"
     inkscape:cx="66.666664"
     inkscape:cy="66.666664"
     inkscape:window-x="0"
     inkscape:window-y="34"
     inkscape:window-maximized="1"
     inkscape:current-layer="svg2" /><metadata
     id="metadata8"><rdf:RDF><cc:Work
         rdf:about=""><dc:format>image/svg+xml</dc:format><dc:type
           rdf:resource="http://purl.org/dc/dcmitype/StillImage" /></cc:Work></rdf:RDF></metadata><defs
     id="defs6"><clipPath
       id="clipPath18"
       clipPathUnits="userSpaceOnUse"><path
         id="path16"
         d="M 50,100 C 12.956,100 0,87.039 0,50 v 0 C 0,12.961 12.956,0 50,0 v 0 c 37.045,0 50,12.961 50,50 v 0 c 0,37.044 -12.955,50 -50,50 z" /></clipPath><linearGradient
       id="linearGradient30"
       spreadMethod="pad"
       gradientTransform="matrix(77.78125,-77.78125,-77.78125,-77.78125,11.109896,88.891144)"
       gradientUnits="userSpaceOnUse"
       y2="0"
       x2="1"
       y1="0"
       x1="0"><stop
         id="stop24"
         offset="0"
         style="stop-opacity:1;stop-color:#82e0fe" /><stop
         id="stop26"
         offset="0.00000028"
         style="stop-opacity:1;stop-color:#82e0fe" /><stop
         id="stop28"
         offset="1"
         style="stop-opacity:1;stop-color:#4e90eb" /></linearGradient><clipPath
       id="clipPath40"
       clipPathUnits="userSpaceOnUse"><path
         id="path38"
         d="M 0,100 H 100 V 0 H 0 Z" /></clipPath><clipPath
       id="clipPath48"
       clipPathUnits="userSpaceOnUse"><path
         id="path46"
         d="M 8.05571,91.9498 H 91.9475 V 8.05249 H 8.05571 Z" /></clipPath><clipPath
       id="clipPath64"
       clipPathUnits="userSpaceOnUse"><path
         id="path62"
         d="m 36.028,20.762 8.089,-8.089 c 0.785,-0.047 1.583,-0.086 2.403,-0.114 v 0 l 2.17,-3.75 c 0.58,-1.01 2.04,-1.01 2.62,0 v 0 l 2.171,3.75 C 77.46,13.34 86.66,22.54 87.44,46.519 v 0 l 3.751,2.171 c 1.01,0.58 1.01,2.04 0,2.62 v 0 l -3.751,2.17 c -0.061,1.857 -0.179,3.616 -0.342,5.298 v 0 l -20.46,20.461 z" /></clipPath><clipPath
       id="clipPath72"
       clipPathUnits="userSpaceOnUse"><path
         id="path70"
         d="M -32768,32767 H 32767 V -32768 H -32768 Z" /></clipPath><linearGradient
       id="linearGradient80"
       spreadMethod="pad"
       gradientTransform="matrix(35.460064,-35.460064,-35.460064,-35.460064,44.366516,56.966675)"
       gradientUnits="userSpaceOnUse"
       y2="0"
       x2="1"
       y1="0"
       x1="0"><stop
         id="stop74"
         offset="0"
         style="stop-opacity:0.07998779;stop-color:#ffffff" /><stop
         id="stop76"
         offset="0.00000007"
         style="stop-opacity:0.07998779;stop-color:#ffffff" /><stop
         id="stop78"
         offset="1"
         style="stop-opacity:0;stop-color:#ffffff" /></linearGradient><mask
       id="mask82"
       height="1"
       width="1"
       y="0"
       x="0"
       maskUnits="userSpaceOnUse"><g
         id="g92"><g
           id="g90"
           clip-path="url(#clipPath72)"><g
             id="g88"><g
               id="g86"><path
                 id="path84"
                 style="fill:url(#linearGradient80);stroke:none"
                 d="M -32768,32767 H 32767 V -32768 H -32768 Z" /></g></g></g></g></mask><linearGradient
       id="linearGradient104"
       spreadMethod="pad"
       gradientTransform="matrix(35.460064,-35.460064,-35.460064,-35.460064,44.366516,56.966675)"
       gradientUnits="userSpaceOnUse"
       y2="0"
       x2="1"
       y1="0"
       x1="0"><stop
         id="stop98"
         offset="0"
         style="stop-opacity:1;stop-color:#000000" /><stop
         id="stop100"
         offset="0.00000007"
         style="stop-opacity:1;stop-color:#000000" /><stop
         id="stop102"
         offset="1"
         style="stop-opacity:1;stop-color:#000000" /></linearGradient><clipPath
       id="clipPath114"
       clipPathUnits="userSpaceOnUse"><path
         id="path112"
         d="M 0,100 H 100 V 0 H 0 Z" /></clipPath><clipPath
       id="clipPath126"
       clipPathUnits="userSpaceOnUse"><path
         id="path124"
         d="M 35.6756,53.0921 H 57.4269 V 20.3766 H 35.6756 Z" /></clipPath><clipPath
       id="clipPath142"
       clipPathUnits="userSpaceOnUse"><path
         id="path140"
         d="M 8.574,48.856 8.48,48.95 C 8.509,48.917 8.541,48.886 8.574,48.856 M 12.63,44.8 c -0.03,0.56 -0.05,1.141 -0.07,1.719 v 0 L 8.81,48.69 c -0.087,0.047 -0.166,0.103 -0.236,0.166 v 0 z" /></clipPath><clipPath
       id="clipPath150"
       clipPathUnits="userSpaceOnUse"><path
         id="path148"
         d="M -32768,32767 H 32767 V -32768 H -32768 Z" /></clipPath><linearGradient
       id="linearGradient158"
       spreadMethod="pad"
       gradientTransform="matrix(4.1500244,-4.1500244,-4.1500244,-4.1500244,8.8918772,49.361908)"
       gradientUnits="userSpaceOnUse"
       y2="0"
       x2="1"
       y1="0"
       x1="0"><stop
         id="stop152"
         offset="0"
         style="stop-opacity:0.07998779;stop-color:#ffffff" /><stop
         id="stop154"
         offset="0.00000007"
         style="stop-opacity:0.07998779;stop-color:#ffffff" /><stop
         id="stop156"
         offset="1"
         style="stop-opacity:0;stop-color:#ffffff" /></linearGradient><mask
       id="mask160"
       height="1"
       width="1"
       y="0"
       x="0"
       maskUnits="userSpaceOnUse"><g
         id="g170"><g
           id="g168"
           clip-path="url(#clipPath150)"><g
             id="g166"><g
               id="g164"><path
                 id="path162"
                 style="fill:url(#linearGradient158);stroke:none"
                 d="M -32768,32767 H 32767 V -32768 H -32768 Z" /></g></g></g></g></mask><linearGradient
       id="linearGradient182"
       spreadMethod="pad"
       gradientTransform="matrix(4.1500244,-4.1500244,-4.1500244,-4.1500244,8.8918772,49.361908)"
       gradientUnits="userSpaceOnUse"
       y2="0"
       x2="1"
       y1="0"
       x1="0"><stop
         id="stop176"
         offset="0"
         style="stop-opacity:1;stop-color:#000000" /><stop
         id="stop178"
         offset="0.00000007"
         style="stop-opacity:1;stop-color:#000000" /><stop
         id="stop180"
         offset="1"
         style="stop-opacity:1;stop-color:#000000" /></linearGradient><clipPath
       id="clipPath192"
       clipPathUnits="userSpaceOnUse"><path
         id="path190"
         d="m 51.137,91.433 c -0.025,0.027 -0.05,0.053 -0.077,0.077 v 0 z M 51.31,91.19 53.481,87.439 C 54.07,87.42 54.64,87.4 55.21,87.37 v 0 l -4.073,4.063 c 0.066,-0.073 0.122,-0.155 0.173,-0.243" /></clipPath><clipPath
       id="clipPath200"
       clipPathUnits="userSpaceOnUse"><path
         id="path198"
         d="M -32768,32767 H 32767 V -32768 H -32768 Z" /></clipPath><linearGradient
       id="linearGradient208"
       spreadMethod="pad"
       gradientTransform="matrix(4.1450195,-4.1450195,-4.1450195,-4.1450195,50.649994,91.100006)"
       gradientUnits="userSpaceOnUse"
       y2="0"
       x2="1"
       y1="0"
       x1="0"><stop
         id="stop202"
         offset="0"
         style="stop-opacity:0.07998779;stop-color:#ffffff" /><stop
         id="stop204"
         offset="0.00000007"
         style="stop-opacity:0.07998779;stop-color:#ffffff" /><stop
         id="stop206"
         offset="1"
         style="stop-opacity:0;stop-color:#ffffff" /></linearGradient><mask
       id="mask210"
       height="1"
       width="1"
       y="0"
       x="0"
       maskUnits="userSpaceOnUse"><g
         id="g220"><g
           id="g218"
           clip-path="url(#clipPath200)"><g
             id="g216"><g
               id="g214"><path
                 id="path212"
                 style="fill:url(#linearGradient208);stroke:none"
                 d="M -32768,32767 H 32767 V -32768 H -32768 Z" /></g></g></g></g></mask><linearGradient
       id="linearGradient232"
       spreadMethod="pad"
       gradientTransform="matrix(4.1450195,-4.1450195,-4.1450195,-4.1450195,50.649994,91.100006)"
       gradientUnits="userSpaceOnUse"
       y2="0"
       x2="1"
       y1="0"
       x1="0"><stop
         id="stop226"
         offset="0"
         style="stop-opacity:1;stop-color:#000000" /><stop
         id="stop228"
         offset="0.00000007"
         style="stop-opacity:1;stop-color:#000000" /><stop
         id="stop230"
         offset="1"
         style="stop-opacity:1;stop-color:#000000" /></linearGradient><clipPath
       id="clipPath242"
       clipPathUnits="userSpaceOnUse"><path
         id="path240"
         d="m 87.44,53.48 3.751,-2.17 c 1.01,-0.58 1.01,-2.04 0,-2.62 v 0 L 87.44,46.519 C 86.66,22.54 77.46,13.34 53.481,12.559 v 0 L 51.31,8.809 c -0.58,-1.01 -2.04,-1.01 -2.62,0 v 0 l -2.17,3.75 C 34.9,12.94 26.76,15.29 21.35,20.34 v 0 L 41.41,0.28 C 44.12,0.1 46.97,0 50,0 v 0 c 37.04,0 50,12.96 50,50 v 0 c 0,3.031 -0.1,5.88 -0.28,8.59 v 0 L 79.66,78.65 c 5.05,-5.41 7.4,-13.55 7.78,-25.17" /></clipPath><clipPath
       id="clipPath250"
       clipPathUnits="userSpaceOnUse"><path
         id="path248"
         d="M -32768,32767 H 32767 V -32768 H -32768 Z" /></clipPath><linearGradient
       id="linearGradient258"
       spreadMethod="pad"
       gradientTransform="matrix(38.385017,-38.385017,-38.385017,-38.385017,50.504974,49.495026)"
       gradientUnits="userSpaceOnUse"
       y2="0"
       x2="1"
       y1="0"
       x1="0"><stop
         id="stop252"
         offset="0"
         style="stop-opacity:0.07998779;stop-color:#ffffff" /><stop
         id="stop254"
         offset="0.00000007"
         style="stop-opacity:0.07998779;stop-color:#ffffff" /><stop
         id="stop256"
         offset="1"
         style="stop-opacity:0;stop-color:#ffffff" /></linearGradient><mask
       id="mask260"
       height="1"
       width="1"
       y="0"
       x="0"
       maskUnits="userSpaceOnUse"><g
         id="g270"><g
           id="g268"
           clip-path="url(#clipPath250)"><g
             id="g266"><g
               id="g264"><path
                 id="path262"
                 style="fill:url(#linearGradient258);stroke:none"
                 d="M -32768,32767 H 32767 V -32768 H -32768 Z" /></g></g></g></g></mask><linearGradient
       id="linearGradient282"
       spreadMethod="pad"
       gradientTransform="matrix(38.385017,-38.385017,-38.385017,-38.385017,50.504974,49.495026)"
       gradientUnits="userSpaceOnUse"
       y2="0"
       x2="1"
       y1="0"
       x1="0"><stop
         id="stop276"
         offset="0"
         style="stop-opacity:1;stop-color:#000000" /><stop
         id="stop278"
         offset="0.00000007"
         style="stop-opacity:1;stop-color:#000000" /><stop
         id="stop280"
         offset="1"
         style="stop-opacity:1;stop-color:#000000" /></linearGradient></defs><g
     transform="matrix(1.25,0,0,-1.25,4,129.33333)"
     id="g10"><g
       id="g12"><g
         clip-path="url(#clipPath18)"
         id="g14"><g
           id="g20"><g
             id="g22"><path
               id="path32"
               style="fill:url(#linearGradient30);stroke:none"
               d="M 50,100 C 12.956,100 0,87.039 0,50 v 0 C 0,12.961 12.956,0 50,0 v 0 c 37.045,0 50,12.961 50,50 v 0 c 0,37.044 -12.955,50 -50,50 z"
               inkscape:connector-curvature="0" /></g></g></g></g><g
       id="g34"><g
         clip-path="url(#clipPath40)"
         id="g36"><g
           id="g42"><g
             id="g44" /><g
             id="g56"><g
               style="opacity:0.39999402"
               id="g54"
               clip-path="url(#clipPath48)"><g
                 id="g52"
                 transform="translate(91.1904,48.6904)"><path
                   id="path50"
                   style="fill:#ffffff;fill-opacity:1;fill-rule:nonzero;stroke:none"
                   d="m 0,0 -3.75,-2.171 c -0.78,-23.979 -9.98,-33.18 -33.96,-33.96 l -2.171,-3.75 c -0.579,-1.01 -2.039,-1.01 -2.619,0 l -2.17,3.75 c -11.621,0.381 -19.761,2.731 -25.17,7.78 l -0.511,0.5 c -5.139,5.141 -7.639,12.891 -8.21,23.96 -0.029,0.561 -0.049,1.141 -0.069,1.72 L -82.38,0 c -0.13,0.069 -0.241,0.159 -0.33,0.26 -0.661,0.67 -0.55,1.849 0.33,2.36 l 3.75,2.17 c 0.779,23.98 9.98,33.18 33.96,33.96 l 2.17,3.75 c 0.51,0.89 1.7,1 2.369,0.319 0.101,-0.09 0.181,-0.199 0.25,-0.319 l 2.171,-3.75 c 0.59,-0.021 1.159,-0.041 1.73,-0.07 11.059,-0.571 18.809,-3.071 23.95,-8.21 l 0.5,-0.511 C -6.48,24.55 -4.131,16.41 -3.75,4.79 L 0,2.62 C 1.01,2.04 1.01,0.58 0,0"
                   inkscape:connector-curvature="0" /></g></g></g></g></g></g><g
       id="g58"><g
         clip-path="url(#clipPath64)"
         id="g60"><g
           id="g66"><g
             id="g68" /><g
             mask="url(#mask82)"
             id="g94"><g
               id="g96"><path
                 id="path106"
                 style="fill:url(#linearGradient104);stroke:none"
                 d="m 36.028,20.762 8.089,-8.089 c 0.785,-0.047 1.583,-0.086 2.403,-0.114 v 0 l 2.17,-3.75 c 0.58,-1.01 2.04,-1.01 2.62,0 v 0 l 2.171,3.75 C 77.46,13.34 86.66,22.54 87.44,46.519 v 0 l 3.751,2.171 c 1.01,0.58 1.01,2.04 0,2.62 v 0 l -3.751,2.17 c -0.061,1.857 -0.179,3.616 -0.342,5.298 v 0 l -20.46,20.461 z"
                 inkscape:connector-curvature="0" /></g></g></g></g></g><g
       id="g108"><g
         clip-path="url(#clipPath114)"
         id="g110"><g
           transform="translate(57.4268,46.9082)"
           id="g116"><path
             id="path118"
             style="fill:#f255d4;fill-opacity:1;fill-rule:nonzero;stroke:none"
             d="m 0,0 -12.187,6.184 c 0.437,0.843 0.948,1.658 1.522,2.422 l 17.848,23.5 c 0.978,1.281 2.764,0.374 2.308,-1.172 L 1.248,3.053 C 0.934,1.997 0.52,0.972 0,0"
             inkscape:connector-curvature="0" /></g><g
           id="g120"><g
             id="g122" /><g
             id="g134"><g
               style="opacity:0.80000299"
               id="g132"
               clip-path="url(#clipPath126)"><g
                 id="g130"
                 transform="translate(57.4268,46.9082)"><path
                   id="path128"
                   style="fill:#ffffff;fill-opacity:1;fill-rule:nonzero;stroke:none"
                   d="m 0,0 c -0.437,-0.844 -0.948,-1.659 -1.521,-2.422 l -17.848,-23.5 c -0.979,-1.281 -2.765,-0.375 -2.309,1.171 l 8.243,27.881 c 0.314,1.057 0.728,2.082 1.248,3.054 z"
                   inkscape:connector-curvature="0" /></g></g></g></g></g></g><g
       id="g136"><g
         clip-path="url(#clipPath142)"
         id="g138"><g
           id="g144"><g
             id="g146" /><g
             mask="url(#mask160)"
             id="g172"><g
               id="g174"><path
                 id="path184"
                 style="fill:url(#linearGradient182);stroke:none"
                 d="M 8.574,48.856 8.48,48.95 C 8.509,48.917 8.541,48.886 8.574,48.856 M 12.63,44.8 c -0.03,0.56 -0.05,1.141 -0.07,1.719 v 0 L 8.81,48.69 c -0.087,0.047 -0.166,0.103 -0.236,0.166 v 0 z"
                 inkscape:connector-curvature="0" /></g></g></g></g></g><g
       id="g186"><g
         clip-path="url(#clipPath192)"
         id="g188"><g
           id="g194"><g
             id="g196" /><g
             mask="url(#mask210)"
             id="g222"><g
               id="g224"><path
                 id="path234"
                 style="fill:url(#linearGradient232);stroke:none"
                 d="m 51.137,91.433 c -0.025,0.027 -0.05,0.053 -0.077,0.077 v 0 z M 51.31,91.19 53.481,87.439 C 54.07,87.42 54.64,87.4 55.21,87.37 v 0 l -4.073,4.063 c 0.066,-0.073 0.122,-0.155 0.173,-0.243"
                 inkscape:connector-curvature="0" /></g></g></g></g></g><g
       id="g236"><g
         clip-path="url(#clipPath242)"
         id="g238"><g
           id="g244"><g
             id="g246" /><g
             mask="url(#mask260)"
             id="g272"><g
               id="g274"><path
                 id="path284"
                 style="fill:url(#linearGradient282);stroke:none"
                 d="m 87.44,53.48 3.751,-2.17 c 1.01,-0.58 1.01,-2.04 0,-2.62 v 0 L 87.44,46.519 C 86.66,22.54 77.46,13.34 53.481,12.559 v 0 L 51.31,8.809 c -0.58,-1.01 -2.04,-1.01 -2.62,0 v 0 l -2.17,3.75 C 34.9,12.94 26.76,15.29 21.35,20.34 v 0 L 41.41,0.28 C 44.12,0.1 46.97,0 50,0 v 0 c 37.04,0 50,12.96 50,50 v 0 c 0,3.031 -0.1,5.88 -0.28,8.59 v 0 L 79.66,78.65 c 5.05,-5.41 7.4,-13.55 7.78,-25.17"
                 inkscape:connector-curvature="0" /></g></g></g></g></g></g></svg>