<svg xmlns="http://www.w3.org/2000/svg" xmlns:xlink="http://www.w3.org/1999/xlink" viewBox="0 0 192 192"><defs><style>.cls-1{fill:none;}.cls-2{opacity:0.01;}.cls-2,.cls-3,.cls-4,.cls-5{isolation:isolate;}.cls-3{opacity:0.02;}.cls-4{opacity:0.04;}.cls-5{opacity:0.06;}.cls-6{fill:#f5f5f5;}.cls-7{opacity:0.6;}.cls-8{fill:#fff;}.cls-9{fill:#ffde47;}.cls-10{fill:#afe881;}.cls-11{fill:#a4c9fe;}.cls-12{fill:#ffd068;}.cls-13{fill:url(#未命名的渐变);}.cls-14{fill:url(#未命名的渐变_2);}.cls-15{fill:url(#未命名的渐变_7);}.cls-16{fill:#0070c4;}.cls-17{fill:#15a6ff;}</style><linearGradient id="未命名的渐变" x1="166" y1="28" x2="25.99" y2="168" gradientTransform="matrix(1, 0, 0, -1, 0, 194)" gradientUnits="userSpaceOnUse"><stop offset="0" stop-opacity="0.05"/><stop offset="0.5" stop-color="gray" stop-opacity="0"/><stop offset="1" stop-color="#fff" stop-opacity="0.1"/></linearGradient><linearGradient id="未命名的渐变_2" x1="166" y1="28" x2="26" y2="168" gradientTransform="matrix(1, 0, 0, -1, 0, 194)" gradientUnits="userSpaceOnUse"><stop offset="0" stop-opacity="0.1"/><stop offset="0.5" stop-color="gray" stop-opacity="0.05"/><stop offset="1" stop-color="#fff" stop-opacity="0.15"/></linearGradient><linearGradient id="未命名的渐变_7" x1="173.14" y1="35.15" x2="76.54" y2="131.77" gradientTransform="matrix(1, 0, 0, -1, 0, 194)" gradientUnits="userSpaceOnUse"><stop offset="0" stop-opacity="0.02"/><stop offset="1" stop-opacity="0.18"/></linearGradient></defs><title>gaodeminimap</title><g id="图层_2" data-name="图层 2"><g id="图层_1-2" data-name="图层 1"><rect class="cls-1" width="192" height="192"/><path class="cls-2" d="M96,190C27.34,190,3,165.66,3,97S27.34,4,96,4s93,24.34,93,93S164.66,190,96,190Z"/><path class="cls-3" d="M96,189C28.07,189,4,164.92,4,97S28.07,5,96,5s92,24.07,92,92S163.93,189,96,189Z"/><path class="cls-4" d="M96,188C28.81,188,5,164.19,5,97S28.81,6,96,6s91,23.81,91,91S163.19,188,96,188Z"/><path class="cls-5" d="M186,97c0,66.67-23.32,90-90,90S6,163.67,6,97,29.32,7,96,7,186,30.32,186,97Z"/><path class="cls-6" d="M186,96c0,66.67-23.32,90-90,90S6,162.67,6,96,29.32,6,96,6,186,29.32,186,96Z"/><g class="cls-7"><path class="cls-8" d="M73.61,7.07a122.09,122.09,0,0,0-19.18,3.45l127,127a122.1,122.1,0,0,0,3.45-19.18Z"/><path class="cls-8" d="M179.48,48,48,179.48A100.1,100.1,0,0,0,66.19,184L184,66.19A100.1,100.1,0,0,0,179.48,48Z"/><path class="cls-9" d="M17,38.1A77.71,77.71,0,0,0,9.43,58.85L133.15,182.57A77.72,77.72,0,0,0,153.9,175Z"/><path class="cls-10" d="M179.48,48C168.6,17.66,143.14,6,96,6A214.2,214.2,0,0,0,73.61,7.07L147,80.49Z"/><path class="cls-11" d="M133.15,182.57l-32.78-32.78L66.19,184A192.56,192.56,0,0,0,96,186C110.32,186,122.63,184.92,133.15,182.57Z"/><path class="cls-12" d="M126.1,8.09l-118,118a90.17,90.17,0,0,0,7,24.11L150.22,15.09A90.18,90.18,0,0,0,126.1,8.09Z"/></g><path class="cls-13" d="M96,6C29.32,6,6,29.32,6,96s23.32,90,90,90,90-23.33,90-90S162.68,6,96,6Zm68.59,158.59C151.17,178,130,184,96,184s-55.17-6-68.59-19.41S8,130,8,96s6-55.17,19.41-68.59S62,8,96,8s55.17,6,68.59,19.41S184,62,184,96,178,151.16,164.59,164.59Z"/><path class="cls-14" d="M186,96c0,66.67-23.32,90-90,90S6,162.67,6,96,29.32,6,96,6,186,29.32,186,96Z"/><path class="cls-15" d="M185.84,105.23,138.68,58.07,43.38,95.38,131,183C168.7,175.39,184.13,152.29,185.84,105.23Z"/><path class="cls-16" d="M138.78,58c-3.54-3.54-11.9-.75-11.9-.75l-71,25.6s-14.16,3.86-14.16,9.67c0,4.8,14.16,11,14.16,11l24.5,12.9Z"/><path class="cls-17" d="M138.78,58c3.54,3.54.75,11.9.75,11.9l-25.6,71s-3.87,14.1-9.68,14.1c-4.8,0-11-14.16-11-14.16l-12.9-24.5Z"/></g></g></svg>