<?xml version="1.0" encoding="UTF-8" standalone="no"?>
<svg
   xmlns:dc="http://purl.org/dc/elements/1.1/"
   xmlns:cc="http://creativecommons.org/ns#"
   xmlns:rdf="http://www.w3.org/1999/02/22-rdf-syntax-ns#"
   xmlns:svg="http://www.w3.org/2000/svg"
   xmlns="http://www.w3.org/2000/svg"
   xmlns:sodipodi="http://sodipodi.sourceforge.net/DTD/sodipodi-0.dtd"
   xmlns:inkscape="http://www.inkscape.org/namespaces/inkscape"
   viewBox="0 0 133.33333 133.33333"
   height="133.33333"
   width="133.33333"
   xml:space="preserve"
   id="svg2"
   version="1.1"
   sodipodi:docname="harbour-citybikes.svg"
   inkscape:version="0.92.2 2405546, 2018-03-11"><sodipodi:namedview
     pagecolor="#ffffff"
     bordercolor="#666666"
     borderopacity="1"
     objecttolerance="10"
     gridtolerance="10"
     guidetolerance="10"
     inkscape:pageopacity="0"
     inkscape:pageshadow="2"
     inkscape:window-width="1366"
     inkscape:window-height="706"
     id="namedview48"
     showgrid="false"
     inkscape:zoom="1.7700001"
     inkscape:cx="66.666664"
     inkscape:cy="66.666664"
     inkscape:window-x="0"
     inkscape:window-y="34"
     inkscape:window-maximized="1"
     inkscape:current-layer="svg2" /><metadata
     id="metadata8"><rdf:RDF><cc:Work
         rdf:about=""><dc:format>image/svg+xml</dc:format><dc:type
           rdf:resource="http://purl.org/dc/dcmitype/StillImage" /></cc:Work></rdf:RDF></metadata><defs
     id="defs6"><clipPath
       id="clipPath18"
       clipPathUnits="userSpaceOnUse"><path
         id="path16"
         d="M 50,100 C 12.956,100 0,87.039 0,50 v 0 C 0,12.961 12.956,0 50,0 v 0 c 37.045,0 50,12.961 50,50 v 0 c 0,37.044 -12.955,50 -50,50 z" /></clipPath><linearGradient
       id="linearGradient30"
       spreadMethod="pad"
       gradientTransform="matrix(77.78125,-77.78125,-77.78125,-77.78125,11.109896,88.891144)"
       gradientUnits="userSpaceOnUse"
       y2="0"
       x2="1"
       y1="0"
       x1="0"><stop
         id="stop24"
         offset="0"
         style="stop-opacity:1;stop-color:#e671a6" /><stop
         id="stop26"
         offset="0.00000038"
         style="stop-opacity:1;stop-color:#e671a6" /><stop
         id="stop28"
         offset="1"
         style="stop-opacity:1;stop-color:#8943ab" /></linearGradient><clipPath
       id="clipPath40"
       clipPathUnits="userSpaceOnUse"><path
         id="path38"
         d="M 67.734,69.25 60.417,67.333 64.25,59.167 58.079,53.434 54.922,56.592 51.093,55.718 40.203,66.608 36,64.688 32.406,65.437 29.225,64.484 36.029,57.68 31.313,59.188 22.188,56.875 16.375,47.5 19.49,34.58 54.009,0.059 c 30.122,0.835 42.979,11.43 45.505,38.689 v 0 L 68.657,69.604 Z" /></clipPath><clipPath
       id="clipPath48"
       clipPathUnits="userSpaceOnUse"><path
         id="path46"
         d="M -32768,32767 H 32767 V -32768 H -32768 Z" /></clipPath><linearGradient
       id="linearGradient56"
       spreadMethod="pad"
       gradientTransform="matrix(56.50882,-56.50882,-56.50882,-56.50882,30.453018,65.711868)"
       gradientUnits="userSpaceOnUse"
       y2="0"
       x2="1"
       y1="0"
       x1="0"><stop
         id="stop50"
         offset="0"
         style="stop-opacity:0.11999695;stop-color:#ffffff" /><stop
         id="stop52"
         offset="0.00000038"
         style="stop-opacity:0.11999695;stop-color:#ffffff" /><stop
         id="stop54"
         offset="1"
         style="stop-opacity:0;stop-color:#ffffff" /></linearGradient><mask
       id="mask58"
       height="1"
       width="1"
       y="0"
       x="0"
       maskUnits="userSpaceOnUse"><g
         id="g68"><g
           id="g66"
           clip-path="url(#clipPath48)"><g
             id="g64"><g
               id="g62"><path
                 id="path60"
                 style="fill:url(#linearGradient56);stroke:none"
                 d="M -32768,32767 H 32767 V -32768 H -32768 Z" /></g></g></g></g></mask><linearGradient
       id="linearGradient80"
       spreadMethod="pad"
       gradientTransform="matrix(56.50882,-56.50882,-56.50882,-56.50882,30.453018,65.711868)"
       gradientUnits="userSpaceOnUse"
       y2="0"
       x2="1"
       y1="0"
       x1="0"><stop
         id="stop74"
         offset="0"
         style="stop-opacity:1;stop-color:#000000" /><stop
         id="stop76"
         offset="0.00000038"
         style="stop-opacity:1;stop-color:#000000" /><stop
         id="stop78"
         offset="1"
         style="stop-opacity:1;stop-color:#000000" /></linearGradient><clipPath
       id="clipPath90"
       clipPathUnits="userSpaceOnUse"><path
         id="path88"
         d="M 0,100 H 100 V 0 H 0 Z" /></clipPath></defs><g
     transform="matrix(1.25,0,0,-1.25,4,129.33333)"
     id="g10"><g
       id="g12"><g
         clip-path="url(#clipPath18)"
         id="g14"><g
           id="g20"><g
             id="g22"><path
               id="path32"
               style="fill:url(#linearGradient30);stroke:none"
               d="M 50,100 C 12.956,100 0,87.039 0,50 v 0 C 0,12.961 12.956,0 50,0 v 0 c 37.045,0 50,12.961 50,50 v 0 c 0,37.044 -12.955,50 -50,50 z"
               inkscape:connector-curvature="0" /></g></g></g></g><g
       id="g34"><g
         clip-path="url(#clipPath40)"
         id="g36"><g
           id="g42"><g
             id="g44" /><g
             mask="url(#mask58)"
             id="g70"><g
               id="g72"><path
                 id="path82"
                 style="fill:url(#linearGradient80);stroke:none"
                 d="M 67.734,69.25 60.417,67.333 64.25,59.167 58.079,53.434 54.922,56.592 51.093,55.718 40.203,66.608 36,64.688 32.406,65.437 29.225,64.484 36.029,57.68 31.313,59.188 22.188,56.875 16.375,47.5 19.49,34.58 54.009,0.059 c 30.122,0.835 42.979,11.43 45.505,38.689 v 0 L 68.657,69.604 Z"
                 inkscape:connector-curvature="0" /></g></g></g></g></g><g
       id="g84"><g
         clip-path="url(#clipPath90)"
         id="g86"><g
           transform="translate(80.4229,56.1362)"
           id="g92"><path
             id="path94"
             style="fill:#ffffff;fill-opacity:1;fill-rule:nonzero;stroke:none"
             d="m 0,0 c -2.492,2.5 -5.617,3.955 -8.856,4.373 -1.421,0.19 -2.864,0.176 -4.278,-0.036 -0.753,-0.11 -1.497,-0.28 -2.229,-0.504 l -2.99,7.071 h 5.53 c 0.829,0 1.5,0.671 1.5,1.5 0,0.828 -0.671,1.5 -1.5,1.5 h -7.796 c -1.074,0 -1.8,-1.096 -1.381,-2.085 l 0.387,-0.915 3.482,-8.238 c -1.278,-0.691 -2.484,-1.567 -3.566,-2.649 l -0.651,-0.65 -18.915,-18.915 c -2.171,-2.171 -4.957,-3.36 -7.806,-3.565 -3.834,-0.29 -7.772,1.211 -10.465,4.483 -3.643,4.426 -3.701,10.967 -0.131,15.453 4.663,5.857 13.259,6.222 18.402,1.08 2.638,-2.638 3.825,-6.188 3.571,-9.638 l 2.913,2.913 c -0.289,2.199 -1.053,4.349 -2.291,6.28 h 8.571 l 2.998,2.998 h -13.982 c -0.187,0.123 -0.379,0.251 -0.566,0.375 l -2.994,7.073 h 1.77 c 0.829,0 1.5,0.671 1.5,1.5 0,0.828 -0.671,1.5 -1.5,1.5 h -8.86 c -0.828,0 -1.5,-0.672 -1.5,-1.5 0,-0.829 0.672,-1.5 1.5,-1.5 h 3.84 l 1.878,-4.444 c -5.263,2.052 -11.431,1.087 -15.843,-2.9 -6.337,-5.727 -6.658,-16.019 -0.676,-22.116 2.499,-2.547 5.667,-4.039 8.952,-4.47 1.42,-0.19 2.863,-0.177 4.285,0.043 3.125,0.466 6.144,1.901 8.555,4.314 l 19.566,19.565 c 0.799,0.798 1.68,1.461 2.617,1.996 l 4.211,-9.964 c 0.323,-0.764 1.205,-1.123 1.97,-0.8 0.765,0.324 1.123,1.206 0.799,1.971 l -4.204,9.943 c 0.796,0.222 1.609,0.373 2.428,0.432 3.84,0.267 7.785,-1.234 10.471,-4.524 3.627,-4.443 3.661,-10.984 0.072,-15.457 -4.67,-5.822 -13.232,-6.166 -18.364,-1.035 -2.63,2.63 -3.819,6.167 -3.577,9.617 l -2.9,-2.899 c 0.417,-3.231 1.866,-6.35 4.356,-8.839 5.962,-5.962 15.6,-5.989 21.596,-0.083 C 5.888,-15.846 5.935,-5.953 0,0"
             inkscape:connector-curvature="0" /></g></g></g></g></svg>