<?xml version="1.0" encoding="UTF-8" standalone="no"?>
<!-- Created with Inkscape (http://www.inkscape.org/) -->

<svg
   xmlns:dc="http://purl.org/dc/elements/1.1/"
   xmlns:cc="http://creativecommons.org/ns#"
   xmlns:rdf="http://www.w3.org/1999/02/22-rdf-syntax-ns#"
   xmlns:svg="http://www.w3.org/2000/svg"
   xmlns="http://www.w3.org/2000/svg"
   xmlns:sodipodi="http://sodipodi.sourceforge.net/DTD/sodipodi-0.dtd"
   xmlns:inkscape="http://www.inkscape.org/namespaces/inkscape"
   version="1.1"
   id="svg2"
   xml:space="preserve"
   width="133.33333"
   height="133.33333"
   viewBox="0 0 133.33333 133.33333"
   sodipodi:docname="harbour-sailbook.svg"
   inkscape:version="0.92.2 2405546, 2018-03-11"><metadata
     id="metadata8"><rdf:RDF><cc:Work
         rdf:about=""><dc:format>image/svg+xml</dc:format><dc:type
           rdf:resource="http://purl.org/dc/dcmitype/StillImage" /><dc:title /></cc:Work></rdf:RDF></metadata><defs
     id="defs6"><clipPath
       clipPathUnits="userSpaceOnUse"
       id="clipPath18"><path
         d="M 50,100 C 12.956,100 0,87.039 0,50 v 0 C 0,12.961 12.956,0 50,0 v 0 c 37.045,0 50,12.961 50,50 v 0 c 0,37.044 -12.955,50 -50,50 z"
         id="path16"
         inkscape:connector-curvature="0" /></clipPath><linearGradient
       x1="0"
       y1="0"
       x2="1"
       y2="0"
       gradientUnits="userSpaceOnUse"
       gradientTransform="matrix(77.78125,-77.78125,-77.78125,-77.78125,11.109896,88.891144)"
       spreadMethod="pad"
       id="linearGradient30"><stop
         style="stop-opacity:1;stop-color:#9aaed9"
         offset="0"
         id="stop24" /><stop
         style="stop-opacity:1;stop-color:#9aaed9"
         offset="0.00000038"
         id="stop26" /><stop
         style="stop-opacity:1;stop-color:#6b87c2"
         offset="1"
         id="stop28" /></linearGradient><clipPath
       clipPathUnits="userSpaceOnUse"
       id="clipPath40"><path
         d="M 50.611,59.063 16.461,33.976 22.754,27.682 21.623,26.924 48.531,0.016 C 49.022,0.012 49.5,0 50,0 v 0 c 37.045,0 50,12.961 50,50 v 0 c 0,0.647 -0.014,1.269 -0.022,1.901 v 0 L 70.98,80.9 66.396,76.865 59.801,83.458 Z"
         id="path38"
         inkscape:connector-curvature="0" /></clipPath><clipPath
       clipPathUnits="userSpaceOnUse"
       id="clipPath48"><path
         d="M -32768,32767 H 32767 V -32768 H -32768 Z"
         id="path46"
         inkscape:connector-curvature="0" /></clipPath><linearGradient
       x1="0"
       y1="0"
       x2="1"
       y2="0"
       gradientUnits="userSpaceOnUse"
       gradientTransform="matrix(50.718624,-50.718624,-50.718624,-50.718624,38.278854,61.93486)"
       spreadMethod="pad"
       id="linearGradient54"><stop
         style="stop-opacity:0.11999695;stop-color:#ffffff"
         offset="0"
         id="stop50" /><stop
         style="stop-opacity:0;stop-color:#ffffff"
         offset="1"
         id="stop52" /></linearGradient><mask
       maskUnits="userSpaceOnUse"
       x="0"
       y="0"
       width="1"
       height="1"
       id="mask56"><g
         id="g66"><g
           clip-path="url(#clipPath48)"
           id="g64"><g
             id="g62"><g
               id="g60"><path
                 d="M -32768,32767 H 32767 V -32768 H -32768 Z"
                 style="fill:url(#linearGradient54);stroke:none"
                 id="path58"
                 inkscape:connector-curvature="0" /></g></g></g></g></mask><linearGradient
       x1="0"
       y1="0"
       x2="1"
       y2="0"
       gradientUnits="userSpaceOnUse"
       gradientTransform="matrix(50.718624,-50.718624,-50.718624,-50.718624,38.278854,61.93486)"
       spreadMethod="pad"
       id="linearGradient76"><stop
         style="stop-opacity:1;stop-color:#000000"
         offset="0"
         id="stop72" /><stop
         style="stop-opacity:1;stop-color:#000000"
         offset="1"
         id="stop74" /></linearGradient><clipPath
       clipPathUnits="userSpaceOnUse"
       id="clipPath86"><path
         d="M 0,100 H 100 V 0 H 0 Z"
         id="path84"
         inkscape:connector-curvature="0" /></clipPath><clipPath
       clipPathUnits="userSpaceOnUse"
       id="clipPath106"><path
         d="m 33.267,67.146 31.096,-31.097 3.594,19.99 -1.264,11.107 z"
         id="path104"
         inkscape:connector-curvature="0" /></clipPath><clipPath
       clipPathUnits="userSpaceOnUse"
       id="clipPath114"><path
         d="M -32768,32767 H 32767 V -32768 H -32768 Z"
         id="path112"
         inkscape:connector-curvature="0" /></clipPath><linearGradient
       x1="0"
       y1="0"
       x2="1"
       y2="0"
       gradientUnits="userSpaceOnUse"
       gradientTransform="matrix(31.095972,-31.095972,-31.095972,-31.095972,41.622776,75.50222)"
       spreadMethod="pad"
       id="linearGradient120"><stop
         style="stop-opacity:0.07998779;stop-color:#ffffff"
         offset="0"
         id="stop116" /><stop
         style="stop-opacity:0;stop-color:#ffffff"
         offset="1"
         id="stop118" /></linearGradient><mask
       maskUnits="userSpaceOnUse"
       x="0"
       y="0"
       width="1"
       height="1"
       id="mask122"><g
         id="g132"><g
           clip-path="url(#clipPath114)"
           id="g130"><g
             id="g128"><g
               id="g126"><path
                 d="M -32768,32767 H 32767 V -32768 H -32768 Z"
                 style="fill:url(#linearGradient120);stroke:none"
                 id="path124"
                 inkscape:connector-curvature="0" /></g></g></g></g></mask><linearGradient
       x1="0"
       y1="0"
       x2="1"
       y2="0"
       gradientUnits="userSpaceOnUse"
       gradientTransform="matrix(31.095972,-31.095972,-31.095972,-31.095972,41.622776,75.50222)"
       spreadMethod="pad"
       id="linearGradient142"><stop
         style="stop-opacity:1;stop-color:#000000"
         offset="0"
         id="stop138" /><stop
         style="stop-opacity:1;stop-color:#000000"
         offset="1"
         id="stop140" /></linearGradient><clipPath
       clipPathUnits="userSpaceOnUse"
       id="clipPath152"><path
         d="M 0,100 H 100 V 0 H 0 Z"
         id="path150"
         inkscape:connector-curvature="0" /></clipPath><clipPath
       clipPathUnits="userSpaceOnUse"
       id="clipPath172"><path
         d="M 78.098,55.13 77.71,55.01 54.9,47.94 49.98,46.42 45.6,47.78 22.63,54.89 21.854,55.13 c -1.103,0.339 -2.205,-0.524 -2.141,-1.675 v 0 l 1.425,-25.45 c 0.038,-0.669 0.475,-1.249 1.106,-1.471 v 0 L 45.6,18.36 l 4.38,-1.53 4.92,1.72 22.816,7.984 c 0.632,0.222 1.068,0.802 1.105,1.471 v 0 l 1.418,25.451 c 0.053,0.978 -0.736,1.748 -1.651,1.748 v 0 c -0.161,0 -0.326,-0.024 -0.49,-0.074"
         id="path170"
         inkscape:connector-curvature="0" /></clipPath><linearGradient
       x1="0"
       y1="0"
       x2="1"
       y2="0"
       gradientUnits="userSpaceOnUse"
       gradientTransform="matrix(60.530174,0,0,-60.530174,19.710331,36.017086)"
       spreadMethod="pad"
       id="linearGradient186"><stop
         style="stop-opacity:1;stop-color:#736357"
         offset="0"
         id="stop178" /><stop
         style="stop-opacity:1;stop-color:#736357"
         offset="0.499145"
         id="stop180" /><stop
         style="stop-opacity:1;stop-color:#524741"
         offset="0.531624"
         id="stop182" /><stop
         style="stop-opacity:1;stop-color:#524741"
         offset="1"
         id="stop184" /></linearGradient><clipPath
       clipPathUnits="userSpaceOnUse"
       id="clipPath196"><path
         d="m 20.905,32.166 v -10e-4 l 7.942,-7.942 16.753,-5.863 4.38,-1.53 4.618,1.615 -26.029,26.028 -3.546,0.749 -3.783,3.783 z"
         id="path194"
         inkscape:connector-curvature="0" /></clipPath><clipPath
       clipPathUnits="userSpaceOnUse"
       id="clipPath204"><path
         d="M -32768,32767 H 32767 V -32768 H -32768 Z"
         id="path202"
         inkscape:connector-curvature="0" /></clipPath><linearGradient
       x1="0"
       y1="0"
       x2="1"
       y2="0"
       gradientUnits="userSpaceOnUse"
       gradientTransform="matrix(31.959076,-31.959076,-31.959076,-31.959076,17.645676,45.410446)"
       spreadMethod="pad"
       id="linearGradient210"><stop
         style="stop-opacity:0.11999695;stop-color:#ffffff"
         offset="0"
         id="stop206" /><stop
         style="stop-opacity:0;stop-color:#ffffff"
         offset="1"
         id="stop208" /></linearGradient><mask
       maskUnits="userSpaceOnUse"
       x="0"
       y="0"
       width="1"
       height="1"
       id="mask212"><g
         id="g222"><g
           clip-path="url(#clipPath204)"
           id="g220"><g
             id="g218"><g
               id="g216"><path
                 d="M -32768,32767 H 32767 V -32768 H -32768 Z"
                 style="fill:url(#linearGradient210);stroke:none"
                 id="path214"
                 inkscape:connector-curvature="0" /></g></g></g></g></mask><linearGradient
       x1="0"
       y1="0"
       x2="1"
       y2="0"
       gradientUnits="userSpaceOnUse"
       gradientTransform="matrix(31.959076,-31.959076,-31.959076,-31.959076,17.645676,45.410446)"
       spreadMethod="pad"
       id="linearGradient232"><stop
         style="stop-opacity:1;stop-color:#000000"
         offset="0"
         id="stop228" /><stop
         style="stop-opacity:1;stop-color:#000000"
         offset="1"
         id="stop230" /></linearGradient><clipPath
       clipPathUnits="userSpaceOnUse"
       id="clipPath242"><path
         d="m 72.044,34.244 6.684,-6.685 c 0.05,0.142 0.084,0.291 0.093,0.446 v 0 l 0.527,9.45 z"
         id="path240"
         inkscape:connector-curvature="0" /></clipPath><clipPath
       clipPathUnits="userSpaceOnUse"
       id="clipPath250"><path
         d="M -32768,32767 H 32767 V -32768 H -32768 Z"
         id="path248"
         inkscape:connector-curvature="0" /></clipPath><linearGradient
       x1="0"
       y1="0"
       x2="1"
       y2="0"
       gradientUnits="userSpaceOnUse"
       gradientTransform="matrix(6.6853328,-6.6853328,-6.6853328,-6.6853328,74.672455,36.872528)"
       spreadMethod="pad"
       id="linearGradient258"><stop
         style="stop-opacity:0.11999695;stop-color:#ffffff"
         offset="0"
         id="stop252" /><stop
         style="stop-opacity:0.11999695;stop-color:#ffffff"
         offset="0.00000006"
         id="stop254" /><stop
         style="stop-opacity:0;stop-color:#ffffff"
         offset="1"
         id="stop256" /></linearGradient><mask
       maskUnits="userSpaceOnUse"
       x="0"
       y="0"
       width="1"
       height="1"
       id="mask260"><g
         id="g270"><g
           clip-path="url(#clipPath250)"
           id="g268"><g
             id="g266"><g
               id="g264"><path
                 d="M -32768,32767 H 32767 V -32768 H -32768 Z"
                 style="fill:url(#linearGradient258);stroke:none"
                 id="path262"
                 inkscape:connector-curvature="0" /></g></g></g></g></mask><linearGradient
       x1="0"
       y1="0"
       x2="1"
       y2="0"
       gradientUnits="userSpaceOnUse"
       gradientTransform="matrix(6.6853328,-6.6853328,-6.6853328,-6.6853328,74.672455,36.872528)"
       spreadMethod="pad"
       id="linearGradient282"><stop
         style="stop-opacity:1;stop-color:#000000"
         offset="0"
         id="stop276" /><stop
         style="stop-opacity:1;stop-color:#000000"
         offset="0.00000006"
         id="stop278" /><stop
         style="stop-opacity:1;stop-color:#000000"
         offset="1"
         id="stop280" /></linearGradient><clipPath
       clipPathUnits="userSpaceOnUse"
       id="clipPath292"><path
         d="M 0,100 H 100 V 0 H 0 Z"
         id="path290"
         inkscape:connector-curvature="0" /></clipPath></defs><sodipodi:namedview
     pagecolor="#ffffff"
     bordercolor="#666666"
     borderopacity="1"
     objecttolerance="10"
     gridtolerance="10"
     guidetolerance="10"
     inkscape:pageopacity="0"
     inkscape:pageshadow="2"
     inkscape:window-width="1366"
     inkscape:window-height="706"
     id="namedview4"
     showgrid="false"
     inkscape:zoom="1.7700001"
     inkscape:cx="66.666665"
     inkscape:cy="66.666665"
     inkscape:window-x="0"
     inkscape:window-y="34"
     inkscape:window-maximized="1"
     inkscape:current-layer="g10" /><g
     id="g10"
     inkscape:groupmode="layer"
     inkscape:label="sailbook"
     transform="matrix(1.3333333,0,0,-1.3333333,0,133.33333)"><g
       id="g12"
       transform="matrix(0.93750002,0,0,0.93750002,3.0000001,3.0000014)"><g
         id="g14"
         clip-path="url(#clipPath18)"><g
           id="g20"><g
             id="g22"><path
               d="M 50,100 C 12.956,100 0,87.039 0,50 v 0 C 0,12.961 12.956,0 50,0 v 0 c 37.045,0 50,12.961 50,50 v 0 c 0,37.044 -12.955,50 -50,50 z"
               style="fill:url(#linearGradient30);stroke:none"
               id="path32"
               inkscape:connector-curvature="0" /></g></g></g></g><g
       id="g34"
       transform="matrix(0.93750002,0,0,0.93750002,3.0000001,3.0000014)"><g
         id="g36"
         clip-path="url(#clipPath40)"><g
           id="g42"><g
             id="g44" /><g
             id="g68"
             mask="url(#mask56)"><g
               id="g70"><path
                 d="M 50.611,59.063 16.461,33.976 22.754,27.682 21.623,26.924 48.531,0.016 C 49.022,0.012 49.5,0 50,0 v 0 c 37.045,0 50,12.961 50,50 v 0 c 0,0.647 -0.014,1.269 -0.022,1.901 v 0 L 70.98,80.9 66.396,76.865 59.801,83.458 Z"
                 style="fill:url(#linearGradient76);stroke:none"
                 id="path78"
                 inkscape:connector-curvature="0" /></g></g></g></g></g><g
       id="g80"
       transform="matrix(0.93750002,0,0,0.93750002,3.0000001,3.0000014)"><g
         id="g82"
         clip-path="url(#clipPath86)"><g
           id="g88"
           transform="translate(49.8799,87.4399)"><path
             d="M 0,0 V -6.54 H -11.76 C -9.29,-2.64 -4.95,-0.04 0,0"
             style="fill:#f2f2f2;fill-opacity:1;fill-rule:nonzero;stroke:none"
             id="path90"
             inkscape:connector-curvature="0" /></g><g
           id="g92"
           transform="translate(49.8799,80.8999)"><path
             d="M 0,0 V -8.9 H -18.95 L -20.9,0 Z"
             style="fill:#ffffff;fill-opacity:1;fill-rule:nonzero;stroke:none"
             id="path94"
             inkscape:connector-curvature="0" /></g><g
           id="g96"
           transform="translate(66.6924,67.146)"><path
             d="m 0,0 h -33.426 l -2.808,-24.646 H 2.808 Z"
             style="fill:#f7e0c6;fill-opacity:1;fill-rule:nonzero;stroke:none"
             id="path98"
             inkscape:connector-curvature="0" /></g></g></g><g
       id="g100"
       transform="matrix(0.93750002,0,0,0.93750002,3.0000001,3.0000014)"><g
         id="g102"
         clip-path="url(#clipPath106)"><g
           id="g108"><g
             id="g110" /><g
             id="g134"
             mask="url(#mask122)"><g
               id="g136"><path
                 d="m 33.267,67.146 31.096,-31.097 3.594,19.99 -1.264,11.107 z"
                 style="fill:url(#linearGradient142);stroke:none"
                 id="path144"
                 inkscape:connector-curvature="0" /></g></g></g></g></g><g
       id="g146"
       transform="matrix(0.93750002,0,0,0.93750002,3.0000001,3.0000014)"><g
         id="g148"
         clip-path="url(#clipPath152)"><g
           id="g154"
           transform="translate(45.3418,56.8496)"><path
             d="m 0,0 c 0,-2.661 -1.324,-4.818 -2.956,-4.818 -1.632,0 -2.956,2.157 -2.956,4.818 0,2.662 1.324,4.819 2.956,4.819 C -1.324,4.819 0,2.662 0,0"
             style="fill:#333333;fill-opacity:1;fill-rule:nonzero;stroke:none"
             id="path156"
             inkscape:connector-curvature="0" /></g><g
           id="g158"
           transform="translate(54.418,56.8496)"><path
             d="m 0,0 c 0,-2.661 1.324,-4.818 2.956,-4.818 1.633,0 2.956,2.157 2.956,4.818 0,2.662 -1.323,4.819 -2.956,4.819 C 1.324,4.819 0,2.662 0,0"
             style="fill:#333333;fill-opacity:1;fill-rule:nonzero;stroke:none"
             id="path160"
             inkscape:connector-curvature="0" /></g><g
           id="g162"
           transform="translate(77.71,55.0098)"><path
             d="m 0,0 -22.81,-7.069 -4.92,-1.521 -4.38,1.361 -22.97,7.109 2.181,1.946 c 0.719,0.642 1.722,0.86 2.643,0.574 L -27.8,-4.56 -4.973,2.51 c 0.888,0.275 1.854,0.082 2.569,-0.512 z"
             style="fill:#ffffff;fill-opacity:1;fill-rule:nonzero;stroke:none"
             id="path164"
             inkscape:connector-curvature="0" /></g></g></g><g
       id="g166"
       transform="matrix(0.93750002,0,0,0.93750002,3.0000001,3.0000014)"><g
         id="g168"
         clip-path="url(#clipPath172)"><g
           id="g174"><g
             id="g176"><path
               d="M 78.098,55.13 77.71,55.01 54.9,47.94 49.98,46.42 45.6,47.78 22.63,54.89 21.854,55.13 c -1.103,0.339 -2.205,-0.524 -2.141,-1.675 v 0 l 1.425,-25.45 c 0.038,-0.669 0.475,-1.249 1.106,-1.471 v 0 L 45.6,18.36 l 4.38,-1.53 4.92,1.72 22.816,7.984 c 0.632,0.222 1.068,0.802 1.105,1.471 v 0 l 1.418,25.451 c 0.053,0.978 -0.736,1.748 -1.651,1.748 v 0 c -0.161,0 -0.326,-0.024 -0.49,-0.074"
               style="fill:url(#linearGradient186);stroke:none"
               id="path188"
               inkscape:connector-curvature="0" /></g></g></g></g><g
       id="g190"
       transform="matrix(0.93750002,0,0,0.93750002,3.0000001,3.0000014)"><g
         id="g192"
         clip-path="url(#clipPath196)"><g
           id="g198"><g
             id="g200" /><g
             id="g224"
             mask="url(#mask212)"><g
               id="g226"><path
                 d="m 20.905,32.166 v -10e-4 l 7.942,-7.942 16.753,-5.863 4.38,-1.53 4.618,1.615 -26.029,26.028 -3.546,0.749 -3.783,3.783 z"
                 style="fill:url(#linearGradient232);stroke:none"
                 id="path234"
                 inkscape:connector-curvature="0" /></g></g></g></g></g><g
       id="g236"
       transform="matrix(0.93750002,0,0,0.93750002,3.0000001,3.0000014)"><g
         id="g238"
         clip-path="url(#clipPath242)"><g
           id="g244"><g
             id="g246" /><g
             id="g272"
             mask="url(#mask260)"><g
               id="g274"><path
                 d="m 72.044,34.244 6.684,-6.685 c 0.05,0.142 0.084,0.291 0.093,0.446 v 0 l 0.527,9.45 z"
                 style="fill:url(#linearGradient282);stroke:none"
                 id="path284"
                 inkscape:connector-curvature="0" /></g></g></g></g></g><g
       id="g286"
       transform="matrix(0.93750002,0,0,0.93750002,3.0000001,3.0000014)"><g
         id="g288"
         clip-path="url(#clipPath292)"><g
           id="g294"
           transform="translate(18.8076,50)"><path
             d="m 0,0 v 0 c -1.6,0 -2.992,-1.093 -3.373,-2.646 l -0.474,-1.932 c -0.687,-2.799 -0.717,-5.719 -0.089,-8.531 0.572,-2.564 2.742,-4.46 5.359,-4.685 1.588,-0.137 3.188,-0.004 4.732,0.391 l 0.109,0.028 c 1.943,0.497 3.525,1.901 4.249,3.771 0.741,1.913 0.882,4.006 0.403,6 -0.444,1.853 -2.026,3.213 -3.924,3.375 -1.104,0.093 -2.132,0.598 -2.881,1.415 l -1.553,1.69 C 1.9,-0.408 0.972,0 0,0"
             style="fill:#f7e0c6;fill-opacity:1;fill-rule:nonzero;stroke:none"
             id="path296"
             inkscape:connector-curvature="0" /></g><g
           id="g298"
           transform="translate(81.1523,50)"><path
             d="m 0,0 v 0 c 1.6,0 2.992,-1.093 3.373,-2.646 l 0.475,-1.932 c 0.686,-2.799 0.716,-5.719 0.089,-8.531 -0.574,-2.564 -2.743,-4.46 -5.36,-4.685 -1.589,-0.137 -3.188,-0.004 -4.732,0.391 l -0.11,0.028 c -1.941,0.497 -3.524,1.901 -4.248,3.771 -0.741,1.913 -0.882,4.006 -0.403,6 0.444,1.853 2.025,3.213 3.924,3.375 1.104,0.093 2.132,0.598 2.882,1.415 l 1.552,1.69 C -1.9,-0.408 -0.973,0 0,0"
             style="fill:#f7e0c6;fill-opacity:1;fill-rule:nonzero;stroke:none"
             id="path300"
             inkscape:connector-curvature="0" /></g><g
           id="g302"
           transform="translate(45.6001,47.7803)"><path
             d="m 0,0 v -29.42 l 4.38,-1.53 4.92,1.72 V 0.16 L 4.38,-1.36 Z"
             style="fill:#333333;fill-opacity:1;fill-rule:nonzero;stroke:none"
             id="path304"
             inkscape:connector-curvature="0" /></g><g
           id="g306"
           transform="translate(49.98,46.4199)"><path
             d="m 0,0 v -29.59 l 4.92,1.72 V 1.521 Z"
             style="fill:#2a2a2a;fill-opacity:1;fill-rule:nonzero;stroke:none"
             id="path308"
             inkscape:connector-curvature="0" /></g><g
           id="g310"
           transform="translate(49.8799,72)"><path
             d="M 0,0 V -4.85 H -17.88 L -18.95,0 Z"
             style="fill:#333333;fill-opacity:1;fill-rule:nonzero;stroke:none"
             id="path312"
             inkscape:connector-curvature="0" /></g><g
           id="g314"
           transform="translate(69.0303,72)"><path
             d="M 0,0 -1.07,-4.85 H -19.15 V 0 Z"
             style="fill:#2a2a2a;fill-opacity:1;fill-rule:nonzero;stroke:none"
             id="path316"
             inkscape:connector-curvature="0" /></g><g
           id="g318"
           transform="translate(70.9805,80.8999)"><path
             d="M 0,0 -1.95,-8.9 H -21.101 V 0 Z"
             style="fill:#d8d8d8;fill-opacity:1;fill-rule:nonzero;stroke:none"
             id="path320"
             inkscape:connector-curvature="0" /></g><g
           id="g322"
           transform="translate(61.8799,80.8999)"><path
             d="m 0,0 h -12 v 6.54 h 0.12 C -6.88,6.54 -2.49,3.93 0,0"
             style="fill:#e0e0e0;fill-opacity:1;fill-rule:nonzero;stroke:none"
             id="path324"
             inkscape:connector-curvature="0" /></g></g></g></g></svg>