<svg xmlns="http://www.w3.org/2000/svg" xmlns:xlink="http://www.w3.org/1999/xlink" viewBox="0 0 192 192"><defs><style>.cls-1{fill:none;}.cls-2{opacity:0.01;}.cls-2,.cls-3,.cls-4,.cls-5{isolation:isolate;}.cls-3{opacity:0.02;}.cls-4{opacity:0.04;}.cls-5{opacity:0.06;}.cls-6{fill:#f5f5f5;}.cls-7{fill:url(#未命名的渐变);}.cls-8{fill:url(#未命名的渐变_8);}.cls-9{fill:#1080dd;}.cls-10{fill:#42af02;}.cls-11{fill:url(#未命名的渐变_3);}</style><linearGradient id="未命名的渐变" x1="166.01" y1="766.01" x2="25.99" y2="625.99" gradientTransform="translate(0 -600)" gradientUnits="userSpaceOnUse"><stop offset="0" stop-opacity="0.12"/><stop offset="0.5" stop-color="gray" stop-opacity="0.05"/><stop offset="1" stop-color="#fff" stop-opacity="0.15"/></linearGradient><linearGradient id="未命名的渐变_8" x1="166.02" y1="766.02" x2="63.5" y2="663.5" gradientTransform="translate(0 -600)" gradientUnits="userSpaceOnUse"><stop offset="0" stop-opacity="0"/><stop offset="1" stop-opacity="0.12"/></linearGradient><linearGradient id="未命名的渐变_3" x1="166.01" y1="766.01" x2="25.99" y2="625.99" gradientTransform="translate(0 -600)" gradientUnits="userSpaceOnUse"><stop offset="0" stop-opacity="0.05"/><stop offset="0.5" stop-color="gray" stop-opacity="0"/><stop offset="1" stop-color="#fff" stop-opacity="0.1"/></linearGradient></defs><title>nokia_backup</title><g id="图层_2" data-name="图层 2"><g id="图层_1-2" data-name="图层 1"><rect class="cls-1" width="192" height="192"/><path class="cls-2" d="M96,190C27.3,190,3,165.7,3,97S27.3,4,96,4s93,24.3,93,93S164.7,190,96,190Z"/><path class="cls-3" d="M96,189C28.1,189,4,164.9,4,97S28.1,5,96,5s92,24.1,92,92S163.9,189,96,189Z"/><path class="cls-4" d="M96,188C28.8,188,5,164.2,5,97S28.8,6,96,6s91,23.8,91,91S163.2,188,96,188Z"/><path class="cls-5" d="M186,97c0,66.7-23.3,90-90,90S6,163.7,6,97,29.3,7,96,7,186,30.3,186,97Z"/><path class="cls-6" d="M186,96c0,66.7-23.3,90-90,90S6,162.7,6,96,29.3,6,96,6,186,29.3,186,96Z"/><path class="cls-7" d="M186,96c0,66.7-23.3,90-90,90S6,162.7,6,96,29.3,6,96,6,186,29.3,186,96Z"/><path class="cls-8" d="M186,96c0-2,0-4-.1-6L154,58.1l-33.4-3.7L104.8,38.6,52,75l8,54-22,4.9,52,52c2,0,4,.1,6.1.1C162.7,186,186,162.7,186,96Z"/><path class="cls-9" d="M153.9,95.6a57.83,57.83,0,0,1-57.8,57.8,52.21,52.21,0,0,1-8.8-.7v-20a38.11,38.11,0,0,0,40.8-57.8l-8.9,5c-2.1,1.2-3.8.2-3.8-2.2l.1-39.1c0-2.4,1.7-3.3,3.8-2.1l33.5,20.2c2.1,1.2,2,3.2-.1,4.4l-7.4,4.2A57.87,57.87,0,0,1,153.9,95.6Z"/><path class="cls-10" d="M76.6,153.3c0,2.4-1.7,3.4-3.8,2.1L39.3,135.2c-2.1-1.2-2-3.2.1-4.4l7.8-4.4A57.75,57.75,0,0,1,96,37.7a51,51,0,0,1,8.7.7V58.5a38.19,38.19,0,0,0-40.5,58.4l8.5-4.8c2.1-1.2,3.8-.2,3.8,2.2Z"/><path class="cls-11" d="M96,6C29.3,6,6,29.3,6,96s23.3,90,90,90,90-23.3,90-90S162.7,6,96,6Zm68.6,158.6C151.2,178,130,184,96,184s-55.2-6-68.6-19.4S8,130,8,96s6-55.2,19.4-68.6S62,8,96,8s55.2,6,68.6,19.4S184,62,184,96,178,151.2,164.6,164.6Z"/></g></g></svg>