<?xml version="1.0" encoding="UTF-8" standalone="no"?>
<svg
   xmlns:dc="http://purl.org/dc/elements/1.1/"
   xmlns:cc="http://creativecommons.org/ns#"
   xmlns:rdf="http://www.w3.org/1999/02/22-rdf-syntax-ns#"
   xmlns:svg="http://www.w3.org/2000/svg"
   xmlns="http://www.w3.org/2000/svg"
   xmlns:sodipodi="http://sodipodi.sourceforge.net/DTD/sodipodi-0.dtd"
   xmlns:inkscape="http://www.inkscape.org/namespaces/inkscape"
   viewBox="0 0 106.66667 106.66667"
   height="106.66667"
   width="106.66667"
   xml:space="preserve"
   id="svg2"
   version="1.1"
   sodipodi:docname="harbour-tide-root.svg"
   inkscape:version="0.92.2 2405546, 2018-03-11"><sodipodi:namedview
     pagecolor="#ffffff"
     bordercolor="#666666"
     borderopacity="1"
     objecttolerance="10"
     gridtolerance="10"
     guidetolerance="10"
     inkscape:pageopacity="0"
     inkscape:pageshadow="2"
     inkscape:window-width="1366"
     inkscape:window-height="706"
     id="namedview205"
     showgrid="false"
     inkscape:zoom="2.2124999"
     inkscape:cx="53.333336"
     inkscape:cy="53.333336"
     inkscape:window-x="0"
     inkscape:window-y="34"
     inkscape:window-maximized="1"
     inkscape:current-layer="svg2" /><metadata
     id="metadata8"><rdf:RDF><cc:Work
         rdf:about=""><dc:format>image/svg+xml</dc:format><dc:type
           rdf:resource="http://purl.org/dc/dcmitype/StillImage" /></cc:Work></rdf:RDF></metadata><defs
     id="defs6"><clipPath
       id="clipPath18"
       clipPathUnits="userSpaceOnUse"><path
         id="path16"
         d="m 1,39.956 c 0,-28.892 10.105,-39 39,-39 v 0 c 28.894,0 39,10.108 39,39 v 0 c 0,28.894 -10.106,39 -39,39 v 0 c -28.895,0 -39,-10.106 -39,-39" /></clipPath><linearGradient
       id="linearGradient30"
       spreadMethod="pad"
       gradientTransform="matrix(60.670349,-60.670349,-60.670349,-60.670349,9.6648254,70.291695)"
       gradientUnits="userSpaceOnUse"
       y2="0"
       x2="1"
       y1="0"
       x1="0"><stop
         id="stop24"
         offset="0"
         style="stop-opacity:1;stop-color:#9b598f" /><stop
         id="stop26"
         offset="0.0000002"
         style="stop-opacity:1;stop-color:#9b598f" /><stop
         id="stop28"
         offset="1"
         style="stop-opacity:1;stop-color:#743769" /></linearGradient><clipPath
       id="clipPath40"
       clipPathUnits="userSpaceOnUse"><path
         id="path38"
         d="m 1,39.956 c 0,-28.892 10.105,-39 39,-39 v 0 c 28.894,0 39,10.108 39,39 v 0 c 0,28.894 -10.106,39 -39,39 v 0 c -28.895,0 -39,-10.106 -39,-39" /></clipPath><linearGradient
       id="linearGradient52"
       spreadMethod="pad"
       gradientTransform="matrix(80,-80,-80,-80,0,79.956329)"
       gradientUnits="userSpaceOnUse"
       y2="0"
       x2="1"
       y1="0"
       x1="0"><stop
         id="stop46"
         offset="0"
         style="stop-opacity:1;stop-color:#9b598f" /><stop
         id="stop48"
         offset="0.0000002"
         style="stop-opacity:1;stop-color:#9b598f" /><stop
         id="stop50"
         offset="1"
         style="stop-opacity:1;stop-color:#743769" /></linearGradient><clipPath
       id="clipPath62"
       clipPathUnits="userSpaceOnUse"><path
         id="path60"
         d="M 0,80 H 80 V 0 H 0 Z" /></clipPath><clipPath
       id="clipPath70"
       clipPathUnits="userSpaceOnUse"><path
         id="path68"
         d="M 1.03949,76.1629 H 78.9605 V 3.75 H 1.03949 Z" /></clipPath><clipPath
       id="clipPath86"
       clipPathUnits="userSpaceOnUse"><path
         id="path84"
         d="M 31.62,65.765 H 74.285 V 23.1 H 31.62 Z" /></clipPath><clipPath
       id="clipPath102"
       clipPathUnits="userSpaceOnUse"><path
         id="path100"
         d="M 29.12,20.599 48.418,1.302 C 70.879,3.273 79,14.074 79,39.956 v 0 c 0,7.929 -0.767,14.434 -2.468,19.712 v 0 L 73.61,62.59 Z" /></clipPath><clipPath
       id="clipPath110"
       clipPathUnits="userSpaceOnUse"><path
         id="path108"
         d="M -32768,32767 H 32767 V -32768 H -32768 Z" /></clipPath><linearGradient
       id="linearGradient118"
       spreadMethod="pad"
       gradientTransform="matrix(26.091293,-26.091293,-26.091293,-26.091293,50.740158,42.220017)"
       gradientUnits="userSpaceOnUse"
       y2="0"
       x2="1"
       y1="0"
       x1="0"><stop
         id="stop112"
         offset="0"
         style="stop-opacity:0.29999237;stop-color:#ffffff" /><stop
         id="stop114"
         offset="0.0000002"
         style="stop-opacity:0.29999237;stop-color:#ffffff" /><stop
         id="stop116"
         offset="1"
         style="stop-opacity:0;stop-color:#ffffff" /></linearGradient><mask
       id="mask120"
       height="1"
       width="1"
       y="0"
       x="0"
       maskUnits="userSpaceOnUse"><g
         id="g130"><g
           id="g128"
           clip-path="url(#clipPath110)"><g
             id="g126"><g
               id="g124"><path
                 id="path122"
                 style="fill:url(#linearGradient118);stroke:none"
                 d="M -32768,32767 H 32767 V -32768 H -32768 Z" /></g></g></g></g></mask><linearGradient
       id="linearGradient142"
       spreadMethod="pad"
       gradientTransform="matrix(26.091293,-26.091293,-26.091293,-26.091293,50.740158,42.220017)"
       gradientUnits="userSpaceOnUse"
       y2="0"
       x2="1"
       y1="0"
       x1="0"><stop
         id="stop136"
         offset="0"
         style="stop-opacity:1;stop-color:#000000" /><stop
         id="stop138"
         offset="0.0000002"
         style="stop-opacity:1;stop-color:#000000" /><stop
         id="stop140"
         offset="1"
         style="stop-opacity:1;stop-color:#000000" /></linearGradient><clipPath
       id="clipPath152"
       clipPathUnits="userSpaceOnUse"><path
         id="path150"
         d="M 0,80 H 80 V 0 H 0 Z" /></clipPath><clipPath
       id="clipPath172"
       clipPathUnits="userSpaceOnUse"><path
         id="path170"
         d="M 29.12,63.8425 H 74.285 V 20.5992 H 29.12 Z" /></clipPath><clipPath
       id="clipPath188"
       clipPathUnits="userSpaceOnUse"><path
         id="path186"
         d="M 0,80 H 80 V 0 H 0 Z" /></clipPath><clipPath
       id="clipPath196"
       clipPathUnits="userSpaceOnUse"><path
         id="path194"
         d="M 1.02344,79 H 78.9766 V 1 H 1.02344 Z" /></clipPath><clipPath
       id="clipPath200"
       clipPathUnits="userSpaceOnUse"><path
         id="path198"
         d="M 1.02344,79 H 78.9766 V 1 H 1.02344 Z" /></clipPath><clipPath
       id="clipPath204"
       clipPathUnits="userSpaceOnUse"><path
         id="path202"
         d="M 78.977,40 C 78.977,11.107 68.877,1 40,1 11.123,1 1.023,11.107 1.023,40 1.023,68.894 11.123,79 40,79 68.877,79 78.977,68.894 78.977,40" /></clipPath><clipPath
       id="clipPath208"
       clipPathUnits="userSpaceOnUse"><path
         id="path206"
         d="M -24534,24614 H 8232 V -8152 h -32766 z" /></clipPath><clipPath
       id="clipPath212"
       clipPathUnits="userSpaceOnUse"><path
         id="path210"
         d="M -24534,24614 H 8232 V -8152 h -32766 z" /></clipPath><mask
       id="mask214"
       height="1"
       width="1"
       y="0"
       x="0"
       maskUnits="userSpaceOnUse"><g
         id="g226"><g
           id="g224"
           clip-path="url(#clipPath208)"><g
             id="g222"><g
               id="g216" /><g
               id="g220"><g
                 id="g218"
                 clip-path="url(#clipPath212)" /></g></g></g></g></mask><linearGradient
       id="linearGradient232"
       spreadMethod="pad"
       gradientTransform="matrix(0,-53.61993,-53.61993,0,40,74.818359)"
       gradientUnits="userSpaceOnUse"
       y2="0"
       x2="1"
       y1="0"
       x1="0"><stop
         id="stop228"
         offset="0"
         style="stop-opacity:1;stop-color:#ffffff" /><stop
         id="stop230"
         offset="1"
         style="stop-opacity:1;stop-color:#e4e4e5" /></linearGradient><mask
       id="mask234"
       height="1"
       width="1"
       y="0"
       x="0"
       maskUnits="userSpaceOnUse"><g
         id="g260"><g
           style="opacity:0.5"
           id="g258"
           clip-path="url(#clipPath196)"><g
             id="g256"><g
               id="g236" /><g
               id="g254"><g
                 id="g252"
                 clip-path="url(#clipPath200)"><g
                   id="g250"><g
                     id="g248"
                     clip-path="url(#clipPath204)"><g
                       id="g246"><g
                         id="g238" /><g
                         id="g244"
                         mask="url(#mask214)"><g
                           id="g242"><path
                             id="path240"
                             style="fill:url(#linearGradient232);stroke:none"
                             d="M 78.977,40 C 78.977,11.107 68.877,1 40,1 11.123,1 1.023,11.107 1.023,40 1.023,68.894 11.123,79 40,79 68.877,79 78.977,68.894 78.977,40" /></g></g></g></g></g></g></g></g></g></g></mask><clipPath
       id="clipPath268"
       clipPathUnits="userSpaceOnUse"><path
         id="path266"
         d="M 1.02344,79 H 78.9766 V 1 H 1.02344 Z" /></clipPath><clipPath
       id="clipPath272"
       clipPathUnits="userSpaceOnUse"><path
         id="path270"
         d="M 78.977,40 C 78.977,11.107 68.877,1 40,1 11.123,1 1.023,11.107 1.023,40 1.023,68.894 11.123,79 40,79 68.877,79 78.977,68.894 78.977,40" /></clipPath><linearGradient
       id="linearGradient278"
       spreadMethod="pad"
       gradientTransform="matrix(0,-53.61993,-53.61993,0,40.000019,74.818184)"
       gradientUnits="userSpaceOnUse"
       y2="0"
       x2="1"
       y1="0"
       x1="0"><stop
         id="stop274"
         offset="0"
         style="stop-opacity:1;stop-color:#ffffff" /><stop
         id="stop276"
         offset="1"
         style="stop-opacity:1;stop-color:#000000" /></linearGradient><clipPath
       id="clipPath300"
       clipPathUnits="userSpaceOnUse"><path
         id="path298"
         d="M 1,79 H 79 V 1 H 1 Z" /></clipPath><clipPath
       id="clipPath304"
       clipPathUnits="userSpaceOnUse"><path
         id="path302"
         d="M 1,79 H 79 V 1 H 1 Z" /></clipPath><clipPath
       id="clipPath308"
       clipPathUnits="userSpaceOnUse"><path
         id="path306"
         d="M -24534,24614 H 8232 V -8152 h -32766 z" /></clipPath><clipPath
       id="clipPath312"
       clipPathUnits="userSpaceOnUse"><path
         id="path310"
         d="M -24534,24614 H 8232 V -8152 h -32766 z" /></clipPath><mask
       id="mask314"
       height="1"
       width="1"
       y="0"
       x="0"
       maskUnits="userSpaceOnUse"><g
         id="g326"><g
           id="g324"
           clip-path="url(#clipPath308)"><g
             id="g322"><g
               id="g316" /><g
               id="g320"><g
                 id="g318"
                 clip-path="url(#clipPath312)" /></g></g></g></g></mask><clipPath
       id="clipPath330"
       clipPathUnits="userSpaceOnUse"><path
         id="path328"
         d="M 1,79 H 79 V 1 H 1 Z" /></clipPath><clipPath
       id="clipPath334"
       clipPathUnits="userSpaceOnUse"><path
         id="path332"
         d="M 39.999,1.975 C 11.57,1.975 1.976,11.57 1.976,40 c 0,28.429 9.594,38.024 38.023,38.024 28.43,0 38.024,-9.595 38.024,-38.024 0,-28.43 -9.594,-38.025 -38.024,-38.025 m 0,77.025 C 11.105,79 1,68.894 1,40 1,11.107 11.105,1 39.999,1 68.896,1 79,11.107 79,40 79,68.894 68.896,79 39.999,79" /></clipPath><linearGradient
       id="linearGradient340"
       spreadMethod="pad"
       gradientTransform="matrix(0,-77.263527,-77.263527,0,40,78.75293)"
       gradientUnits="userSpaceOnUse"
       y2="0"
       x2="1"
       y1="0"
       x1="0"><stop
         id="stop336"
         offset="0"
         style="stop-opacity:1;stop-color:#ffffff" /><stop
         id="stop338"
         offset="1"
         style="stop-opacity:1;stop-color:#231815" /></linearGradient><mask
       id="mask342"
       height="1"
       width="1"
       y="0"
       x="0"
       maskUnits="userSpaceOnUse"><g
         id="g376"><g
           style="opacity:0.25"
           id="g374"
           clip-path="url(#clipPath300)"><g
             id="g372"><g
               id="g344" /><g
               id="g370"><g
                 id="g368"
                 clip-path="url(#clipPath304)"><g
                   id="g366"><g
                     id="g346" /><g
                     id="g364"
                     mask="url(#mask314)"><g
                       id="g348" /><g
                       id="g362"><g
                         id="g360"
                         clip-path="url(#clipPath330)"><g
                           id="g358"><g
                             id="g356"
                             clip-path="url(#clipPath334)"><g
                               id="g354"><g
                                 id="g352"><path
                                   id="path350"
                                   style="fill:url(#linearGradient340);stroke:none"
                                   d="M 39.999,1.975 C 11.57,1.975 1.976,11.57 1.976,40 c 0,28.429 9.594,38.024 38.023,38.024 28.43,0 38.024,-9.595 38.024,-38.024 0,-28.43 -9.594,-38.025 -38.024,-38.025 m 0,77.025 C 11.105,79 1,68.894 1,40 1,11.107 11.105,1 39.999,1 68.896,1 79,11.107 79,40 79,68.894 68.896,79 39.999,79" /></g></g></g></g></g></g></g></g></g></g></g></g></g></mask><clipPath
       id="clipPath384"
       clipPathUnits="userSpaceOnUse"><path
         id="path382"
         d="M 1,79 H 79 V 1 H 1 Z" /></clipPath><clipPath
       id="clipPath388"
       clipPathUnits="userSpaceOnUse"><path
         id="path386"
         d="M 39.999,1.975 C 11.57,1.975 1.976,11.57 1.976,40 c 0,28.429 9.594,38.024 38.023,38.024 28.43,0 38.024,-9.595 38.024,-38.024 0,-28.43 -9.594,-38.025 -38.024,-38.025 m 0,77.025 C 11.105,79 1,68.894 1,40 1,11.107 11.105,1 39.999,1 68.896,1 79,11.107 79,40 79,68.894 68.896,79 39.999,79" /></clipPath><linearGradient
       id="linearGradient394"
       spreadMethod="pad"
       gradientTransform="matrix(0,-77.263527,-77.263527,0,40,78.753128)"
       gradientUnits="userSpaceOnUse"
       y2="0"
       x2="1"
       y1="0"
       x1="0"><stop
         id="stop390"
         offset="0"
         style="stop-opacity:1;stop-color:#ffffff" /><stop
         id="stop392"
         offset="1"
         style="stop-opacity:1;stop-color:#ffffff" /></linearGradient></defs><g
     transform="matrix(1.2948718,0,0,-1.2941418,1.7051282,104.90387)"
     id="g10"><g
       id="g12"><g
         clip-path="url(#clipPath18)"
         id="g14"><g
           id="g20"><g
             id="g22"><path
               id="path32"
               style="fill:url(#linearGradient30);stroke:none"
               d="m 1,39.956 c 0,-28.892 10.105,-39 39,-39 v 0 c 28.894,0 39,10.108 39,39 v 0 c 0,28.894 -10.106,39 -39,39 v 0 c -28.895,0 -39,-10.106 -39,-39"
               inkscape:connector-curvature="0" /></g></g></g></g><g
       id="g34"><g
         clip-path="url(#clipPath40)"
         id="g36"><g
           id="g42"><g
             id="g44"><path
               id="path54"
               style="fill:url(#linearGradient52);stroke:none"
               d="m 1,39.956 c 0,-28.892 10.105,-39 39,-39 v 0 c 28.894,0 39,10.108 39,39 v 0 c 0,28.894 -10.106,39 -39,39 v 0 c -28.895,0 -39,-10.106 -39,-39"
               inkscape:connector-curvature="0" /></g></g></g></g><g
       id="g56"><g
         clip-path="url(#clipPath62)"
         id="g58"><g
           id="g64"><g
             id="g66" /><g
             id="g78"><g
               style="opacity:0.10000598"
               id="g76"
               clip-path="url(#clipPath70)"><g
                 id="g74"
                 transform="translate(19.3335,28.2979)"><path
                   id="path72"
                   style="fill:#000000;fill-opacity:1;fill-rule:nonzero;stroke:none"
                   d="m 0,0 v 7.4 h 59.58 c 0.017,0.443 0.036,0.882 0.047,1.333 H 0 v 7.402 h 59.572 c -0.019,0.449 -0.04,0.894 -0.065,1.333 H 0 v 7.401 h 58.727 c -0.073,0.448 -0.145,0.898 -0.228,1.333 L 0,26.202 v 21.663 c -0.452,-0.16 -0.901,-0.323 -1.333,-0.498 V 26.202 h -15.833 c -0.083,-0.435 -0.155,-0.885 -0.228,-1.333 h 16.061 v -7.401 h -16.842 c -0.024,-0.439 -0.045,-0.884 -0.064,-1.333 H -1.333 V 8.733 h -16.961 c 0.012,-0.451 0.03,-0.89 0.047,-1.333 H -1.333 V 0 h -16.296 c 0.062,-0.452 0.129,-0.895 0.199,-1.334 H -1.333 V -24.05 c 0.432,-0.176 0.881,-0.338 1.333,-0.498 v 23.214 h 58.763 c 0.07,0.439 0.138,0.882 0.198,1.334 z"
                   inkscape:connector-curvature="0" /></g></g></g></g><g
           id="g80"><g
             id="g82" /><g
             id="g94"><g
               style="opacity:0.19999701"
               id="g92"
               clip-path="url(#clipPath86)"><g
                 id="g90"
                 transform="translate(73.6104,59.3599)"><path
                   id="path88"
                   style="fill:#ffffff;fill-opacity:1;fill-rule:nonzero;stroke:none"
                   d="m 0,0 -36.26,-36.26 c -0.83,2.74 -2.99,4.9 -5.73,5.73 L -5.721,5.73 c 0.891,0.9 2.33,0.9 3.231,0 L 0,3.23 C 0.899,2.34 0.899,0.9 0,0"
                   inkscape:connector-curvature="0" /></g></g></g></g></g></g><g
       id="g96"><g
         clip-path="url(#clipPath102)"
         id="g98"><g
           id="g104"><g
             id="g106" /><g
             mask="url(#mask120)"
             id="g132"><g
               id="g134"><path
                 id="path144"
                 style="fill:url(#linearGradient142);stroke:none"
                 d="M 29.12,20.599 48.418,1.302 C 70.879,3.273 79,14.074 79,39.956 v 0 c 0,7.929 -0.767,14.434 -2.468,19.712 v 0 L 73.61,62.59 Z"
                 inkscape:connector-curvature="0" /></g></g></g></g></g><g
       id="g146"><g
         clip-path="url(#clipPath152)"
         id="g148"><g
           transform="translate(73.6104,62.5898)"
           id="g154"><path
             id="path156"
             style="fill:#e2e2e2;fill-opacity:1;fill-rule:nonzero;stroke:none"
             d="m 0,0 -2.49,2.5 c -0.901,0.9 -2.34,0.9 -3.231,0 l -36.269,-36.26 -2.5,-8.23 v -10e-4 l 2.566,0.781 5.664,1.72 L 0,-3.23 c 0.899,0.9 0.899,2.34 0,3.23"
             inkscape:connector-curvature="0" /></g><g
           transform="translate(37.3501,23.0996)"
           id="g158"><path
             id="path160"
             style="fill:#ffe18e;fill-opacity:1;fill-rule:nonzero;stroke:none"
             d="m 0,0 -8.23,-2.5 2.5,8.23 C -2.99,4.9 -0.83,2.74 0,0"
             inkscape:connector-curvature="0" /></g><g
           transform="translate(29.1201,20.5986)"
           id="g162"><path
             id="path164"
             style="fill:#ffffff;fill-opacity:1;fill-rule:nonzero;stroke:none"
             d="M 0,0 3.377,1.027 C 3.034,2.155 2.154,3.035 1.027,3.378 Z"
             inkscape:connector-curvature="0" /></g><g
           id="g166"><g
             id="g168" /><g
             id="g180"><g
               style="opacity:0.19999701"
               id="g178"
               clip-path="url(#clipPath172)"><g
                 id="g176"
                 transform="translate(29.1201,20.5996)"><path
                   id="path174"
                   style="fill:#000000;fill-opacity:1;fill-rule:nonzero;stroke:none"
                   d="M 0,0 H 0.001 L 2.566,0.78 8.23,2.5 44.49,38.76 c 0.9,0.9 0.9,2.341 0,3.23 l -1.248,1.253 z"
                   inkscape:connector-curvature="0" /></g></g></g></g></g></g><g
       id="g182"><g
         clip-path="url(#clipPath188)"
         id="g184"><g
           id="g190"><g
             id="g192" /><g
             mask="url(#mask234)"
             id="g262"><g
               id="g264" /><g
               id="g292"><g
                 style="opacity:0.5"
                 id="g290"
                 clip-path="url(#clipPath268)"><g
                   id="g288"><g
                     id="g286"
                     clip-path="url(#clipPath272)"><g
                       id="g284"><g
                         id="g282"><path
                           id="path280"
                           style="fill:url(#linearGradient278);stroke:none"
                           d="M 78.977,40 C 78.977,11.107 68.877,1 40,1 11.123,1 1.023,11.107 1.023,40 1.023,68.894 11.123,79 40,79 68.877,79 78.977,68.894 78.977,40"
                           inkscape:connector-curvature="0" /></g></g></g></g></g></g></g></g><g
           id="g294"><g
             id="g296" /><g
             mask="url(#mask342)"
             id="g378"><g
               id="g380" /><g
               id="g408"><g
                 style="opacity:0.25"
                 id="g406"
                 clip-path="url(#clipPath384)"><g
                   id="g404"><g
                     id="g402"
                     clip-path="url(#clipPath388)"><g
                       id="g400"><g
                         id="g398"><path
                           id="path396"
                           style="fill:url(#linearGradient394);stroke:none"
                           d="M 39.999,1.975 C 11.57,1.975 1.976,11.57 1.976,40 c 0,28.429 9.594,38.024 38.023,38.024 28.43,0 38.024,-9.595 38.024,-38.024 0,-28.43 -9.594,-38.025 -38.024,-38.025 m 0,77.025 C 11.105,79 1,68.894 1,40 1,11.107 11.105,1 39.999,1 68.896,1 79,11.107 79,40 79,68.894 68.896,79 39.999,79"
                           inkscape:connector-curvature="0" /></g></g></g></g></g></g></g></g></g></g></g></svg>