<svg xmlns="http://www.w3.org/2000/svg" xmlns:xlink="http://www.w3.org/1999/xlink" width="192" height="192" viewBox="0 0 192 192"><defs><style>.cls-1{fill:none;}.cls-2{opacity:0.01;}.cls-2,.cls-3,.cls-4,.cls-5{isolation:isolate;}.cls-3{opacity:0.02;}.cls-4{opacity:0.04;}.cls-5{opacity:0.06;}.cls-6{fill:#00a651;}.cls-7{fill:#f5f5f5;}.cls-8{fill:#59b6ef;}.cls-9{opacity:0.05;}.cls-10{fill:url(#未命名的渐变_11);}.cls-11{fill:url(#未命名的渐变_2);}.cls-12{fill:#f9c900;}.cls-13{fill:url(#未命名的渐变_29);}.cls-14{fill:#ffda03;}.cls-15{opacity:0.4;fill:url(#未命名的渐变_29-2);}.cls-16{fill:#fbad0e;}.cls-17{fill:#fff;}</style><linearGradient id="未命名的渐变_11" x1="166.004" y1="27.998" x2="25.998" y2="168.004" gradientTransform="matrix(1, 0, 0, -1, 0, 194)" gradientUnits="userSpaceOnUse"><stop offset="0" stop-opacity="0.1"/><stop offset="0.5" stop-color="gray" stop-opacity="0.05"/><stop offset="1" stop-color="#fff" stop-opacity="0.1"/></linearGradient><linearGradient id="未命名的渐变_2" x1="166.012" y1="75.988" x2="25.987" y2="216.012" gradientTransform="matrix(1, 0, 0, -1, 0, 242)" gradientUnits="userSpaceOnUse"><stop offset="0" stop-opacity="0.04"/><stop offset="0.5" stop-color="gray" stop-opacity="0"/><stop offset="1" stop-color="#fff" stop-opacity="0.1"/></linearGradient><linearGradient id="未命名的渐变_29" x1="182.261" y1="149.737" x2="113.011" y2="80.487" gradientUnits="userSpaceOnUse"><stop offset="0" stop-opacity="0.02"/><stop offset="1" stop-opacity="0.14"/></linearGradient><linearGradient id="未命名的渐变_29-2" x1="142.809" y1="106.809" x2="116" y2="80" xlink:href="#未命名的渐变_29"/></defs><title>bmap</title><g id="图层_2" data-name="图层 2"><g id="图层_2-2" data-name="图层 2"><rect class="cls-1" width="192" height="192"/><path class="cls-2" d="M96,190C27.3,190,3,165.7,3,97S27.3,4,96,4s93,24.3,93,93S164.7,190,96,190Z"/><path class="cls-3" d="M96,189C28.1,189,4,164.9,4,97S28.1,5,96,5s92,24.1,92,92S163.9,189,96,189Z"/><path class="cls-4" d="M96,188C28.8,188,5,164.2,5,97S28.8,6,96,6s91,23.8,91,91S163.2,188,96,188Z"/><path class="cls-5" d="M186,97c0,66.7-23.3,90-90,90S6,163.7,6,97,29.3,7,96,7,186,30.3,186,97Z"/><path class="cls-6" d="M186,96c0,66.7-23.3,90-90,90S6,162.7,6,96,29.3,6,96,6,186,29.3,186,96Z"/><path class="cls-7" d="M185.5,80.3C181.83,25.619,157.15,6,96,6,76.8,6,61.209,7.939,48.721,12.283l26.167,97.656Z"/><path class="cls-8" d="M41.259,15.344C15.908,27.518,6,52.555,6,96a186.97,186.97,0,0,0,2.365,31.764l58.8-15.754Z"/><path class="cls-9" d="M177.608,148.673l-51.382,13.768,5.478,20.445q-3.8.795-7.913,1.379l-9.433-35.208L64.129,162.515l5.894,22q-4.513-.583-8.66-1.411L45.014,122.085l7.727-2.071,9.318,34.774,57.955-15.529,2.071,7.727h0l2.071,7.727L180.931,139.5A77.6,77.6,0,0,1,177.608,148.673Zm4.385-92.279-43.77,11.728-8.282-30.91L167.2,27.23a51.651,51.651,0,0,0-7.174-6.36l-32.15,8.615-5.894-22q-4.106-.53-8.515-.868l6.681,24.935L51.562,49.932l2.071,7.727,68.581-18.376L130.5,70.192h0l2.07,7.728,51.07-13.684Q182.927,60.153,181.993,56.394Z"/><path class="cls-10" d="M186,96c0,66.67-23.32,90-90,90S6,162.67,6,96,29.32,6,96,6,186,29.32,186,96Z"/><path class="cls-11" d="M96,6C29.3,6,6,29.3,6,96s23.3,90,90,90,90-23.3,90-90S162.7,6,96,6Zm68.6,158.6C151.2,178,130,184,96,184s-55.2-6-68.6-19.4S8,130,8,96s6-55.2,19.4-68.6S62,8,96,8s55.2,6,68.6,19.4S184,62,184,96,178,151.2,164.6,164.6Z"/><path class="cls-12" d="M185.5,80.3,74.888,109.939,48.721,12.283a71.637,71.637,0,0,0-7.462,3.061l25.9,96.666-58.8,15.754q.709,4.083,1.643,7.842L185.89,88.478Q185.769,84.265,185.5,80.3Z"/><path class="cls-13" d="M138.274,55.225,108.5,126.5l47.383,47.383c20.308-12.273,29.078-34.71,30.027-71.022Z"/><path class="cls-14" d="M149,79.571a33,33,0,0,0-66,0,51.659,51.659,0,0,0,2.357,12.965h0s1.485,5.2,7.072,14.143c5.892,9.428,17.678,24.75,23.571,24.75s17.679-15.322,23.571-24.75c5.587-8.94,7.072-14.143,7.072-14.143h0A51.659,51.659,0,0,0,149,79.571Z"/><path class="cls-15" d="M127.314,68.686,104.686,91.314,131.5,118.123a134.376,134.376,0,0,0,8.076-11.444c5.587-8.94,7.072-14.143,7.072-14.143.337-1.011.673-2.234.982-3.538Z"/><circle class="cls-16" cx="116" cy="80" r="16"/><circle class="cls-17" cx="116" cy="80" r="10"/></g></g></svg>