<svg xmlns="http://www.w3.org/2000/svg" xmlns:xlink="http://www.w3.org/1999/xlink" width="192" height="192" viewBox="0 0 192 192"><defs><style>.cls-1{fill:none;}.cls-2{opacity:0.01;}.cls-2,.cls-3,.cls-4,.cls-5,.cls-9{isolation:isolate;}.cls-3{opacity:0.02;}.cls-4{opacity:0.04;}.cls-5{opacity:0.06;}.cls-6{fill:#505050;}.cls-7{fill:#f5f5f5;}.cls-8{fill:url(#未命名的渐变_50);}.cls-17,.cls-24,.cls-9{fill:#fff;}.cls-9{opacity:0.25;}.cls-10{fill:url(#未命名的渐变_11);}.cls-11{fill:url(#未命名的渐变_2);}.cls-12{fill:url(#未命名的渐变_38);}.cls-13{fill:#ff4040;}.cls-14{fill:#ff577b;opacity:0.8;}.cls-15{fill:url(#未命名的渐变_47);}.cls-16{fill:#fafafa;}.cls-18{fill:#d2d2d2;opacity:0.95;}.cls-19{opacity:0.05;}.cls-20{fill:url(#未命名的渐变_41);}.cls-21{fill:#f0f0f0;}.cls-22{opacity:0.45;}.cls-23{fill:#a8a9af;opacity:0.2;}.cls-24{opacity:0.5;}.cls-25{opacity:0.1;}</style><linearGradient id="未命名的渐变_50" x1="96" y1="78" x2="96" y2="6" gradientUnits="userSpaceOnUse"><stop offset="0" stop-color="#3c1400" stop-opacity="0.25"/><stop offset="0.25" stop-color="#140500" stop-opacity="0"/></linearGradient><linearGradient id="未命名的渐变_11" x1="166.004" y1="27.998" x2="25.998" y2="168.004" gradientTransform="matrix(1, 0, 0, -1, 0, 194)" gradientUnits="userSpaceOnUse"><stop offset="0" stop-opacity="0.1"/><stop offset="0.5" stop-color="gray" stop-opacity="0.05"/><stop offset="1" stop-color="#fff" stop-opacity="0.1"/></linearGradient><linearGradient id="未命名的渐变_2" x1="166.012" y1="75.988" x2="25.987" y2="216.012" gradientTransform="matrix(1, 0, 0, -1, 0, 242)" gradientUnits="userSpaceOnUse"><stop offset="0" stop-opacity="0.04"/><stop offset="0.5" stop-color="gray" stop-opacity="0"/><stop offset="1" stop-color="#fff" stop-opacity="0.1"/></linearGradient><linearGradient id="未命名的渐变_38" x1="162.894" y1="90.894" x2="111.311" y2="39.311" gradientUnits="userSpaceOnUse"><stop offset="0" stop-opacity="0.02"/><stop offset="1" stop-opacity="0.18"/></linearGradient><linearGradient id="未命名的渐变_47" x1="165.998" y1="165.998" x2="123.586" y2="123.586" gradientUnits="userSpaceOnUse"><stop offset="0" stop-opacity="0"/><stop offset="1" stop-opacity="0.1"/></linearGradient><linearGradient id="未命名的渐变_41" x1="145.915" y1="145.915" x2="123.541" y2="123.541" gradientUnits="userSpaceOnUse"><stop offset="0" stop-opacity="0.02"/><stop offset="1" stop-opacity="0.12"/></linearGradient></defs><title>sony_fmradio</title><g id="图层_2" data-name="图层 2"><g id="图层_1-2" data-name="图层 1"><rect class="cls-1" width="192" height="192"/><path class="cls-2" d="M96,190C27.3,190,3,165.7,3,97S27.3,4,96,4s93,24.3,93,93S164.7,190,96,190Z"/><path class="cls-3" d="M96,189C28.1,189,4,164.9,4,97S28.1,5,96,5s92,24.1,92,92S163.9,189,96,189Z"/><path class="cls-4" d="M96,188C28.8,188,5,164.2,5,97S28.8,6,96,6s91,23.8,91,91S163.2,188,96,188Z"/><path class="cls-5" d="M186,97c0,66.7-23.3,90-90,90S6,163.7,6,97,29.3,7,96,7,186,30.3,186,97Z"/><path class="cls-6" d="M186,96c0,66.7-23.3,90-90,90S6,162.7,6,96,29.3,6,96,6,186,29.3,186,96Z"/><path class="cls-7" d="M6,96c0,66.67,23.32,90,90,90s90-23.33,90-90q0-9.591-.663-18H6.663Q5.994,86.421,6,96Z"/><path class="cls-8" d="M96,6C35.715,6,10.874,25.073,6.663,78H185.337C181.127,25.066,156.286,6,96,6Z"/><path class="cls-9" d="M98.227,50.905H96.073v20.2h2.154Zm-25.56,11.4H70.513v8.8h2.154Zm-12.827,0H57.687v8.8H59.84Zm115.16,0h-2.153v8.8H175Zm-89.506,0H83.34v8.8h2.154Zm38.386,0h-2.153v8.8h2.153Zm25.56,0h-2.153v8.8h2.153Zm-40.54,8.9h2.153v-8.8H108.9Zm53.273-25H160.02v25h2.153Zm-25.56,16.1H134.46v8.8h2.153Zm-89.506,0H44.954v8.8h2.153ZM34.28,46.105H32.127v25H34.28Zm-12.827,16.2H19.3v8.8h2.153Z"/><path class="cls-10" d="M186,96c0,66.67-23.32,90-90,90S6,162.67,6,96,29.32,6,96,6,186,29.32,186,96Z"/><path class="cls-11" d="M96,6C29.3,6,6,29.3,6,96s23.3,90,90,90,90-23.3,90-90S162.7,6,96,6Zm68.6,158.6C151.2,178,130,184,96,184s-55.2-6-68.6-19.4S8,130,8,96s6-55.2,19.4-68.6S62,8,96,8s55.2,6,68.6,19.4S184,62,184,96,178,151.2,164.6,164.6Z"/><polygon class="cls-12" points="124.207 26.415 175.79 77.998 124.207 77.998 124.207 26.415"/><path class="cls-13" d="M120.489,78l1-50.737A1.227,1.227,0,0,1,122.628,26h.744a1.227,1.227,0,0,1,1.142,1.262l1,50.738Z"/><path class="cls-14" d="M123.486,28.263a1.237,1.237,0,0,1,.983-1.227,1.183,1.183,0,0,0-1.1-1.036h-.744a1.227,1.227,0,0,0-1.142,1.263l-1,50.737h2.019Z"/><path class="cls-15" d="M143.385,103.787l-39.6,39.6L140.905,180.5c20.584-6.466,33.133-19.016,39.6-39.6Z"/><circle class="cls-16" cx="124" cy="124" r="31"/><path class="cls-17" d="M94.107,126.214a31,31,0,0,1,58.138-14.986,31,31,0,1,0-55.383,27.758A30.882,30.882,0,0,1,94.107,126.214Z"/><circle class="cls-18" cx="124" cy="124" r="24.357"/><path class="cls-19" d="M100.75,126.214a24.355,24.355,0,0,1,45.573-11.96,24.357,24.357,0,1,0-43.539,21.706A24.269,24.269,0,0,1,100.75,126.214Z"/><path class="cls-20" d="M134.059,113.024l-21.036,21.035,19.691,19.691a31.058,31.058,0,0,0,21.036-21.036Z"/><circle class="cls-21" cx="124" cy="124" r="15.5"/><g class="cls-22"><path class="cls-23" d="M124,108.5v14.762h15.463A15.488,15.488,0,0,0,124,108.5Z"/><path class="cls-17" d="M108.537,123.262H124V108.5A15.488,15.488,0,0,0,108.537,123.262Z"/><path class="cls-17" d="M139.463,123.262H124V139.5A15.5,15.5,0,0,0,139.5,124C139.5,123.751,139.474,123.508,139.463,123.262Z"/><path class="cls-23" d="M108.537,123.262c-.011.246-.037.489-.037.738A15.5,15.5,0,0,0,124,139.5V123.262Z"/></g><path class="cls-24" d="M109.607,126.214a15.489,15.489,0,0,1,28.778-7.967,15.491,15.491,0,1,0-27.662,13.72A15.431,15.431,0,0,1,109.607,126.214Z"/><path class="cls-25" d="M81,138a3,3,0,1,1-3-3A3,3,0,0,1,81,138Zm-3-23a3,3,0,1,0,3,3A3,3,0,0,0,78,115Zm0,10a3,3,0,1,0,3,3A3,3,0,0,0,78,125ZM68,115a3,3,0,1,0,3,3A3,3,0,0,0,68,115Zm0-10a3,3,0,1,0,3,3A3,3,0,0,0,68,105Zm0-10a3,3,0,1,0,3,3A3,3,0,0,0,68,95Zm10,10a3,3,0,1,0,3,3A3,3,0,0,0,78,105ZM58,135a3,3,0,1,0,3,3A3,3,0,0,0,58,135Zm0-20a3,3,0,1,0,3,3A3,3,0,0,0,58,115Zm0,10a3,3,0,1,0,3,3A3,3,0,0,0,58,125Zm0-20a3,3,0,1,0,3,3A3,3,0,0,0,58,105Zm10,20a3,3,0,1,0,3,3A3,3,0,0,0,68,125ZM58,95a3,3,0,1,0,3,3A3,3,0,0,0,58,95Zm10,40a3,3,0,1,0,3,3A3,3,0,0,0,68,135Zm0,10a3,3,0,1,0,3,3A3,3,0,0,0,68,145ZM38,105a3,3,0,1,0,3,3A3,3,0,0,0,38,105Zm0,10a3,3,0,1,0,3,3A3,3,0,0,0,38,115Zm10-10a3,3,0,1,0,3,3A3,3,0,0,0,48,105Zm0,10a3,3,0,1,0,3,3A3,3,0,0,0,48,115Zm0,20a3,3,0,1,0,3,3A3,3,0,0,0,48,135Zm0-40a3,3,0,1,0,3,3A3,3,0,0,0,48,95Zm0,30a3,3,0,1,0,3,3A3,3,0,0,0,48,125Zm10,20a3,3,0,1,0,3,3A3,3,0,0,0,58,145ZM41,128a2.994,2.994,0,0,0-5.54-1.581c.435,1.517.92,2.966,1.444,4.367A2.986,2.986,0,0,0,41,128Zm-2.258,7.1a42.948,42.948,0,0,0,2.1,3.821,2.944,2.944,0,0,0-2.1-3.821ZM48,145a2.974,2.974,0,0,0-1.876.676,36.754,36.754,0,0,0,4.462,3.819A2.968,2.968,0,0,0,51,148,3,3,0,0,0,48,145Z"/><path class="cls-19" d="M55,98a2.993,2.993,0,0,1,5.976-.242A2.987,2.987,0,0,0,56,100c0,.083.018.16.024.242A2.983,2.983,0,0,1,55,98Zm11.024,42.242c-.006-.082-.024-.159-.024-.242a2.987,2.987,0,0,1,4.976-2.242,2.992,2.992,0,1,0-4.952,2.484Zm-10-20c-.006-.082-.024-.159-.024-.242a2.987,2.987,0,0,1,4.976-2.242,2.992,2.992,0,1,0-4.952,2.484Zm0,10c-.006-.082-.024-.159-.024-.242a2.987,2.987,0,0,1,4.976-2.242,2.992,2.992,0,1,0-4.952,2.484Zm0-20c-.006-.082-.024-.159-.024-.242a2.987,2.987,0,0,1,4.976-2.242,2.992,2.992,0,1,0-4.952,2.484Zm10,20c-.006-.082-.024-.159-.024-.242a2.987,2.987,0,0,1,4.976-2.242,2.992,2.992,0,1,0-4.952,2.484Zm10,0c-.006-.082-.024-.159-.024-.242a2.987,2.987,0,0,1,4.976-2.242,2.992,2.992,0,1,0-4.952,2.484Zm0-20c-.006-.082-.024-.159-.024-.242a2.987,2.987,0,0,1,4.976-2.242,2.992,2.992,0,1,0-4.952,2.484Zm-10,10c-.006-.082-.024-.159-.024-.242a2.987,2.987,0,0,1,4.976-2.242,2.992,2.992,0,1,0-4.952,2.484Zm10,0c-.006-.082-.024-.159-.024-.242a2.987,2.987,0,0,1,4.976-2.242,2.992,2.992,0,1,0-4.952,2.484Zm-10-20c-.006-.082-.024-.159-.024-.242a2.987,2.987,0,0,1,4.976-2.242,2.992,2.992,0,1,0-4.952,2.484Zm-10,40c-.006-.082-.024-.159-.024-.242a2.987,2.987,0,0,1,4.976-2.242,2.992,2.992,0,1,0-4.952,2.484Zm10-30c-.006-.082-.024-.159-.024-.242a2.987,2.987,0,0,1,4.976-2.242,2.992,2.992,0,1,0-4.952,2.484ZM40.98,137.761a2.99,2.99,0,0,0-2.238-2.657q.5,1.032,1.045,2.015A3.024,3.024,0,0,1,40.98,137.761ZM46,140a2.987,2.987,0,0,1,4.976-2.242,2.992,2.992,0,1,0-4.952,2.484C46.018,140.16,46,140.083,46,140Zm10,10a2.987,2.987,0,0,1,4.976-2.242,2.992,2.992,0,1,0-4.952,2.484C56.018,150.16,56,150.083,56,150Zm-7-3a2.98,2.98,0,0,1,1.976.758,2.972,2.972,0,0,0-4.852-2.082c.545.55,1.122,1.067,1.7,1.581A2.885,2.885,0,0,1,49,147Zm17,3a2.987,2.987,0,0,1,4.976-2.242,2.992,2.992,0,1,0-4.952,2.484C66.018,150.16,66,150.083,66,150Zm10-10a2.987,2.987,0,0,1,4.976-2.242,2.992,2.992,0,1,0-4.952,2.484C76.018,140.16,76,140.083,76,140ZM46.024,100.242c-.006-.082-.024-.159-.024-.242a2.987,2.987,0,0,1,4.976-2.242,2.992,2.992,0,1,0-4.952,2.484Zm0,20c-.006-.082-.024-.159-.024-.242a2.987,2.987,0,0,1,4.976-2.242,2.992,2.992,0,1,0-4.952,2.484Zm-9.564,8.177a2.971,2.971,0,0,1,4.516-.661,2.984,2.984,0,0,0-5.516-1.339c.435,1.517.92,2.966,1.444,4.367a3.265,3.265,0,0,0,.328.1C36.962,130.079,36.7,129.262,36.46,128.419Zm9.564,1.823c-.006-.082-.024-.159-.024-.242a2.987,2.987,0,0,1,4.976-2.242,2.992,2.992,0,1,0-4.952,2.484Zm0-20c-.006-.082-.024-.159-.024-.242a2.987,2.987,0,0,1,4.976-2.242,2.992,2.992,0,1,0-4.952,2.484Zm-10,0c-.006-.082-.024-.159-.024-.242a2.987,2.987,0,0,1,4.976-2.242,2.992,2.992,0,1,0-4.952,2.484Zm0,10c-.006-.082-.024-.159-.024-.242a2.987,2.987,0,0,1,4.976-2.242,2.992,2.992,0,1,0-4.952,2.484Z"/></g></g></svg>