<svg xmlns="http://www.w3.org/2000/svg" xmlns:xlink="http://www.w3.org/1999/xlink" viewBox="0 0 192 192"><defs><style>.cls-1{fill:none;}.cls-2{opacity:0.01;}.cls-3{opacity:0.02;}.cls-4{opacity:0.04;}.cls-5{opacity:0.06;}.cls-6{fill:#0b4baa;}.cls-7{fill:url(#未命名的渐变_17);}.cls-8{fill:url(#未命名的渐变_46);}.cls-9{fill:url(#未命名的渐变_19);}.cls-10{fill:#fff;}.cls-11{fill:url(#未命名的渐变_14);}</style><linearGradient id="未命名的渐变_17" x1="166" y1="166" x2="26" y2="26" gradientUnits="userSpaceOnUse"><stop offset="0" stop-opacity="0.1"/><stop offset="0.5" stop-color="gray" stop-opacity="0.05"/><stop offset="1" stop-color="#fff" stop-opacity="0.1"/></linearGradient><linearGradient id="未命名的渐变_46" x1="166" y1="166" x2="26" y2="26" gradientUnits="userSpaceOnUse"><stop offset="0" stop-opacity="0.05"/><stop offset="0.5" stop-color="gray" stop-opacity="0"/><stop offset="1" stop-color="#fff" stop-opacity="0.1"/></linearGradient><linearGradient id="未命名的渐变_19" x1="162" y1="170" x2="55.5" y2="63.5" gradientUnits="userSpaceOnUse"><stop offset="0" stop-opacity="0.06"/><stop offset="1" stop-opacity="0.18"/></linearGradient><linearGradient id="未命名的渐变_14" x1="72" y1="75.74" x2="86.49" y2="75.74" gradientUnits="userSpaceOnUse"><stop offset="0" stop-opacity="0.2"/><stop offset="1" stop-opacity="0"/></linearGradient></defs><title>nokia_evolve</title><g id="图层_2" data-name="图层 2"><g id="图层_2-2" data-name="图层 2"><rect class="cls-1" width="192" height="192"/><path class="cls-2" d="M96,190C27.34,190,3,165.66,3,97S27.34,4,96,4s93,24.34,93,93S164.66,190,96,190Z"/><path class="cls-3" d="M96,189C28.07,189,4,164.92,4,97S28.07,5,96,5s92,24.07,92,92S163.93,189,96,189Z"/><path class="cls-4" d="M96,188C28.81,188,5,164.19,5,97S28.81,6,96,6s91,23.81,91,91S163.19,188,96,188Z"/><path class="cls-5" d="M186,97c0,66.67-23.32,90-90,90S6,163.67,6,97,29.32,7,96,7,186,30.32,186,97Z"/><path class="cls-6" d="M186,96c0,66.67-23.32,90-90,90S6,162.67,6,96,29.32,6,96,6,186,29.32,186,96Z"/><path class="cls-7" d="M186,96c0,66.67-23.32,90-90,90S6,162.67,6,96,29.32,6,96,6,186,29.32,186,96Z"/><path class="cls-8" d="M96,6C29.32,6,6,29.32,6,96s23.32,90,90,90,90-23.33,90-90S162.68,6,96,6Zm68.59,158.59C151.17,178,130,184,96,184s-55.17-6-68.59-19.41S8,130,8,96s6-55.17,19.41-68.59S62,8,96,8s55.17,6,68.59,19.41S184,62,184,96,178,151.16,164.59,164.59Z"/><path class="cls-9" d="M185.52,111.52,128,54,83,60,71,48,54,144l42,42C157.22,186,181.89,166.33,185.52,111.52Z"/><path class="cls-10" d="M138,144H120V85.16a43.49,43.49,0,0,0-1.46-12.28,18.58,18.58,0,0,0-4.2-7.7,14.4,14.4,0,0,0-6.44-3.9,28.78,28.78,0,0,0-8-1.07,26.07,26.07,0,0,0-13,3,24.39,24.39,0,0,0-8.68,8.19,36,36,0,0,0-4.78,11.79A64.08,64.08,0,0,0,72,97v47H54V48H71.05L72,61a21.71,21.71,0,0,1,3.55-4.75A29,29,0,0,1,82.11,51a39.42,39.42,0,0,1,9.3-4,43.16,43.16,0,0,1,12.14-1.55q16.83,0,25.64,9.7T138,81.76Z"/><path class="cls-11" d="M73.46,83.21a36,36,0,0,1,4.78-11.79,24.36,24.36,0,0,1,8.25-7.92l-9.06-9.06a23.66,23.66,0,0,0-1.87,1.82A21.71,21.71,0,0,0,72,61V97A64.08,64.08,0,0,1,73.46,83.21Z"/></g></g></svg>