<svg xmlns="http://www.w3.org/2000/svg" xmlns:xlink="http://www.w3.org/1999/xlink" viewBox="0 0 192 192"><defs><style>.cls-1{fill:none;}.cls-2{opacity:0.01;}.cls-2,.cls-3,.cls-4,.cls-5{isolation:isolate;}.cls-3{opacity:0.02;}.cls-4{opacity:0.04;}.cls-5{opacity:0.06;}.cls-6{fill:#0078d7;}.cls-7{fill:url(#未命名的渐变_43);}.cls-8{fill:url(#未命名的渐变_112);}.cls-9{fill:url(#未命名的渐变_29);}.cls-10{fill:#fafafa;}.cls-11{fill:#fff;}</style><linearGradient id="未命名的渐变_43" x1="166" y1="188" x2="26" y2="328" gradientTransform="matrix(1, 0, 0, -1, 0, 354)" gradientUnits="userSpaceOnUse"><stop offset="0" stop-opacity="0.1"/><stop offset="0.5" stop-color="gray" stop-opacity="0.05"/><stop offset="1" stop-color="#f8f8f8" stop-opacity="0.12"/><stop offset="1" stop-color="#fff" stop-opacity="0.12"/></linearGradient><linearGradient id="未命名的渐变_112" x1="166" y1="188" x2="25.99" y2="328" gradientTransform="matrix(1, 0, 0, -1, 0, 354)" gradientUnits="userSpaceOnUse"><stop offset="0" stop-opacity="0.05"/><stop offset="0.5" stop-color="gray" stop-opacity="0"/><stop offset="1" stop-color="#fff" stop-opacity="0.1"/></linearGradient><linearGradient id="未命名的渐变_29" x1="166.56" y1="165.44" x2="67.06" y2="65.94" gradientUnits="userSpaceOnUse"><stop offset="0" stop-opacity="0.02"/><stop offset="1" stop-opacity="0.14"/></linearGradient></defs><title>microsoft_authenticator</title><g id="图层_2" data-name="图层 2"><g id="图层_2-2" data-name="图层 2"><rect class="cls-1" width="192" height="192"/><path class="cls-2" d="M96,190C27.34,190,3,165.66,3,97S27.34,4,96,4s93,24.34,93,93S164.66,190,96,190Z"/><path class="cls-3" d="M96,189C28.07,189,4,164.92,4,97S28.07,5,96,5s92,24.07,92,92S163.93,189,96,189Z"/><path class="cls-4" d="M96,188C28.81,188,5,164.19,5,97S28.81,6,96,6s91,23.81,91,91S163.19,188,96,188Z"/><path class="cls-5" d="M186,97c0,66.67-23.32,90-90,90S6,163.67,6,97,29.32,7,96,7,186,30.32,186,97Z"/><path class="cls-6" d="M186,96c0,66.67-23.32,90-90,90S6,162.67,6,96,29.32,6,96,6,186,29.32,186,96Z"/><path class="cls-7" d="M186,96c0,66.67-23.32,90-90,90S6,162.67,6,96,29.32,6,96,6,186,29.32,186,96Z"/><path class="cls-8" d="M96,6C29.32,6,6,29.32,6,96s23.32,90,90,90,90-23.33,90-90S162.68,6,96,6Zm68.59,158.59C151.17,178,130,184,96,184s-55.17-6-68.59-19.41S8,130,8,96s6-55.17,19.41-68.59S62,8,96,8s55.17,6,68.59,19.41S184,62,184,96,178,151.16,164.59,164.59Z"/><path class="cls-9" d="M185.25,115l-68.5-68.5L85,48,67,66,79,78H68.5v58.5l48.56,48.56C161.87,180.7,181.37,160.57,185.25,115Z"/><path class="cls-10" d="M96,70a143.49,143.49,0,0,1,42.66,6.46,1.52,1.52,0,0,1,1.07,1.37c.17,3.23.45,8.61.27,12.17-2,38-16,52-39.66,62.88a10.22,10.22,0,0,1-8.68,0C68,142,54,128,52,90c-.19-3.56.1-8.94.27-12.17a1.53,1.53,0,0,1,1.07-1.38A143.49,143.49,0,0,1,96,70Zm0-20a18,18,0,0,1,17.45,13.68,2.09,2.09,0,0,0,1.77,1.56q4,.52,8,1.26a2.13,2.13,0,0,0,2.5-2.37,30,30,0,0,0-59.49,0,2.13,2.13,0,0,0,2.5,2.37q4-.74,8-1.26a2.09,2.09,0,0,0,1.77-1.56A18,18,0,0,1,96,50ZM81,122h30a15,15,0,0,0-10.1-14.16,11,11,0,1,0-9.8,0A15,15,0,0,0,81,122Z"/><path class="cls-11" d="M107,98a11,11,0,0,1-6.1,9.84,15,15,0,0,1,2.46,1.12,11,11,0,0,0,2.92-14.85A11,11,0,0,1,107,98Z"/><path class="cls-11" d="M109.89,116.36A14.87,14.87,0,0,1,111,122H82.14a15,15,0,0,0-.14,2h30A14.86,14.86,0,0,0,109.89,116.36Z"/><path class="cls-11" d="M86.71,103.88a11,11,0,0,0,3.15,4.46c.41-.18.82-.36,1.25-.5A11.07,11.07,0,0,1,86.71,103.88Z"/><path class="cls-11" d="M67.26,66.23s0-.06,0-.09a30,30,0,0,1,56-10.55,30,30,0,0,0-57,8.55A2.13,2.13,0,0,0,67.26,66.23Z"/><path class="cls-11" d="M53,92c-.19-3.56.1-8.94.27-12.17a1.53,1.53,0,0,1,1.07-1.38,144.12,144.12,0,0,1,85.32,0l.11.05,0-.68a1.52,1.52,0,0,0-1.07-1.37,144.12,144.12,0,0,0-85.32,0,1.53,1.53,0,0,0-1.07,1.38C52.1,81.06,51.81,86.44,52,90c.82,15.63,3.68,27.2,8.4,36.16C56.28,117.49,53.76,106.49,53,92Z"/><path class="cls-11" d="M114.2,64.8A17.92,17.92,0,0,0,112.57,61a17.88,17.88,0,0,1,.89,2.65A2,2,0,0,0,114.2,64.8Z"/></g></g></svg>