<svg xmlns="http://www.w3.org/2000/svg" xmlns:xlink="http://www.w3.org/1999/xlink" width="192" height="192" viewBox="0 0 192 192"><defs><style>.cls-1{fill:none;}.cls-2{opacity:0.01;}.cls-2,.cls-3,.cls-4,.cls-5{isolation:isolate;}.cls-3{opacity:0.02;}.cls-4{opacity:0.04;}.cls-5{opacity:0.06;}.cls-6{fill:#b40edd;}.cls-7{fill:url(#未命名的渐变_28);}.cls-8{fill:url(#未命名的渐变_2);}.cls-9{fill:url(#未命名的渐变_29);}.cls-10{fill:#fafafa;}.cls-11{fill:#fff;}</style><linearGradient id="未命名的渐变_28" x1="166.004" y1="27.998" x2="25.998" y2="168.004" gradientTransform="matrix(1, 0, 0, -1, 0, 194)" gradientUnits="userSpaceOnUse"><stop offset="0" stop-opacity="0.1"/><stop offset="0.5" stop-color="gray" stop-opacity="0.05"/><stop offset="1" stop-color="#fff" stop-opacity="0.15"/></linearGradient><linearGradient id="未命名的渐变_2" x1="166.012" y1="75.988" x2="25.987" y2="216.012" gradientTransform="matrix(1, 0, 0, -1, 0, 242)" gradientUnits="userSpaceOnUse"><stop offset="0" stop-opacity="0.04"/><stop offset="0.5" stop-color="gray" stop-opacity="0"/><stop offset="1" stop-color="#fff" stop-opacity="0.1"/></linearGradient><linearGradient id="未命名的渐变_29" x1="165.997" y1="165.997" x2="58" y2="58" gradientUnits="userSpaceOnUse"><stop offset="0" stop-opacity="0.04"/><stop offset="1" stop-opacity="0.12"/></linearGradient></defs><title>sony_podcast</title><g id="图层_2" data-name="图层 2"><g id="图层_1-2" data-name="图层 1"><rect class="cls-1" width="192" height="192"/><path class="cls-2" d="M96,190C27.3,190,3,165.7,3,97S27.3,4,96,4s93,24.3,93,93S164.7,190,96,190Z"/><path class="cls-3" d="M96,189C28.1,189,4,164.9,4,97S28.1,5,96,5s92,24.1,92,92S163.9,189,96,189Z"/><path class="cls-4" d="M96,188C28.8,188,5,164.2,5,97S28.8,6,96,6s91,23.8,91,91S163.2,188,96,188Z"/><path class="cls-5" d="M186,97c0,66.7-23.3,90-90,90S6,163.7,6,97,29.3,7,96,7,186,30.3,186,97Z"/><path class="cls-6" d="M186,96c0,66.7-23.3,90-90,90S6,162.7,6,96,29.3,6,96,6,186,29.3,186,96Z"/><path class="cls-7" d="M186,96c0,66.67-23.32,90-90,90S6,162.67,6,96,29.32,6,96,6,186,29.32,186,96Z"/><path class="cls-8" d="M96,6C29.3,6,6,29.3,6,96s23.3,90,90,90,90-23.3,90-90S162.7,6,96,6Zm68.6,158.6C151.2,178,130,184,96,184s-55.2-6-68.6-19.4S8,130,8,96s6-55.2,19.4-68.6S62,8,96,8s55.2,6,68.6,19.4S184,62,184,96,178,151.2,164.6,164.6Z"/><path class="cls-9" d="M54.988,137.012l48.868,48.868c58.109-1.761,80.264-23.923,82.024-82.024L137.012,54.988,90.023,41.977,65.058,50.942,50.932,65.068,41.975,90.025Z"/><path class="cls-10" d="M96,106a10,10,0,1,1,10-10A10.011,10.011,0,0,1,96,106Zm34-10a34,34,0,1,0-48.325,30.831A3.036,3.036,0,0,0,86,124.086v-6.738a3,3,0,0,0-1.436-2.567,22,22,0,1,1,22.872,0A3.008,3.008,0,0,0,106,117.348v6.744a3.019,3.019,0,0,0,4.247,2.775A34.045,34.045,0,0,0,130,96ZM93.251,38.064A58,58,0,0,0,82.306,152.356,3.017,3.017,0,0,0,86,149.4V143.25a3.014,3.014,0,0,0-2.211-2.908,46,46,0,1,1,24.415,0,3.01,3.01,0,0,0-2.2,2.906V149.4a3.024,3.024,0,0,0,3.708,2.956A58,58,0,0,0,93.251,38.064Z"/><path class="cls-11" d="M39.013,96.753A58,58,0,0,1,148.4,71.131,58,58,0,1,0,44.589,122.842,57.771,57.771,0,0,1,39.013,96.753Z"/><path class="cls-11" d="M84.564,114.781a22.172,22.172,0,0,1-7.762-8.075,22.142,22.142,0,0,0,8.762,10.075,2.89,2.89,0,0,1,.405.326A2.986,2.986,0,0,0,84.564,114.781Z"/><path class="cls-11" d="M94.992,62.015a33.957,33.957,0,0,0-28.869,50.159,33.982,33.982,0,0,1,60.753-30.382A34.032,34.032,0,0,0,94.992,62.015Z"/><path class="cls-11" d="M55.34,117.47a46.206,46.206,0,0,0,29.449,24.872,3,3,0,0,1,1.19.652,3.007,3.007,0,0,0-2.19-2.652A46.206,46.206,0,0,1,55.34,117.47Z"/><path class="cls-11" d="M107,151.4V145.25a3.01,3.01,0,0,1,2.2-2.906A45.95,45.95,0,0,0,137.642,76.5,45.951,45.951,0,0,1,108.2,140.344a3.01,3.01,0,0,0-2.2,2.906V149.4a3.023,3.023,0,0,0,1.031,2.266C107.023,151.573,107,151.488,107,151.4Z"/><path class="cls-11" d="M87,98a9.993,9.993,0,0,1,18.375-5.448,9.992,9.992,0,1,0-17.75,8.9A9.942,9.942,0,0,1,87,98Z"/><path class="cls-11" d="M107.017,126.359c-.007-.088-.017-.176-.017-.267v-6.744a3.008,3.008,0,0,1,1.436-2.568,21.956,21.956,0,0,0,7.725-29.568,21.959,21.959,0,0,1-8.725,27.568A3.008,3.008,0,0,0,106,117.348v6.744A3.024,3.024,0,0,0,107.017,126.359Z"/></g></g></svg>