<?xml version="1.0" encoding="UTF-8" standalone="no"?>
<svg
   xmlns:dc="http://purl.org/dc/elements/1.1/"
   xmlns:cc="http://creativecommons.org/ns#"
   xmlns:rdf="http://www.w3.org/1999/02/22-rdf-syntax-ns#"
   xmlns:svg="http://www.w3.org/2000/svg"
   xmlns="http://www.w3.org/2000/svg"
   xmlns:sodipodi="http://sodipodi.sourceforge.net/DTD/sodipodi-0.dtd"
   xmlns:inkscape="http://www.inkscape.org/namespaces/inkscape"
   viewBox="0 0 106.66667 106.66667"
   height="106.66667"
   width="106.66667"
   xml:space="preserve"
   id="svg2"
   version="1.1"
   sodipodi:docname="harbour-screenshot.svg"
   inkscape:version="0.92.2 2405546, 2018-03-11"><sodipodi:namedview
     pagecolor="#ffffff"
     bordercolor="#666666"
     borderopacity="1"
     objecttolerance="10"
     gridtolerance="10"
     guidetolerance="10"
     inkscape:pageopacity="0"
     inkscape:pageshadow="2"
     inkscape:window-width="1366"
     inkscape:window-height="706"
     id="namedview206"
     showgrid="false"
     inkscape:zoom="2.2124999"
     inkscape:cx="53.333336"
     inkscape:cy="53.333336"
     inkscape:window-x="0"
     inkscape:window-y="34"
     inkscape:window-maximized="1"
     inkscape:current-layer="svg2" /><metadata
     id="metadata8"><rdf:RDF><cc:Work
         rdf:about=""><dc:format>image/svg+xml</dc:format><dc:type
           rdf:resource="http://purl.org/dc/dcmitype/StillImage" /></cc:Work></rdf:RDF></metadata><defs
     id="defs6"><clipPath
       id="clipPath18"
       clipPathUnits="userSpaceOnUse"><path
         id="path16"
         d="m 1,39.956 c 0,-28.892 10.105,-39 39,-39 v 0 c 28.894,0 39,10.108 39,39 v 0 c 0,28.894 -10.106,39 -39,39 v 0 c -28.895,0 -39,-10.106 -39,-39" /></clipPath><linearGradient
       id="linearGradient30"
       spreadMethod="pad"
       gradientTransform="matrix(60.670349,-60.670349,-60.670349,-60.670349,9.6648254,70.291695)"
       gradientUnits="userSpaceOnUse"
       y2="0"
       x2="1"
       y1="0"
       x1="0"><stop
         id="stop24"
         offset="0"
         style="stop-opacity:1;stop-color:#f2f2f3" /><stop
         id="stop26"
         offset="0.0000004"
         style="stop-opacity:1;stop-color:#f2f2f3" /><stop
         id="stop28"
         offset="1"
         style="stop-opacity:1;stop-color:#b7b8b8" /></linearGradient><clipPath
       id="clipPath40"
       clipPathUnits="userSpaceOnUse"><path
         id="path38"
         d="m 1,39.956 c 0,-28.892 10.105,-39 39,-39 v 0 c 28.894,0 39,10.108 39,39 v 0 c 0,28.894 -10.106,39 -39,39 v 0 c -28.895,0 -39,-10.106 -39,-39" /></clipPath><linearGradient
       id="linearGradient52"
       spreadMethod="pad"
       gradientTransform="matrix(80,-80,-80,-80,0,79.956329)"
       gradientUnits="userSpaceOnUse"
       y2="0"
       x2="1"
       y1="0"
       x1="0"><stop
         id="stop46"
         offset="0"
         style="stop-opacity:1;stop-color:#f2f2f3" /><stop
         id="stop48"
         offset="0.0000004"
         style="stop-opacity:1;stop-color:#f2f2f3" /><stop
         id="stop50"
         offset="1"
         style="stop-opacity:1;stop-color:#b7b8b8" /></linearGradient><clipPath
       id="clipPath62"
       clipPathUnits="userSpaceOnUse"><path
         id="path60"
         d="M 16.294,20.611 35.867,1.04 C 37.204,0.988 38.572,0.956 40,0.956 v 0 c 28.894,0 39,10.108 39,39 v 0 c 0,1.456 -0.033,2.852 -0.085,4.213 v 0 l -15.11,15.11 -23.354,-5.412 -8.778,8.778 z" /></clipPath><clipPath
       id="clipPath70"
       clipPathUnits="userSpaceOnUse"><path
         id="path68"
         d="M -32768,32767 H 32767 V -32768 H -32768 Z" /></clipPath><linearGradient
       id="linearGradient78"
       spreadMethod="pad"
       gradientTransform="matrix(45.843323,-45.843323,-45.843323,-45.843323,24.510941,55.48378)"
       gradientUnits="userSpaceOnUse"
       y2="0"
       x2="1"
       y1="0"
       x1="0"><stop
         id="stop72"
         offset="0"
         style="stop-opacity:0.29999237;stop-color:#ffffff" /><stop
         id="stop74"
         offset="0.0000001"
         style="stop-opacity:0.29999237;stop-color:#ffffff" /><stop
         id="stop76"
         offset="1"
         style="stop-opacity:0;stop-color:#ffffff" /></linearGradient><mask
       id="mask80"
       height="1"
       width="1"
       y="0"
       x="0"
       maskUnits="userSpaceOnUse"><g
         id="g90"><g
           id="g88"
           clip-path="url(#clipPath70)"><g
             id="g86"><g
               id="g84"><path
                 id="path82"
                 style="fill:url(#linearGradient78);stroke:none"
                 d="M -32768,32767 H 32767 V -32768 H -32768 Z" /></g></g></g></g></mask><linearGradient
       id="linearGradient102"
       spreadMethod="pad"
       gradientTransform="matrix(45.843323,-45.843323,-45.843323,-45.843323,24.510941,55.48378)"
       gradientUnits="userSpaceOnUse"
       y2="0"
       x2="1"
       y1="0"
       x1="0"><stop
         id="stop96"
         offset="0"
         style="stop-opacity:1;stop-color:#231815" /><stop
         id="stop98"
         offset="0.0000001"
         style="stop-opacity:1;stop-color:#231815" /><stop
         id="stop100"
         offset="1"
         style="stop-opacity:1;stop-color:#231815" /></linearGradient><clipPath
       id="clipPath112"
       clipPathUnits="userSpaceOnUse"><path
         id="path110"
         d="M 0,80 H 80 V 0 H 0 Z" /></clipPath><clipPath
       id="clipPath128"
       clipPathUnits="userSpaceOnUse"><path
         id="path126"
         d="M 40,40 31.589,31.589 43.401,19.777 h 18.321 c 1.534,0 2.778,1.244 2.778,2.779 v 0 9.674 L 48.364,48.365 Z" /></clipPath><clipPath
       id="clipPath136"
       clipPathUnits="userSpaceOnUse"><path
         id="path134"
         d="M -32768,32767 H 32767 V -32768 H -32768 Z" /></clipPath><linearGradient
       id="linearGradient142"
       spreadMethod="pad"
       gradientTransform="matrix(21.547764,-21.547764,-21.547764,-21.547764,39.976822,39.976883)"
       gradientUnits="userSpaceOnUse"
       y2="0"
       x2="1"
       y1="0"
       x1="0"><stop
         id="stop138"
         offset="0"
         style="stop-opacity:0.09999237;stop-color:#ffffff" /><stop
         id="stop140"
         offset="1"
         style="stop-opacity:0;stop-color:#ffffff" /></linearGradient><mask
       id="mask144"
       height="1"
       width="1"
       y="0"
       x="0"
       maskUnits="userSpaceOnUse"><g
         id="g154"><g
           id="g152"
           clip-path="url(#clipPath136)"><g
             id="g150"><g
               id="g148"><path
                 id="path146"
                 style="fill:url(#linearGradient142);stroke:none"
                 d="M -32768,32767 H 32767 V -32768 H -32768 Z" /></g></g></g></g></mask><linearGradient
       id="linearGradient164"
       spreadMethod="pad"
       gradientTransform="matrix(21.547764,-21.547764,-21.547764,-21.547764,39.976822,39.976883)"
       gradientUnits="userSpaceOnUse"
       y2="0"
       x2="1"
       y1="0"
       x1="0"><stop
         id="stop160"
         offset="0"
         style="stop-opacity:1;stop-color:#231815" /><stop
         id="stop162"
         offset="1"
         style="stop-opacity:1;stop-color:#231815" /></linearGradient><clipPath
       id="clipPath174"
       clipPathUnits="userSpaceOnUse"><path
         id="path172"
         d="M 0,80 H 80 V 0 H 0 Z" /></clipPath><clipPath
       id="clipPath190"
       clipPathUnits="userSpaceOnUse"><path
         id="path188"
         d="M 0,80 H 80 V 0 H 0 Z" /></clipPath><clipPath
       id="clipPath198"
       clipPathUnits="userSpaceOnUse"><path
         id="path196"
         d="M 1.02344,79 H 78.9766 V 1 H 1.02344 Z" /></clipPath><clipPath
       id="clipPath202"
       clipPathUnits="userSpaceOnUse"><path
         id="path200"
         d="M 1.02344,79 H 78.9766 V 1 H 1.02344 Z" /></clipPath><clipPath
       id="clipPath206"
       clipPathUnits="userSpaceOnUse"><path
         id="path204"
         d="M 78.977,40 C 78.977,11.107 68.877,1 40,1 11.123,1 1.023,11.107 1.023,40 1.023,68.894 11.123,79 40,79 68.877,79 78.977,68.894 78.977,40" /></clipPath><clipPath
       id="clipPath210"
       clipPathUnits="userSpaceOnUse"><path
         id="path208"
         d="M -24534,24614 H 8232 V -8152 h -32766 z" /></clipPath><clipPath
       id="clipPath214"
       clipPathUnits="userSpaceOnUse"><path
         id="path212"
         d="M -24534,24614 H 8232 V -8152 h -32766 z" /></clipPath><mask
       id="mask216"
       height="1"
       width="1"
       y="0"
       x="0"
       maskUnits="userSpaceOnUse"><g
         id="g228"><g
           id="g226"
           clip-path="url(#clipPath210)"><g
             id="g224"><g
               id="g218" /><g
               id="g222"><g
                 id="g220"
                 clip-path="url(#clipPath214)" /></g></g></g></g></mask><linearGradient
       id="linearGradient234"
       spreadMethod="pad"
       gradientTransform="matrix(0,-53.61993,-53.61993,0,40,74.818359)"
       gradientUnits="userSpaceOnUse"
       y2="0"
       x2="1"
       y1="0"
       x1="0"><stop
         id="stop230"
         offset="0"
         style="stop-opacity:1;stop-color:#ffffff" /><stop
         id="stop232"
         offset="1"
         style="stop-opacity:1;stop-color:#e4e4e5" /></linearGradient><mask
       id="mask236"
       height="1"
       width="1"
       y="0"
       x="0"
       maskUnits="userSpaceOnUse"><g
         id="g262"><g
           style="opacity:0.5"
           id="g260"
           clip-path="url(#clipPath198)"><g
             id="g258"><g
               id="g238" /><g
               id="g256"><g
                 id="g254"
                 clip-path="url(#clipPath202)"><g
                   id="g252"><g
                     id="g250"
                     clip-path="url(#clipPath206)"><g
                       id="g248"><g
                         id="g240" /><g
                         id="g246"
                         mask="url(#mask216)"><g
                           id="g244"><path
                             id="path242"
                             style="fill:url(#linearGradient234);stroke:none"
                             d="M 78.977,40 C 78.977,11.107 68.877,1 40,1 11.123,1 1.023,11.107 1.023,40 1.023,68.894 11.123,79 40,79 68.877,79 78.977,68.894 78.977,40" /></g></g></g></g></g></g></g></g></g></g></mask><clipPath
       id="clipPath270"
       clipPathUnits="userSpaceOnUse"><path
         id="path268"
         d="M 1.02344,79 H 78.9766 V 1 H 1.02344 Z" /></clipPath><clipPath
       id="clipPath274"
       clipPathUnits="userSpaceOnUse"><path
         id="path272"
         d="M 78.977,40 C 78.977,11.107 68.877,1 40,1 11.123,1 1.023,11.107 1.023,40 1.023,68.894 11.123,79 40,79 68.877,79 78.977,68.894 78.977,40" /></clipPath><linearGradient
       id="linearGradient280"
       spreadMethod="pad"
       gradientTransform="matrix(0,-53.61993,-53.61993,0,40.000019,74.818184)"
       gradientUnits="userSpaceOnUse"
       y2="0"
       x2="1"
       y1="0"
       x1="0"><stop
         id="stop276"
         offset="0"
         style="stop-opacity:1;stop-color:#ffffff" /><stop
         id="stop278"
         offset="1"
         style="stop-opacity:1;stop-color:#000000" /></linearGradient><clipPath
       id="clipPath302"
       clipPathUnits="userSpaceOnUse"><path
         id="path300"
         d="M 1,79 H 79 V 1 H 1 Z" /></clipPath><clipPath
       id="clipPath306"
       clipPathUnits="userSpaceOnUse"><path
         id="path304"
         d="M 1,79 H 79 V 1 H 1 Z" /></clipPath><clipPath
       id="clipPath310"
       clipPathUnits="userSpaceOnUse"><path
         id="path308"
         d="M -24534,24614 H 8232 V -8152 h -32766 z" /></clipPath><clipPath
       id="clipPath314"
       clipPathUnits="userSpaceOnUse"><path
         id="path312"
         d="M -24534,24614 H 8232 V -8152 h -32766 z" /></clipPath><mask
       id="mask316"
       height="1"
       width="1"
       y="0"
       x="0"
       maskUnits="userSpaceOnUse"><g
         id="g328"><g
           id="g326"
           clip-path="url(#clipPath310)"><g
             id="g324"><g
               id="g318" /><g
               id="g322"><g
                 id="g320"
                 clip-path="url(#clipPath314)" /></g></g></g></g></mask><clipPath
       id="clipPath332"
       clipPathUnits="userSpaceOnUse"><path
         id="path330"
         d="M 1,79 H 79 V 1 H 1 Z" /></clipPath><clipPath
       id="clipPath336"
       clipPathUnits="userSpaceOnUse"><path
         id="path334"
         d="M 39.999,1.975 C 11.57,1.975 1.976,11.57 1.976,40 c 0,28.429 9.594,38.024 38.023,38.024 28.43,0 38.024,-9.595 38.024,-38.024 0,-28.43 -9.594,-38.025 -38.024,-38.025 m 0,77.025 C 11.105,79 1,68.894 1,40 1,11.107 11.105,1 39.999,1 68.896,1 79,11.107 79,40 79,68.894 68.896,79 39.999,79" /></clipPath><linearGradient
       id="linearGradient342"
       spreadMethod="pad"
       gradientTransform="matrix(0,-77.263527,-77.263527,0,40,78.75293)"
       gradientUnits="userSpaceOnUse"
       y2="0"
       x2="1"
       y1="0"
       x1="0"><stop
         id="stop338"
         offset="0"
         style="stop-opacity:1;stop-color:#ffffff" /><stop
         id="stop340"
         offset="1"
         style="stop-opacity:1;stop-color:#231815" /></linearGradient><mask
       id="mask344"
       height="1"
       width="1"
       y="0"
       x="0"
       maskUnits="userSpaceOnUse"><g
         id="g378"><g
           style="opacity:0.25"
           id="g376"
           clip-path="url(#clipPath302)"><g
             id="g374"><g
               id="g346" /><g
               id="g372"><g
                 id="g370"
                 clip-path="url(#clipPath306)"><g
                   id="g368"><g
                     id="g348" /><g
                     id="g366"
                     mask="url(#mask316)"><g
                       id="g350" /><g
                       id="g364"><g
                         id="g362"
                         clip-path="url(#clipPath332)"><g
                           id="g360"><g
                             id="g358"
                             clip-path="url(#clipPath336)"><g
                               id="g356"><g
                                 id="g354"><path
                                   id="path352"
                                   style="fill:url(#linearGradient342);stroke:none"
                                   d="M 39.999,1.975 C 11.57,1.975 1.976,11.57 1.976,40 c 0,28.429 9.594,38.024 38.023,38.024 28.43,0 38.024,-9.595 38.024,-38.024 0,-28.43 -9.594,-38.025 -38.024,-38.025 m 0,77.025 C 11.105,79 1,68.894 1,40 1,11.107 11.105,1 39.999,1 68.896,1 79,11.107 79,40 79,68.894 68.896,79 39.999,79" /></g></g></g></g></g></g></g></g></g></g></g></g></g></mask><clipPath
       id="clipPath386"
       clipPathUnits="userSpaceOnUse"><path
         id="path384"
         d="M 1,79 H 79 V 1 H 1 Z" /></clipPath><clipPath
       id="clipPath390"
       clipPathUnits="userSpaceOnUse"><path
         id="path388"
         d="M 39.999,1.975 C 11.57,1.975 1.976,11.57 1.976,40 c 0,28.429 9.594,38.024 38.023,38.024 28.43,0 38.024,-9.595 38.024,-38.024 0,-28.43 -9.594,-38.025 -38.024,-38.025 m 0,77.025 C 11.105,79 1,68.894 1,40 1,11.107 11.105,1 39.999,1 68.896,1 79,11.107 79,40 79,68.894 68.896,79 39.999,79" /></clipPath><linearGradient
       id="linearGradient396"
       spreadMethod="pad"
       gradientTransform="matrix(0,-77.263527,-77.263527,0,40,78.753128)"
       gradientUnits="userSpaceOnUse"
       y2="0"
       x2="1"
       y1="0"
       x1="0"><stop
         id="stop392"
         offset="0"
         style="stop-opacity:1;stop-color:#ffffff" /><stop
         id="stop394"
         offset="1"
         style="stop-opacity:1;stop-color:#ffffff" /></linearGradient></defs><g
     transform="matrix(1.2948718,0,0,-1.2941418,1.7051282,104.90387)"
     id="g10"><g
       id="g12"><g
         clip-path="url(#clipPath18)"
         id="g14"><g
           id="g20"><g
             id="g22"><path
               id="path32"
               style="fill:url(#linearGradient30);stroke:none"
               d="m 1,39.956 c 0,-28.892 10.105,-39 39,-39 v 0 c 28.894,0 39,10.108 39,39 v 0 c 0,28.894 -10.106,39 -39,39 v 0 c -28.895,0 -39,-10.106 -39,-39"
               inkscape:connector-curvature="0" /></g></g></g></g><g
       id="g34"><g
         clip-path="url(#clipPath40)"
         id="g36"><g
           id="g42"><g
             id="g44"><path
               id="path54"
               style="fill:url(#linearGradient52);stroke:none"
               d="m 1,39.956 c 0,-28.892 10.105,-39 39,-39 v 0 c 28.894,0 39,10.108 39,39 v 0 c 0,28.894 -10.106,39 -39,39 v 0 c -28.895,0 -39,-10.106 -39,-39"
               inkscape:connector-curvature="0" /></g></g></g></g><g
       id="g56"><g
         clip-path="url(#clipPath62)"
         id="g58"><g
           id="g64"><g
             id="g66" /><g
             mask="url(#mask80)"
             id="g92"><g
               id="g94"><path
                 id="path104"
                 style="fill:url(#linearGradient102);stroke:none"
                 d="M 16.294,20.611 35.867,1.04 C 37.204,0.988 38.572,0.956 40,0.956 v 0 c 28.894,0 39,10.108 39,39 v 0 c 0,1.456 -0.033,2.852 -0.085,4.213 v 0 l -15.11,15.11 -23.354,-5.412 -8.778,8.778 z"
                 inkscape:connector-curvature="0" /></g></g></g></g></g><g
       id="g106"><g
         clip-path="url(#clipPath112)"
         id="g108"><g
           transform="translate(30.2397,57.1396)"
           id="g114"><path
             id="path116"
             style="fill:#fad159;fill-opacity:1;fill-rule:nonzero;stroke:none"
             d="m 0,0 h -7.198 c -1.041,0 -1.885,0.844 -1.885,1.885 v 2.396 c 0,1.041 0.844,1.886 1.885,1.886 H 0 c 1.041,0 1.885,-0.845 1.885,-1.886 V 1.885 C 1.885,0.844 1.041,0 0,0"
             inkscape:connector-curvature="0" /></g><g
           transform="translate(61.7217,19.7773)"
           id="g118"><path
             id="path120"
             style="fill:#ffffff;fill-opacity:1;fill-rule:nonzero;stroke:none"
             d="m 0,0 h -43.443 c -1.535,0 -2.779,1.243 -2.779,2.778 v 34.889 c 0,1.535 1.244,2.778 2.779,2.778 H 0 c 1.534,0 2.778,-1.243 2.778,-2.778 V 2.778 C 2.778,1.243 1.534,0 0,0"
             inkscape:connector-curvature="0" /></g></g></g><g
       id="g122"><g
         clip-path="url(#clipPath128)"
         id="g124"><g
           id="g130"><g
             id="g132" /><g
             mask="url(#mask144)"
             id="g156"><g
               id="g158"><path
                 id="path166"
                 style="fill:url(#linearGradient164);stroke:none"
                 d="M 40,40 31.589,31.589 43.401,19.777 h 18.321 c 1.534,0 2.778,1.244 2.778,2.779 v 0 9.674 L 48.364,48.365 Z"
                 inkscape:connector-curvature="0" /></g></g></g></g></g><g
       id="g168"><g
         clip-path="url(#clipPath174)"
         id="g170"><g
           transform="translate(51.875,39.9565)"
           id="g176"><path
             id="path178"
             style="fill:#33393e;fill-opacity:1;fill-rule:nonzero;stroke:none"
             d="M 0,0 C 0,6.558 -5.316,11.875 -11.875,11.875 -18.434,11.875 -23.75,6.558 -23.75,0 c 0,-6.559 5.316,-11.875 11.875,-11.875 C -5.316,-11.875 0,-6.559 0,0"
             inkscape:connector-curvature="0" /></g><g
           transform="translate(40,49.6626)"
           id="g180"><path
             id="path182"
             style="fill:#51575e;fill-opacity:1;fill-rule:nonzero;stroke:none"
             d="m 0,0 c -5.361,0 -9.706,-4.346 -9.706,-9.706 0,-2.669 1.078,-5.086 2.822,-6.84 L 6.841,-2.822 C 5.086,-1.078 2.669,0 0,0"
             inkscape:connector-curvature="0" /></g></g></g><g
       id="g184"><g
         clip-path="url(#clipPath190)"
         id="g186"><g
           id="g192"><g
             id="g194" /><g
             mask="url(#mask236)"
             id="g264"><g
               id="g266" /><g
               id="g294"><g
                 style="opacity:0.5"
                 id="g292"
                 clip-path="url(#clipPath270)"><g
                   id="g290"><g
                     id="g288"
                     clip-path="url(#clipPath274)"><g
                       id="g286"><g
                         id="g284"><path
                           id="path282"
                           style="fill:url(#linearGradient280);stroke:none"
                           d="M 78.977,40 C 78.977,11.107 68.877,1 40,1 11.123,1 1.023,11.107 1.023,40 1.023,68.894 11.123,79 40,79 68.877,79 78.977,68.894 78.977,40"
                           inkscape:connector-curvature="0" /></g></g></g></g></g></g></g></g><g
           id="g296"><g
             id="g298" /><g
             mask="url(#mask344)"
             id="g380"><g
               id="g382" /><g
               id="g410"><g
                 style="opacity:0.25"
                 id="g408"
                 clip-path="url(#clipPath386)"><g
                   id="g406"><g
                     id="g404"
                     clip-path="url(#clipPath390)"><g
                       id="g402"><g
                         id="g400"><path
                           id="path398"
                           style="fill:url(#linearGradient396);stroke:none"
                           d="M 39.999,1.975 C 11.57,1.975 1.976,11.57 1.976,40 c 0,28.429 9.594,38.024 38.023,38.024 28.43,0 38.024,-9.595 38.024,-38.024 0,-28.43 -9.594,-38.025 -38.024,-38.025 m 0,77.025 C 11.105,79 1,68.894 1,40 1,11.107 11.105,1 39.999,1 68.896,1 79,11.107 79,40 79,68.894 68.896,79 39.999,79"
                           inkscape:connector-curvature="0" /></g></g></g></g></g></g></g></g></g></g></g></svg>