<?xml version="1.0" encoding="UTF-8" standalone="no"?>
<svg
   xmlns:dc="http://purl.org/dc/elements/1.1/"
   xmlns:cc="http://creativecommons.org/ns#"
   xmlns:rdf="http://www.w3.org/1999/02/22-rdf-syntax-ns#"
   xmlns:svg="http://www.w3.org/2000/svg"
   xmlns="http://www.w3.org/2000/svg"
   xmlns:sodipodi="http://sodipodi.sourceforge.net/DTD/sodipodi-0.dtd"
   xmlns:inkscape="http://www.inkscape.org/namespaces/inkscape"
   viewBox="0 0 133.33333 133.33333"
   height="133.33333"
   width="133.33333"
   xml:space="preserve"
   id="svg2"
   version="1.1"
   sodipodi:docname="harbour-poor-maps.svg"
   inkscape:version="0.92.2 2405546, 2018-03-11"><sodipodi:namedview
     pagecolor="#ffffff"
     bordercolor="#666666"
     borderopacity="1"
     objecttolerance="10"
     gridtolerance="10"
     guidetolerance="10"
     inkscape:pageopacity="0"
     inkscape:pageshadow="2"
     inkscape:window-width="1366"
     inkscape:window-height="706"
     id="namedview52"
     showgrid="false"
     inkscape:zoom="1.7700001"
     inkscape:cx="66.666664"
     inkscape:cy="66.666664"
     inkscape:window-x="0"
     inkscape:window-y="34"
     inkscape:window-maximized="1"
     inkscape:current-layer="svg2" /><metadata
     id="metadata8"><rdf:RDF><cc:Work
         rdf:about=""><dc:format>image/svg+xml</dc:format><dc:type
           rdf:resource="http://purl.org/dc/dcmitype/StillImage" /></cc:Work></rdf:RDF></metadata><defs
     id="defs6"><clipPath
       id="clipPath18"
       clipPathUnits="userSpaceOnUse"><path
         id="path16"
         d="M 50,100 C 12.956,100 0,87.039 0,50 v 0 C 0,12.961 12.956,0 50,0 v 0 c 37.045,0 50,12.961 50,50 v 0 c 0,37.044 -12.955,50 -50,50 z" /></clipPath><linearGradient
       id="linearGradient30"
       spreadMethod="pad"
       gradientTransform="matrix(77.78125,-77.78125,-77.78125,-77.78125,11.109896,88.891144)"
       gradientUnits="userSpaceOnUse"
       y2="0"
       x2="1"
       y1="0"
       x1="0"><stop
         id="stop24"
         offset="0"
         style="stop-opacity:1;stop-color:#ebebeb" /><stop
         id="stop26"
         offset="0.00000028"
         style="stop-opacity:1;stop-color:#ebebeb" /><stop
         id="stop28"
         offset="1"
         style="stop-opacity:1;stop-color:#c4c4c4" /></linearGradient><clipPath
       id="clipPath40"
       clipPathUnits="userSpaceOnUse"><path
         id="path38"
         d="M 78.415,41.29 59.853,59.853 50,50 40.147,40.147 59.023,21.272 20.832,20.832 41.387,0.276 C 44.106,0.096 46.964,0 50,0 v 0 c 37.045,0 50,12.961 50,50 v 0 c 0,3.037 -0.096,5.895 -0.276,8.614 v 0 L 79.169,79.169 Z" /></clipPath><clipPath
       id="clipPath48"
       clipPathUnits="userSpaceOnUse"><path
         id="path46"
         d="M -32768,32767 H 32767 V -32768 H -32768 Z" /></clipPath><linearGradient
       id="linearGradient58"
       spreadMethod="pad"
       gradientTransform="matrix(38.890621,-38.890621,-38.890621,-38.890621,50.000397,50.000397)"
       gradientUnits="userSpaceOnUse"
       y2="0"
       x2="1"
       y1="0"
       x1="0"><stop
         id="stop50"
         offset="0"
         style="stop-opacity:0.07998779;stop-color:#ffffff" /><stop
         id="stop52"
         offset="0.00000028"
         style="stop-opacity:0.07998779;stop-color:#ffffff" /><stop
         id="stop54"
         offset="1"
         style="stop-opacity:0;stop-color:#ffffff" /><stop
         id="stop56"
         offset="1"
         style="stop-opacity:0;stop-color:#ffffff" /></linearGradient><mask
       id="mask60"
       height="1"
       width="1"
       y="0"
       x="0"
       maskUnits="userSpaceOnUse"><g
         id="g70"><g
           id="g68"
           clip-path="url(#clipPath48)"><g
             id="g66"><g
               id="g64"><path
                 id="path62"
                 style="fill:url(#linearGradient58);stroke:none"
                 d="M -32768,32767 H 32767 V -32768 H -32768 Z" /></g></g></g></g></mask><linearGradient
       id="linearGradient84"
       spreadMethod="pad"
       gradientTransform="matrix(38.890621,-38.890621,-38.890621,-38.890621,50.000397,50.000397)"
       gradientUnits="userSpaceOnUse"
       y2="0"
       x2="1"
       y1="0"
       x1="0"><stop
         id="stop76"
         offset="0"
         style="stop-opacity:1;stop-color:#000000" /><stop
         id="stop78"
         offset="0.00000028"
         style="stop-opacity:1;stop-color:#000000" /><stop
         id="stop80"
         offset="1"
         style="stop-opacity:1;stop-color:#000000" /><stop
         id="stop82"
         offset="1"
         style="stop-opacity:1;stop-color:#000000" /></linearGradient><clipPath
       id="clipPath94"
       clipPathUnits="userSpaceOnUse"><path
         id="path92"
         d="M 0,100 H 100 V 0 H 0 Z" /></clipPath></defs><g
     transform="matrix(1.25,0,0,-1.25,4,129.33333)"
     id="g10"><g
       id="g12"><g
         clip-path="url(#clipPath18)"
         id="g14"><g
           id="g20"><g
             id="g22"><path
               id="path32"
               style="fill:url(#linearGradient30);stroke:none"
               d="M 50,100 C 12.956,100 0,87.039 0,50 v 0 C 0,12.961 12.956,0 50,0 v 0 c 37.045,0 50,12.961 50,50 v 0 c 0,37.044 -12.955,50 -50,50 z"
               inkscape:connector-curvature="0" /></g></g></g></g><g
       id="g34"><g
         clip-path="url(#clipPath40)"
         id="g36"><g
           id="g42"><g
             id="g44" /><g
             mask="url(#mask60)"
             id="g72"><g
               id="g74"><path
                 id="path86"
                 style="fill:url(#linearGradient84);stroke:none"
                 d="M 78.415,41.29 59.853,59.853 50,50 40.147,40.147 59.023,21.272 20.832,20.832 41.387,0.276 C 44.106,0.096 46.964,0 50,0 v 0 c 37.045,0 50,12.961 50,50 v 0 c 0,3.037 -0.096,5.895 -0.276,8.614 v 0 L 79.169,79.169 Z"
                 inkscape:connector-curvature="0" /></g></g></g></g></g><g
       id="g88"><g
         clip-path="url(#clipPath94)"
         id="g90"><g
           transform="translate(50,24.5)"
           id="g96"><path
             id="path98"
             style="fill:#7aa9ff;fill-opacity:1;fill-rule:nonzero;stroke:none"
             d="M 0,0 C -18.893,0 -25.5,6.61 -25.5,25.5 -25.5,44.39 -18.893,51 0,51 18.893,51 25.5,44.393 25.5,25.5 25.5,6.61 18.893,0 0,0 M 0,63 C -27.783,63 -37.5,53.279 -37.5,25.5 -37.5,-2.279 -27.783,-12 0,-12 27.783,-12 37.5,-2.279 37.5,25.5 37.5,53.283 27.783,63 0,63"
             inkscape:connector-curvature="0" /></g><g
           transform="translate(62.667,50)"
           id="g100"><path
             id="path102"
             style="fill:#7aa9ff;fill-opacity:1;fill-rule:nonzero;stroke:none"
             d="m 0,0 c 0,-9.383 -3.282,-12.667 -12.667,-12.667 -9.385,0 -12.666,3.284 -12.666,12.667 0,9.383 3.281,12.667 12.666,12.667 C -3.282,12.667 0,9.385 0,0"
             inkscape:connector-curvature="0" /></g></g></g></g></svg>