<?xml version="1.0" encoding="UTF-8" standalone="no"?>
<svg
   xmlns:dc="http://purl.org/dc/elements/1.1/"
   xmlns:cc="http://creativecommons.org/ns#"
   xmlns:rdf="http://www.w3.org/1999/02/22-rdf-syntax-ns#"
   xmlns:svg="http://www.w3.org/2000/svg"
   xmlns="http://www.w3.org/2000/svg"
   xmlns:sodipodi="http://sodipodi.sourceforge.net/DTD/sodipodi-0.dtd"
   xmlns:inkscape="http://www.inkscape.org/namespaces/inkscape"
   viewBox="0 0 133.33333 133.33333"
   height="133.33333"
   width="133.33333"
   xml:space="preserve"
   id="svg2"
   version="1.1"
   sodipodi:docname="harbour-piepmatz.svg"
   inkscape:version="0.92.2 2405546, 2018-03-11"><sodipodi:namedview
     pagecolor="#ffffff"
     bordercolor="#666666"
     borderopacity="1"
     objecttolerance="10"
     gridtolerance="10"
     guidetolerance="10"
     inkscape:pageopacity="0"
     inkscape:pageshadow="2"
     inkscape:window-width="1366"
     inkscape:window-height="706"
     id="namedview118"
     showgrid="false"
     inkscape:zoom="1.7700001"
     inkscape:cx="66.666664"
     inkscape:cy="66.666664"
     inkscape:window-x="0"
     inkscape:window-y="34"
     inkscape:window-maximized="1"
     inkscape:current-layer="svg2" /><metadata
     id="metadata8"><rdf:RDF><cc:Work
         rdf:about=""><dc:format>image/svg+xml</dc:format><dc:type
           rdf:resource="http://purl.org/dc/dcmitype/StillImage" /></cc:Work></rdf:RDF></metadata><defs
     id="defs6"><clipPath
       id="clipPath18"
       clipPathUnits="userSpaceOnUse"><path
         id="path16"
         d="M 50,100 C 12.956,100 0,87.039 0,50 v 0 C 0,12.961 12.956,0 50,0 v 0 c 37.045,0 50,12.961 50,50 v 0 c 0,37.044 -12.955,50 -50,50 z" /></clipPath><linearGradient
       id="linearGradient30"
       spreadMethod="pad"
       gradientTransform="matrix(77.78125,-77.78125,-77.78125,-77.78125,11.109896,88.891144)"
       gradientUnits="userSpaceOnUse"
       y2="0"
       x2="1"
       y1="0"
       x1="0"><stop
         id="stop24"
         offset="0"
         style="stop-opacity:1;stop-color:#8f8f8f" /><stop
         id="stop26"
         offset="0.00000007"
         style="stop-opacity:1;stop-color:#8f8f8f" /><stop
         id="stop28"
         offset="1"
         style="stop-opacity:1;stop-color:#5e5e5e" /></linearGradient><clipPath
       id="clipPath40"
       clipPathUnits="userSpaceOnUse"><path
         id="path38"
         d="M 0,100 H 100 V 0 H 0 Z" /></clipPath><clipPath
       id="clipPath48"
       clipPathUnits="userSpaceOnUse"><path
         id="path46"
         d="m 48.9997,86.0007 h 9.3021 V 69.9136 h -9.3021 z" /></clipPath><clipPath
       id="clipPath64"
       clipPathUnits="userSpaceOnUse"><path
         id="path62"
         d="M 46.69,82.281 C 46.38,80.67 46.21,79 46.21,77.3 v 0 c 0,-1.14 0.08,-2.26 0.22,-3.361 v 0 c 0.3,-2.319 0.9,-4.539 1.77,-6.629 v 0 c 0.15,-0.36 -0.32,-0.66 -0.57,-0.38 v 0 L 47.64,66.911 61.2,53.36 57.55,49.32 45.16,61.71 29.38,51.19 26.87,53.7 c 0.04,-0.64 0.13,-1.27 0.28,-1.88 v 0 c -1.42,0.13 -2.87,0.19 -4.33,0.19 v 0 c -2.04,0 -4.06,-0.11 -6.039,-0.35 v 0 C 15.62,51.52 14.44,51.85 13.5,52.55 v 0 c -0.031,0.02 -0.049,0.04 -0.08,0.059 v 0 c -0.07,0.051 -0.13,0.101 -0.19,0.161 v 0 l 4.95,-4.949 c 2.99,1.209 6.11,2.149 9.329,2.819 v 0 c 0.131,-0.37 0.291,-0.74 0.46,-1.091 v 0 C 27.83,49.49 27.69,49.42 27.55,49.34 v 0 C 23.22,47.1 19.23,44.3 15.64,41.06 v 0 C 14.93,40.41 13.93,40.2 13.01,40.52 v 0 c -0.01,0 -0.04,0.011 -0.05,0.02 v 0 c -0.37,0.13 -0.69,0.33 -0.94,0.58 v 0 L 34.01,19.12 32.001,17.402 49.396,0.007 C 49.6,0.006 49.794,0 50,0 v 0 c 1.124,0 2.223,0.013 3.303,0.037 v 0 c 0.361,0.008 0.708,0.024 1.064,0.035 v 0 c 0.709,0.022 1.419,0.043 2.106,0.076 v 0 c 0.42,0.02 0.824,0.048 1.235,0.072 v 0 c 0.607,0.035 1.215,0.069 1.806,0.113 v 0 c 0.433,0.033 0.853,0.073 1.277,0.111 v 0 c 0.549,0.048 1.102,0.096 1.638,0.153 v 0 c 0.432,0.045 0.85,0.097 1.272,0.148 v 0 c 0.509,0.061 1.019,0.123 1.516,0.193 v 0 c 0.424,0.059 0.838,0.125 1.253,0.19 v 0 c 0.475,0.074 0.946,0.149 1.409,0.231 v 0 c 0.414,0.074 0.82,0.153 1.226,0.233 v 0 c 0.443,0.087 0.883,0.176 1.315,0.271 v 0 c 0.401,0.089 0.796,0.181 1.188,0.275 v 0 c 0.416,0.102 0.829,0.206 1.234,0.314 v 0 c 0.387,0.104 0.769,0.21 1.146,0.319 v 0 c 0.392,0.114 0.777,0.234 1.158,0.356 v 0 c 0.371,0.118 0.741,0.239 1.103,0.365 v 0 c 0.367,0.127 0.725,0.261 1.083,0.396 v 0 c 0.358,0.134 0.713,0.27 1.06,0.413 v 0 c 0.344,0.14 0.677,0.289 1.01,0.437 v 0 c 0.343,0.152 0.686,0.303 1.017,0.463 v 0 c 0.321,0.153 0.63,0.317 0.94,0.477 v 0 c 0.328,0.169 0.658,0.338 0.976,0.516 v 0 c 0.296,0.165 0.58,0.341 0.867,0.515 v 0 c 0.314,0.189 0.633,0.374 0.936,0.572 v 0 c 0.27,0.175 0.526,0.362 0.788,0.544 v 0 c 0.305,0.211 0.615,0.418 0.909,0.639 v 0 c 0.231,0.175 0.449,0.361 0.674,0.542 v 0 c 0.308,0.245 0.62,0.484 0.915,0.741 v 0 c 0.03,0.025 0.058,0.055 0.087,0.081 v 0 c 0.801,0.7 1.55,1.45 2.267,2.236 v 0 c 0.146,0.162 0.302,0.316 0.447,0.482 v 0 c 0.268,0.308 0.52,0.632 0.776,0.953 v 0 c 0.167,0.209 0.341,0.412 0.503,0.627 v 0 c 0.241,0.32 0.469,0.656 0.699,0.988 v 0 c 0.161,0.232 0.326,0.46 0.482,0.697 v 0 c 0.219,0.338 0.427,0.688 0.636,1.037 v 0 c 0.15,0.25 0.304,0.499 0.448,0.757 v 0 c 0.202,0.355 0.391,0.724 0.582,1.092 v 0 c 0.137,0.267 0.277,0.532 0.409,0.807 v 0 c 0.183,0.377 0.357,0.764 0.528,1.153 v 0 c 0.125,0.283 0.25,0.567 0.37,0.856 v 0 c 0.165,0.399 0.322,0.807 0.477,1.218 v 0 c 0.112,0.298 0.224,0.597 0.33,0.901 v 0 c 0.148,0.424 0.291,0.853 0.43,1.29 v 0 c 0.098,0.31 0.194,0.624 0.288,0.94 v 0 c 0.132,0.449 0.26,0.902 0.382,1.365 v 0 c 0.087,0.322 0.168,0.649 0.249,0.978 v 0 c 0.117,0.475 0.23,0.956 0.337,1.445 v 0 c 0.072,0.333 0.14,0.67 0.208,1.009 v 0 c 0.102,0.506 0.202,1.015 0.294,1.535 v 0 c 0.059,0.337 0.113,0.681 0.167,1.023 v 0 c 0.088,0.543 0.175,1.086 0.252,1.644 v 0 c 0.046,0.331 0.086,0.671 0.128,1.008 v 0 c 0.074,0.588 0.147,1.177 0.211,1.783 v 0 c 0.033,0.309 0.059,0.629 0.088,0.944 v 0 c 0.062,0.649 0.123,1.299 0.173,1.969 v 0 c 0.018,0.248 0.03,0.507 0.047,0.759 v 0 c 0.051,0.751 0.1,1.504 0.137,2.28 v 0 L 86.92,56.54 C 87.88,55.49 88,53.68 86.58,52.609 v 0 C 86.549,52.59 86.531,52.57 86.5,52.55 v 0 c -0.941,-0.7 -2.12,-1.03 -3.281,-0.89 v 0 C 81.24,51.9 79.22,52.01 77.18,52.01 v 0 c -1.649,0 -3.279,-0.08 -4.9,-0.24 v 0 c 0.14,0.55 0.239,1.13 0.291,1.71 v 0 c 3.799,1.56 7.749,2.84 11.809,3.81 v 0 c 0.48,0.11 0.92,0.1 1.32,-0.009 v 0 L 57.68,85.3 c 0.231,-0.24 0.41,-0.54 0.51,-0.89 v 0 c 0.02,-0.05 0.03,-0.111 0.041,-0.17 v 0 c 0.289,-1.46 -0.32,-2.929 -1.451,-3.89 v 0 c -1.55,-1.3 -2.94,-2.77 -4.15,-4.39 v 0 C 51.28,74.15 50.15,72.15 49.3,70.01 v 0 C 49.23,69.85 48.991,69.9 49,70.08 v 0 c 0.13,1.6 0.42,4.57 0.85,6.13 v 0 c 0.36,1.3 0.81,2.56 1.37,3.77 v 0 l -5.41,5.41 c 0.73,-0.8 1.11,-1.95 0.88,-3.109 M 84.361,41.06 C 80.77,44.3 76.78,47.1 72.45,49.34 v 0 c -0.28,0.15 -0.57,0.3 -0.86,0.44 v 0 c 0.141,0.31 0.28,0.63 0.379,0.96 v 0 c 0.121,-0.01 0.251,-0.039 0.361,-0.06 v 0 c 5.34,-1.09 10.39,-2.949 15.05,-5.43 v 0 c 1.98,-1.05 1.77,-3.98 -0.34,-4.71 v 0 C 87.03,40.531 87,40.52 86.99,40.52 v 0 c -0.285,-0.099 -0.578,-0.147 -0.867,-0.147 v 0 c -0.644,0 -1.272,0.238 -1.762,0.687" /></clipPath><clipPath
       id="clipPath72"
       clipPathUnits="userSpaceOnUse"><path
         id="path70"
         d="M -32768,32767 H 32767 V -32768 H -32768 Z" /></clipPath><linearGradient
       id="linearGradient80"
       spreadMethod="pad"
       gradientTransform="matrix(58.671062,-58.671062,-58.671062,-58.671062,28.425751,68.005768)"
       gradientUnits="userSpaceOnUse"
       y2="0"
       x2="1"
       y1="0"
       x1="0"><stop
         id="stop74"
         offset="0"
         style="stop-opacity:0.11999695;stop-color:#ffffff" /><stop
         id="stop76"
         offset="0.00000007"
         style="stop-opacity:0.11999695;stop-color:#ffffff" /><stop
         id="stop78"
         offset="1"
         style="stop-opacity:0;stop-color:#ffffff" /></linearGradient><mask
       id="mask82"
       height="1"
       width="1"
       y="0"
       x="0"
       maskUnits="userSpaceOnUse"><g
         id="g92"><g
           id="g90"
           clip-path="url(#clipPath72)"><g
             id="g88"><g
               id="g86"><path
                 id="path84"
                 style="fill:url(#linearGradient80);stroke:none"
                 d="M -32768,32767 H 32767 V -32768 H -32768 Z" /></g></g></g></g></mask><linearGradient
       id="linearGradient104"
       spreadMethod="pad"
       gradientTransform="matrix(58.671062,-58.671062,-58.671062,-58.671062,28.425751,68.005768)"
       gradientUnits="userSpaceOnUse"
       y2="0"
       x2="1"
       y1="0"
       x1="0"><stop
         id="stop98"
         offset="0"
         style="stop-opacity:1;stop-color:#000000" /><stop
         id="stop100"
         offset="0.00000007"
         style="stop-opacity:1;stop-color:#000000" /><stop
         id="stop102"
         offset="1"
         style="stop-opacity:1;stop-color:#000000" /></linearGradient><clipPath
       id="clipPath114"
       clipPathUnits="userSpaceOnUse"><path
         id="path112"
         d="M 0,100 H 100 V 0 H 0 Z" /></clipPath><clipPath
       id="clipPath126"
       clipPathUnits="userSpaceOnUse"><path
         id="path124"
         d="M 12.3582,57.3712 H 27.15 V 51.6284 H 12.3582 Z" /></clipPath><clipPath
       id="clipPath142"
       clipPathUnits="userSpaceOnUse"><path
         id="path140"
         d="m 41.7043,86.4487 h 6.5216 V 66.8232 h -6.5216 z" /></clipPath><clipPath
       id="clipPath162"
       clipPathUnits="userSpaceOnUse"><path
         id="path160"
         d="M 11.25,50.6418 H 27.9669 V 40.3702 H 11.25 Z" /></clipPath><clipPath
       id="clipPath202"
       clipPathUnits="userSpaceOnUse"><path
         id="path200"
         d="M 72.2828,57.3725 H 87.6414 V 51.625 H 72.2828 Z" /></clipPath><clipPath
       id="clipPath218"
       clipPathUnits="userSpaceOnUse"><path
         id="path216"
         d="M 71.5921,50.7417 H 88.75 V 40.3702 H 71.5921 Z" /></clipPath></defs><g
     transform="matrix(1.25,0,0,-1.25,4,129.33333)"
     id="g10"><g
       id="g12"><g
         clip-path="url(#clipPath18)"
         id="g14"><g
           id="g20"><g
             id="g22"><path
               id="path32"
               style="fill:url(#linearGradient30);stroke:none"
               d="M 50,100 C 12.956,100 0,87.039 0,50 v 0 C 0,12.961 12.956,0 50,0 v 0 c 37.045,0 50,12.961 50,50 v 0 c 0,37.044 -12.955,50 -50,50 z"
               inkscape:connector-curvature="0" /></g></g></g></g><g
       id="g34"><g
         clip-path="url(#clipPath40)"
         id="g36"><g
           id="g42"><g
             id="g44" /><g
             id="g56"><g
               style="opacity:0.80000299"
               id="g54"
               clip-path="url(#clipPath48)"><g
                 id="g52"
                 transform="translate(56.7803,80.3501)"><path
                   id="path50"
                   style="fill:#ffffff;fill-opacity:1;fill-rule:nonzero;stroke:none"
                   d="m 0,0 c -1.55,-1.3 -2.94,-2.77 -4.15,-4.39 -1.35,-1.81 -2.48,-3.81 -3.33,-5.95 -0.07,-0.16 -0.31,-0.11 -0.3,0.07 0.13,1.6 0.42,4.57 0.85,6.13 0.36,1.3 0.81,2.56 1.369,3.77 0.821,1.85 1.851,3.57 3.071,5.16 0.87,1.14 2.5,1.1 3.389,0.16 C 1.13,4.71 1.31,4.41 1.41,4.06 1.43,4.01 1.439,3.95 1.45,3.89 1.739,2.43 1.13,0.96 0,0"
                   inkscape:connector-curvature="0" /></g></g></g></g></g></g><g
       id="g58"><g
         clip-path="url(#clipPath64)"
         id="g60"><g
           id="g66"><g
             id="g68" /><g
             mask="url(#mask82)"
             id="g94"><g
               id="g96"><path
                 id="path106"
                 style="fill:url(#linearGradient104);stroke:none"
                 d="M 46.69,82.281 C 46.38,80.67 46.21,79 46.21,77.3 v 0 c 0,-1.14 0.08,-2.26 0.22,-3.361 v 0 c 0.3,-2.319 0.9,-4.539 1.77,-6.629 v 0 c 0.15,-0.36 -0.32,-0.66 -0.57,-0.38 v 0 L 47.64,66.911 61.2,53.36 57.55,49.32 45.16,61.71 29.38,51.19 26.87,53.7 c 0.04,-0.64 0.13,-1.27 0.28,-1.88 v 0 c -1.42,0.13 -2.87,0.19 -4.33,0.19 v 0 c -2.04,0 -4.06,-0.11 -6.039,-0.35 v 0 C 15.62,51.52 14.44,51.85 13.5,52.55 v 0 c -0.031,0.02 -0.049,0.04 -0.08,0.059 v 0 c -0.07,0.051 -0.13,0.101 -0.19,0.161 v 0 l 4.95,-4.949 c 2.99,1.209 6.11,2.149 9.329,2.819 v 0 c 0.131,-0.37 0.291,-0.74 0.46,-1.091 v 0 C 27.83,49.49 27.69,49.42 27.55,49.34 v 0 C 23.22,47.1 19.23,44.3 15.64,41.06 v 0 C 14.93,40.41 13.93,40.2 13.01,40.52 v 0 c -0.01,0 -0.04,0.011 -0.05,0.02 v 0 c -0.37,0.13 -0.69,0.33 -0.94,0.58 v 0 L 34.01,19.12 32.001,17.402 49.396,0.007 C 49.6,0.006 49.794,0 50,0 v 0 c 1.124,0 2.223,0.013 3.303,0.037 v 0 c 0.361,0.008 0.708,0.024 1.064,0.035 v 0 c 0.709,0.022 1.419,0.043 2.106,0.076 v 0 c 0.42,0.02 0.824,0.048 1.235,0.072 v 0 c 0.607,0.035 1.215,0.069 1.806,0.113 v 0 c 0.433,0.033 0.853,0.073 1.277,0.111 v 0 c 0.549,0.048 1.102,0.096 1.638,0.153 v 0 c 0.432,0.045 0.85,0.097 1.272,0.148 v 0 c 0.509,0.061 1.019,0.123 1.516,0.193 v 0 c 0.424,0.059 0.838,0.125 1.253,0.19 v 0 c 0.475,0.074 0.946,0.149 1.409,0.231 v 0 c 0.414,0.074 0.82,0.153 1.226,0.233 v 0 c 0.443,0.087 0.883,0.176 1.315,0.271 v 0 c 0.401,0.089 0.796,0.181 1.188,0.275 v 0 c 0.416,0.102 0.829,0.206 1.234,0.314 v 0 c 0.387,0.104 0.769,0.21 1.146,0.319 v 0 c 0.392,0.114 0.777,0.234 1.158,0.356 v 0 c 0.371,0.118 0.741,0.239 1.103,0.365 v 0 c 0.367,0.127 0.725,0.261 1.083,0.396 v 0 c 0.358,0.134 0.713,0.27 1.06,0.413 v 0 c 0.344,0.14 0.677,0.289 1.01,0.437 v 0 c 0.343,0.152 0.686,0.303 1.017,0.463 v 0 c 0.321,0.153 0.63,0.317 0.94,0.477 v 0 c 0.328,0.169 0.658,0.338 0.976,0.516 v 0 c 0.296,0.165 0.58,0.341 0.867,0.515 v 0 c 0.314,0.189 0.633,0.374 0.936,0.572 v 0 c 0.27,0.175 0.526,0.362 0.788,0.544 v 0 c 0.305,0.211 0.615,0.418 0.909,0.639 v 0 c 0.231,0.175 0.449,0.361 0.674,0.542 v 0 c 0.308,0.245 0.62,0.484 0.915,0.741 v 0 c 0.03,0.025 0.058,0.055 0.087,0.081 v 0 c 0.801,0.7 1.55,1.45 2.267,2.236 v 0 c 0.146,0.162 0.302,0.316 0.447,0.482 v 0 c 0.268,0.308 0.52,0.632 0.776,0.953 v 0 c 0.167,0.209 0.341,0.412 0.503,0.627 v 0 c 0.241,0.32 0.469,0.656 0.699,0.988 v 0 c 0.161,0.232 0.326,0.46 0.482,0.697 v 0 c 0.219,0.338 0.427,0.688 0.636,1.037 v 0 c 0.15,0.25 0.304,0.499 0.448,0.757 v 0 c 0.202,0.355 0.391,0.724 0.582,1.092 v 0 c 0.137,0.267 0.277,0.532 0.409,0.807 v 0 c 0.183,0.377 0.357,0.764 0.528,1.153 v 0 c 0.125,0.283 0.25,0.567 0.37,0.856 v 0 c 0.165,0.399 0.322,0.807 0.477,1.218 v 0 c 0.112,0.298 0.224,0.597 0.33,0.901 v 0 c 0.148,0.424 0.291,0.853 0.43,1.29 v 0 c 0.098,0.31 0.194,0.624 0.288,0.94 v 0 c 0.132,0.449 0.26,0.902 0.382,1.365 v 0 c 0.087,0.322 0.168,0.649 0.249,0.978 v 0 c 0.117,0.475 0.23,0.956 0.337,1.445 v 0 c 0.072,0.333 0.14,0.67 0.208,1.009 v 0 c 0.102,0.506 0.202,1.015 0.294,1.535 v 0 c 0.059,0.337 0.113,0.681 0.167,1.023 v 0 c 0.088,0.543 0.175,1.086 0.252,1.644 v 0 c 0.046,0.331 0.086,0.671 0.128,1.008 v 0 c 0.074,0.588 0.147,1.177 0.211,1.783 v 0 c 0.033,0.309 0.059,0.629 0.088,0.944 v 0 c 0.062,0.649 0.123,1.299 0.173,1.969 v 0 c 0.018,0.248 0.03,0.507 0.047,0.759 v 0 c 0.051,0.751 0.1,1.504 0.137,2.28 v 0 L 86.92,56.54 C 87.88,55.49 88,53.68 86.58,52.609 v 0 C 86.549,52.59 86.531,52.57 86.5,52.55 v 0 c -0.941,-0.7 -2.12,-1.03 -3.281,-0.89 v 0 C 81.24,51.9 79.22,52.01 77.18,52.01 v 0 c -1.649,0 -3.279,-0.08 -4.9,-0.24 v 0 c 0.14,0.55 0.239,1.13 0.291,1.71 v 0 c 3.799,1.56 7.749,2.84 11.809,3.81 v 0 c 0.48,0.11 0.92,0.1 1.32,-0.009 v 0 L 57.68,85.3 c 0.231,-0.24 0.41,-0.54 0.51,-0.89 v 0 c 0.02,-0.05 0.03,-0.111 0.041,-0.17 v 0 c 0.289,-1.46 -0.32,-2.929 -1.451,-3.89 v 0 c -1.55,-1.3 -2.94,-2.77 -4.15,-4.39 v 0 C 51.28,74.15 50.15,72.15 49.3,70.01 v 0 C 49.23,69.85 48.991,69.9 49,70.08 v 0 c 0.13,1.6 0.42,4.57 0.85,6.13 v 0 c 0.36,1.3 0.81,2.56 1.37,3.77 v 0 l -5.41,5.41 c 0.73,-0.8 1.11,-1.95 0.88,-3.109 M 84.361,41.06 C 80.77,44.3 76.78,47.1 72.45,49.34 v 0 c -0.28,0.15 -0.57,0.3 -0.86,0.44 v 0 c 0.141,0.31 0.28,0.63 0.379,0.96 v 0 c 0.121,-0.01 0.251,-0.039 0.361,-0.06 v 0 c 5.34,-1.09 10.39,-2.949 15.05,-5.43 v 0 c 1.98,-1.05 1.77,-3.98 -0.34,-4.71 v 0 C 87.03,40.531 87,40.52 86.99,40.52 v 0 c -0.285,-0.099 -0.578,-0.147 -0.867,-0.147 v 0 c -0.644,0 -1.272,0.238 -1.762,0.687"
                 inkscape:connector-curvature="0" /></g></g></g></g></g><g
       id="g108"><g
         clip-path="url(#clipPath114)"
         id="g110"><g
           transform="translate(55.4414,45.1338)"
           id="g116"><path
             id="path118"
             style="fill:#ff814f;fill-opacity:1;fill-rule:nonzero;stroke:none"
             d="m 0,0 -0.49,-0.974 -4.951,-9.918 -5.167,10.351 -0.416,0.832 c 0.041,0.025 0.083,0.05 0.124,0.083 2.804,2.089 4.485,5.409 4.485,8.995 h 1.39 V 9.294 c 0,-3.719 1.847,-7.173 4.934,-9.236 C -0.058,0.041 -0.033,0.017 0,0"
             inkscape:connector-curvature="0" /></g><g
           id="g120"><g
             id="g122" /><g
             id="g134"><g
               style="opacity:0.80000299"
               id="g132"
               clip-path="url(#clipPath126)"><g
                 id="g130"
                 transform="translate(27.1499,51.8198)"><path
                   id="path128"
                   style="fill:#ffffff;fill-opacity:1;fill-rule:nonzero;stroke:none"
                   d="m 0,0 c -1.42,0.13 -2.87,0.19 -4.33,0.19 -2.04,0 -4.06,-0.11 -6.04,-0.35 -1.16,-0.14 -2.34,0.19 -3.28,0.89 -0.03,0.02 -0.05,0.04 -0.08,0.06 -0.07,0.05 -0.13,0.1 -0.19,0.16 -0.06,0.05 -0.11,0.1 -0.15,0.15 -1.75,1.81 -0.09,5 2.54,4.37 C -7.67,4.55 -3.91,3.34 -0.28,1.88 -0.24,1.24 -0.15,0.61 0,0"
                   inkscape:connector-curvature="0" /></g></g></g></g><g
           id="g136"><g
             id="g138" /><g
             id="g150"><g
               style="opacity:0.80000299"
               id="g148"
               clip-path="url(#clipPath142)"><g
                 id="g146"
                 transform="translate(48.1973,67.3057)"><path
                   id="path144"
                   style="fill:#ffffff;fill-opacity:1;fill-rule:nonzero;stroke:none"
                   d="m 0,0 c 0.152,-0.365 -0.341,-0.661 -0.591,-0.355 -1.545,1.886 -2.835,3.992 -3.813,6.268 -1.34,3.146 -2.089,6.615 -2.089,10.251 0,0.467 0.012,0.929 0.036,1.389 0.046,0.868 0.751,1.588 1.621,1.59 h 0.016 0.045 c 2.141,-0.015 3.679,-2.065 3.27,-4.167 -0.314,-1.614 -0.478,-3.282 -0.478,-4.986 0,-1.139 0.075,-2.255 0.216,-3.353 C -1.471,4.317 -0.868,2.089 0,0"
                   inkscape:connector-curvature="0" /></g></g></g></g><g
           transform="translate(71.0684,50.6919)"
           id="g152"><path
             id="path154"
             style="fill:#ffffff;fill-opacity:1;fill-rule:nonzero;stroke:none"
             d="M 0,0 C -0.226,-0.583 -0.5,-1.14 -0.832,-1.664 Z"
             inkscape:connector-curvature="0" /></g><g
           id="g156"><g
             id="g158" /><g
             id="g170"><g
               style="opacity:0.80000299"
               id="g168"
               clip-path="url(#clipPath162)"><g
                 id="g166"
                 transform="translate(27.9668,49.5518)"><path
                   id="path164"
                   style="fill:#ffffff;fill-opacity:1;fill-rule:nonzero;stroke:none"
                   d="m 0,0 c -0.142,-0.066 -0.274,-0.133 -0.416,-0.208 -4.327,-2.246 -8.321,-5.042 -11.907,-8.287 -0.716,-0.65 -1.714,-0.858 -2.629,-0.541 -0.017,0.008 -0.042,0.016 -0.058,0.025 -2.106,0.732 -2.314,3.66 -0.342,4.709 C -10.733,-1.847 -5.733,0 -0.458,1.09 -0.324,0.716 -0.167,0.35 0,0"
                   inkscape:connector-curvature="0" /></g></g></g></g><g
           transform="translate(48.1943,54.5024)"
           id="g172"><path
             id="path174"
             style="fill:#ffffff;fill-opacity:1;fill-rule:nonzero;stroke:none"
             d="m 0,0 v -0.075 c 0,-3.378 -1.631,-6.382 -4.152,-8.254 -1.706,-1.264 -3.819,-2.013 -6.107,-2.013 -2.821,0 -5.384,1.139 -7.239,2.995 -1.548,1.539 -2.605,3.578 -2.921,5.849 -0.066,0.466 -0.1,0.941 -0.1,1.423 V 0 c 0.042,5.633 4.618,10.185 10.26,10.185 C -4.618,10.185 -0.042,5.633 0,0"
             inkscape:connector-curvature="0" /></g><g
           transform="translate(71.7754,54.5024)"
           id="g176"><path
             id="path178"
             style="fill:#ffffff;fill-opacity:1;fill-rule:nonzero;stroke:none"
             d="m 0,0 v -0.075 c 0,-1.322 -0.25,-2.579 -0.707,-3.736 l -0.832,-1.664 c -1.806,-2.92 -5.043,-4.867 -8.729,-4.867 -2.105,0 -4.06,0.632 -5.691,1.722 -2.755,1.839 -4.568,4.984 -4.568,8.545 V 0 c 0.042,5.633 4.618,10.185 10.259,10.185 C -4.627,10.185 -0.042,5.633 0,0"
             inkscape:connector-curvature="0" /></g><g
           transform="translate(41.8647,54.4517)"
           id="g180"><path
             id="path182"
             style="fill:#090909;fill-opacity:1;fill-rule:nonzero;stroke:none"
             d="m 0,0 v -0.026 c 0,-1.205 -0.582,-2.276 -1.48,-2.943 -0.608,-0.451 -1.362,-0.718 -2.178,-0.718 -1.005,0 -1.919,0.406 -2.58,1.068 -0.552,0.549 -0.929,1.275 -1.042,2.085 -0.023,0.166 -0.035,0.335 -0.035,0.508 V 0 C -7.3,2.008 -5.669,3.631 -3.658,3.631 -1.646,3.631 -0.015,2.008 0,0"
             inkscape:connector-curvature="0" /></g><g
           transform="translate(38.207,55.8247)"
           id="g184"><path
             id="path186"
             style="fill:#ffffff;fill-opacity:1;fill-rule:nonzero;stroke:none"
             d="m 0,0 v -0.007 c 0,-0.318 -0.153,-0.6 -0.391,-0.776 -0.16,-0.119 -0.359,-0.19 -0.574,-0.19 -0.265,0 -0.506,0.108 -0.681,0.282 -0.145,0.145 -0.244,0.337 -0.274,0.55 -0.006,0.044 -0.01,0.089 -0.01,0.134 V 0 c 0.005,0.53 0.435,0.958 0.965,0.958 C -0.434,0.958 -0.004,0.53 0,0"
             inkscape:connector-curvature="0" /></g><g
           transform="translate(65.1709,54.4517)"
           id="g188"><path
             id="path190"
             style="fill:#090909;fill-opacity:1;fill-rule:nonzero;stroke:none"
             d="m 0,0 v -0.026 c 0,-0.472 -0.089,-0.92 -0.252,-1.332 l -0.297,-0.594 c -0.643,-1.041 -1.798,-1.735 -3.112,-1.735 -0.75,0 -1.447,0.226 -2.028,0.614 -0.983,0.656 -1.629,1.777 -1.629,3.047 V 0 c 0.014,2.008 1.646,3.631 3.657,3.631 C -1.649,3.631 -0.015,2.008 0,0"
             inkscape:connector-curvature="0" /></g><g
           transform="translate(61.375,55.8247)"
           id="g192"><path
             id="path194"
             style="fill:#ffffff;fill-opacity:1;fill-rule:nonzero;stroke:none"
             d="m 0,0 v -0.007 c 0,-0.318 -0.153,-0.6 -0.391,-0.776 -0.16,-0.119 -0.359,-0.19 -0.574,-0.19 -0.265,0 -0.506,0.108 -0.681,0.282 -0.145,0.145 -0.245,0.337 -0.274,0.55 -0.007,0.044 -0.01,0.089 -0.01,0.134 V 0 c 0.004,0.53 0.435,0.958 0.965,0.958 C -0.435,0.958 -0.004,0.53 0,0"
             inkscape:connector-curvature="0" /></g><g
           id="g196"><g
             id="g198" /><g
             id="g210"><g
               style="opacity:0.80000299"
               id="g208"
               clip-path="url(#clipPath202)"><g
                 id="g206"
                 transform="translate(86.5781,52.6138)"><path
                   id="path204"
                   style="fill:#ffffff;fill-opacity:1;fill-rule:nonzero;stroke:none"
                   d="m 0,0 c -0.025,-0.025 -0.051,-0.042 -0.075,-0.066 -0.941,-0.7 -2.122,-1.032 -3.287,-0.891 -1.981,0.242 -3.994,0.358 -6.033,0.358 -1.656,0 -3.287,-0.083 -4.9,-0.241 0.141,0.549 0.232,1.123 0.282,1.705 3.803,1.556 7.755,2.838 11.816,3.811 C 0.59,5.35 2.279,1.723 0,0"
                   inkscape:connector-curvature="0" /></g></g></g></g><g
           id="g212"><g
             id="g214" /><g
             id="g226"><g
               style="opacity:0.80000299"
               id="g224"
               clip-path="url(#clipPath218)"><g
                 id="g222"
                 transform="translate(87.0439,40.541)"><path
                   id="path220"
                   style="fill:#ffffff;fill-opacity:1;fill-rule:nonzero;stroke:none"
                   d="m 0,0 c -0.017,-0.009 -0.042,-0.018 -0.059,-0.025 -0.915,-0.317 -1.914,-0.109 -2.629,0.541 -3.586,3.245 -7.58,6.041 -11.907,8.287 -0.283,0.15 -0.565,0.291 -0.857,0.432 0.141,0.317 0.275,0.633 0.383,0.966 0.117,-0.017 0.241,-0.042 0.358,-0.067 C -9.378,9.044 -4.327,7.188 0.341,4.709 2.313,3.66 2.104,0.731 0,0"
                   inkscape:connector-curvature="0" /></g></g></g></g><g
           transform="translate(44.021,17.0518)"
           id="g228"><path
             id="path230"
             style="fill:#ff814f;fill-opacity:1;fill-rule:nonzero;stroke:none"
             d="m 0,0 h -11.23 c -0.791,0 -1.305,0.831 -0.952,1.538 l 3.234,6.475 C -6.236,5.849 -3.207,4.251 0.038,3.369 L 0.952,1.538 C 1.304,0.831 0.79,0 0,0"
             inkscape:connector-curvature="0" /></g><g
           transform="translate(66.7676,17.0518)"
           id="g232"><path
             id="path234"
             style="fill:#ff814f;fill-opacity:1;fill-rule:nonzero;stroke:none"
             d="m 0,0 h -10.786 c -0.791,0 -1.306,0.832 -0.952,1.539 l 0.903,1.806 c 3.129,0.84 6.058,2.345 8.695,4.376 L 0.951,1.539 C 1.305,0.832 0.791,0 0,0"
             inkscape:connector-curvature="0" /></g></g></g></g></svg>