<?xml version="1.0" encoding="UTF-8" standalone="no"?>
<svg
   xmlns:dc="http://purl.org/dc/elements/1.1/"
   xmlns:cc="http://creativecommons.org/ns#"
   xmlns:rdf="http://www.w3.org/1999/02/22-rdf-syntax-ns#"
   xmlns:svg="http://www.w3.org/2000/svg"
   xmlns="http://www.w3.org/2000/svg"
   xmlns:sodipodi="http://sodipodi.sourceforge.net/DTD/sodipodi-0.dtd"
   xmlns:inkscape="http://www.inkscape.org/namespaces/inkscape"
   viewBox="0 0 106.66667 106.66667"
   height="106.66667"
   width="106.66667"
   xml:space="preserve"
   id="svg2"
   version="1.1"
   sodipodi:docname="harbour-kodimote.svg"
   inkscape:version="0.92.2 2405546, 2018-03-11"><sodipodi:namedview
     pagecolor="#ffffff"
     bordercolor="#666666"
     borderopacity="1"
     objecttolerance="10"
     gridtolerance="10"
     guidetolerance="10"
     inkscape:pageopacity="0"
     inkscape:pageshadow="2"
     inkscape:window-width="1366"
     inkscape:window-height="706"
     id="namedview236"
     showgrid="false"
     inkscape:zoom="2.2124999"
     inkscape:cx="53.333336"
     inkscape:cy="53.333336"
     inkscape:window-x="0"
     inkscape:window-y="34"
     inkscape:window-maximized="1"
     inkscape:current-layer="svg2" /><metadata
     id="metadata8"><rdf:RDF><cc:Work
         rdf:about=""><dc:format>image/svg+xml</dc:format><dc:type
           rdf:resource="http://purl.org/dc/dcmitype/StillImage" /></cc:Work></rdf:RDF></metadata><defs
     id="defs6"><clipPath
       id="clipPath18"
       clipPathUnits="userSpaceOnUse"><path
         id="path16"
         d="M 1,40 C 1,11.108 11.105,1 40,1 v 0 c 28.894,0 39,10.108 39,39 v 0 C 79,68.893 68.894,79 40,79 v 0 C 11.105,79 1,68.893 1,40" /></clipPath><linearGradient
       id="linearGradient30"
       spreadMethod="pad"
       gradientTransform="matrix(60.670349,-60.670349,-60.670349,-60.670349,9.6648254,70.335365)"
       gradientUnits="userSpaceOnUse"
       y2="0"
       x2="1"
       y1="0"
       x1="0"><stop
         id="stop24"
         offset="0"
         style="stop-opacity:1;stop-color:#74e3d0" /><stop
         id="stop26"
         offset="1"
         style="stop-opacity:1;stop-color:#5fc9b2" /><stop
         id="stop28"
         offset="1"
         style="stop-opacity:1;stop-color:#5fc9b2" /></linearGradient><clipPath
       id="clipPath40"
       clipPathUnits="userSpaceOnUse"><path
         id="path38"
         d="M 1,40 C 1,11.108 11.105,1 40,1 v 0 c 28.894,0 39,10.108 39,39 v 0 C 79,68.893 68.894,79 40,79 v 0 C 11.105,79 1,68.893 1,40" /></clipPath><linearGradient
       id="linearGradient52"
       spreadMethod="pad"
       gradientTransform="matrix(80,-80,-80,-80,0,80)"
       gradientUnits="userSpaceOnUse"
       y2="0"
       x2="1"
       y1="0"
       x1="0"><stop
         id="stop46"
         offset="0"
         style="stop-opacity:1;stop-color:#74e3d0" /><stop
         id="stop48"
         offset="1"
         style="stop-opacity:1;stop-color:#5fc9b2" /><stop
         id="stop50"
         offset="1"
         style="stop-opacity:1;stop-color:#5fc9b2" /></linearGradient><clipPath
       id="clipPath62"
       clipPathUnits="userSpaceOnUse"><path
         id="path60"
         d="M 40,40 17.444,17.444 33.696,1.19 C 35.694,1.067 37.786,1 40,1 v 0 c 28.894,0 39,10.108 39,39 v 0 c 0,2.215 -0.067,4.306 -0.19,6.304 v 0 L 62.556,62.557 Z" /></clipPath><clipPath
       id="clipPath70"
       clipPathUnits="userSpaceOnUse"><path
         id="path68"
         d="M -32768,32767 H 32767 V -32768 H -32768 Z" /></clipPath><linearGradient
       id="linearGradient78"
       spreadMethod="pad"
       gradientTransform="matrix(30.335102,-30.335102,-30.335102,-30.335102,40.000046,40.000107)"
       gradientUnits="userSpaceOnUse"
       y2="0"
       x2="1"
       y1="0"
       x1="0"><stop
         id="stop72"
         offset="0"
         style="stop-opacity:0.29999237;stop-color:#ffffff" /><stop
         id="stop74"
         offset="1"
         style="stop-opacity:0.04998856;stop-color:#ffffff" /><stop
         id="stop76"
         offset="1"
         style="stop-opacity:0.04998856;stop-color:#ffffff" /></linearGradient><mask
       id="mask80"
       height="1"
       width="1"
       y="0"
       x="0"
       maskUnits="userSpaceOnUse"><g
         id="g90"><g
           id="g88"
           clip-path="url(#clipPath70)"><g
             id="g86"><g
               id="g84"><path
                 id="path82"
                 style="fill:url(#linearGradient78);stroke:none"
                 d="M -32768,32767 H 32767 V -32768 H -32768 Z" /></g></g></g></g></mask><linearGradient
       id="linearGradient102"
       spreadMethod="pad"
       gradientTransform="matrix(30.335102,-30.335102,-30.335102,-30.335102,40.000046,40.000107)"
       gradientUnits="userSpaceOnUse"
       y2="0"
       x2="1"
       y1="0"
       x1="0"><stop
         id="stop96"
         offset="0"
         style="stop-opacity:1;stop-color:#000000" /><stop
         id="stop98"
         offset="1"
         style="stop-opacity:1;stop-color:#000000" /><stop
         id="stop100"
         offset="1"
         style="stop-opacity:1;stop-color:#000000" /></linearGradient><clipPath
       id="clipPath112"
       clipPathUnits="userSpaceOnUse"><path
         id="path110"
         d="M 0,80 H 80 V 0 H 0 Z" /></clipPath><clipPath
       id="clipPath124"
       clipPathUnits="userSpaceOnUse"><path
         id="path122"
         d="M 40,40 28.615,28.615 45.998,11.234 c 15.045,1.248 21.529,7.742 22.772,22.799 v 0 L 51.402,51.401 Z" /></clipPath><clipPath
       id="clipPath132"
       clipPathUnits="userSpaceOnUse"><path
         id="path130"
         d="M -32768,32767 H 32767 V -32768 H -32768 Z" /></clipPath><linearGradient
       id="linearGradient140"
       spreadMethod="pad"
       gradientTransform="matrix(22.552294,-22.552294,-22.552294,-22.552294,40.008148,40.008148)"
       gradientUnits="userSpaceOnUse"
       y2="0"
       x2="1"
       y1="0"
       x1="0"><stop
         id="stop134"
         offset="0"
         style="stop-opacity:0.14999619;stop-color:#ffffff" /><stop
         id="stop136"
         offset="1"
         style="stop-opacity:0;stop-color:#ffffff" /><stop
         id="stop138"
         offset="1"
         style="stop-opacity:0;stop-color:#ffffff" /></linearGradient><mask
       id="mask142"
       height="1"
       width="1"
       y="0"
       x="0"
       maskUnits="userSpaceOnUse"><g
         id="g152"><g
           id="g150"
           clip-path="url(#clipPath132)"><g
             id="g148"><g
               id="g146"><path
                 id="path144"
                 style="fill:url(#linearGradient140);stroke:none"
                 d="M -32768,32767 H 32767 V -32768 H -32768 Z" /></g></g></g></g></mask><linearGradient
       id="linearGradient164"
       spreadMethod="pad"
       gradientTransform="matrix(22.552294,-22.552294,-22.552294,-22.552294,40.008148,40.008148)"
       gradientUnits="userSpaceOnUse"
       y2="0"
       x2="1"
       y1="0"
       x1="0"><stop
         id="stop158"
         offset="0"
         style="stop-opacity:1;stop-color:#000000" /><stop
         id="stop160"
         offset="1"
         style="stop-opacity:1;stop-color:#000000" /><stop
         id="stop162"
         offset="1"
         style="stop-opacity:1;stop-color:#000000" /></linearGradient><clipPath
       id="clipPath174"
       clipPathUnits="userSpaceOnUse"><path
         id="path172"
         d="M 0,80 H 80 V 0 H 0 Z" /></clipPath><clipPath
       id="clipPath186"
       clipPathUnits="userSpaceOnUse"><path
         id="path184"
         d="m 37.75,63.6667 h 4.5 v -4.5 h -4.5 z" /></clipPath><clipPath
       id="clipPath202"
       clipPathUnits="userSpaceOnUse"><path
         id="path200"
         d="m 37.75,20.8333 h 4.5 v -4.5 h -4.5 z" /></clipPath><clipPath
       id="clipPath218"
       clipPathUnits="userSpaceOnUse"><path
         id="path216"
         d="m 59.1667,42.25 h 4.5 v -4.5 h -4.5 z" /></clipPath><clipPath
       id="clipPath234"
       clipPathUnits="userSpaceOnUse"><path
         id="path232"
         d="m 16.3333,42.25 h 4.5 v -4.5 h -4.5 z" /></clipPath><clipPath
       id="clipPath250"
       clipPathUnits="userSpaceOnUse"><path
         id="path248"
         d="M 0,80 H 80 V 0 H 0 Z" /></clipPath><clipPath
       id="clipPath258"
       clipPathUnits="userSpaceOnUse"><path
         id="path256"
         d="M 1.02344,79 H 78.9766 V 1 H 1.02344 Z" /></clipPath><clipPath
       id="clipPath262"
       clipPathUnits="userSpaceOnUse"><path
         id="path260"
         d="M 1.02344,79 H 78.9766 V 1 H 1.02344 Z" /></clipPath><clipPath
       id="clipPath266"
       clipPathUnits="userSpaceOnUse"><path
         id="path264"
         d="M 78.977,40 C 78.977,11.107 68.877,1 40,1 11.123,1 1.023,11.107 1.023,40 1.023,68.894 11.123,79 40,79 68.877,79 78.977,68.894 78.977,40" /></clipPath><clipPath
       id="clipPath270"
       clipPathUnits="userSpaceOnUse"><path
         id="path268"
         d="M -24534,24614 H 8232 V -8152 h -32766 z" /></clipPath><clipPath
       id="clipPath274"
       clipPathUnits="userSpaceOnUse"><path
         id="path272"
         d="M -24534,24614 H 8232 V -8152 h -32766 z" /></clipPath><mask
       id="mask276"
       height="1"
       width="1"
       y="0"
       x="0"
       maskUnits="userSpaceOnUse"><g
         id="g288"><g
           id="g286"
           clip-path="url(#clipPath270)"><g
             id="g284"><g
               id="g278" /><g
               id="g282"><g
                 id="g280"
                 clip-path="url(#clipPath274)" /></g></g></g></g></mask><linearGradient
       id="linearGradient294"
       spreadMethod="pad"
       gradientTransform="matrix(0,-53.61993,-53.61993,0,40,74.818359)"
       gradientUnits="userSpaceOnUse"
       y2="0"
       x2="1"
       y1="0"
       x1="0"><stop
         id="stop290"
         offset="0"
         style="stop-opacity:1;stop-color:#ffffff" /><stop
         id="stop292"
         offset="1"
         style="stop-opacity:1;stop-color:#e4e4e5" /></linearGradient><mask
       id="mask296"
       height="1"
       width="1"
       y="0"
       x="0"
       maskUnits="userSpaceOnUse"><g
         id="g322"><g
           style="opacity:0.5"
           id="g320"
           clip-path="url(#clipPath258)"><g
             id="g318"><g
               id="g298" /><g
               id="g316"><g
                 id="g314"
                 clip-path="url(#clipPath262)"><g
                   id="g312"><g
                     id="g310"
                     clip-path="url(#clipPath266)"><g
                       id="g308"><g
                         id="g300" /><g
                         id="g306"
                         mask="url(#mask276)"><g
                           id="g304"><path
                             id="path302"
                             style="fill:url(#linearGradient294);stroke:none"
                             d="M 78.977,40 C 78.977,11.107 68.877,1 40,1 11.123,1 1.023,11.107 1.023,40 1.023,68.894 11.123,79 40,79 68.877,79 78.977,68.894 78.977,40" /></g></g></g></g></g></g></g></g></g></g></mask><clipPath
       id="clipPath330"
       clipPathUnits="userSpaceOnUse"><path
         id="path328"
         d="M 1.02344,79 H 78.9766 V 1 H 1.02344 Z" /></clipPath><clipPath
       id="clipPath334"
       clipPathUnits="userSpaceOnUse"><path
         id="path332"
         d="M 78.977,40 C 78.977,11.107 68.877,1 40,1 11.123,1 1.023,11.107 1.023,40 1.023,68.894 11.123,79 40,79 68.877,79 78.977,68.894 78.977,40" /></clipPath><linearGradient
       id="linearGradient340"
       spreadMethod="pad"
       gradientTransform="matrix(0,-53.61993,-53.61993,0,40.000019,74.818184)"
       gradientUnits="userSpaceOnUse"
       y2="0"
       x2="1"
       y1="0"
       x1="0"><stop
         id="stop336"
         offset="0"
         style="stop-opacity:1;stop-color:#ffffff" /><stop
         id="stop338"
         offset="1"
         style="stop-opacity:1;stop-color:#000000" /></linearGradient><clipPath
       id="clipPath362"
       clipPathUnits="userSpaceOnUse"><path
         id="path360"
         d="M 1,79 H 79 V 1 H 1 Z" /></clipPath><clipPath
       id="clipPath366"
       clipPathUnits="userSpaceOnUse"><path
         id="path364"
         d="M 1,79 H 79 V 1 H 1 Z" /></clipPath><clipPath
       id="clipPath370"
       clipPathUnits="userSpaceOnUse"><path
         id="path368"
         d="M -24534,24614 H 8232 V -8152 h -32766 z" /></clipPath><clipPath
       id="clipPath374"
       clipPathUnits="userSpaceOnUse"><path
         id="path372"
         d="M -24534,24614 H 8232 V -8152 h -32766 z" /></clipPath><mask
       id="mask376"
       height="1"
       width="1"
       y="0"
       x="0"
       maskUnits="userSpaceOnUse"><g
         id="g388"><g
           id="g386"
           clip-path="url(#clipPath370)"><g
             id="g384"><g
               id="g378" /><g
               id="g382"><g
                 id="g380"
                 clip-path="url(#clipPath374)" /></g></g></g></g></mask><clipPath
       id="clipPath392"
       clipPathUnits="userSpaceOnUse"><path
         id="path390"
         d="M 1,79 H 79 V 1 H 1 Z" /></clipPath><clipPath
       id="clipPath396"
       clipPathUnits="userSpaceOnUse"><path
         id="path394"
         d="M 39.999,1.975 C 11.57,1.975 1.976,11.57 1.976,40 c 0,28.429 9.594,38.024 38.023,38.024 28.43,0 38.024,-9.595 38.024,-38.024 0,-28.43 -9.594,-38.025 -38.024,-38.025 m 0,77.025 C 11.105,79 1,68.894 1,40 1,11.107 11.105,1 39.999,1 68.896,1 79,11.107 79,40 79,68.894 68.896,79 39.999,79" /></clipPath><linearGradient
       id="linearGradient402"
       spreadMethod="pad"
       gradientTransform="matrix(0,-77.263527,-77.263527,0,40,78.75293)"
       gradientUnits="userSpaceOnUse"
       y2="0"
       x2="1"
       y1="0"
       x1="0"><stop
         id="stop398"
         offset="0"
         style="stop-opacity:1;stop-color:#ffffff" /><stop
         id="stop400"
         offset="1"
         style="stop-opacity:1;stop-color:#231815" /></linearGradient><mask
       id="mask404"
       height="1"
       width="1"
       y="0"
       x="0"
       maskUnits="userSpaceOnUse"><g
         id="g438"><g
           style="opacity:0.25"
           id="g436"
           clip-path="url(#clipPath362)"><g
             id="g434"><g
               id="g406" /><g
               id="g432"><g
                 id="g430"
                 clip-path="url(#clipPath366)"><g
                   id="g428"><g
                     id="g408" /><g
                     id="g426"
                     mask="url(#mask376)"><g
                       id="g410" /><g
                       id="g424"><g
                         id="g422"
                         clip-path="url(#clipPath392)"><g
                           id="g420"><g
                             id="g418"
                             clip-path="url(#clipPath396)"><g
                               id="g416"><g
                                 id="g414"><path
                                   id="path412"
                                   style="fill:url(#linearGradient402);stroke:none"
                                   d="M 39.999,1.975 C 11.57,1.975 1.976,11.57 1.976,40 c 0,28.429 9.594,38.024 38.023,38.024 28.43,0 38.024,-9.595 38.024,-38.024 0,-28.43 -9.594,-38.025 -38.024,-38.025 m 0,77.025 C 11.105,79 1,68.894 1,40 1,11.107 11.105,1 39.999,1 68.896,1 79,11.107 79,40 79,68.894 68.896,79 39.999,79" /></g></g></g></g></g></g></g></g></g></g></g></g></g></mask><clipPath
       id="clipPath446"
       clipPathUnits="userSpaceOnUse"><path
         id="path444"
         d="M 1,79 H 79 V 1 H 1 Z" /></clipPath><clipPath
       id="clipPath450"
       clipPathUnits="userSpaceOnUse"><path
         id="path448"
         d="M 39.999,1.975 C 11.57,1.975 1.976,11.57 1.976,40 c 0,28.429 9.594,38.024 38.023,38.024 28.43,0 38.024,-9.595 38.024,-38.024 0,-28.43 -9.594,-38.025 -38.024,-38.025 m 0,77.025 C 11.105,79 1,68.894 1,40 1,11.107 11.105,1 39.999,1 68.896,1 79,11.107 79,40 79,68.894 68.896,79 39.999,79" /></clipPath><linearGradient
       id="linearGradient456"
       spreadMethod="pad"
       gradientTransform="matrix(0,-77.263527,-77.263527,0,40,78.753128)"
       gradientUnits="userSpaceOnUse"
       y2="0"
       x2="1"
       y1="0"
       x1="0"><stop
         id="stop452"
         offset="0"
         style="stop-opacity:1;stop-color:#ffffff" /><stop
         id="stop454"
         offset="1"
         style="stop-opacity:1;stop-color:#ffffff" /></linearGradient></defs><g
     transform="matrix(1.2948718,0,0,-1.2948718,1.7051282,104.96154)"
     id="g10"><g
       id="g12"><g
         clip-path="url(#clipPath18)"
         id="g14"><g
           id="g20"><g
             id="g22"><path
               id="path32"
               style="fill:url(#linearGradient30);stroke:none"
               d="M 1,40 C 1,11.108 11.105,1 40,1 v 0 c 28.894,0 39,10.108 39,39 v 0 C 79,68.893 68.894,79 40,79 v 0 C 11.105,79 1,68.893 1,40"
               inkscape:connector-curvature="0" /></g></g></g></g><g
       id="g34"><g
         clip-path="url(#clipPath40)"
         id="g36"><g
           id="g42"><g
             id="g44"><path
               id="path54"
               style="fill:url(#linearGradient52);stroke:none"
               d="M 1,40 C 1,11.108 11.105,1 40,1 v 0 c 28.894,0 39,10.108 39,39 v 0 C 79,68.893 68.894,79 40,79 v 0 C 11.105,79 1,68.893 1,40"
               inkscape:connector-curvature="0" /></g></g></g></g><g
       id="g56"><g
         clip-path="url(#clipPath62)"
         id="g58"><g
           id="g64"><g
             id="g66" /><g
             mask="url(#mask80)"
             id="g92"><g
               id="g94"><path
                 id="path104"
                 style="fill:url(#linearGradient102);stroke:none"
                 d="M 40,40 17.444,17.444 33.696,1.19 C 35.694,1.067 37.786,1 40,1 v 0 c 28.894,0 39,10.108 39,39 v 0 c 0,2.215 -0.067,4.306 -0.19,6.304 v 0 L 62.556,62.557 Z"
                 inkscape:connector-curvature="0" /></g></g></g></g></g><g
       id="g106"><g
         clip-path="url(#clipPath112)"
         id="g108"><g
           transform="translate(69,40)"
           id="g114"><path
             id="path116"
             style="fill:#4ea38e;fill-opacity:1;fill-rule:nonzero;stroke:none"
             d="m 0,0 c 0,-21.484 -7.515,-29 -29,-29 -21.486,0 -29,7.516 -29,29 0,21.485 7.514,29 29,29 C -7.515,29 0,21.485 0,0"
             inkscape:connector-curvature="0" /></g></g></g><g
       id="g118"><g
         clip-path="url(#clipPath124)"
         id="g120"><g
           id="g126"><g
             id="g128" /><g
             mask="url(#mask142)"
             id="g154"><g
               id="g156"><path
                 id="path166"
                 style="fill:url(#linearGradient164);stroke:none"
                 d="M 40,40 28.615,28.615 45.998,11.234 c 15.045,1.248 21.529,7.742 22.772,22.799 v 0 L 51.402,51.401 Z"
                 inkscape:connector-curvature="0" /></g></g></g></g></g><g
       id="g168"><g
         clip-path="url(#clipPath174)"
         id="g170"><g
           transform="translate(54.667,40)"
           id="g176"><path
             id="path178"
             style="fill:#e4edeb;fill-opacity:1;fill-rule:nonzero;stroke:none"
             d="m 0,0 c 0,-10.865 -3.801,-14.667 -14.667,-14.667 -10.866,0 -14.666,3.802 -14.666,14.667 0,10.866 3.8,14.667 14.666,14.667 C -3.801,14.667 0,10.866 0,0"
             inkscape:connector-curvature="0" /></g><g
           id="g180"><g
             id="g182" /><g
             id="g194"><g
               style="opacity:0.80000299"
               id="g192"
               clip-path="url(#clipPath186)"><g
                 id="g190"
                 transform="translate(42.25,61.4165)"><path
                   id="path188"
                   style="fill:#ffffff;fill-opacity:1;fill-rule:nonzero;stroke:none"
                   d="m 0,0 c 0,-1.243 -1.008,-2.25 -2.25,-2.25 -1.243,0 -2.25,1.007 -2.25,2.25 0,1.243 1.007,2.25 2.25,2.25 C -1.008,2.25 0,1.243 0,0"
                   inkscape:connector-curvature="0" /></g></g></g></g><g
           id="g196"><g
             id="g198" /><g
             id="g210"><g
               style="opacity:0.80000299"
               id="g208"
               clip-path="url(#clipPath202)"><g
                 id="g206"
                 transform="translate(42.25,18.583)"><path
                   id="path204"
                   style="fill:#ffffff;fill-opacity:1;fill-rule:nonzero;stroke:none"
                   d="M 0,0 C 0,1.243 -1.008,2.25 -2.25,2.25 -3.493,2.25 -4.5,1.243 -4.5,0 c 0,-1.242 1.007,-2.25 2.25,-2.25 C -1.008,-2.25 0,-1.242 0,0"
                   inkscape:connector-curvature="0" /></g></g></g></g><g
           id="g212"><g
             id="g214" /><g
             id="g226"><g
               style="opacity:0.80000299"
               id="g224"
               clip-path="url(#clipPath218)"><g
                 id="g222"
                 transform="translate(61.417,37.75)"><path
                   id="path220"
                   style="fill:#ffffff;fill-opacity:1;fill-rule:nonzero;stroke:none"
                   d="M 0,0 C -1.243,0 -2.25,1.008 -2.25,2.25 -2.25,3.493 -1.243,4.5 0,4.5 1.242,4.5 2.25,3.493 2.25,2.25 2.25,1.008 1.242,0 0,0"
                   inkscape:connector-curvature="0" /></g></g></g></g><g
           id="g228"><g
             id="g230" /><g
             id="g242"><g
               style="opacity:0.80000299"
               id="g240"
               clip-path="url(#clipPath234)"><g
                 id="g238"
                 transform="translate(18.5835,37.75)"><path
                   id="path236"
                   style="fill:#ffffff;fill-opacity:1;fill-rule:nonzero;stroke:none"
                   d="M 0,0 C 1.243,0 2.25,1.008 2.25,2.25 2.25,3.493 1.243,4.5 0,4.5 -1.243,4.5 -2.25,3.493 -2.25,2.25 -2.25,1.008 -1.243,0 0,0"
                   inkscape:connector-curvature="0" /></g></g></g></g></g></g><g
       id="g244"><g
         clip-path="url(#clipPath250)"
         id="g246"><g
           id="g252"><g
             id="g254" /><g
             mask="url(#mask296)"
             id="g324"><g
               id="g326" /><g
               id="g354"><g
                 style="opacity:0.5"
                 id="g352"
                 clip-path="url(#clipPath330)"><g
                   id="g350"><g
                     id="g348"
                     clip-path="url(#clipPath334)"><g
                       id="g346"><g
                         id="g344"><path
                           id="path342"
                           style="fill:url(#linearGradient340);stroke:none"
                           d="M 78.977,40 C 78.977,11.107 68.877,1 40,1 11.123,1 1.023,11.107 1.023,40 1.023,68.894 11.123,79 40,79 68.877,79 78.977,68.894 78.977,40"
                           inkscape:connector-curvature="0" /></g></g></g></g></g></g></g></g><g
           id="g356"><g
             id="g358" /><g
             mask="url(#mask404)"
             id="g440"><g
               id="g442" /><g
               id="g470"><g
                 style="opacity:0.25"
                 id="g468"
                 clip-path="url(#clipPath446)"><g
                   id="g466"><g
                     id="g464"
                     clip-path="url(#clipPath450)"><g
                       id="g462"><g
                         id="g460"><path
                           id="path458"
                           style="fill:url(#linearGradient456);stroke:none"
                           d="M 39.999,1.975 C 11.57,1.975 1.976,11.57 1.976,40 c 0,28.429 9.594,38.024 38.023,38.024 28.43,0 38.024,-9.595 38.024,-38.024 0,-28.43 -9.594,-38.025 -38.024,-38.025 m 0,77.025 C 11.105,79 1,68.894 1,40 1,11.107 11.105,1 39.999,1 68.896,1 79,11.107 79,40 79,68.894 68.896,79 39.999,79"
                           inkscape:connector-curvature="0" /></g></g></g></g></g></g></g></g></g></g></g></svg>