<?xml version="1.0" encoding="UTF-8" standalone="no"?>
<!-- Created with Inkscape (http://www.inkscape.org/) -->

<svg
   xmlns:dc="http://purl.org/dc/elements/1.1/"
   xmlns:cc="http://creativecommons.org/ns#"
   xmlns:rdf="http://www.w3.org/1999/02/22-rdf-syntax-ns#"
   xmlns:svg="http://www.w3.org/2000/svg"
   xmlns="http://www.w3.org/2000/svg"
   xmlns:sodipodi="http://sodipodi.sourceforge.net/DTD/sodipodi-0.dtd"
   xmlns:inkscape="http://www.inkscape.org/namespaces/inkscape"
   version="1.1"
   id="svg2"
   xml:space="preserve"
   width="133.33333"
   height="133.33333"
   viewBox="0 0 133.33333 133.33333"
   sodipodi:docname="sailfish club.svg"
   inkscape:version="0.92.2 2405546, 2018-03-11"><metadata
     id="metadata8"><rdf:RDF><cc:Work
         rdf:about=""><dc:format>image/svg+xml</dc:format><dc:type
           rdf:resource="http://purl.org/dc/dcmitype/StillImage" /><dc:title></dc:title></cc:Work></rdf:RDF></metadata><defs
     id="defs6"><clipPath
       clipPathUnits="userSpaceOnUse"
       id="clipPath18"><path
         d="M 50,100 C 12.956,100 0,87.039 0,50 v 0 C 0,12.961 12.956,0 50,0 v 0 c 37.045,0 50,12.961 50,50 v 0 c 0,37.044 -12.955,50 -50,50 z"
         id="path16"
         inkscape:connector-curvature="0" /></clipPath><linearGradient
       x1="0"
       y1="0"
       x2="1"
       y2="0"
       gradientUnits="userSpaceOnUse"
       gradientTransform="matrix(77.78125,-77.78125,-77.78125,-77.78125,11.109896,88.891144)"
       spreadMethod="pad"
       id="linearGradient32"><stop
         style="stop-opacity:1;stop-color:#6ce0eb"
         offset="0"
         id="stop24" /><stop
         style="stop-opacity:1;stop-color:#6ce0eb"
         offset="0.14086381"
         id="stop26" /><stop
         style="stop-opacity:1;stop-color:#1aadd9"
         offset="0.999999"
         id="stop28" /><stop
         style="stop-opacity:1;stop-color:#1aadd9"
         offset="1"
         id="stop30" /></linearGradient><clipPath
       clipPathUnits="userSpaceOnUse"
       id="clipPath42"><path
         d="M 0,100 H 100 V 0 H 0 Z"
         id="path40"
         inkscape:connector-curvature="0" /></clipPath><clipPath
       clipPathUnits="userSpaceOnUse"
       id="clipPath50"><path
         d="m 12.5,87.5 h 75 v -75 h -75 z"
         id="path48"
         inkscape:connector-curvature="0" /></clipPath><clipPath
       clipPathUnits="userSpaceOnUse"
       id="clipPath66"><path
         d="M 19.99,80.0653 H 87.5 V 12.5 H 19.99 Z"
         id="path64"
         inkscape:connector-curvature="0" /></clipPath><clipPath
       clipPathUnits="userSpaceOnUse"
       id="clipPath70"><path
         d="m 80.813,22.701 c 0.268,0.339 0.528,0.688 0.779,1.046 0.106,0.151 0.213,0.303 0.316,0.458 0.253,0.381 0.494,0.775 0.73,1.178 0.078,0.134 0.161,0.263 0.237,0.4 0.302,0.54 0.59,1.096 0.859,1.673 0.044,0.095 0.082,0.195 0.125,0.29 0.218,0.481 0.427,0.972 0.624,1.478 0.09,0.233 0.174,0.475 0.261,0.713 0.138,0.382 0.273,0.769 0.4,1.166 0.044,0.135 0.094,0.26 0.136,0.397 h -0.014 c 1.536,4.994 2.234,11.101 2.234,18.5 0,2.381 -0.077,4.62 -0.226,6.741 L 64.749,79.267 64.741,79.253 C 64.129,79.862 63.243,80.19 62.307,80.021 61.828,79.935 61.356,79.843 60.892,79.746 45.01,75.441 38.607,62.293 38.022,35.395 L 41.917,31.5 H 19.99 c 1.056,-2.813 2.497,-5.114 4.355,-6.996 L 24.319,24.5 34.983,13.836 C 39.265,12.926 44.239,12.5 50,12.5 c 11.889,0 20.461,1.788 26.388,6.002 0.019,0.014 0.042,0.022 0.061,0.037 0.022,0.015 0.04,0.032 0.062,0.048 1.009,0.727 1.942,1.524 2.8,2.398 0.067,0.069 0.129,0.143 0.197,0.212 0.34,0.357 0.669,0.725 0.985,1.106 0.109,0.131 0.214,0.264 0.32,0.398"
         id="path68"
         inkscape:connector-curvature="0" /></clipPath><clipPath
       clipPathUnits="userSpaceOnUse"
       id="clipPath74"><path
         d="M -32768,32767 H 32767 V -32768 H -32768 Z"
         id="path72"
         inkscape:connector-curvature="0" /></clipPath><linearGradient
       x1="0"
       y1="0"
       x2="1"
       y2="0"
       gradientUnits="userSpaceOnUse"
       gradientTransform="matrix(41.314209,-41.314209,-41.314209,-41.314209,36.057808,60.359672)"
       spreadMethod="pad"
       id="linearGradient84"><stop
         style="stop-opacity:0.07998779;stop-color:#ffffff"
         offset="0"
         id="stop76" /><stop
         style="stop-opacity:0.07998779;stop-color:#ffffff"
         offset="0.14086381"
         id="stop78" /><stop
         style="stop-opacity:0;stop-color:#ffffff"
         offset="0.999999"
         id="stop80" /><stop
         style="stop-opacity:0;stop-color:#ffffff"
         offset="1"
         id="stop82" /></linearGradient><mask
       maskUnits="userSpaceOnUse"
       x="0"
       y="0"
       width="1"
       height="1"
       id="mask86"><g
         id="g96"><g
           clip-path="url(#clipPath74)"
           id="g94"><g
             id="g92"><g
               id="g90"><path
                 d="M -32768,32767 H 32767 V -32768 H -32768 Z"
                 style="fill:url(#linearGradient84);stroke:none"
                 id="path88"
                 inkscape:connector-curvature="0" /></g></g></g></g></mask><linearGradient
       x1="0"
       y1="0"
       x2="1"
       y2="0"
       gradientUnits="userSpaceOnUse"
       gradientTransform="matrix(41.314209,-41.314209,-41.314209,-41.314209,36.057808,60.359672)"
       spreadMethod="pad"
       id="linearGradient106"><stop
         style="stop-opacity:1;stop-color:#000000"
         offset="0"
         id="stop98" /><stop
         style="stop-opacity:1;stop-color:#000000"
         offset="0.14086381"
         id="stop100" /><stop
         style="stop-opacity:1;stop-color:#000000"
         offset="0.999999"
         id="stop102" /><stop
         style="stop-opacity:1;stop-color:#000000"
         offset="1"
         id="stop104" /></linearGradient><clipPath
       clipPathUnits="userSpaceOnUse"
       id="clipPath132"><path
         d="M 32.0647,78.6796 H 55.6971 V 33.9167 H 32.0647 Z"
         id="path130"
         inkscape:connector-curvature="0" /></clipPath><clipPath
       clipPathUnits="userSpaceOnUse"
       id="clipPath136"><path
         d="M 55.697,75.863 V 33.917 H 32.064 c 0.557,25.541 6.188,39.084 19.833,44.564 1.821,0.732 3.8,-0.656 3.8,-2.618"
         id="path134"
         inkscape:connector-curvature="0" /></clipPath><clipPath
       clipPathUnits="userSpaceOnUse"
       id="clipPath140"><path
         d="M -32768,32767 H 32767 V -32768 H -32768 Z"
         id="path138"
         inkscape:connector-curvature="0" /></clipPath><linearGradient
       x1="0"
       y1="0"
       x2="1"
       y2="0"
       gradientUnits="userSpaceOnUse"
       gradientTransform="matrix(0,-44.762978,-44.762978,0,43.880878,78.679642)"
       spreadMethod="pad"
       id="linearGradient148"><stop
         style="stop-opacity:1;stop-color:#ffffff"
         offset="0"
         id="stop142" /><stop
         style="stop-opacity:1;stop-color:#ffffff"
         offset="0.14086395"
         id="stop144" /><stop
         style="stop-opacity:0;stop-color:#ffffff"
         offset="1"
         id="stop146" /></linearGradient><mask
       maskUnits="userSpaceOnUse"
       x="0"
       y="0"
       width="1"
       height="1"
       id="mask150"><g
         id="g160"><g
           clip-path="url(#clipPath140)"
           id="g158"><g
             id="g156"><g
               id="g154"><path
                 d="M -32768,32767 H 32767 V -32768 H -32768 Z"
                 style="fill:url(#linearGradient148);stroke:none"
                 id="path152"
                 inkscape:connector-curvature="0" /></g></g></g></g></mask><linearGradient
       x1="0"
       y1="0"
       x2="1"
       y2="0"
       gradientUnits="userSpaceOnUse"
       gradientTransform="matrix(0,-44.762978,-44.762978,0,43.880878,78.679642)"
       spreadMethod="pad"
       id="linearGradient168"><stop
         style="stop-opacity:1;stop-color:#ffffff"
         offset="0"
         id="stop162" /><stop
         style="stop-opacity:1;stop-color:#ffffff"
         offset="0.14086395"
         id="stop164" /><stop
         style="stop-opacity:1;stop-color:#ffffff"
         offset="1"
         id="stop166" /></linearGradient><clipPath
       clipPathUnits="userSpaceOnUse"
       id="clipPath198"><path
         d="M 38.022,35.394 H 60.891 V 79.746 C 45.01,75.441 38.607,62.294 38.022,35.394"
         id="path196"
         inkscape:connector-curvature="0" /></clipPath><clipPath
       clipPathUnits="userSpaceOnUse"
       id="clipPath206"><path
         d="M -32768,32767 H 32767 V -32768 H -32768 Z"
         id="path204"
         inkscape:connector-curvature="0" /></clipPath><linearGradient
       x1="0"
       y1="0"
       x2="1"
       y2="0"
       gradientUnits="userSpaceOnUse"
       gradientTransform="matrix(0,-31.446331,-31.446331,0,49.456898,67.090881)"
       spreadMethod="pad"
       id="linearGradient218"><stop
         style="stop-opacity:1;stop-color:#ffffff"
         offset="0"
         id="stop208" /><stop
         style="stop-opacity:1;stop-color:#ffffff"
         offset="0.441025"
         id="stop210" /><stop
         style="stop-opacity:1;stop-color:#ffffff"
         offset="0.51976428"
         id="stop212" /><stop
         style="stop-opacity:0.29999237;stop-color:#ffffff"
         offset="0.999999"
         id="stop214" /><stop
         style="stop-opacity:0.29999237;stop-color:#ffffff"
         offset="1"
         id="stop216" /></linearGradient><mask
       maskUnits="userSpaceOnUse"
       x="0"
       y="0"
       width="1"
       height="1"
       id="mask220"><g
         id="g230"><g
           clip-path="url(#clipPath206)"
           id="g228"><g
             id="g226"><g
               id="g224"><path
                 d="M -32768,32767 H 32767 V -32768 H -32768 Z"
                 style="fill:url(#linearGradient218);stroke:none"
                 id="path222"
                 inkscape:connector-curvature="0" /></g></g></g></g></mask><linearGradient
       x1="0"
       y1="0"
       x2="1"
       y2="0"
       gradientUnits="userSpaceOnUse"
       gradientTransform="matrix(0,-31.446331,-31.446331,0,49.456898,67.090881)"
       spreadMethod="pad"
       id="linearGradient246"><stop
         style="stop-opacity:1;stop-color:#ffffff"
         offset="0"
         id="stop236" /><stop
         style="stop-opacity:1;stop-color:#ffffff"
         offset="0.441025"
         id="stop238" /><stop
         style="stop-opacity:1;stop-color:#ffffff"
         offset="0.51976428"
         id="stop240" /><stop
         style="stop-opacity:1;stop-color:#ffffff"
         offset="0.999999"
         id="stop242" /><stop
         style="stop-opacity:1;stop-color:#ffffff"
         offset="1"
         id="stop244" /></linearGradient><clipPath
       clipPathUnits="userSpaceOnUse"
       id="clipPath256"><path
         d="M 0,100 H 100 V 0 H 0 Z"
         id="path254"
         inkscape:connector-curvature="0" /></clipPath><clipPath
       clipPathUnits="userSpaceOnUse"
       id="clipPath264"><path
         d="m 19.99,31.5 h 65.29 v -14 H 19.99 Z"
         id="path262"
         inkscape:connector-curvature="0" /></clipPath><clipPath
       clipPathUnits="userSpaceOnUse"
       id="clipPath280"><path
         d="M 87.5,50 C 87.5,22.22 77.781,12.5 50,12.5 v 0 c -13.89,0 -23.26,2.43 -29.169,8.331 v 0 L 41.38,0.28 C 44.1,0.1 46.96,0 50,0 v 0 c 37.04,0 50,12.96 50,50 v 0 c 0,3.01 -0.1,5.84 -0.269,8.531 v 0 L 80.24,78.02 C 85.361,72.07 87.5,63.02 87.5,50"
         id="path278"
         inkscape:connector-curvature="0" /></clipPath><clipPath
       clipPathUnits="userSpaceOnUse"
       id="clipPath288"><path
         d="M -32768,32767 H 32767 V -32768 H -32768 Z"
         id="path286"
         inkscape:connector-curvature="0" /></clipPath><linearGradient
       x1="0"
       y1="0"
       x2="1"
       y2="0"
       gradientUnits="userSpaceOnUse"
       gradientTransform="matrix(38.889992,-38.889992,-38.889992,-38.889992,49.980011,49.980011)"
       spreadMethod="pad"
       id="linearGradient298"><stop
         style="stop-opacity:0.07998779;stop-color:#ffffff"
         offset="0"
         id="stop290" /><stop
         style="stop-opacity:0.07998779;stop-color:#ffffff"
         offset="0.14086381"
         id="stop292" /><stop
         style="stop-opacity:0;stop-color:#ffffff"
         offset="0.999999"
         id="stop294" /><stop
         style="stop-opacity:0;stop-color:#ffffff"
         offset="1"
         id="stop296" /></linearGradient><mask
       maskUnits="userSpaceOnUse"
       x="0"
       y="0"
       width="1"
       height="1"
       id="mask300"><g
         id="g310"><g
           clip-path="url(#clipPath288)"
           id="g308"><g
             id="g306"><g
               id="g304"><path
                 d="M -32768,32767 H 32767 V -32768 H -32768 Z"
                 style="fill:url(#linearGradient298);stroke:none"
                 id="path302"
                 inkscape:connector-curvature="0" /></g></g></g></g></mask><linearGradient
       x1="0"
       y1="0"
       x2="1"
       y2="0"
       gradientUnits="userSpaceOnUse"
       gradientTransform="matrix(38.889992,-38.889992,-38.889992,-38.889992,49.980011,49.980011)"
       spreadMethod="pad"
       id="linearGradient324"><stop
         style="stop-opacity:1;stop-color:#000000"
         offset="0"
         id="stop316" /><stop
         style="stop-opacity:1;stop-color:#000000"
         offset="0.14086381"
         id="stop318" /><stop
         style="stop-opacity:1;stop-color:#000000"
         offset="0.999999"
         id="stop320" /><stop
         style="stop-opacity:1;stop-color:#000000"
         offset="1"
         id="stop322" /></linearGradient></defs><sodipodi:namedview
     pagecolor="#ffffff"
     bordercolor="#666666"
     borderopacity="1"
     objecttolerance="10"
     gridtolerance="10"
     guidetolerance="10"
     inkscape:pageopacity="0"
     inkscape:pageshadow="2"
     inkscape:window-width="1366"
     inkscape:window-height="717"
     id="namedview4"
     showgrid="false"
     inkscape:zoom="1.7700001"
     inkscape:cx="66.666664"
     inkscape:cy="65.536721"
     inkscape:window-x="0"
     inkscape:window-y="25"
     inkscape:window-maximized="1"
     inkscape:current-layer="g10" /><g
     id="g10"
     inkscape:groupmode="layer"
     inkscape:label="sailfish club"
     transform="matrix(1.3333333,0,0,-1.3333333,0,133.33333)"><g
       id="g12"
       transform="matrix(0.93750002,0,0,0.93750002,3.0000001,3.0000014)"><g
         id="g14"
         clip-path="url(#clipPath18)"><g
           id="g20"><g
             id="g22"><path
               d="M 50,100 C 12.956,100 0,87.039 0,50 v 0 C 0,12.961 12.956,0 50,0 v 0 c 37.045,0 50,12.961 50,50 v 0 c 0,37.044 -12.955,50 -50,50 z"
               style="fill:url(#linearGradient32);stroke:none"
               id="path34"
               inkscape:connector-curvature="0" /></g></g></g></g><g
       id="g36"
       transform="matrix(0.93750002,0,0,0.93750002,3.0000001,3.0000014)"><g
         id="g38"
         clip-path="url(#clipPath42)"><g
           id="g44"><g
             id="g46" /><g
             id="g58"><g
               clip-path="url(#clipPath50)"
               id="g56"
               style="opacity:0.39999402"><g
                 transform="translate(87.5,50)"
                 id="g54"><path
                   d="m 0,0 c 0,-27.78 -9.72,-37.5 -37.5,-37.5 -13.89,0 -23.26,2.43 -29.17,8.33 -5.9,5.91 -8.33,15.28 -8.33,29.17 0,27.78 9.72,37.5 37.5,37.5 13.89,0 23.26,-2.43 29.17,-8.33 0.37,-0.37 0.72,-0.75 1.07,-1.15 C -2.14,22.07 0,13.02 0,0"
                   style="fill:#ffffff;fill-opacity:1;fill-rule:nonzero;stroke:none"
                   id="path52"
                   inkscape:connector-curvature="0" /></g></g></g></g><g
           id="g60"><g
             id="g62" /><g
             id="g124"><g
               clip-path="url(#clipPath66)"
               id="g122"
               style="opacity:0.80000299"><g
                 id="g120"><g
                   clip-path="url(#clipPath70)"
                   id="g118"><g
                     id="g116"><g
                       id="g108" /><g
                       mask="url(#mask86)"
                       id="g114"><g
                         id="g112"><path
                           d="m 80.813,22.701 c 0.268,0.339 0.528,0.688 0.779,1.046 0.106,0.151 0.213,0.303 0.316,0.458 0.253,0.381 0.494,0.775 0.73,1.178 0.078,0.134 0.161,0.263 0.237,0.4 0.302,0.54 0.59,1.096 0.859,1.673 0.044,0.095 0.082,0.195 0.125,0.29 0.218,0.481 0.427,0.972 0.624,1.478 0.09,0.233 0.174,0.475 0.261,0.713 0.138,0.382 0.273,0.769 0.4,1.166 0.044,0.135 0.094,0.26 0.136,0.397 h -0.014 c 1.536,4.994 2.234,11.101 2.234,18.5 0,2.381 -0.077,4.62 -0.226,6.741 L 64.749,79.267 64.741,79.253 C 64.129,79.862 63.243,80.19 62.307,80.021 61.828,79.935 61.356,79.843 60.892,79.746 45.01,75.441 38.607,62.293 38.022,35.395 L 41.917,31.5 H 19.99 c 1.056,-2.813 2.497,-5.114 4.355,-6.996 L 24.319,24.5 34.983,13.836 C 39.265,12.926 44.239,12.5 50,12.5 c 11.889,0 20.461,1.788 26.388,6.002 0.019,0.014 0.042,0.022 0.061,0.037 0.022,0.015 0.04,0.032 0.062,0.048 1.009,0.727 1.942,1.524 2.8,2.398 0.067,0.069 0.129,0.143 0.197,0.212 0.34,0.357 0.669,0.725 0.985,1.106 0.109,0.131 0.214,0.264 0.32,0.398"
                           style="fill:url(#linearGradient106);stroke:none"
                           id="path110"
                           inkscape:connector-curvature="0" /></g></g></g></g></g></g></g></g><g
           id="g126"><g
             id="g128" /><g
             id="g186"><g
               clip-path="url(#clipPath132)"
               id="g184"
               style="opacity:0.60000598"><g
                 id="g182"><g
                   clip-path="url(#clipPath136)"
                   id="g180"><g
                     id="g178"><g
                       id="g170" /><g
                       mask="url(#mask150)"
                       id="g176"><g
                         id="g174"><path
                           d="M 55.697,75.863 V 33.917 H 32.064 c 0.557,25.541 6.188,39.084 19.833,44.564 1.821,0.732 3.8,-0.656 3.8,-2.618"
                           style="fill:url(#linearGradient168);stroke:none"
                           id="path172"
                           inkscape:connector-curvature="0" /></g></g></g></g></g></g></g></g><g
           id="g188"
           transform="translate(65.5469,31.5)"><path
             d="m 0,0 v 45.848 c 0,1.71 -1.557,2.977 -3.24,2.673 -0.479,-0.086 -0.95,-0.178 -1.415,-0.275 V 8.241 0 Z"
             style="fill:#ffffff;fill-opacity:1;fill-rule:nonzero;stroke:none"
             id="path190"
             inkscape:connector-curvature="0" /></g></g></g><g
       id="g192"
       transform="matrix(0.93750002,0,0,0.93750002,3.0000001,3.0000014)"><g
         id="g194"
         clip-path="url(#clipPath198)"><g
           id="g200"><g
             id="g202" /><g
             id="g232"
             mask="url(#mask220)"><g
               id="g234"><path
                 d="M 38.022,35.394 H 60.891 V 79.746 C 45.01,75.441 38.607,62.294 38.022,35.394"
                 style="fill:url(#linearGradient246);stroke:none"
                 id="path248"
                 inkscape:connector-curvature="0" /></g></g></g></g></g><g
       id="g250"
       transform="matrix(0.93750002,0,0,0.93750002,3.0000001,3.0000014)"><g
         id="g252"
         clip-path="url(#clipPath256)"><g
           id="g258"><g
             id="g260" /><g
             id="g272"><g
               clip-path="url(#clipPath264)"
               id="g270"
               style="opacity:0.80000299"><g
                 transform="translate(85.2803,31.5)"
                 id="g268"><path
                   d="M 0,0 C -1.758,-5.709 -4.62,-9.953 -8.831,-12.961 -9.783,-13.642 -10.931,-14 -12.101,-14 H -35.28 c -17.17,0 -26.11,3.61 -30.01,14 z"
                   style="fill:#ffffff;fill-opacity:1;fill-rule:nonzero;stroke:none"
                   id="path266"
                   inkscape:connector-curvature="0" /></g></g></g></g></g></g><g
       id="g274"
       transform="matrix(0.93750002,0,0,0.93750002,3.0000001,3.0000014)"><g
         id="g276"
         clip-path="url(#clipPath280)"><g
           id="g282"><g
             id="g284" /><g
             id="g312"
             mask="url(#mask300)"><g
               id="g314"><path
                 d="M 87.5,50 C 87.5,22.22 77.781,12.5 50,12.5 v 0 c -13.89,0 -23.26,2.43 -29.169,8.331 v 0 L 41.38,0.28 C 44.1,0.1 46.96,0 50,0 v 0 c 37.04,0 50,12.96 50,50 v 0 c 0,3.01 -0.1,5.84 -0.269,8.531 v 0 L 80.24,78.02 C 85.361,72.07 87.5,63.02 87.5,50"
                 style="fill:url(#linearGradient324);stroke:none"
                 id="path326"
                 inkscape:connector-curvature="0" /></g></g></g></g></g></g></svg>