<svg xmlns="http://www.w3.org/2000/svg" xmlns:xlink="http://www.w3.org/1999/xlink" viewBox="0 0 192 192"><defs><style>.cls-1{fill:none;}.cls-2{opacity:0.01;}.cls-3{opacity:0.02;}.cls-4{opacity:0.04;}.cls-5{opacity:0.06;}.cls-6{fill:#505050;}.cls-7{fill:url(#未命名的渐变_8);}.cls-8{fill:url(#未命名的渐变_46);}.cls-9{fill:#fffde7;opacity:0.1;}.cls-10{fill:#fff5ae;opacity:0.2;}.cls-11{opacity:0.4;fill:url(#未命名的渐变_30);}.cls-12{fill:#fffef8;}.cls-13{fill:#ea3c32;}.cls-14{opacity:0.05;}.cls-15{fill:#fff;opacity:0.12;}.cls-16{fill:url(#未命名的渐变_42);}.cls-17{opacity:0.08;}</style><linearGradient id="未命名的渐变_8" x1="166" y1="166" x2="26" y2="26" gradientUnits="userSpaceOnUse"><stop offset="0" stop-opacity="0.1"/><stop offset="0.5" stop-color="gray" stop-opacity="0.05"/><stop offset="1" stop-color="#fff" stop-opacity="0.12"/></linearGradient><linearGradient id="未命名的渐变_46" x1="166" y1="166" x2="26" y2="26" gradientUnits="userSpaceOnUse"><stop offset="0" stop-opacity="0.05"/><stop offset="0.5" stop-color="gray" stop-opacity="0"/><stop offset="1" stop-color="#fff" stop-opacity="0.1"/></linearGradient><linearGradient id="未命名的渐变_30" x1="168.53" y1="163.47" x2="77.59" y2="72.54" gradientUnits="userSpaceOnUse"><stop offset="0" stop-color="#fff6b8" stop-opacity="0.4"/><stop offset="1" stop-color="#fff6b8"/></linearGradient><linearGradient id="未命名的渐变_42" x1="69.27" y1="69.73" x2="46.87" y2="47.34" gradientUnits="userSpaceOnUse"><stop offset="0" stop-opacity="0.12"/><stop offset="1" stop-opacity="0"/></linearGradient></defs><title>google_spotlightstories</title><g id="图层_2" data-name="图层 2"><g id="图层_2-2" data-name="图层 2"><rect class="cls-1" width="192" height="192"/><path class="cls-2" d="M96,190C27.34,190,3,165.66,3,97S27.34,4,96,4s93,24.34,93,93S164.66,190,96,190Z"/><path class="cls-3" d="M96,189C28.07,189,4,164.92,4,97S28.07,5,96,5s92,24.07,92,92S163.93,189,96,189Z"/><path class="cls-4" d="M96,188C28.81,188,5,164.19,5,97S28.81,6,96,6s91,23.81,91,91S163.19,188,96,188Z"/><path class="cls-5" d="M186,97c0,66.67-23.32,90-90,90S6,163.67,6,97,29.32,7,96,7,186,30.32,186,97Z"/><path class="cls-6" d="M186,96c0,66.67-23.32,90-90,90S6,162.67,6,96,29.32,6,96,6,186,29.32,186,96Z"/><path class="cls-7" d="M186,96c0,66.67-23.32,90-90,90S6,162.67,6,96,29.32,6,96,6,186,29.32,186,96Z"/><path class="cls-8" d="M96,6C29.32,6,6,29.32,6,96s23.32,90,90,90,90-23.33,90-90S162.68,6,96,6Zm68.59,158.59C151.17,178,130,184,96,184s-55.17-6-68.59-19.41S8,130,8,96s6-55.17,19.41-68.59S62,8,96,8s55.17,6,68.59,19.41S184,62,184,96,178,151.16,164.59,164.59Z"/><path class="cls-9" d="M186,96c0-20.95-2.3-37.61-7.53-50.63l-90,3.23L48.6,88.45l-3.23,90C58.39,183.7,75.05,186,96,186,162.68,186,186,162.67,186,96Z"/><path class="cls-10" d="M186,96c0-13.8-1-25.75-3.18-36L77.38,55.25,55.25,77.38,60,182.82C70.25,185,82.2,186,96,186,162.68,186,186,162.67,186,96Z"/><path class="cls-11" d="M186,96q0-4.71-.16-9.14L90.53,59.6,59.67,90.67,97.12,186C162.94,185.73,186,162.29,186,96Z"/><circle class="cls-12" cx="77.38" cy="77.38" r="22.14"/><path class="cls-13" d="M108.38,42.35l-.31,0c-8.69,1.24-22,6.29-30.69,6.29q-2.21,0-4.47-.05A186.7,186.7,0,0,1,49,46.48l-.34,0A2.21,2.21,0,0,0,46.48,49,186.71,186.71,0,0,1,48.6,72.9c.25,10.23-4.79,25-6.24,35.16a2.21,2.21,0,0,0,3.76,1.88l63.82-63.82a2.21,2.21,0,0,0-1.56-3.78Z"/><path class="cls-14" d="M110.36,43.57a2.2,2.2,0,0,0-.79-.87,2.19,2.19,0,0,1-.62,1.43L45.12,107.94a2.21,2.21,0,0,1-2.55.42l-.21-.13a2.21,2.21,0,0,0,3.77,1.71l63.82-63.82A2.21,2.21,0,0,0,110.36,43.57Z"/><path class="cls-15" d="M43.37,110.06C44.81,99.9,49.85,85.13,49.6,74.9A186.71,186.71,0,0,0,47.48,51a2.21,2.21,0,0,1,2.19-2.55l.34,0A186.7,186.7,0,0,0,73.9,50.6q2.27.05,4.47.05c8.74,0,22-5.05,30.69-6.29l.31,0a2.21,2.21,0,0,1,1.19.35,2.19,2.19,0,0,0-.21-1.13,2.21,2.21,0,0,0-2-1.22l-.31,0c-8.69,1.24-22,6.29-30.69,6.29q-2.21,0-4.47-.05A186.7,186.7,0,0,1,49,46.48l-.34,0A2.21,2.21,0,0,0,46.48,49,186.71,186.71,0,0,1,48.6,72.9c.25,10.23-4.79,25-6.24,35.16a2.21,2.21,0,0,0,1,2.16C43.36,110.17,43.36,110.12,43.37,110.06Z"/><path class="cls-16" d="M93.12,45.88c-5.62,1.46-11.28,2.78-15.75,2.78q-2.21,0-4.47-.05A186.7,186.7,0,0,1,49,46.48l-.34,0A2.21,2.21,0,0,0,46.48,49,186.71,186.71,0,0,1,48.6,72.9c.14,6-1.51,13.46-3.19,20.69Z"/><path class="cls-17" d="M82.84,48.16,47.57,83.43C47,86.75,46.2,90.2,45.41,93.59L93.12,45.88C89.61,46.79,86.08,47.65,82.84,48.16Z"/></g></g></svg>