<svg xmlns="http://www.w3.org/2000/svg" xmlns:xlink="http://www.w3.org/1999/xlink" width="192" height="192" viewBox="0 0 192 192">
  <defs>
    <style>
      .cls-1 {
        fill: none;
      }

      .cls-2 {
        opacity: 0.01;
      }

      .cls-2, .cls-3, .cls-4, .cls-5 {
        isolation: isolate;
      }

      .cls-3 {
        opacity: 0.02;
      }

      .cls-4 {
        opacity: 0.04;
      }

      .cls-5 {
        opacity: 0.06;
      }

      .cls-6 {
        fill: #f5f5f5;
      }

      .cls-7 {
        fill: url(#未命名的渐变_4);
      }

      .cls-8 {
        fill: url(#未命名的渐变_2);
      }

      .cls-9 {
        fill: url(#未命名的渐变_102);
      }

      .cls-10 {
        fill: #ff7f0b;
      }

      .cls-11 {
        fill: #ffc902;
      }

      .cls-12 {
        fill: #85db16;
      }

      .cls-13 {
        fill: url(#未命名的渐变_110);
      }

      .cls-14 {
        fill: url(#未命名的渐变_115);
      }

      .cls-15 {
        fill: url(#未命名的渐变_123);
      }

      .cls-16, .cls-18 {
        fill: #fff;
      }

      .cls-16, .cls-17 {
        opacity: 0.1;
      }

      .cls-19 {
        fill: #594200;
        opacity: 0.8;
      }

      .cls-20 {
        fill: #065600;
      }

      .cls-21 {
        fill: url(#未命名的渐变_57);
      }

      .cls-22 {
        fill: url(#未命名的渐变_57-2);
      }

      .cls-23 {
        fill: url(#未命名的渐变_57-3);
      }
    </style>
    <linearGradient id="未命名的渐变_4" data-name="未命名的渐变 4" x1="166.004" y1="27.998" x2="25.998" y2="168.004" gradientTransform="matrix(1, 0, 0, -1, 0, 194)" gradientUnits="userSpaceOnUse">
      <stop offset="0" stop-opacity="0.1"/>
      <stop offset="0.5" stop-color="gray" stop-opacity="0.05"/>
      <stop offset="1" stop-color="#fff" stop-opacity="0.15"/>
    </linearGradient>
    <linearGradient id="未命名的渐变_2" data-name="未命名的渐变 2" x1="166.012" y1="75.988" x2="25.987" y2="216.012" gradientTransform="matrix(1, 0, 0, -1, 0, 242)" gradientUnits="userSpaceOnUse">
      <stop offset="0" stop-opacity="0.04"/>
      <stop offset="0.5" stop-color="gray" stop-opacity="0"/>
      <stop offset="1" stop-color="#fff" stop-opacity="0.1"/>
    </linearGradient>
    <linearGradient id="未命名的渐变_102" data-name="未命名的渐变 102" x1="165.998" y1="165.998" x2="96" y2="96" gradientUnits="userSpaceOnUse">
      <stop offset="0" stop-opacity="0"/>
      <stop offset="1" stop-opacity="0.1"/>
    </linearGradient>
    <linearGradient id="未命名的渐变_110" data-name="未命名的渐变 110" x1="95.984" y1="33.11" x2="43.321" y2="124.325" gradientUnits="userSpaceOnUse">
      <stop offset="0.6" stop-color="#df4f00" stop-opacity="0"/>
      <stop offset="1" stop-color="#df4f00" stop-opacity="0.5"/>
    </linearGradient>
    <linearGradient id="未命名的渐变_115" data-name="未命名的渐变 115" x1="150.472" y1="127.434" x2="97.853" y2="36.295" gradientUnits="userSpaceOnUse">
      <stop offset="0.6" stop-color="#c9a700" stop-opacity="0"/>
      <stop offset="1" stop-color="#e09400" stop-opacity="0.5"/>
    </linearGradient>
    <linearGradient id="未命名的渐变_123" data-name="未命名的渐变 123" x1="41.54" y1="127.452" x2="146.752" y2="127.452" gradientUnits="userSpaceOnUse">
      <stop offset="0.6" stop-color="#1eaf00" stop-opacity="0"/>
      <stop offset="1" stop-color="#1eaf00" stop-opacity="0.5"/>
    </linearGradient>
    <linearGradient id="未命名的渐变_57" data-name="未命名的渐变 57" x1="114.519" y1="49.89" x2="28.733" y2="99.418" gradientUnits="userSpaceOnUse">
      <stop offset="0" stop-color="#fff" stop-opacity="0.15"/>
      <stop offset="0.4" stop-color="#fff" stop-opacity="0"/>
    </linearGradient>
    <linearGradient id="未命名的渐变_57-2" x1="126.641" y1="135.097" x2="126.641" y2="36.057" xlink:href="#未命名的渐变_57"/>
    <linearGradient id="未命名的渐变_57-3" x1="46.852" y1="102.939" x2="132.623" y2="152.46" xlink:href="#未命名的渐变_57"/>
  </defs>
  <title>miui_life</title>
  <g id="图层_2" data-name="图层 2">
    <g id="图层_1-2" data-name="图层 1">
      <rect class="cls-1" width="192" height="192"/>
      <g>
        <path class="cls-2" d="M96,190C27.3,190,3,165.7,3,97S27.3,4,96,4s93,24.3,93,93S164.7,190,96,190Z"/>
        <path class="cls-3" d="M96,189C28.1,189,4,164.9,4,97S28.1,5,96,5s92,24.1,92,92S163.9,189,96,189Z"/>
        <path class="cls-4" d="M96,188C28.8,188,5,164.2,5,97S28.8,6,96,6s91,23.8,91,91S163.2,188,96,188Z"/>
        <path class="cls-5" d="M186,97c0,66.7-23.3,90-90,90S6,163.7,6,97,29.3,7,96,7,186,30.3,186,97Z"/>
      </g>
      <path class="cls-6" d="M186,96c0,66.7-23.3,90-90,90S6,162.7,6,96,29.3,6,96,6,186,29.3,186,96Z"/>
      <path class="cls-7" d="M186,96c0,66.67-23.32,90-90,90S6,162.67,6,96,29.32,6,96,6,186,29.32,186,96Z"/>
      <path class="cls-8" d="M96,6C29.3,6,6,29.3,6,96s23.3,90,90,90,90-23.3,90-90S162.7,6,96,6Zm68.6,158.6C151.2,178,130,184,96,184s-55.2-6-68.6-19.4S8,130,8,96s6-55.2,19.4-68.6S62,8,96,8s55.2,6,68.6,19.4S184,62,184,96,178,151.2,164.6,164.6Z"/>
    </g>
    <g id="图层_4" data-name="图层 4">
      <path class="cls-9" d="M53.574,138.426,101.1,185.949c61.1-1.161,83.692-23.763,84.853-84.853L138.426,53.574,126.167,65.833,127,126l-60.536-.464Z"/>
      <path class="cls-10" d="M50.577,101.324a18.1,18.1,0,0,1,24.011,5.5A23.983,23.983,0,0,1,96,72c.43,0,.858.013,1.283.035a18.081,18.081,0,0,0,.981-35.978C97.512,36.029,96.759,36,96,36a60,60,0,0,0-52.992,88.144A18.12,18.12,0,0,1,50.577,101.324Z"/>
      <path class="cls-11" d="M98.264,36.057a18.081,18.081,0,0,1-.981,35.978,23.98,23.98,0,0,1,18.885,36.95,18.087,18.087,0,0,0,30.584,19A59.976,59.976,0,0,0,98.264,36.057Z"/>
      <path class="cls-12" d="M132.343,135.1a18.076,18.076,0,0,1-16.175-26.112,23.977,23.977,0,0,1-41.58-2.165,18.092,18.092,0,0,0-31.58,17.324,59.993,59.993,0,0,0,103.744,3.844A18.2,18.2,0,0,1,132.343,135.1Z"/>
      <path class="cls-13" d="M50.577,101.324a18.1,18.1,0,0,1,24.011,5.5A23.983,23.983,0,0,1,96,72c.43,0,.858.013,1.283.035a18.081,18.081,0,0,0,.981-35.978C97.512,36.029,96.759,36,96,36a60,60,0,0,0-52.992,88.144A18.12,18.12,0,0,1,50.577,101.324Z"/>
      <path class="cls-14" d="M98.264,36.057a18.081,18.081,0,0,1-.981,35.978,23.98,23.98,0,0,1,18.885,36.95,18.087,18.087,0,0,0,30.584,19A59.976,59.976,0,0,0,98.264,36.057Z"/>
      <path class="cls-15" d="M132.343,135.1a18.076,18.076,0,0,1-16.175-26.112,23.977,23.977,0,0,1-41.58-2.165,18.092,18.092,0,0,0-31.58,17.324,59.993,59.993,0,0,0,103.744,3.844A18.2,18.2,0,0,1,132.343,135.1Z"/>
      <path class="cls-16" d="M37,98A60,60,0,0,1,97,38c.759,0,1.512.029,2.264.057a18.134,18.134,0,0,1,13.386,8.892A18.141,18.141,0,0,0,98.264,36.057C97.512,36.029,96.759,36,96,36a60,60,0,0,0-53.149,87.838A59.717,59.717,0,0,1,37,98Z"/>
      <g class="cls-17">
        <path class="cls-18" d="M150.055,69.96a60.007,60.007,0,0,0-51.791-33.9,17.988,17.988,0,0,1,7.211,2.559A60.047,60.047,0,0,1,150.055,69.96Z"/>
        <path class="cls-18" d="M117.168,110.985a23.914,23.914,0,0,0,.784-24.667,23.914,23.914,0,0,1-1.784,22.667,18.115,18.115,0,0,0,.561,17.064A18.1,18.1,0,0,1,117.168,110.985Z"/>
        <path class="cls-19" d="M115.1,56a17.947,17.947,0,0,0-2.45-9.051A18.041,18.041,0,0,1,97.283,72.035,23.876,23.876,0,0,1,103,73.044,18.1,18.1,0,0,0,115.1,56Z"/>
      </g>
      <g class="cls-17">
        <path class="cls-20" d="M124.323,134.676a18.059,18.059,0,0,0,17.069.534,60.274,60.274,0,0,0,5.36-7.222,18.107,18.107,0,0,1-23.429,4.688,17.936,17.936,0,0,1-6.594-6.627A17.956,17.956,0,0,0,124.323,134.676Z"/>
        <path class="cls-18" d="M51.577,103.324a18.1,18.1,0,0,1,24.011,5.5A23.964,23.964,0,0,0,114.5,114.4a17.987,17.987,0,0,1,1.671-5.413,23.977,23.977,0,0,1-41.58-2.165,18.092,18.092,0,0,0-31.58,17.324c.25.469.51.931.772,1.392A18.107,18.107,0,0,1,51.577,103.324Z"/>
      </g>
      <path class="cls-21" d="M50.577,101.324a18.1,18.1,0,0,1,24.011,5.5A23.983,23.983,0,0,1,96,72c.43,0,.858.013,1.283.035a18.081,18.081,0,0,0,.981-35.978C97.512,36.029,96.759,36,96,36a60,60,0,0,0-52.992,88.144A18.12,18.12,0,0,1,50.577,101.324Z"/>
      <path class="cls-22" d="M98.264,36.057a18.081,18.081,0,0,1-.981,35.978,23.98,23.98,0,0,1,18.885,36.95,18.087,18.087,0,0,0,30.584,19A59.976,59.976,0,0,0,98.264,36.057Z"/>
      <path class="cls-23" d="M132.343,135.1a18.076,18.076,0,0,1-16.175-26.112,23.977,23.977,0,0,1-41.58-2.165,18.092,18.092,0,0,0-31.58,17.324,59.993,59.993,0,0,0,103.744,3.844A18.2,18.2,0,0,1,132.343,135.1Z"/>
    </g>
  </g>
</svg>
