<svg xmlns="http://www.w3.org/2000/svg" xmlns:xlink="http://www.w3.org/1999/xlink" width="192" height="192" viewBox="0 0 192 192"><defs><style>.cls-1{fill:none;}.cls-2{opacity:0.01;}.cls-3{opacity:0.02;}.cls-4{opacity:0.04;}.cls-5{opacity:0.06;}.cls-6{fill:#68cc56;}.cls-7{fill:url(#未命名的渐变_3);}.cls-8{fill:url(#未命名的渐变_12);}.cls-9{fill:url(#未命名的渐变_7);}.cls-10{opacity:0.05;}.cls-11{fill:#fafafa;}.cls-12{fill:#fff;}</style><linearGradient id="未命名的渐变_3" x1="166.005" y1="166.003" x2="25.997" y2="25.995" gradientUnits="userSpaceOnUse"><stop offset="0" stop-opacity="0.12"/><stop offset="0.5" stop-color="gray" stop-opacity="0.05"/><stop offset="1" stop-color="#fff" stop-opacity="0.12"/></linearGradient><linearGradient id="未命名的渐变_12" x1="166.005" y1="166.003" x2="25.997" y2="25.995" gradientUnits="userSpaceOnUse"><stop offset="0" stop-opacity="0.04"/><stop offset="0.5" stop-color="gray" stop-opacity="0"/><stop offset="1" stop-color="#fff" stop-opacity="0.1"/></linearGradient><linearGradient id="未命名的渐变_7" x1="160.683" y1="171.315" x2="51.684" y2="62.316" gradientUnits="userSpaceOnUse"><stop offset="0" stop-opacity="0"/><stop offset="1" stop-opacity="0.12"/></linearGradient></defs><title>apple_phone</title><g id="图层_2" data-name="图层 2"><g id="图层_1-2" data-name="图层 1"><rect class="cls-1" width="192" height="192"/><circle class="cls-2" cx="96" cy="97" r="93"/><circle class="cls-3" cx="96" cy="97" r="92"/><circle class="cls-4" cx="96" cy="97" r="91"/><path class="cls-5" d="M186,97c0,66.672-23.317,90-90,90S6,163.674,6,97,29.321,7,96,7,186,30.323,186,97Z"/><path class="cls-6" d="M186,96c0,66.672-23.317,90-90,90S6,162.674,6,96,29.321,6,96,6,186,29.323,186,96Z"/><path class="cls-7" d="M186,96c0,66.672-23.317,90-90,90S6,162.674,6,96,29.321,6,96,6,186,29.323,186,96Z"/><path class="cls-8" d="M96,6C29.321,6,6,29.323,6,96s23.321,90,90,90,90-23.328,90-90S162.683,6,96,6Zm68.592,158.588C151.168,178.013,130.014,184,96,184s-55.166-5.986-68.59-19.411S8,130.011,8,96s5.986-55.166,19.41-68.589S61.988,8,96,8s55.168,5.986,68.592,19.411S184,61.987,184,96,178.014,151.164,164.592,164.588Z"/><path class="cls-9" d="M173.884,155.884,66,48,59,59l17.368,56.632,64.79,64.791C156.042,175.7,166.7,167.765,173.884,155.884Z"/><path class="cls-10" d="M145.3,128.274c-1.5-1.5-14.8-10.829-20.827-14.2s-12.626,4.435-17.576,5.142-12.728-7.071-18.385-12.728S75.079,93.05,75.786,88.1,84.3,76.547,80.928,70.524,68.228,51.2,66.725,49.7s-8.617-.488-14.98,5.876c-7.072,7.071-3.122,19.805,1.267,28.906S63.1,103.612,77.2,117.8c14.187,14.1,24.219,19.8,33.32,24.188s21.835,8.339,28.906,1.268C145.79,136.891,146.805,129.777,145.3,128.274Z"/><path class="cls-11" d="M144.3,126.274c-1.5-1.5-14.8-10.829-20.827-14.2s-12.626,4.435-17.576,5.142-12.728-7.071-18.385-12.728S74.079,91.05,74.786,86.1,83.3,74.547,79.928,68.524,67.228,49.2,65.725,47.7s-8.617-.488-14.98,5.876c-7.072,7.071-3.122,19.805,1.267,28.906S62.1,101.612,76.2,115.8c14.187,14.1,24.219,19.8,33.32,24.188s21.835,8.339,28.906,1.268C144.79,134.891,145.805,127.777,144.3,126.274Z"/><path class="cls-12" d="M88.514,106.485c5.657,5.657,13.435,13.435,18.385,12.728s11.553-8.516,17.576-5.142A222.2,222.2,0,0,1,144.88,127.9a2.668,2.668,0,0,0-.578-1.624c-1.5-1.5-14.8-10.829-20.827-14.2s-12.626,4.435-17.576,5.142-12.728-7.071-18.385-12.728c-3.827-3.827-8.616-8.623-11.1-12.859C78.331,96.289,84.069,102.04,88.514,106.485Z"/><path class="cls-12" d="M53.012,84.479c-4.389-9.1-8.339-21.835-1.267-28.906,6.364-6.364,13.478-7.379,14.98-5.876,1.436,1.435,10.006,13.632,13.712,19.971a6.681,6.681,0,0,0-.509-1.144C76.554,62.5,67.228,49.2,65.725,47.7s-8.616-.488-14.98,5.876c-7.072,7.071-3.122,19.805,1.267,28.906Q52.747,84,53.546,85.57C53.367,85.206,53.186,84.84,53.012,84.479Z"/></g></g></svg>