<?xml version="1.0" encoding="UTF-8" standalone="no"?>
<svg
   xmlns:dc="http://purl.org/dc/elements/1.1/"
   xmlns:cc="http://creativecommons.org/ns#"
   xmlns:rdf="http://www.w3.org/1999/02/22-rdf-syntax-ns#"
   xmlns:svg="http://www.w3.org/2000/svg"
   xmlns="http://www.w3.org/2000/svg"
   xmlns:sodipodi="http://sodipodi.sourceforge.net/DTD/sodipodi-0.dtd"
   xmlns:inkscape="http://www.inkscape.org/namespaces/inkscape"
   viewBox="0 0 133.33333 133.33333"
   height="133.33333"
   width="133.33333"
   xml:space="preserve"
   id="svg2"
   version="1.1"
   sodipodi:docname="picoplayer.svg"
   inkscape:version="0.92.2 2405546, 2018-03-11"><sodipodi:namedview
     pagecolor="#ffffff"
     bordercolor="#666666"
     borderopacity="1"
     objecttolerance="10"
     gridtolerance="10"
     guidetolerance="10"
     inkscape:pageopacity="0"
     inkscape:pageshadow="2"
     inkscape:window-width="1366"
     inkscape:window-height="706"
     id="namedview93"
     showgrid="false"
     inkscape:zoom="1.7700001"
     inkscape:cx="66.666664"
     inkscape:cy="66.666664"
     inkscape:window-x="0"
     inkscape:window-y="34"
     inkscape:window-maximized="1"
     inkscape:current-layer="svg2" /><metadata
     id="metadata8"><rdf:RDF><cc:Work
         rdf:about=""><dc:format>image/svg+xml</dc:format><dc:type
           rdf:resource="http://purl.org/dc/dcmitype/StillImage" /></cc:Work></rdf:RDF></metadata><defs
     id="defs6"><clipPath
       id="clipPath18"
       clipPathUnits="userSpaceOnUse"><path
         id="path16"
         d="M 50,100 C 12.956,100 0,87.039 0,50 v 0 C 0,12.961 12.956,0 50,0 v 0 c 37.045,0 50,12.961 50,50 v 0 c 0,37.044 -12.955,50 -50,50 z" /></clipPath><linearGradient
       id="linearGradient30"
       spreadMethod="pad"
       gradientTransform="matrix(77.78125,-77.78125,-77.78125,-77.78125,11.109896,88.891144)"
       gradientUnits="userSpaceOnUse"
       y2="0"
       x2="1"
       y1="0"
       x1="0"><stop
         id="stop24"
         offset="0"
         style="stop-opacity:1;stop-color:#f7bb7e" /><stop
         id="stop26"
         offset="0.00000049"
         style="stop-opacity:1;stop-color:#f7bb7e" /><stop
         id="stop28"
         offset="1"
         style="stop-opacity:1;stop-color:#cf6e44" /></linearGradient><clipPath
       id="clipPath40"
       clipPathUnits="userSpaceOnUse"><path
         id="path38"
         d="M 0,100 H 100 V 0 H 0 Z" /></clipPath><clipPath
       id="clipPath48"
       clipPathUnits="userSpaceOnUse"><path
         id="path46"
         d="m 20.14,80.3 h 60.2 V 20.07 h -60.2 z" /></clipPath><clipPath
       id="clipPath68"
       clipPathUnits="userSpaceOnUse"><path
         id="path66"
         d="m 19.68,22.04 0.46,-0.46 c -0.16,0.16 -0.3,0.331 -0.45,0.5 v 0 z" /></clipPath><clipPath
       id="clipPath76"
       clipPathUnits="userSpaceOnUse"><path
         id="path74"
         d="M -32768,32767 H 32767 V -32768 H -32768 Z" /></clipPath><linearGradient
       id="linearGradient84"
       spreadMethod="pad"
       gradientTransform="matrix(0.4750061,-0.4750061,-0.4750061,-0.4750061,19.677506,22.06752)"
       gradientUnits="userSpaceOnUse"
       y2="0"
       x2="1"
       y1="0"
       x1="0"><stop
         id="stop78"
         offset="0"
         style="stop-opacity:0.11999695;stop-color:#ffffff" /><stop
         id="stop80"
         offset="0.00000049"
         style="stop-opacity:0.11999695;stop-color:#ffffff" /><stop
         id="stop82"
         offset="1"
         style="stop-opacity:0;stop-color:#ffffff" /></linearGradient><mask
       id="mask86"
       height="1"
       width="1"
       y="0"
       x="0"
       maskUnits="userSpaceOnUse"><g
         id="g96"><g
           id="g94"
           clip-path="url(#clipPath76)"><g
             id="g92"><g
               id="g90"><path
                 id="path88"
                 style="fill:url(#linearGradient84);stroke:none"
                 d="M -32768,32767 H 32767 V -32768 H -32768 Z" /></g></g></g></g></mask><linearGradient
       id="linearGradient108"
       spreadMethod="pad"
       gradientTransform="matrix(0.4750061,-0.4750061,-0.4750061,-0.4750061,19.677506,22.06752)"
       gradientUnits="userSpaceOnUse"
       y2="0"
       x2="1"
       y1="0"
       x1="0"><stop
         id="stop102"
         offset="0"
         style="stop-opacity:1;stop-color:#000000" /><stop
         id="stop104"
         offset="0.00000049"
         style="stop-opacity:1;stop-color:#000000" /><stop
         id="stop106"
         offset="1"
         style="stop-opacity:1;stop-color:#000000" /></linearGradient><clipPath
       id="clipPath118"
       clipPathUnits="userSpaceOnUse"><path
         id="path116"
         d="M 0,100 H 100 V 0 H 0 Z" /></clipPath><clipPath
       id="clipPath126"
       clipPathUnits="userSpaceOnUse"><path
         id="path124"
         d="m 12.5,87.5 h 75 v -75 h -75 z" /></clipPath><clipPath
       id="clipPath146"
       clipPathUnits="userSpaceOnUse"><path
         id="path144"
         d="M 87.5,50 C 87.5,22.22 77.781,12.5 50,12.5 v 0 c -1.93,0 -3.77,0.05 -5.53,0.15 v 0 24.8 c 2.53,-2.82 5.42,-3.86 9.35,-3.86 v 0 c 3.78,0 7.27,1.34 9.42,3.5 v 0 c 3.85,3.85 3.93,10.52 3.93,16.31 v 0 c 0,5.78 -0.08,12.38 -3.93,16.24 v 0 c -2.15,2.15 -5.64,3.49 -9.42,3.49 v 0 c -4.08,0 -6.97,-1.11 -9.64,-4.08 v 0 3.64 H 34.83 V 13.87 c -5.51,1.19 -9.85,3.2 -13.18,6.2 v 0 L 41.447,0.274 C 44.148,0.095 46.986,0 50,0 v 0 c 37.045,0 50,12.961 50,50 v 0 c 0,2.999 -0.095,5.824 -0.27,8.514 v 0 L 80.339,77.9 C 85.389,71.951 87.5,62.94 87.5,50 m -43.03,3.4 c 0,6.301 0.74,11.05 6.53,11.05 v 0 c 5.79,0 6.531,-4.749 6.531,-11.05 v 0 C 57.531,47.1 56.79,42.269 51,42.269 v 0 c -5.79,0 -6.53,4.831 -6.53,11.131" /></clipPath><clipPath
       id="clipPath154"
       clipPathUnits="userSpaceOnUse"><path
         id="path152"
         d="M -32768,32767 H 32767 V -32768 H -32768 Z" /></clipPath><linearGradient
       id="linearGradient160"
       spreadMethod="pad"
       gradientTransform="matrix(57.820614,-57.820614,-57.820614,-57.820614,31.060715,68.9207)"
       gradientUnits="userSpaceOnUse"
       y2="0"
       x2="1"
       y1="0"
       x1="0"><stop
         id="stop156"
         offset="0"
         style="stop-opacity:0.11999695;stop-color:#ffffff" /><stop
         id="stop158"
         offset="1"
         style="stop-opacity:0;stop-color:#ffffff" /></linearGradient><mask
       id="mask162"
       height="1"
       width="1"
       y="0"
       x="0"
       maskUnits="userSpaceOnUse"><g
         id="g172"><g
           id="g170"
           clip-path="url(#clipPath154)"><g
             id="g168"><g
               id="g166"><path
                 id="path164"
                 style="fill:url(#linearGradient160);stroke:none"
                 d="M -32768,32767 H 32767 V -32768 H -32768 Z" /></g></g></g></g></mask><linearGradient
       id="linearGradient182"
       spreadMethod="pad"
       gradientTransform="matrix(57.820614,-57.820614,-57.820614,-57.820614,31.060715,68.9207)"
       gradientUnits="userSpaceOnUse"
       y2="0"
       x2="1"
       y1="0"
       x1="0"><stop
         id="stop178"
         offset="0"
         style="stop-opacity:1;stop-color:#000000" /><stop
         id="stop180"
         offset="1"
         style="stop-opacity:1;stop-color:#000000" /></linearGradient></defs><g
     transform="matrix(1.25,0,0,-1.25,4,129.33333)"
     id="g10"><g
       id="g12"><g
         clip-path="url(#clipPath18)"
         id="g14"><g
           id="g20"><g
             id="g22"><path
               id="path32"
               style="fill:url(#linearGradient30);stroke:none"
               d="M 50,100 C 12.956,100 0,87.039 0,50 v 0 C 0,12.961 12.956,0 50,0 v 0 c 37.045,0 50,12.961 50,50 v 0 c 0,37.044 -12.955,50 -50,50 z"
               inkscape:connector-curvature="0" /></g></g></g></g><g
       id="g34"><g
         clip-path="url(#clipPath40)"
         id="g36"><g
           id="g42"><g
             id="g44" /><g
             id="g60"><g
               style="opacity:0.60000598"
               id="g58"
               clip-path="url(#clipPath48)"><g
                 id="g52"
                 transform="translate(20.1401,21.5801)"><path
                   id="path50"
                   style="fill:#ffffff;fill-opacity:1;fill-rule:nonzero;stroke:none"
                   d="M 0,0 1.51,-1.51 C 0.97,-1.03 0.47,-0.53 0,0"
                   inkscape:connector-curvature="0" /></g><g
                 id="g56"
                 transform="translate(80.3398,77.8999)"><path
                   id="path54"
                   style="fill:#ffffff;fill-opacity:1;fill-rule:nonzero;stroke:none"
                   d="M 0,0 -2.399,2.4 C -1.54,1.66 -0.74,0.87 0,0"
                   inkscape:connector-curvature="0" /></g></g></g></g></g></g><g
       id="g62"><g
         clip-path="url(#clipPath68)"
         id="g64"><g
           id="g70"><g
             id="g72" /><g
             mask="url(#mask86)"
             id="g98"><g
               id="g100"><path
                 id="path110"
                 style="fill:url(#linearGradient108);stroke:none"
                 d="m 19.68,22.04 0.46,-0.46 c -0.16,0.16 -0.3,0.331 -0.45,0.5 v 0 z"
                 inkscape:connector-curvature="0" /></g></g></g></g></g><g
       id="g112"><g
         clip-path="url(#clipPath118)"
         id="g114"><g
           id="g120"><g
             id="g122" /><g
             id="g138"><g
               style="opacity:0.75"
               id="g136"
               clip-path="url(#clipPath126)"><g
                 id="g130"
                 transform="translate(80.3398,77.8999)"><path
                   id="path128"
                   style="fill:#ffffff;fill-opacity:1;fill-rule:nonzero;stroke:none"
                   d="M 0,0 -2.399,2.4 C -8.35,7.48 -17.38,9.6 -30.34,9.6 c -27.78,0 -37.5,-9.72 -37.5,-37.5 0,-12.95 2.12,-21.98 7.19,-27.92 0.15,-0.17 0.29,-0.34 0.45,-0.5 l 1.51,-1.51 c 3.33,-3 7.67,-5.01 13.18,-6.2 v 58.82 h 9.35 v -3.64 c 2.67,2.97 5.56,4.08 9.64,4.08 3.78,0 7.27,-1.34 9.42,-3.49 3.85,-3.86 3.93,-10.46 3.93,-16.24 0,-5.79 -0.08,-12.459 -3.93,-16.31 -2.15,-2.16 -5.64,-3.5 -9.42,-3.5 -3.93,0 -6.82,1.04 -9.35,3.86 v -24.8 c 1.76,-0.1 3.6,-0.15 5.53,-0.15 27.78,0 37.5,9.72 37.5,37.5 C 7.16,-14.96 5.05,-5.95 0,0"
                   inkscape:connector-curvature="0" /></g><g
                 id="g134"
                 transform="translate(51,42.2695)"><path
                   id="path132"
                   style="fill:#ffffff;fill-opacity:1;fill-rule:nonzero;stroke:none"
                   d="m 0,0 c 5.79,0 6.53,4.83 6.53,11.13 0,6.301 -0.74,11.051 -6.53,11.051 -5.79,0 -6.53,-4.75 -6.53,-11.051 C -6.53,4.83 -5.79,0 0,0"
                   inkscape:connector-curvature="0" /></g></g></g></g></g></g><g
       id="g140"><g
         clip-path="url(#clipPath146)"
         id="g142"><g
           id="g148"><g
             id="g150" /><g
             mask="url(#mask162)"
             id="g174"><g
               id="g176"><path
                 id="path184"
                 style="fill:url(#linearGradient182);stroke:none"
                 d="M 87.5,50 C 87.5,22.22 77.781,12.5 50,12.5 v 0 c -1.93,0 -3.77,0.05 -5.53,0.15 v 0 24.8 c 2.53,-2.82 5.42,-3.86 9.35,-3.86 v 0 c 3.78,0 7.27,1.34 9.42,3.5 v 0 c 3.85,3.85 3.93,10.52 3.93,16.31 v 0 c 0,5.78 -0.08,12.38 -3.93,16.24 v 0 c -2.15,2.15 -5.64,3.49 -9.42,3.49 v 0 c -4.08,0 -6.97,-1.11 -9.64,-4.08 v 0 3.64 H 34.83 V 13.87 c -5.51,1.19 -9.85,3.2 -13.18,6.2 v 0 L 41.447,0.274 C 44.148,0.095 46.986,0 50,0 v 0 c 37.045,0 50,12.961 50,50 v 0 c 0,2.999 -0.095,5.824 -0.27,8.514 v 0 L 80.339,77.9 C 85.389,71.951 87.5,62.94 87.5,50 m -43.03,3.4 c 0,6.301 0.74,11.05 6.53,11.05 v 0 c 5.79,0 6.531,-4.749 6.531,-11.05 v 0 C 57.531,47.1 56.79,42.269 51,42.269 v 0 c -5.79,0 -6.53,4.831 -6.53,11.131"
                 inkscape:connector-curvature="0" /></g></g></g></g></g></g></svg>