<?xml version="1.0" encoding="UTF-8" standalone="no"?>
<!-- Created with Inkscape (http://www.inkscape.org/) -->

<svg
   xmlns:dc="http://purl.org/dc/elements/1.1/"
   xmlns:cc="http://creativecommons.org/ns#"
   xmlns:rdf="http://www.w3.org/1999/02/22-rdf-syntax-ns#"
   xmlns:svg="http://www.w3.org/2000/svg"
   xmlns="http://www.w3.org/2000/svg"
   xmlns:sodipodi="http://sodipodi.sourceforge.net/DTD/sodipodi-0.dtd"
   xmlns:inkscape="http://www.inkscape.org/namespaces/inkscape"
   version="1.1"
   id="svg2"
   xml:space="preserve"
   width="106.66667"
   height="106.66667"
   viewBox="0 0 106.66667 106.66667"
   sodipodi:docname="rockpool.svg"
   inkscape:version="0.92.2 2405546, 2018-03-11"><metadata
     id="metadata8"><rdf:RDF><cc:Work
         rdf:about=""><dc:format>image/svg+xml</dc:format><dc:type
           rdf:resource="http://purl.org/dc/dcmitype/StillImage" /><dc:title /></cc:Work></rdf:RDF></metadata><defs
     id="defs6"><clipPath
       clipPathUnits="userSpaceOnUse"
       id="clipPath18"><path
         d="M 1,40 C 1,11.108 11.105,1 40,1 v 0 c 28.894,0 39,10.108 39,39 v 0 C 79,68.893 68.894,79 40,79 v 0 C 11.105,79 1,68.893 1,40"
         id="path16"
         inkscape:connector-curvature="0" /></clipPath><linearGradient
       x1="0"
       y1="0"
       x2="1"
       y2="0"
       gradientUnits="userSpaceOnUse"
       gradientTransform="matrix(60.670349,-60.670349,-60.670349,-60.670349,9.6648254,70.335365)"
       spreadMethod="pad"
       id="linearGradient30"><stop
         style="stop-opacity:1;stop-color:#ffad52"
         offset="0"
         id="stop24" /><stop
         style="stop-opacity:1;stop-color:#eb9049"
         offset="1"
         id="stop26" /><stop
         style="stop-opacity:1;stop-color:#eb9049"
         offset="1"
         id="stop28" /></linearGradient><clipPath
       clipPathUnits="userSpaceOnUse"
       id="clipPath40"><path
         d="M 1,40 C 1,11.108 11.105,1 40,1 v 0 c 28.894,0 39,10.108 39,39 v 0 C 79,68.893 68.894,79 40,79 v 0 C 11.105,79 1,68.893 1,40"
         id="path38"
         inkscape:connector-curvature="0" /></clipPath><linearGradient
       x1="0"
       y1="0"
       x2="1"
       y2="0"
       gradientUnits="userSpaceOnUse"
       gradientTransform="matrix(80,-80,-80,-80,0,80)"
       spreadMethod="pad"
       id="linearGradient52"><stop
         style="stop-opacity:1;stop-color:#ffad52"
         offset="0"
         id="stop46" /><stop
         style="stop-opacity:1;stop-color:#eb9049"
         offset="1"
         id="stop48" /><stop
         style="stop-opacity:1;stop-color:#eb9049"
         offset="1"
         id="stop50" /></linearGradient><clipPath
       clipPathUnits="userSpaceOnUse"
       id="clipPath62"><path
         d="M 48.5,62.406 29.833,57.833 20.166,45.417 24.175,24.176 30.467,17.884 29.978,17.487 46.276,1.189 c 22.098,1.349 31.186,10.437 32.535,32.533 v 0 L 50.039,62.493 Z"
         id="path60"
         inkscape:connector-curvature="0" /></clipPath><clipPath
       clipPathUnits="userSpaceOnUse"
       id="clipPath70"><path
         d="M -32768,32767 H 32767 V -32768 H -32768 Z"
         id="path68"
         inkscape:connector-curvature="0" /></clipPath><linearGradient
       x1="0"
       y1="0"
       x2="1"
       y2="0"
       gradientUnits="userSpaceOnUse"
       gradientTransform="matrix(44.324684,-44.324684,-44.324684,-44.324684,25.999466,53.999527)"
       spreadMethod="pad"
       id="linearGradient78"><stop
         style="stop-opacity:0.2;stop-color:#ffffff"
         offset="0"
         id="stop72" /><stop
         style="stop-opacity:0.04998856;stop-color:#ffffff"
         offset="1"
         id="stop74" /><stop
         style="stop-opacity:0.04998856;stop-color:#ffffff"
         offset="1"
         id="stop76" /></linearGradient><mask
       maskUnits="userSpaceOnUse"
       x="0"
       y="0"
       width="1"
       height="1"
       id="mask80"><g
         id="g90"><g
           clip-path="url(#clipPath70)"
           id="g88"><g
             id="g86"><g
               id="g84"><path
                 d="M -32768,32767 H 32767 V -32768 H -32768 Z"
                 style="fill:url(#linearGradient78);stroke:none"
                 id="path82"
                 inkscape:connector-curvature="0" /></g></g></g></g></mask><linearGradient
       x1="0"
       y1="0"
       x2="1"
       y2="0"
       gradientUnits="userSpaceOnUse"
       gradientTransform="matrix(44.324684,-44.324684,-44.324684,-44.324684,25.999466,53.999527)"
       spreadMethod="pad"
       id="linearGradient102"><stop
         style="stop-opacity:1;stop-color:#000000"
         offset="0"
         id="stop96" /><stop
         style="stop-opacity:1;stop-color:#000000"
         offset="1"
         id="stop98" /><stop
         style="stop-opacity:1;stop-color:#000000"
         offset="1"
         id="stop100" /></linearGradient><clipPath
       clipPathUnits="userSpaceOnUse"
       id="clipPath112"><path
         d="M 0,80 H 80 V 0 H 0 Z"
         id="path110"
         inkscape:connector-curvature="0" /></clipPath><clipPath
       clipPathUnits="userSpaceOnUse"
       id="clipPath124"><path
         d="m 38.613,37.493 12.502,-12.503 6.041,6.166 1.524,10.805 -7.37,7.37 z"
         id="path122"
         inkscape:connector-curvature="0" /></clipPath><clipPath
       clipPathUnits="userSpaceOnUse"
       id="clipPath132"><path
         d="M -32768,32767 H 32767 V -32768 H -32768 Z"
         id="path130"
         inkscape:connector-curvature="0" /></clipPath><linearGradient
       x1="0"
       y1="0"
       x2="1"
       y2="0"
       gradientUnits="userSpaceOnUse"
       gradientTransform="matrix(12.502703,-12.502703,-12.502703,-12.502703,44.746136,43.626541)"
       spreadMethod="pad"
       id="linearGradient140"><stop
         style="stop-opacity:0.09999237;stop-color:#ffffff"
         offset="0"
         id="stop134" /><stop
         style="stop-opacity:0;stop-color:#ffffff"
         offset="0.743589"
         id="stop136" /><stop
         style="stop-opacity:0;stop-color:#ffffff"
         offset="1"
         id="stop138" /></linearGradient><mask
       maskUnits="userSpaceOnUse"
       x="0"
       y="0"
       width="1"
       height="1"
       id="mask142"><g
         id="g152"><g
           clip-path="url(#clipPath132)"
           id="g150"><g
             id="g148"><g
               id="g146"><path
                 d="M -32768,32767 H 32767 V -32768 H -32768 Z"
                 style="fill:url(#linearGradient140);stroke:none"
                 id="path144"
                 inkscape:connector-curvature="0" /></g></g></g></g></mask><linearGradient
       x1="0"
       y1="0"
       x2="1"
       y2="0"
       gradientUnits="userSpaceOnUse"
       gradientTransform="matrix(12.502703,-12.502703,-12.502703,-12.502703,44.746136,43.626541)"
       spreadMethod="pad"
       id="linearGradient164"><stop
         style="stop-opacity:1;stop-color:#000000"
         offset="0"
         id="stop158" /><stop
         style="stop-opacity:1;stop-color:#000000"
         offset="0.743589"
         id="stop160" /><stop
         style="stop-opacity:1;stop-color:#000000"
         offset="1"
         id="stop162" /></linearGradient><clipPath
       clipPathUnits="userSpaceOnUse"
       id="clipPath174"><path
         d="M 0,80 H 80 V 0 H 0 Z"
         id="path172"
         inkscape:connector-curvature="0" /></clipPath><clipPath
       clipPathUnits="userSpaceOnUse"
       id="clipPath186"><path
         d="M 0,80 H 80 V 0 H 0 Z"
         id="path184"
         inkscape:connector-curvature="0" /></clipPath><clipPath
       clipPathUnits="userSpaceOnUse"
       id="clipPath194"><path
         d="M 1.02344,79 H 78.9766 V 1 H 1.02344 Z"
         id="path192"
         inkscape:connector-curvature="0" /></clipPath><clipPath
       clipPathUnits="userSpaceOnUse"
       id="clipPath198"><path
         d="M 1.02344,79 H 78.9766 V 1 H 1.02344 Z"
         id="path196"
         inkscape:connector-curvature="0" /></clipPath><clipPath
       clipPathUnits="userSpaceOnUse"
       id="clipPath202"><path
         d="M 78.977,40 C 78.977,11.107 68.877,1 40,1 11.123,1 1.023,11.107 1.023,40 1.023,68.894 11.123,79 40,79 68.877,79 78.977,68.894 78.977,40"
         id="path200"
         inkscape:connector-curvature="0" /></clipPath><clipPath
       clipPathUnits="userSpaceOnUse"
       id="clipPath206"><path
         d="M -24534,24614 H 8232 V -8152 h -32766 z"
         id="path204"
         inkscape:connector-curvature="0" /></clipPath><clipPath
       clipPathUnits="userSpaceOnUse"
       id="clipPath210"><path
         d="M -24534,24614 H 8232 V -8152 h -32766 z"
         id="path208"
         inkscape:connector-curvature="0" /></clipPath><mask
       maskUnits="userSpaceOnUse"
       x="0"
       y="0"
       width="1"
       height="1"
       id="mask212"><g
         id="g224"><g
           clip-path="url(#clipPath206)"
           id="g222"><g
             id="g220"><g
               id="g214" /><g
               id="g218"><g
                 clip-path="url(#clipPath210)"
                 id="g216" /></g></g></g></g></mask><linearGradient
       x1="0"
       y1="0"
       x2="1"
       y2="0"
       gradientUnits="userSpaceOnUse"
       gradientTransform="matrix(0,-53.61993,-53.61993,0,40,74.818359)"
       spreadMethod="pad"
       id="linearGradient230"><stop
         style="stop-opacity:1;stop-color:#ffffff"
         offset="0"
         id="stop226" /><stop
         style="stop-opacity:1;stop-color:#e4e4e5"
         offset="1"
         id="stop228" /></linearGradient><mask
       maskUnits="userSpaceOnUse"
       x="0"
       y="0"
       width="1"
       height="1"
       id="mask232"><g
         id="g258"><g
           clip-path="url(#clipPath194)"
           id="g256"
           style="opacity:0.5"><g
             id="g254"><g
               id="g234" /><g
               id="g252"><g
                 clip-path="url(#clipPath198)"
                 id="g250"><g
                   id="g248"><g
                     clip-path="url(#clipPath202)"
                     id="g246"><g
                       id="g244"><g
                         id="g236" /><g
                         mask="url(#mask212)"
                         id="g242"><g
                           id="g240"><path
                             d="M 78.977,40 C 78.977,11.107 68.877,1 40,1 11.123,1 1.023,11.107 1.023,40 1.023,68.894 11.123,79 40,79 68.877,79 78.977,68.894 78.977,40"
                             style="fill:url(#linearGradient230);stroke:none"
                             id="path238"
                             inkscape:connector-curvature="0" /></g></g></g></g></g></g></g></g></g></g></mask><clipPath
       clipPathUnits="userSpaceOnUse"
       id="clipPath266"><path
         d="M 1.02344,79 H 78.9766 V 1 H 1.02344 Z"
         id="path264"
         inkscape:connector-curvature="0" /></clipPath><clipPath
       clipPathUnits="userSpaceOnUse"
       id="clipPath270"><path
         d="M 78.977,40 C 78.977,11.107 68.877,1 40,1 11.123,1 1.023,11.107 1.023,40 1.023,68.894 11.123,79 40,79 68.877,79 78.977,68.894 78.977,40"
         id="path268"
         inkscape:connector-curvature="0" /></clipPath><linearGradient
       x1="0"
       y1="0"
       x2="1"
       y2="0"
       gradientUnits="userSpaceOnUse"
       gradientTransform="matrix(0,-53.61993,-53.61993,0,40.000019,74.818184)"
       spreadMethod="pad"
       id="linearGradient276"><stop
         style="stop-opacity:1;stop-color:#ffffff"
         offset="0"
         id="stop272" /><stop
         style="stop-opacity:1;stop-color:#000000"
         offset="1"
         id="stop274" /></linearGradient><clipPath
       clipPathUnits="userSpaceOnUse"
       id="clipPath298"><path
         d="M 1,79 H 79 V 1 H 1 Z"
         id="path296"
         inkscape:connector-curvature="0" /></clipPath><clipPath
       clipPathUnits="userSpaceOnUse"
       id="clipPath302"><path
         d="M 1,79 H 79 V 1 H 1 Z"
         id="path300"
         inkscape:connector-curvature="0" /></clipPath><clipPath
       clipPathUnits="userSpaceOnUse"
       id="clipPath306"><path
         d="M -24534,24614 H 8232 V -8152 h -32766 z"
         id="path304"
         inkscape:connector-curvature="0" /></clipPath><clipPath
       clipPathUnits="userSpaceOnUse"
       id="clipPath310"><path
         d="M -24534,24614 H 8232 V -8152 h -32766 z"
         id="path308"
         inkscape:connector-curvature="0" /></clipPath><mask
       maskUnits="userSpaceOnUse"
       x="0"
       y="0"
       width="1"
       height="1"
       id="mask312"><g
         id="g324"><g
           clip-path="url(#clipPath306)"
           id="g322"><g
             id="g320"><g
               id="g314" /><g
               id="g318"><g
                 clip-path="url(#clipPath310)"
                 id="g316" /></g></g></g></g></mask><clipPath
       clipPathUnits="userSpaceOnUse"
       id="clipPath328"><path
         d="M 1,79 H 79 V 1 H 1 Z"
         id="path326"
         inkscape:connector-curvature="0" /></clipPath><clipPath
       clipPathUnits="userSpaceOnUse"
       id="clipPath332"><path
         d="M 39.999,1.975 C 11.57,1.975 1.976,11.57 1.976,40 c 0,28.429 9.594,38.024 38.023,38.024 28.43,0 38.024,-9.595 38.024,-38.024 0,-28.43 -9.594,-38.025 -38.024,-38.025 m 0,77.025 C 11.105,79 1,68.894 1,40 1,11.107 11.105,1 39.999,1 68.896,1 79,11.107 79,40 79,68.894 68.896,79 39.999,79"
         id="path330"
         inkscape:connector-curvature="0" /></clipPath><linearGradient
       x1="0"
       y1="0"
       x2="1"
       y2="0"
       gradientUnits="userSpaceOnUse"
       gradientTransform="matrix(0,-77.263527,-77.263527,0,40,78.75293)"
       spreadMethod="pad"
       id="linearGradient338"><stop
         style="stop-opacity:1;stop-color:#ffffff"
         offset="0"
         id="stop334" /><stop
         style="stop-opacity:1;stop-color:#231815"
         offset="1"
         id="stop336" /></linearGradient><mask
       maskUnits="userSpaceOnUse"
       x="0"
       y="0"
       width="1"
       height="1"
       id="mask340"><g
         id="g374"><g
           clip-path="url(#clipPath298)"
           id="g372"
           style="opacity:0.25"><g
             id="g370"><g
               id="g342" /><g
               id="g368"><g
                 clip-path="url(#clipPath302)"
                 id="g366"><g
                   id="g364"><g
                     id="g344" /><g
                     mask="url(#mask312)"
                     id="g362"><g
                       id="g346" /><g
                       id="g360"><g
                         clip-path="url(#clipPath328)"
                         id="g358"><g
                           id="g356"><g
                             clip-path="url(#clipPath332)"
                             id="g354"><g
                               id="g352"><g
                                 id="g350"><path
                                   d="M 39.999,1.975 C 11.57,1.975 1.976,11.57 1.976,40 c 0,28.429 9.594,38.024 38.023,38.024 28.43,0 38.024,-9.595 38.024,-38.024 0,-28.43 -9.594,-38.025 -38.024,-38.025 m 0,77.025 C 11.105,79 1,68.894 1,40 1,11.107 11.105,1 39.999,1 68.896,1 79,11.107 79,40 79,68.894 68.896,79 39.999,79"
                                   style="fill:url(#linearGradient338);stroke:none"
                                   id="path348"
                                   inkscape:connector-curvature="0" /></g></g></g></g></g></g></g></g></g></g></g></g></g></mask><clipPath
       clipPathUnits="userSpaceOnUse"
       id="clipPath382"><path
         d="M 1,79 H 79 V 1 H 1 Z"
         id="path380"
         inkscape:connector-curvature="0" /></clipPath><clipPath
       clipPathUnits="userSpaceOnUse"
       id="clipPath386"><path
         d="M 39.999,1.975 C 11.57,1.975 1.976,11.57 1.976,40 c 0,28.429 9.594,38.024 38.023,38.024 28.43,0 38.024,-9.595 38.024,-38.024 0,-28.43 -9.594,-38.025 -38.024,-38.025 m 0,77.025 C 11.105,79 1,68.894 1,40 1,11.107 11.105,1 39.999,1 68.896,1 79,11.107 79,40 79,68.894 68.896,79 39.999,79"
         id="path384"
         inkscape:connector-curvature="0" /></clipPath><linearGradient
       x1="0"
       y1="0"
       x2="1"
       y2="0"
       gradientUnits="userSpaceOnUse"
       gradientTransform="matrix(0,-77.263527,-77.263527,0,40,78.753128)"
       spreadMethod="pad"
       id="linearGradient392"><stop
         style="stop-opacity:1;stop-color:#ffffff"
         offset="0"
         id="stop388" /><stop
         style="stop-opacity:1;stop-color:#ffffff"
         offset="1"
         id="stop390" /></linearGradient></defs><sodipodi:namedview
     pagecolor="#ffffff"
     bordercolor="#666666"
     borderopacity="1"
     objecttolerance="10"
     gridtolerance="10"
     guidetolerance="10"
     inkscape:pageopacity="0"
     inkscape:pageshadow="2"
     inkscape:window-width="1366"
     inkscape:window-height="706"
     id="namedview4"
     showgrid="false"
     inkscape:zoom="2.2124999"
     inkscape:cx="53.333336"
     inkscape:cy="53.333336"
     inkscape:window-x="0"
     inkscape:window-y="34"
     inkscape:window-maximized="1"
     inkscape:current-layer="g10" /><g
     id="g10"
     inkscape:groupmode="layer"
     inkscape:label="meizu watch"
     transform="matrix(1.3333333,0,0,-1.3333333,0,106.66667)"><g
       id="g12"
       transform="matrix(0.97115387,0,0,0.97115387,1.2788462,1.2788448)"><g
         id="g14"
         clip-path="url(#clipPath18)"><g
           id="g20"><g
             id="g22"><path
               d="M 1,40 C 1,11.108 11.105,1 40,1 v 0 c 28.894,0 39,10.108 39,39 v 0 C 79,68.893 68.894,79 40,79 v 0 C 11.105,79 1,68.893 1,40"
               style="fill:url(#linearGradient30);stroke:none"
               id="path32"
               inkscape:connector-curvature="0" /></g></g></g></g><g
       id="g34"
       transform="matrix(0.97115387,0,0,0.97115387,1.2788462,1.2788448)"><g
         id="g36"
         clip-path="url(#clipPath40)"><g
           id="g42"><g
             id="g44"><path
               d="M 1,40 C 1,11.108 11.105,1 40,1 v 0 c 28.894,0 39,10.108 39,39 v 0 C 79,68.893 68.894,79 40,79 v 0 C 11.105,79 1,68.893 1,40"
               style="fill:url(#linearGradient52);stroke:none"
               id="path54"
               inkscape:connector-curvature="0" /></g></g></g></g><g
       id="g56"
       transform="matrix(0.97115387,0,0,0.97115387,1.2788462,1.2788448)"><g
         id="g58"
         clip-path="url(#clipPath62)"><g
           id="g64"><g
             id="g66" /><g
             id="g92"
             mask="url(#mask80)"><g
               id="g94"><path
                 d="M 48.5,62.406 29.833,57.833 20.166,45.417 24.175,24.176 30.467,17.884 29.978,17.487 46.276,1.189 c 22.098,1.349 31.186,10.437 32.535,32.533 v 0 L 50.039,62.493 Z"
                 style="fill:url(#linearGradient102);stroke:none"
                 id="path104"
                 inkscape:connector-curvature="0" /></g></g></g></g></g><g
       id="g106"
       transform="matrix(0.97115387,0,0,0.97115387,1.2788462,1.2788448)"><g
         id="g108"
         clip-path="url(#clipPath112)"><g
           id="g114"
           transform="translate(62.3799,40)"><path
             d="m 0,0 c 0,-6.44 -2.72,-12.24 -7.07,-16.31 -1.28,-1.22 -2.71,-2.28 -4.26,-3.15 l -0.552,-2.214 c -0.198,-0.797 -0.915,-1.356 -1.736,-1.356 h -17.526 c -0.82,0 -1.536,0.558 -1.735,1.354 -0.282,1.124 0.483,2.241 1.634,2.384 l 10.985,1.362 c 9.471,1.097 16.696,9.525 15.877,19.464 -0.701,8.502 -7.475,15.487 -15.956,16.414 C -31.234,19.14 -40.44,10.652 -40.44,0 c 0,-5.809 2.735,-10.964 6.988,-14.273 0.763,-0.593 1.055,-1.609 0.697,-2.507 -0.532,-1.335 -2.199,-1.792 -3.335,-0.911 -5.275,4.091 -8.67,10.496 -8.67,17.691 0,8.34 4.56,15.62 11.33,19.46 l 0.552,2.213 c 0.199,0.798 0.915,1.357 1.736,1.357 h 17.524 c 0.821,0 1.538,-0.559 1.736,-1.357 L -11.33,19.46 C -4.56,15.62 0,8.34 0,0"
             style="fill:#ffffff;fill-opacity:1;fill-rule:nonzero;stroke:none"
             id="path116"
             inkscape:connector-curvature="0" /></g></g></g><g
       id="g118"
       transform="matrix(0.97115387,0,0,0.97115387,1.2788462,1.2788448)"><g
         id="g120"
         clip-path="url(#clipPath124)"><g
           id="g126"><g
             id="g128" /><g
             id="g154"
             mask="url(#mask142)"><g
               id="g156"><path
                 d="m 38.613,37.493 12.502,-12.503 6.041,6.166 1.524,10.805 -7.37,7.37 z"
                 style="fill:url(#linearGradient164);stroke:none"
                 id="path166"
                 inkscape:connector-curvature="0" /></g></g></g></g></g><g
       id="g168"
       transform="matrix(0.97115387,0,0,0.97115387,1.2788462,1.2788448)"><g
         id="g170"
         clip-path="url(#clipPath174)"><g
           id="g176"
           transform="translate(51.3096,49.3306)"><path
             d="m 0,0 c -0.201,0.201 -0.538,0.205 -0.762,0 l -10.676,-9.811 -6.078,5.585 c -0.755,0.694 -1.829,-0.379 -1.134,-1.134 l 5.953,-6.477 c 0.681,-0.743 1.851,-0.742 2.532,10e-4 L 0,-0.761 C 0.205,-0.538 0.201,-0.202 0,0"
             style="fill:#ffffff;fill-opacity:1;fill-rule:nonzero;stroke:none"
             id="path178"
             inkscape:connector-curvature="0" /></g></g></g><g
       id="g180"
       transform="matrix(0.97115387,0,0,0.97115387,1.2788462,1.2788448)"><g
         id="g182"
         clip-path="url(#clipPath186)"><g
           id="g188"><g
             id="g190" /><g
             id="g260"
             mask="url(#mask232)"><g
               id="g262" /><g
               id="g290"><g
                 clip-path="url(#clipPath266)"
                 id="g288"
                 style="opacity:0.5"><g
                   id="g286"><g
                     clip-path="url(#clipPath270)"
                     id="g284"><g
                       id="g282"><g
                         id="g280"><path
                           d="M 78.977,40 C 78.977,11.107 68.877,1 40,1 11.123,1 1.023,11.107 1.023,40 1.023,68.894 11.123,79 40,79 68.877,79 78.977,68.894 78.977,40"
                           style="fill:url(#linearGradient276);stroke:none"
                           id="path278"
                           inkscape:connector-curvature="0" /></g></g></g></g></g></g></g></g><g
           id="g292"><g
             id="g294" /><g
             id="g376"
             mask="url(#mask340)"><g
               id="g378" /><g
               id="g406"><g
                 clip-path="url(#clipPath382)"
                 id="g404"
                 style="opacity:0.25"><g
                   id="g402"><g
                     clip-path="url(#clipPath386)"
                     id="g400"><g
                       id="g398"><g
                         id="g396"><path
                           d="M 39.999,1.975 C 11.57,1.975 1.976,11.57 1.976,40 c 0,28.429 9.594,38.024 38.023,38.024 28.43,0 38.024,-9.595 38.024,-38.024 0,-28.43 -9.594,-38.025 -38.024,-38.025 m 0,77.025 C 11.105,79 1,68.894 1,40 1,11.107 11.105,1 39.999,1 68.896,1 79,11.107 79,40 79,68.894 68.896,79 39.999,79"
                           style="fill:url(#linearGradient392);stroke:none"
                           id="path394"
                           inkscape:connector-curvature="0" /></g></g></g></g></g></g></g></g></g></g></g></svg>