<svg xmlns="http://www.w3.org/2000/svg" xmlns:xlink="http://www.w3.org/1999/xlink" width="192" height="192" viewBox="0 0 192 192">
  <defs>
    <style>
      .cls-1 {
        fill: none;
      }

      .cls-2 {
        opacity: 0.01;
      }

      .cls-2, .cls-3, .cls-4, .cls-5 {
        isolation: isolate;
      }

      .cls-3 {
        opacity: 0.02;
      }

      .cls-4 {
        opacity: 0.04;
      }

      .cls-5 {
        opacity: 0.06;
      }

      .cls-6 {
        fill: #646973;
      }

      .cls-7 {
        fill: url(#未命名的渐变_15);
      }

      .cls-8 {
        fill: url(#未命名的渐变_4);
      }

      .cls-9 {
        fill: #fafafa;
      }

      .cls-10 {
        fill: #fff;
      }

      .cls-11 {
        fill: url(#未命名的渐变_2);
      }

      .cls-12 {
        opacity: 0.06;
      }
    </style>
    <linearGradient id="未命名的渐变_15" data-name="未命名的渐变 15" x1="166.004" y1="27.998" x2="25.998" y2="168.004" gradientTransform="matrix(1, 0, 0, -1, 0, 194)" gradientUnits="userSpaceOnUse">
      <stop offset="0" stop-opacity="0.1"/>
      <stop offset="0.5" stop-color="gray" stop-opacity="0.05"/>
      <stop offset="1" stop-color="#fff" stop-opacity="0.12"/>
    </linearGradient>
    <linearGradient id="未命名的渐变_4" data-name="未命名的渐变 4" x1="166.003" y1="165.995" x2="55.504" y2="55.496" gradientUnits="userSpaceOnUse">
      <stop offset="0" stop-opacity="0.02"/>
      <stop offset="1" stop-opacity="0.12"/>
    </linearGradient>
    <linearGradient id="未命名的渐变_2" data-name="未命名的渐变 2" x1="166.012" y1="75.988" x2="25.987" y2="216.012" gradientTransform="matrix(1, 0, 0, -1, 0, 242)" gradientUnits="userSpaceOnUse">
      <stop offset="0" stop-opacity="0.04"/>
      <stop offset="0.5" stop-color="gray" stop-opacity="0"/>
      <stop offset="1" stop-color="#fff" stop-opacity="0.1"/>
    </linearGradient>
  </defs>
  <title>miui_scanner</title>
  <g id="图层_2" data-name="图层 2">
    <g id="图层_1-2" data-name="图层 1">
      <rect class="cls-1" width="192" height="192"/>
      <g>
        <path class="cls-2" d="M96,190C27.3,190,3,165.7,3,97S27.3,4,96,4s93,24.3,93,93S164.7,190,96,190Z"/>
        <path class="cls-3" d="M96,189C28.1,189,4,164.9,4,97S28.1,5,96,5s92,24.1,92,92S163.9,189,96,189Z"/>
        <path class="cls-4" d="M96,188C28.8,188,5,164.2,5,97S28.8,6,96,6s91,23.8,91,91S163.2,188,96,188Z"/>
        <path class="cls-5" d="M186,97c0,66.7-23.3,90-90,90S6,163.7,6,97,29.3,7,96,7,186,30.3,186,97Z"/>
      </g>
      <path class="cls-6" d="M186,96c0,66.7-23.3,90-90,90S6,162.7,6,96,29.3,6,96,6,186,29.3,186,96Z"/>
      <path class="cls-7" d="M186,96c0,66.67-23.32,90-90,90S6,162.67,6,96,29.32,6,96,6,186,29.32,186,96Z"/>
      <path class="cls-8" d="M57.391,116.338l-4.058,26.329L96.663,186c65.951-.155,89.182-23.4,89.333-89.349L139.453,50.1,58,53,50.5,75.5,68,93,44.263,99.737,82,137.473H78.527Z"/>
      <path class="cls-9" d="M138,77a5.006,5.006,0,0,1-5-5V59a3,3,0,0,0-3-3H62a3,3,0,0,0-3,3V72a5,5,0,0,1-10,0V59A13.015,13.015,0,0,1,62,46h68a13.015,13.015,0,0,1,13,13V72A5.006,5.006,0,0,1,138,77Zm-8,69a13.015,13.015,0,0,0,13-13V120a5,5,0,0,0-10,0v13a3,3,0,0,1-3,3H62a3,3,0,0,1-3-3V120a5,5,0,0,0-10,0v13a13.015,13.015,0,0,0,13,13Zm14.573-45c2.982,0,4.427-2.243,4.427-5s-1.445-5-4.427-5H47.427C44.445,91,43,93.243,43,96s1.445,5,4.427,5Z"/>
      <g>
        <path class="cls-10" d="M134.145,75.144A4.911,4.911,0,0,1,134,74V61a2.982,2.982,0,0,0-1.024-2.24c.006.081.024.158.024.24V72A4.945,4.945,0,0,0,134.145,75.144Z"/>
        <path class="cls-10" d="M50,74V61A13.015,13.015,0,0,1,63,48h68a12.989,12.989,0,0,1,11.088,6.249A13.01,13.01,0,0,0,130,46H62A13.015,13.015,0,0,0,49,59V72a4.945,4.945,0,0,0,1.145,3.144A4.911,4.911,0,0,1,50,74Z"/>
        <path class="cls-10" d="M138,115a5.006,5.006,0,0,0-5,5v13a3,3,0,0,1-3,3H62a2.976,2.976,0,0,1-1.976-.76A3,3,0,0,0,63,138h68a3,3,0,0,0,3-3V122a4.978,4.978,0,0,1,8.855-3.144A5,5,0,0,0,138,115Z"/>
        <path class="cls-10" d="M44,98c0-2.757,1.445-5,4.427-5h97.146a4.1,4.1,0,0,1,3.22,1.356A4.1,4.1,0,0,0,144.573,91H47.427C44.445,91,43,93.243,43,96a5.461,5.461,0,0,0,1.207,3.644A6.821,6.821,0,0,1,44,98Z"/>
        <path class="cls-10" d="M50,135V122a4.978,4.978,0,0,1,8.855-3.144A4.993,4.993,0,0,0,49,120v13a12.9,12.9,0,0,0,1.912,6.751A12.9,12.9,0,0,1,50,135Z"/>
      </g>
      <path class="cls-11" d="M96,6C29.3,6,6,29.3,6,96s23.3,90,90,90,90-23.3,90-90S162.7,6,96,6Zm68.6,158.6C151.2,178,130,184,96,184s-55.2-6-68.6-19.4S8,130,8,96s6-55.2,19.4-68.6S62,8,96,8s55.2,6,68.6,19.4S184,62,184,96,178,151.2,164.6,164.6Z"/>
      <path class="cls-12" d="M138,115a5.006,5.006,0,0,0-5,5v13a3,3,0,0,1-3,3H80.527l10,10H130a13.015,13.015,0,0,0,13-13V120A5.006,5.006,0,0,0,138,115Z"/>
    </g>
  </g>
</svg>
