<?xml version="1.0" encoding="UTF-8" standalone="no"?>
<!-- Created with Inkscape (http://www.inkscape.org/) -->

<svg
   xmlns:dc="http://purl.org/dc/elements/1.1/"
   xmlns:cc="http://creativecommons.org/ns#"
   xmlns:rdf="http://www.w3.org/1999/02/22-rdf-syntax-ns#"
   xmlns:svg="http://www.w3.org/2000/svg"
   xmlns="http://www.w3.org/2000/svg"
   xmlns:sodipodi="http://sodipodi.sourceforge.net/DTD/sodipodi-0.dtd"
   xmlns:inkscape="http://www.inkscape.org/namespaces/inkscape"
   version="1.1"
   id="svg2"
   xml:space="preserve"
   width="133.33333"
   height="133.33333"
   viewBox="0 0 133.33333 133.33333"
   sodipodi:docname="sailfishos-uithemer.svg"
   inkscape:version="0.92.2 2405546, 2018-03-11"><metadata
     id="metadata8"><rdf:RDF><cc:Work
         rdf:about=""><dc:format>image/svg+xml</dc:format><dc:type
           rdf:resource="http://purl.org/dc/dcmitype/StillImage" /><dc:title /></cc:Work></rdf:RDF></metadata><defs
     id="defs6"><clipPath
       clipPathUnits="userSpaceOnUse"
       id="clipPath18"><path
         d="M 50,100 C 12.956,100 0,87.039 0,50 v 0 C 0,12.961 12.956,0 50,0 v 0 c 37.045,0 50,12.961 50,50 v 0 c 0,37.044 -12.955,50 -50,50 z"
         id="path16"
         inkscape:connector-curvature="0" /></clipPath><linearGradient
       x1="0"
       y1="0"
       x2="1"
       y2="0"
       gradientUnits="userSpaceOnUse"
       gradientTransform="matrix(77.78125,-77.78125,-77.78125,-77.78125,11.109896,88.891144)"
       spreadMethod="pad"
       id="linearGradient30"><stop
         style="stop-opacity:1;stop-color:#fafafa"
         offset="0"
         id="stop24" /><stop
         style="stop-opacity:1;stop-color:#fafafa"
         offset="0.00000039"
         id="stop26" /><stop
         style="stop-opacity:1;stop-color:#d9d9d9"
         offset="1"
         id="stop28" /></linearGradient><clipPath
       clipPathUnits="userSpaceOnUse"
       id="clipPath40"><path
         d="M 0,100 H 100 V 0 H 0 Z"
         id="path38"
         inkscape:connector-curvature="0" /></clipPath><clipPath
       clipPathUnits="userSpaceOnUse"
       id="clipPath48"><path
         d="M 31.5593,100 H 76 V 64 H 31.5593 Z"
         id="path46"
         inkscape:connector-curvature="0" /></clipPath><clipPath
       clipPathUnits="userSpaceOnUse"
       id="clipPath52"><path
         d="M 76,96.6 C 69.107,98.949 60.529,100 50,100 43.023,100 36.902,99.539 31.559,98.545 V 64 H 76 Z"
         id="path50"
         inkscape:connector-curvature="0" /></clipPath><linearGradient
       x1="0"
       y1="0"
       x2="1"
       y2="0"
       gradientUnits="userSpaceOnUse"
       gradientTransform="matrix(0,-36,-36,0,53.779633,100)"
       spreadMethod="pad"
       id="linearGradient60"><stop
         style="stop-opacity:1;stop-color:#80efff"
         offset="0"
         id="stop54" /><stop
         style="stop-opacity:1;stop-color:#80efff"
         offset="0.00000063"
         id="stop56" /><stop
         style="stop-opacity:1;stop-color:#6296e6"
         offset="1"
         id="stop58" /></linearGradient><clipPath
       clipPathUnits="userSpaceOnUse"
       id="clipPath82"><path
         d="M 25.88,56.75 V 40.098 L 50.833,15.144 50.738,14.46 64.368,0.83 C 88.998,4 98.875,16.714 99.9,44.863 v 0 L 75.039,69.724 Z"
         id="path80"
         inkscape:connector-curvature="0" /></clipPath><clipPath
       clipPathUnits="userSpaceOnUse"
       id="clipPath90"><path
         d="M -32768,32767 H 32767 V -32768 H -32768 Z"
         id="path88"
         inkscape:connector-curvature="0" /></clipPath><linearGradient
       x1="0"
       y1="0"
       x2="1"
       y2="0"
       gradientUnits="userSpaceOnUse"
       gradientTransform="matrix(54.312168,-54.312168,-54.312168,-54.312168,37.055298,67.925354)"
       spreadMethod="pad"
       id="linearGradient98"><stop
         style="stop-opacity:0.11999695;stop-color:#ffffff"
         offset="0"
         id="stop92" /><stop
         style="stop-opacity:0.11999695;stop-color:#ffffff"
         offset="0.00000007"
         id="stop94" /><stop
         style="stop-opacity:0;stop-color:#ffffff"
         offset="1"
         id="stop96" /></linearGradient><mask
       maskUnits="userSpaceOnUse"
       x="0"
       y="0"
       width="1"
       height="1"
       id="mask100"><g
         id="g110"><g
           clip-path="url(#clipPath90)"
           id="g108"><g
             id="g106"><g
               id="g104"><path
                 d="M -32768,32767 H 32767 V -32768 H -32768 Z"
                 style="fill:url(#linearGradient98);stroke:none"
                 id="path102"
                 inkscape:connector-curvature="0" /></g></g></g></g></mask><linearGradient
       x1="0"
       y1="0"
       x2="1"
       y2="0"
       gradientUnits="userSpaceOnUse"
       gradientTransform="matrix(54.312168,-54.312168,-54.312168,-54.312168,37.055298,67.925354)"
       spreadMethod="pad"
       id="linearGradient122"><stop
         style="stop-opacity:1;stop-color:#000000"
         offset="0"
         id="stop116" /><stop
         style="stop-opacity:1;stop-color:#000000"
         offset="0.00000007"
         id="stop118" /><stop
         style="stop-opacity:1;stop-color:#000000"
         offset="1"
         id="stop120" /></linearGradient><clipPath
       clipPathUnits="userSpaceOnUse"
       id="clipPath132"><path
         d="m 34.852,70.692 c -1.818,0 -3.293,-1.475 -3.293,-3.293 v 0 -6.787 H 30.414 C 26.871,60.612 24,57.74 24,54.198 v 0 -9.564 c 0,-3.542 2.871,-6.414 6.414,-6.414 v 0 H 49.542 V 17.318 c 0,-2.214 1.795,-4.01 4.009,-4.01 v 0 c 2.214,0 4.008,1.796 4.008,4.01 v 0 20.902 c 0,2.151 -1.743,3.895 -3.893,3.895 v 0 H 30.37 c -1.367,0 -2.476,1.108 -2.476,2.475 v 0 9.65 c 0,1.369 1.109,2.478 2.476,2.478 v 0 h 1.189 v -6.786 c 0,-1.819 1.475,-3.293 3.293,-3.293 v 0 h 37.855 c 1.818,0 3.293,1.474 3.293,3.293 v 0 17.467 c 0,1.818 -1.475,3.293 -3.293,3.293 v 0 z"
         id="path130"
         inkscape:connector-curvature="0" /></clipPath><linearGradient
       x1="0"
       y1="0"
       x2="1"
       y2="0"
       gradientUnits="userSpaceOnUse"
       gradientTransform="matrix(39.553135,-39.553135,-39.553135,-39.553135,33.888538,71.092026)"
       spreadMethod="pad"
       id="linearGradient144"><stop
         style="stop-opacity:1;stop-color:#9eecf7"
         offset="0"
         id="stop138" /><stop
         style="stop-opacity:1;stop-color:#9eecf7"
         offset="0.00000052"
         id="stop140" /><stop
         style="stop-opacity:1;stop-color:#6296e6"
         offset="1"
         id="stop142" /></linearGradient></defs><sodipodi:namedview
     pagecolor="#ffffff"
     bordercolor="#666666"
     borderopacity="1"
     objecttolerance="10"
     gridtolerance="10"
     guidetolerance="10"
     inkscape:pageopacity="0"
     inkscape:pageshadow="2"
     inkscape:window-width="1366"
     inkscape:window-height="706"
     id="namedview4"
     showgrid="false"
     inkscape:zoom="1.7700001"
     inkscape:cx="66.666665"
     inkscape:cy="66.666665"
     inkscape:window-x="0"
     inkscape:window-y="34"
     inkscape:window-maximized="1"
     inkscape:current-layer="g10" /><g
     id="g10"
     inkscape:groupmode="layer"
     inkscape:label="sailfishos uithemer"
     transform="matrix(1.3333333,0,0,-1.3333333,0,133.33333)"><g
       id="g12"
       transform="matrix(0.93750002,0,0,0.93750002,3.0000001,3.0000014)"><g
         id="g14"
         clip-path="url(#clipPath18)"><g
           id="g20"><g
             id="g22"><path
               d="M 50,100 C 12.956,100 0,87.039 0,50 v 0 C 0,12.961 12.956,0 50,0 v 0 c 37.045,0 50,12.961 50,50 v 0 c 0,37.044 -12.955,50 -50,50 z"
               style="fill:url(#linearGradient30);stroke:none"
               id="path32"
               inkscape:connector-curvature="0" /></g></g></g></g><g
       id="g34"
       transform="matrix(0.93750002,0,0,0.93750002,3.0000001,3.0000014)"><g
         id="g36"
         clip-path="url(#clipPath40)"><g
           id="g42"><g
             id="g44" /><g
             id="g74"><g
               clip-path="url(#clipPath48)"
               id="g72"
               style="opacity:0.30000299"><g
                 id="g70"><g
                   clip-path="url(#clipPath52)"
                   id="g68"><g
                     id="g66"><g
                       id="g64"><path
                         d="M 76,96.6 C 69.107,98.949 60.529,100 50,100 43.023,100 36.902,99.539 31.559,98.545 V 64 H 76 Z"
                         style="fill:url(#linearGradient60);stroke:none"
                         id="path62"
                         inkscape:connector-curvature="0" /></g></g></g></g></g></g></g></g></g><g
       id="g76"
       transform="matrix(0.93750002,0,0,0.93750002,3.0000001,3.0000014)"><g
         id="g78"
         clip-path="url(#clipPath82)"><g
           id="g84"><g
             id="g86" /><g
             id="g112"
             mask="url(#mask100)"><g
               id="g114"><path
                 d="M 25.88,56.75 V 40.098 L 50.833,15.144 50.738,14.46 64.368,0.83 C 88.998,4 98.875,16.714 99.9,44.863 v 0 L 75.039,69.724 Z"
                 style="fill:url(#linearGradient122);stroke:none"
                 id="path124"
                 inkscape:connector-curvature="0" /></g></g></g></g></g><g
       id="g126"
       transform="matrix(0.93750002,0,0,0.93750002,3.0000001,3.0000014)"><g
         id="g128"
         clip-path="url(#clipPath132)"><g
           id="g134"><g
             id="g136"><path
               d="m 34.852,70.692 c -1.818,0 -3.293,-1.475 -3.293,-3.293 v 0 -6.787 H 30.414 C 26.871,60.612 24,57.74 24,54.198 v 0 -9.564 c 0,-3.542 2.871,-6.414 6.414,-6.414 v 0 H 49.542 V 17.318 c 0,-2.214 1.795,-4.01 4.009,-4.01 v 0 c 2.214,0 4.008,1.796 4.008,4.01 v 0 20.902 c 0,2.151 -1.743,3.895 -3.893,3.895 v 0 H 30.37 c -1.367,0 -2.476,1.108 -2.476,2.475 v 0 9.65 c 0,1.369 1.109,2.478 2.476,2.478 v 0 h 1.189 v -6.786 c 0,-1.819 1.475,-3.293 3.293,-3.293 v 0 h 37.855 c 1.818,0 3.293,1.474 3.293,3.293 v 0 17.467 c 0,1.818 -1.475,3.293 -3.293,3.293 v 0 z"
               style="fill:url(#linearGradient144);stroke:none"
               id="path146"
               inkscape:connector-curvature="0" /></g></g></g></g></g></svg>