<?xml version="1.0" encoding="UTF-8" standalone="no"?>
<svg
   xmlns:dc="http://purl.org/dc/elements/1.1/"
   xmlns:cc="http://creativecommons.org/ns#"
   xmlns:rdf="http://www.w3.org/1999/02/22-rdf-syntax-ns#"
   xmlns:svg="http://www.w3.org/2000/svg"
   xmlns="http://www.w3.org/2000/svg"
   xmlns:sodipodi="http://sodipodi.sourceforge.net/DTD/sodipodi-0.dtd"
   xmlns:inkscape="http://www.inkscape.org/namespaces/inkscape"
   viewBox="0 0 133.33333 133.33333"
   height="133.33333"
   width="133.33333"
   xml:space="preserve"
   id="svg2"
   version="1.1"
   sodipodi:docname="stellarium.svg"
   inkscape:version="0.92.2 2405546, 2018-03-11"><sodipodi:namedview
     pagecolor="#ffffff"
     bordercolor="#666666"
     borderopacity="1"
     objecttolerance="10"
     gridtolerance="10"
     guidetolerance="10"
     inkscape:pageopacity="0"
     inkscape:pageshadow="2"
     inkscape:window-width="1366"
     inkscape:window-height="706"
     id="namedview112"
     showgrid="false"
     inkscape:zoom="1.7700001"
     inkscape:cx="66.666664"
     inkscape:cy="66.666664"
     inkscape:window-x="0"
     inkscape:window-y="34"
     inkscape:window-maximized="1"
     inkscape:current-layer="svg2" /><metadata
     id="metadata8"><rdf:RDF><cc:Work
         rdf:about=""><dc:format>image/svg+xml</dc:format><dc:type
           rdf:resource="http://purl.org/dc/dcmitype/StillImage" /></cc:Work></rdf:RDF></metadata><defs
     id="defs6"><clipPath
       id="clipPath18"
       clipPathUnits="userSpaceOnUse"><path
         id="path16"
         d="M 50,100 C 12.956,100 0,87.039 0,50 v 0 C 0,12.961 12.956,0 50,0 v 0 c 37.045,0 50,12.961 50,50 v 0 c 0,37.044 -12.955,50 -50,50 z" /></clipPath><linearGradient
       id="linearGradient30"
       spreadMethod="pad"
       gradientTransform="matrix(77.78125,-77.78125,-77.78125,-77.78125,11.109896,88.891144)"
       gradientUnits="userSpaceOnUse"
       y2="0"
       x2="1"
       y1="0"
       x1="0"><stop
         id="stop24"
         offset="0"
         style="stop-opacity:1;stop-color:#6b6b6b" /><stop
         id="stop26"
         offset="1"
         style="stop-opacity:1;stop-color:#4f4f4f" /><stop
         id="stop28"
         offset="1"
         style="stop-opacity:1;stop-color:#4f4f4f" /></linearGradient><clipPath
       id="clipPath40"
       clipPathUnits="userSpaceOnUse"><path
         id="path38"
         d="M 50,50 20.846,20.846 41.417,0.275 C 44.127,0.095 46.975,0 50,0 v 0 c 37.045,0 50,12.961 50,50 v 0 c 0,3.017 -0.096,5.859 -0.274,8.562 v 0 L 79.144,79.144 Z" /></clipPath><clipPath
       id="clipPath48"
       clipPathUnits="userSpaceOnUse"><path
         id="path46"
         d="M -32768,32767 H 32767 V -32768 H -32768 Z" /></clipPath><linearGradient
       id="linearGradient58"
       spreadMethod="pad"
       gradientTransform="matrix(38.890621,-38.890621,-38.890621,-38.890621,49.995117,49.995117)"
       gradientUnits="userSpaceOnUse"
       y2="0"
       x2="1"
       y1="0"
       x1="0"><stop
         id="stop50"
         offset="0"
         style="stop-opacity:0.11999695;stop-color:#ffffff" /><stop
         id="stop52"
         offset="0.064957"
         style="stop-opacity:0.11999695;stop-color:#ffffff" /><stop
         id="stop54"
         offset="1"
         style="stop-opacity:0;stop-color:#ffffff" /><stop
         id="stop56"
         offset="1"
         style="stop-opacity:0;stop-color:#ffffff" /></linearGradient><mask
       id="mask60"
       height="1"
       width="1"
       y="0"
       x="0"
       maskUnits="userSpaceOnUse"><g
         id="g70"><g
           id="g68"
           clip-path="url(#clipPath48)"><g
             id="g66"><g
               id="g64"><path
                 id="path62"
                 style="fill:url(#linearGradient58);stroke:none"
                 d="M -32768,32767 H 32767 V -32768 H -32768 Z" /></g></g></g></g></mask><linearGradient
       id="linearGradient84"
       spreadMethod="pad"
       gradientTransform="matrix(38.890621,-38.890621,-38.890621,-38.890621,49.995117,49.995117)"
       gradientUnits="userSpaceOnUse"
       y2="0"
       x2="1"
       y1="0"
       x1="0"><stop
         id="stop76"
         offset="0"
         style="stop-opacity:1;stop-color:#000000" /><stop
         id="stop78"
         offset="0.064957"
         style="stop-opacity:1;stop-color:#000000" /><stop
         id="stop80"
         offset="1"
         style="stop-opacity:1;stop-color:#000000" /><stop
         id="stop82"
         offset="1"
         style="stop-opacity:1;stop-color:#000000" /></linearGradient><clipPath
       id="clipPath94"
       clipPathUnits="userSpaceOnUse"><path
         id="path92"
         d="M 12.5,50 C 12.5,22.221 22.217,12.5 50,12.5 v 0 c 27.783,0 37.5,9.721 37.5,37.5 v 0 c 0,27.783 -9.717,37.5 -37.5,37.5 v 0 C 22.217,87.5 12.5,77.779 12.5,50" /></clipPath><linearGradient
       id="linearGradient106"
       spreadMethod="pad"
       gradientTransform="matrix(-58.336719,-58.336719,-58.336719,58.336719,79.168747,79.168747)"
       gradientUnits="userSpaceOnUse"
       y2="0"
       x2="1"
       y1="0"
       x1="0"><stop
         id="stop100"
         offset="0"
         style="stop-opacity:1;stop-color:#352e52" /><stop
         id="stop102"
         offset="0.0649572"
         style="stop-opacity:1;stop-color:#352e52" /><stop
         id="stop104"
         offset="1"
         style="stop-opacity:1;stop-color:#d4ac8a" /></linearGradient><clipPath
       id="clipPath116"
       clipPathUnits="userSpaceOnUse"><path
         id="path114"
         d="M 45.425,24.049 30.97,14.898 C 36.059,13.244 42.339,12.5 50,12.5 v 0 c 21.383,0 32.057,5.769 35.844,21.089 v 0 c -2.127,0.215 -4.263,0.322 -6.396,0.322 v 0 c -11.864,0 -23.681,-3.314 -34.023,-9.862" /></clipPath><linearGradient
       id="linearGradient130"
       spreadMethod="pad"
       gradientTransform="matrix(0,-21.410562,-21.410562,0,58.406799,33.910564)"
       gradientUnits="userSpaceOnUse"
       y2="0"
       x2="1"
       y1="0"
       x1="0"><stop
         id="stop122"
         offset="0"
         style="stop-opacity:1;stop-color:#5a4e61" /><stop
         id="stop124"
         offset="0.00000049"
         style="stop-opacity:1;stop-color:#5a4e61" /><stop
         id="stop126"
         offset="0.613675"
         style="stop-opacity:1;stop-color:#937c99" /><stop
         id="stop128"
         offset="1"
         style="stop-opacity:1;stop-color:#937c99" /></linearGradient><clipPath
       id="clipPath140"
       clipPathUnits="userSpaceOnUse"><path
         id="path138"
         d="M 13.091,39.467 C 15.553,19.722 26.073,12.5 50,12.5 v 0 c 16.345,0 26.432,3.372 31.972,11.798 v 0 c -10.057,-0.114 -20.09,2.813 -28.293,8.441 v 0 c -8.121,5.572 -17.936,8.448 -27.717,8.448 v 0 c -4.347,0 -8.688,-0.568 -12.871,-1.72" /></clipPath><linearGradient
       id="linearGradient154"
       spreadMethod="pad"
       gradientTransform="matrix(0,-28.687202,-28.687202,0,47.531586,41.187202)"
       gradientUnits="userSpaceOnUse"
       y2="0"
       x2="1"
       y1="0"
       x1="0"><stop
         id="stop146"
         offset="0"
         style="stop-opacity:1;stop-color:#433357" /><stop
         id="stop148"
         offset="0.00000049"
         style="stop-opacity:1;stop-color:#433357" /><stop
         id="stop150"
         offset="1"
         style="stop-opacity:1;stop-color:#594f63" /><stop
         id="stop152"
         offset="1"
         style="stop-opacity:1;stop-color:#594f63" /></linearGradient><clipPath
       id="clipPath164"
       clipPathUnits="userSpaceOnUse"><path
         id="path162"
         d="M 76.167,67.875 74.75,54.062 62.312,47.5 51.63,50.431 80.16,21.901 C 85.342,27.843 87.5,36.918 87.5,50 v 0 c 0,3.581 -0.165,6.857 -0.506,9.856 v 0 L 74.112,72.737 Z" /></clipPath><clipPath
       id="clipPath172"
       clipPathUnits="userSpaceOnUse"><path
         id="path170"
         d="M -32768,32767 H 32767 V -32768 H -32768 Z" /></clipPath><linearGradient
       id="linearGradient182"
       spreadMethod="pad"
       gradientTransform="matrix(28.530241,-28.530241,-28.530241,-28.530241,62.827576,61.62793)"
       gradientUnits="userSpaceOnUse"
       y2="0"
       x2="1"
       y1="0"
       x1="0"><stop
         id="stop174"
         offset="0"
         style="stop-opacity:0.11999695;stop-color:#ffffff" /><stop
         id="stop176"
         offset="0.064957"
         style="stop-opacity:0.11999695;stop-color:#ffffff" /><stop
         id="stop178"
         offset="1"
         style="stop-opacity:0;stop-color:#ffffff" /><stop
         id="stop180"
         offset="1"
         style="stop-opacity:0;stop-color:#ffffff" /></linearGradient><mask
       id="mask184"
       height="1"
       width="1"
       y="0"
       x="0"
       maskUnits="userSpaceOnUse"><g
         id="g194"><g
           id="g192"
           clip-path="url(#clipPath172)"><g
             id="g190"><g
               id="g188"><path
                 id="path186"
                 style="fill:url(#linearGradient182);stroke:none"
                 d="M -32768,32767 H 32767 V -32768 H -32768 Z" /></g></g></g></g></mask><linearGradient
       id="linearGradient208"
       spreadMethod="pad"
       gradientTransform="matrix(28.530241,-28.530241,-28.530241,-28.530241,62.827576,61.62793)"
       gradientUnits="userSpaceOnUse"
       y2="0"
       x2="1"
       y1="0"
       x1="0"><stop
         id="stop200"
         offset="0"
         style="stop-opacity:1;stop-color:#000000" /><stop
         id="stop202"
         offset="0.064957"
         style="stop-opacity:1;stop-color:#000000" /><stop
         id="stop204"
         offset="1"
         style="stop-opacity:1;stop-color:#000000" /><stop
         id="stop206"
         offset="1"
         style="stop-opacity:1;stop-color:#000000" /></linearGradient><clipPath
       id="clipPath218"
       clipPathUnits="userSpaceOnUse"><path
         id="path216"
         d="M 0,100 H 100 V 0 H 0 Z" /></clipPath></defs><g
     transform="matrix(1.25,0,0,-1.25,4,129.33333)"
     id="g10"><g
       id="g12"><g
         clip-path="url(#clipPath18)"
         id="g14"><g
           id="g20"><g
             id="g22"><path
               id="path32"
               style="fill:url(#linearGradient30);stroke:none"
               d="M 50,100 C 12.956,100 0,87.039 0,50 v 0 C 0,12.961 12.956,0 50,0 v 0 c 37.045,0 50,12.961 50,50 v 0 c 0,37.044 -12.955,50 -50,50 z"
               inkscape:connector-curvature="0" /></g></g></g></g><g
       id="g34"><g
         clip-path="url(#clipPath40)"
         id="g36"><g
           id="g42"><g
             id="g44" /><g
             mask="url(#mask60)"
             id="g72"><g
               id="g74"><path
                 id="path86"
                 style="fill:url(#linearGradient84);stroke:none"
                 d="M 50,50 20.846,20.846 41.417,0.275 C 44.127,0.095 46.975,0 50,0 v 0 c 37.045,0 50,12.961 50,50 v 0 c 0,3.017 -0.096,5.859 -0.274,8.562 v 0 L 79.144,79.144 Z"
                 inkscape:connector-curvature="0" /></g></g></g></g></g><g
       id="g88"><g
         clip-path="url(#clipPath94)"
         id="g90"><g
           id="g96"><g
             id="g98"><path
               id="path108"
               style="fill:url(#linearGradient106);stroke:none"
               d="M 12.5,50 C 12.5,22.221 22.217,12.5 50,12.5 v 0 c 27.783,0 37.5,9.721 37.5,37.5 v 0 c 0,27.783 -9.717,37.5 -37.5,37.5 v 0 C 22.217,87.5 12.5,77.779 12.5,50"
               inkscape:connector-curvature="0" /></g></g></g></g><g
       id="g110"><g
         clip-path="url(#clipPath116)"
         id="g112"><g
           id="g118"><g
             id="g120"><path
               id="path132"
               style="fill:url(#linearGradient130);stroke:none"
               d="M 45.425,24.049 30.97,14.898 C 36.059,13.244 42.339,12.5 50,12.5 v 0 c 21.383,0 32.057,5.769 35.844,21.089 v 0 c -2.127,0.215 -4.263,0.322 -6.396,0.322 v 0 c -11.864,0 -23.681,-3.314 -34.023,-9.862"
               inkscape:connector-curvature="0" /></g></g></g></g><g
       id="g134"><g
         clip-path="url(#clipPath140)"
         id="g136"><g
           id="g142"><g
             id="g144"><path
               id="path156"
               style="fill:url(#linearGradient154);stroke:none"
               d="M 13.091,39.467 C 15.553,19.722 26.073,12.5 50,12.5 v 0 c 16.345,0 26.432,3.372 31.972,11.798 v 0 c -10.057,-0.114 -20.09,2.813 -28.293,8.441 v 0 c -8.121,5.572 -17.936,8.448 -27.717,8.448 v 0 c -4.347,0 -8.688,-0.568 -12.871,-1.72"
               inkscape:connector-curvature="0" /></g></g></g></g><g
       id="g158"><g
         clip-path="url(#clipPath164)"
         id="g160"><g
           id="g166"><g
             id="g168" /><g
             mask="url(#mask184)"
             id="g196"><g
               id="g198"><path
                 id="path210"
                 style="fill:url(#linearGradient208);stroke:none"
                 d="M 76.167,67.875 74.75,54.062 62.312,47.5 51.63,50.431 80.16,21.901 C 85.342,27.843 87.5,36.918 87.5,50 v 0 c 0,3.581 -0.165,6.857 -0.506,9.856 v 0 L 74.112,72.737 Z"
                 inkscape:connector-curvature="0" /></g></g></g></g></g><g
       id="g212"><g
         clip-path="url(#clipPath218)"
         id="g214"><g
           transform="translate(71.9492,74.5405)"
           id="g220"><path
             id="path222"
             style="fill:#ffffff;fill-opacity:1;fill-rule:nonzero;stroke:none"
             d="m 0,0 c 2.028,-2.664 3.247,-5.978 3.247,-9.584 0,-8.752 -7.096,-15.848 -15.848,-15.848 -3.351,0 -6.455,1.047 -9.015,2.822 2.895,-3.8 7.455,-6.264 12.6,-6.264 8.753,0 15.849,7.096 15.849,15.848 C 6.833,-7.625 4.126,-2.861 0,0"
             inkscape:connector-curvature="0" /></g></g></g></g></svg>