<?xml version="1.0" encoding="UTF-8" standalone="no"?>
<svg
   xmlns:dc="http://purl.org/dc/elements/1.1/"
   xmlns:cc="http://creativecommons.org/ns#"
   xmlns:rdf="http://www.w3.org/1999/02/22-rdf-syntax-ns#"
   xmlns:svg="http://www.w3.org/2000/svg"
   xmlns="http://www.w3.org/2000/svg"
   xmlns:sodipodi="http://sodipodi.sourceforge.net/DTD/sodipodi-0.dtd"
   xmlns:inkscape="http://www.inkscape.org/namespaces/inkscape"
   viewBox="0 0 133.33333 133.33333"
   height="133.33333"
   width="133.33333"
   xml:space="preserve"
   id="svg2"
   version="1.1"
   sodipodi:docname="Talefish.svg"
   inkscape:version="0.92.2 2405546, 2018-03-11"><sodipodi:namedview
     pagecolor="#ffffff"
     bordercolor="#666666"
     borderopacity="1"
     objecttolerance="10"
     gridtolerance="10"
     guidetolerance="10"
     inkscape:pageopacity="0"
     inkscape:pageshadow="2"
     inkscape:window-width="1366"
     inkscape:window-height="706"
     id="namedview65"
     showgrid="false"
     inkscape:zoom="1.7700001"
     inkscape:cx="66.666664"
     inkscape:cy="66.666664"
     inkscape:window-x="0"
     inkscape:window-y="34"
     inkscape:window-maximized="1"
     inkscape:current-layer="svg2" /><metadata
     id="metadata8"><rdf:RDF><cc:Work
         rdf:about=""><dc:format>image/svg+xml</dc:format><dc:type
           rdf:resource="http://purl.org/dc/dcmitype/StillImage" /></cc:Work></rdf:RDF></metadata><defs
     id="defs6"><clipPath
       id="clipPath18"
       clipPathUnits="userSpaceOnUse"><path
         id="path16"
         d="M 50,100 C 12.956,100 0,87.039 0,50 v 0 C 0,12.961 12.956,0 50,0 v 0 c 37.045,0 50,12.961 50,50 v 0 c 0,37.044 -12.955,50 -50,50 z" /></clipPath><linearGradient
       id="linearGradient32"
       spreadMethod="pad"
       gradientTransform="matrix(77.78125,-77.78125,-77.78125,-77.78125,11.109896,88.891144)"
       gradientUnits="userSpaceOnUse"
       y2="0"
       x2="1"
       y1="0"
       x1="0"><stop
         id="stop24"
         offset="0"
         style="stop-opacity:1;stop-color:#ffc0b2" /><stop
         id="stop26"
         offset="0.00000049"
         style="stop-opacity:1;stop-color:#ffc0b2" /><stop
         id="stop28"
         offset="1"
         style="stop-opacity:1;stop-color:#e67979" /><stop
         id="stop30"
         offset="1"
         style="stop-opacity:1;stop-color:#e67979" /></linearGradient><clipPath
       id="clipPath42"
       clipPathUnits="userSpaceOnUse"><path
         id="path40"
         d="M 0,100 H 100 V 0 H 0 Z" /></clipPath><clipPath
       id="clipPath50"
       clipPathUnits="userSpaceOnUse"><path
         id="path48"
         d="M 15.1667,84.8334 H 84.8333 V 15.1667 H 15.1667 Z" /></clipPath><clipPath
       id="clipPath66"
       clipPathUnits="userSpaceOnUse"><path
         id="path64"
         d="M 18.7797,81.2245 H 81.2202 V 18.7757 H 18.7797 Z" /></clipPath><clipPath
       id="clipPath86"
       clipPathUnits="userSpaceOnUse"><path
         id="path84"
         d="M 84.83,50 C 84.83,30.76 69.241,15.169 50,15.169 v 0 c -9.62,0 -18.33,3.901 -24.63,10.201 v 0 L 50.73,0.01 c 36.23,0.17 49.09,13.04 49.26,49.26 v 0 L 74.63,74.63 c 6.3,-6.3 10.2,-15.01 10.2,-24.63" /></clipPath><clipPath
       id="clipPath94"
       clipPathUnits="userSpaceOnUse"><path
         id="path92"
         d="M -32768,32767 H 32767 V -32768 H -32768 Z" /></clipPath><linearGradient
       id="linearGradient102"
       spreadMethod="pad"
       gradientTransform="matrix(38.88063,-38.88063,-38.88063,-38.88063,50,50)"
       gradientUnits="userSpaceOnUse"
       y2="0"
       x2="1"
       y1="0"
       x1="0"><stop
         id="stop96"
         offset="0"
         style="stop-opacity:0.07998779;stop-color:#ffffff" /><stop
         id="stop98"
         offset="0.00000038"
         style="stop-opacity:0.07998779;stop-color:#ffffff" /><stop
         id="stop100"
         offset="1"
         style="stop-opacity:0;stop-color:#ffffff" /></linearGradient><mask
       id="mask104"
       height="1"
       width="1"
       y="0"
       x="0"
       maskUnits="userSpaceOnUse"><g
         id="g114"><g
           id="g112"
           clip-path="url(#clipPath94)"><g
             id="g110"><g
               id="g108"><path
                 id="path106"
                 style="fill:url(#linearGradient102);stroke:none"
                 d="M -32768,32767 H 32767 V -32768 H -32768 Z" /></g></g></g></g></mask><linearGradient
       id="linearGradient126"
       spreadMethod="pad"
       gradientTransform="matrix(38.88063,-38.88063,-38.88063,-38.88063,50,50)"
       gradientUnits="userSpaceOnUse"
       y2="0"
       x2="1"
       y1="0"
       x1="0"><stop
         id="stop120"
         offset="0"
         style="stop-opacity:1;stop-color:#000000" /><stop
         id="stop122"
         offset="0.00000038"
         style="stop-opacity:1;stop-color:#000000" /><stop
         id="stop124"
         offset="1"
         style="stop-opacity:1;stop-color:#000000" /></linearGradient></defs><g
     transform="matrix(1.25,0,0,-1.25,4,129.33333)"
     id="g10"><g
       id="g12"><g
         clip-path="url(#clipPath18)"
         id="g14"><g
           id="g20"><g
             id="g22"><path
               id="path34"
               style="fill:url(#linearGradient32);stroke:none"
               d="M 50,100 C 12.956,100 0,87.039 0,50 v 0 C 0,12.961 12.956,0 50,0 v 0 c 37.045,0 50,12.961 50,50 v 0 c 0,37.044 -12.955,50 -50,50 z"
               inkscape:connector-curvature="0" /></g></g></g></g><g
       id="g36"><g
         clip-path="url(#clipPath42)"
         id="g38"><g
           id="g44"><g
             id="g46" /><g
             id="g58"><g
               style="opacity:0.80000299"
               id="g56"
               clip-path="url(#clipPath50)"><g
                 id="g54"
                 transform="translate(75.542,51.3374)"><path
                   id="path52"
                   style="fill:#c7291d;fill-opacity:1;fill-rule:nonzero;stroke:none"
                   d="M 0,0 H -0.006 C -1.138,-0.064 -2.104,0.763 -2.26,1.885 -2.374,2.708 -2.535,3.521 -2.74,4.324 -3.196,6.18 -3.882,7.97 -4.769,9.655 c -0.454,0.863 -0.386,1.948 0.304,2.637 1.056,1.051 2.774,0.774 3.44,-0.464 C -0.167,10.231 0.538,8.55 1.071,6.802 1.512,5.387 1.836,3.926 2.038,2.439 2.207,1.193 1.255,0.071 0,0 m -5.577,-20.728 c -1.224,-1.261 -2.566,-2.398 -3.999,-3.398 -1.223,-0.863 -2.518,-1.624 -3.87,-2.274 -1.131,-0.544 -2.49,0.021 -2.936,1.193 l -10e-4,0.002 c -0.403,1.061 0.087,2.234 1.107,2.73 0.744,0.362 1.466,0.765 2.168,1.2 1.643,1.022 3.156,2.239 4.501,3.636 0.893,0.93 2.41,0.936 3.274,-0.13 0.708,-0.874 0.539,-2.151 -0.244,-2.959 m -34.881,19.391 c 0,8.238 6.678,14.916 14.916,14.916 8.238,0 14.917,-6.678 14.917,-14.916 0,-8.239 -6.679,-14.917 -14.917,-14.917 -8.238,0 -14.916,6.678 -14.916,14.917 m 5.75,-23.871 -0.02,-0.051 c -0.447,-1.151 -1.771,-1.696 -2.874,-1.167 -1.673,0.802 -3.239,1.763 -4.683,2.865 -1.16,0.862 -2.241,1.815 -3.237,2.848 -0.777,0.804 -0.928,2.084 -0.222,2.951 0.867,1.062 2.382,1.054 3.275,0.124 0.572,-0.596 1.177,-1.16 1.816,-1.692 1.456,-1.233 3.08,-2.297 4.846,-3.152 1.021,-0.493 1.51,-1.67 1.099,-2.726 M -47.322,7.48 c -0.359,-0.877 -0.666,-1.789 -0.919,-2.735 -0.261,-0.974 -0.455,-1.948 -0.588,-2.919 -0.149,-1.09 -1.093,-1.888 -2.192,-1.831 l -0.054,0.003 c -1.258,0.065 -2.217,1.174 -2.046,2.411 0.159,1.153 0.39,2.307 0.697,3.457 0.169,0.628 0.356,1.25 0.58,1.853 0.475,1.403 1.056,2.743 1.732,4.017 0.536,1.01 1.795,1.487 2.835,1.011 1.179,-0.539 1.588,-1.922 1.001,-3.019 -0.386,-0.724 -0.736,-1.473 -1.046,-2.248 m 16.579,18.525 c 1.851,0.356 3.753,0.52 5.679,0.482 1.447,-0.018 2.905,-0.157 4.362,-0.416 1.125,-0.2 1.969,-1.248 1.84,-2.383 -0.147,-1.289 -1.336,-2.107 -2.561,-1.89 -0.822,0.146 -1.644,0.247 -2.466,0.306 -1.869,0.134 -3.726,0.042 -5.53,-0.261 -1.097,-0.184 -2.328,0.49 -2.741,1.523 -0.476,1.191 0.158,2.397 1.417,2.639 m 5.201,7.491 c -19.238,0 -34.833,-15.596 -34.833,-34.833 0,-19.239 15.595,-34.833 34.833,-34.833 19.238,0 34.833,15.594 34.833,34.833 0,19.237 -15.595,34.833 -34.833,34.833"
                   inkscape:connector-curvature="0" /></g></g></g></g><g
           id="g60"><g
             id="g62" /><g
             id="g78"><g
               style="opacity:0.30000299"
               id="g76"
               clip-path="url(#clipPath66)"><g
                 id="g70"
                 transform="translate(52.7217,38.0332)"><path
                   id="path68"
                   style="fill:#ffffff;fill-opacity:1;fill-rule:nonzero;stroke:none"
                   d="m 0,0 v 2.182 c 0,0.681 -0.345,1.025 -0.771,1.025 h -3.902 c -0.426,0 -0.771,-0.345 -0.771,-0.77 V 0.01 c 0,-0.596 -0.459,-0.917 -1.03,-0.748 -2.088,0.615 -3.91,1.708 -5.387,3.121 -0.378,0.362 -0.316,0.982 0.137,1.243 l 2.109,1.218 c 0.369,0.213 0.495,0.684 0.282,1.053 l -1.95,3.379 c -0.213,0.37 -0.685,0.495 -1.054,0.283 L -14.448,8.34 c -0.452,-0.261 -1.018,-0.005 -1.142,0.502 -0.487,1.986 -0.522,4.112 -0.011,6.228 0.14,0.579 0.645,0.817 1.161,0.52 l 1.883,-1.088 c 0.59,-0.341 1.061,-0.213 1.274,0.155 l 1.951,3.38 c 0.213,0.368 0.086,0.84 -0.282,1.053 l -2.107,1.216 c -0.454,0.262 -0.512,0.882 -0.133,1.243 1.526,1.452 3.379,2.522 5.4,3.118 0.502,0.148 1.01,-0.209 1.01,-0.733 v -2.182 c 0,-0.682 0.345,-1.025 0.771,-1.025 h 3.902 c 0.426,0 0.772,0.345 0.772,0.771 v 2.426 c 0,0.596 0.459,0.917 1.03,0.748 2.088,-0.616 3.91,-1.709 5.389,-3.123 0.376,-0.361 0.314,-0.98 -0.138,-1.24 L 4.171,19.089 C 3.803,18.876 3.676,18.405 3.889,18.036 L 5.84,14.657 c 0.213,-0.369 0.684,-0.495 1.054,-0.282 l 2.111,1.219 c 0.452,0.26 1.018,0.005 1.142,-0.502 0.487,-1.987 0.521,-4.112 0.011,-6.229 C 10.019,8.285 9.513,8.046 8.997,8.344 L 7.113,9.432 C 6.523,9.772 6.053,9.646 5.84,9.276 L 3.889,5.897 C 3.676,5.528 3.803,5.057 4.171,4.844 L 6.278,3.628 C 6.731,3.365 6.79,2.745 6.41,2.385 4.885,0.933 3.031,-0.138 1.011,-0.733 0.508,-0.881 0,-0.523 0,0 m 7.283,41.486 c -17.86,6.015 -36.851,-4.949 -40.572,-23.425 -3.067,-15.237 5.832,-30.652 20.562,-35.613 17.861,-6.016 36.853,4.948 40.573,23.425 3.067,15.237 -5.833,30.652 -20.563,35.613"
                   inkscape:connector-curvature="0" /></g><g
                 id="g74"
                 transform="translate(52.7217,38.0332)"><path
                   id="path72"
                   style="fill:none;stroke:#808080;stroke-width:0.1;stroke-linecap:butt;stroke-linejoin:miter;stroke-miterlimit:10;stroke-dasharray:none;stroke-opacity:1"
                   d="m 0,0 v 2.182 c 0,0.681 -0.345,1.025 -0.771,1.025 h -3.902 c -0.426,0 -0.771,-0.345 -0.771,-0.77 V 0.01 c 0,-0.596 -0.459,-0.917 -1.03,-0.748 -2.088,0.615 -3.91,1.708 -5.387,3.121 -0.378,0.362 -0.316,0.982 0.137,1.243 l 2.109,1.218 c 0.369,0.213 0.495,0.684 0.282,1.053 l -1.95,3.379 c -0.213,0.37 -0.685,0.495 -1.054,0.283 L -14.448,8.34 c -0.452,-0.261 -1.018,-0.005 -1.142,0.502 -0.487,1.986 -0.522,4.112 -0.011,6.228 0.14,0.579 0.645,0.817 1.161,0.52 l 1.883,-1.088 c 0.59,-0.341 1.061,-0.213 1.274,0.155 l 1.951,3.38 c 0.213,0.368 0.086,0.84 -0.282,1.053 l -2.107,1.216 c -0.454,0.262 -0.512,0.882 -0.133,1.243 1.526,1.452 3.379,2.522 5.4,3.118 0.502,0.148 1.01,-0.209 1.01,-0.733 v -2.182 c 0,-0.682 0.345,-1.025 0.771,-1.025 h 3.902 c 0.426,0 0.772,0.345 0.772,0.771 v 2.426 c 0,0.596 0.459,0.917 1.03,0.748 2.088,-0.616 3.91,-1.709 5.389,-3.123 0.376,-0.361 0.314,-0.98 -0.138,-1.24 L 4.171,19.089 C 3.803,18.876 3.676,18.405 3.889,18.036 L 5.84,14.657 c 0.213,-0.369 0.684,-0.495 1.054,-0.282 l 2.111,1.219 c 0.452,0.26 1.018,0.005 1.142,-0.502 0.487,-1.987 0.521,-4.112 0.011,-6.229 C 10.019,8.285 9.513,8.046 8.997,8.344 L 7.113,9.432 C 6.523,9.772 6.053,9.646 5.84,9.276 L 3.889,5.897 C 3.676,5.528 3.803,5.057 4.171,4.844 L 6.278,3.628 C 6.731,3.365 6.79,2.745 6.41,2.385 4.885,0.933 3.031,-0.138 1.011,-0.733 0.508,-0.881 0,-0.523 0,0 Z m 7.283,41.486 c -17.86,6.015 -36.851,-4.949 -40.572,-23.425 -3.067,-15.237 5.832,-30.652 20.562,-35.613 17.861,-6.016 36.853,4.948 40.573,23.425 3.067,15.237 -5.833,30.652 -20.563,35.613 z"
                   inkscape:connector-curvature="0" /></g></g></g></g></g></g><g
       id="g80"><g
         clip-path="url(#clipPath86)"
         id="g82"><g
           id="g88"><g
             id="g90" /><g
             mask="url(#mask104)"
             id="g116"><g
               id="g118"><path
                 id="path128"
                 style="fill:url(#linearGradient126);stroke:none"
                 d="M 84.83,50 C 84.83,30.76 69.241,15.169 50,15.169 v 0 c -9.62,0 -18.33,3.901 -24.63,10.201 v 0 L 50.73,0.01 c 36.23,0.17 49.09,13.04 49.26,49.26 v 0 L 74.63,74.63 c 6.3,-6.3 10.2,-15.01 10.2,-24.63"
                 inkscape:connector-curvature="0" /></g></g></g></g></g></g></svg>