<svg xmlns="http://www.w3.org/2000/svg" xmlns:xlink="http://www.w3.org/1999/xlink" width="192" height="192" viewBox="0 0 192 192">
  <defs>
    <style>
      .cls-1 {
        fill: none;
      }

      .cls-2 {
        opacity: 0.01;
      }

      .cls-2, .cls-3, .cls-4, .cls-5 {
        isolation: isolate;
      }

      .cls-3 {
        opacity: 0.02;
      }

      .cls-4 {
        opacity: 0.04;
      }

      .cls-5 {
        opacity: 0.06;
      }

      .cls-6 {
        fill: #505050;
      }

      .cls-7 {
        fill: url(#未命名的渐变_13);
      }

      .cls-8 {
        fill: url(#未命名的渐变_2);
      }

      .cls-9 {
        fill: url(#未命名的渐变_15);
      }

      .cls-10 {
        fill: #fafafa;
      }

      .cls-11 {
        fill: #fff;
      }
    </style>
    <linearGradient id="未命名的渐变_13" data-name="未命名的渐变 13" x1="166.004" y1="27.998" x2="25.998" y2="168.004" gradientTransform="matrix(1, 0, 0, -1, 0, 194)" gradientUnits="userSpaceOnUse">
      <stop offset="0" stop-opacity="0.1"/>
      <stop offset="0.5" stop-color="gray" stop-opacity="0.05"/>
      <stop offset="1" stop-color="#fff" stop-opacity="0.1"/>
    </linearGradient>
    <linearGradient id="未命名的渐变_2" data-name="未命名的渐变 2" x1="166.012" y1="75.988" x2="25.987" y2="216.012" gradientTransform="matrix(1, 0, 0, -1, 0, 242)" gradientUnits="userSpaceOnUse">
      <stop offset="0" stop-opacity="0.04"/>
      <stop offset="0.5" stop-color="gray" stop-opacity="0"/>
      <stop offset="1" stop-color="#fff" stop-opacity="0.1"/>
    </linearGradient>
    <linearGradient id="未命名的渐变_15" data-name="未命名的渐变 15" x1="157.988" y1="174.013" x2="57.627" y2="73.652" gradientUnits="userSpaceOnUse">
      <stop offset="0" stop-opacity="0.02"/>
      <stop offset="1" stop-opacity="0.12"/>
    </linearGradient>
  </defs>
  <title>neoterm</title>
  <g id="图层_2" data-name="图层 2">
    <g id="图层_1-2" data-name="图层 1">
      <rect class="cls-1" width="192" height="192"/>
      <g>
        <path class="cls-2" d="M96,190C27.3,190,3,165.7,3,97S27.3,4,96,4s93,24.3,93,93S164.7,190,96,190Z"/>
        <path class="cls-3" d="M96,189C28.1,189,4,164.9,4,97S28.1,5,96,5s92,24.1,92,92S163.9,189,96,189Z"/>
        <path class="cls-4" d="M96,188C28.8,188,5,164.2,5,97S28.8,6,96,6s91,23.8,91,91S163.2,188,96,188Z"/>
        <path class="cls-5" d="M186,97c0,66.7-23.3,90-90,90S6,163.7,6,97,29.3,7,96,7,186,30.3,186,97Z"/>
      </g>
      <path class="cls-6" d="M186,96c0,66.7-23.3,90-90,90S6,162.7,6,96,29.3,6,96,6,186,29.3,186,96Z"/>
      <path class="cls-7" d="M186,96c0,66.67-23.32,90-90,90S6,162.67,6,96,29.32,6,96,6,186,29.32,186,96Z"/>
      <path class="cls-8" d="M96,6C29.3,6,6,29.3,6,96s23.3,90,90,90,90-23.3,90-90S162.7,6,96,6Zm68.6,158.6C151.2,178,130,184,96,184s-55.2-6-68.6-19.4S8,130,8,96s6-55.2,19.4-68.6S62,8,96,8s55.2,6,68.6,19.4S184,62,184,96,178,151.2,164.6,164.6Z"/>
    </g>
    <g id="图层_4" data-name="图层 4">
      <path class="cls-9" d="M177.8,148.236,80.422,50.857,71,68,59,90l27,27-32.214-2.786L71.571,132v1.134L122.784,184.4C151.285,180.552,168.662,169.463,177.8,148.236Z"/>
      <path class="cls-10" d="M73.417,50h5.166A2.417,2.417,0,0,1,81,52.417V63.5a22.941,22.941,0,0,1,13.98,6.184,2.43,2.43,0,0,1,.272,3.38L90.868,78.3a2.42,2.42,0,0,1-3.02.559c-13.08-7.189-18.991-3.1-18.991.989C71,86.959,98.143,85.537,98.143,104.017,98.143,118.231,81,121.074,81,121.074v10.509A2.417,2.417,0,0,1,78.583,134H73.417A2.417,2.417,0,0,1,71,131.583V121.074c-8.576-1.219-14-4.006-17.623-7.016a2.426,2.426,0,0,1-.451-3.254l3.929-5.647a2.409,2.409,0,0,1,3.17-.717c9.82,5.573,22.491,7.67,23.832,1,0-8.529-32.857-7.107-29.285-28.43C55.286,68.479,65.286,64.215,71,63.5V52.417A2.417,2.417,0,0,1,73.417,50Zm64.166,83H102.417A2.417,2.417,0,0,0,100,135.417v7.166A2.417,2.417,0,0,0,102.417,145h35.166A2.417,2.417,0,0,0,140,142.583v-7.166A2.417,2.417,0,0,0,137.583,133Z"/>
      <g>
        <path class="cls-11" d="M82,65.5a22.906,22.906,0,0,1,13.8,6.03,2.447,2.447,0,0,0-.821-1.846A22.544,22.544,0,0,0,82,63.639Z"/>
        <path class="cls-11" d="M55.572,79.008C56.286,70.479,66.286,66.215,72,65.5V54.417A2.417,2.417,0,0,1,74.417,52h5.166A2.394,2.394,0,0,1,81,52.467v-.05A2.417,2.417,0,0,0,78.583,50H73.417A2.417,2.417,0,0,0,71,52.417V63.5c-5.714.711-15.714,4.975-16.428,13.5A14.511,14.511,0,0,0,56.245,87.3,15.318,15.318,0,0,1,55.572,79.008Z"/>
        <path class="cls-11" d="M69.878,81.443c-.013.136-.021.272-.021.408,1.784,5.916,20.873,5.933,27.229,16.424C92.548,86.929,74.6,86.16,69.878,81.443Z"/>
        <path class="cls-11" d="M53.926,112.8l3.929-5.647a2.409,2.409,0,0,1,3.17-.717c9.82,5.573,22.491,7.67,23.832,1a3.534,3.534,0,0,0-1.051-2.42,3.05,3.05,0,0,1,.051.42c-1.341,6.672-14.012,4.575-23.832-1a2.409,2.409,0,0,0-3.17.717L52.926,110.8a2.426,2.426,0,0,0,.451,3.254l.122.1A2.4,2.4,0,0,1,53.926,112.8Z"/>
        <path class="cls-11" d="M101,137.417A2.417,2.417,0,0,1,103.417,135h35.166a2.394,2.394,0,0,1,1.417.467v-.05A2.417,2.417,0,0,0,137.583,133H102.417A2.417,2.417,0,0,0,100,135.417v5.166a2.4,2.4,0,0,0,1,1.95Z"/>
        <path class="cls-11" d="M72,123.074c-.341-.048-.669-.1-1-.157v8.666a2.4,2.4,0,0,0,1,1.95Z"/>
      </g>
    </g>
  </g>
</svg>
