<svg xmlns="http://www.w3.org/2000/svg" xmlns:xlink="http://www.w3.org/1999/xlink" viewBox="0 0 192 192"><defs><style>.cls-1{fill:none;}.cls-2{opacity:0.01;}.cls-2,.cls-3,.cls-4,.cls-5{isolation:isolate;}.cls-3{opacity:0.02;}.cls-4{opacity:0.04;}.cls-5{opacity:0.06;}.cls-6{fill:#22a565;}.cls-7{fill:url(#未命名的渐变);}.cls-8{fill:url(#未命名的渐变_2);}.cls-9{fill:url(#未命名的渐变_3);}.cls-10{fill:url(#未命名的渐变_4);}.cls-11{fill:url(#未命名的渐变_5);}.cls-12{fill:#afe2c6;}.cls-13{opacity:0.4;}.cls-14{fill:#aee5c8;}.cls-15{opacity:0.1;}.cls-16{fill:#fff;}.cls-17{opacity:0.03;}.cls-18{opacity:0.05;}</style><linearGradient id="未命名的渐变" x1="166.01" y1="70.01" x2="25.99" y2="-70.01" gradientTransform="translate(0 96)" gradientUnits="userSpaceOnUse"><stop offset="0" stop-opacity="0.1"/><stop offset="0.5" stop-color="gray" stop-opacity="0.05"/><stop offset="1" stop-color="#fff" stop-opacity="0.12"/></linearGradient><linearGradient id="未命名的渐变_2" x1="-1278.65" y1="145.45" x2="-1158.04" y2="266.06" gradientTransform="translate(292.1 1324) rotate(90)" gradientUnits="userSpaceOnUse"><stop offset="0" stop-opacity="0.04"/><stop offset="0.24" stop-opacity="0"/></linearGradient><linearGradient id="未命名的渐变_3" x1="358.03" y1="113.86" x2="338.54" y2="133.36" gradientTransform="matrix(0, -1, -1, 0, 280.1, 384)" gradientUnits="userSpaceOnUse"><stop offset="0.5" stop-opacity="0.1"/><stop offset="1" stop-opacity="0.2"/></linearGradient><linearGradient id="未命名的渐变_4" x1="166.01" y1="70.01" x2="25.99" y2="-70.01" gradientTransform="translate(0 96)" gradientUnits="userSpaceOnUse"><stop offset="0" stop-opacity="0.05"/><stop offset="0.5" stop-color="gray" stop-opacity="0"/><stop offset="1" stop-color="#fff" stop-opacity="0.1"/></linearGradient><linearGradient id="未命名的渐变_5" x1="194.31" y1="64.48" x2="137.02" y2="7.18" gradientTransform="translate(0 48)" gradientUnits="userSpaceOnUse"><stop offset="0" stop-opacity="0.02"/><stop offset="1" stop-opacity="0.12"/></linearGradient></defs><title>google_sheets</title><g id="图层_2" data-name="图层 2"><g id="图层_1-2" data-name="图层 1"><rect class="cls-1" width="192" height="192"/><path class="cls-2" d="M96,190C27.3,190,3,165.7,3,97S27.3,4,96,4s93,24.3,93,93S164.7,190,96,190Z"/><path class="cls-3" d="M96,189C28.1,189,4,164.9,4,97S28.1,5,96,5s92,24.1,92,92S163.9,189,96,189Z"/><path class="cls-4" d="M96,188C28.8,188,5,164.2,5,97S28.8,6,96,6s91,23.8,91,91S163.2,188,96,188Z"/><path class="cls-5" d="M186,97c0,66.7-23.3,90-90,90S6,163.7,6,97,29.3,7,96,7,186,30.3,186,97Z"/><path class="cls-6" d="M186,96c0,66.7-23.3,90-90,90S6,162.7,6,96,29.3,6,96,6,186,29.3,186,96Z"/><path class="cls-7" d="M186,96c0,66.7-23.3,90-90,90S6,162.7,6,96,29.3,6,96,6,186,29.3,186,96Z"/><path class="cls-8" d="M186.1,96c0-4-.1-7.8-.3-11.5L107.5,6.2C103.9,6,100,5.9,96,5.9c-66.7,0-90,23.3-90,90S29.4,186,96.1,186,186.1,162.7,186.1,96Z"/><path class="cls-9" d="M107.5,6.2,186,84.7C183.5,30.2,161.9,8.7,107.5,6.2Z"/><path class="cls-10" d="M96,6C29.3,6,6,29.3,6,96s23.3,90,90,90,90-23.3,90-90S162.7,6,96,6Zm68.6,158.6C151.2,178,130,184,96,184s-55.2-6-68.6-19.4S8,130,8,96s6-55.2,19.4-68.6S62,8,96,8s55.2,6,68.6,19.4S184,62,184,96,178,151.2,164.6,164.6Z"/><path class="cls-11" d="M184.58,122.21A203.22,203.22,0,0,0,186.1,96c0-4-.1-7.8-.3-11.5l-39-39L127.29,64.91Z"/><path class="cls-12" d="M186,84.7,107.5,6.2C110,60.5,131.5,82.2,186,84.7Z"/><g class="cls-13"><path class="cls-14" d="M127,140H65a5,5,0,0,1-5-5V73a5,5,0,0,1,5-5h62a5,5,0,0,1,5,5v62A5,5,0,0,1,127,140ZM92,78H68V90H92Zm32,0H100V90h24ZM92,118H68v12H92Zm32,0H100v12h24ZM92,98H68v12H92Zm32,0H100v12h24Z"/><g class="cls-15"><polygon class="cls-16" points="98 106 100 106 100 98 122 98 122 94 98 94 98 106"/><polygon class="cls-16" points="98 126 100 126 100 118 122 118 122 114 98 114 98 126"/><polygon class="cls-16" points="98 86 100 86 100 78 122 78 122 74 98 74 98 86"/><polygon class="cls-16" points="66 86 68 86 68 78 90 78 90 74 66 74 66 86"/><path class="cls-16" d="M130,69v62a5,5,0,0,1-5,5H63a5,5,0,0,1-3-1h0a5,5,0,0,0,5,5h62a5,5,0,0,0,5-5V73A5,5,0,0,0,130,69Z"/><polygon class="cls-16" points="66 126 68 126 68 118 90 118 90 114 66 114 66 126"/><polygon class="cls-16" points="66 106 68 106 68 98 90 98 90 94 66 94 66 106"/></g><g class="cls-15"><polygon class="cls-16" points="67 88 68 88 68 78 91 78 91 76 67 76 67 88"/><polygon class="cls-16" points="99 108 100 108 100 98 123 98 123 96 99 96 99 108"/><polygon class="cls-16" points="99 88 100 88 100 78 123 78 123 76 99 76 99 88"/><polygon class="cls-16" points="99 128 100 128 100 118 123 118 123 116 99 116 99 128"/><path class="cls-16" d="M130.86,69.86A4.93,4.93,0,0,1,131,71v62a5,5,0,0,1-5,5H64a5,5,0,0,1-3.86-1.86A5,5,0,0,0,65,140h62a5,5,0,0,0,5-5V73A5,5,0,0,0,130.86,69.86Z"/><polygon class="cls-16" points="67 108 68 108 68 98 91 98 91 96 67 96 67 108"/><polygon class="cls-16" points="67 128 68 128 68 118 91 118 91 116 67 116 67 128"/></g><g class="cls-17"><polygon points="94 122 92 122 92 130 70 130 70 134 94 134 94 122"/><path d="M62,77a5,5,0,0,1,5-5h62a5,5,0,0,1,3,1h0a5,5,0,0,0-5-5H65a5,5,0,0,0-5,5v62a5,5,0,0,0,2,4Z"/><polygon points="94 102 92 102 92 110 70 110 70 114 94 114 94 102"/><polygon points="126 102 124 102 124 110 102 110 102 114 126 114 126 102"/><polygon points="94 82 92 82 92 90 70 90 70 94 94 94 94 82"/><polygon points="126 82 124 82 124 90 102 90 102 94 126 94 126 82"/><polygon points="126 122 124 122 124 130 102 130 102 134 126 134 126 122"/></g><g class="cls-18"><polygon points="93 100 92 100 92 110 69 110 69 112 93 112 93 100"/><polygon points="93 80 92 80 92 90 69 90 69 92 93 92 93 80"/><polygon points="93 120 92 120 92 130 69 130 69 132 93 132 93 120"/><path d="M61,137V75a5,5,0,0,1,5-5h62a5,5,0,0,1,3.86,1.86A5,5,0,0,0,127,68H65a5,5,0,0,0-5,5v62a5,5,0,0,0,1.14,3.14A4.93,4.93,0,0,1,61,137Z"/><polygon points="125 120 124 120 124 130 101 130 101 132 125 132 125 120"/><polygon points="125 80 124 80 124 90 101 90 101 92 125 92 125 80"/><polygon points="125 100 124 100 124 110 101 110 101 112 125 112 125 100"/></g></g></g></g></svg>