<svg xmlns="http://www.w3.org/2000/svg" xmlns:xlink="http://www.w3.org/1999/xlink" viewBox="0 0 192 192"><defs><style>.cls-1{fill:none;}.cls-2{opacity:0.01;}.cls-3{opacity:0.02;}.cls-4{opacity:0.04;}.cls-5{opacity:0.06;}.cls-6{fill:#25354c;}.cls-7{fill:url(#未命名的渐变_58);}.cls-8{fill:url(#未命名的渐变_61);}.cls-9{fill:url(#未命名的渐变_55);}.cls-10{fill:#fff;}.cls-11{fill:#65c1c2;}</style><linearGradient id="未命名的渐变_58" x1="166" y1="166" x2="26" y2="26" gradientUnits="userSpaceOnUse"><stop offset="0" stop-opacity="0.1"/><stop offset="0.5" stop-color="gray" stop-opacity="0.05"/><stop offset="1" stop-color="#fff" stop-opacity="0.1"/></linearGradient><linearGradient id="未命名的渐变_61" x1="166" y1="166" x2="26" y2="26" gradientUnits="userSpaceOnUse"><stop offset="0" stop-opacity="0.05"/><stop offset="0.5" stop-color="gray" stop-opacity="0"/><stop offset="1" stop-color="#fff" stop-opacity="0.08"/></linearGradient><linearGradient id="未命名的渐变_55" x1="165.79" y1="27.75" x2="88.74" y2="104.78" gradientTransform="matrix(1, 0, 0, -1, 0, 194)" gradientUnits="userSpaceOnUse"><stop offset="0" stop-opacity="0.06"/><stop offset="1" stop-opacity="0.24"/></linearGradient></defs><title>nokia_heremap</title><g id="图层_2" data-name="图层 2"><g id="图层_2-2" data-name="图层 2"><rect class="cls-1" width="192" height="192"/><path class="cls-2" d="M96,190C27.34,190,3,165.66,3,97S27.34,4,96,4s93,24.34,93,93S164.66,190,96,190Z"/><path class="cls-3" d="M96,189C28.07,189,4,164.92,4,97S28.07,5,96,5s92,24.07,92,92S163.93,189,96,189Z"/><path class="cls-4" d="M96,188C28.81,188,5,164.19,5,97S28.81,6,96,6s91,23.81,91,91S163.19,188,96,188Z"/><path class="cls-5" d="M186,97c0,66.67-23.32,90-90,90S6,163.67,6,97,29.32,7,96,7,186,30.32,186,97Z"/><path class="cls-6" d="M186,96c0,66.67-23.32,90-90,90S6,162.67,6,96,29.32,6,96,6,186,29.32,186,96Z"/><path class="cls-7" d="M186,96c0,66.67-23.32,90-90,90S6,162.67,6,96,29.32,6,96,6,186,29.32,186,96Z"/><path class="cls-8" d="M96,6C29.32,6,6,29.32,6,96s23.32,90,90,90,90-23.33,90-90S162.68,6,96,6Zm68.59,158.59C151.17,178,130,184,96,184s-55.17-6-68.59-19.41S8,130,8,96s6-55.17,19.41-68.59S62,8,96,8s55.17,6,68.59,19.41S184,62,184,96,178,151.16,164.59,164.59Z"/><path class="cls-9" d="M98.42,186c63.74-.56,86.8-23.31,87.56-86.68L143.56,56.89,129.5,54.08,122,58.77,109.81,71.89l-5.62,12.19L90.13,87.83l-4.69,15-10.31,1.88-3.75,5.63L75.13,131l.07.07L59.36,147Z"/><path id="_复合路径_" data-name=" 复合路径 " class="cls-10" d="M75.2,131,48.48,104.3l6.75-6.75,12.19,12.19a10,10,0,0,1,3.19-7.88c2.44-2.44,5.06-3.66,7.69-3.66a11.21,11.21,0,0,1,5.7,1.88,14.24,14.24,0,0,1-.94-4.41c-.19-3.94,1.41-7.69,4.78-11,2.91-2.91,6-4.41,9.38-4.41a12.07,12.07,0,0,1,4.5.94l-4.59-4.59,6.09-6.09,2.44,2.16a9.9,9.9,0,0,1,3.09-8.44,12.1,12.1,0,0,1,3.47-2.63l.47-.28L115,64v-.2c-.19-3.94,1.41-7.69,4.78-11,2.91-2.91,6-4.41,9.38-4.41,4,0,8.44,2.34,12.94,6.84l1.5,1.59-14,14a7.18,7.18,0,0,0,3.66,1,8,8,0,0,0,5.53-2.72,29.45,29.45,0,0,0,4.57-6.1l.37-.56,6.56,3.09-.28.66a28.39,28.39,0,0,1-6.19,9.66c-3.56,3.56-7.31,5.25-11.25,5.25h-.37q-6-.14-11.81-5.91a20.66,20.66,0,0,1-4.5-6.38c-.56.47-1.12.94-1.69,1.5-3.37,3.37-2.63,7.41,2.34,12.37l9.56,9.56L119.36,99l-1.12-1.12-.09.19a28.39,28.39,0,0,1-6.19,9.66c-3.56,3.56-7.31,5.25-11.25,5.25h-.28a12.38,12.38,0,0,1-3.66-.56l4.59,4.58-6.75,6.75L80.83,109.92a5,5,0,0,0-3.47-1.78,4.3,4.3,0,0,0-2.53,1.22c-1,1-3.94,3.94,2.63,10.59L88.7,131Zm22.5-28.29a8.34,8.34,0,0,0,3.66,1.12,8,8,0,0,0,5.53-2.72,29.45,29.45,0,0,0,4.59-6.19l.28-.56,5.34,2.53-6.75-6.75ZM96.58,88.46a4.27,4.27,0,0,0-3.19,1.78c-2.16,2.16-2.34,4.59-.56,7.41l7.5-7.5A13.53,13.53,0,0,0,96.58,88.46Zm31.87-31.78a4.27,4.27,0,0,0-3.19,1.78c-2.16,2.16-2.34,4.5-.56,7.41l7.5-7.59a10.32,10.32,0,0,0-3.75-1.59Z"/><polygon class="cls-11" points="75.2 131.02 43.45 131.02 59.36 146.93 75.2 131.02"/></g></g></svg>