<svg xmlns="http://www.w3.org/2000/svg" xmlns:xlink="http://www.w3.org/1999/xlink" viewBox="0 0 192 192"><defs><style>.cls-1{fill:none;}.cls-2{opacity:0.01;}.cls-3{opacity:0.02;}.cls-4{opacity:0.04;}.cls-5{opacity:0.06;}.cls-11,.cls-6{fill:#d24625;}.cls-7{fill:url(#未命名的渐变_8);}.cls-8{fill:url(#未命名的渐变_10);}.cls-9{fill:url(#未命名的渐变_5);}.cls-10{fill:#fff;}.cls-11{opacity:0.6;}.cls-12{fill:url(#未命名的渐变_179);}.cls-13{fill:url(#未命名的渐变_5-2);}</style><linearGradient id="未命名的渐变_8" x1="166" y1="166" x2="26" y2="26" gradientUnits="userSpaceOnUse"><stop offset="0" stop-opacity="0.12"/><stop offset="0.5" stop-color="gray" stop-opacity="0.05"/><stop offset="1" stop-color="#fff" stop-opacity="0.12"/></linearGradient><linearGradient id="未命名的渐变_10" x1="166" y1="166" x2="26" y2="26" gradientUnits="userSpaceOnUse"><stop offset="0" stop-opacity="0.05"/><stop offset="0.5" stop-color="gray" stop-opacity="0"/><stop offset="1" stop-color="#fff" stop-opacity="0.1"/></linearGradient><linearGradient id="未命名的渐变_5" x1="166" y1="166" x2="75" y2="75" gradientUnits="userSpaceOnUse"><stop offset="0" stop-opacity="0.06"/><stop offset="1" stop-opacity="0.18"/></linearGradient><linearGradient id="未命名的渐变_179" x1="104" y1="96" x2="150" y2="96" gradientUnits="userSpaceOnUse"><stop offset="0" stop-opacity="0.25"/><stop offset="0.4" stop-opacity="0"/></linearGradient><linearGradient id="未命名的渐变_5-2" x1="148" y1="132" x2="91" y2="75" xlink:href="#未命名的渐变_5"/></defs><title>microsoft_office_powerpoint</title><g id="图层_2" data-name="图层 2"><g id="图层_2-2" data-name="图层 2"><rect class="cls-1" width="192" height="192"/><path class="cls-2" d="M96,190C27.34,190,3,165.66,3,97S27.34,4,96,4s93,24.34,93,93S164.66,190,96,190Z"/><path class="cls-3" d="M96,189C28.07,189,4,164.92,4,97S28.07,5,96,5s92,24.07,92,92S163.93,189,96,189Z"/><path class="cls-4" d="M96,188C28.81,188,5,164.19,5,97S28.81,6,96,6s91,23.81,91,91S163.19,188,96,188Z"/><path class="cls-5" d="M186,97c0,66.67-23.32,90-90,90S6,163.67,6,97,29.32,7,96,7,186,30.32,186,97Z"/><path class="cls-6" d="M186,96c0,66.67-23.32,90-90,90S6,162.67,6,96,29.32,6,96,6,186,29.32,186,96Z"/><path class="cls-7" d="M186,96c0,66.67-23.32,90-90,90S6,162.67,6,96,29.32,6,96,6,186,29.32,186,96Z"/><path class="cls-8" d="M96,6C29.32,6,6,29.32,6,96s23.32,90,90,90,90-23.33,90-90S162.68,6,96,6Zm68.59,158.59C151.17,178,130,184,96,184s-55.17-6-68.59-19.41S8,130,8,96s6-55.17,19.41-68.59S62,8,96,8s55.17,6,68.59,19.41S184,62,184,96,178,151.16,164.59,164.59Z"/><path class="cls-9" d="M48,136l50,50c64.49-.46,87.54-23.52,88-88L150,62,133.27,75.27,104,46l-4.85,64.66L94,116l4.42,4.42L98,126Z"/><rect class="cls-10" x="104" y="62" width="46" height="68"/><rect class="cls-11" x="104" y="116" width="38" height="6"/><rect class="cls-11" x="104" y="106" width="38" height="6"/><path class="cls-11" d="M118,86h16a16,16,0,0,1-32,0h0a16,16,0,0,1,16-16Z"/><path class="cls-11" d="M120,68V84h16A16,16,0,0,0,120,68Z"/><path class="cls-10" d="M104,46V146L48,136V56ZM72,114.46V101h4a14.24,14.24,0,0,0,8.34-2.87C87,96,88.12,93,88.12,89c0-6.49-4.74-10.6-11.37-10.6L66,79.29v34.37ZM72,95V85.39l4.37-.3c3.11,0,5.86.41,5.86,4C82.23,93,79.06,95,75.91,95Z"/><rect class="cls-12" x="104" y="62" width="46" height="68"/><polygon class="cls-13" points="150 92 120 62 104 62 104 130 150 130 150 92"/></g></g></svg>