<svg xmlns="http://www.w3.org/2000/svg" xmlns:xlink="http://www.w3.org/1999/xlink" viewBox="0 0 192 192"><defs><style>.cls-1{fill:none;}.cls-2{opacity:0.01;}.cls-2,.cls-3,.cls-4,.cls-5{isolation:isolate;}.cls-3{opacity:0.02;}.cls-4{opacity:0.04;}.cls-5{opacity:0.06;}.cls-6{fill:#02bc1d;}.cls-7{fill:url(#未命名的渐变_3);}.cls-8{fill:url(#未命名的渐变_112);}.cls-9{fill:url(#未命名的渐变_20);}.cls-10{fill:#31d84d;opacity:0.6;}.cls-11{fill:#fafafa;}.cls-12{fill:url(#未命名的渐变_18);}.cls-13{fill:#fff;}</style><linearGradient id="未命名的渐变_3" x1="166" y1="188" x2="26" y2="328" gradientTransform="matrix(1, 0, 0, -1, 0, 354)" gradientUnits="userSpaceOnUse"><stop offset="0" stop-opacity="0.1"/><stop offset="0.5" stop-color="gray" stop-opacity="0.05"/><stop offset="1" stop-color="#fff" stop-opacity="0.12"/></linearGradient><linearGradient id="未命名的渐变_112" x1="166" y1="188" x2="25.99" y2="328" gradientTransform="matrix(1, 0, 0, -1, 0, 354)" gradientUnits="userSpaceOnUse"><stop offset="0" stop-opacity="0.05"/><stop offset="0.5" stop-color="gray" stop-opacity="0"/><stop offset="1" stop-color="#fff" stop-opacity="0.1"/></linearGradient><linearGradient id="未命名的渐变_20" x1="160.5" y1="171.5" x2="52" y2="63" gradientUnits="userSpaceOnUse"><stop offset="0" stop-opacity="0.02"/><stop offset="1" stop-opacity="0.18"/></linearGradient><linearGradient id="未命名的渐变_18" x1="127.77" y1="129.25" x2="74.82" y2="76.3" gradientUnits="userSpaceOnUse"><stop offset="0" stop-opacity="0.02"/><stop offset="1" stop-opacity="0.1"/></linearGradient></defs><title>whatsapp</title><g id="图层_2" data-name="图层 2"><g id="图层_2-2" data-name="图层 2"><rect class="cls-1" width="192" height="192"/><path class="cls-2" d="M96,190C27.34,190,3,165.66,3,97S27.34,4,96,4s93,24.34,93,93S164.66,190,96,190Z"/><path class="cls-3" d="M96,189C28.07,189,4,164.92,4,97S28.07,5,96,5s92,24.07,92,92S163.93,189,96,189Z"/><path class="cls-4" d="M96,188C28.81,188,5,164.19,5,97S28.81,6,96,6s91,23.81,91,91S163.19,188,96,188Z"/><path class="cls-5" d="M186,97c0,66.67-23.32,90-90,90S6,163.67,6,97,29.32,7,96,7,186,30.32,186,97Z"/><path class="cls-6" d="M186,96c0,66.67-23.32,90-90,90S6,162.67,6,96,29.32,6,96,6,186,29.32,186,96Z"/><path class="cls-7" d="M186,96c0,66.67-23.32,90-90,90S6,162.67,6,96,29.32,6,96,6,186,29.32,186,96Z"/><path class="cls-8" d="M96,6C29.32,6,6,29.32,6,96s23.32,90,90,90,90-23.33,90-90S162.68,6,96,6Zm68.59,158.59C151.17,178,130,184,96,184s-55.17-6-68.59-19.41S8,130,8,96s6-55.17,19.41-68.59S62,8,96,8s55.17,6,68.59,19.41S184,62,184,96,178,151.16,164.59,164.59Z"/><path class="cls-9" d="M139.5,53.5,96,42,51,64v52l-8.93,34.07,35.2,35.2c5.82.49,12.05.73,18.73.73,65.34,0,89-22.41,90-86Z"/><path class="cls-10" d="M143.87,90.47a46,46,0,1,0-86,26l2.34,4.16L56.86,134A.92.92,0,0,0,58,135.14l13.39-3.35,4.16,2.34a46,46,0,0,0,68.35-43.66Z"/><path class="cls-11" d="M156,95.82a58,58,0,0,1-86.33,48.77L44.82,150.8a3,3,0,0,1-3.61-3.61l6.21-24.82A58,58,0,1,1,156,95.82Zm-12.1-5.35a46,46,0,1,0-86,26l2.34,4.16L56.86,134A.92.92,0,0,0,58,135.14l13.39-3.35,4.16,2.34a46,46,0,0,0,68.35-43.66Z"/><path class="cls-12" d="M126,107l-3.31,1.31L82.75,68.38,81,91l3.49,15.35,30.36,30.45a46.26,46.26,0,0,0,22.29-18.66Z"/><path class="cls-11" d="M84.25,70.19c-1.13-2.82-2.26-2.26-3.16-2.26s-1.69-.11-2.71-.11a5.19,5.19,0,0,0-3.72,1.69A15.11,15.11,0,0,0,69.8,81c0,6.77,5,13.43,5.64,14.33S85,110.7,99.14,116.23s14.22,3.72,16.7,3.49,8.24-3.38,9.36-6.54,1.13-6,.79-6.55-1.24-.9-2.71-1.58-8.24-4.06-9.48-4.52-2.15-.68-3.16.68-3.61,4.51-4.4,5.41-1.58,1-3.05.34A37.58,37.58,0,0,1,92,100.09a44.25,44.25,0,0,1-7.67-9.59c-.79-1.35-.11-2.14.56-2.82a21.5,21.5,0,0,0,2-2.37A9.09,9.09,0,0,0,88.31,83a2.49,2.49,0,0,0-.11-2.37C88.2,79.78,85.38,72.9,84.25,70.19Z"/><path class="cls-13" d="M81.09,67.93c-.9,0-1.69-.11-2.71-.11a5.19,5.19,0,0,0-3.72,1.69A15.11,15.11,0,0,0,69.8,81a22.39,22.39,0,0,0,3,10.25,20.38,20.38,0,0,1-2-8.25,15.11,15.11,0,0,1,4.85-11.51,5.19,5.19,0,0,1,3.72-1.69c1,0,1.8.11,2.71.11.7,0,1.53-.33,2.4.82l-.23-.56C83.12,67.37,82,67.93,81.09,67.93Z"/><path class="cls-13" d="M60.17,120.79l0-.15-2.34-4.16c-.2-.36-.38-.74-.58-1.11.49,1.05,1,2.09,1.58,3.11Z"/><path class="cls-13" d="M123.29,105.05c-1.35-.68-8.24-4.06-9.48-4.52s-2.15-.68-3.16.68-3.61,4.51-4.4,5.41-1.58,1-3.05.34A37.58,37.58,0,0,1,92,100.09a43.92,43.92,0,0,1-7-8.51,2.48,2.48,0,0,0,.34.92A44.25,44.25,0,0,0,93,102.09,37.58,37.58,0,0,0,104.2,109c1.47.68,2.26.57,3.05-.34s3.49-4.06,4.4-5.41,1.92-1.13,3.16-.68,8.13,3.84,9.48,4.52c.81.37,1.43.65,1.9.91a3.15,3.15,0,0,0-.19-1.33C125.66,106.07,124.76,105.73,123.29,105.05Z"/><path class="cls-13" d="M41.08,93A58,58,0,0,1,150.25,68.83a58,58,0,1,0-103.68,52A57.81,57.81,0,0,1,41.08,93Z"/><path class="cls-13" d="M42.2,149.18l6.21-24.82q-.53-.94-1-1.91L41.2,147.18a3,3,0,0,0,.92,3A3,3,0,0,1,42.2,149.18Z"/><path class="cls-13" d="M59,137.14l13.39-3.35,4.16,2.34a46,46,0,0,0,68.35-43.66,45.4,45.4,0,0,0-5.16-17.85,45.36,45.36,0,0,1,4.16,15.85,46,46,0,0,1-68.35,43.66l-4.16-2.34-13.27,3.32-.23.92A.92.92,0,0,0,59,137.14Z"/></g></g></svg>