<svg xmlns="http://www.w3.org/2000/svg" xmlns:xlink="http://www.w3.org/1999/xlink" viewBox="0 0 192 192"><defs><style>.cls-1{fill:none;}.cls-2{opacity:0.01;}.cls-3{opacity:0.02;}.cls-4{opacity:0.04;}.cls-5{opacity:0.06;}.cls-6{fill:#ea5486;}.cls-7{fill:url(#未命名的渐变_28);}.cls-8{fill:url(#未命名的渐变_46);}.cls-9{fill:url(#未命名的渐变_5);}.cls-10{fill:#fff;}.cls-11{fill:url(#未命名的渐变_33);}.cls-12{opacity:0.03;}.cls-13{opacity:0.05;}.cls-14{fill:url(#未命名的渐变_33-2);}</style><linearGradient id="未命名的渐变_28" x1="166" y1="166" x2="26" y2="26" gradientUnits="userSpaceOnUse"><stop offset="0" stop-opacity="0.1"/><stop offset="0.5" stop-color="gray" stop-opacity="0.05"/><stop offset="1" stop-color="#fff" stop-opacity="0.12"/></linearGradient><linearGradient id="未命名的渐变_46" x1="166" y1="166" x2="26" y2="26" gradientUnits="userSpaceOnUse"><stop offset="0" stop-opacity="0.05"/><stop offset="0.5" stop-color="gray" stop-opacity="0"/><stop offset="1" stop-color="#fff" stop-opacity="0.1"/></linearGradient><linearGradient id="未命名的渐变_5" x1="165.01" y1="166.98" x2="82.02" y2="83.98" gradientUnits="userSpaceOnUse"><stop offset="0" stop-opacity="0.06"/><stop offset="1" stop-opacity="0.18"/></linearGradient><linearGradient id="未命名的渐变_33" x1="122" y1="142" x2="122" y2="136" gradientUnits="userSpaceOnUse"><stop offset="0.6" stop-opacity="0"/><stop offset="1" stop-opacity="0.1"/></linearGradient><linearGradient id="未命名的渐变_33-2" x1="70" x2="70" xlink:href="#未命名的渐变_33"/></defs><title>danmaku.bili</title><g id="图层_2" data-name="图层 2"><g id="图层_2-2" data-name="图层 2"><rect class="cls-1" width="192" height="192"/><path class="cls-2" d="M96,190C27.34,190,3,165.66,3,97S27.34,4,96,4s93,24.34,93,93S164.66,190,96,190Z"/><path class="cls-3" d="M96,189C28.07,189,4,164.92,4,97S28.07,5,96,5s92,24.07,92,92S163.93,189,96,189Z"/><path class="cls-4" d="M96,188C28.81,188,5,164.19,5,97S28.81,6,96,6s91,23.81,91,91S163.19,188,96,188Z"/><path class="cls-5" d="M186,97c0,66.67-23.32,90-90,90S6,163.67,6,97,29.32,7,96,7,186,30.32,186,97Z"/><path class="cls-6" d="M186,96c0,66.67-23.32,90-90,90S6,162.67,6,96,29.32,6,96,6,186,29.32,186,96Z"/><path class="cls-7" d="M186,96c0,66.67-23.32,90-90,90S6,162.67,6,96,29.32,6,96,6,186,29.32,186,96Z"/><path class="cls-8" d="M96,6C29.32,6,6,29.32,6,96s23.32,90,90,90,90-23.33,90-90S162.68,6,96,6Zm68.59,158.59C151.17,178,130,184,96,184s-55.17-6-68.59-19.41S8,130,8,96s6-55.17,19.41-68.59S62,8,96,8s55.17,6,68.59,19.41S184,62,184,96,178,151.16,164.59,164.59Z"/><path class="cls-9" d="M143.14,64.55l-1.87,1.18L121.53,46,119,47,48.73,131.27l54.63,54.63c57.36-1.62,79.89-22.93,82.39-78.73Z"/><path class="cls-10" d="M132,60H112.24l9.63-9.63c1.67-1.67,1.07-3-.1-4.15s-2.48-1.77-4.15-.1L103.76,60H88.24L74.37,46.13c-1.67-1.67-3-1.07-4.15.1s-1.77,2.48-.1,4.15L79.76,60H60A16,16,0,0,0,44,76v44a16,16,0,0,0,16,16h4a6,6,0,0,0,12,0h40a6,6,0,0,0,12,0h4a16,16,0,0,0,16-16V76A16,16,0,0,0,132,60Z"/><path class="cls-11" d="M128,136a6,6,0,0,1-12,0Z"/><rect class="cls-6" x="68" y="56" width="56" height="84" rx="6" ry="6" transform="translate(194 2) rotate(90)"/><path class="cls-12" d="M132,70H60a6.08,6.08,0,0,0-6,6v44a6.08,6.08,0,0,0,6,6h72a6.08,6.08,0,0,0,6-6V76A6.08,6.08,0,0,0,132,70Zm2,50a2.08,2.08,0,0,1-2,2H60a2.08,2.08,0,0,1-2-2V76a2.08,2.08,0,0,1,2-2h72a2.08,2.08,0,0,1,2,2Z"/><path class="cls-13" d="M56,122V78a6.08,6.08,0,0,1,6-6h72a5.87,5.87,0,0,1,3.1.9A6.06,6.06,0,0,0,132,70H60a6.08,6.08,0,0,0-6,6v44a6.06,6.06,0,0,0,2.9,5.1A5.87,5.87,0,0,1,56,122Z"/><polygon class="cls-13" points="86.93 85.8 65.41 90.37 67.07 97.2 88.59 92.63 86.93 85.8"/><polygon class="cls-13" points="130.59 90.37 109.07 85.8 107.41 92.63 128.93 97.2 130.59 90.37"/><path class="cls-13" d="M110.2,111.4a2,2,0,0,0-2.8.4c-1,1.33-2,2.2-3.4,2.2-3.22,0-4-4.16-4-4.34l0-.06a2,2,0,0,0-.06-.22c0-.05,0-.1-.05-.15a2,2,0,0,0-.11-.21l-.08-.13a2,2,0,0,0-.15-.19l-.09-.11-.18-.16-.11-.09-.2-.11-.15-.07-.18-.06-.2-.05-.06,0h-.67l-.06,0-.2.05-.18.06-.15.07-.2.11-.11.09-.18.16-.09.11a2,2,0,0,0-.15.19l-.08.13a2,2,0,0,0-.11.21s0,.1-.05.15a2,2,0,0,0-.06.22l0,.06c0,.18-.8,4.34-4,4.34-1.37,0-2.4-.87-3.4-2.2a2,2,0,0,0-3.2,2.4c.37.49,2.71,3.8,6.6,3.8a7.27,7.27,0,0,0,6-3.1,7.27,7.27,0,0,0,6,3.1c3.89,0,6.23-3.31,6.6-3.8A2,2,0,0,0,110.2,111.4Z"/><path class="cls-14" d="M76,136a6,6,0,0,1-12,0Z"/><polygon class="cls-10" points="84.93 83.8 63.41 88.37 65.07 95.2 86.59 90.63 84.93 83.8"/><polygon class="cls-10" points="128.59 88.37 107.07 83.8 105.41 90.63 126.93 95.2 128.59 88.37"/><path class="cls-10" d="M108.2,109.4a2,2,0,0,0-2.8.4c-1,1.33-2,2.2-3.4,2.2-3.22,0-4-4.16-4-4.34l0-.06a2,2,0,0,0-.06-.22c0-.05,0-.1-.05-.15a2,2,0,0,0-.11-.21l-.08-.13a2,2,0,0,0-.15-.19l-.09-.11-.18-.16-.11-.09-.2-.11-.15-.07-.18-.06-.2-.05-.06,0h-.67l-.06,0-.2.05-.18.06-.15.07-.2.11-.11.09-.18.16-.09.11a2,2,0,0,0-.15.19l-.08.13a2,2,0,0,0-.11.21s0,.1-.05.15a2,2,0,0,0-.06.22l0,.06c0,.18-.8,4.34-4,4.34-1.37,0-2.4-.87-3.4-2.2a2,2,0,0,0-3.2,2.4c.37.49,2.71,3.8,6.6,3.8a7.27,7.27,0,0,0,6-3.1,7.27,7.27,0,0,0,6,3.1c3.89,0,6.23-3.31,6.6-3.8A2,2,0,0,0,108.2,109.4Z"/></g></g></svg>