<svg xmlns="http://www.w3.org/2000/svg" xmlns:xlink="http://www.w3.org/1999/xlink" viewBox="0 0 192 192"><defs><style>.cls-1{fill:none;}.cls-2{opacity:0.01;}.cls-3{opacity:0.02;}.cls-4{opacity:0.04;}.cls-5{opacity:0.06;}.cls-6{fill:#f5f5f5;}.cls-7{fill:#ffde47;}.cls-8{fill:url(#未命名的渐变_116);}.cls-9{fill:#4889f4;}.cls-10{fill:#1da362;}.cls-11{fill:url(#未命名的渐变_136);}.cls-12{fill:url(#未命名的渐变_46);}.cls-13{fill:url(#未命名的渐变_144);}.cls-14{fill:#fff;}.cls-15{fill:#dc4a3d;}.cls-16{fill:#802c27;}</style><linearGradient id="未命名的渐变_116" x1="203.5" y1="127.12" x2="141.26" y2="64.88" gradientUnits="userSpaceOnUse"><stop offset="0" stop-opacity="0.02"/><stop offset="1" stop-opacity="0.18"/></linearGradient><linearGradient id="未命名的渐变_136" x1="166" y1="166" x2="26" y2="26" gradientUnits="userSpaceOnUse"><stop offset="0" stop-opacity="0.1"/><stop offset="0.5" stop-color="gray" stop-opacity="0.05"/><stop offset="1" stop-color="#fff" stop-opacity="0.16"/></linearGradient><linearGradient id="未命名的渐变_46" x1="166" y1="166" x2="26" y2="26" gradientUnits="userSpaceOnUse"><stop offset="0" stop-opacity="0.05"/><stop offset="0.5" stop-color="gray" stop-opacity="0"/><stop offset="1" stop-color="#fff" stop-opacity="0.1"/></linearGradient><linearGradient id="未命名的渐变_144" x1="85.73" y1="92.12" x2="48.8" y2="55.2" gradientUnits="userSpaceOnUse"><stop offset="0" stop-opacity="0.06"/><stop offset="1" stop-opacity="0.18"/></linearGradient></defs><title>google_map</title><g id="图层_2" data-name="图层 2"><g id="图层_2-2" data-name="图层 2"><rect class="cls-1" width="192" height="192"/><path class="cls-2" d="M96,190C27.34,190,3,165.66,3,97S27.34,4,96,4s93,24.34,93,93S164.66,190,96,190Z"/><path class="cls-3" d="M96,189C28.07,189,4,164.92,4,97S28.07,5,96,5s92,24.07,92,92S163.93,189,96,189Z"/><path class="cls-4" d="M96,188C28.81,188,5,164.19,5,97S28.81,6,96,6s91,23.81,91,91S163.19,188,96,188Z"/><path class="cls-5" d="M186,97c0,66.67-23.32,90-90,90S6,163.67,6,97,29.32,7,96,7,186,30.32,186,97Z"/><path class="cls-6" d="M186,96c0,66.67-23.32,90-90,90S6,162.67,6,96,29.32,6,96,6,186,29.32,186,96Z"/><path class="cls-7" d="M158.24,19.62,19.62,158.24a51.73,51.73,0,0,0,14.14,14.14L172.38,33.76A51.72,51.72,0,0,0,158.24,19.62Z"/><path class="cls-8" d="M186,96c0-27.8-4.06-48.06-13.62-62.24L110.14,96l62.24,62.24C181.94,144.06,186,123.8,186,96Z"/><path class="cls-9" d="M96,110.14,33.76,172.38C47.94,181.94,68.2,186,96,186c30.57,0,52-4.91,66.29-16.64q-1.94,1.59-4.05,3Z"/><path class="cls-10" d="M19.62,158.24,158.24,19.62C144.06,10.06,123.8,6,96,6,29.32,6,6,29.32,6,96c0,30.56,4.91,52,16.64,66.29Q21,160.35,19.62,158.24Z"/><path class="cls-11" d="M186,96c0,66.67-23.32,90-90,90S6,162.67,6,96,29.32,6,96,6,186,29.32,186,96Z"/><path class="cls-12" d="M96,6C29.32,6,6,29.32,6,96s23.32,90,90,90,90-23.33,90-90S162.68,6,96,6Zm68.59,158.59C151.17,178,130,184,96,184s-55.17-6-68.59-19.41S8,130,8,96s6-55.17,19.41-68.59S62,8,96,8s55.17,6,68.59,19.41S184,62,184,96,178,151.16,164.59,164.59Z"/><polygon class="cls-13" points="77.92 50.57 77 51 55 49 44 62 43.83 83.79 68.87 108.99 102.6 75.26 77.92 50.57"/><path class="cls-14" d="M60.74,92a24.72,24.72,0,0,1,0-49.45,22.82,22.82,0,0,1,16.63,6.81l.95.92-6.25,6.32-.87-.82a14.49,14.49,0,0,0-10.46-4.22c-8.53,0-15.21,6.9-15.21,15.72S52.2,83,60.73,83a13.93,13.93,0,0,0,10.7-4.31A11.11,11.11,0,0,0,74.22,73H59V64H83l.2,1.06a22.82,22.82,0,0,1,.33,4.09c0,3.71-.76,10.74-5.81,15.89C73.28,89.75,67.73,92,60.74,92Z"/><path class="cls-15" d="M158,59a24,24,0,0,0-48,0c0,6.63,2.69,13.63,7,18a70.75,70.75,0,0,1,9,17c1.43,4.23,5,17,6.43,24.05a1.6,1.6,0,0,0,3.08,0c1.46-7,5-19.83,6.43-24.05a70.75,70.75,0,0,1,9-17C155.31,72.63,158,65.63,158,59Z"/><circle class="cls-16" cx="134" cy="59" r="8"/></g></g></svg>