<svg xmlns="http://www.w3.org/2000/svg" xmlns:xlink="http://www.w3.org/1999/xlink" viewBox="0 0 192 192"><defs><style>.cls-1{fill:none;}.cls-2{opacity:0.01;}.cls-12,.cls-2,.cls-3,.cls-4,.cls-5{isolation:isolate;}.cls-3{opacity:0.02;}.cls-4{opacity:0.04;}.cls-5{opacity:0.06;}.cls-6{fill:#77329b;}.cls-7{fill:url(#未命名的渐变);}.cls-8{fill:url(#未命名的渐变_2);}.cls-9{fill:url(#未命名的渐变_5);}.cls-10{fill:#fff;}.cls-11{fill:#783097;opacity:0.6;}.cls-12{fill:#733781;opacity:0.3;}.cls-13{fill:url(#未命名的渐变_4);}.cls-14{fill:url(#未命名的渐变_5-2);}</style><linearGradient id="未命名的渐变" x1="166" y1="28" x2="26" y2="168" gradientTransform="matrix(1, 0, 0, -1, 0, 194)" gradientUnits="userSpaceOnUse"><stop offset="0" stop-opacity="0.12"/><stop offset="0.5" stop-color="gray" stop-opacity="0.05"/><stop offset="1" stop-color="#fff" stop-opacity="0.12"/></linearGradient><linearGradient id="未命名的渐变_2" x1="166" y1="28" x2="25.99" y2="168" gradientTransform="matrix(1, 0, 0, -1, 0, 194)" gradientUnits="userSpaceOnUse"><stop offset="0" stop-opacity="0.05"/><stop offset="0.5" stop-color="gray" stop-opacity="0"/><stop offset="1" stop-color="#fff" stop-opacity="0.1"/></linearGradient><linearGradient id="未命名的渐变_5" x1="165.01" y1="26.99" x2="74" y2="118" gradientTransform="matrix(1, 0, 0, -1, 0, 194)" gradientUnits="userSpaceOnUse"><stop offset="0" stop-opacity="0.06"/><stop offset="1" stop-opacity="0.18"/></linearGradient><linearGradient id="未命名的渐变_4" x1="104" y1="98" x2="148" y2="98" gradientTransform="matrix(1, 0, 0, -1, 0, 194)" gradientUnits="userSpaceOnUse"><stop offset="0" stop-opacity="0.25"/><stop offset="0.4" stop-opacity="0"/></linearGradient><linearGradient id="未命名的渐变_5-2" x1="145.5" y1="63.5" x2="89.5" y2="119.5" xlink:href="#未命名的渐变_5"/></defs><title>microsoft_office_onenote</title><g id="图层_2" data-name="图层 2"><g id="图层_1-2" data-name="图层 1"><rect class="cls-1" width="192" height="192"/><path class="cls-2" d="M96,190C27.34,190,3,165.66,3,97S27.34,4,96,4s93,24.34,93,93S164.66,190,96,190Z"/><path class="cls-3" d="M96,189C28.07,189,4,164.92,4,97S28.07,5,96,5s92,24.07,92,92S163.93,189,96,189Z"/><path class="cls-4" d="M96,188C28.81,188,5,164.19,5,97S28.81,6,96,6s91,23.81,91,91S163.19,188,96,188Z"/><path class="cls-5" d="M186,97c0,66.67-23.32,90-90,90S6,163.67,6,97,29.32,7,96,7,186,30.32,186,97Z"/><path class="cls-6" d="M186,96c0,66.67-23.32,90-90,90S6,162.67,6,96,29.32,6,96,6,186,29.32,186,96Z"/><path class="cls-7" d="M186,96c0,66.67-23.32,90-90,90S6,162.67,6,96,29.32,6,96,6,186,29.32,186,96Z"/><path class="cls-8" d="M96,6C29.32,6,6,29.32,6,96s23.32,90,90,90,90-23.33,90-90S162.68,6,96,6Zm68.59,158.59C151.17,178,130,184,96,184s-55.17-6-68.59-19.41S8,130,8,96s6-55.17,19.41-68.59S62,8,96,8s55.17,6,68.59,19.41S184,62,184,96,178,151.16,164.59,164.59Z"/><path class="cls-9" d="M148,64h-3.86l-.07.07L140,60,129,71,104,46l-4.85,64.66L94,116l4.42,4.42L98,126,48,136l50,50c63.16-.45,86.56-22.58,87.94-84.06Z"/><path class="cls-10" d="M148,64V84h-8v48H104V60h36v4Zm0,22h-6v20h6Zm0,22h-6v20h6Z"/><path class="cls-11" d="M132,84H104V78h28Zm0-16H104v6h28Zm0,20H104v6h28Zm0,30H104v6h28Zm0-10H104v6h28Zm0-10H104v6h28Z"/><path class="cls-12" d="M148,106h-6V86h6Zm0,2h-6v20h6Z"/><path class="cls-10" d="M104,46V146L48,136V56ZM88,115V77.06l-7,.8v23.08L68.83,79.38,62,80.17v32.58l6,.57V90.7l.33.62,12.43,22.84Z"/><path class="cls-13" d="M148,64V84h-8v48H104V60h36v4Zm0,22h-6v20h6Zm0,22h-6v20h6Z"/><path class="cls-14" d="M142,108h6v20h-6ZM118,60H104v72h36V84h2Zm24,26v20h6V90l-4-4Z"/></g></g></svg>