<?xml version="1.0" encoding="UTF-8" standalone="no"?>
<!-- Created with Inkscape (http://www.inkscape.org/) -->

<svg
   xmlns:dc="http://purl.org/dc/elements/1.1/"
   xmlns:cc="http://creativecommons.org/ns#"
   xmlns:rdf="http://www.w3.org/1999/02/22-rdf-syntax-ns#"
   xmlns:svg="http://www.w3.org/2000/svg"
   xmlns="http://www.w3.org/2000/svg"
   xmlns:sodipodi="http://sodipodi.sourceforge.net/DTD/sodipodi-0.dtd"
   xmlns:inkscape="http://www.inkscape.org/namespaces/inkscape"
   version="1.1"
   id="svg2"
   xml:space="preserve"
   width="106.66667"
   height="106.66667"
   viewBox="0 0 106.66667 106.66667"
   sodipodi:docname="blackberry browser.svg"
   inkscape:version="0.92.2 2405546, 2018-03-11"><metadata
     id="metadata8"><rdf:RDF><cc:Work
         rdf:about=""><dc:format>image/svg+xml</dc:format><dc:type
           rdf:resource="http://purl.org/dc/dcmitype/StillImage" /><dc:title></dc:title></cc:Work></rdf:RDF></metadata><defs
     id="defs6"><clipPath
       clipPathUnits="userSpaceOnUse"
       id="clipPath18"><path
         d="m 1,39.956 c 0,-28.892 10.105,-39 39,-39 v 0 c 28.894,0 39,10.108 39,39 v 0 c 0,28.894 -10.106,39 -39,39 v 0 c -28.895,0 -39,-10.106 -39,-39"
         id="path16"
         inkscape:connector-curvature="0" /></clipPath><linearGradient
       x1="0"
       y1="0"
       x2="1"
       y2="0"
       gradientUnits="userSpaceOnUse"
       gradientTransform="matrix(60.670349,-60.670349,-60.670349,-60.670349,9.6648254,70.291695)"
       spreadMethod="pad"
       id="linearGradient28"><stop
         style="stop-opacity:1;stop-color:#9edbff"
         offset="0"
         id="stop24" /><stop
         style="stop-opacity:1;stop-color:#529ed1"
         offset="1"
         id="stop26" /></linearGradient><clipPath
       clipPathUnits="userSpaceOnUse"
       id="clipPath38"><path
         d="M 40,39.956 21.063,24.969 18.192,19.043 36.208,1.026 C 37.438,0.985 38.694,0.956 40,0.956 v 0 c 27.354,0 37.863,9.07 38.907,34.552 v 0 L 57.228,57.185 Z"
         id="path36"
         inkscape:connector-curvature="0" /></clipPath><clipPath
       clipPathUnits="userSpaceOnUse"
       id="clipPath46"><path
         d="M -32768,32767 H 32767 V -32768 H -32768 Z"
         id="path44"
         inkscape:connector-curvature="0" /></clipPath><linearGradient
       x1="0"
       y1="0"
       x2="1"
       y2="0"
       gradientUnits="userSpaceOnUse"
       gradientTransform="matrix(32.305267,-32.305267,-32.305267,-32.305267,35.958923,39.865173)"
       spreadMethod="pad"
       id="linearGradient52"><stop
         style="stop-opacity:0.29999237;stop-color:#ffffff"
         offset="0"
         id="stop48" /><stop
         style="stop-opacity:0;stop-color:#ffffff"
         offset="1"
         id="stop50" /></linearGradient><mask
       maskUnits="userSpaceOnUse"
       x="0"
       y="0"
       width="1"
       height="1"
       id="mask54"><g
         id="g64"><g
           clip-path="url(#clipPath46)"
           id="g62"><g
             id="g60"><g
               id="g58"><path
                 d="M -32768,32767 H 32767 V -32768 H -32768 Z"
                 style="fill:url(#linearGradient52);stroke:none"
                 id="path56"
                 inkscape:connector-curvature="0" /></g></g></g></g></mask><linearGradient
       x1="0"
       y1="0"
       x2="1"
       y2="0"
       gradientUnits="userSpaceOnUse"
       gradientTransform="matrix(32.305267,-32.305267,-32.305267,-32.305267,35.958923,39.865173)"
       spreadMethod="pad"
       id="linearGradient74"><stop
         style="stop-opacity:1;stop-color:#000000"
         offset="0"
         id="stop70" /><stop
         style="stop-opacity:1;stop-color:#000000"
         offset="1"
         id="stop72" /></linearGradient><clipPath
       clipPathUnits="userSpaceOnUse"
       id="clipPath84"><path
         d="M 0,80 H 80 V 0 H 0 Z"
         id="path82"
         inkscape:connector-curvature="0" /></clipPath><clipPath
       clipPathUnits="userSpaceOnUse"
       id="clipPath96"><path
         d="M 15.625,39.956 C 15.625,26.494 26.538,15.581 40,15.581 v 0 c 13.462,0 24.375,10.913 24.375,24.375 v 0 C 64.375,53.419 53.462,64.331 40,64.331 v 0 c -13.462,0 -24.375,-10.912 -24.375,-24.375"
         id="path94"
         inkscape:connector-curvature="0" /></clipPath><linearGradient
       x1="0"
       y1="0"
       x2="1"
       y2="0"
       gradientUnits="userSpaceOnUse"
       gradientTransform="matrix(34.471455,-34.471455,-34.471455,-34.471455,22.764273,57.192055)"
       spreadMethod="pad"
       id="linearGradient108"><stop
         style="stop-opacity:1;stop-color:#219de6"
         offset="0"
         id="stop102" /><stop
         style="stop-opacity:1;stop-color:#219de6"
         offset="0.58496236"
         id="stop104" /><stop
         style="stop-opacity:1;stop-color:#0082ce"
         offset="1"
         id="stop106" /></linearGradient><clipPath
       clipPathUnits="userSpaceOnUse"
       id="clipPath118"><path
         d="M 0,80 H 80 V 0 H 0 Z"
         id="path116"
         inkscape:connector-curvature="0" /></clipPath><clipPath
       clipPathUnits="userSpaceOnUse"
       id="clipPath126"><path
         d="m 15.625,64.3314 h 48.75 v -48.75 h -48.75 z"
         id="path124"
         inkscape:connector-curvature="0" /></clipPath><clipPath
       clipPathUnits="userSpaceOnUse"
       id="clipPath142"><path
         d="M 20.911,24.808 C 25.376,19.189 32.265,15.581 40,15.581 v 0 c 1.179,0 2.336,0.089 3.471,0.251 v 0 l 1.619,0.285 c 4.375,0.93 8.315,3.033 11.478,5.966 v 0 L 39.83,38.821 Z"
         id="path140"
         inkscape:connector-curvature="0" /></clipPath><clipPath
       clipPathUnits="userSpaceOnUse"
       id="clipPath150"><path
         d="M -32768,32767 H 32767 V -32768 H -32768 Z"
         id="path148"
         inkscape:connector-curvature="0" /></clipPath><linearGradient
       x1="0"
       y1="0"
       x2="1"
       y2="0"
       gradientUnits="userSpaceOnUse"
       gradientTransform="matrix(19.190186,-19.190186,-19.190186,-19.190186,29.087734,32.984219)"
       spreadMethod="pad"
       id="linearGradient158"><stop
         style="stop-opacity:0.29999237;stop-color:#ffffff"
         offset="0"
         id="stop152" /><stop
         style="stop-opacity:0.29999237;stop-color:#ffffff"
         offset="0.276923"
         id="stop154" /><stop
         style="stop-opacity:0;stop-color:#ffffff"
         offset="1"
         id="stop156" /></linearGradient><mask
       maskUnits="userSpaceOnUse"
       x="0"
       y="0"
       width="1"
       height="1"
       id="mask160"><g
         id="g170"><g
           clip-path="url(#clipPath150)"
           id="g168"><g
             id="g166"><g
               id="g164"><path
                 d="M -32768,32767 H 32767 V -32768 H -32768 Z"
                 style="fill:url(#linearGradient158);stroke:none"
                 id="path162"
                 inkscape:connector-curvature="0" /></g></g></g></g></mask><linearGradient
       x1="0"
       y1="0"
       x2="1"
       y2="0"
       gradientUnits="userSpaceOnUse"
       gradientTransform="matrix(19.190186,-19.190186,-19.190186,-19.190186,29.087734,32.984219)"
       spreadMethod="pad"
       id="linearGradient182"><stop
         style="stop-opacity:1;stop-color:#000000"
         offset="0"
         id="stop176" /><stop
         style="stop-opacity:1;stop-color:#000000"
         offset="0.276923"
         id="stop178" /><stop
         style="stop-opacity:1;stop-color:#000000"
         offset="1"
         id="stop180" /></linearGradient><clipPath
       clipPathUnits="userSpaceOnUse"
       id="clipPath192"><path
         d="M 0,80 H 80 V 0 H 0 Z"
         id="path190"
         inkscape:connector-curvature="0" /></clipPath><clipPath
       clipPathUnits="userSpaceOnUse"
       id="clipPath204"><path
         d="M 0,80 H 80 V 0 H 0 Z"
         id="path202"
         inkscape:connector-curvature="0" /></clipPath><clipPath
       clipPathUnits="userSpaceOnUse"
       id="clipPath212"><path
         d="M 1.02344,79 H 78.9766 V 1 H 1.02344 Z"
         id="path210"
         inkscape:connector-curvature="0" /></clipPath><clipPath
       clipPathUnits="userSpaceOnUse"
       id="clipPath216"><path
         d="M 1.02344,79 H 78.9766 V 1 H 1.02344 Z"
         id="path214"
         inkscape:connector-curvature="0" /></clipPath><clipPath
       clipPathUnits="userSpaceOnUse"
       id="clipPath220"><path
         d="M 78.977,40 C 78.977,11.107 68.877,1 40,1 11.123,1 1.023,11.107 1.023,40 1.023,68.894 11.123,79 40,79 68.877,79 78.977,68.894 78.977,40"
         id="path218"
         inkscape:connector-curvature="0" /></clipPath><clipPath
       clipPathUnits="userSpaceOnUse"
       id="clipPath224"><path
         d="M -24534,24614 H 8232 V -8152 h -32766 z"
         id="path222"
         inkscape:connector-curvature="0" /></clipPath><clipPath
       clipPathUnits="userSpaceOnUse"
       id="clipPath228"><path
         d="M -24534,24614 H 8232 V -8152 h -32766 z"
         id="path226"
         inkscape:connector-curvature="0" /></clipPath><mask
       maskUnits="userSpaceOnUse"
       x="0"
       y="0"
       width="1"
       height="1"
       id="mask230"><g
         id="g242"><g
           clip-path="url(#clipPath224)"
           id="g240"><g
             id="g238"><g
               id="g232" /><g
               id="g236"><g
                 clip-path="url(#clipPath228)"
                 id="g234" /></g></g></g></g></mask><linearGradient
       x1="0"
       y1="0"
       x2="1"
       y2="0"
       gradientUnits="userSpaceOnUse"
       gradientTransform="matrix(0,-53.61993,-53.61993,0,40,74.818359)"
       spreadMethod="pad"
       id="linearGradient248"><stop
         style="stop-opacity:1;stop-color:#ffffff"
         offset="0"
         id="stop244" /><stop
         style="stop-opacity:1;stop-color:#e4e4e5"
         offset="1"
         id="stop246" /></linearGradient><mask
       maskUnits="userSpaceOnUse"
       x="0"
       y="0"
       width="1"
       height="1"
       id="mask250"><g
         id="g276"><g
           clip-path="url(#clipPath212)"
           id="g274"
           style="opacity:0.5"><g
             id="g272"><g
               id="g252" /><g
               id="g270"><g
                 clip-path="url(#clipPath216)"
                 id="g268"><g
                   id="g266"><g
                     clip-path="url(#clipPath220)"
                     id="g264"><g
                       id="g262"><g
                         id="g254" /><g
                         mask="url(#mask230)"
                         id="g260"><g
                           id="g258"><path
                             d="M 78.977,40 C 78.977,11.107 68.877,1 40,1 11.123,1 1.023,11.107 1.023,40 1.023,68.894 11.123,79 40,79 68.877,79 78.977,68.894 78.977,40"
                             style="fill:url(#linearGradient248);stroke:none"
                             id="path256"
                             inkscape:connector-curvature="0" /></g></g></g></g></g></g></g></g></g></g></mask><clipPath
       clipPathUnits="userSpaceOnUse"
       id="clipPath284"><path
         d="M 1.02344,79 H 78.9766 V 1 H 1.02344 Z"
         id="path282"
         inkscape:connector-curvature="0" /></clipPath><clipPath
       clipPathUnits="userSpaceOnUse"
       id="clipPath288"><path
         d="M 78.977,40 C 78.977,11.107 68.877,1 40,1 11.123,1 1.023,11.107 1.023,40 1.023,68.894 11.123,79 40,79 68.877,79 78.977,68.894 78.977,40"
         id="path286"
         inkscape:connector-curvature="0" /></clipPath><linearGradient
       x1="0"
       y1="0"
       x2="1"
       y2="0"
       gradientUnits="userSpaceOnUse"
       gradientTransform="matrix(0,-53.61993,-53.61993,0,40.000019,74.818184)"
       spreadMethod="pad"
       id="linearGradient294"><stop
         style="stop-opacity:1;stop-color:#ffffff"
         offset="0"
         id="stop290" /><stop
         style="stop-opacity:1;stop-color:#000000"
         offset="1"
         id="stop292" /></linearGradient><clipPath
       clipPathUnits="userSpaceOnUse"
       id="clipPath316"><path
         d="M 1,79 H 79 V 1 H 1 Z"
         id="path314"
         inkscape:connector-curvature="0" /></clipPath><clipPath
       clipPathUnits="userSpaceOnUse"
       id="clipPath320"><path
         d="M 1,79 H 79 V 1 H 1 Z"
         id="path318"
         inkscape:connector-curvature="0" /></clipPath><clipPath
       clipPathUnits="userSpaceOnUse"
       id="clipPath324"><path
         d="M -24534,24614 H 8232 V -8152 h -32766 z"
         id="path322"
         inkscape:connector-curvature="0" /></clipPath><clipPath
       clipPathUnits="userSpaceOnUse"
       id="clipPath328"><path
         d="M -24534,24614 H 8232 V -8152 h -32766 z"
         id="path326"
         inkscape:connector-curvature="0" /></clipPath><mask
       maskUnits="userSpaceOnUse"
       x="0"
       y="0"
       width="1"
       height="1"
       id="mask330"><g
         id="g342"><g
           clip-path="url(#clipPath324)"
           id="g340"><g
             id="g338"><g
               id="g332" /><g
               id="g336"><g
                 clip-path="url(#clipPath328)"
                 id="g334" /></g></g></g></g></mask><clipPath
       clipPathUnits="userSpaceOnUse"
       id="clipPath346"><path
         d="M 1,79 H 79 V 1 H 1 Z"
         id="path344"
         inkscape:connector-curvature="0" /></clipPath><clipPath
       clipPathUnits="userSpaceOnUse"
       id="clipPath350"><path
         d="M 39.999,1.975 C 11.57,1.975 1.976,11.57 1.976,40 c 0,28.429 9.594,38.024 38.023,38.024 28.43,0 38.024,-9.595 38.024,-38.024 0,-28.43 -9.594,-38.025 -38.024,-38.025 m 0,77.025 C 11.105,79 1,68.894 1,40 1,11.107 11.105,1 39.999,1 68.896,1 79,11.107 79,40 79,68.894 68.896,79 39.999,79"
         id="path348"
         inkscape:connector-curvature="0" /></clipPath><linearGradient
       x1="0"
       y1="0"
       x2="1"
       y2="0"
       gradientUnits="userSpaceOnUse"
       gradientTransform="matrix(0,-77.263527,-77.263527,0,40,78.75293)"
       spreadMethod="pad"
       id="linearGradient356"><stop
         style="stop-opacity:1;stop-color:#ffffff"
         offset="0"
         id="stop352" /><stop
         style="stop-opacity:1;stop-color:#231815"
         offset="1"
         id="stop354" /></linearGradient><mask
       maskUnits="userSpaceOnUse"
       x="0"
       y="0"
       width="1"
       height="1"
       id="mask358"><g
         id="g392"><g
           clip-path="url(#clipPath316)"
           id="g390"
           style="opacity:0.25"><g
             id="g388"><g
               id="g360" /><g
               id="g386"><g
                 clip-path="url(#clipPath320)"
                 id="g384"><g
                   id="g382"><g
                     id="g362" /><g
                     mask="url(#mask330)"
                     id="g380"><g
                       id="g364" /><g
                       id="g378"><g
                         clip-path="url(#clipPath346)"
                         id="g376"><g
                           id="g374"><g
                             clip-path="url(#clipPath350)"
                             id="g372"><g
                               id="g370"><g
                                 id="g368"><path
                                   d="M 39.999,1.975 C 11.57,1.975 1.976,11.57 1.976,40 c 0,28.429 9.594,38.024 38.023,38.024 28.43,0 38.024,-9.595 38.024,-38.024 0,-28.43 -9.594,-38.025 -38.024,-38.025 m 0,77.025 C 11.105,79 1,68.894 1,40 1,11.107 11.105,1 39.999,1 68.896,1 79,11.107 79,40 79,68.894 68.896,79 39.999,79"
                                   style="fill:url(#linearGradient356);stroke:none"
                                   id="path366"
                                   inkscape:connector-curvature="0" /></g></g></g></g></g></g></g></g></g></g></g></g></g></mask><clipPath
       clipPathUnits="userSpaceOnUse"
       id="clipPath400"><path
         d="M 1,79 H 79 V 1 H 1 Z"
         id="path398"
         inkscape:connector-curvature="0" /></clipPath><clipPath
       clipPathUnits="userSpaceOnUse"
       id="clipPath404"><path
         d="M 39.999,1.975 C 11.57,1.975 1.976,11.57 1.976,40 c 0,28.429 9.594,38.024 38.023,38.024 28.43,0 38.024,-9.595 38.024,-38.024 0,-28.43 -9.594,-38.025 -38.024,-38.025 m 0,77.025 C 11.105,79 1,68.894 1,40 1,11.107 11.105,1 39.999,1 68.896,1 79,11.107 79,40 79,68.894 68.896,79 39.999,79"
         id="path402"
         inkscape:connector-curvature="0" /></clipPath><linearGradient
       x1="0"
       y1="0"
       x2="1"
       y2="0"
       gradientUnits="userSpaceOnUse"
       gradientTransform="matrix(0,-77.263527,-77.263527,0,40,78.753128)"
       spreadMethod="pad"
       id="linearGradient410"><stop
         style="stop-opacity:1;stop-color:#ffffff"
         offset="0"
         id="stop406" /><stop
         style="stop-opacity:1;stop-color:#ffffff"
         offset="1"
         id="stop408" /></linearGradient></defs><sodipodi:namedview
     pagecolor="#ffffff"
     bordercolor="#666666"
     borderopacity="1"
     objecttolerance="10"
     gridtolerance="10"
     guidetolerance="10"
     inkscape:pageopacity="0"
     inkscape:pageshadow="2"
     inkscape:window-width="910"
     inkscape:window-height="480"
     id="namedview4"
     showgrid="false"
     inkscape:zoom="2.2124999"
     inkscape:cx="53.333336"
     inkscape:cy="53.333336"
     inkscape:window-x="0"
     inkscape:window-y="25"
     inkscape:window-maximized="0"
     inkscape:current-layer="g10" /><g
     id="g10"
     inkscape:groupmode="layer"
     inkscape:label="blackberry browser"
     transform="matrix(1.3333333,0,0,-1.3333333,0,106.66667)"><g
       id="g12"><g
         id="g14"
         clip-path="url(#clipPath18)"><g
           id="g20"><g
             id="g22"><path
               d="m 1,39.956 c 0,-28.892 10.105,-39 39,-39 v 0 c 28.894,0 39,10.108 39,39 v 0 c 0,28.894 -10.106,39 -39,39 v 0 c -28.895,0 -39,-10.106 -39,-39"
               style="fill:url(#linearGradient28);stroke:none"
               id="path30"
               inkscape:connector-curvature="0" /></g></g></g></g><g
       id="g32"><g
         id="g34"
         clip-path="url(#clipPath38)"><g
           id="g40"><g
             id="g42" /><g
             id="g66"
             mask="url(#mask54)"><g
               id="g68"><path
                 d="M 40,39.956 21.063,24.969 18.192,19.043 36.208,1.026 C 37.438,0.985 38.694,0.956 40,0.956 v 0 c 27.354,0 37.863,9.07 38.907,34.552 v 0 L 57.228,57.185 Z"
                 style="fill:url(#linearGradient74);stroke:none"
                 id="path76"
                 inkscape:connector-curvature="0" /></g></g></g></g></g><g
       id="g78"><g
         id="g80"
         clip-path="url(#clipPath84)"><g
           id="g86"
           transform="translate(22.9688,18.8984)"><path
             d="m 0,0 c -0.389,-0.094 -1.527,-0.228 -2.274,-0.048 -0.984,0.237 -1.601,0.652 -1.394,1.402 -0.63,-1.103 -0.34,-1.613 0.366,-2.085 0.349,-0.073 0.802,-0.144 1.333,-0.171 0.145,-0.008 0.291,-0.011 0.437,-0.009 1.033,0.008 2.055,0.247 3.017,0.621 0.424,0.166 0.767,0.315 1.135,0.485 0.566,0.264 1.33,0.65 2.211,1.177 C 4.564,1.501 4.298,1.629 4.031,1.758 3.327,1.423 2.674,1.035 1.859,0.666 1.256,0.394 0.643,0.154 0,0"
             style="fill:#546691;fill-opacity:1;fill-rule:nonzero;stroke:none"
             id="path88"
             inkscape:connector-curvature="0" /></g></g></g><g
       id="g90"><g
         id="g92"
         clip-path="url(#clipPath96)"><g
           id="g98"><g
             id="g100"><path
               d="M 15.625,39.956 C 15.625,26.494 26.538,15.581 40,15.581 v 0 c 13.462,0 24.375,10.913 24.375,24.375 v 0 C 64.375,53.419 53.462,64.331 40,64.331 v 0 c -13.462,0 -24.375,-10.912 -24.375,-24.375"
               style="fill:url(#linearGradient108);stroke:none"
               id="path110"
               inkscape:connector-curvature="0" /></g></g></g></g><g
       id="g112"><g
         id="g114"
         clip-path="url(#clipPath118)"><g
           id="g120"><g
             id="g122" /><g
             id="g134"><g
               clip-path="url(#clipPath126)"
               id="g132"
               style="opacity:0.14999402"><g
                 transform="translate(64.2871,37.96)"
                 id="g130"><path
                   d="M 0,0 C 0.053,0.659 0.088,1.324 0.088,1.997 0.088,2.476 0.07,2.95 0.043,3.422 0.034,3.569 0.021,3.714 0.01,3.859 -0.016,4.19 -0.045,4.52 -0.084,4.847 -0.102,5.006 -0.122,5.164 -0.144,5.322 -0.188,5.65 -0.241,5.976 -0.299,6.3 -0.323,6.436 -0.345,6.572 -0.371,6.707 -0.458,7.152 -0.555,7.594 -0.666,8.03 -0.668,8.036 -0.669,8.042 -0.67,8.049 c -0.117,0.457 -0.249,0.908 -0.392,1.354 -0.03,0.095 -0.064,0.189 -0.095,0.284 -0.115,0.345 -0.237,0.688 -0.366,1.026 -0.045,0.117 -0.091,0.232 -0.137,0.347 -0.133,0.33 -0.272,0.655 -0.418,0.978 -0.044,0.097 -0.086,0.194 -0.131,0.291 -0.192,0.409 -0.393,0.814 -0.606,1.211 l -10e-4,0.001 c -2.719,5.046 -7.166,9.019 -12.548,11.138 -1.741,0.685 -3.578,1.177 -5.489,1.447 h -10e-4 c -0.333,0.047 -0.667,0.091 -1.004,0.124 -0.007,0.001 -0.013,0.001 -0.019,0.002 -0.394,0.039 -0.788,0.069 -1.186,0.088 -0.406,0.021 -0.813,0.032 -1.224,0.032 -0.629,0 -1.249,-0.033 -1.865,-0.08 -0.006,0 -0.013,0 -0.018,0 0.001,0 0.002,0 0.003,0 -7.185,-0.549 -13.5,-4.206 -17.594,-9.637 l 1.044,-2.661 c 0.035,-0.091 0.036,-0.192 0.003,-0.284 l -0.437,-1.191 c -0.039,-0.106 -0.031,-0.224 0.021,-0.323 l 0.968,-1.843 h 0.937 l 0.679,-1.526 c 0.045,-0.103 0.045,-0.221 0,-0.324 l -0.205,-0.461 0.346,-0.843 0.641,-0.324 0.242,-0.063 0.11,-0.23 1.446,-1.405 c 0.008,-0.008 0.016,-0.016 0.024,-0.025 l 1.494,-1.731 c 0.051,-0.058 0.117,-0.101 0.191,-0.122 l 3.116,-0.907 c 0.041,-0.013 0.08,-0.031 0.116,-0.056 l 3.12,-2.157 c 0.123,-0.085 0.189,-0.233 0.169,-0.381 l -0.543,-4.029 c -0.005,-0.041 -0.004,-0.083 0.003,-0.123 l 0.565,-3.149 c 0.005,-0.026 0.012,-0.053 0.023,-0.078 l 1.872,-4.641 c 0.019,-0.047 0.029,-0.097 0.029,-0.149 v -1.256 l 0.276,-0.521 1.18,1.236 c 0.029,0.03 0.053,0.065 0.071,0.102 l 1.933,4.018 c 0.026,0.054 0.04,0.113 0.04,0.173 v 0.984 c 0,0.112 0.046,0.218 0.128,0.293 l 0.904,0.835 c 0.034,0.031 0.073,0.056 0.115,0.074 l 1.86,0.787 c 0.147,0.062 0.243,0.207 0.243,0.367 v 1.017 c 0,0.088 0.029,0.173 0.082,0.242 l 0.95,1.243 c 0.033,0.044 0.058,0.095 0.07,0.15 l 0.318,1.329 c 0.046,0.194 -0.058,0.392 -0.243,0.464 l -1.553,0.608 c -0.027,0.011 -0.053,0.024 -0.076,0.04 l -2.227,1.487 c -0.047,0.031 -0.087,0.072 -0.117,0.119 l -1.105,1.762 c -0.011,0.016 -0.022,0.032 -0.035,0.047 l -0.875,1.021 c -0.068,0.079 -0.164,0.128 -0.268,0.138 l -1.707,0.148 c -0.031,0.003 -0.063,0.002 -0.094,-0.003 L -29.508,4.294 C -29.527,4.292 -29.547,4.29 -29.567,4.29 h -1.52 c -0.022,0 -0.044,-0.002 -0.066,-0.005 l -0.968,-0.161 -0.5,1.166 -0.75,0.084 -0.5,1.166 -0.5,0.834 -0.083,1.083 -0.833,-0.667 -0.834,-0.416 -0.309,1.16 c -0.016,0.059 -0.018,0.121 -0.006,0.181 l 0.315,1.575 0.834,0.417 1.104,0.069 c 0.142,0.009 0.278,-0.059 0.357,-0.177 l 0.705,-1.059 0.084,-0.833 0.75,0.333 0.083,0.834 -0.07,1.118 c -0.008,0.134 0.052,0.263 0.159,0.344 l 1.161,0.871 0.417,0.75 v 0.917 l 1,0.083 0.666,-0.75 1.129,-0.353 c 0.128,-0.04 0.267,-0.013 0.371,0.072 l 0.689,0.564 c 0.041,0.033 0.074,0.073 0.099,0.12 l 0.479,0.889 c 0.043,0.081 0.113,0.144 0.198,0.179 l 0.869,0.362 0.75,-0.416 v 1.344 c 0,0.048 0.009,0.095 0.025,0.14 l 0.37,0.986 c 0.062,0.165 0.008,0.352 -0.134,0.459 l -0.761,0.571 h -0.584 l -0.666,0.75 h -0.917 l -1.167,-1.25 -0.923,-0.231 c -0.051,-0.013 -0.102,-0.016 -0.154,-0.009 l -1.089,0.156 v 0.834 l -0.834,0.5 0.934,0.622 c 0.044,0.029 0.093,0.049 0.145,0.059 l 2.505,0.485 0.833,-0.416 0.583,0.416 0.25,1.084 h 0.667 l 0.333,-0.667 h 0.917 l -0.333,1.917 -0.667,0.583 1.374,1.293 c 0.029,0.026 0.06,0.049 0.095,0.066 l 1.281,0.641 0.16,0.598 c 0.306,-0.087 0.603,-0.193 0.902,-0.292 l -0.552,-1.652 c -0.006,-0.02 -0.011,-0.039 -0.015,-0.059 l -0.245,-1.428 -0.458,-0.334 0.292,-0.458 0.916,-0.208 0.352,-0.375 v -0.875 l 0.398,-1.042 1.308,0.555 c 0.044,0.018 0.085,0.045 0.12,0.078 l 0.801,0.764 c 0.014,0.013 0.029,0.025 0.044,0.036 l 1.977,1.4 0.357,0.952 c 3.743,-2.594 6.594,-6.367 8.011,-10.794 L -8.887,11.018 C -8.903,11.005 -8.92,10.991 -8.935,10.975 l -0.632,-0.67 C -9.603,10.268 -9.63,10.224 -9.648,10.176 L -9.995,9.29 -11.037,8.665 -11.37,7.707 l 0.25,-1.375 -0.25,-0.833 0.833,-0.709 0.75,-0.541 0.333,-0.792 h 0.75 l 1.042,-1.208 h 0.56 C -8.648,-7.776 -17.289,-15.46 -27.747,-15.46 c -11.019,0 -20.027,8.527 -20.836,19.34 -0.047,-0.623 -0.079,-1.249 -0.079,-1.883 0,-13.463 10.913,-24.376 24.375,-24.376 12.733,0 23.18,9.766 24.274,22.214 C -0.008,-0.109 -0.005,-0.055 0,0"
                   style="fill:#000000;fill-opacity:1;fill-rule:nonzero;stroke:none"
                   id="path128"
                   inkscape:connector-curvature="0" /></g></g></g></g></g></g><g
       id="g136"><g
         id="g138"
         clip-path="url(#clipPath142)"><g
           id="g144"><g
             id="g146" /><g
             id="g172"
             mask="url(#mask160)"><g
               id="g174"><path
                 d="M 20.911,24.808 C 25.376,19.189 32.265,15.581 40,15.581 v 0 c 1.179,0 2.336,0.089 3.471,0.251 v 0 l 1.619,0.285 c 4.375,0.93 8.315,3.033 11.478,5.966 v 0 L 39.83,38.821 Z"
                 style="fill:url(#linearGradient182);stroke:none"
                 id="path184"
                 inkscape:connector-curvature="0" /></g></g></g></g></g><g
       id="g186"><g
         id="g188"
         clip-path="url(#clipPath192)"><g
           id="g194"
           transform="translate(39.8301,38.8203)"><path
             d="m 0,0 -0.56,-3.16 -1.75,-9.981 -3.15,0.561 1.39,7.92 c -1.91,-1.13 -3.5,-2.141 -4.65,-3 -2.87,-2.18 -6.71,-5.25 -10.19,-8.8 -0.61,-0.62 -1.03,-1.21 -1.33,-1.58 -0.11,-0.15 -0.41,-0.58 -0.43,-1.221 -0.01,-0.75 0.4,-1.269 0.51,-1.389 -0.547,0.137 -0.937,0.405 -1.313,0.72 -0.432,0.361 -0.745,0.906 -0.851,1.322 -0.156,0.612 -0.195,1.79 0.463,2.928 0.43,0.746 0.993,1.451 1.703,2.251 1.78,2.02 3.818,3.899 5.238,5.029 2,1.589 5.32,4.049 8.65,6.25 l -7.42,1.31 0.56,3.15 9.98,-1.76 z"
             style="fill:#ffffff;fill-opacity:1;fill-rule:nonzero;stroke:none"
             id="path196"
             inkscape:connector-curvature="0" /></g></g></g><g
       id="g198"><g
         id="g200"
         clip-path="url(#clipPath204)"><g
           id="g206"><g
             id="g208" /><g
             id="g278"
             mask="url(#mask250)"><g
               id="g280" /><g
               id="g308"><g
                 clip-path="url(#clipPath284)"
                 id="g306"
                 style="opacity:0.5"><g
                   id="g304"><g
                     clip-path="url(#clipPath288)"
                     id="g302"><g
                       id="g300"><g
                         id="g298"><path
                           d="M 78.977,40 C 78.977,11.107 68.877,1 40,1 11.123,1 1.023,11.107 1.023,40 1.023,68.894 11.123,79 40,79 68.877,79 78.977,68.894 78.977,40"
                           style="fill:url(#linearGradient294);stroke:none"
                           id="path296"
                           inkscape:connector-curvature="0" /></g></g></g></g></g></g></g></g><g
           id="g310"><g
             id="g312" /><g
             id="g394"
             mask="url(#mask358)"><g
               id="g396" /><g
               id="g424"><g
                 clip-path="url(#clipPath400)"
                 id="g422"
                 style="opacity:0.25"><g
                   id="g420"><g
                     clip-path="url(#clipPath404)"
                     id="g418"><g
                       id="g416"><g
                         id="g414"><path
                           d="M 39.999,1.975 C 11.57,1.975 1.976,11.57 1.976,40 c 0,28.429 9.594,38.024 38.023,38.024 28.43,0 38.024,-9.595 38.024,-38.024 0,-28.43 -9.594,-38.025 -38.024,-38.025 m 0,77.025 C 11.105,79 1,68.894 1,40 1,11.107 11.105,1 39.999,1 68.896,1 79,11.107 79,40 79,68.894 68.896,79 39.999,79"
                           style="fill:url(#linearGradient410);stroke:none"
                           id="path412"
                           inkscape:connector-curvature="0" /></g></g></g></g></g></g></g></g></g></g></g></svg>