<svg xmlns="http://www.w3.org/2000/svg" xmlns:xlink="http://www.w3.org/1999/xlink" width="192" height="192" viewBox="0 0 192 192"><defs><style>.cls-1,.cls-3,.cls-4,.cls-5,.cls-6{isolation:isolate;}.cls-2{fill:none;}.cls-3{opacity:0.01;}.cls-4{opacity:0.02;}.cls-5{opacity:0.04;}.cls-6{opacity:0.06;}.cls-7{fill:#ff507e;}.cls-8{fill:url(#未命名的渐变_2);}.cls-9{fill:#a322ff;opacity:0.2;}.cls-10{fill:#ffa910;opacity:0.15;}.cls-11{fill:url(#未命名的渐变_48);}.cls-12,.cls-13{mix-blend-mode:soft-light;}.cls-12{fill:url(#未命名的渐变_107);}.cls-13,.cls-14{fill:#fafafa;}.cls-13{opacity:0.5;}.cls-15{fill:#fff;}.cls-16{fill:url(#未命名的渐变_117);}</style><linearGradient id="未命名的渐变_2" x1="166.012" y1="75.988" x2="25.987" y2="216.012" gradientTransform="matrix(1, 0, 0, -1, 0, 242)" gradientUnits="userSpaceOnUse"><stop offset="0" stop-opacity="0.04"/><stop offset="0.5" stop-color="gray" stop-opacity="0"/><stop offset="1" stop-color="#fff" stop-opacity="0.1"/></linearGradient><linearGradient id="未命名的渐变_48" x1="166.004" y1="27.998" x2="25.998" y2="168.004" gradientTransform="matrix(1, 0, 0, -1, 0, 194)" gradientUnits="userSpaceOnUse"><stop offset="0" stop-opacity="0.1"/><stop offset="0.5" stop-color="gray" stop-opacity="0.05"/><stop offset="1" stop-color="#fff" stop-opacity="0.1"/></linearGradient><linearGradient id="未命名的渐变_107" x1="161.978" y1="170.027" x2="55.449" y2="63.497" gradientUnits="userSpaceOnUse"><stop offset="0" stop-opacity="0.1"/><stop offset="1" stop-opacity="0.3"/></linearGradient><linearGradient id="未命名的渐变_117" x1="90" y1="66" x2="112" y2="66" gradientUnits="userSpaceOnUse"><stop offset="0.8" stop-opacity="0"/><stop offset="1" stop-opacity="0.06"/></linearGradient></defs><title>samsung_app</title><g class="cls-1"><g id="图层_2" data-name="图层 2"><g id="图层_1-2" data-name="图层 1"><rect class="cls-2" width="192" height="192"/><path class="cls-3" d="M96,190C27.3,190,3,165.7,3,97S27.3,4,96,4s93,24.3,93,93S164.7,190,96,190Z"/><path class="cls-4" d="M96,189C28.1,189,4,164.9,4,97S28.1,5,96,5s92,24.1,92,92S163.9,189,96,189Z"/><path class="cls-5" d="M96,188C28.8,188,5,164.2,5,97S28.8,6,96,6s91,23.8,91,91S163.2,188,96,188Z"/><path class="cls-6" d="M186,97c0,66.7-23.3,90-90,90S6,163.7,6,97,29.3,7,96,7,186,30.3,186,97Z"/><path class="cls-7" d="M6,96c0,66.7,23.3,90,90,90s90-23.3,90-90S162.7,6,96,6,6,29.3,6,96Z"/><path class="cls-8" d="M96,6C29.3,6,6,29.3,6,96s23.3,90,90,90,90-23.3,90-90S162.7,6,96,6Zm68.6,158.6C151.2,178,130,184,96,184s-55.2-6-68.6-19.4S8,130,8,96s6-55.2,19.4-68.6S62,8,96,8s55.2,6,68.6,19.4S184,62,184,96,178,151.2,164.6,164.6Z"/><path class="cls-9" d="M96,6C75.888,6,59.728,8.123,46.957,12.911A150.042,150.042,0,0,0,179.089,145.043C183.877,132.272,186,116.112,186,96,186,29.3,162.7,6,96,6Z"/><path class="cls-10" d="M12.911,46.957C8.123,59.728,6,75.888,6,96c0,66.7,23.3,90,90,90,20.112,0,36.272-2.123,49.043-6.911A150.042,150.042,0,0,0,12.911,46.957Z"/><path class="cls-11" d="M186,96c0,66.67-23.32,90-90,90S6,162.67,6,96,29.32,6,96,6,186,29.32,186,96Z"/><path class="cls-12" d="M185.717,108.085,142.733,65.1H134.9L111.47,41.672,88,42,76,54V67.5H51.446v77.551l40.8,40.92c1.239.018,2.488.029,3.758.029C158.481,186,182.89,165.515,185.717,108.085Z"/><path class="cls-13" d="M56,66h80a5,5,0,0,1,5,5v63a12,12,0,0,1-12,12H63a12,12,0,0,1-12-12V71A5,5,0,0,1,56,66Z"/><path class="cls-14" d="M136,62h-2a4,4,0,0,0,0,8h2a1.013,1.013,0,0,1,1,1v63a8.009,8.009,0,0,1-8,8H63a8.009,8.009,0,0,1-8-8V71a1.013,1.013,0,0,1,1-1H72V80a4,4,0,0,0,8,0V60a16,16,0,0,1,32,0v2H94a4,4,0,0,0,0,8h18V80a4,4,0,0,0,8,0V60a24,24,0,0,0-48,0v2H56a9.011,9.011,0,0,0-9,9v63a16.019,16.019,0,0,0,16,16h66a16.019,16.019,0,0,0,16-16V71A9.011,9.011,0,0,0,136,62Z"/><path class="cls-15" d="M72,72v8a3.975,3.975,0,0,0,1.071,2.707A4.015,4.015,0,0,1,73,82V72Z"/><path class="cls-15" d="M112,60v2H94a3.988,3.988,0,0,0-2.929,6.707A3.96,3.96,0,0,1,95,64h18V62a15.88,15.88,0,0,0-2.2-8.054A15.892,15.892,0,0,1,112,60Z"/><path class="cls-15" d="M113,82V72h-1v8a3.975,3.975,0,0,0,1.071,2.707A4.015,4.015,0,0,1,113,82Z"/><path class="cls-15" d="M131,68a4,4,0,0,1,4-4h2a9,9,0,0,1,7.47,3.987A9.008,9.008,0,0,0,136,62h-2a3.988,3.988,0,0,0-2.929,6.707A4.015,4.015,0,0,1,131,68Z"/><path class="cls-15" d="M48,136V73a9.011,9.011,0,0,1,9-9H73V62a23.993,23.993,0,0,1,44.948-11.692A24,24,0,0,0,72,60v2H56a9.011,9.011,0,0,0-9,9v63a15.88,15.88,0,0,0,2.2,8.054A15.888,15.888,0,0,1,48,136Z"/><path class="cls-15" d="M56.42,138.539A8.009,8.009,0,0,0,64,144h66a8.009,8.009,0,0,0,8-8V73a1.013,1.013,0,0,0-1-1v62a8.009,8.009,0,0,1-8,8H63A7.994,7.994,0,0,1,56.42,138.539Z"/><path class="cls-16" d="M94,70h18V62H94a4,4,0,0,0,0,8Z"/></g></g></g></svg>