<svg xmlns="http://www.w3.org/2000/svg" xmlns:xlink="http://www.w3.org/1999/xlink" viewBox="0 0 192 192"><defs><style>.cls-1{fill:none;}.cls-2{opacity:0.01;}.cls-15,.cls-2,.cls-3,.cls-4,.cls-5{isolation:isolate;}.cls-3{opacity:0.02;}.cls-4{opacity:0.04;}.cls-5{opacity:0.06;}.cls-6{fill:#0071c6;}.cls-7{fill:url(#未命名的渐变_8);}.cls-8{fill:url(#未命名的渐变_2);}.cls-9{fill:url(#未命名的渐变_3);}.cls-10{fill:#dba305;}.cls-11{fill:url(#未命名的渐变_52);}.cls-12{fill:#ffcd2e;}.cls-13{fill:url(#未命名的渐变_55);}.cls-14{fill:#00a5ed;}.cls-15,.cls-20,.cls-22{fill:#fff;}.cls-15{opacity:0.2;}.cls-16{fill:url(#未命名的渐变_7);}.cls-17{fill:url(#未命名的渐变_49);}.cls-18{fill:#ebebeb;}.cls-19{fill:url(#未命名的渐变_46);}.cls-20{opacity:0.2;}.cls-21{fill:#fafafa;}</style><linearGradient id="未命名的渐变_8" x1="166.01" y1="-522.01" x2="25.99" y2="-381.99" gradientTransform="matrix(1, 0, 0, -1, 0, -356)" gradientUnits="userSpaceOnUse"><stop offset="0" stop-opacity="0.04"/><stop offset="0.5" stop-color="gray" stop-opacity="0"/><stop offset="1" stop-color="#fff" stop-opacity="0.1"/></linearGradient><linearGradient id="未命名的渐变_2" x1="99.63" y1="674" x2="99.63" y2="604" gradientTransform="translate(0 -598)" gradientUnits="userSpaceOnUse"><stop offset="0" stop-opacity="0.14"/><stop offset="0.25" stop-opacity="0"/></linearGradient><linearGradient id="未命名的渐变_3" x1="172.47" y1="685.19" x2="135.95" y2="648.67" gradientTransform="translate(0 -598)" gradientUnits="userSpaceOnUse"><stop offset="0" stop-opacity="0.02"/><stop offset="1" stop-opacity="0.08"/></linearGradient><linearGradient id="未命名的渐变_52" x1="95" y1="698" x2="95" y2="638" gradientTransform="translate(0 -598)" gradientUnits="userSpaceOnUse"><stop offset="0.6" stop-opacity="0.16"/><stop offset="0.85" stop-opacity="0"/></linearGradient><linearGradient id="未命名的渐变_55" x1="102" y1="716" x2="102" y2="656" gradientTransform="translate(0 -598)" gradientUnits="userSpaceOnUse"><stop offset="0.65" stop-opacity="0.16"/><stop offset="0.85" stop-opacity="0"/></linearGradient><linearGradient id="未命名的渐变_7" x1="166.01" y1="-522.01" x2="25.99" y2="-381.99" gradientTransform="matrix(1, 0, 0, -1, 0, -356)" gradientUnits="userSpaceOnUse"><stop offset="0" stop-opacity="0.1"/><stop offset="0.5" stop-color="gray" stop-opacity="0.05"/><stop offset="1" stop-color="#fff" stop-opacity="0.15"/></linearGradient><linearGradient id="未命名的渐变_49" x1="139.1" y1="192.9" x2="58.36" y2="112.16" gradientUnits="userSpaceOnUse"><stop offset="0" stop-opacity="0.02"/><stop offset="1" stop-opacity="0.12"/></linearGradient><linearGradient id="未命名的渐变_46" x1="90.21" y1="144.21" x2="59.21" y2="113.21" gradientUnits="userSpaceOnUse"><stop offset="0" stop-opacity="0"/><stop offset="1" stop-opacity="0.14"/></linearGradient></defs><title>solidexplorer</title><g id="图层_2" data-name="图层 2"><g id="图层_2-2" data-name="图层 2"><rect class="cls-1" width="192" height="192"/><path class="cls-2" d="M96,190C27.3,190,3,165.7,3,97S27.3,4,96,4s93,24.3,93,93S164.7,190,96,190Z"/><path class="cls-3" d="M96,189C28.1,189,4,164.9,4,97S28.1,5,96,5s92,24.1,92,92S163.9,189,96,189Z"/><path class="cls-4" d="M96,188C28.8,188,5,164.2,5,97S28.8,6,96,6s91,23.8,91,91S163.2,188,96,188Z"/><path class="cls-5" d="M186,97c0,66.7-23.3,90-90,90S6,163.7,6,97,29.3,7,96,7,186,30.3,186,97Z"/><path class="cls-6" d="M186,96c0,66.7-23.3,90-90,90S6,162.7,6,96,29.3,6,96,6,186,29.3,186,96Z"/><path class="cls-7" d="M96,6C29.3,6,6,29.3,6,96s23.3,90,90,90,90-23.3,90-90S162.7,6,96,6Zm68.6,158.6C151.2,178,130,184,96,184s-55.2-6-68.6-19.4S8,130,8,96s6-55.2,19.4-68.6S62,8,96,8s55.2,6,68.6,19.4S184,62,184,96,178,151.2,164.6,164.6Z"/><path class="cls-8" d="M96,6C51,6,25.75,16.61,14.09,44H64c8,0,15.83,10,21,16,4.36,5.1,13,16,21,16h79.17C180.5,24.57,155.54,6,96,6Z"/><polygon class="cls-9" points="145.08 41.54 181.6 78.06 145.08 78.06 145.08 41.54"/><path class="cls-10" d="M48.25,40h93.5A4.13,4.13,0,0,1,146,44V96a4.13,4.13,0,0,1-4.25,4H48.25A4.13,4.13,0,0,1,44,96V44A4.13,4.13,0,0,1,48.25,40Z"/><path class="cls-11" d="M48.25,40h93.5A4.13,4.13,0,0,1,146,44V96a4.13,4.13,0,0,1-4.25,4H48.25A4.13,4.13,0,0,1,44,96V44A4.13,4.13,0,0,1,48.25,40Z"/><rect class="cls-12" x="44" y="58" width="116" height="60" rx="4" ry="4"/><rect class="cls-13" x="44" y="58" width="116" height="60" rx="4" ry="4"/><path class="cls-14" d="M85,60c-5-6-13-16-21-16H14.09C8.47,57.2,6,74.3,6,96c0,66.7,23.3,90,90,90s90-23.3,90-90q0-10.74-.83-20H106C98,76,89.29,65.15,85,60Z"/><path class="cls-15" d="M7,98c0-21.7,2.47-38.8,8.09-52H65c8,0,16,10,21,16,4.29,5.15,13,16,21,16h78.32c-.05-.66-.1-1.35-.16-2H106c-8,0-16.71-10.85-21-16-5-6-13-16-21-16H14.09C8.47,57.2,6,74.3,6,96c0,24.33,3.1,42.87,10.28,56.63C9.81,139.09,7,121.17,7,98Z"/><path class="cls-16" d="M186,96c0,66.7-23.3,90-90,90S6,162.7,6,96,29.3,6,96,6,186,29.3,186,96Z"/><path class="cls-17" d="M84.45,86.06,43,149l36.44,36.44Q87.24,186,96,186c32.72,0,55-5.61,69.19-19.2Z"/><path class="cls-18" d="M79.52,102.32A29.84,29.84,0,0,0,64.85,98l-30.24,36a30,30,0,1,0,44.91-31.74Z"/><path class="cls-19" d="M79.52,102.32c-.8-.49-1.63-.92-2.48-1.33L43,129.42l27.8,27.8a30,30,0,0,0,8.72-54.9Z"/><path class="cls-20" d="M35.61,136.06l30.24-36a29.91,29.91,0,0,1,25.46,15.57A29.92,29.92,0,0,0,64.85,98l-30.24,36a29.69,29.69,0,0,0,3.06,8.3A29.64,29.64,0,0,1,35.61,136.06Z"/><path class="cls-21" d="M78.51,81.74a30,30,0,1,0-26.74,53.65L60,125.54,80.6,101l8.26-9.84A30.14,30.14,0,0,0,78.51,81.74Zm-29.87,35.6A18,18,0,0,1,70.54,91.25Z"/><path class="cls-22" d="M35,110A30,30,0,0,1,88.6,91.49l.25-.3A30,30,0,0,0,34,108a29.83,29.83,0,0,0,3.66,14.34A29.85,29.85,0,0,1,35,110Z"/><path class="cls-22" d="M71.54,93.25a18.37,18.37,0,0,0-2.12-.67L48.64,117.34l-.22-.39a18.27,18.27,0,0,0,1.22,2.39Z"/></g></g></svg>