<svg xmlns="http://www.w3.org/2000/svg" xmlns:xlink="http://www.w3.org/1999/xlink" viewBox="0 0 192 192"><defs><style>.cls-1{fill:none;}.cls-2{opacity:0.01;}.cls-3{opacity:0.02;}.cls-4{opacity:0.04;}.cls-5{opacity:0.06;}.cls-6{fill:#49409a;}.cls-7{fill:url(#未命名的渐变_8);}.cls-8{fill:url(#未命名的渐变_46);}.cls-9{fill:url(#未命名的渐变_20);}.cls-10{fill:#fff;}</style><linearGradient id="未命名的渐变_8" x1="166" y1="166" x2="26" y2="26" gradientUnits="userSpaceOnUse"><stop offset="0" stop-opacity="0.1"/><stop offset="0.5" stop-color="gray" stop-opacity="0.05"/><stop offset="1" stop-color="#fff" stop-opacity="0.12"/></linearGradient><linearGradient id="未命名的渐变_46" x1="166" y1="166" x2="26" y2="26" gradientUnits="userSpaceOnUse"><stop offset="0" stop-opacity="0.05"/><stop offset="0.5" stop-color="gray" stop-opacity="0"/><stop offset="1" stop-color="#fff" stop-opacity="0.1"/></linearGradient><linearGradient id="未命名的渐变_20" x1="166.82" y1="165.18" x2="61.12" y2="59.47" gradientUnits="userSpaceOnUse"><stop offset="0" stop-opacity="0.06"/><stop offset="1" stop-opacity="0.18"/></linearGradient></defs><title>microsoft_msn_sports</title><g id="图层_2" data-name="图层 2"><g id="图层_2-2" data-name="图层 2"><rect class="cls-1" width="192" height="192"/><path class="cls-2" d="M96,190C27.34,190,3,165.66,3,97S27.34,4,96,4s93,24.34,93,93S164.66,190,96,190Z"/><path class="cls-3" d="M96,189C28.07,189,4,164.92,4,97S28.07,5,96,5s92,24.07,92,92S163.93,189,96,189Z"/><path class="cls-4" d="M96,188C28.81,188,5,164.19,5,97S28.81,6,96,6s91,23.81,91,91S163.19,188,96,188Z"/><path class="cls-5" d="M186,97c0,66.67-23.32,90-90,90S6,163.67,6,97,29.32,7,96,7,186,30.32,186,97Z"/><path class="cls-6" d="M186,96c0,66.67-23.32,90-90,90S6,162.67,6,96,29.32,6,96,6,186,29.32,186,96Z"/><path class="cls-7" d="M186,96c0,66.67-23.32,90-90,90S6,162.67,6,96,29.32,6,96,6,186,29.32,186,96Z"/><path class="cls-8" d="M96,6C29.32,6,6,29.32,6,96s23.32,90,90,90,90-23.33,90-90S162.68,6,96,6Zm68.59,158.59C151.17,178,130,184,96,184s-55.17-6-68.59-19.41S8,130,8,96s6-55.17,19.41-68.59S62,8,96,8s55.17,6,68.59,19.41S184,62,184,96,178,151.16,164.59,164.59Z"/><path class="cls-9" d="M71,143l42.39,42.39c49-3.73,69.2-24.91,72.21-75.09l-47.8-47.8-1.57,1.28L122.69,50.25,71,51V64H56.58V95L91,130v1Z"/><path class="cls-10" d="M132,60h-8V53c0-5-12.54-9-28-9s-28,4-28,9v7H60a8,8,0,0,0-8,8V80c0,13.67,5.74,19.69,19,20,3.29,7.06,9.39,14.22,19,16.37v9.27c-7.61,1.55-13.26,5.89-13.92,10.5C72.29,137.54,70,139.3,70,141c0,3.83,11.64,8,26,8s26-4.17,26-8c0-1.7-2.29-3.46-6.08-4.9-.56-3.87-4.65-7.56-10.47-9.55L102,130V116.34c9.58-2.15,15.68-9.3,19-16.37,13.29-.28,19-6.31,19-20V68A8,8,0,0,0,132,60ZM58,80V69a2.65,2.65,0,0,1,3-3h7V88a24.36,24.36,0,0,0,.84,5.88C60.69,93.2,58,89.56,58,80ZM96,62c-12.7,0-24-3.58-24-8a3.45,3.45,0,0,1,1.12-2.38c1.2,3,11,5.38,22.88,5.38s21.68-2.36,22.88-5.38A3.45,3.45,0,0,1,120,54C120,58.42,108.7,62,96,62Zm38,18c0,9.56-2.69,13.2-10.84,13.88A24.36,24.36,0,0,0,124,88V66h7a2.65,2.65,0,0,1,3,3Z"/></g></g></svg>