<svg xmlns="http://www.w3.org/2000/svg" xmlns:xlink="http://www.w3.org/1999/xlink" viewBox="0 0 192 192"><defs><style>.cls-1{fill:none;}.cls-2{opacity:0.01;}.cls-3{opacity:0.02;}.cls-4{opacity:0.04;}.cls-5{opacity:0.06;}.cls-11,.cls-6{fill:#207245;}.cls-7{fill:url(#未命名的渐变_8);}.cls-8{fill:url(#未命名的渐变_10);}.cls-9{fill:url(#未命名的渐变_5);}.cls-10{fill:#fff;}.cls-11{opacity:0.6;}.cls-12{fill:url(#未命名的渐变_179);}.cls-13{fill:url(#未命名的渐变_5-2);}</style><linearGradient id="未命名的渐变_8" x1="166" y1="166" x2="26" y2="26" gradientUnits="userSpaceOnUse"><stop offset="0" stop-opacity="0.12"/><stop offset="0.5" stop-color="gray" stop-opacity="0.05"/><stop offset="1" stop-color="#fff" stop-opacity="0.12"/></linearGradient><linearGradient id="未命名的渐变_10" x1="166" y1="166" x2="26" y2="26" gradientUnits="userSpaceOnUse"><stop offset="0" stop-opacity="0.05"/><stop offset="0.5" stop-color="gray" stop-opacity="0"/><stop offset="1" stop-color="#fff" stop-opacity="0.1"/></linearGradient><linearGradient id="未命名的渐变_5" x1="166" y1="166" x2="75" y2="75" gradientUnits="userSpaceOnUse"><stop offset="0" stop-opacity="0.06"/><stop offset="1" stop-opacity="0.18"/></linearGradient><linearGradient id="未命名的渐变_179" x1="104" y1="96" x2="148" y2="96" gradientUnits="userSpaceOnUse"><stop offset="0" stop-opacity="0.25"/><stop offset="0.4" stop-opacity="0"/></linearGradient><linearGradient id="未命名的渐变_5-2" x1="147.5" y1="132.5" x2="89.5" y2="74.5" xlink:href="#未命名的渐变_5"/></defs><title>microsoft_office_excel</title><g id="图层_2" data-name="图层 2"><g id="图层_2-2" data-name="图层 2"><rect class="cls-1" width="192" height="192"/><path class="cls-2" d="M96,190C27.34,190,3,165.66,3,97S27.34,4,96,4s93,24.34,93,93S164.66,190,96,190Z"/><path class="cls-3" d="M96,189C28.07,189,4,164.92,4,97S28.07,5,96,5s92,24.07,92,92S163.93,189,96,189Z"/><path class="cls-4" d="M96,188C28.81,188,5,164.19,5,97S28.81,6,96,6s91,23.81,91,91S163.19,188,96,188Z"/><path class="cls-5" d="M186,97c0,66.67-23.32,90-90,90S6,163.67,6,97,29.32,7,96,7,186,30.32,186,97Z"/><path class="cls-6" d="M186,96c0,66.67-23.32,90-90,90S6,162.67,6,96,29.32,6,96,6,186,29.32,186,96Z"/><path class="cls-7" d="M186,96c0,66.67-23.32,90-90,90S6,162.67,6,96,29.32,6,96,6,186,29.32,186,96Z"/><path class="cls-8" d="M96,6C29.32,6,6,29.32,6,96s23.32,90,90,90,90-23.33,90-90S162.68,6,96,6Zm68.59,158.59C151.17,178,130,184,96,184s-55.17-6-68.59-19.41S8,130,8,96s6-55.17,19.41-68.59S62,8,96,8s55.17,6,68.59,19.41S184,62,184,96,178,151.16,164.59,164.59Z"/><path class="cls-9" d="M48,136l50,50c64.49-.46,87.54-23.52,88-88L148,60,133.27,75.27,104,46l-4.85,64.66L94,116l4.42,4.42L98,126Z"/><path class="cls-10" d="M104,46V146L48,136V56ZM88.26,114.94,79.07,95.86l9-18.8-8.62,1L74.59,89.35q-.24.66-.44,1.3c-.13-.42-.28-.83-.43-1.22L69.53,79.06l-6.8.8L69.55,96l-7.61,16.16,6.7.8,5.05-11.18.15-.46a4.38,4.38,0,0,0,.16.44l5.22,12.2Z"/><rect class="cls-10" x="104" y="60" width="44" height="72"/><path class="cls-11" d="M118,76H104V68h14Zm0,4H104v8h14Zm0,12H104v8h14Zm0,12H104v8h14Zm0,12H104v8h14Zm22-48H122v8h18Zm0,12H122v8h18Zm0,12H122v8h18Zm0,12H122v8h18Zm0,12H122v8h18Z"/><rect class="cls-12" x="104" y="60" width="44" height="72"/><polygon class="cls-13" points="148 90 118 60 104 60 104 132 148 132 148 90"/></g></g></svg>