<svg xmlns="http://www.w3.org/2000/svg" xmlns:xlink="http://www.w3.org/1999/xlink" viewBox="0 0 192 192"><defs><style>.cls-1{fill:none;}.cls-2{opacity:0.01;}.cls-3{opacity:0.02;}.cls-4{opacity:0.04;}.cls-5{opacity:0.06;}.cls-6{fill:#17b659;}.cls-7{fill:url(#未命名的渐变_8);}.cls-8{fill:url(#未命名的渐变_46);}.cls-9{fill:url(#未命名的渐变_11);}.cls-10{fill:#fff;}</style><linearGradient id="未命名的渐变_8" x1="166" y1="166" x2="26" y2="26" gradientUnits="userSpaceOnUse"><stop offset="0" stop-opacity="0.1"/><stop offset="0.5" stop-color="gray" stop-opacity="0.05"/><stop offset="1" stop-color="#fff" stop-opacity="0.12"/></linearGradient><linearGradient id="未命名的渐变_46" x1="166" y1="166" x2="26" y2="26" gradientUnits="userSpaceOnUse"><stop offset="0" stop-opacity="0.05"/><stop offset="0.5" stop-color="gray" stop-opacity="0"/><stop offset="1" stop-color="#fff" stop-opacity="0.1"/></linearGradient><linearGradient id="未命名的渐变_11" x1="162.66" y1="169.34" x2="60.09" y2="66.78" gradientUnits="userSpaceOnUse"><stop offset="0" stop-opacity="0.06"/><stop offset="1" stop-opacity="0.18"/></linearGradient></defs><title>coolapk_market</title><g id="图层_2" data-name="图层 2"><g id="图层_2-2" data-name="图层 2"><rect class="cls-1" width="192" height="192"/><path class="cls-2" d="M96,190C27.34,190,3,165.66,3,97S27.34,4,96,4s93,24.34,93,93S164.66,190,96,190Z"/><path class="cls-3" d="M96,189C28.07,189,4,164.92,4,97S28.07,5,96,5s92,24.07,92,92S163.93,189,96,189Z"/><path class="cls-4" d="M96,188C28.81,188,5,164.19,5,97S28.81,6,96,6s91,23.81,91,91S163.19,188,96,188Z"/><path class="cls-5" d="M186,97c0,66.67-23.32,90-90,90S6,163.67,6,97,29.32,7,96,7,186,30.32,186,97Z"/><path class="cls-6" d="M186,96c0,66.67-23.32,90-90,90S6,162.67,6,96,29.32,6,96,6,186,29.32,186,96Z"/><path class="cls-7" d="M186,96c0,66.67-23.32,90-90,90S6,162.67,6,96,29.32,6,96,6,186,29.32,186,96Z"/><path class="cls-8" d="M96,6C29.32,6,6,29.32,6,96s23.32,90,90,90,90-23.33,90-90S162.68,6,96,6Zm68.59,158.59C151.17,178,130,184,96,184s-55.17-6-68.59-19.41S8,130,8,96s6-55.17,19.41-68.59S62,8,96,8s55.17,6,68.59,19.41S184,62,184,96,178,151.16,164.59,164.59Z"/><path class="cls-9" d="M184.29,123.62,125.35,64.68,110,87.36l-4.13-4.13-4.51,1.17L77.27,72.8,51.39,75.48,45.15,88.86l-.29,30,66.62,66.62C157.19,182.5,178.47,164.86,184.29,123.62Z"/><path class="cls-10" d="M156,120.69,126.71,66.35a5.22,5.22,0,0,0-4.52-2.74h-.08a5.22,5.22,0,0,0-4.52,2.6l-8.45,14.57-1.57,2.76-.44.75-5.47,9.05-4.78,7.58c-6.12,8.26-16.93,17-29.1,17a21.93,21.93,0,1,1,0-43.87c10.75,0,24.14,10.35,28.79,14.74l.17.15,9.44-5.35-1.5-1.43c-1.64-1.55-20.28-18.56-36.91-18.56a32.38,32.38,0,1,0,0,64.76c20.3,0,33.93-16.4,37.63-21.43l.11-.16.1-.14,1.64-2.59,2.67-4.24,5.43-9,1.32-2.27,1.57-2.67,3.66-6.33L136,105.76l-15.63-11-9.57,5.4,37.51,27.27a5.22,5.22,0,0,0,7.64-6.72Z"/></g></g></svg>