<svg xmlns="http://www.w3.org/2000/svg" xmlns:xlink="http://www.w3.org/1999/xlink" viewBox="0 0 192 192"><defs><style>.cls-1{fill:none;}.cls-2{opacity:0.01;}.cls-2,.cls-3,.cls-4,.cls-5{isolation:isolate;}.cls-3{opacity:0.02;}.cls-4{opacity:0.04;}.cls-5{opacity:0.06;}.cls-6{fill:#54cc06;}.cls-7{fill:url(#未命名的渐变_2);}.cls-8{fill:url(#未命名的渐变_112);}.cls-9{fill:url(#未命名的渐变_40);}.cls-10{fill:#fafafa;}.cls-11{fill:#fff;}</style><linearGradient id="未命名的渐变_2" x1="166" y1="188" x2="26" y2="328" gradientTransform="matrix(1, 0, 0, -1, 0, 354)" gradientUnits="userSpaceOnUse"><stop offset="0" stop-opacity="0.1"/><stop offset="0.5" stop-color="gray" stop-opacity="0.05"/><stop offset="1" stop-color="#fff" stop-opacity="0.12"/></linearGradient><linearGradient id="未命名的渐变_112" x1="166" y1="188" x2="25.99" y2="328" gradientTransform="matrix(1, 0, 0, -1, 0, 354)" gradientUnits="userSpaceOnUse"><stop offset="0" stop-opacity="0.05"/><stop offset="0.5" stop-color="gray" stop-opacity="0"/><stop offset="1" stop-color="#fff" stop-opacity="0.1"/></linearGradient><linearGradient id="未命名的渐变_40" x1="166.01" y1="165.98" x2="54.77" y2="54.73" gradientUnits="userSpaceOnUse"><stop offset="0" stop-opacity="0.02"/><stop offset="1" stop-opacity="0.16"/></linearGradient></defs><title>qiyi</title><g id="图层_2" data-name="图层 2"><g id="图层_2-2" data-name="图层 2"><rect class="cls-1" width="192" height="192"/><path class="cls-2" d="M96,190C27.34,190,3,165.66,3,97S27.34,4,96,4s93,24.34,93,93S164.66,190,96,190Z"/><path class="cls-3" d="M96,189C28.07,189,4,164.92,4,97S28.07,5,96,5s92,24.07,92,92S163.93,189,96,189Z"/><path class="cls-4" d="M96,188C28.81,188,5,164.19,5,97S28.81,6,96,6s91,23.81,91,91S163.19,188,96,188Z"/><path class="cls-5" d="M186,97c0,66.67-23.32,90-90,90S6,163.67,6,97,29.32,7,96,7,186,30.32,186,97Z"/><path class="cls-6" d="M186,96c0,66.67-23.32,90-90,90S6,162.67,6,96,29.32,6,96,6,186,29.32,186,96Z"/><path class="cls-7" d="M186,96c0,66.67-23.32,90-90,90S6,162.67,6,96,29.32,6,96,6,186,29.32,186,96Z"/><path class="cls-8" d="M96,6C29.32,6,6,29.32,6,96s23.32,90,90,90,90-23.33,90-90S162.68,6,96,6Zm68.59,158.59C151.17,178,130,184,96,184s-55.17-6-68.59-19.41S8,130,8,96s6-55.17,19.41-68.59S62,8,96,8s55.17,6,68.59,19.41S184,62,184,96,178,151.16,164.59,164.59Z"/><path class="cls-9" d="M97.06,186c65.53-.25,88.71-23.45,88.94-89L148.5,59.5H50L40.79,69l6.62,6.62-6.94,6.94,7,7-6.81,29.52,6.64,6.64L43.06,132Z"/><g id="图层_3" data-name="图层 3"><path class="cls-10" d="M152,118.14a.85.85,0,0,1-.86.86h-8.69a.86.86,0,0,1-.86-.86V73.85a.86.86,0,0,1,.86-.85h8.69a.84.84,0,0,1,.86.85ZM84.41,119.3a.79.79,0,0,1,.87.89v3.26a.85.85,0,0,1-.87.85H79.61c-2.42,0-3.74-.44-4.83-1.34a3.77,3.77,0,0,1-1.14-2.51,26.67,26.67,0,0,1-3.06.21c-7.28,0-13.22-3.51-13.22-7.81V79.06c0-4.31,5.94-7.79,13.22-7.79s13.25,3.49,13.25,7.79v33.8c0,2.51-2,4.74-5.13,6.16.11.26.65.28,1.62.28h4.09m-13.8-3.93c1.62,0,2.92-1,2.92-2.15V79.06c0-1.19-1.3-2.15-2.92-2.15s-2.92,1-2.92,2.15v34.15c0,1.18,1.29,2.16,2.92,2.16M49.58,73h-8.7a.87.87,0,0,0-.88.83v8.28a.86.86,0,0,0,.88.85h8.7a.84.84,0,0,0,.86-.85V73.83a.84.84,0,0,0-.86-.83m50.79-.35h-8.7a.86.86,0,0,0-.85.87v44.91a.86.86,0,0,0,.85.87h8.7a.85.85,0,0,0,.85-.87V73.52a.86.86,0,0,0-.85-.87M49.58,87.81h-8.7a.87.87,0,0,0-.88.84v28.52a.87.87,0,0,0,.88.84h8.7a.84.84,0,0,0,.86-.84V88.65a.85.85,0,0,0-.86-.84m88-14.07a.79.79,0,0,0,.06-.29c0-.45-.51-.8-1-.86H128a.91.91,0,0,0-.87.55l-5.69,14.6-5.72-14.63a.86.86,0,0,0-.8-.52h-9.2c-.43.05-.62.41-.62.86a1.31,1.31,0,0,0,.06.29l10.88,28v16.65a.87.87,0,0,0,.86.87h9a.87.87,0,0,0,.88-.87V101.71ZM152,68.2a16,16,0,0,0-2.34-7.67,11.59,11.59,0,0,0-5.16-4.22C138.26,53.48,118.91,51,96,51h0c-22.89,0-42.26,2.48-48.46,5.3a11.62,11.62,0,0,0-5.16,4.22A15.84,15.84,0,0,0,40,68.2c0,.27.13.8.64.8h9.17c.59,0,.65-.43.77-.76a9.12,9.12,0,0,1,2.2-3.57A8.16,8.16,0,0,1,58,62.36c9.57-1.37,24.83-2.14,38-2.14s28.42.76,38,2.14a8.18,8.18,0,0,1,5.21,2.29,9,9,0,0,1,2.21,3.57c.13.33.19.76.78.76h9.17c.54,0,.65-.53.63-.8m0,55.64c0-.33-.08-.85-.62-.85l-9.17,0c-.59,0-.65.47-.78.75a9.23,9.23,0,0,1-2.21,3.6,8.43,8.43,0,0,1-5.21,2.27c-9.54,1.37-24.81,2.13-38,2.13s-28.42-.76-38-2.13a8.39,8.39,0,0,1-5.2-2.27,9.32,9.32,0,0,1-2.2-3.6c-.12-.29-.18-.75-.77-.75l-9.17,0c-.51,0-.65.52-.64.85a15.84,15.84,0,0,0,2.36,7.63,11.28,11.28,0,0,0,5.16,4.21C53.76,138.5,73.12,141,96,141h0c22.89,0,42.23-2.5,48.44-5.33a11.25,11.25,0,0,0,5.16-4.21,16,16,0,0,0,2.34-7.63"/></g><path class="cls-11" d="M58.36,114.86V81.06c0-4.31,5.94-7.79,13.22-7.79,5.38,0,10,1.89,12.07,4.6-1-3.74-6.46-6.6-13.08-6.6-7.28,0-13.22,3.49-13.22,7.79v33.8a5.23,5.23,0,0,0,1.17,3.19A4.68,4.68,0,0,1,58.36,114.86Z"/><path class="cls-11" d="M74.53,81.06a2,2,0,0,0-1-1.62v33.76c0,1.18-1.3,2.15-2.92,2.15a3.53,3.53,0,0,1-1.92-.54v.38c0,1.18,1.29,2.16,2.92,2.16s2.92-1,2.92-2.15Z"/><path class="cls-11" d="M116,118.36a.87.87,0,0,0,.86.87H117V103.71l-10.88-28a1.31,1.31,0,0,1-.06-.29c0-.45.19-.8.62-.86h9.2a.87.87,0,0,1,.42.11l-.62-1.59a.86.86,0,0,0-.8-.52h-9.2c-.43.05-.62.41-.62.86a1.31,1.31,0,0,0,.06.29l10.88,28v16.65Z"/><path class="cls-11" d="M151.34,123l-9.17,0c-.59,0-.65.47-.78.75a9.23,9.23,0,0,1-2.21,3.6,8.43,8.43,0,0,1-5.21,2.27c-9.54,1.37-24.81,2.13-38,2.13s-28.42-.76-38-2.13a8.39,8.39,0,0,1-5.2-2.27A6.62,6.62,0,0,1,51.71,126a9.16,9.16,0,0,0,2.12,3.36,8.39,8.39,0,0,0,5.2,2.27c9.57,1.37,24.82,2.13,38,2.13s28.42-.76,38-2.13a8.43,8.43,0,0,0,5.21-2.27,9.23,9.23,0,0,0,2.21-3.6c.13-.29.19-.75.78-.75l8.67,0c.05-.4.09-.79.12-1.15S151.88,123,151.34,123Z"/><path class="cls-11" d="M141.59,118.14a.86.86,0,0,0,.86.86h.14V75.83a.86.86,0,0,1,.86-.85H152V73.85a.84.84,0,0,0-.86-.85h-8.69a.86.86,0,0,0-.86.85Z"/><path class="cls-11" d="M141.39,68.23c.1.25.16.56.44.69a10.36,10.36,0,0,0-.52-.91Z"/><path class="cls-11" d="M84.41,119.3h-2A11.91,11.91,0,0,1,79.71,121c.11.26.65.28,1.62.28h4v-1.1A.79.79,0,0,0,84.41,119.3Z"/><path class="cls-11" d="M40.88,118H41V90.74a.87.87,0,0,1,.88-.83h8.56V88.83a.84.84,0,0,0-.86-.83h-8.7a.87.87,0,0,0-.88.83v28.34A.87.87,0,0,0,40.88,118Z"/><path class="cls-11" d="M40.88,83H41v-7.2a.87.87,0,0,1,.88-.83h8.56V73.83a.84.84,0,0,0-.86-.83h-8.7a.87.87,0,0,0-.88.83v8.28A.86.86,0,0,0,40.88,83Z"/><path class="cls-11" d="M41,125.84c0-.33.13-.85.64-.85l9.17,0a.73.73,0,0,1,.33.07,9.81,9.81,0,0,1-.56-1.32c-.12-.29-.18-.75-.77-.75l-9.17,0c-.51,0-.65.52-.64.85a16.37,16.37,0,0,0,2.14,7.29A19.05,19.05,0,0,1,41,125.84Z"/><path class="cls-11" d="M136.71,72.6H128a.91.91,0,0,0-.87.55l-5.58,14.32.89,2.28,5.69-14.6a.91.91,0,0,1,.87-.55h8.31l.33-.86a.79.79,0,0,0,.06-.29C137.68,73,137.16,72.65,136.71,72.6Z"/><path class="cls-11" d="M40.67,69h.49a14.72,14.72,0,0,1,2.23-6.48,11.62,11.62,0,0,1,5.16-4.22C54.76,55.48,74.13,53,97,53h0c22.89,0,42.23,2.48,48.44,5.3a11.59,11.59,0,0,1,5.16,4.22c.07.1.13.2.19.3a10.5,10.5,0,0,0-1.19-2.3,11.59,11.59,0,0,0-5.16-4.22C138.26,53.48,118.91,51,96,51h0c-22.89,0-42.26,2.48-48.46,5.3a11.62,11.62,0,0,0-5.16,4.22A15.84,15.84,0,0,0,40,68.2C40,68.47,40.16,69,40.67,69Z"/><path class="cls-11" d="M91.66,119.3h.15V75.52a.86.86,0,0,1,.85-.87h8.55V73.52a.86.86,0,0,0-.85-.87h-8.7a.86.86,0,0,0-.85.87v44.91A.86.86,0,0,0,91.66,119.3Z"/><path class="cls-11" d="M74.64,122.46l-.26,0c.1.13.21.26.33.4C74.69,122.74,74.66,122.62,74.64,122.46Z"/></g></g></svg>