<svg xmlns="http://www.w3.org/2000/svg" xmlns:xlink="http://www.w3.org/1999/xlink" viewBox="0 0 192 192"><defs><style>.cls-1{fill:none;}.cls-2{opacity:0.01;}.cls-2,.cls-3,.cls-4,.cls-5{isolation:isolate;}.cls-3{opacity:0.02;}.cls-4{opacity:0.04;}.cls-5{opacity:0.06;}.cls-6{fill:#1ed760;}.cls-7{fill:url(#未命名的渐变_6);}.cls-8{fill:url(#未命名的渐变_2);}.cls-9{fill:url(#未命名的渐变_3);}.cls-10{fill:#242b23;}</style><linearGradient id="未命名的渐变_6" x1="166" y1="1362" x2="26" y2="1222" gradientTransform="translate(0 -1196)" gradientUnits="userSpaceOnUse"><stop offset="0" stop-opacity="0.1"/><stop offset="0.5" stop-color="gray" stop-opacity="0.05"/><stop offset="1" stop-color="#fff" stop-opacity="0.15"/></linearGradient><linearGradient id="未命名的渐变_2" x1="166" y1="1362" x2="25.99" y2="1222" gradientTransform="translate(0 -1196)" gradientUnits="userSpaceOnUse"><stop offset="0" stop-opacity="0.05"/><stop offset="0.5" stop-color="gray" stop-opacity="0"/><stop offset="1" stop-color="#fff" stop-opacity="0.1"/></linearGradient><linearGradient id="未命名的渐变_3" x1="166.53" y1="165.47" x2="62.74" y2="61.68" gradientUnits="userSpaceOnUse"><stop offset="0" stop-opacity="0.02"/><stop offset="1" stop-opacity="0.12"/></linearGradient></defs><title>spotify</title><g id="图层_2" data-name="图层 2"><g id="图层_1-2" data-name="图层 1"><rect class="cls-1" width="192" height="192"/><path class="cls-2" d="M96,190C27.34,190,3,165.66,3,97S27.34,4,96,4s93,24.34,93,93S164.66,190,96,190Z"/><path class="cls-3" d="M96,189C28.07,189,4,164.92,4,97S28.07,5,96,5s92,24.07,92,92S163.93,189,96,189Z"/><path class="cls-4" d="M96,188C28.81,188,5,164.19,5,97S28.81,6,96,6s91,23.81,91,91S163.19,188,96,188Z"/><path class="cls-5" d="M186,97c0,66.67-23.32,90-90,90S6,163.67,6,97,29.32,7,96,7,186,30.32,186,97Z"/><path class="cls-6" d="M186,96c0,66.67-23.32,90-90,90S6,162.67,6,96,29.32,6,96,6,186,29.32,186,96Z"/><path class="cls-7" d="M186,96c0,66.67-23.32,90-90,90S6,162.67,6,96,29.32,6,96,6,186,29.32,186,96Z"/><path class="cls-8" d="M96,6C29.32,6,6,29.32,6,96s23.32,90,90,90,90-23.33,90-90S162.68,6,96,6Zm68.59,158.59C151.17,178,130,184,96,184s-55.17-6-68.59-19.41S8,130,8,96s6-55.17,19.41-68.59S62,8,96,8s55.17,6,68.59,19.41S184,62,184,96,178,151.16,164.59,164.59Z"/><path class="cls-9" d="M115,185.25c47-4,66.91-24.56,70.44-72.25L149.67,77.27,71.08,70.73,46.17,78.25,62,94.3l-11.13,7.21,15.06,15.06-12.19,7.36Z"/><path class="cls-10" d="M130.84,130.52a4.72,4.72,0,0,1-6.48,1.61h-.06C106.46,121.23,84,118.77,57.5,124.8a4.72,4.72,0,1,1-2.11-9.16c28.92-6.61,53.67-3.78,73.79,8.46A4.79,4.79,0,0,1,130.84,130.52Zm9.3-20.68a5.92,5.92,0,0,1-8.14,1.92h0c-20.41-12.55-51.54-16.19-75.71-8.86A5.92,5.92,0,0,1,52.88,91.6c27.59-8.37,61.87-4.32,85.29,10.09a5.92,5.92,0,0,1,1.92,8.14Zm.8-21.54c-24.49-14.51-64.86-15.85-88.23-8.77a7.1,7.1,0,0,1-4.12-13.59c26.83-8.15,71.43-6.55,99.61,10.16a7.1,7.1,0,0,1-7.25,12.2Z"/></g></g></svg>