<svg xmlns="http://www.w3.org/2000/svg" xmlns:xlink="http://www.w3.org/1999/xlink" width="192" height="192" viewBox="0 0 192 192">
  <defs>
    <style>
      .cls-1 {
        opacity: 0.01;
      }

      .cls-1, .cls-2, .cls-3, .cls-4 {
        isolation: isolate;
      }

      .cls-2 {
        opacity: 0.02;
      }

      .cls-3 {
        opacity: 0.04;
      }

      .cls-4 {
        opacity: 0.06;
      }

      .cls-5 {
        fill: #364056;
      }

      .cls-6 {
        fill: url(#未命名的渐变_24);
      }

      .cls-7 {
        fill: url(#未命名的渐变_2);
      }

      .cls-8 {
        fill: none;
      }

      .cls-9 {
        fill: url(#未命名的渐变_20);
      }

      .cls-10 {
        fill: #fafafa;
      }

      .cls-11 {
        fill: #fff;
      }

      .cls-12 {
        fill: url(#未命名的渐变_22);
      }
    </style>
    <linearGradient id="未命名的渐变_24" data-name="未命名的渐变 24" x1="166.004" y1="27.998" x2="25.998" y2="168.004" gradientTransform="matrix(1, 0, 0, -1, 0, 194)" gradientUnits="userSpaceOnUse">
      <stop offset="0" stop-opacity="0.1"/>
      <stop offset="0.5" stop-color="gray" stop-opacity="0.05"/>
      <stop offset="1" stop-color="#fff" stop-opacity="0.08"/>
    </linearGradient>
    <linearGradient id="未命名的渐变_2" data-name="未命名的渐变 2" x1="166.012" y1="75.988" x2="25.987" y2="216.012" gradientTransform="matrix(1, 0, 0, -1, 0, 242)" gradientUnits="userSpaceOnUse">
      <stop offset="0" stop-opacity="0.04"/>
      <stop offset="0.5" stop-color="gray" stop-opacity="0"/>
      <stop offset="1" stop-color="#fff" stop-opacity="0.1"/>
    </linearGradient>
    <linearGradient id="未命名的渐变_20" data-name="未命名的渐变 20" x1="166.003" y1="165.991" x2="56.506" y2="56.494" gradientUnits="userSpaceOnUse">
      <stop offset="0" stop-opacity="0.02"/>
      <stop offset="1" stop-opacity="0.12"/>
    </linearGradient>
    <linearGradient id="未命名的渐变_22" data-name="未命名的渐变 22" x1="148.83" y1="125.082" x2="130.065" y2="106.317" gradientUnits="userSpaceOnUse">
      <stop offset="0" stop-opacity="0"/>
      <stop offset="1" stop-opacity="0.14"/>
    </linearGradient>
  </defs>
  <title>speedtest</title>
  <g id="图层_2" data-name="图层 2">
    <g id="图层_1-2" data-name="图层 1">
      <g>
        <path class="cls-1" d="M96,190C27.3,190,3,165.7,3,97S27.3,4,96,4s93,24.3,93,93S164.7,190,96,190Z"/>
        <path class="cls-2" d="M96,189C28.1,189,4,164.9,4,97S28.1,5,96,5s92,24.1,92,92S163.9,189,96,189Z"/>
        <path class="cls-3" d="M96,188C28.8,188,5,164.2,5,97S28.8,6,96,6s91,23.8,91,91S163.2,188,96,188Z"/>
        <path class="cls-4" d="M186,97c0,66.7-23.3,90-90,90S6,163.7,6,97,29.3,7,96,7,186,30.3,186,97Z"/>
      </g>
      <path class="cls-5" d="M186,96c0,66.7-23.3,90-90,90S6,162.7,6,96,29.3,6,96,6,186,29.3,186,96Z"/>
      <path class="cls-6" d="M186,96c0,66.67-23.32,90-90,90S6,162.67,6,96,29.32,6,96,6,186,29.32,186,96Z"/>
      <path class="cls-7" d="M96,6C29.3,6,6,29.3,6,96s23.3,90,90,90,90-23.3,90-90S162.7,6,96,6Zm68.6,158.6C151.2,178,130,184,96,184s-55.2-6-68.6-19.4S8,130,8,96s6-55.2,19.4-68.6S62,8,96,8s55.2,6,68.6,19.4S184,62,184,96,178,151.2,164.6,164.6Z"/>
      <rect class="cls-8" width="192" height="192"/>
      <path class="cls-9" d="M185.88,103.858,136.962,54.94,96,42,57.012,55.988,44,90l9.121,45.017,50.761,50.863C161.971,184.113,184.119,161.949,185.88,103.858Z"/>
      <path class="cls-10" d="M61.433,130.567l-4.274,4.274a2.992,2.992,0,0,1-4.336-.112,58,58,0,1,1,86.354,0,2.992,2.992,0,0,1-4.336.112l-4.274-4.274a2.985,2.985,0,0,1-.106-4.1,46,46,0,1,0-68.922,0A2.985,2.985,0,0,1,61.433,130.567Zm34.7-26.359,25.239-26.383a2.88,2.88,0,0,0-.024-3.973l-3.2-3.2a2.761,2.761,0,0,0-1.968-.806,3.007,3.007,0,0,0-2.026.8l-26.341,25.2a3.018,3.018,0,0,0-1,2.149,2.76,2.76,0,0,0,.806,2.04l4.341,4.342a2.762,2.762,0,0,0,1.968.807A2.994,2.994,0,0,0,96.134,104.208Z"/>
      <g>
        <path class="cls-11" d="M55.394,117.6a45.669,45.669,0,0,0,6.879,10.56,3,3,0,0,0-.734-1.684A45.733,45.733,0,0,1,55.394,117.6Z"/>
        <path class="cls-11" d="M57.969,55.1a58.019,58.019,0,0,1,90.313,15.792A58,58,0,1,0,44.725,123.129,58.013,58.013,0,0,1,57.969,55.1Z"/>
        <path class="cls-11" d="M87.816,100a3.018,3.018,0,0,1,1-2.149l26.341-25.2a3.007,3.007,0,0,1,2.026-.8,2.761,2.761,0,0,1,1.968.806l2.991,2.991a2.75,2.75,0,0,0-.79-1.79l-3.2-3.2a2.761,2.761,0,0,0-1.968-.806,3.007,3.007,0,0,0-2.026.8l-26.341,25.2a3.018,3.018,0,0,0-1,2.149,2.76,2.76,0,0,0,.806,2.04l.213.213C87.83,100.164,87.814,100.082,87.816,100Z"/>
        <path class="cls-11" d="M131.461,128.472a46.1,46.1,0,0,0,6.152-52.056,46.094,46.094,0,0,1-7.152,50.056,2.984,2.984,0,0,0,.106,4.1l.154.154A3,3,0,0,1,131.461,128.472Z"/>
      </g>
      <path class="cls-12" d="M134.841,134.841a2.992,2.992,0,0,0,4.336-.112,57.678,57.678,0,0,0,14-29.051L141.94,94.443a45.888,45.888,0,0,1-11.479,32.029,2.984,2.984,0,0,0,.106,4.1Z"/>
    </g>
  </g>
</svg>
