<svg xmlns="http://www.w3.org/2000/svg" xmlns:xlink="http://www.w3.org/1999/xlink" viewBox="0 0 192 192"><defs><style>.cls-1{fill:none;}.cls-2{opacity:0.01;}.cls-2,.cls-3,.cls-4,.cls-5{isolation:isolate;}.cls-3{opacity:0.02;}.cls-4{opacity:0.04;}.cls-5{opacity:0.06;}.cls-6{fill:#f5b910;}.cls-7{fill:url(#未命名的渐变);}.cls-8{fill:url(#未命名的渐变_2);}.cls-9{fill:url(#未命名的渐变_3);}.cls-10{fill:url(#未命名的渐变_4);}.cls-11{fill:url(#未命名的渐变_5);}.cls-12{fill:#ffecbd;}.cls-13{opacity:0.5;}.cls-14{fill:#fff2d4;}.cls-15{opacity:0.1;}.cls-16{fill:#fff;}.cls-17{opacity:0.03;}.cls-18{opacity:0.05;}</style><linearGradient id="未命名的渐变" x1="166.01" y1="70.01" x2="25.99" y2="-70.01" gradientTransform="translate(0 96)" gradientUnits="userSpaceOnUse"><stop offset="0" stop-opacity="0.1"/><stop offset="0.5" stop-color="gray" stop-opacity="0.05"/><stop offset="1" stop-color="#fff" stop-opacity="0.12"/></linearGradient><linearGradient id="未命名的渐变_2" x1="-1278.65" y1="145.45" x2="-1158.04" y2="266.06" gradientTransform="translate(292.1 1324) rotate(90)" gradientUnits="userSpaceOnUse"><stop offset="0" stop-opacity="0.04"/><stop offset="0.24" stop-opacity="0"/></linearGradient><linearGradient id="未命名的渐变_3" x1="358.03" y1="113.86" x2="338.54" y2="133.36" gradientTransform="matrix(0, -1, -1, 0, 280.1, 384)" gradientUnits="userSpaceOnUse"><stop offset="0.5" stop-opacity="0.1"/><stop offset="1" stop-opacity="0.2"/></linearGradient><linearGradient id="未命名的渐变_4" x1="166.01" y1="70.01" x2="25.99" y2="-70.01" gradientTransform="translate(0 96)" gradientUnits="userSpaceOnUse"><stop offset="0" stop-opacity="0.05"/><stop offset="0.5" stop-color="gray" stop-opacity="0"/><stop offset="1" stop-color="#fff" stop-opacity="0.1"/></linearGradient><linearGradient id="未命名的渐变_5" x1="194.31" y1="64.48" x2="137.02" y2="7.18" gradientTransform="translate(0 48)" gradientUnits="userSpaceOnUse"><stop offset="0" stop-opacity="0.02"/><stop offset="1" stop-opacity="0.12"/></linearGradient></defs><title>google_slides</title><g id="图层_2" data-name="图层 2"><g id="图层_1-2" data-name="图层 1"><rect class="cls-1" width="192" height="192"/><path class="cls-2" d="M96,190C27.3,190,3,165.7,3,97S27.3,4,96,4s93,24.3,93,93S164.7,190,96,190Z"/><path class="cls-3" d="M96,189C28.1,189,4,164.9,4,97S28.1,5,96,5s92,24.1,92,92S163.9,189,96,189Z"/><path class="cls-4" d="M96,188C28.8,188,5,164.2,5,97S28.8,6,96,6s91,23.8,91,91S163.2,188,96,188Z"/><path class="cls-5" d="M186,97c0,66.7-23.3,90-90,90S6,163.7,6,97,29.3,7,96,7,186,30.3,186,97Z"/><path class="cls-6" d="M186,96c0,66.7-23.3,90-90,90S6,162.7,6,96,29.3,6,96,6,186,29.3,186,96Z"/><path class="cls-7" d="M186,96c0,66.7-23.3,90-90,90S6,162.7,6,96,29.3,6,96,6,186,29.3,186,96Z"/><path class="cls-8" d="M186.1,96c0-4-.1-7.8-.3-11.5L107.5,6.2C103.9,6,100,5.9,96,5.9c-66.7,0-90,23.3-90,90S29.4,186,96.1,186,186.1,162.7,186.1,96Z"/><path class="cls-9" d="M107.5,6.2,186,84.7C183.5,30.2,161.9,8.7,107.5,6.2Z"/><path class="cls-10" d="M96,6C29.3,6,6,29.3,6,96s23.3,90,90,90,90-23.3,90-90S162.7,6,96,6Zm68.6,158.6C151.2,178,130,184,96,184s-55.2-6-68.6-19.4S8,130,8,96s6-55.2,19.4-68.6S62,8,96,8s55.2,6,68.6,19.4S184,62,184,96,178,151.2,164.6,164.6Z"/><path class="cls-11" d="M184.58,122.21A203.22,203.22,0,0,0,186.1,96c0-4-.1-7.8-.3-11.5l-39-39L127.29,64.91Z"/><path class="cls-12" d="M186,84.7,107.5,6.2C110,60.5,131.5,82.2,186,84.7Z"/><g class="cls-13"><path class="cls-14" d="M124,140H68a8,8,0,0,1-8-8V76a8,8,0,0,1,8-8h56a8,8,0,0,1,8,8v56A8,8,0,0,1,124,140Zm-2-24V92a4,4,0,0,0-4-4H74a4,4,0,0,0-4,4v24a4,4,0,0,0,4,4h44A4,4,0,0,0,122,116Z"/><g class="cls-15"><path class="cls-16" d="M70,115.45V92a4,4,0,0,1,4-4h44a4,4,0,0,1,2,.55V88a4,4,0,0,0-4-4H72a4,4,0,0,0-4,4v24A4,4,0,0,0,70,115.45Z"/><path class="cls-16" d="M129.87,70.59A7.94,7.94,0,0,1,130,72v56a8,8,0,0,1-8,8H66a8,8,0,0,1-5.87-2.59A8,8,0,0,0,68,140h56a8,8,0,0,0,8-8V76A8,8,0,0,0,129.87,70.59Z"/></g><g class="cls-15"><path class="cls-16" d="M130.58,71.47A7.92,7.92,0,0,1,131,74v56a8,8,0,0,1-8,8H67a8,8,0,0,1-6.58-3.47A8,8,0,0,0,68,140h56a8,8,0,0,0,8-8V76A7.94,7.94,0,0,0,130.58,71.47Z"/><path class="cls-16" d="M117,86H73a4,4,0,0,0-4,4v24a4,4,0,0,0,1.07,2.71A4,4,0,0,1,70,116V92a4,4,0,0,1,4-4h44a4,4,0,0,1,2.93,1.29A4,4,0,0,0,117,86Z"/></g><g class="cls-17"><path d="M76,124h44a4,4,0,0,0,4-4V96a4,4,0,0,0-2-3.45V116a4,4,0,0,1-4,4H74a4,4,0,0,1-2-.55V120A4,4,0,0,0,76,124Z"/><path d="M62,136V80a8,8,0,0,1,8-8h56a8,8,0,0,1,5.87,2.59A8,8,0,0,0,124,68H68a8,8,0,0,0-8,8v56a8,8,0,0,0,2.13,5.41A7.94,7.94,0,0,1,62,136Z"/></g><g class="cls-18"><path d="M61,134V78a8,8,0,0,1,8-8h56a8,8,0,0,1,6.58,3.47A8,8,0,0,0,124,68H68a8,8,0,0,0-8,8v56a7.94,7.94,0,0,0,1.42,4.53A7.92,7.92,0,0,1,61,134Z"/><path d="M75,122h44a4,4,0,0,0,4-4V94a4,4,0,0,0-1.07-2.71A4,4,0,0,1,122,92v24a4,4,0,0,1-4,4H74a4,4,0,0,1-2.93-1.29A4,4,0,0,0,75,122Z"/></g></g></g></g></svg>