<svg xmlns="http://www.w3.org/2000/svg" xmlns:xlink="http://www.w3.org/1999/xlink" viewBox="0 0 192 192"><defs><style>.cls-1{fill:none;}.cls-2{opacity:0.01;}.cls-3{opacity:0.02;}.cls-4{opacity:0.04;}.cls-5{opacity:0.06;}.cls-6{fill:#f5f5f5;}.cls-7{fill:url(#未命名的渐变_8);}.cls-8{fill:url(#未命名的渐变_46);}.cls-9{fill:url(#未命名的渐变_94);}.cls-10{fill:#fff;opacity:0.6;}.cls-11{clip-path:url(#clip-path);}.cls-12{fill:#e13667;}.cls-13{fill:url(#未命名的渐变_50);}.cls-14{fill:url(#未命名的渐变_37);}.cls-15{fill:url(#未命名的渐变_83);}.cls-16{fill:url(#未命名的渐变_101);}</style><linearGradient id="未命名的渐变_8" x1="166" y1="166" x2="26" y2="26" gradientUnits="userSpaceOnUse"><stop offset="0" stop-opacity="0.1"/><stop offset="0.5" stop-color="gray" stop-opacity="0.05"/><stop offset="1" stop-color="#fff" stop-opacity="0.12"/></linearGradient><linearGradient id="未命名的渐变_46" x1="166" y1="166" x2="26" y2="26" gradientUnits="userSpaceOnUse"><stop offset="0" stop-opacity="0.05"/><stop offset="0.5" stop-color="gray" stop-opacity="0"/><stop offset="1" stop-color="#fff" stop-opacity="0.1"/></linearGradient><linearGradient id="未命名的渐变_94" x1="166.08" y1="165.93" x2="55.08" y2="54.92" gradientUnits="userSpaceOnUse"><stop offset="0" stop-opacity="0.02"/><stop offset="1" stop-opacity="0.14"/></linearGradient><clipPath id="clip-path"><path class="cls-1" d="M154,96c0,43-15,58-58,58S38,139,38,96,53,38,96,38,154,53,154,96ZM96,50C61.92,50,50,61.92,50,96s11.92,46,46,46,46-11.92,46-46S130.08,50,96,50Zm27,46A27,27,0,1,1,96,69,27,27,0,0,1,123,96Zm-12,0a15,15,0,1,0-15,15A15,15,0,0,0,111,96Zm18-27a6,6,0,1,0-6,6A6,6,0,0,0,129,69Z"/></clipPath><radialGradient id="未命名的渐变_50" cx="54.69" cy="136.25" r="115.07" gradientTransform="translate(0 192) rotate(-90)" gradientUnits="userSpaceOnUse"><stop offset="0" stop-color="#ff0086"/><stop offset="0.8" stop-color="#ea5a63" stop-opacity="0"/></radialGradient><radialGradient id="未命名的渐变_37" cx="55.94" cy="135.75" r="115.07" gradientTransform="translate(0 192) rotate(-90)" gradientUnits="userSpaceOnUse"><stop offset="0" stop-color="#930dfc"/><stop offset="0.8" stop-color="#5143d6" stop-opacity="0"/></radialGradient><radialGradient id="未命名的渐变_83" cx="58.19" cy="136.5" r="115.07" gradientTransform="translate(0 192) rotate(-90)" gradientUnits="userSpaceOnUse"><stop offset="0" stop-color="#ffc324"/><stop offset="0.08" stop-color="#feb521" stop-opacity="0.93"/><stop offset="0.25" stop-color="#fd911b" stop-opacity="0.74"/><stop offset="0.48" stop-color="#fa5710" stop-opacity="0.45"/><stop offset="0.77" stop-color="#f60802" stop-opacity="0.04"/><stop offset="0.8" stop-color="#f60000" stop-opacity="0"/></radialGradient><radialGradient id="未命名的渐变_101" cx="54.44" cy="136.25" r="115.07" gradientTransform="translate(0 192) rotate(-90)" gradientUnits="userSpaceOnUse"><stop offset="0" stop-color="#1a9bff"/><stop offset="1" stop-color="#c01d67" stop-opacity="0"/></radialGradient></defs><title>instagram</title><g id="图层_2" data-name="图层 2"><g id="图层_2-2" data-name="图层 2"><rect class="cls-1" width="192" height="192"/><path class="cls-2" d="M96,190C27.34,190,3,165.66,3,97S27.34,4,96,4s93,24.34,93,93S164.66,190,96,190Z"/><path class="cls-3" d="M96,189C28.07,189,4,164.92,4,97S28.07,5,96,5s92,24.07,92,92S163.93,189,96,189Z"/><path class="cls-4" d="M96,188C28.81,188,5,164.19,5,97S28.81,6,96,6s91,23.81,91,91S163.19,188,96,188Z"/><path class="cls-5" d="M186,97c0,66.67-23.32,90-90,90S6,163.67,6,97,29.32,7,96,7,186,30.32,186,97Z"/><path class="cls-6" d="M186,96c0,66.67-23.32,90-90,90S6,162.67,6,96,29.32,6,96,6,186,29.32,186,96Z"/><path class="cls-7" d="M186,96c0,66.67-23.32,90-90,90S6,162.67,6,96,29.32,6,96,6,186,29.32,186,96Z"/><path class="cls-8" d="M96,6C29.32,6,6,29.32,6,96s23.32,90,90,90,90-23.33,90-90S162.68,6,96,6Zm68.59,158.59C151.17,178,130,184,96,184s-55.17-6-68.59-19.41S8,130,8,96s6-55.17,19.41-68.59S62,8,96,8s55.17,6,68.59,19.41S184,62,184,96,178,151.16,164.59,164.59Z"/><path class="cls-9" d="M186,96c0-.11,0-.21,0-.31L141.13,50.81,96,40,55,55,40,92l11,49,45,45C162.68,186,186,162.67,186,96Z"/><path class="cls-10" d="M148,96c0,38.52-13.47,52-52,52S44,134.52,44,96,57.47,44,96,44,148,57.48,148,96Z"/><g class="cls-11"><rect class="cls-12" x="38" y="38" width="116" height="116" transform="translate(192) rotate(90)"/><rect class="cls-13" x="38" y="38" width="116" height="116"/><rect class="cls-14" x="38" y="38" width="116" height="116" transform="translate(0 192) rotate(-90)"/><rect class="cls-15" x="38" y="38" width="116" height="116" transform="translate(192) rotate(90)"/><rect class="cls-16" x="38" y="38" width="116" height="116" transform="translate(192 192) rotate(180)"/></g></g></g></svg>