<svg xmlns="http://www.w3.org/2000/svg" xmlns:xlink="http://www.w3.org/1999/xlink" viewBox="0 0 192 192"><defs><style>.cls-1{fill:none;}.cls-2{opacity:0.01;}.cls-2,.cls-3,.cls-4,.cls-5{isolation:isolate;}.cls-3{opacity:0.02;}.cls-4{opacity:0.04;}.cls-5{opacity:0.06;}.cls-6{fill:#ff0826;}.cls-7{fill:url(#未命名的渐变_81);}.cls-8{fill:url(#未命名的渐变_2);}.cls-9{fill:url(#未命名的渐变_83);}.cls-10{fill:url(#未命名的渐变_39);}.cls-11{fill:url(#未命名的渐变_61);}</style><linearGradient id="未命名的渐变_81" x1="166" y1="604" x2="26" y2="464" gradientTransform="translate(0 -438)" gradientUnits="userSpaceOnUse"><stop offset="0" stop-opacity="0.12"/><stop offset="0.5" stop-color="gray" stop-opacity="0.05"/><stop offset="1" stop-color="#f8f8f8" stop-opacity="0.12"/><stop offset="1" stop-color="#fff" stop-opacity="0.15"/></linearGradient><linearGradient id="未命名的渐变_2" x1="166" y1="604" x2="25.99" y2="464" gradientTransform="translate(0 -438)" gradientUnits="userSpaceOnUse"><stop offset="0" stop-opacity="0.05"/><stop offset="0.5" stop-color="gray" stop-opacity="0"/><stop offset="1" stop-color="#fff" stop-opacity="0.1"/></linearGradient><linearGradient id="未命名的渐变_83" x1="165.95" y1="-1168.04" x2="66.87" y2="-1068.97" gradientTransform="matrix(1, 0, 0, -1, 0, -1002)" gradientUnits="userSpaceOnUse"><stop offset="0" stop-opacity="0.02"/><stop offset="1" stop-opacity="0.16"/></linearGradient><linearGradient id="未命名的渐变_39" x1="-767.57" y1="-8.29" x2="-766.41" y2="-8.29" gradientTransform="translate(-720.69 74799.06) rotate(90) scale(97.4)" gradientUnits="userSpaceOnUse"><stop offset="0" stop-color="#fff2f4"/><stop offset="1" stop-color="#ffc1c6"/></linearGradient><linearGradient id="未命名的渐变_61" x1="-766.72" y1="-9.45" x2="-765.56" y2="-9.45" gradientTransform="translate(-698.38 66092.91) rotate(90) scale(86.14)" gradientUnits="userSpaceOnUse"><stop offset="0" stop-color="#cd8f94"/><stop offset="1" stop-color="#ffeff2"/></linearGradient></defs><title>opera</title><g id="图层_2" data-name="图层 2"><g id="图层_1-2" data-name="图层 1"><rect class="cls-1" width="192" height="192"/><path class="cls-2" d="M96,190C27.34,190,3,165.66,3,97S27.34,4,96,4s93,24.34,93,93S164.66,190,96,190Z"/><path class="cls-3" d="M96,189C28.07,189,4,164.92,4,97S28.07,5,96,5s92,24.07,92,92S163.93,189,96,189Z"/><path class="cls-4" d="M96,188C28.81,188,5,164.19,5,97S28.81,6,96,6s91,23.81,91,91S163.19,188,96,188Z"/><path class="cls-5" d="M186,97c0,66.67-23.32,90-90,90S6,163.67,6,97,29.32,7,96,7,186,30.32,186,97Z"/><path class="cls-6" d="M186,96c0,66.67-23.32,90-90,90S6,162.67,6,96,29.32,6,96,6,186,29.32,186,96Z"/><path class="cls-7" d="M186,96c0,66.67-23.32,90-90,90S6,162.67,6,96,29.32,6,96,6,186,29.32,186,96Z"/><path class="cls-8" d="M96,6C29.32,6,6,29.32,6,96s23.32,90,90,90,90-23.33,90-90S162.68,6,96,6Zm68.59,158.59C151.17,178,130,184,96,184s-55.17-6-68.59-19.41S8,130,8,96s6-55.17,19.41-68.59S62,8,96,8s55.17,6,68.59,19.41S184,62,184,96,178,151.16,164.59,164.59Z"/><path class="cls-9" d="M185.88,103.88,137,55l-11.83-3.5-7.33-1.67-27-2.33-16.5,12-21.67,32L55,137l48.7,48.89C161.92,184.16,184.11,162,185.88,103.88Z"/><path class="cls-10" d="M96,38A58,58,0,0,0,38,96h0a58,58,0,0,0,55.24,57.93h0c.92,0,1.84.07,2.76.07h0a57.79,57.79,0,0,0,38.66-14.76h0a41.82,41.82,0,0,1-23.25,7.1h0c-13.82,0-26.18-6.86-34.5-17.66h0c-6.42-7.57-10.56-18.76-10.85-31.31h0V94.63h0c.29-12.56,4.43-23.75,10.85-31.31h0c8.32-10.8,20.7-17.66,34.5-17.66h0a41.83,41.83,0,0,1,23.25,7.11h0A57.81,57.81,0,0,0,96.22,38Z"/><path class="cls-11" d="M76.91,63.31c5.32-6.28,12.2-10.08,19.7-10.08h0c16.89,0,30.58,19.15,30.58,42.75h0c0,23.62-13.69,42.75-30.58,42.75h0c-7.51,0-14.38-3.79-19.7-10.06h0c8.32,10.8,20.68,17.66,34.5,17.66h0a41.92,41.92,0,0,0,23.25-7.1h0A57.82,57.82,0,0,0,154,96h0a57.84,57.84,0,0,0-19.34-43.24h0a41.82,41.82,0,0,0-23.25-7.1h0c-13.82,0-26.18,6.86-34.5,17.66"/></g></g></svg>