<svg xmlns="http://www.w3.org/2000/svg" xmlns:xlink="http://www.w3.org/1999/xlink" viewBox="0 0 192 192"><defs><style>.cls-1{fill:none;}.cls-2{opacity:0.01;}.cls-3{opacity:0.02;}.cls-4{opacity:0.04;}.cls-5{opacity:0.06;}.cls-6{fill:#6a8592;}.cls-7{fill:url(#未命名的渐变_8);}.cls-8{fill:url(#未命名的渐变_46);}.cls-9{fill:url(#未命名的渐变_10);}.cls-10{fill:#f5f5f5;}.cls-11{fill:url(#未命名的渐变_41);}.cls-12{fill:#fafafa;}.cls-13{opacity:0.05;}.cls-14{fill:#fff;}</style><linearGradient id="未命名的渐变_8" x1="166" y1="166" x2="26" y2="26" gradientUnits="userSpaceOnUse"><stop offset="0" stop-opacity="0.1"/><stop offset="0.5" stop-color="gray" stop-opacity="0.05"/><stop offset="1" stop-color="#fff" stop-opacity="0.12"/></linearGradient><linearGradient id="未命名的渐变_46" x1="166" y1="166" x2="26" y2="26" gradientUnits="userSpaceOnUse"><stop offset="0" stop-opacity="0.05"/><stop offset="0.5" stop-color="gray" stop-opacity="0"/><stop offset="1" stop-color="#fff" stop-opacity="0.1"/></linearGradient><linearGradient id="未命名的渐变_10" x1="164.85" y1="167.15" x2="60.96" y2="63.26" gradientUnits="userSpaceOnUse"><stop offset="0" stop-opacity="0.06"/><stop offset="1" stop-opacity="0.16"/></linearGradient><linearGradient id="未命名的渐变_41" x1="116.9" y1="160.72" x2="88.59" y2="132.41" gradientUnits="userSpaceOnUse"><stop offset="0" stop-opacity="0.06"/><stop offset="0" stop-opacity="0.02"/><stop offset="1" stop-opacity="0.16"/></linearGradient></defs><title>google_transport</title><g id="图层_2" data-name="图层 2"><g id="图层_2-2" data-name="图层 2"><rect class="cls-1" width="192" height="192"/><path class="cls-2" d="M96,190C27.34,190,3,165.66,3,97S27.34,4,96,4s93,24.34,93,93S164.66,190,96,190Z"/><path class="cls-3" d="M96,189C28.07,189,4,164.92,4,97S28.07,5,96,5s92,24.07,92,92S163.93,189,96,189Z"/><path class="cls-4" d="M96,188C28.81,188,5,164.19,5,97S28.81,6,96,6s91,23.81,91,91S163.19,188,96,188Z"/><path class="cls-5" d="M186,97c0,66.67-23.32,90-90,90S6,163.67,6,97,29.32,7,96,7,186,30.32,186,97Z"/><path class="cls-6" d="M186,96c0,66.67-23.32,90-90,90S6,162.67,6,96,29.32,6,96,6,186,29.32,186,96Z"/><path class="cls-7" d="M186,96c0,66.67-23.32,90-90,90S6,162.67,6,96,29.32,6,96,6,186,29.32,186,96Z"/><path class="cls-8" d="M96,6C29.32,6,6,29.32,6,96s23.32,90,90,90,90-23.33,90-90S162.68,6,96,6Zm68.59,158.59C151.17,178,130,184,96,184s-55.17-6-68.59-19.41S8,130,8,96s6-55.17,19.41-68.59S62,8,96,8s55.17,6,68.59,19.41S184,62,184,96,178,151.16,164.59,164.59Z"/><path class="cls-9" d="M100.06,186c60.7-.91,83.83-22.58,85.8-81.4L134,52.71,59.22,65v68.22L75,149l-9.5,2Z"/><path class="cls-10" d="M68.06,152c-.87,0-3.52-1-3-1.76,1.87-2.59,9.58-8.24,18.13-8.24h25.63c8.54,0,16.25,5.63,18.12,8.23.53.73-2.13,1.77-3,1.77Z"/><path class="cls-3" d="M68.06,152c-.87,0-3.52-1-3-1.76,1.87-2.59,9.58-8.24,18.13-8.24h25.63c8.54,0,16.25,5.63,18.12,8.23.53.73-2.13,1.77-3,1.77Z"/><path class="cls-11" d="M87.52,152h36.4c.88,0,3.53-1,3-1.77-1.87-2.59-9.57-8.23-18.12-8.23H83.19a21.39,21.39,0,0,0-4.74.55Z"/><path class="cls-12" d="M100.44,43H91.56C67.11,43,54,52.14,54,63.86v55.29C54,135,67.11,143,91.56,143h8.89c24.44,0,37.56-8,37.56-21.86V63.86C138,50,124.89,43,100.44,43ZM92,100,60,99V66H92Zm40-1-32,1V66h32ZM70,127a8,8,0,1,1,8-8A8,8,0,0,1,70,127Zm52,0a8,8,0,1,1,8-8A8,8,0,0,1,122,127Z"/><g class="cls-13"><path d="M135.72,55A17.75,17.75,0,0,1,137,61.86v57.29C137,133,123.89,141,99.44,141H90.56c-18,0-29.88-4.37-34.86-13,4.26,10,16.5,15,35.86,15h8.89c24.44,0,37.56-8,37.56-21.86V63.86A17,17,0,0,0,135.72,55Z"/><path d="M121,109a8,8,0,0,0-6.58,12.54,8,8,0,0,1,14.16-7.08A8,8,0,0,0,121,109Z"/><path d="M69,109a8,8,0,0,0-6.58,12.54,8,8,0,0,1,14.16-7.08A8,8,0,0,0,69,109Z"/><polygon points="60 66 91 66 91 64 59 64 59 99 60 99.03 60 66"/><polygon points="100 66 131 66 131 64 99 64 99 100 100 99.97 100 66"/></g><polygon class="cls-14" points="93 68 92 68 92 100 61 99.03 61 101 93 102 93 68"/><path class="cls-14" d="M123,129a8,8,0,0,0,6.58-12.54,8,8,0,0,1-14.16,7.08A8,8,0,0,0,123,129Z"/><path class="cls-14" d="M71,129a8,8,0,0,0,6.58-12.54,8,8,0,0,1-14.16,7.08A8,8,0,0,0,71,129Z"/><path class="cls-14" d="M55,121.14V65.86C55,54.14,68.11,45,92.56,45h8.89C120,45,132,49,136.72,57c-3.84-9.3-16.25-14-36.27-14H91.56C67.11,43,54,52.14,54,63.86v55.29A21.32,21.32,0,0,0,56.69,130,22.32,22.32,0,0,1,55,121.14Z"/><polygon class="cls-14" points="133 68 132 68 132 99 101 99.97 101 102 133 101 133 68"/></g></g></svg>