<svg xmlns="http://www.w3.org/2000/svg" xmlns:xlink="http://www.w3.org/1999/xlink" viewBox="0 0 192 192"><defs><style>.cls-1{fill:none;}.cls-2{opacity:0.01;}.cls-2,.cls-3,.cls-4,.cls-5{isolation:isolate;}.cls-3{opacity:0.02;}.cls-4{opacity:0.04;}.cls-5{opacity:0.06;}.cls-6{fill:#4e8df5;}.cls-7{fill:url(#未命名的渐变);}.cls-8{fill:url(#未命名的渐变_2);}.cls-9{fill:url(#未命名的渐变_3);}.cls-10{fill:url(#未命名的渐变_4);}.cls-11{fill:url(#未命名的渐变_5);}.cls-12{opacity:0.4;}.cls-13{fill:#c0d8f9;}.cls-14{opacity:0.1;}.cls-15{fill:#fff;}.cls-16{opacity:0.03;}.cls-17{opacity:0.05;}.cls-18{fill:#bbd7ff;}</style><linearGradient id="未命名的渐变" x1="166.01" y1="73.99" x2="25.99" y2="214.01" gradientTransform="matrix(1, 0, 0, -1, 0, 240)" gradientUnits="userSpaceOnUse"><stop offset="0" stop-opacity="0.1"/><stop offset="0.5" stop-color="gray" stop-opacity="0.05"/><stop offset="1" stop-color="#fff" stop-opacity="0.12"/></linearGradient><linearGradient id="未命名的渐变_2" x1="-1278.65" y1="46.55" x2="-1158.04" y2="-74.06" gradientTransform="matrix(0, 1, 1, 0, 100.1, 1324)" gradientUnits="userSpaceOnUse"><stop offset="0" stop-opacity="0.04"/><stop offset="0.24" stop-opacity="0"/></linearGradient><linearGradient id="未命名的渐变_3" x1="310.03" y1="78.14" x2="290.54" y2="58.64" gradientTransform="translate(88.1 336) rotate(-90)" gradientUnits="userSpaceOnUse"><stop offset="0.5" stop-opacity="0.1"/><stop offset="1" stop-opacity="0.2"/></linearGradient><linearGradient id="未命名的渐变_4" x1="166.01" y1="73.99" x2="25.99" y2="214.01" gradientTransform="matrix(1, 0, 0, -1, 0, 240)" gradientUnits="userSpaceOnUse"><stop offset="0" stop-opacity="0.05"/><stop offset="0.5" stop-color="gray" stop-opacity="0"/><stop offset="1" stop-color="#fff" stop-opacity="0.1"/></linearGradient><linearGradient id="未命名的渐变_5" x1="194.31" y1="79.52" x2="137.02" y2="136.82" gradientTransform="matrix(1, 0, 0, -1, 0, 192)" gradientUnits="userSpaceOnUse"><stop offset="0" stop-opacity="0.02"/><stop offset="1" stop-opacity="0.12"/></linearGradient></defs><title>google_docs</title><g id="图层_2" data-name="图层 2"><g id="图层_1-2" data-name="图层 1"><rect class="cls-1" width="192" height="192"/><path class="cls-2" d="M96,190C27.3,190,3,165.7,3,97S27.3,4,96,4s93,24.3,93,93S164.7,190,96,190Z"/><path class="cls-3" d="M96,189C28.1,189,4,164.9,4,97S28.1,5,96,5s92,24.1,92,92S163.9,189,96,189Z"/><path class="cls-4" d="M96,188C28.8,188,5,164.2,5,97S28.8,6,96,6s91,23.8,91,91S163.2,188,96,188Z"/><path class="cls-5" d="M186,97c0,66.7-23.3,90-90,90S6,163.7,6,97,29.3,7,96,7,186,30.3,186,97Z"/><path class="cls-6" d="M186,96c0,66.7-23.3,90-90,90S6,162.7,6,96,29.3,6,96,6,186,29.3,186,96Z"/><path class="cls-7" d="M186,96c0,66.7-23.3,90-90,90S6,162.7,6,96,29.3,6,96,6,186,29.3,186,96Z"/><path class="cls-8" d="M186.1,96c0-4-.1-7.8-.3-11.5L107.5,6.2C103.9,6,100,5.9,96,5.9c-66.7,0-90,23.3-90,90S29.4,186,96.1,186,186.1,162.7,186.1,96Z"/><path class="cls-9" d="M107.5,6.2,186,84.7C183.5,30.2,161.9,8.7,107.5,6.2Z"/><path class="cls-10" d="M96,6C29.3,6,6,29.3,6,96s23.3,90,90,90,90-23.3,90-90S162.7,6,96,6Zm68.6,158.6C151.2,178,130,184,96,184s-55.2-6-68.6-19.4S8,130,8,96s6-55.2,19.4-68.6S62,8,96,8s55.2,6,68.6,19.4S184,62,184,96,178,151.2,164.6,164.6Z"/><path class="cls-11" d="M184.58,122.21A203.22,203.22,0,0,0,186.1,96c0-4-.1-7.8-.3-11.5l-39-39L127.29,64.91Z"/><g class="cls-12"><path class="cls-13" d="M128,78H64a4,4,0,0,1-4-4V72a4,4,0,0,1,4-4h64a4,4,0,0,1,4,4v2A4,4,0,0,1,128,78Zm4,16V92a4,4,0,0,0-4-4H64a4,4,0,0,0-4,4v2a4,4,0,0,0,4,4h64A4,4,0,0,0,132,94Zm0,20v-2a4,4,0,0,0-4-4H64a4,4,0,0,0-4,4v2a4,4,0,0,0,4,4h64A4,4,0,0,0,132,114Zm-28,20v-2a4,4,0,0,0-4-4H64a4,4,0,0,0-4,4v2a4,4,0,0,0,4,4h36A4,4,0,0,0,104,134Z"/><g class="cls-14"><path class="cls-15" d="M102,128.56V130a4,4,0,0,1-4,4H62a4,4,0,0,1-2-.56V134a4,4,0,0,0,4,4h36a4,4,0,0,0,4-4v-2A4,4,0,0,0,102,128.56Z"/><path class="cls-15" d="M130,108.56V110a4,4,0,0,1-4,4H62a4,4,0,0,1-2-.56V114a4,4,0,0,0,4,4h64a4,4,0,0,0,4-4v-2A4,4,0,0,0,130,108.56Z"/><path class="cls-15" d="M130,68.56V70a4,4,0,0,1-4,4H62a4,4,0,0,1-2-.56V74a4,4,0,0,0,4,4h64a4,4,0,0,0,4-4V72A4,4,0,0,0,130,68.56Z"/><path class="cls-15" d="M130,88.56V90a4,4,0,0,1-4,4H62a4,4,0,0,1-2-.56V94a4,4,0,0,0,4,4h64a4,4,0,0,0,4-4V92A4,4,0,0,0,130,88.56Z"/></g><g class="cls-14"><path class="cls-15" d="M131,110v2a4,4,0,0,1-4,4H63a4,4,0,0,1-2.93-1.3A4,4,0,0,0,64,118h64a4,4,0,0,0,4-4v-2a4,4,0,0,0-1.07-2.7A4,4,0,0,1,131,110Z"/><path class="cls-15" d="M103,130v2a4,4,0,0,1-4,4H63a4,4,0,0,1-2.93-1.3A4,4,0,0,0,64,138h36a4,4,0,0,0,4-4v-2a4,4,0,0,0-1.07-2.7A4,4,0,0,1,103,130Z"/><path class="cls-15" d="M131,90v2a4,4,0,0,1-4,4H63a4,4,0,0,1-2.93-1.3A4,4,0,0,0,64,98h64a4,4,0,0,0,4-4V92a4,4,0,0,0-1.07-2.7A4,4,0,0,1,131,90Z"/><path class="cls-15" d="M130.93,69.3a4,4,0,0,1,.07.7v2a4,4,0,0,1-4,4H63a4,4,0,0,1-2.93-1.3A4,4,0,0,0,64,78h64a4,4,0,0,0,4-4V72A4,4,0,0,0,130.93,69.3Z"/></g><g class="cls-16"><path d="M62,77.44V76a4,4,0,0,1,4-4h64a4,4,0,0,1,2,.56V72a4,4,0,0,0-4-4H64a4,4,0,0,0-4,4v2A4,4,0,0,0,62,77.44Z"/><path d="M62,97.44V96a4,4,0,0,1,4-4h64a4,4,0,0,1,2,.56V92a4,4,0,0,0-4-4H64a4,4,0,0,0-4,4v2A4,4,0,0,0,62,97.44Z"/><path d="M62,136a4,4,0,0,1,4-4h36a4,4,0,0,1,2,.56V132a4,4,0,0,0-4-4H64a4,4,0,0,0-4,4v2a4,4,0,0,0,2,3.44Z"/><path d="M62,117.44V116a4,4,0,0,1,4-4h64a4,4,0,0,1,2,.56V112a4,4,0,0,0-4-4H64a4,4,0,0,0-4,4v2A4,4,0,0,0,62,117.44Z"/></g><g class="cls-17"><path d="M61,96V94a4,4,0,0,1,4-4h64a4,4,0,0,1,2.93,1.3A4,4,0,0,0,128,88H64a4,4,0,0,0-4,4v2a4,4,0,0,0,1.07,2.7A4,4,0,0,1,61,96Z"/><path d="M61,76V74a4,4,0,0,1,4-4h64a4,4,0,0,1,2.93,1.3A4,4,0,0,0,128,68H64a4,4,0,0,0-4,4v2a4,4,0,0,0,1.07,2.7A4,4,0,0,1,61,76Z"/><path d="M61,136v-2a4,4,0,0,1,4-4h36a4,4,0,0,1,2.93,1.3A4,4,0,0,0,100,128H64a4,4,0,0,0-4,4v2a4,4,0,0,0,1.07,2.7A4,4,0,0,1,61,136Z"/><path d="M61,116v-2a4,4,0,0,1,4-4h64a4,4,0,0,1,2.93,1.3A4,4,0,0,0,128,108H64a4,4,0,0,0-4,4v2a4,4,0,0,0,1.07,2.7A4,4,0,0,1,61,116Z"/></g></g><path class="cls-18" d="M186,84.7,107.5,6.2C110,60.5,131.5,82.2,186,84.7Z"/></g></g></svg>