<svg xmlns="http://www.w3.org/2000/svg" xmlns:xlink="http://www.w3.org/1999/xlink" viewBox="0 0 192 192"><defs><style>.cls-1{fill:none;}.cls-2{opacity:0.01;}.cls-11,.cls-13,.cls-16,.cls-17,.cls-2,.cls-3,.cls-4,.cls-5{isolation:isolate;}.cls-3{opacity:0.02;}.cls-4{opacity:0.04;}.cls-5{opacity:0.06;}.cls-6{fill:#f5f5f5;}.cls-7{fill:url(#未命名的渐变);}.cls-8{fill:url(#未命名的渐变_2);}.cls-9{fill:url(#未命名的渐变_10);}.cls-10{fill:#3aab58;}.cls-11{fill:#00f076;}.cls-11,.cls-13,.cls-17{opacity:0.2;}.cls-12{fill:#4687f7;}.cls-13{fill:#00d2ff;}.cls-14{fill:#fdc00c;}.cls-15{fill:#ec5042;}.cls-16{opacity:0.05;}.cls-17{fill:#fff;}</style><linearGradient id="未命名的渐变" x1="166" y1="78" x2="26" y2="218" gradientTransform="matrix(1, 0, 0, -1, 0, 244)" gradientUnits="userSpaceOnUse"><stop offset="0" stop-opacity="0.1"/><stop offset="0.5" stop-color="gray" stop-opacity="0.05"/><stop offset="1" stop-color="#fff" stop-opacity="0.12"/></linearGradient><linearGradient id="未命名的渐变_2" x1="166" y1="78" x2="25.99" y2="218" gradientTransform="matrix(1, 0, 0, -1, 0, 244)" gradientUnits="userSpaceOnUse"><stop offset="0" stop-opacity="0.05"/><stop offset="0.5" stop-color="gray" stop-opacity="0"/><stop offset="1" stop-color="#fff" stop-opacity="0.1"/></linearGradient><linearGradient id="未命名的渐变_10" x1="157.24" y1="772.76" x2="93.75" y2="709.26" gradientTransform="translate(0 -598)" gradientUnits="userSpaceOnUse"><stop offset="0" stop-opacity="0"/><stop offset="1" stop-opacity="0.12"/></linearGradient></defs><title>google_play_1</title><g id="图层_2" data-name="图层 2"><g id="图层_1-2" data-name="图层 1"><g id="图层_2-3" data-name="图层 2-3"><g id="图层_2-2-2" data-name="图层 2-2-2"><rect class="cls-1" width="192" height="192"/><path class="cls-2" d="M96,190C27.34,190,3,165.66,3,97S27.34,4,96,4s93,24.34,93,93S164.66,190,96,190Z"/><path class="cls-3" d="M96,189C28.07,189,4,164.92,4,97S28.07,5,96,5s92,24.07,92,92S163.93,189,96,189Z"/><path class="cls-4" d="M96,188C28.81,188,5,164.19,5,97S28.81,6,96,6s91,23.81,91,91S163.19,188,96,188Z"/><path class="cls-5" d="M186,97c0,66.67-23.32,90-90,90S6,163.67,6,97,29.32,7,96,7,186,30.32,186,97Z"/><path class="cls-6" d="M186,96c0,66.67-23.32,90-90,90S6,162.67,6,96,29.32,6,96,6,186,29.32,186,96Z"/><path class="cls-7" d="M186,96c0,66.67-23.32,90-90,90S6,162.67,6,96,29.32,6,96,6,186,29.32,186,96Z"/><path class="cls-8" d="M96,6C29.32,6,6,29.32,6,96s23.32,90,90,90,90-23.33,90-90S162.68,6,96,6Zm68.59,158.59C151.17,178,130,184,96,184s-55.17-6-68.59-19.41S8,130,8,96s6-55.17,19.41-68.59S62,8,96,8s55.17,6,68.59,19.41S184,62,184,96,178,151.16,164.59,164.59Z"/><path class="cls-9" d="M183.59,128,149,93.45,57.19,147.81,95.37,186H96C150.62,186,176.15,170.34,183.59,128Z"/><path class="cls-10" d="M119.65,76.37,62,43.42a4,4,0,0,0-2-.53L103.56,96Z"/><path class="cls-11" d="M119.65,76.37,62,43.42a4,4,0,0,0-2-.53L103.56,96Z"/><path class="cls-12" d="M60,42.89h0a4,4,0,0,0-4,4V145.1a4,4,0,0,0,4,4h0L103.56,96Z"/><path class="cls-13" d="M60,42.89h0a4,4,0,0,0-4,4V145.1a4,4,0,0,0,4,4h0L103.56,96Z"/><path class="cls-14" d="M149.94,96a4,4,0,0,0-2-3.47L119.65,76.37,103.56,96l16.09,19.63,28.27-16.15A4,4,0,0,0,149.94,96Z"/><path class="cls-15" d="M60,149.11a4,4,0,0,0,2-.53l57.67-33L103.56,96Z"/><path class="cls-16" d="M148.86,93.28a3.93,3.93,0,0,1-1.94,4.19l-28.27,16.15L61,146.58a4,4,0,0,1-2,.53h0a4,4,0,0,1-2.93-1.28A4,4,0,0,0,60,149.11h0a4,4,0,0,0,2-.53l57.67-33,28.27-16.15a4,4,0,0,0,.94-6.19Z"/><path class="cls-17" d="M57,49.89a4,4,0,0,1,4-4h0a4,4,0,0,1,2,.53l57.67,33,28.27,16.15a4,4,0,0,1,1,.81V96a4,4,0,0,0-2-3.47l-28.29-16.2L62,43.42a4,4,0,0,0-2-.53h0a4,4,0,0,0-4,4V145.1a4,4,0,0,0,1,2.63Z"/></g></g></g></g></svg>