<svg xmlns="http://www.w3.org/2000/svg" xmlns:xlink="http://www.w3.org/1999/xlink" viewBox="0 0 192 192"><defs><style>.cls-1{fill:none;}.cls-2{opacity:0.01;}.cls-3{opacity:0.02;}.cls-4{opacity:0.04;}.cls-5{opacity:0.06;}.cls-6{fill:#14826d;}.cls-7{fill:url(#未命名的渐变_8);}.cls-8{fill:url(#未命名的渐变_46);}.cls-9{fill:url(#未命名的渐变_32);}.cls-10{fill:#fff;}</style><linearGradient id="未命名的渐变_8" x1="166" y1="166" x2="26" y2="26" gradientUnits="userSpaceOnUse"><stop offset="0" stop-opacity="0.1"/><stop offset="0.5" stop-color="gray" stop-opacity="0.05"/><stop offset="1" stop-color="#fff" stop-opacity="0.12"/></linearGradient><linearGradient id="未命名的渐变_46" x1="166" y1="166" x2="26" y2="26" gradientUnits="userSpaceOnUse"><stop offset="0" stop-opacity="0.05"/><stop offset="0.5" stop-color="gray" stop-opacity="0"/><stop offset="1" stop-color="#fff" stop-opacity="0.1"/></linearGradient><linearGradient id="未命名的渐变_32" x1="165.95" y1="166.06" x2="59.94" y2="60.06" gradientUnits="userSpaceOnUse"><stop offset="0" stop-opacity="0.06"/><stop offset="1" stop-opacity="0.18"/></linearGradient></defs><title>microsoft_bing_foodanddrink</title><g id="图层_2" data-name="图层 2"><g id="图层_2-2" data-name="图层 2"><rect class="cls-1" width="192" height="192"/><path class="cls-2" d="M96,190C27.34,190,3,165.66,3,97S27.34,4,96,4s93,24.34,93,93S164.66,190,96,190Z"/><path class="cls-3" d="M96,189C28.07,189,4,164.92,4,97S28.07,5,96,5s92,24.07,92,92S163.93,189,96,189Z"/><path class="cls-4" d="M96,188C28.81,188,5,164.19,5,97S28.81,6,96,6s91,23.81,91,91S163.19,188,96,188Z"/><path class="cls-5" d="M186,97c0,66.67-23.32,90-90,90S6,163.67,6,97,29.32,7,96,7,186,30.32,186,97Z"/><path class="cls-6" d="M186,96c0,66.67-23.32,90-90,90S6,162.67,6,96,29.32,6,96,6,186,29.32,186,96Z"/><path class="cls-7" d="M186,96c0,66.67-23.32,90-90,90S6,162.67,6,96,29.32,6,96,6,186,29.32,186,96Z"/><path class="cls-8" d="M96,6C29.32,6,6,29.32,6,96s23.32,90,90,90,90-23.33,90-90S162.68,6,96,6Zm68.59,158.59C151.17,178,130,184,96,184s-55.17-6-68.59-19.41S8,130,8,96s6-55.17,19.41-68.59S62,8,96,8s55.17,6,68.59,19.41S184,62,184,96,178,151.16,164.59,164.59Z"/><path class="cls-9" d="M186,99.23,132.92,46.17,67,53l-7.72,93.22L99,186C162.32,185.29,185.24,162.43,186,99.23Z"/><path class="cls-10" d="M124,42H68A12,12,0,0,0,56,54v84a12,12,0,0,0,12,12h56a12,12,0,0,0,12-12V54A12,12,0,0,0,124,42ZM91,78l-2,5-5,9v42a2,2,0,0,1-2,2H78a2,2,0,0,1-2-2V92l-5-9-2-5,1-20a2,2,0,0,1,4,0V73.5c0,1.38.63,2.5,2,2.5s2-1.12,2-2.5V58a2,2,0,0,1,4,0V73.5c0,1.38.63,2.5,2,2.5s2-1.12,2-2.5V58a2,2,0,0,1,4,0Zm25,11.27V134a2,2,0,0,1-2,2h-4a2,2,0,0,1-2-2V89.27c-4.66-2.28-8-8.42-8-15.65C100,64.44,105.37,56,112,56s12,8.44,12,17.62C124,80.85,120.66,87,116,89.27Z"/></g></g></svg>