<svg xmlns="http://www.w3.org/2000/svg" xmlns:xlink="http://www.w3.org/1999/xlink" viewBox="0 0 192 192"><defs><style>.cls-1{fill:none;}.cls-2{opacity:0.01;}.cls-2,.cls-3,.cls-4,.cls-5{isolation:isolate;}.cls-3{opacity:0.02;}.cls-4{opacity:0.04;}.cls-5{opacity:0.06;}.cls-6{fill:#0086ff;}.cls-7{fill:url(#未命名的渐变_3);}.cls-8{fill:url(#未命名的渐变_112);}.cls-9{fill:url(#未命名的渐变_25);}.cls-10{fill:#fafafa;}.cls-11{fill:url(#未命名的渐变_19);}.cls-12{fill:#fff;}.cls-13{fill:url(#未命名的渐变_23);}.cls-14{fill:#15b1ff;}</style><linearGradient id="未命名的渐变_3" x1="166" y1="188" x2="26" y2="328" gradientTransform="matrix(1, 0, 0, -1, 0, 354)" gradientUnits="userSpaceOnUse"><stop offset="0" stop-opacity="0.1"/><stop offset="0.5" stop-color="gray" stop-opacity="0.05"/><stop offset="1" stop-color="#fff" stop-opacity="0.12"/></linearGradient><linearGradient id="未命名的渐变_112" x1="166" y1="188" x2="25.99" y2="328" gradientTransform="matrix(1, 0, 0, -1, 0, 354)" gradientUnits="userSpaceOnUse"><stop offset="0" stop-opacity="0.05"/><stop offset="0.5" stop-color="gray" stop-opacity="0"/><stop offset="1" stop-color="#fff" stop-opacity="0.1"/></linearGradient><linearGradient id="未命名的渐变_25" x1="162.74" y1="169.26" x2="91.76" y2="98.27" gradientUnits="userSpaceOnUse"><stop offset="0" stop-opacity="0.02"/><stop offset="1" stop-opacity="0.16"/></linearGradient><linearGradient id="未命名的渐变_19" x1="63.98" y1="155.65" x2="69.72" y2="139.9" gradientUnits="userSpaceOnUse"><stop offset="0.2" stop-opacity="0"/><stop offset="1" stop-opacity="0.14"/></linearGradient><linearGradient id="未命名的渐变_23" x1="135.71" y1="134.52" x2="85.59" y2="84.41" gradientUnits="userSpaceOnUse"><stop offset="0" stop-opacity="0"/><stop offset="1" stop-opacity="0.1"/></linearGradient></defs><title>facebook_messenger</title><g id="图层_2" data-name="图层 2"><g id="图层_2-2" data-name="图层 2"><rect class="cls-1" width="192" height="192"/><path class="cls-2" d="M96,190C27.34,190,3,165.66,3,97S27.34,4,96,4s93,24.34,93,93S164.66,190,96,190Z"/><path class="cls-3" d="M96,189C28.07,189,4,164.92,4,97S28.07,5,96,5s92,24.07,92,92S163.93,189,96,189Z"/><path class="cls-4" d="M96,188C28.81,188,5,164.19,5,97S28.81,6,96,6s91,23.81,91,91S163.19,188,96,188Z"/><path class="cls-5" d="M186,97c0,66.67-23.32,90-90,90S6,163.67,6,97,29.32,7,96,7,186,30.32,186,97Z"/><path class="cls-6" d="M186,96c0,66.67-23.32,90-90,90S6,162.67,6,96,29.32,6,96,6,186,29.32,186,96Z"/><path class="cls-7" d="M186,96c0,66.67-23.32,90-90,90S6,162.67,6,96,29.32,6,96,6,186,29.32,186,96Z"/><path class="cls-8" d="M96,6C29.32,6,6,29.32,6,96s23.32,90,90,90,90-23.33,90-90S162.68,6,96,6Zm68.59,158.59C151.17,178,130,184,96,184s-55.17-6-68.59-19.41S8,130,8,96s6-55.17,19.41-68.59S62,8,96,8s55.17,6,68.59,19.41S184,62,184,96,178,151.16,164.59,164.59Z"/><path class="cls-9" d="M185.81,105.84,135,55,60,153l33,33,3,0C159.29,186,183.51,165,185.81,105.84Z"/><path class="cls-10" d="M59,136v15.68a3.09,3.09,0,0,0,4.62,2.68L80,145Z"/><path class="cls-11" d="M59,136v15.68a3.09,3.09,0,0,0,4.62,2.68L80,145Z"/><ellipse class="cls-10" cx="96" cy="95" rx="58" ry="54"/><path class="cls-12" d="M39,97c0-29.82,26-54,58-54,22.83,0,42.57,12.29,52,30.14C140,54.21,119.67,41,96,41,64,41,38,65.18,38,95a50.75,50.75,0,0,0,6,23.86A50.65,50.65,0,0,1,39,97Z"/><path class="cls-13" d="M154,96.58,134.54,77.17,108,98,88,95,57.5,112.5,94,149c.68,0,1.36,0,2,0C127.46,149,153.06,125.67,154,96.58Z"/><path class="cls-14" d="M58,113a1,1,0,0,1-.73-1.69l32-34A1,1,0,0,1,90,77h0a1,1,0,0,1,.73.32L105.2,92.75l28.32-15.62a1,1,0,0,1,1.21,1.56l-32,34a1,1,0,0,1-.73.31h0a1,1,0,0,1-.73-.32L86.8,97.25,58.48,112.88A1,1,0,0,1,58,113Z"/></g></g></svg>