<svg xmlns="http://www.w3.org/2000/svg" xmlns:xlink="http://www.w3.org/1999/xlink" viewBox="0 0 192 192"><defs><style>.cls-1{fill:none;}.cls-2{opacity:0.01;}.cls-3{opacity:0.02;}.cls-4{opacity:0.04;}.cls-5{opacity:0.06;}.cls-6{fill:#00aeef;}.cls-7{fill:url(#未命名的渐变_87);}.cls-8{fill:url(#未命名的渐变_46);}.cls-9{fill:url(#未命名的渐变_83);}.cls-10{fill:#fff;}.cls-11{opacity:0.05;}.cls-12{fill:url(#未命名的渐变_79);}</style><linearGradient id="未命名的渐变_87" x1="166" y1="166" x2="26" y2="26" gradientUnits="userSpaceOnUse"><stop offset="0" stop-opacity="0.12"/><stop offset="0.5" stop-color="gray" stop-opacity="0.05"/><stop offset="1" stop-color="#fff" stop-opacity="0.12"/></linearGradient><linearGradient id="未命名的渐变_46" x1="166" y1="166" x2="26" y2="26" gradientUnits="userSpaceOnUse"><stop offset="0" stop-opacity="0.05"/><stop offset="0.5" stop-color="gray" stop-opacity="0"/><stop offset="1" stop-color="#fff" stop-opacity="0.1"/></linearGradient><linearGradient id="未命名的渐变_83" x1="165.82" y1="166.18" x2="95.28" y2="95.64" gradientUnits="userSpaceOnUse"><stop offset="0" stop-opacity="0.06"/><stop offset="1" stop-opacity="0.18"/></linearGradient><linearGradient id="未命名的渐变_79" x1="120.46" y1="120.48" x2="72.74" y2="72.76" gradientUnits="userSpaceOnUse"><stop offset="0" stop-opacity="0.04"/><stop offset="1" stop-opacity="0.12"/></linearGradient></defs><title>microsoft_skype</title><g id="图层_2" data-name="图层 2"><g id="图层_2-2" data-name="图层 2"><rect class="cls-1" width="192" height="192"/><path class="cls-2" d="M96,190C27.34,190,3,165.66,3,97S27.34,4,96,4s93,24.34,93,93S164.66,190,96,190Z"/><path class="cls-3" d="M96,189C28.07,189,4,164.92,4,97S28.07,5,96,5s92,24.07,92,92S163.93,189,96,189Z"/><path class="cls-4" d="M96,188C28.81,188,5,164.19,5,97S28.81,6,96,6s91,23.81,91,91S163.19,188,96,188Z"/><path class="cls-5" d="M186,97c0,66.67-23.32,90-90,90S6,163.67,6,97,29.32,7,96,7,186,30.32,186,97Z"/><path class="cls-6" d="M186,96c0,66.67-23.32,90-90,90S6,162.67,6,96,29.32,6,96,6,186,29.32,186,96Z"/><path class="cls-7" d="M186,96c0,66.67-23.32,90-90,90S6,162.67,6,96,29.32,6,96,6,186,29.32,186,96Z"/><path class="cls-8" d="M96,6C29.32,6,6,29.32,6,96s23.32,90,90,90,90-23.33,90-90S162.68,6,96,6Zm68.59,158.59C151.17,178,130,184,96,184s-55.17-6-68.59-19.41S8,130,8,96s6-55.17,19.41-68.59S62,8,96,8s55.17,6,68.59,19.41S184,62,184,96,178,151.16,164.59,164.59Z"/><path class="cls-9" d="M60.59,132.48l52.23,52.95c48.33-3.53,68.87-23.86,72.56-71.93l-54-54Z"/><path id="_路径_" data-name="&lt;路径&gt;" class="cls-6" d="M97.4,129.52c-18.69,0-27.07-9.87-27.07-16.63,0-3.46,2.59-5.9,6.2-5.9,8,0,5.93,11.36,20.87,11.36,7.62,0,11.82-4.14,11.82-8.32,0-2.5-1.25-5.28-6.29-6.5l-16.6-4.05c-13.41-3.31-15.68-10.22-15.68-16.9,0-13.86,12.84-20.12,25.33-20.12,11.5,0,25.36,7.12,25.36,15.44,0,3.54-3.13,5.63-6.74,5.63-6.82,0-5.66-9.89-19.4-9.89-6.83,0-10.4,3.34-10.4,7.66s5.28,6,10,7.09l12.31,2.69C120.55,94,124,101.72,124,109,124,120.26,115.19,129.52,97.4,129.52Z"/><path class="cls-10" d="M145.92,105.71a49.82,49.82,0,0,0,.93-9.71A50.85,50.85,0,0,0,96,45.16a49.39,49.39,0,0,0-9.71.92A29.6,29.6,0,0,0,46.05,86.32,51.57,51.57,0,0,0,45.13,96c0,28.1,22.77,51.41,50.87,51.41,3.3,0,6.56-.87,9.69-1.46a29.58,29.58,0,0,0,40.23-40.23ZM97.4,129.52c-18.69,0-27.07-9.87-27.07-16.63,0-3.46,2.59-5.9,6.2-5.9,8,0,5.93,11.36,20.87,11.36,7.62,0,11.82-4.14,11.82-8.32,0-2.5-1.25-5.28-6.29-6.5l-16.6-4.05c-13.41-3.31-15.68-10.22-15.68-16.9,0-13.86,12.84-20.12,25.33-20.12,11.5,0,25.36,7.12,25.36,15.44,0,3.54-3.13,5.63-6.74,5.63-6.82,0-5.66-9.89-19.4-9.89-6.83,0-10.4,3.34-10.4,7.66s5.28,6,10,7.09l12.31,2.69C120.55,94,124,101.72,124,109,124,120.26,115.19,129.52,97.4,129.52Z"/><path class="cls-11" d="M107.08,91.08,94.77,88.4c-4.33-1-9.17-2.52-9.86-6.18a9.41,9.41,0,0,0-.09,1.23c0,6.59,8.15,8.41,11.63,9.19l12.32,2.69c9.73,2.11,14.7,6.9,15.16,14.61,0-.31,0-.62,0-.94C124,101.72,120.55,94,107.08,91.08Z"/><path class="cls-11" d="M114.62,83.54a9,9,0,0,0,1.31-.1c-1.25-.27-2.12-1.2-3.53-2.83-2.53-2.94-6-7-15-7-.3,0-.57,0-.86,0C108.89,74.28,108,83.54,114.62,83.54Z"/><path class="cls-4" d="M74.63,115c0-2.25,1.63-3.76,4.05-3.76,2.23,0,3.22,1.15,5.09,3.54,2.58,3.3,6.1,7.82,15.78,7.82,9.17,0,14-5.26,14-10.46,0-2.49-1-6.92-7.93-8.58L89,99.54c-12.34-3-14-8.92-14-14.81,0-12.41,11.65-18,23.19-18,10.66,0,21.9,6.1,23.1,12.23a5.54,5.54,0,0,0,.11-1.08c0-8.32-13.86-15.44-25.36-15.44-12.49,0-25.33,6.26-25.33,20.12,0,6.68,2.27,13.59,15.68,16.9l16.6,4.05c5,1.22,6.29,4,6.29,6.5,0,4.18-4.2,8.32-11.82,8.32C82.47,118.35,84.52,107,76.54,107c-3.61,0-6.2,2.45-6.2,5.9,0,6.76,8.38,16.63,27.07,16.63.36,0,.7,0,1.06,0C82.23,129.12,74.63,120.75,74.63,115Z"/><path id="_路径_2" data-name="&lt;路径&gt;" class="cls-12" d="M97.4,129.52c-18.69,0-27.07-9.87-27.07-16.63,0-3.46,2.59-5.9,6.2-5.9,8,0,5.93,11.36,20.87,11.36,7.62,0,11.82-4.14,11.82-8.32,0-2.5-1.25-5.28-6.29-6.5l-16.6-4.05c-13.41-3.31-15.68-10.22-15.68-16.9,0-13.86,12.84-20.12,25.33-20.12,11.5,0,25.36,7.12,25.36,15.44,0,3.54-3.13,5.63-6.74,5.63-6.82,0-5.66-9.89-19.4-9.89-6.83,0-10.4,3.34-10.4,7.66s5.28,6,10,7.09l12.31,2.69C120.55,94,124,101.72,124,109,124,120.26,115.19,129.52,97.4,129.52Z"/></g></g></svg>