<svg xmlns="http://www.w3.org/2000/svg" xmlns:xlink="http://www.w3.org/1999/xlink" viewBox="0 0 192 192"><defs><style>.cls-1{fill:none;}.cls-2{opacity:0.01;}.cls-3{opacity:0.02;}.cls-4{opacity:0.04;}.cls-5{opacity:0.06;}.cls-6{fill:#04bdd5;}.cls-7{fill:url(#未命名的渐变_8);}.cls-8{fill:url(#未命名的渐变_46);}.cls-9{fill:url(#未命名的渐变_4);}.cls-10{fill:#f5f5f5;}.cls-11{fill:#fff;}.cls-12{fill:url(#未命名的渐变_83);}</style><linearGradient id="未命名的渐变_8" x1="166" y1="166" x2="26" y2="26" gradientUnits="userSpaceOnUse"><stop offset="0" stop-opacity="0.1"/><stop offset="0.5" stop-color="gray" stop-opacity="0.05"/><stop offset="1" stop-color="#fff" stop-opacity="0.12"/></linearGradient><linearGradient id="未命名的渐变_46" x1="166" y1="166" x2="26" y2="26" gradientUnits="userSpaceOnUse"><stop offset="0" stop-opacity="0.05"/><stop offset="0.5" stop-color="gray" stop-opacity="0"/><stop offset="1" stop-color="#fff" stop-opacity="0.1"/></linearGradient><linearGradient id="未命名的渐变_4" x1="164" y1="168" x2="65.5" y2="69.5" gradientUnits="userSpaceOnUse"><stop offset="0" stop-opacity="0.02"/><stop offset="1" stop-opacity="0.18"/></linearGradient><linearGradient id="未命名的渐变_83" x1="96" y1="60" x2="96" y2="39" gradientUnits="userSpaceOnUse"><stop offset="0" stop-opacity="0.08"/><stop offset="0.5" stop-opacity="0"/></linearGradient></defs><title>google_trips</title><g id="图层_2" data-name="图层 2"><g id="图层_2-2" data-name="图层 2"><rect class="cls-1" width="192" height="192"/><path class="cls-2" d="M96,190C27.34,190,3,165.66,3,97S27.34,4,96,4s93,24.34,93,93S164.66,190,96,190Z"/><path class="cls-3" d="M96,189C28.07,189,4,164.92,4,97S28.07,5,96,5s92,24.07,92,92S163.93,189,96,189Z"/><path class="cls-4" d="M96,188C28.81,188,5,164.19,5,97S28.81,6,96,6s91,23.81,91,91S163.19,188,96,188Z"/><path class="cls-5" d="M186,97c0,66.67-23.32,90-90,90S6,163.67,6,97,29.32,7,96,7,186,30.32,186,97Z"/><path class="cls-6" d="M186,96c0,66.67-23.32,90-90,90S6,162.67,6,96,29.32,6,96,6,186,29.32,186,96Z"/><path class="cls-7" d="M186,96c0,66.67-23.32,90-90,90S6,162.67,6,96,29.32,6,96,6,186,29.32,186,96Z"/><path class="cls-8" d="M96,6C29.32,6,6,29.32,6,96s23.32,90,90,90,90-23.33,90-90S162.68,6,96,6Zm68.59,158.59C151.17,178,130,184,96,184s-55.17-6-68.59-19.41S8,130,8,96s6-55.17,19.41-68.59S62,8,96,8s55.17,6,68.59,19.41S184,62,184,96,178,151.16,164.59,164.59Z"/><path class="cls-9" d="M185.88,103.95,146.13,64.5H130L109.38,43.88,83,52,45.83,135.75,96.08,186C160,186,184,164.51,185.88,103.95Z"/><path class="cls-10" d="M136,60H117a21,21,0,0,0-42,0H56A14,14,0,0,0,42,74v52a14,14,0,0,0,14,14h80a14,14,0,0,0,14-14V74A14,14,0,0,0,136,60ZM96,49a11,11,0,0,1,11,11H85A11,11,0,0,1,96,49Z"/><path class="cls-11" d="M43,128V76A14,14,0,0,1,57,62h80a14,14,0,0,1,12,6.83A14,14,0,0,0,136,60H56A14,14,0,0,0,42,74v52a13.86,13.86,0,0,0,2,7.17A13.85,13.85,0,0,1,43,128Z"/><path class="cls-12" d="M96,39A21,21,0,0,0,75,60H85a11,11,0,0,1,22,0h10A21,21,0,0,0,96,39Z"/><path class="cls-5" d="M117,60a21,21,0,0,0-42,0H56A14,14,0,0,0,42,74v52a14,14,0,0,0,10.47,13.53L132,60ZM85,60a11,11,0,0,1,22,0Z"/></g></g></svg>