<svg xmlns="http://www.w3.org/2000/svg" xmlns:xlink="http://www.w3.org/1999/xlink" width="192" height="192" viewBox="0 0 192 192"><defs><style>.cls-1{fill:none;}.cls-2{opacity:0.01;}.cls-11,.cls-2,.cls-3,.cls-4,.cls-5{isolation:isolate;}.cls-3{opacity:0.02;}.cls-4{opacity:0.04;}.cls-5{opacity:0.06;}.cls-6{fill:#ffc800;}.cls-7{fill:url(#未命名的渐变_31);}.cls-8{fill:url(#未命名的渐变_61);}.cls-9{fill:url(#未命名的渐变_3);}.cls-10{fill:#ffe317;}.cls-11{opacity:0.6;fill:url(#未命名的渐变_4);}.cls-12{fill:#00bc4c;}.cls-13{opacity:0.8;fill:url(#未命名的渐变_58);}.cls-14{fill:#fff466;opacity:0.6;}.cls-15{opacity:0.2;}.cls-16{fill:#28f97c;}</style><linearGradient id="未命名的渐变_31" x1="166.004" y1="6.002" x2="25.998" y2="-134.004" gradientTransform="translate(0 160)" gradientUnits="userSpaceOnUse"><stop offset="0" stop-opacity="0.1"/><stop offset="0.5" stop-color="gray" stop-opacity="0.05"/><stop offset="1" stop-color="#fff" stop-opacity="0.15"/></linearGradient><linearGradient id="未命名的渐变_61" x1="167.829" y1="4.178" x2="75.493" y2="-88.148" gradientTransform="translate(0 160)" gradientUnits="userSpaceOnUse"><stop offset="0" stop-opacity="0.02"/><stop offset="1" stop-opacity="0.12"/></linearGradient><linearGradient id="未命名的渐变_3" x1="166.005" y1="6.002" x2="25.992" y2="-134.002" gradientTransform="translate(0 160)" gradientUnits="userSpaceOnUse"><stop offset="0" stop-opacity="0.05"/><stop offset="0.5" stop-color="gray" stop-opacity="0"/><stop offset="1" stop-color="#fff" stop-opacity="0.1"/></linearGradient><linearGradient id="未命名的渐变_4" x1="141.07" y1="-27.001" x2="72.531" y2="-95.53" gradientTransform="translate(0 160)" gradientUnits="userSpaceOnUse"><stop offset="0" stop-opacity="0.04"/><stop offset="1" stop-opacity="0.16"/></linearGradient><linearGradient id="未命名的渐变_58" x1="137.732" y1="136.206" x2="55.743" y2="54.217" gradientUnits="userSpaceOnUse"><stop offset="0" stop-color="#ffff3b" stop-opacity="0.1"/><stop offset="0.1" stop-color="#fffe38" stop-opacity="0.135"/><stop offset="0.263" stop-color="#fffc31" stop-opacity="0.231"/><stop offset="0.469" stop-color="#fff826" stop-opacity="0.387"/><stop offset="0.71" stop-color="#fff316" stop-opacity="0.603"/><stop offset="0.978" stop-color="#ffed02" stop-opacity="0.876"/><stop offset="1" stop-color="#ffec00" stop-opacity="0.9"/></linearGradient></defs><title>tencent_qqmusic</title><g id="图层_2" data-name="图层 2"><g id="图层_1-2" data-name="图层 1"><rect class="cls-1" width="192" height="192"/><path class="cls-2" d="M96,190C27.34,190,3,165.66,3,97S27.34,4,96,4s93,24.34,93,93S164.66,190,96,190Z"/><path class="cls-3" d="M96,189C28.07,189,4,164.92,4,97S28.07,5,96,5s92,24.07,92,92S163.93,189,96,189Z"/><path class="cls-4" d="M96,188C28.81,188,5,164.19,5,97S28.81,6,96,6s91,23.81,91,91S163.19,188,96,188Z"/><path class="cls-5" d="M186,97c0,66.67-23.32,90-90,90S6,163.67,6,97,29.32,7,96,7,186,30.32,186,97Z"/><path class="cls-6" d="M186,96c0,66.67-23.32,90-90,90S6,162.67,6,96,29.32,6,96,6,186,29.32,186,96Z"/><path class="cls-7" d="M186,96c0,66.67-23.32,90-90,90S6,162.67,6,96,29.32,6,96,6,186,29.32,186,96Z"/><path class="cls-8" d="M103.7,185.89c60.62-1.8,82.19-25.72,82.3-89.37L118.41,28.93l-5.79,21.45,14.5,14.5L55,137Z"/><path class="cls-9" d="M96,6C29.32,6,6,29.32,6,96s23.32,90,90,90,90-23.33,90-90S162.68,6,96,6Zm68.59,158.59C151.17,178,130,184,96,184s-55.17-6-68.59-19.41S8,130,8,96s6-55.17,19.41-68.59S62,8,96,8s55.17,6,68.59,19.41S184,62,184,96,178,151.16,164.59,164.59Z"/><circle class="cls-10" cx="96" cy="96" r="58"/><path class="cls-11" d="M111.93,40.23,80,57l31,46L76.71,142.63l10.74,10.74A58,58,0,0,0,111.93,40.23Z"/><path class="cls-12" d="M121.89,116.92a19.563,19.563,0,0,0-2.17-4.41c-5.76-11.73-26.8-51.59-26.8-51.59,33.8,4.06,25.8-31.29,25.8-31.29s-.12-1.32-1-.48c-2.27,1.2-1.07,7.06-16.84,10.15C76.45,42.84,76.07,56.22,76.07,56.22L107,103.45a29.681,29.681,0,0,0-17.84.6c-14,4.8-22,18.33-18,30.24S89.91,152,103.91,147.16,126,128.83,121.89,116.92Z"/><path class="cls-13" d="M144.41,64.055a57.992,57.992,0,0,0-98.92,60.423c-.751-4.753.153-8.882,2.939-11.447,6.2-5.709,19.34-1.526,29.35,9.344s13.1,24.311,6.9,30.02c-.15.138-.308.265-.466.392a57.818,57.818,0,0,0,43.73-8.377,58.5,58.5,0,0,0,7.034-5.451c-14.009.4-32.043-8.483-46.711-24.41C67.45,91.944,61.307,63.734,74.547,51.541s40.85-3.753,61.668,18.852a84.079,84.079,0,0,1,17.7,28.633A57.736,57.736,0,0,0,144.41,64.055Z"/><path class="cls-14" d="M39,98A58,58,0,0,1,148.464,71.26,58,58,0,1,0,44.536,122.74,57.769,57.769,0,0,1,39,98Z"/><path class="cls-12" d="M117.72,29.15c-2.27,1.2-1.07,7.06-16.84,10.15C76.45,42.84,76.07,56.22,76.07,56.22L86.979,72.879A59.326,59.326,0,0,0,98.5,74c.433,0,.861-.013,1.29-.022-3.956-7.536-6.87-13.058-6.87-13.058,33.8,4.06,25.8-31.29,25.8-31.29S118.6,28.31,117.72,29.15Z"/><g class="cls-15"><path class="cls-16" d="M93.978,62.926l-.058-.006s18.232,34.541,25.4,48.776C113.91,100.791,98.2,70.938,93.978,62.926Z"/><path class="cls-16" d="M72.16,136.29c-4-11.91,4-25.44,18-30.24a29.681,29.681,0,0,1,17.84-.6l-1.367-2.087a29.668,29.668,0,0,0-17.473.687c-14,4.8-22,18.33-18,30.24a19.285,19.285,0,0,0,1.576,3.484C72.527,137.289,72.33,136.8,72.16,136.29Z"/><path class="cls-16" d="M119.756,112.569c.356.71.679,1.361.964,1.941.216.327.421.662.616,1A19.5,19.5,0,0,0,119.756,112.569Z"/><path class="cls-16" d="M101.88,41.3c15.77-3.09,14.57-8.95,16.84-10.15a1.288,1.288,0,0,1,.249-.186c-.139-.846-.249-1.334-.249-1.334s-.12-1.32-1-.48c-2.27,1.2-1.07,7.06-16.84,10.15C76.45,42.84,76.07,56.22,76.07,56.22l1.04,1.589C77.408,55.548,79.979,44.473,101.88,41.3Z"/></g></g></g></svg>