<svg xmlns="http://www.w3.org/2000/svg" xmlns:xlink="http://www.w3.org/1999/xlink" viewBox="0 0 192 192"><defs><style>.cls-1{fill:none;}.cls-2{opacity:0.01;}.cls-2,.cls-3,.cls-4,.cls-5{isolation:isolate;}.cls-3{opacity:0.02;}.cls-4{opacity:0.04;}.cls-5{opacity:0.06;}.cls-6{fill:#f2453d;}.cls-7{fill:url(#未命名的渐变_40);}.cls-8{fill:url(#未命名的渐变_112);}.cls-9{fill:url(#未命名的渐变_44);}.cls-10{fill:#fafafa;}.cls-11{fill:#fff;}</style><linearGradient id="未命名的渐变_40" x1="166" y1="188" x2="26" y2="328" gradientTransform="matrix(1, 0, 0, -1, 0, 354)" gradientUnits="userSpaceOnUse"><stop offset="0" stop-opacity="0.1"/><stop offset="0.5" stop-color="gray" stop-opacity="0.05"/><stop offset="1" stop-color="#f8f8f8" stop-opacity="0.12"/><stop offset="1" stop-color="#fff" stop-opacity="0.1"/></linearGradient><linearGradient id="未命名的渐变_112" x1="166" y1="188" x2="25.99" y2="328" gradientTransform="matrix(1, 0, 0, -1, 0, 354)" gradientUnits="userSpaceOnUse"><stop offset="0" stop-opacity="0.05"/><stop offset="0.5" stop-color="gray" stop-opacity="0"/><stop offset="1" stop-color="#fff" stop-opacity="0.1"/></linearGradient><linearGradient id="未命名的渐变_44" x1="172.48" y1="159.52" x2="70.48" y2="57.52" gradientUnits="userSpaceOnUse"><stop offset="0" stop-opacity="0.04"/><stop offset="1" stop-opacity="0.16"/></linearGradient></defs><title>wps_office</title><g id="图层_2" data-name="图层 2"><g id="图层_2-2" data-name="图层 2"><rect class="cls-1" width="192" height="192"/><path class="cls-2" d="M96,190C27.34,190,3,165.66,3,97S27.34,4,96,4s93,24.34,93,93S164.66,190,96,190Z"/><path class="cls-3" d="M96,189C28.07,189,4,164.92,4,97S28.07,5,96,5s92,24.07,92,92S163.93,189,96,189Z"/><path class="cls-4" d="M96,188C28.81,188,5,164.19,5,97S28.81,6,96,6s91,23.81,91,91S163.19,188,96,188Z"/><path class="cls-5" d="M186,97c0,66.67-23.32,90-90,90S6,163.67,6,97,29.32,7,96,7,186,30.32,186,97Z"/><path class="cls-6" d="M186,96c0,66.67-23.32,90-90,90S6,162.67,6,96,29.32,6,96,6,186,29.32,186,96Z"/><path class="cls-7" d="M186,96c0,66.67-23.32,90-90,90S6,162.67,6,96,29.32,6,96,6,186,29.32,186,96Z"/><path class="cls-8" d="M96,6C29.32,6,6,29.32,6,96s23.32,90,90,90,90-23.33,90-90S162.68,6,96,6Zm68.59,158.59C151.17,178,130,184,96,184s-55.17-6-68.59-19.41S8,130,8,96s6-55.17,19.41-68.59S62,8,96,8s55.17,6,68.59,19.41S184,62,184,96,178,151.16,164.59,164.59Z"/><path class="cls-9" d="M186,97.09,150.91,62H120L103.07,78.93,85.63,61.49,55,73l20.5,65.5,46.07,46.07C168.46,178.64,185.77,153.63,186,97.09Z"/><path class="cls-10" d="M104.91,63.45,80.15,116.06a1,1,0,0,1-1.79,0L58.63,74.51a1.11,1.11,0,0,1,1-1.58H75.38a2.66,2.66,0,0,1,2.39,1.49l9.31,19.1L94.21,78,87.11,63.4A6,6,0,0,0,81.68,60H45.26a5.2,5.2,0,0,0-4.76,7.41l32.72,68.88a6.51,6.51,0,0,0,11.73,0l29.29-61.89a2.66,2.66,0,0,1,2.4-1.51h15.71a1.11,1.11,0,0,1,1,1.58L113.65,116a1,1,0,0,1-1.79,0l-6.69-14.72L97.89,116.5l9.18,19.67a6.51,6.51,0,0,0,11.74,0l32.68-68.8A5.2,5.2,0,0,0,146.74,60H110.38A6,6,0,0,0,104.91,63.45Z"/><path class="cls-11" d="M78.54,116.31l.83,1.75a1,1,0,0,0,1.79,0l24.76-52.61A6,6,0,0,1,111.38,62h36.36a5.22,5.22,0,0,1,4.09,1.94A5.23,5.23,0,0,0,146.74,60H110.38a6,6,0,0,0-5.46,3.45L80.15,116.06A1,1,0,0,1,78.54,116.31Z"/><path class="cls-11" d="M87.09,93.49,78.77,76.41s-.06-.09-.09-.13l8.4,17.24Z"/><path class="cls-11" d="M112.09,116.3l.77,1.69a1,1,0,0,0,1.79,0l19.72-41.52a1.11,1.11,0,0,0-1-1.58h-.18L113.65,116A1,1,0,0,1,112.09,116.3Z"/><path class="cls-11" d="M98.89,118.5l7.23-15.13-1-2.1L97.89,116.5l9.18,19.67a6.66,6.66,0,0,0,.4.71Z"/><path class="cls-11" d="M41.51,69.43A5.2,5.2,0,0,1,46.26,62H82.68a6,6,0,0,1,5.27,3.09l-.84-1.72A6,6,0,0,0,81.68,60H45.26a5.2,5.2,0,0,0-4.76,7.41l32.72,68.88c.09.19.2.36.3.54Z"/></g></g></svg>