<svg xmlns="http://www.w3.org/2000/svg" xmlns:xlink="http://www.w3.org/1999/xlink" viewBox="0 0 192 192"><defs><style>.cls-1{fill:none;}.cls-2{opacity:0.01;}.cls-2,.cls-3,.cls-4,.cls-5{isolation:isolate;}.cls-3{opacity:0.02;}.cls-4{opacity:0.04;}.cls-5{opacity:0.06;}.cls-6{fill:#0cacf4;}.cls-7{fill:url(#未命名的渐变_4);}.cls-8{fill:#16a2e7;}.cls-9{fill:url(#未命名的渐变_2);}.cls-10{fill:url(#未命名的渐变_30);}.cls-11{fill:#f5f5f5;}.cls-12{opacity:0.05;}.cls-13{fill:#fff;}</style><linearGradient id="未命名的渐变_4" x1="166" y1="28" x2="25.99" y2="168" gradientTransform="matrix(1, 0, 0, -1, 0, 194)" gradientUnits="userSpaceOnUse"><stop offset="0" stop-opacity="0.05"/><stop offset="0.5" stop-color="gray" stop-opacity="0"/><stop offset="1" stop-color="#fff" stop-opacity="0.1"/></linearGradient><linearGradient id="未命名的渐变_2" x1="166" y1="28" x2="26" y2="168" gradientTransform="matrix(1, 0, 0, -1, 0, 194)" gradientUnits="userSpaceOnUse"><stop offset="0" stop-opacity="0.1"/><stop offset="0.5" stop-color="gray" stop-opacity="0.05"/><stop offset="1" stop-color="#fff" stop-opacity="0.12"/></linearGradient><linearGradient id="未命名的渐变_30" x1="145.72" y1="186.28" x2="27.55" y2="68.1" gradientUnits="userSpaceOnUse"><stop offset="0" stop-opacity="0.06"/><stop offset="1" stop-opacity="0.16"/></linearGradient></defs><title>google_cast</title><g id="图层_2" data-name="图层 2"><g id="图层_2-2" data-name="图层 2"><rect class="cls-1" width="192" height="192"/><path class="cls-2" d="M96,190C27.34,190,3,165.66,3,97S27.34,4,96,4s93,24.34,93,93S164.66,190,96,190Z"/><path class="cls-3" d="M96,189C28.07,189,4,164.92,4,97S28.07,5,96,5s92,24.07,92,92S163.93,189,96,189Z"/><path class="cls-4" d="M96,188C28.81,188,5,164.19,5,97S28.81,6,96,6s91,23.81,91,91S163.19,188,96,188Z"/><path class="cls-5" d="M186,97c0,66.67-23.32,90-90,90S6,163.67,6,97,29.32,7,96,7,186,30.32,186,97Z"/><path class="cls-6" d="M186,96c0,66.67-23.32,90-90,90S6,162.67,6,96,29.32,6,96,6,186,29.32,186,96Z"/><path class="cls-7" d="M96,6C29.32,6,6,29.32,6,96s23.32,90,90,90,90-23.33,90-90S162.68,6,96,6Zm68.59,158.59C151.17,178,130,184,96,184s-55.17-6-68.59-19.41S8,130,8,96s6-55.17,19.41-68.59S62,8,96,8s55.17,6,68.59,19.41S184,62,184,96,178,151.16,164.59,164.59Z"/><path class="cls-8" d="M96,6C29.3,6,6,29.3,6,96H186C186,29.3,162.7,6,96,6Z"/><path class="cls-9" d="M186,96c0,66.67-23.32,90-90,90S6,162.67,6,96,29.32,6,96,6,186,29.32,186,96Z"/><path class="cls-10" d="M174.62,154.62,108,88,37,59l-.38,0C32.72,68.49,31,80.65,31,96c0,24.27,4.28,40.59,14.69,50.81l39.69,39c3.41.14,6.95.22,10.62.22C137.16,186,161.79,177.1,174.62,154.62Z"/><path class="cls-11" d="M133.56,152.33c0,.95,0,1.89-.07,2.83-6.24,2.65-13.69,4.33-22.49,5.17A71.65,71.65,0,0,0,31.67,81c.84-8.79,2.52-16.24,5.17-22.49.94,0,1.88-.07,2.83-.07A94,94,0,0,1,133.56,152.33ZM96,161c1.28,0,2.53,0,3.77,0a60.12,60.12,0,0,0,.65-8.62A60.82,60.82,0,0,0,39.67,91.58a60.12,60.12,0,0,0-8.62.65c0,1.24,0,2.49,0,3.77a147.52,147.52,0,0,0,1,18.44A38.62,38.62,0,0,1,77.56,160,147.5,147.5,0,0,0,96,161ZM39.67,124.72a27.65,27.65,0,0,0-5.58.57c4.63,17.8,14.82,28,32.63,32.63a27.62,27.62,0,0,0-27-33.2Z"/><g class="cls-12"><path d="M75.8,138.62a38.53,38.53,0,0,0-44.1-27.29c.1,1.06.22,2.1.35,3.12A38.6,38.6,0,0,1,75.8,138.62Z"/><path d="M66.28,149.33a27.64,27.64,0,0,1-.57,5.58C49.85,150.79,40,142.24,34.82,127.84c4.93,16.23,15,25.67,31.89,30.08a27.63,27.63,0,0,0-1.39-15.79A27.63,27.63,0,0,1,66.28,149.33Z"/><path d="M38.67,77.54c-2.25,0-4.46.12-6.66.33q-.19,1.54-.34,3.13a71.59,71.59,0,0,1,75.65,47.32A71.92,71.92,0,0,0,38.67,77.54Z"/><path d="M128.31,121.38a93.57,93.57,0,0,1,4.25,28c0,.95,0,1.89-.07,2.83a74.49,74.49,0,0,1-21.2,5c-.07,1.05-.17,2.1-.28,3.14,8.79-.84,16.24-2.52,22.49-5.17,0-.94.07-1.88.07-2.83A93.47,93.47,0,0,0,128.31,121.38Z"/><path d="M99.42,149.33a60.12,60.12,0,0,1-.65,8.62c-1.24,0-2.49,0-3.77,0a151.07,151.07,0,0,1-17-.88c-.12,1-.26,1.9-.45,2.83A147.51,147.51,0,0,0,96,161c1.28,0,2.53,0,3.77,0a59.88,59.88,0,0,0-3-29.35A60.54,60.54,0,0,1,99.42,149.33Z"/></g><path class="cls-13" d="M32,99c0-1.28,0-2.53,0-3.77a60.11,60.11,0,0,1,8.62-.65,60.85,60.85,0,0,1,57.11,40,60.86,60.86,0,0,0-58.11-43,60.11,60.11,0,0,0-8.62.65c0,1.24,0,2.49,0,3.77a147.51,147.51,0,0,0,1,18.44l.65-.12C32.23,109.61,32,104.52,32,99Z"/><path class="cls-13" d="M37.84,61.51c.94,0,1.88-.07,2.83-.07a94,94,0,0,1,88.64,62.94A94.06,94.06,0,0,0,39.67,58.44c-.95,0-1.89,0-2.83.07C34.19,64.76,32.51,72.21,31.67,81L33,80.87A72,72,0,0,1,37.84,61.51Z"/><path class="cls-13" d="M79,160.12a38,38,0,0,0-2.21-18.51A38.38,38.38,0,0,1,77.56,160Z"/><path class="cls-13" d="M112.28,160.19c.11-1.61.18-3.22.18-4.86a71.46,71.46,0,0,0-4.14-24,71.06,71.06,0,0,1,2.68,29Z"/><path class="cls-13" d="M35.08,128.29a27.62,27.62,0,0,1,31.24,16.84,27.62,27.62,0,0,0-32.24-19.84c.51,1.95,1.09,3.78,1.73,5.55C35.56,130,35.31,129.16,35.08,128.29Z"/></g></g></svg>