<svg xmlns="http://www.w3.org/2000/svg" xmlns:xlink="http://www.w3.org/1999/xlink" viewBox="0 0 192 192"><defs><style>.cls-1{fill:none;}.cls-2{opacity:0.01;}.cls-3{opacity:0.02;}.cls-4{opacity:0.04;}.cls-5{opacity:0.06;}.cls-6{fill:#939393;}.cls-7{fill:url(#未命名的渐变_8);}.cls-8{fill:url(#未命名的渐变_46);}.cls-9{fill:url(#未命名的渐变_19);}.cls-10{fill:#f5f5f5;}.cls-11,.cls-19{opacity:0.05;}.cls-12{fill:url(#未命名的渐变_6);}.cls-13{fill:#82b64a;}.cls-14{fill:#a2cf6f;}.cls-15{fill:#c9f695;}.cls-16{fill:#17864d;}.cls-17{fill:#20a464;}.cls-18{fill:#66c195;}.cls-19{fill:#fff;}</style><linearGradient id="未命名的渐变_8" x1="166" y1="166" x2="26" y2="26" gradientUnits="userSpaceOnUse"><stop offset="0" stop-opacity="0.1"/><stop offset="0.5" stop-color="gray" stop-opacity="0.05"/><stop offset="1" stop-color="#fff" stop-opacity="0.12"/></linearGradient><linearGradient id="未命名的渐变_46" x1="166" y1="166" x2="26" y2="26" gradientUnits="userSpaceOnUse"><stop offset="0" stop-opacity="0.05"/><stop offset="0.5" stop-color="gray" stop-opacity="0"/><stop offset="1" stop-color="#fff" stop-opacity="0.1"/></linearGradient><linearGradient id="未命名的渐变_19" x1="162.92" y1="169.08" x2="67.92" y2="74.07" gradientUnits="userSpaceOnUse"><stop offset="0" stop-opacity="0.02"/><stop offset="1" stop-opacity="0.16"/></linearGradient><linearGradient id="未命名的渐变_6" x1="133.12" y1="151.83" x2="67.65" y2="86.35" gradientUnits="userSpaceOnUse"><stop offset="0" stop-opacity="0.02"/><stop offset="1" stop-opacity="0.18"/></linearGradient></defs><title>google_snapseed</title><g id="图层_2" data-name="图层 2"><g id="图层_2-2" data-name="图层 2"><rect class="cls-1" width="192" height="192"/><path class="cls-2" d="M96,190C27.34,190,3,165.66,3,97S27.34,4,96,4s93,24.34,93,93S164.66,190,96,190Z"/><path class="cls-3" d="M96,189C28.07,189,4,164.92,4,97S28.07,5,96,5s92,24.07,92,92S163.93,189,96,189Z"/><path class="cls-4" d="M96,188C28.81,188,5,164.19,5,97S28.81,6,96,6s91,23.81,91,91S163.19,188,96,188Z"/><path class="cls-5" d="M186,97c0,66.67-23.32,90-90,90S6,163.67,6,97,29.32,7,96,7,186,30.32,186,97Z"/><path class="cls-6" d="M186,96c0,66.67-23.32,90-90,90S6,162.67,6,96,29.32,6,96,6,186,29.32,186,96Z"/><path class="cls-7" d="M186,96c0,66.67-23.32,90-90,90S6,162.67,6,96,29.32,6,96,6,186,29.32,186,96Z"/><path class="cls-8" d="M96,6C29.32,6,6,29.32,6,96s23.32,90,90,90,90-23.33,90-90S162.68,6,96,6Zm68.59,158.59C151.17,178,130,184,96,184s-55.17-6-68.59-19.41S8,130,8,96s6-55.17,19.41-68.59S62,8,96,8s55.17,6,68.59,19.41S184,62,184,96,178,151.16,164.59,164.59Z"/><path class="cls-9" d="M184.53,121.84,143.76,81.07l-12.12,3.29-37-37L66.5,141.5l44.08,44.08C157.58,182.69,179,164.63,184.53,121.84Z"/><path class="cls-10" d="M76,78h60a12,12,0,0,1,12,12v42a12,12,0,0,1-12,12H76a0,0,0,0,1,0,0V78A0,0,0,0,1,76,78Z"/><path class="cls-11" d="M143.41,80.59A11.92,11.92,0,0,1,146,88v42a12,12,0,0,1-12,12H76v2h60a12,12,0,0,0,12-12V90A12,12,0,0,0,143.41,80.59Z"/><path class="cls-12" d="M76,144h60a12,12,0,0,0,12-12V117.42L108.58,78H76Z"/><path class="cls-13" d="M80,121.57V152c20.3-11.78,34-32.89,34-58,0-2.08-.1-4.13-.29-6.15Z"/><path class="cls-14" d="M80,80.57v41l33.71-33.71A65.19,65.19,0,0,0,103,57.53Z"/><path class="cls-15" d="M80,36V80.57l23-23A69.38,69.38,0,0,0,80,36Z"/><path class="cls-16" d="M46,94c0,25.11,13.7,46.22,34,58V121.57L46.29,87.85C46.1,89.87,46,91.92,46,94Z"/><path class="cls-17" d="M46.29,87.85,80,121.57v-41l-23-23A65.19,65.19,0,0,0,46.29,87.85Z"/><path class="cls-18" d="M57,57.53l23,23V36A69.38,69.38,0,0,0,57,57.53Z"/><path class="cls-11" d="M113.71,87.85A65.19,65.19,0,0,0,103,57.53a67.66,67.66,0,0,0-9.21-11,67.4,67.4,0,0,1,7.21,9,65.19,65.19,0,0,1,10.67,30.33c.18,2,.29,4.07.29,6.15,0,25.11-13.7,46.22-34,58a70.93,70.93,0,0,1-13.57-10.21A70.65,70.65,0,0,0,80,152c20.3-11.78,34-32.89,34-58C114,91.92,113.9,89.87,113.71,87.85Z"/><path class="cls-19" d="M48,96c0-2.08.1-4.13.29-6.15A65.19,65.19,0,0,1,59,59.53,69.38,69.38,0,0,1,82,38,70.79,70.79,0,0,1,95.83,48.49,70.54,70.54,0,0,0,80,36,69.38,69.38,0,0,0,57,57.53,65.19,65.19,0,0,0,46.29,87.85c-.18,2-.29,4.07-.29,6.15a65.68,65.68,0,0,0,20.43,47.79A65.58,65.58,0,0,1,48,96Z"/></g></g></svg>