<svg xmlns="http://www.w3.org/2000/svg" xmlns:xlink="http://www.w3.org/1999/xlink" viewBox="0 0 192 192"><defs><style>.cls-1{fill:none;}.cls-2{opacity:0.01;}.cls-2,.cls-3,.cls-4,.cls-5{isolation:isolate;}.cls-3{opacity:0.02;}.cls-4{opacity:0.04;}.cls-5{opacity:0.06;}.cls-6{fill:#00c40c;}.cls-7{fill:url(#未命名的渐变_20);}.cls-8{fill:url(#未命名的渐变_3);}.cls-9{fill:url(#未命名的渐变_17);}.cls-10{fill:#fafafa;}.cls-11{fill:#fff;}</style><linearGradient id="未命名的渐变_20" x1="166" y1="766" x2="26" y2="626" gradientTransform="translate(0 -600)" gradientUnits="userSpaceOnUse"><stop offset="0" stop-opacity="0.1"/><stop offset="0.5" stop-color="gray" stop-opacity="0.05"/><stop offset="1" stop-color="#fff" stop-opacity="0.15"/></linearGradient><linearGradient id="未命名的渐变_3" x1="166" y1="766" x2="25.99" y2="626" gradientTransform="translate(0 -600)" gradientUnits="userSpaceOnUse"><stop offset="0" stop-opacity="0.05"/><stop offset="0.5" stop-color="gray" stop-opacity="0"/><stop offset="1" stop-color="#fff" stop-opacity="0.1"/></linearGradient><linearGradient id="未命名的渐变_17" x1="162.84" y1="769.15" x2="60.8" y2="667.11" gradientTransform="translate(0 -600)" gradientUnits="userSpaceOnUse"><stop offset="0" stop-opacity="0.02"/><stop offset="1" stop-opacity="0.16"/></linearGradient></defs><title>tencent_wechat</title><g id="图层_2" data-name="图层 2"><g id="图层_1-2" data-name="图层 1"><rect class="cls-1" width="192" height="192"/><path class="cls-2" d="M96,190C27.34,190,3,165.66,3,97S27.34,4,96,4s93,24.34,93,93S164.66,190,96,190Z"/><path class="cls-3" d="M96,189C28.07,189,4,164.92,4,97S28.07,5,96,5s92,24.07,92,92S163.93,189,96,189Z"/><path class="cls-4" d="M96,188C28.81,188,5,164.19,5,97S28.81,6,96,6s91,23.81,91,91S163.19,188,96,188Z"/><path class="cls-5" d="M186,97c0,66.67-23.32,90-90,90S6,163.67,6,97,29.32,7,96,7,186,30.32,186,97Z"/><path class="cls-6" d="M186,96c0,66.67-23.32,90-90,90S6,162.67,6,96,29.32,6,96,6,186,29.32,186,96Z"/><path class="cls-7" d="M186,96c0,66.67-23.32,90-90,90S6,162.67,6,96,29.32,6,96,6,186,29.32,186,96Z"/><path class="cls-8" d="M96,6C29.32,6,6,29.32,6,96s23.32,90,90,90,90-23.33,90-90S162.68,6,96,6Zm68.59,158.59C151.17,178,130,184,96,184s-55.17-6-68.59-19.41S8,130,8,96s6-55.17,19.41-68.59S62,8,96,8s55.17,6,68.59,19.41S184,62,184,96,178,151.16,164.59,164.59Z"/><path class="cls-9" d="M146,89.84l-2.29,1.41L112.17,59.87,73.9,65.44l-8.62-1.89-7.64,6.72L63.41,77l-16.2,26.79,7.7,7.63L52.07,121l64.39,64.12c40.93-3.84,60.91-20.67,67.23-57.74Z"/><path class="cls-10" d="M142,130.32c7.35-5.36,12-13.26,12-22,0-16.07-15.69-29-35-29S84.1,92.45,84.14,108.53s15.73,29.07,35,29a41.34,41.34,0,0,0,11.37-1.62,3.5,3.5,0,0,1,1-.16,3.66,3.66,0,0,1,1.86.53l7.66,4.35a1.3,1.3,0,0,0,.67.22,1.16,1.16,0,0,0,1.16-1.16h0a3.42,3.42,0,0,0-.19-.87L141.08,133a2.77,2.77,0,0,1-.12-.74,2.33,2.33,0,0,1,1-1.9M119,74.94h2C117,59,100.07,47.11,79.81,47.17,56.66,47.23,37.93,62.93,38,82.22c0,10.5,5.7,20,14.55,26.37a2.79,2.79,0,0,1,1.18,2.27,3.35,3.35,0,0,1-.15.88l-1.86,7.14a4.11,4.11,0,0,0-.22,1,1.4,1.4,0,0,0,1.4,1.4h0a1.58,1.58,0,0,0,.8-.26l9.13-5.33A4.38,4.38,0,0,1,65,115a4.22,4.22,0,0,1,1.23.18A49.59,49.59,0,0,0,80,117.11h1.21a28.71,28.71,0,0,1-1.35-8.59C79.82,90.06,97.38,75,119,74.94Zm-11.56,29.22a5.06,5.06,0,0,1,0-10.11h0a5.06,5.06,0,0,1,0,10.11Zm23.2,0a5.06,5.06,0,0,1,0-10.11h0a5.06,5.06,0,0,1,0,10.11ZM65.88,77h0a6,6,0,0,1-.07-12h.07a6,6,0,0,1,0,12Zm28,0h0a6,6,0,0,1-.07-12h.07a6,6,0,0,1,0,12Z"/><path class="cls-11" d="M108.44,106.16a5,5,0,0,0,3.67-8.26,5,5,0,0,1,.16,1.43,4.74,4.74,0,0,1-8.5,3A5,5,0,0,0,108.44,106.16Z"/><path class="cls-11" d="M66.88,79a6,6,0,0,0,4.77-9.63,6,6,0,0,1-10.57,5.26A6,6,0,0,0,66.88,79Z"/><path class="cls-11" d="M131.64,106.16a5,5,0,0,0,3.67-8.26,5,5,0,0,1,.16,1.43,4.74,4.74,0,0,1-8.5,3A5,5,0,0,0,131.64,106.16Z"/><path class="cls-11" d="M39,84.22c-.07-19.29,18.66-35,41.81-35,17,0,31.68,8.33,38.31,20.46-6.06-13.19-21.37-22.51-39.31-22.46C56.66,47.28,37.93,63,38,82.22a29.77,29.77,0,0,0,3.75,14.34A29.48,29.48,0,0,1,39,84.22Z"/><path class="cls-11" d="M99.88,71a6,6,0,0,1-10.8,3.63,6,6,0,1,0,10.57-5.26A6,6,0,0,1,99.88,71Z"/><path class="cls-11" d="M85.14,110.53c0-16.08,15.55-29.21,34.86-29.21,14.16,0,26.36,7,31.87,17-4.91-11.11-17.79-19-32.87-19-19.31,0-34.9,13.13-34.86,29.21a25,25,0,0,0,3.15,12A24.76,24.76,0,0,1,85.14,110.53Z"/><path class="cls-11" d="M52.72,120.88l1.86-7.14a3.35,3.35,0,0,0,.15-.88,2.78,2.78,0,0,0-1-2.12v.12a3.35,3.35,0,0,1-.15.88l-1.86,7.14a4.11,4.11,0,0,0-.22,1,1.4,1.4,0,0,0,1.11,1.37C52.65,121.13,52.68,121,52.72,120.88Z"/></g></g></svg>