<svg xmlns="http://www.w3.org/2000/svg" xmlns:xlink="http://www.w3.org/1999/xlink" viewBox="0 0 192 192"><defs><style>.cls-1{fill:none;}.cls-2{opacity:0.01;}.cls-3{opacity:0.02;}.cls-4{opacity:0.04;}.cls-5{opacity:0.06;}.cls-6{fill:#e51303;}.cls-7{fill:url(#未命名的渐变_73);}.cls-8{fill:url(#未命名的渐变_46);}.cls-9{fill:url(#未命名的渐变_5);}.cls-10{fill:#fff;}</style><linearGradient id="未命名的渐变_73" x1="166" y1="166" x2="26" y2="26" gradientUnits="userSpaceOnUse"><stop offset="0" stop-opacity="0.1"/><stop offset="0.5" stop-color="gray" stop-opacity="0.05"/><stop offset="1" stop-color="#fff" stop-opacity="0.15"/></linearGradient><linearGradient id="未命名的渐变_46" x1="166" y1="166" x2="26" y2="26" gradientUnits="userSpaceOnUse"><stop offset="0" stop-opacity="0.05"/><stop offset="0.5" stop-color="gray" stop-opacity="0"/><stop offset="1" stop-color="#fff" stop-opacity="0.1"/></linearGradient><linearGradient id="未命名的渐变_5" x1="168.3" y1="163.7" x2="68.09" y2="63.49" gradientUnits="userSpaceOnUse"><stop offset="0" stop-opacity="0.06"/><stop offset="1" stop-opacity="0.18"/></linearGradient></defs><title>netease_cloudmusic</title><g id="图层_2" data-name="图层 2"><g id="图层_2-2" data-name="图层 2"><rect class="cls-1" width="192" height="192"/><path class="cls-2" d="M96,190C27.34,190,3,165.66,3,97S27.34,4,96,4s93,24.34,93,93S164.66,190,96,190Z"/><path class="cls-3" d="M96,189C28.07,189,4,164.92,4,97S28.07,5,96,5s92,24.07,92,92S163.93,189,96,189Z"/><path class="cls-4" d="M96,188C28.81,188,5,164.19,5,97S28.81,6,96,6s91,23.81,91,91S163.19,188,96,188Z"/><path class="cls-5" d="M186,97c0,66.67-23.32,90-90,90S6,163.67,6,97,29.32,7,96,7,186,30.32,186,97Z"/><path class="cls-6" d="M186,96c0,66.67-23.32,90-90,90S6,162.67,6,96,29.32,6,96,6,186,29.32,186,96Z"/><path class="cls-7" d="M186,96c0,66.67-23.32,90-90,90S6,162.67,6,96,29.32,6,96,6,186,29.32,186,96Z"/><path class="cls-8" d="M96,6C29.32,6,6,29.32,6,96s23.32,90,90,90,90-23.33,90-90S162.68,6,96,6Zm68.59,158.59C151.17,178,130,184,96,184s-55.17-6-68.59-19.41S8,130,8,96s6-55.17,19.41-68.59S62,8,96,8s55.17,6,68.59,19.41S184,62,184,96,178,151.16,164.59,164.59Z"/><path class="cls-9" d="M186,100.54,129.33,43.92l-15.62,4.17L97.14,60.49l-11.3-11.3L71,60.58,55.38,91.83,60.94,137l48.49,48.61C164.44,182.58,185,159.18,186,100.54Z"/><path class="cls-10" d="M115,37.77c1.16.19,2.33.32,3.47.57a25.43,25.43,0,0,1,10.79,5.27,6.25,6.25,0,0,1,2.33,6.58,6,6,0,0,1-4.4,4.66,6.35,6.35,0,0,1-6-1.3c-2.31-1.85-4.86-3.13-7.93-2.85-2.6.23-5.08,3-4.86,5.41a20.89,20.89,0,0,0,.77,3.23c.49,1.9,1,3.79,1.49,5.69.09.33.17.59.62.61a33.81,33.81,0,0,1,18.89,6.87,42.18,42.18,0,0,1,13.05,15.36,38.71,38.71,0,0,1,3.8,14.51,42.71,42.71,0,0,1-3,19.6c-6.11,14.5-16.86,23.85-32,28.15a53.05,53.05,0,0,1-17.61,1.94A50,50,0,0,1,62.17,138.2a52.53,52.53,0,0,1-16.43-30.69c-2.63-16.4,1.41-31.11,12.09-43.86A52.08,52.08,0,0,1,79.57,48.34a6.41,6.41,0,0,1,7.78,2.49,6.33,6.33,0,0,1-1,8.09,7.71,7.71,0,0,1-2.28,1.39C71,65.63,62.43,75,59,88.66c-3.32,13.25-.38,25.38,8.08,36.07a38,38,0,0,0,20.46,13.41,39.16,39.16,0,0,0,16.24.68,37.27,37.27,0,0,0,15.62-6,33.12,33.12,0,0,0,13.44-17.92,29.38,29.38,0,0,0-.4-19.56,28.15,28.15,0,0,0-9.91-12.51A20.88,20.88,0,0,0,114.78,79l-.5-.09c.39,1.51.76,2.94,1.14,4.37.91,3.44,1.85,6.89,2.75,10.33,2,7.5.06,14.06-5.1,19.66a20.55,20.55,0,0,1-17.83,6.75c-7.77-.75-13.31-5-16.92-11.79a26.12,26.12,0,0,1-2.86-11.45,28.2,28.2,0,0,1,4.93-17.63,31.16,31.16,0,0,1,15.87-11.6l1.62-.54c-.35-1.32-.71-2.61-1-3.91a47.24,47.24,0,0,1-1.2-5.38,16.61,16.61,0,0,1,4.72-14A18.51,18.51,0,0,1,111.51,38l1.46-.21ZM101.16,79.47a19.25,19.25,0,0,0-9.6,6.16c-3.31,4.14-4,8.89-2.92,13.94A10,10,0,0,0,92.72,106a8.42,8.42,0,0,0,9.59-.16,8.14,8.14,0,0,0,3.47-8.89c-1-3.77-2-7.53-3-11.3Z"/></g></g></svg>