<svg xmlns="http://www.w3.org/2000/svg" xmlns:xlink="http://www.w3.org/1999/xlink" viewBox="0 0 192 192"><defs><style>.cls-1{fill:none;}.cls-2{opacity:0.01;}.cls-15,.cls-16,.cls-2,.cls-3,.cls-4,.cls-5,.cls-9{isolation:isolate;}.cls-3{opacity:0.02;}.cls-4{opacity:0.04;}.cls-5{opacity:0.06;}.cls-6{fill:#f5f5f5;}.cls-7{fill:url(#未命名的渐变);}.cls-8{fill:url(#未命名的渐变_2);}.cls-9{opacity:0.2;}.cls-10{fill:url(#未命名的渐变_7);}.cls-11{fill:#121214;}.cls-12{fill:url(#未命名的渐变_4);}.cls-13{fill:#fff;}.cls-14{fill:#e32b10;}.cls-15{opacity:0.03;}.cls-16{opacity:0.05;}.cls-17{fill:#f9ad08;}.cls-18{fill:#f9b618;}</style><linearGradient id="未命名的渐变" x1="166" y1="26" x2="26" y2="166" gradientTransform="matrix(1, 0, 0, -1, 0, 192)" gradientUnits="userSpaceOnUse"><stop offset="0" stop-opacity="0.1"/><stop offset="0.5" stop-color="gray" stop-opacity="0.05"/><stop offset="1" stop-color="#fff" stop-opacity="0.12"/></linearGradient><linearGradient id="未命名的渐变_2" x1="166" y1="26" x2="25.99" y2="166" gradientTransform="matrix(1, 0, 0, -1, 0, 192)" gradientUnits="userSpaceOnUse"><stop offset="0" stop-opacity="0.05"/><stop offset="0.5" stop-color="gray" stop-opacity="0"/><stop offset="1" stop-color="#fff" stop-opacity="0.1"/></linearGradient><linearGradient id="未命名的渐变_7" x1="160.11" y1="20.1" x2="82.93" y2="97.28" gradientTransform="matrix(1, 0, 0, -1, 0, 192)" gradientUnits="userSpaceOnUse"><stop offset="0" stop-opacity="0.04"/><stop offset="1" stop-opacity="0.15"/></linearGradient><linearGradient id="未命名的渐变_4" x1="110.43" y1="-5.33" x2="110.43" y2="-59.11" gradientTransform="translate(0 162)" gradientUnits="userSpaceOnUse"><stop offset="0" stop-color="#ebebeb"/><stop offset="1" stop-color="#fafafa"/></linearGradient></defs><title>tencent_qq</title><g id="图层_2" data-name="图层 2"><g id="图层_1-2" data-name="图层 1"><rect class="cls-1" width="192" height="192"/><path class="cls-2" d="M96,190C27.34,190,3,165.66,3,97S27.34,4,96,4s93,24.34,93,93S164.66,190,96,190Z"/><path class="cls-3" d="M96,189C28.07,189,4,164.92,4,97S28.07,5,96,5s92,24.07,92,92S163.93,189,96,189Z"/><path class="cls-4" d="M96,188C28.81,188,5,164.19,5,97S28.81,6,96,6s91,23.81,91,91S163.19,188,96,188Z"/><path class="cls-5" d="M186,97c0,66.67-23.32,90-90,90S6,163.67,6,97,29.32,7,96,7,186,30.32,186,97Z"/><path class="cls-6" d="M186,96c0,66.67-23.32,90-90,90S6,162.67,6,96,29.32,6,96,6,186,29.32,186,96Z"/><path class="cls-7" d="M186,96c0,66.67-23.32,90-90,90S6,162.67,6,96,29.32,6,96,6,186,29.32,186,96Z"/><path class="cls-8" d="M96,6C29.32,6,6,29.32,6,96s23.32,90,90,90,90-23.33,90-90S162.68,6,96,6Zm68.59,158.59C151.17,178,130,184,96,184s-55.17-6-68.59-19.41S8,130,8,96s6-55.17,19.41-68.59S62,8,96,8s55.17,6,68.59,19.41S184,62,184,96,178,151.16,164.59,164.59Z"/><path class="cls-9" d="M135,52a1.52,1.52,0,0,1-1.15-.45,1.81,1.81,0,0,1-.72-1.15,6.59,6.59,0,0,1,0-1.45c.09-.83.12-2.35.11-4.52s-.08-4.46-.19-6.77a1.29,1.29,0,0,1,.3-.85,1.24,1.24,0,0,1,.82-.52c.44-.06,1.48,0,1.72,1.65a15.24,15.24,0,0,1,0,2.66,13.45,13.45,0,0,0,0,2.19,4.22,4.22,0,0,0,.55,0c1-.14,2.38-.42,4.07-.83,2-.48,2.33-.78,2.36-.82a16.09,16.09,0,0,0,.05-1.94,27.19,27.19,0,0,0-.27-3.41,1.25,1.25,0,0,1,.33-.94,1.42,1.42,0,0,1,2-.32h0a1.41,1.41,0,0,1,.59,1,21.78,21.78,0,0,1,0,3.08,51.63,51.63,0,0,0,.12,5.93c.16,2.08.27,3.4.34,3.91a1.8,1.8,0,0,1-.36,1.29,1.52,1.52,0,0,1-1,.75,1.39,1.39,0,0,1-1-.26,1.36,1.36,0,0,1-.59-1c0-.18-.05-.62-.05-2.52a20.33,20.33,0,0,0-.11-2.47.87.87,0,0,0-.08-.31c-.3.1-.9.22-1.78.42s-1.61.35-1.87.39-.63.11-1.9.39c-.83.18-1.22.29-1.4.34a7.3,7.3,0,0,0,0,.88,17.21,17.21,0,0,0,.06,1.89,9.6,9.6,0,0,1,0,2.33C135.85,51.44,135.52,51.92,135,52Zm16.27-2.9a1.21,1.21,0,0,0,.38-.91,1.89,1.89,0,0,0-.11-.39,7.13,7.13,0,0,1-.4-1.47,16.21,16.21,0,0,1-.19-2.49,35,35,0,0,1,.37-3.61,3.36,3.36,0,0,0,0-.91,1.2,1.2,0,0,0-.6-.86,1.69,1.69,0,0,0-1.15-.2,1.21,1.21,0,0,0-1,.86,2.74,2.74,0,0,0-.1,1.3,12.12,12.12,0,0,1,0,1.54,33.33,33.33,0,0,0,.07,5.68c.27,1.92,1.22,2.08,1.76,2a1.53,1.53,0,0,0,1-.55Zm.12-13.3a2.11,2.11,0,0,0,.81-1.46,4.57,4.57,0,0,0,.08-1.25,1.05,1.05,0,0,0-.71-.78,1.72,1.72,0,0,0-.94-.17,2,2,0,0,0-1.27.71,1.59,1.59,0,0,0-.46,1.26,3.35,3.35,0,0,0,.47,1.22l.11.2c.28.7.71.75.94.72a2.33,2.33,0,0,0,1-.46Z"/><path class="cls-10" d="M185.16,116.08l-61.8-61.8-71.53,90.2L93.34,186H96C155.49,186,180.47,167.43,185.16,116.08Z"/><path class="cls-11" d="M156.52,97.66c-5.28-5.59-10.65-10.71-14-13.58C123,39.36,94.12,33.63,71.39,43.33S32.8,77.78,51.5,122.87a211.2,211.2,0,0,0,.24,22.26c9.51,8.09,24,11.47,44.67,11.47C140.57,156.58,156.23,141.27,156.52,97.66Z"/><path class="cls-12" d="M96.46,156.66A128.82,128.82,0,0,1,77,155.36l-.26-.48c-.12-.28-.25-.55-.37-.86-4.32-10.17-6.2-17.15-6.24-23.34v-.05l65.08-27.74h0c4.44,4.32,8.19,10.5,12.53,20.67a72.4,72.4,0,0,1,3,8.44C143,149.32,126.79,156.66,96.46,156.66Z"/><path class="cls-13" d="M150.72,132.08a71.89,71.89,0,0,0-3-8.43c-3.74-8.77-7.5-15.77-12.51-20.65l-65,27.71c0,7,2.5,14.56,6.23,23.34.18.43.38.86.56,1.26a129.62,129.62,0,0,0,19.43,1.3C126,156.58,142.77,149.74,150.72,132.08Z"/><path class="cls-14" d="M98,128.44,76.44,133.9l11.24,24.93.86,2.11a37.86,37.86,0,0,0,6.66-1.8c1.06-.37,2.23-.81,3.5-1.34A112.91,112.91,0,0,0,109,153Z"/><path class="cls-2" d="M144.42,88.16a168.39,168.39,0,0,1-42.69,26.4,168.39,168.39,0,0,1-48.61,12.52c-.23,4.39-.24,11.42.1,18.75,16.61-1.73,38.27-6.3,55.94-13.83,17-7.25,34.58-19.07,47.23-29.54,0-.86.06-1.79.08-2.71C151.9,95,147.45,90.76,144.42,88.16Z"/><path class="cls-3" d="M144.11,87.39a168.39,168.39,0,0,1-42.69,26.4,168.39,168.39,0,0,1-48.64,12.52c-.23,4.39-.24,11.42.1,18.75,16.61-1.73,38.27-6.3,55.94-13.83,17.16-7.31,34.88-19.31,47.55-29.84V99.33C151.8,94.45,147.2,90.08,144.11,87.39Z"/><path class="cls-15" d="M143.79,86.63A168.39,168.39,0,0,1,101.09,113a168.39,168.39,0,0,1-48.61,12.51c-.23,4.39-.24,11.42.1,18.75,16.61-1.73,38.27-6.3,55.94-13.83,17.29-7.38,35.21-19.52,47.94-30.13V98.89C151.69,93.9,146.95,89.37,143.79,86.63Z"/><path class="cls-4" d="M143.46,85.88a168.39,168.39,0,0,1-42.69,26.4,168.39,168.39,0,0,1-48.6,12.51c-.23,4.39-.24,11.42.1,18.75,16.61-1.73,38.27-6.3,55.94-13.83,17.47-7.44,35.53-19.74,48.32-30.41v-.81C151.58,93.34,146.7,88.67,143.46,85.88Z"/><path class="cls-16" d="M156.6,98.18l-.1-.1v.19Z"/><path class="cls-16" d="M143.14,85.12a168.39,168.39,0,0,1-42.69,26.4A168.39,168.39,0,0,1,51.84,124c-.23,4.39-.24,11.42.1,18.75,16.61-1.73,38.27-6.3,55.94-13.83s35.85-20,48.65-30.69V98C151.48,92.79,146.45,88,143.14,85.12Z"/><path class="cls-14" d="M142.82,84.36a168.39,168.39,0,0,1-42.69,26.4,168.39,168.39,0,0,1-48.61,12.52c-.23,4.39-.24,11.42.1,18.75,16.61-1.73,38.27-6.3,55.94-13.83s35.94-20,48.72-30.77C151.22,92.1,146.15,87.23,142.82,84.36Z"/><path class="cls-17" d="M90.45,88.05c-9.86,4.2-26.63,13.17-25,16.94,1.29,3,21.31,1.67,31.13-2.53s24.7-17.7,23.41-20.75C118.39,78,100.32,83.85,90.45,88.05Z"/><path class="cls-18" d="M90.45,88.05c-9.86,4.2-26.63,13.17-25,16.94,1.29,3,21.31,1.67,31.13-2.53s24.7-17.7,23.41-20.75C118.39,78,100.32,83.85,90.45,88.05Z"/><ellipse class="cls-13" cx="71.86" cy="78.06" rx="9.06" ry="12.36" transform="translate(-27 39.54) rotate(-26.08)"/><ellipse class="cls-13" cx="96.11" cy="67.72" rx="9.06" ry="12.36" transform="translate(-17.41 37.11) rotate(-20.08)"/><ellipse class="cls-11" cx="74.96" cy="77.74" rx="3.57" ry="4.84" transform="translate(-24.48 35.61) rotate(-23.08)"/><path class="cls-11" d="M99.33,64.93A6.67,6.67,0,0,0,93.22,67,7.24,7.24,0,0,0,91,71c-.07.67-.05,1.12.59,1.32.27.08.76-.29,1-.61a11.49,11.49,0,0,1,2.27-2.86c2-1.65,3.55-1.68,3.85-1.6l.25.08a1.25,1.25,0,0,0,2-1.17C100.76,65.33,99.93,65.1,99.33,64.93Z"/></g></g></svg>