<?xml version="1.0" encoding="UTF-8" standalone="no"?>
<!-- Created with Inkscape (http://www.inkscape.org/) -->

<svg
   xmlns:dc="http://purl.org/dc/elements/1.1/"
   xmlns:cc="http://creativecommons.org/ns#"
   xmlns:rdf="http://www.w3.org/1999/02/22-rdf-syntax-ns#"
   xmlns:svg="http://www.w3.org/2000/svg"
   xmlns="http://www.w3.org/2000/svg"
   xmlns:sodipodi="http://sodipodi.sourceforge.net/DTD/sodipodi-0.dtd"
   xmlns:inkscape="http://www.inkscape.org/namespaces/inkscape"
   version="1.1"
   id="svg2"
   xml:space="preserve"
   width="106.66667"
   height="106.66667"
   viewBox="0 0 106.66667 106.66667"
   sodipodi:docname="card emulator.svg"
   inkscape:version="0.92.2 2405546, 2018-03-11"><metadata
     id="metadata8"><rdf:RDF><cc:Work
         rdf:about=""><dc:format>image/svg+xml</dc:format><dc:type
           rdf:resource="http://purl.org/dc/dcmitype/StillImage" /><dc:title></dc:title></cc:Work></rdf:RDF></metadata><defs
     id="defs6"><clipPath
       clipPathUnits="userSpaceOnUse"
       id="clipPath18"><path
         d="m 1,39.956 c 0,-28.892 10.105,-39 39,-39 v 0 c 28.894,0 39,10.108 39,39 v 0 c 0,28.894 -10.106,39 -39,39 v 0 c -28.895,0 -39,-10.106 -39,-39"
         id="path16"
         inkscape:connector-curvature="0" /></clipPath><linearGradient
       x1="0"
       y1="0"
       x2="1"
       y2="0"
       gradientUnits="userSpaceOnUse"
       gradientTransform="matrix(60.670349,-60.670349,-60.670349,-60.670349,9.6648254,70.291695)"
       spreadMethod="pad"
       id="linearGradient28"><stop
         style="stop-opacity:1;stop-color:#1296db"
         offset="0"
         id="stop24" /><stop
         style="stop-opacity:1;stop-color:#1f88bf"
         offset="1"
         id="stop26" /></linearGradient><clipPath
       clipPathUnits="userSpaceOnUse"
       id="clipPath38"><path
         d="m 1,39.956 c 0,-28.892 10.105,-39 39,-39 v 0 c 28.894,0 39,10.108 39,39 v 0 c 0,28.894 -10.106,39 -39,39 v 0 c -28.895,0 -39,-10.106 -39,-39"
         id="path36"
         inkscape:connector-curvature="0" /></clipPath><linearGradient
       x1="0"
       y1="0"
       x2="1"
       y2="0"
       gradientUnits="userSpaceOnUse"
       gradientTransform="matrix(80,-80,-80,-80,0,79.956329)"
       spreadMethod="pad"
       id="linearGradient48"><stop
         style="stop-opacity:1;stop-color:#1296db"
         offset="0"
         id="stop44" /><stop
         style="stop-opacity:1;stop-color:#1f88bf"
         offset="1"
         id="stop46" /></linearGradient><clipPath
       clipPathUnits="userSpaceOnUse"
       id="clipPath58"><path
         d="M 16.657,21.876 37.549,0.985 C 38.352,0.967 39.166,0.956 40,0.956 v 0 c 28.894,0 39,10.108 39,39 v 0 c 0,0.892 -0.01,1.767 -0.029,2.624 v 0 L 63.737,57.813 Z"
         id="path56"
         inkscape:connector-curvature="0" /></clipPath><clipPath
       clipPathUnits="userSpaceOnUse"
       id="clipPath66"><path
         d="M -32768,32767 H 32767 V -32768 H -32768 Z"
         id="path64"
         inkscape:connector-curvature="0" /></clipPath><linearGradient
       x1="0"
       y1="0"
       x2="1"
       y2="0"
       gradientUnits="userSpaceOnUse"
       gradientTransform="matrix(32.966248,-32.966248,-32.966248,-32.966248,37.411331,42.63002)"
       spreadMethod="pad"
       id="linearGradient76"><stop
         style="stop-opacity:0.29999237;stop-color:#ffffff"
         offset="0"
         id="stop68" /><stop
         style="stop-opacity:0.29999237;stop-color:#ffffff"
         offset="0.0000001"
         id="stop70" /><stop
         style="stop-opacity:0;stop-color:#ffffff"
         offset="0.8"
         id="stop72" /><stop
         style="stop-opacity:0;stop-color:#ffffff"
         offset="1"
         id="stop74" /></linearGradient><mask
       maskUnits="userSpaceOnUse"
       x="0"
       y="0"
       width="1"
       height="1"
       id="mask78"><g
         id="g88"><g
           clip-path="url(#clipPath66)"
           id="g86"><g
             id="g84"><g
               id="g82"><path
                 d="M -32768,32767 H 32767 V -32768 H -32768 Z"
                 style="fill:url(#linearGradient76);stroke:none"
                 id="path80"
                 inkscape:connector-curvature="0" /></g></g></g></g></mask><linearGradient
       x1="0"
       y1="0"
       x2="1"
       y2="0"
       gradientUnits="userSpaceOnUse"
       gradientTransform="matrix(32.966248,-32.966248,-32.966248,-32.966248,37.411331,42.63002)"
       spreadMethod="pad"
       id="linearGradient102"><stop
         style="stop-opacity:1;stop-color:#231815"
         offset="0"
         id="stop94" /><stop
         style="stop-opacity:1;stop-color:#231815"
         offset="0.0000001"
         id="stop96" /><stop
         style="stop-opacity:1;stop-color:#000000"
         offset="0.8"
         id="stop98" /><stop
         style="stop-opacity:1;stop-color:#000000"
         offset="1"
         id="stop100" /></linearGradient><clipPath
       clipPathUnits="userSpaceOnUse"
       id="clipPath112"><path
         d="m 20.291,59.707 c -2.818,0 -5.124,-2.532 -5.124,-5.625 v 0 -28.251 c 0,-3.093 2.306,-5.625 5.124,-5.625 v 0 h 39.627 c 2.817,0 5.124,2.532 5.124,5.625 v 0 28.251 c 0,3.093 -2.307,5.625 -5.124,5.625 v 0 z M 53.654,26.206 h 1.708 v -4.125 h -1.708 z m -2.581,0 h 1.708 v -4.125 h -1.708 z m -2.581,0 H 50.2 v -4.125 h -1.708 z m -2.581,0 h 1.708 v -4.125 h -1.708 z"
         id="path110"
         inkscape:connector-curvature="0" /></clipPath><linearGradient
       x1="0"
       y1="0"
       x2="1"
       y2="0"
       gradientUnits="userSpaceOnUse"
       gradientTransform="matrix(51.044495,-29.470552,-29.470552,-51.044495,14.58192,54.691605)"
       spreadMethod="pad"
       id="linearGradient122"><stop
         style="stop-opacity:1;stop-color:#ffffff"
         offset="0"
         id="stop118" /><stop
         style="stop-opacity:1;stop-color:#ffffff"
         offset="1"
         id="stop120" /></linearGradient><clipPath
       clipPathUnits="userSpaceOnUse"
       id="clipPath132"><path
         d="M 0,80 H 80 V 0 H 0 Z"
         id="path130"
         inkscape:connector-curvature="0" /></clipPath><clipPath
       clipPathUnits="userSpaceOnUse"
       id="clipPath140"><path
         d="m 15.1667,52.0813 h 49.875 v -6.125 h -49.875 z"
         id="path138"
         inkscape:connector-curvature="0" /></clipPath><clipPath
       clipPathUnits="userSpaceOnUse"
       id="clipPath154"><path
         d="M 0,80 H 80 V 0 H 0 Z"
         id="path152"
         inkscape:connector-curvature="0" /></clipPath><clipPath
       clipPathUnits="userSpaceOnUse"
       id="clipPath162"><path
         d="M 1.02344,79 H 78.9766 V 1 H 1.02344 Z"
         id="path160"
         inkscape:connector-curvature="0" /></clipPath><clipPath
       clipPathUnits="userSpaceOnUse"
       id="clipPath166"><path
         d="M 1.02344,79 H 78.9766 V 1 H 1.02344 Z"
         id="path164"
         inkscape:connector-curvature="0" /></clipPath><clipPath
       clipPathUnits="userSpaceOnUse"
       id="clipPath170"><path
         d="M 78.977,40 C 78.977,11.107 68.877,1 40,1 11.123,1 1.023,11.107 1.023,40 1.023,68.894 11.123,79 40,79 68.877,79 78.977,68.894 78.977,40"
         id="path168"
         inkscape:connector-curvature="0" /></clipPath><clipPath
       clipPathUnits="userSpaceOnUse"
       id="clipPath174"><path
         d="M -24534,24614 H 8232 V -8152 h -32766 z"
         id="path172"
         inkscape:connector-curvature="0" /></clipPath><clipPath
       clipPathUnits="userSpaceOnUse"
       id="clipPath178"><path
         d="M -24534,24614 H 8232 V -8152 h -32766 z"
         id="path176"
         inkscape:connector-curvature="0" /></clipPath><mask
       maskUnits="userSpaceOnUse"
       x="0"
       y="0"
       width="1"
       height="1"
       id="mask180"><g
         id="g192"><g
           clip-path="url(#clipPath174)"
           id="g190"><g
             id="g188"><g
               id="g182" /><g
               id="g186"><g
                 clip-path="url(#clipPath178)"
                 id="g184" /></g></g></g></g></mask><linearGradient
       x1="0"
       y1="0"
       x2="1"
       y2="0"
       gradientUnits="userSpaceOnUse"
       gradientTransform="matrix(0,-53.61993,-53.61993,0,40,74.818359)"
       spreadMethod="pad"
       id="linearGradient198"><stop
         style="stop-opacity:1;stop-color:#ffffff"
         offset="0"
         id="stop194" /><stop
         style="stop-opacity:1;stop-color:#e4e4e5"
         offset="1"
         id="stop196" /></linearGradient><mask
       maskUnits="userSpaceOnUse"
       x="0"
       y="0"
       width="1"
       height="1"
       id="mask200"><g
         id="g226"><g
           clip-path="url(#clipPath162)"
           id="g224"
           style="opacity:0.5"><g
             id="g222"><g
               id="g202" /><g
               id="g220"><g
                 clip-path="url(#clipPath166)"
                 id="g218"><g
                   id="g216"><g
                     clip-path="url(#clipPath170)"
                     id="g214"><g
                       id="g212"><g
                         id="g204" /><g
                         mask="url(#mask180)"
                         id="g210"><g
                           id="g208"><path
                             d="M 78.977,40 C 78.977,11.107 68.877,1 40,1 11.123,1 1.023,11.107 1.023,40 1.023,68.894 11.123,79 40,79 68.877,79 78.977,68.894 78.977,40"
                             style="fill:url(#linearGradient198);stroke:none"
                             id="path206"
                             inkscape:connector-curvature="0" /></g></g></g></g></g></g></g></g></g></g></mask><clipPath
       clipPathUnits="userSpaceOnUse"
       id="clipPath234"><path
         d="M 1.02344,79 H 78.9766 V 1 H 1.02344 Z"
         id="path232"
         inkscape:connector-curvature="0" /></clipPath><clipPath
       clipPathUnits="userSpaceOnUse"
       id="clipPath238"><path
         d="M 78.977,40 C 78.977,11.107 68.877,1 40,1 11.123,1 1.023,11.107 1.023,40 1.023,68.894 11.123,79 40,79 68.877,79 78.977,68.894 78.977,40"
         id="path236"
         inkscape:connector-curvature="0" /></clipPath><linearGradient
       x1="0"
       y1="0"
       x2="1"
       y2="0"
       gradientUnits="userSpaceOnUse"
       gradientTransform="matrix(0,-53.61993,-53.61993,0,40.000019,74.818184)"
       spreadMethod="pad"
       id="linearGradient244"><stop
         style="stop-opacity:1;stop-color:#ffffff"
         offset="0"
         id="stop240" /><stop
         style="stop-opacity:1;stop-color:#000000"
         offset="1"
         id="stop242" /></linearGradient><clipPath
       clipPathUnits="userSpaceOnUse"
       id="clipPath266"><path
         d="M 1,79 H 79 V 1 H 1 Z"
         id="path264"
         inkscape:connector-curvature="0" /></clipPath><clipPath
       clipPathUnits="userSpaceOnUse"
       id="clipPath270"><path
         d="M 1,79 H 79 V 1 H 1 Z"
         id="path268"
         inkscape:connector-curvature="0" /></clipPath><clipPath
       clipPathUnits="userSpaceOnUse"
       id="clipPath274"><path
         d="M -24534,24614 H 8232 V -8152 h -32766 z"
         id="path272"
         inkscape:connector-curvature="0" /></clipPath><clipPath
       clipPathUnits="userSpaceOnUse"
       id="clipPath278"><path
         d="M -24534,24614 H 8232 V -8152 h -32766 z"
         id="path276"
         inkscape:connector-curvature="0" /></clipPath><mask
       maskUnits="userSpaceOnUse"
       x="0"
       y="0"
       width="1"
       height="1"
       id="mask280"><g
         id="g292"><g
           clip-path="url(#clipPath274)"
           id="g290"><g
             id="g288"><g
               id="g282" /><g
               id="g286"><g
                 clip-path="url(#clipPath278)"
                 id="g284" /></g></g></g></g></mask><clipPath
       clipPathUnits="userSpaceOnUse"
       id="clipPath296"><path
         d="M 1,79 H 79 V 1 H 1 Z"
         id="path294"
         inkscape:connector-curvature="0" /></clipPath><clipPath
       clipPathUnits="userSpaceOnUse"
       id="clipPath300"><path
         d="M 39.999,1.975 C 11.57,1.975 1.976,11.57 1.976,40 c 0,28.429 9.594,38.024 38.023,38.024 28.43,0 38.024,-9.595 38.024,-38.024 0,-28.43 -9.594,-38.025 -38.024,-38.025 m 0,77.025 C 11.105,79 1,68.894 1,40 1,11.107 11.105,1 39.999,1 68.896,1 79,11.107 79,40 79,68.894 68.896,79 39.999,79"
         id="path298"
         inkscape:connector-curvature="0" /></clipPath><linearGradient
       x1="0"
       y1="0"
       x2="1"
       y2="0"
       gradientUnits="userSpaceOnUse"
       gradientTransform="matrix(0,-77.263527,-77.263527,0,40,78.75293)"
       spreadMethod="pad"
       id="linearGradient306"><stop
         style="stop-opacity:1;stop-color:#ffffff"
         offset="0"
         id="stop302" /><stop
         style="stop-opacity:1;stop-color:#231815"
         offset="1"
         id="stop304" /></linearGradient><mask
       maskUnits="userSpaceOnUse"
       x="0"
       y="0"
       width="1"
       height="1"
       id="mask308"><g
         id="g342"><g
           clip-path="url(#clipPath266)"
           id="g340"
           style="opacity:0.25"><g
             id="g338"><g
               id="g310" /><g
               id="g336"><g
                 clip-path="url(#clipPath270)"
                 id="g334"><g
                   id="g332"><g
                     id="g312" /><g
                     mask="url(#mask280)"
                     id="g330"><g
                       id="g314" /><g
                       id="g328"><g
                         clip-path="url(#clipPath296)"
                         id="g326"><g
                           id="g324"><g
                             clip-path="url(#clipPath300)"
                             id="g322"><g
                               id="g320"><g
                                 id="g318"><path
                                   d="M 39.999,1.975 C 11.57,1.975 1.976,11.57 1.976,40 c 0,28.429 9.594,38.024 38.023,38.024 28.43,0 38.024,-9.595 38.024,-38.024 0,-28.43 -9.594,-38.025 -38.024,-38.025 m 0,77.025 C 11.105,79 1,68.894 1,40 1,11.107 11.105,1 39.999,1 68.896,1 79,11.107 79,40 79,68.894 68.896,79 39.999,79"
                                   style="fill:url(#linearGradient306);stroke:none"
                                   id="path316"
                                   inkscape:connector-curvature="0" /></g></g></g></g></g></g></g></g></g></g></g></g></g></mask><clipPath
       clipPathUnits="userSpaceOnUse"
       id="clipPath350"><path
         d="M 1,79 H 79 V 1 H 1 Z"
         id="path348"
         inkscape:connector-curvature="0" /></clipPath><clipPath
       clipPathUnits="userSpaceOnUse"
       id="clipPath354"><path
         d="M 39.999,1.975 C 11.57,1.975 1.976,11.57 1.976,40 c 0,28.429 9.594,38.024 38.023,38.024 28.43,0 38.024,-9.595 38.024,-38.024 0,-28.43 -9.594,-38.025 -38.024,-38.025 m 0,77.025 C 11.105,79 1,68.894 1,40 1,11.107 11.105,1 39.999,1 68.896,1 79,11.107 79,40 79,68.894 68.896,79 39.999,79"
         id="path352"
         inkscape:connector-curvature="0" /></clipPath><linearGradient
       x1="0"
       y1="0"
       x2="1"
       y2="0"
       gradientUnits="userSpaceOnUse"
       gradientTransform="matrix(0,-77.263527,-77.263527,0,40,78.753128)"
       spreadMethod="pad"
       id="linearGradient360"><stop
         style="stop-opacity:1;stop-color:#ffffff"
         offset="0"
         id="stop356" /><stop
         style="stop-opacity:1;stop-color:#ffffff"
         offset="1"
         id="stop358" /></linearGradient></defs><sodipodi:namedview
     pagecolor="#ffffff"
     bordercolor="#666666"
     borderopacity="1"
     objecttolerance="10"
     gridtolerance="10"
     guidetolerance="10"
     inkscape:pageopacity="0"
     inkscape:pageshadow="2"
     inkscape:window-width="910"
     inkscape:window-height="480"
     id="namedview4"
     showgrid="false"
     inkscape:zoom="1.5644737"
     inkscape:cx="71.275047"
     inkscape:cy="45.623501"
     inkscape:window-x="0"
     inkscape:window-y="25"
     inkscape:window-maximized="0"
     inkscape:current-layer="g10" /><g
     id="g10"
     inkscape:groupmode="layer"
     inkscape:label="card emulator"
     transform="matrix(1.3333333,0,0,-1.3333333,0,106.66667)"><g
       id="g12"><g
         id="g14"
         clip-path="url(#clipPath18)"><g
           id="g20"><g
             id="g22"><path
               d="m 1,39.956 c 0,-28.892 10.105,-39 39,-39 v 0 c 28.894,0 39,10.108 39,39 v 0 c 0,28.894 -10.106,39 -39,39 v 0 c -28.895,0 -39,-10.106 -39,-39"
               style="fill:url(#linearGradient28);stroke:none"
               id="path30"
               inkscape:connector-curvature="0" /></g></g></g></g><g
       id="g32"><g
         id="g34"
         clip-path="url(#clipPath38)"><g
           id="g40"><g
             id="g42"><path
               d="m 1,39.956 c 0,-28.892 10.105,-39 39,-39 v 0 c 28.894,0 39,10.108 39,39 v 0 c 0,28.894 -10.106,39 -39,39 v 0 c -28.895,0 -39,-10.106 -39,-39"
               style="fill:url(#linearGradient48);stroke:none"
               id="path50"
               inkscape:connector-curvature="0" /></g></g></g></g><g
       id="g52"><g
         id="g54"
         clip-path="url(#clipPath58)"><g
           id="g60"><g
             id="g62" /><g
             id="g90"
             mask="url(#mask78)"><g
               id="g92"><path
                 d="M 16.657,21.876 37.549,0.985 C 38.352,0.967 39.166,0.956 40,0.956 v 0 c 28.894,0 39,10.108 39,39 v 0 c 0,0.892 -0.01,1.767 -0.029,2.624 v 0 L 63.737,57.813 Z"
                 style="fill:url(#linearGradient102);stroke:none"
                 id="path104"
                 inkscape:connector-curvature="0" /></g></g></g></g></g><g
       id="g106"><g
         id="g108"
         clip-path="url(#clipPath112)"><g
           id="g114"><g
             id="g116"><path
               d="m 20.291,59.707 c -2.818,0 -5.124,-2.532 -5.124,-5.625 v 0 -28.251 c 0,-3.093 2.306,-5.625 5.124,-5.625 v 0 h 39.627 c 2.817,0 5.124,2.532 5.124,5.625 v 0 28.251 c 0,3.093 -2.307,5.625 -5.124,5.625 v 0 z M 53.654,26.206 h 1.708 v -4.125 h -1.708 z m -2.581,0 h 1.708 v -4.125 h -1.708 z m -2.581,0 H 50.2 v -4.125 h -1.708 z m -2.581,0 h 1.708 v -4.125 h -1.708 z"
               style="fill:url(#linearGradient122);stroke:none"
               id="path124"
               inkscape:connector-curvature="0" /></g></g></g></g><g
       id="g126"><g
         id="g128"
         clip-path="url(#clipPath132)"><g
           id="g134"><g
             id="g136" /><g
             id="g146"><g
               clip-path="url(#clipPath140)"
               id="g144"
               style="opacity:0.39999402"><path
                 d="M 65.042,45.957 H 15.167 v 6.125 h 49.875 z"
                 style="fill:#1296db;fill-opacity:1;fill-rule:nonzero;stroke:none"
                 id="path142"
                 inkscape:connector-curvature="0" /></g></g></g></g></g><g
       id="g148"><g
         id="g150"
         clip-path="url(#clipPath154)"><g
           id="g156"><g
             id="g158" /><g
             id="g228"
             mask="url(#mask200)"><g
               id="g230" /><g
               id="g258"><g
                 clip-path="url(#clipPath234)"
                 id="g256"
                 style="opacity:0.5"><g
                   id="g254"><g
                     clip-path="url(#clipPath238)"
                     id="g252"><g
                       id="g250"><g
                         id="g248"><path
                           d="M 78.977,40 C 78.977,11.107 68.877,1 40,1 11.123,1 1.023,11.107 1.023,40 1.023,68.894 11.123,79 40,79 68.877,79 78.977,68.894 78.977,40"
                           style="fill:url(#linearGradient244);stroke:none"
                           id="path246"
                           inkscape:connector-curvature="0" /></g></g></g></g></g></g></g></g><g
           id="g260"><g
             id="g262" /><g
             id="g344"
             mask="url(#mask308)"><g
               id="g346" /><g
               id="g374"><g
                 clip-path="url(#clipPath350)"
                 id="g372"
                 style="opacity:0.25"><g
                   id="g370"><g
                     clip-path="url(#clipPath354)"
                     id="g368"><g
                       id="g366"><g
                         id="g364"><path
                           d="M 39.999,1.975 C 11.57,1.975 1.976,11.57 1.976,40 c 0,28.429 9.594,38.024 38.023,38.024 28.43,0 38.024,-9.595 38.024,-38.024 0,-28.43 -9.594,-38.025 -38.024,-38.025 m 0,77.025 C 11.105,79 1,68.894 1,40 1,11.107 11.105,1 39.999,1 68.896,1 79,11.107 79,40 79,68.894 68.896,79 39.999,79"
                           style="fill:url(#linearGradient360);stroke:none"
                           id="path362"
                           inkscape:connector-curvature="0" /></g></g></g></g></g></g></g></g></g></g></g></svg>