<svg xmlns="http://www.w3.org/2000/svg" xmlns:xlink="http://www.w3.org/1999/xlink" viewBox="0 0 192 192"><defs><style>.cls-1{fill:none;}.cls-2{opacity:0.01;}.cls-3{opacity:0.02;}.cls-4{opacity:0.04;}.cls-5{opacity:0.06;}.cls-6{fill:#0188fb;}.cls-7{fill:url(#未命名的渐变_7);}.cls-8{fill:url(#未命名的渐变_46);}.cls-9{fill:url(#未命名的渐变_10);}.cls-10{fill:#fafafa;}.cls-11{fill:#fff;}.cls-12{fill:#ff6269;}</style><linearGradient id="未命名的渐变_7" x1="166" y1="166" x2="26" y2="26" gradientUnits="userSpaceOnUse"><stop offset="0" stop-opacity="0.1"/><stop offset="0.5" stop-color="gray" stop-opacity="0.05"/><stop offset="1" stop-color="#fff" stop-opacity="0.12"/></linearGradient><linearGradient id="未命名的渐变_46" x1="166" y1="166" x2="26" y2="26" gradientUnits="userSpaceOnUse"><stop offset="0" stop-opacity="0.05"/><stop offset="0.5" stop-color="gray" stop-opacity="0"/><stop offset="1" stop-color="#fff" stop-opacity="0.1"/></linearGradient><linearGradient id="未命名的渐变_10" x1="166.67" y1="165.32" x2="60.17" y2="58.83" gradientUnits="userSpaceOnUse"><stop offset="0" stop-opacity="0.02"/><stop offset="1" stop-opacity="0.14"/></linearGradient></defs><title>tencent_map</title><g id="图层_2" data-name="图层 2"><g id="图层_2-2" data-name="图层 2"><rect class="cls-1" width="192" height="192"/><path class="cls-2" d="M96,190C27.34,190,3,165.66,3,97S27.34,4,96,4s93,24.34,93,93S164.66,190,96,190Z"/><path class="cls-3" d="M96,189C28.07,189,4,164.92,4,97S28.07,5,96,5s92,24.07,92,92S163.93,189,96,189Z"/><path class="cls-4" d="M96,188C28.81,188,5,164.19,5,97S28.81,6,96,6s91,23.81,91,91S163.19,188,96,188Z"/><path class="cls-5" d="M186,97c0,66.67-23.32,90-90,90S6,163.67,6,97,29.32,7,96,7,186,30.32,186,97Z"/><path class="cls-6" d="M186,96c0,66.67-23.32,90-90,90S6,162.67,6,96,29.32,6,96,6,186,29.32,186,96Z"/><path class="cls-7" d="M186,96c0,66.67-23.32,90-90,90S6,162.67,6,96,29.32,6,96,6,186,29.32,186,96Z"/><path class="cls-8" d="M96,6C29.32,6,6,29.32,6,96s23.32,90,90,90,90-23.33,90-90S162.68,6,96,6Zm68.59,158.59C151.17,178,130,184,96,184s-55.17-6-68.59-19.41S8,130,8,96s6-55.17,19.41-68.59S62,8,96,8s55.17,6,68.59,19.41S184,62,184,96,178,151.16,164.59,164.59Z"/><path class="cls-9" d="M185.5,111.8,138.68,65,127,57l-20-7-9.28-1H95.07L139,93l-1.88,11.88L108,75.77H90.23L69.06,54.59,63,58l-7,5L47.21,75.52l4.24,46.93,62.86,62.86C162.13,181.42,182.19,160.58,185.5,111.8Z"/><path class="cls-10" d="M152.17,94.63c0,11.17-4.94,21.39-13.14,29.32l-9.59-19.07c5.46-5.82,8.69-13,8.69-20.78,0-19-19.32-34.52-43.42-35.08L96,49C127,49,152.17,69.43,152.17,94.63ZM107.55,117.4a56,56,0,0,1-14.18,1.81c-24.72,0-44.76-15.72-44.76-35.1,0-12.58,8.44-23.6,21.11-29.8C51.94,62,39.83,77.15,39.83,94.63c0,25.2,25.15,45.63,56.17,45.63a65.76,65.76,0,0,0,29.46-6.78ZM141.71,141,87.16,92a1.72,1.72,0,0,1-.47-.34l-.26-.31,0,0h0a11.23,11.23,0,0,1-2.68-7.2c0-6.79,6.29-12.29,14-12.29a14.54,14.54,0,0,1,12,6,11.68,11.68,0,0,1,1.05,1.94h0ZM103,83.22c0-2.42-2.36-4.39-5.26-4.39s-5.26,2-5.26,4.39,2.36,4.39,5.26,4.39S103,85.65,103,83.22Z"/><path class="cls-11" d="M130.44,106.88c5.46-5.82,8.69-13,8.69-20.78a28.62,28.62,0,0,0-3.57-13.74,28.33,28.33,0,0,1,2.57,11.74c0,7.78-3.23,15-8.69,20.78Z"/><path class="cls-11" d="M84.71,86.1c0-6.79,6.29-12.29,14-12.29a14.54,14.54,0,0,1,12,6,11.68,11.68,0,0,1,1.05,1.94h0L141.7,141h0L110.87,79.71h0a11.68,11.68,0,0,0-1.05-1.94,14.54,14.54,0,0,0-12-6c-7.75,0-14,5.5-14,12.29a11,11,0,0,0,1.71,5.84A10.82,10.82,0,0,1,84.71,86.1Z"/><path class="cls-11" d="M148.52,78.46C140.48,61.24,120,49,96,49l-1.29,0a54.18,54.18,0,0,1,20.46,4.43C130.14,57.61,142.26,66.76,148.52,78.46Z"/><path class="cls-11" d="M40.83,96.63c0-11.29,5.05-21.62,13.42-29.58A40.84,40.84,0,0,1,69.72,54.3C51.94,62,39.83,77.15,39.83,94.63a38.31,38.31,0,0,0,4.64,18.18A38.06,38.06,0,0,1,40.83,96.63Z"/><path class="cls-11" d="M93.37,119.2c-18.46,0-34.3-8.77-41.15-21.28,6.19,13.57,22.72,23.28,42.15,23.28a56,56,0,0,0,14.18-1.81l16.12,14.47.8-.39L107.55,117.4A56,56,0,0,1,93.37,119.2Z"/><path class="cls-11" d="M98.76,89.61c2.91,0,5.26-2,5.26-4.39a3.91,3.91,0,0,0-1.08-2.63,3.65,3.65,0,0,1,.08.63c0,2.42-2.36,4.39-5.26,4.39a5.64,5.64,0,0,1-4.19-1.75C93.94,88,96.11,89.61,98.76,89.61Z"/><path class="cls-12" d="M96.37,71.88,77.46,59.2l8,19A14.26,14.26,0,0,1,96.37,71.88Z"/></g></g></svg>