<svg xmlns="http://www.w3.org/2000/svg" xmlns:xlink="http://www.w3.org/1999/xlink" viewBox="0 0 192 192"><defs><style>.cls-1{fill:none;}.cls-2{opacity:0.01;}.cls-3{opacity:0.02;}.cls-4{opacity:0.04;}.cls-5{opacity:0.06;}.cls-6{fill:#067b6c;}.cls-7{fill:url(#未命名的渐变_8);}.cls-8{fill:url(#未命名的渐变_46);}.cls-9{fill:#f5f5f5;}.cls-10{opacity:0.05;}.cls-11{fill:url(#未命名的渐变_2);}.cls-12{fill:#fff;}.cls-13{fill:url(#未命名的渐变_18);}.cls-14{fill:#0ba087;}.cls-15{fill:url(#未命名的渐变_6);}.cls-16{fill:#0baa93;}.cls-17{opacity:0.2;}</style><linearGradient id="未命名的渐变_8" x1="166" y1="166" x2="26" y2="26" gradientUnits="userSpaceOnUse"><stop offset="0" stop-opacity="0.1"/><stop offset="0.5" stop-color="gray" stop-opacity="0.05"/><stop offset="1" stop-color="#fff" stop-opacity="0.12"/></linearGradient><linearGradient id="未命名的渐变_46" x1="166" y1="166" x2="26" y2="26" gradientUnits="userSpaceOnUse"><stop offset="0" stop-opacity="0.05"/><stop offset="0.5" stop-color="gray" stop-opacity="0"/><stop offset="1" stop-color="#fff" stop-opacity="0.1"/></linearGradient><linearGradient id="未命名的渐变_2" x1="165.76" y1="118.31" x2="59.52" y2="12.07" gradientTransform="translate(0 48)" gradientUnits="userSpaceOnUse"><stop offset="0" stop-opacity="0.06"/><stop offset="1" stop-opacity="0.18"/></linearGradient><linearGradient id="未命名的渐变_18" x1="132.86" y1="144.48" x2="73.19" y2="84.81" gradientUnits="userSpaceOnUse"><stop offset="0" stop-opacity="0"/><stop offset="1" stop-opacity="0.12"/></linearGradient><linearGradient id="未命名的渐变_6" x1="111.02" y1="135.08" x2="90.98" y2="115.03" gradientUnits="userSpaceOnUse"><stop offset="0" stop-opacity="0.02"/><stop offset="1" stop-opacity="0.16"/></linearGradient></defs><title>google_admin</title><g id="图层_2" data-name="图层 2"><g id="图层_2-2" data-name="图层 2"><rect class="cls-1" width="192" height="192"/><path class="cls-2" d="M96,190C27.34,190,3,165.66,3,97S27.34,4,96,4s93,24.34,93,93S164.66,190,96,190Z"/><path class="cls-3" d="M96,189C28.07,189,4,164.92,4,97S28.07,5,96,5s92,24.07,92,92S163.93,189,96,189Z"/><path class="cls-4" d="M96,188C28.81,188,5,164.19,5,97S28.81,6,96,6s91,23.81,91,91S163.19,188,96,188Z"/><path class="cls-5" d="M186,97c0,66.67-23.32,90-90,90S6,163.67,6,97,29.32,7,96,7,186,30.32,186,97Z"/><path class="cls-6" d="M186,96c0,66.67-23.32,90-90,90S6,162.67,6,96,29.32,6,96,6,186,29.32,186,96Z"/><path class="cls-7" d="M186,96c0,66.67-23.32,90-90,90S6,162.67,6,96,29.32,6,96,6,186,29.32,186,96Z"/><path class="cls-8" d="M96,6C29.32,6,6,29.32,6,96s23.32,90,90,90,90-23.33,90-90S162.68,6,96,6Zm68.59,158.59C151.17,178,130,184,96,184s-55.17-6-68.59-19.41S8,130,8,96s6-55.17,19.41-68.59S62,8,96,8s55.17,6,68.59,19.41S184,62,184,96,178,151.16,164.59,164.59Z"/><path class="cls-9" d="M129.8,131.1l11.5,3a2,2,0,0,0,2.7-.9l8.3-14.4a2.2,2.2,0,0,0-.6-2.8l-8.4-8.5a5.84,5.84,0,0,1-2.5-4.9V89.2a6,6,0,0,1,2.5-4.9l8.4-8.5a2.15,2.15,0,0,0,.6-2.8L144,58.7a2.06,2.06,0,0,0-2.7-.8L129.7,61a6.25,6.25,0,0,1-5.5-.2L112.4,54a5.72,5.72,0,0,1-2.9-4.6l-3.1-11.6a2.08,2.08,0,0,0-2.1-1.9H87.6a2.08,2.08,0,0,0-2.1,1.9L82.4,49.5a6.23,6.23,0,0,1-2.9,4.6L67.7,61a5.66,5.66,0,0,1-5.5.2l-11.5-3A2.09,2.09,0,0,0,48,59L39.7,73.4a2.2,2.2,0,0,0,.6,2.8l8.5,8.5a5.84,5.84,0,0,1,2.5,4.9v13.6a6,6,0,0,1-2.5,4.9l-8.3,8.4a2.15,2.15,0,0,0-.6,2.8l8.3,14.4a2.2,2.2,0,0,0,2.7.9l11.5-3a6.25,6.25,0,0,1,5.5.2l11.8,6.8a5.72,5.72,0,0,1,2.9,4.6l3.1,11.4a2.09,2.09,0,0,0,2.1,2h16.7a2.08,2.08,0,0,0,2.1-1.9l3.1-11.5a6.23,6.23,0,0,1,2.9-4.6l11.8-6.8A4.89,4.89,0,0,1,129.8,131.1Z"/><g class="cls-10"><path d="M150.7,73.8l-8.4,8.5a6,6,0,0,0-2.5,4.9v13.4a6,6,0,0,0,1.24,3.69,6.31,6.31,0,0,1-.24-1.69V89.2a6,6,0,0,1,2.5-4.9l8.4-8.5a2.15,2.15,0,0,0,.6-2.8l-.79-1.35A2,2,0,0,1,150.7,73.8Z"/><path d="M108.5,47.4a5.48,5.48,0,0,0,1.18,3.1,5.34,5.34,0,0,1-.18-1.1l-3.1-11.6a2.06,2.06,0,0,0-.87-1.51Z"/><path d="M47.8,82.7l-8.36-8.36a2.21,2.21,0,0,0,.86,1.86l8.5,8.5a5.65,5.65,0,0,1,1.26,1.21A5.7,5.7,0,0,0,47.8,82.7Z"/><path d="M78.7,136.6l-11.8-6.8a6.25,6.25,0,0,0-5.5-.2l-11.5,3a2.2,2.2,0,0,1-2.7-.9l-7.51-13a2.53,2.53,0,0,0,.21.63l8.3,14.4a2.2,2.2,0,0,0,2.7.9l11.5-3a6.25,6.25,0,0,1,5.5.2l11.8,6.8a6.12,6.12,0,0,1,1.71,1.5A5.83,5.83,0,0,0,78.7,136.6Z"/><path d="M151.7,116l-.14-.14a2.13,2.13,0,0,1-.26.94L143,131.2a2,2,0,0,1-2.7.9l-11.5-3a4.89,4.89,0,0,0-5.4.7l-11.8,6.8a6.23,6.23,0,0,0-2.9,4.6l-3.1,11.5a2.08,2.08,0,0,1-2.1,1.9H86.8a2.13,2.13,0,0,1-1.21-.39l.11.39a2.09,2.09,0,0,0,2.1,2h16.7a2.08,2.08,0,0,0,2.1-1.9l3.1-11.5a6.23,6.23,0,0,1,2.9-4.6l11.8-6.8a4.89,4.89,0,0,1,5.4-.7l11.5,3a2,2,0,0,0,2.7-.9l8.3-14.4A2.2,2.2,0,0,0,151.7,116Z"/></g><path class="cls-11" d="M104.3,185.9c57.3-1.8,79.4-23.6,81.6-80.5L139.1,58.7l-7.6,6.4L106.3,39.9,96.9,72.2,41.7,77.9,56.6,92.4l-5,40.8Z"/><path class="cls-9" d="M129.8,131.1l11.5,3a2,2,0,0,0,2.7-.9l8.3-14.4a2.2,2.2,0,0,0-.6-2.8l-8.4-8.5a5.84,5.84,0,0,1-2.5-4.9V89.2a6,6,0,0,1,2.5-4.9l8.4-8.5a2.15,2.15,0,0,0,.6-2.8L144,58.7a2.06,2.06,0,0,0-2.7-.8L129.7,61a6.25,6.25,0,0,1-5.5-.2L112.4,54a5.72,5.72,0,0,1-2.9-4.6l-3.1-11.6a2.08,2.08,0,0,0-2.1-1.9H87.6a2.08,2.08,0,0,0-2.1,1.9L82.4,49.5a6.23,6.23,0,0,1-2.9,4.6L67.7,61a5.66,5.66,0,0,1-5.5.2l-11.5-3A2.09,2.09,0,0,0,48,59L39.7,73.4a2.2,2.2,0,0,0,.6,2.8l8.5,8.5a5.84,5.84,0,0,1,2.5,4.9v13.6a6,6,0,0,1-2.5,4.9l-8.3,8.4a2.15,2.15,0,0,0-.6,2.8l8.3,14.4a2.2,2.2,0,0,0,2.7.9l11.5-3a6.25,6.25,0,0,1,5.5.2l11.8,6.8a5.72,5.72,0,0,1,2.9,4.6l3.1,11.4a2.09,2.09,0,0,0,2.1,2h16.7a2.08,2.08,0,0,0,2.1-1.9l3.1-11.5a6.23,6.23,0,0,1,2.9-4.6l11.8-6.8A4.89,4.89,0,0,1,129.8,131.1Z"/><path class="cls-12" d="M144.3,109.5l8.26,8.36a2.21,2.21,0,0,0-.86-1.86l-8.4-8.5a5.65,5.65,0,0,1-1.26-1.21A5.7,5.7,0,0,0,144.3,109.5Z"/><path class="cls-12" d="M113.4,56l11.8,6.8a6.25,6.25,0,0,0,5.5.2l11.6-3.1a2.06,2.06,0,0,1,2.7.8l7.51,12.95a2.53,2.53,0,0,0-.21-.65L144,58.7a2.06,2.06,0,0,0-2.7-.8L129.7,61a6.25,6.25,0,0,1-5.5-.2L112.4,54a6.12,6.12,0,0,1-1.72-1.5A5.83,5.83,0,0,0,113.4,56Z"/><path class="cls-12" d="M41.5,118.5l8.3-8.4a6,6,0,0,0,2.5-4.9V91.6a6,6,0,0,0-1.24-3.69,6.31,6.31,0,0,1,.24,1.69v13.6a6,6,0,0,1-2.5,4.9l-8.3,8.4a2.15,2.15,0,0,0-.6,2.8l.79,1.37A2,2,0,0,1,41.5,118.5Z"/><path class="cls-12" d="M83.6,145.2a5.48,5.48,0,0,0-1.18-3.1,5.35,5.35,0,0,1,.18,1.1l3.1,11.4a2,2,0,0,0,.89,1.61Z"/><path class="cls-12" d="M40.3,76.2l.14.14a2.13,2.13,0,0,1,.26-.94L49,61a2.09,2.09,0,0,1,2.7-.8l11.5,3a5.66,5.66,0,0,0,5.5-.2l11.8-6.9a6.23,6.23,0,0,0,2.9-4.6l3.1-11.7a2.08,2.08,0,0,1,2.1-1.9h16.7a2.12,2.12,0,0,1,1.23.39l-.13-.49a2.08,2.08,0,0,0-2.1-1.9H87.6a2.08,2.08,0,0,0-2.1,1.9L82.4,49.5a6.23,6.23,0,0,1-2.9,4.6L67.7,61a5.66,5.66,0,0,1-5.5.2l-11.5-3A2.09,2.09,0,0,0,48,59L39.7,73.4A2.2,2.2,0,0,0,40.3,76.2Z"/><path class="cls-13" d="M129.8,131.1l11.5,3a2,2,0,0,0,2.7-.9l8.3-14.4a2.2,2.2,0,0,0-.6-2.8l-8.4-8.5a5.7,5.7,0,0,1-2.27-3.23L114.72,78,108,94,86,72v34l2.5,3v39.5l8.1,8.1h7.9a2.08,2.08,0,0,0,2.1-1.9l3.1-11.5a6.23,6.23,0,0,1,2.9-4.6l11.8-6.8A4.89,4.89,0,0,1,129.8,131.1Z"/><path class="cls-14" d="M106,104H86v51.59a2.16,2.16,0,0,0,1.8,1h16.7A2.1,2.1,0,0,0,106,156Z"/><polygon class="cls-15" points="86 120.01 106 120.01 106 140.1 86 120.01"/><path class="cls-16" d="M106,72V93.65a2,2,0,0,1-1.26,1.85L96,99l-8.74-3.5A2,2,0,0,1,86,93.65V72a26,26,0,1,0,20,0Z"/><g class="cls-17"><path class="cls-12" d="M87,95.65a2,2,0,0,0,1.26,1.85L97,101l8.74-3.5A2,2,0,0,0,107,95.65V74a26.09,26.09,0,0,1,12.71,11.36A26.08,26.08,0,0,0,106,72V93.65a2,2,0,0,1-1.26,1.85L96,99l-8.74-3.5a1.94,1.94,0,0,1-.26-.15Z"/><path class="cls-12" d="M71,98A26,26,0,0,1,86,74.46V72a26,26,0,0,0-12.73,36.63A25.9,25.9,0,0,1,71,98Z"/></g></g></g></svg>